<svg xmlns="http://www.w3.org/2000/svg" viewBox="0 0 54.45 159.7"><defs><style>.cls-1{fill:#a6856a;}.cls-2{fill:#aba09a;}.cls-3{fill:#422819;}.cls-4{fill:#c6bebb;}.cls-5{fill:#e7c1a2;}.cls-6{fill:#3f0d0a;}.cls-7{fill:#948f9a;}.cls-8{fill:#502e34;}</style></defs><title>Asset 15</title><g id="Layer_2" data-name="Layer 2"><g id="runa"><g id="runa-16"><g id="runa-16-svg_Image" data-name="runa-16-svg Image"><path class="cls-1" d="M.12,26q0-4.18,0-8.36L.8,15.79,1.16,15h0l.71-.25A6.38,6.38,0,0,0,3,14.37a19.68,19.68,0,0,1,1.72-1.16c1.81-.82,3.67-1.56,5.5-2.34.17-.07.42-.31.39-.42-.09-.41.07-.56.43-.66.09,0,.12-.27.17-.41l.29-1A3.85,3.85,0,0,0,9.76,6.95c-.4.05-.79.17-1.19.24-.88.16-1.65.89-2.63.48a.39.39,0,0,0-.28.05A5.08,5.08,0,0,0,3,10.63l-.52.48A5.61,5.61,0,0,1,2,10.23a5.48,5.48,0,0,1-.12-1A4.87,4.87,0,0,1,3.71,5.9a24.77,24.77,0,0,1,3.2-2,30.77,30.77,0,0,1,10.9-3A67.73,67.73,0,0,1,25.18.49c2.51,0,5,.08,7.55.14.62,0,1.24.08,1.86.12a1,1,0,0,0,.26-.06,2,2,0,0,0-.27-.07L32.72.44a.91.91,0,0,1-.21-.08,1.07,1.07,0,0,1,.21,0c1,0,2,0,3,.15,1.54.18,3.07.44,4.6.66a7.76,7.76,0,0,0,.73.46c.74.36,1.5.69,2.24,1.06.11.05.15.25.22.38a2.5,2.5,0,0,1-.46,0c-.31,0-.61-.12-.91-.18a31.38,31.38,0,0,1-3.62-.69c-.88-.27-1.91.1-2.65-.65,0,0-.09,0-.14,0-.68,0-1.37,0-2.05,0-.52,0-1.05-.14-1.57-.1-1.4.1-2.79.29-4.19.4-2.57.21-5.16.31-7.72.61-3,.36-6,.9-9,1.35-.55.08-1.23.36-1.65.15-.77-.39-1.26-.05-1.84.27a10.42,10.42,0,0,0-1.3.68c-.62.47-1.19,1-1.77,1.55-.39.35-.76.72-1.12,1.11A1.28,1.28,0,0,0,3.31,8a2.17,2.17,0,0,0,.43-.09c1.91-.83,3.77-1.79,5.73-2.47A55.39,55.39,0,0,1,21.72,3.12a2.75,2.75,0,0,1,1.49,0c1,.58,2,.25,3,.33.37,0,1-.4.94.51,0,0,.12.1.17.09.42-.07.95,0,1.22-.25a2,2,0,0,1,1.61-.36c1,.06,1.95.19,2.93.27A58.41,58.41,0,0,1,43.85,5.49a16.5,16.5,0,0,1,7.94,4.22c.26.27.44.2.52-.08a7.13,7.13,0,0,0,.08-.91c0-.31.13-.62.19-.93A3.41,3.41,0,0,1,52.8,11a2,2,0,0,0,0,1.72,9.7,9.7,0,0,0,.81,1.52,5.81,5.81,0,0,1,.91,3.42c-.09,2.74-.15,5.47-.22,8.21q-.16,6.26-.32,12.53a1.34,1.34,0,0,0-.46.12c-.69.5-1.37,1-2.05,1.54-.62.31-1.27.57-1.86.93a1.07,1.07,0,0,0-.42.72c-.08.83-.11,1.67-.11,2.51a.92.92,0,0,0,.29.6c.68.62,1.4,1.21,2.1,1.82.38.49.74,1,1.15,1.47.11.13.39.12.59.17.11-.47.42-1,.29-1.39a28.28,28.28,0,0,0-1.35-2.93c-.49-.3-.24-.54.07-.78l.62-.47.49-.33a4.27,4.27,0,0,0,.17.61,5.53,5.53,0,0,0,.35.6v.87l-.24.17.23.1c0,.26,0,.53,0,.79-.06,2.9-.11,5.81-.18,8.71-.09,3.57-.2,7.15-.3,10.72a4.94,4.94,0,0,0-.63-.12c-.67,0-.74-.35-.42-.87.71-1.14.16-2.42.41-3.61,0-.09-.09-.2-.14-.3-.09.05-.23.09-.27.17-.19.38-.35.77-.53,1.15l-.15.37,0,0a14,14,0,0,1-1.47,1.8c-1.27,1.13-1.4,2.6-1.36,4.12,0,.16.23.46.36.46.71,0,1.42,0,2.13-.07.42,0,.85,0,1.27.05s.69-.19.68-.71c0-.78.09-1.55.14-2.33,0,.26,0,.52,0,.78,0,2.75-.09,5.5-.16,8.25,0,1.62-.12,3.24-.19,4.87v.72c-.07.2-.12.41-.21.61-.15.35-.33.68-.49,1l-1.84.28c0-.66.08-1.31.1-2,0-.09-.1-.18-.15-.27a.92.92,0,0,0-.1.25c-.05.65-.1,1.31-.15,2a6.52,6.52,0,0,1-1.06.16c-.6,0-.69.32-.69.82s-.07,1.19-.12,1.78c-.07.85.18,1.08,1,.9.28-.06.55-.16.82-.24L52,84.55l.34-.24a1.1,1.1,0,0,0,.62-1.2,3.29,3.29,0,0,1,.13-.82L53,89.57c-.17.24-.34.47-.49.71s-.23.39-.34.59a2.14,2.14,0,0,0-.23-.57c-.3-.37-.59-.91-1-1s-.85.29-1.21.56-.32.52-.48.78a10.46,10.46,0,0,0-.84,2.48c-.16,2.08-.13,4.17-.2,6.26,0,.41.11.61.53.46l3.16-1.16a.84.84,0,0,0,.68-1c-.06-1-.23-2-.2-3,0-1.23.2-2.45.33-3.67,0-.11.15-.2.23-.3,0,.29,0,.57,0,.86q-.13,6.48-.26,13-.27,13.56-.54,27.13c-.06,2.71-.13,5.42-.19,8.13-.21,0-.49.06-.33-.37.07-.19-.09-.47-.15-.72a3.18,3.18,0,0,0-.55.35,1.79,1.79,0,0,0-.35,1.86c0,.2-.16.46-.28.67s-.19.1-.28.15a2.73,2.73,0,0,1,0-.64c.26-1,.56-2.07.83-3.11a3.46,3.46,0,0,0,.05-.58,2.36,2.36,0,0,0-.3.45,13.36,13.36,0,0,0-.7,2,7.4,7.4,0,0,0,.06,4.38c.12.28.47.47.72.7.23-.31.64-.61.66-.93,0-.73-.14-1.46-.17-2.2a1.94,1.94,0,0,1,.22-.85,8.67,8.67,0,0,1,.56-.92c0,.24,0,.48,0,.71,0,2.35-.14,4.69-.14,7a2.14,2.14,0,0,1-.8,1.79.57.57,0,0,0-.91.2,3.22,3.22,0,0,1-1.62,1.55c-1.29.68-2.46,1.58-3.82,2.18-.54.24-1,.67-1.54.9a21.36,21.36,0,0,1-2.33.76c-1.54.44-3.08.92-4.64,1.27-1,.22-2.07.23-3.1.35s-2,.29-3,.42c-.72.1-1.45.16-2.18.24h-.14a1.29,1.29,0,0,1,.16-.19c.53-.44,1.09-.86,1.6-1.33.15-.14.18-.41.26-.62a2.08,2.08,0,0,0-.56.14c-.73.42-1.42.93-2.17,1.29a6.5,6.5,0,0,1-2.39.83c-1.29,0-2.59-.26-3.9-.34s-1.24,0-1.14,1.15c0,.11-.19.34-.26.33-1.66-.35-3.31-.73-5-1.09-.44-.1-.89-.15-1.33-.23-1.13-.59-2.28-1.14-3.37-1.78a15.55,15.55,0,0,1-2.22-1.6,24.07,24.07,0,0,1-3.68-3.42A30.26,30.26,0,0,1,1.39,146a1.65,1.65,0,0,1-.1-.7q-.07-5.44-.13-10.87-.09-9.33-.16-18.65c0-3.19-.08-6.38-.1-9.58s0-6.09,0-9.14l.28-.14.44.65.21.32c.08-.12.23-.25.22-.36a12.86,12.86,0,0,0-.19-1.92c0-.17-.41-.26-.64-.39V94c.45.26.71.23.67-.38-.07-1.1-.11-2.19-.17-3.29A1,1,0,0,0,1.56,90a1.15,1.15,0,0,0-.13.34c0,.55,0,1.1,0,1.65a1.77,1.77,0,0,1-.27.57Q1.06,87.38,1,82.2C1,77.67.93,73.14.87,68.61c0-3.18-.11-6.37-.16-9.55,0-1.34,0-2.68,0-4a2,2,0,0,0-.29-.68V53.21c.08-.19.24-.38.24-.57q0-5.07-.09-10.13c0-.12-.15-.25-.23-.37a2.48,2.48,0,0,1-.07-.42q0-3.63,0-7.27a3.67,3.67,0,0,0,.19-1A9.23,9.23,0,0,0,.12,32q0-.72,0-1.44l.17-1.87ZM3.07,132.7l-.16,0,.06.14.15.14.32.41-.92-.58c-.16-.1-.34-.18-.51-.27.09.18.14.41.28.53A15.56,15.56,0,0,0,5,135.09c1.68.85,3.48,1.47,5.23,2.19a.77.77,0,0,0,.29,0,1.6,1.6,0,0,0-.12-.58c-.07-.11-.3-.12-.46-.17A22.58,22.58,0,0,1,4,133.93a3.37,3.37,0,0,1-.54-.58,2.78,2.78,0,0,1,.38.18A22.06,22.06,0,0,0,10,136.26a1.64,1.64,0,0,0,.46,0c-.13-.11-.24-.27-.38-.31a23.5,23.5,0,0,1-6.9-3.12Zm-.11,6,.14.15.45.41.16.06,0-.16-.1-.26a1.47,1.47,0,0,1,.41.13,21.89,21.89,0,0,0,5.82,2.75c.18.06.57,0,.6-.1.1-.31.14-.68-.37-.74a1.88,1.88,0,0,1-.41-.13c-2.95-1-5.84-2.18-7.86-4.75a.69.69,0,0,0-.15-.15.92.92,0,0,0-.19-.08c0,.06,0,.14,0,.19.39.73.79,1.46,1.18,2.2l.14.15.1.18Zm-1.25-14.9.14.14a10.49,10.49,0,0,0,1.47,1.55,20.68,20.68,0,0,0,6.8,2.81,1.57,1.57,0,0,0,.49,0,1.71,1.71,0,0,0-.45-.3,23.58,23.58,0,0,1-6.46-2.54,6.76,6.76,0,0,1-1-.91,3.85,3.85,0,0,1,.37.21,21.38,21.38,0,0,0,7,2.93c.16,0,.52-.09.53-.17.06-.49.14-1-.61-1.12A9.51,9.51,0,0,1,8.48,126a17.43,17.43,0,0,1-6-2.87,9,9,0,0,0-.79-.53v1l-.19,0ZM26.79,4.06l-.21.13.06.1.14-.24.08,0h0ZM11.95,23.24h-.58c.14-.13.29-.25.42-.38s.25-.22.27-.35a.38.38,0,0,0-.24-.3.58.58,0,0,0-.44.13c-.28.28-.4.59,0,.9h.57l0,0ZM2.58,127.88a2.09,2.09,0,0,0-.16.21c.16.16.33.3.5.45a1.18,1.18,0,0,0,.15.16,21.14,21.14,0,0,0,7.17,3.19c.1,0,.23-.06.35-.09a2,2,0,0,0-.39-.25c-1.64-.6-3.28-1.18-4.91-1.8A6.76,6.76,0,0,1,4.16,129c.26.08.52.16.78.26,1.72.64,3.44,1.3,5.17,1.93.14.05.33,0,.49,0-.12-.09-.23-.23-.37-.26a23.63,23.63,0,0,1-7.29-3.12l-.37-.49a2.61,2.61,0,0,1,.6.25,20.92,20.92,0,0,0,7,3c.12,0,.29-.11.44-.17a1.56,1.56,0,0,0-.3-.4,1.65,1.65,0,0,0-.48-.15c-2.67-.79-5.33-1.6-7.47-3.5a.63.63,0,0,0-.25-.13.93.93,0,0,0-.25,0,1.17,1.17,0,0,0,.08.19l.6.89C2,127.5,2.8,127.69,2.58,127.88ZM51.34,137a.82.82,0,0,0,.24-.14,2.88,2.88,0,0,0,.23-.38,1.43,1.43,0,0,0-.41.11c-.09.05-.12.19-.17.29l-.14.32ZM10.76,76.45c.16.38.33.38.5,0l.5-.89s-.11,0-.11,0l-.51.82h-.27l-.5-.83-.11,0,.44.86S10.74,76.44,10.76,76.45ZM7.82,56.92a.71.71,0,0,0,0-.26c0-.07-.1-.13-.16-.19l.06.5a1,1,0,0,1,.11.32.94.94,0,0,1-.11.31,1.58,1.58,0,0,0,.41-.2s0-.23,0-.3A.89.89,0,0,0,7.82,56.92ZM9.08,71.4a4.12,4.12,0,0,1,.49,0c.09,0,.18.1.26.09a.8.8,0,0,0,.26-.13,2.43,2.43,0,0,0-.63-.21c-.16,0-.33.12-.5.19l-.12.12a1.29,1.29,0,0,0,0,1.76.73.73,0,0,0,1.08.34c.09,0,.14-.17.21-.26a1.56,1.56,0,0,1-.29,0L9,73.07V71.54ZM13.69,29a3,3,0,0,1,.55.29c.08.06.07.24.1.36a1.23,1.23,0,0,0,.16-.44c0-.48-.43-.6-.89-.29,0,.25-.09.49-.12.74,0,0,.07,0,.11.07l.08-.66ZM4.59,102.8c0,.19,0,.38,0,.57a1,1,0,0,0,.05.18l-.11-.74-.6-.35a2.91,2.91,0,0,1,.23.43,5.26,5.26,0,0,1,.13.58Zm7.35-77.11c-.34.51-.28,1,.14,1.08a.53.53,0,0,0,.26-.06.38.38,0,0,0,0-.14l-.38-.88a1.94,1.94,0,0,1,.39.13,1,1,0,0,1,.21.24c0-.05.12-.13.1-.16s-.13-.32-.21-.33A1.39,1.39,0,0,0,11.94,25.68ZM4.87,146.48l.11.05-.08-.08c-.28-.35-.55-.7-.85-1a3.55,3.55,0,0,0-.46.37s.06.13.09.2C4.41,145.37,4.51,146.25,4.87,146.48Zm7.93-90,.7.1a2.75,2.75,0,0,1-.28.48c-.06.07-.21.06-.32.09.17,0,.42.18.49.12a1.06,1.06,0,0,0,.34-.63c0-.18-.22-.49-.37-.51s-.38.22-.57.35l0,0Zm-5.48,19h0l-.76-.23a3.67,3.67,0,0,0-.15.66c0,.43,0,.86,0,1.29a1.45,1.45,0,0,0,.08.31c0-.1.06-.21.1-.31s.11-.28.17-.42a3.63,3.63,0,0,1,.36.37,2.71,2.71,0,0,1,.13.33,1,1,0,0,0,.17.19c0-.08,0-.17,0-.25a9.09,9.09,0,0,0,0-1.13A4.25,4.25,0,0,0,7.33,75.55Zm0,9.51h0c-.06-.08-.13-.25-.18-.24-.53.06-.45-.32-.41-.61,0-.06.32-.07.48-.12A.35.35,0,0,0,7.38,84s0-.11-.05-.12a2.93,2.93,0,0,0-.67-.16s-.16.26-.16.4a9.1,9.1,0,0,0,0,1.57c0,.18.32.39.53.45s.47-.18.48-.3A2.69,2.69,0,0,0,7.32,85.06Zm-4,45.76-.65-.49c-.29-.22-.58-.44-.88-.65a2.59,2.59,0,0,0-.36-.18,1.27,1.27,0,0,0,0,.45,4.27,4.27,0,0,0,1.64,2.21A22.48,22.48,0,0,0,10,135.28c.38.11.52.09.57-.38s-.21-.45-.47-.53a22.65,22.65,0,0,1-6.5-2.83,3.56,3.56,0,0,1-.57-.64l.25,0a20.34,20.34,0,0,0,6.88,3.12,1.15,1.15,0,0,0,.4,0c-.13-.1-.25-.26-.41-.3A24.91,24.91,0,0,1,3.37,130.82Zm-.63-12.48-.27-.11.13.23a.87.87,0,0,0,.14.16,21.22,21.22,0,0,0,7.48,2.86c.09,0,.2-.05.3-.08-.06-.09-.1-.22-.19-.25a3.3,3.3,0,0,0-.55-.15A23.87,23.87,0,0,1,2.74,118.34Zm-.16,23.37-.09-.09,0,.15a4.33,4.33,0,0,0,.46.62,18.71,18.71,0,0,0,6.88,3.9,2,2,0,0,0,.52,0,2.69,2.69,0,0,0-.47-.35c-1.33-.6-2.67-1.19-4-1.8-.19-.09-.31-.29-.47-.44l.65.27c1.25.55,2.49,1.11,3.74,1.65a1.75,1.75,0,0,0,.53.05,2.21,2.21,0,0,0-.4-.33l-5.44-2.6-.68-.35h0c-.26-.28-.5-.58-.78-.85a2,2,0,0,0-.44-.25c.09.13.19.25.27.38A1.7,1.7,0,0,1,3,142l-.29-.17ZM3,140.13a.62.62,0,0,1,.2.07,19.93,19.93,0,0,0,6.67,3.6,1.64,1.64,0,0,0,.57,0,3.94,3.94,0,0,0-.4-.57c-.09-.09-.26-.1-.4-.15a20.74,20.74,0,0,1-7.12-3.94.87.87,0,0,0-.3-.11l.07.4c-.21,0-.58-.09-.28.33a8,8,0,0,0,.87,1,18.34,18.34,0,0,0,6.66,3.84c.32.12.67.49,1,0a4.38,4.38,0,0,0-.87-.6,21,21,0,0,1-6.41-3.46A1.88,1.88,0,0,1,3,140.13ZM25.49,6.06c.22-.18.58-.34.62-.55s-.2-.54-.31-.82l-.74.5-1.44.93c-.29.19-.33.35,0,.57.61.37,1.16.85,1.78,1.19a8.88,8.88,0,0,0,1.77.65c.19.05.43-.1.65-.15a3.36,3.36,0,0,0-.43-.45c-.58-.42-1.19-.8-1.75-1.25C25.53,6.55,25.54,6.26,25.49,6.06ZM50.86,72.52c-.48,0-1,0-1.44,0s-.65.21-.65.68c0,.81-.06,1.63-.05,2.44,0,.17.21.49.31.49.8,0,1.6-.16,2.4-.25.44-.05.89-.08,1.33-.16.14,0,.35-.18.35-.29,0-.81,0-1.62,0-2.43,0-.43-.18-.63-.59-.61C52,72.42,51.43,72.48,50.86,72.52Zm.73-17.62c-.3-.06-.6-.14-.9-.18-1.62-.23-1.62-.22-1.63,1.35,0,2.21,0,2.21,2.23,2.27a3.75,3.75,0,0,0,1.05.1c.25,0,.63-.3.66-.5a15.56,15.56,0,0,0,.07-2.33.7.7,0,0,0-.36-.52A5.87,5.87,0,0,0,51.59,54.9ZM1.86,120.1c-.34-.09-.61,0-.41.38a3,3,0,0,0,.69,1A9,9,0,0,0,4.22,123c1.93.83,3.92,1.52,5.9,2.23.1,0,.4-.15.43-.27a.64.64,0,0,0-.56-.87,20.83,20.83,0,0,1-7-2.76,4.84,4.84,0,0,1-.72-.78,20.58,20.58,0,0,0,7.61,3.21,1.8,1.8,0,0,0,.65-.1c-.16-.18-.3-.46-.5-.52-2.76-.78-5.56-1.47-7.86-3.35-.09-.07-.26,0-.39-.06Zm46.48,2.54.08.07c-.17.79-.31,1.6-.53,2.38s-.05,1.85-.85,2.52c-.06.05,0,.25,0,.38s.09.38.14.57.08.24.12.37c.11-.07.31-.14.32-.22.11-.76.87-1,1.23-1.49a11.25,11.25,0,0,0,.88-1.82,2.19,2.19,0,0,0,.08-.25c.06.06.14.11.17.18.21.43.44.28.65,0a3.2,3.2,0,0,0,.75-1.08c.24-1.1.36-2.24.51-3.36,0-.09-.09-.19-.14-.29-.08.07-.2.13-.24.22a1.68,1.68,0,0,0-.09.49c0,.26.05.55-.41.42-.1,0-.34.24-.42.41-.19.44-.31.9-.46,1.36L50,124c-.13-.13-.32-.25-.37-.41a1.18,1.18,0,0,1,0-.63c.15-.57.39-1.13.49-1.71.07-.4-.25-.86-.62-.5a31.4,31.4,0,0,0-2.33,2.76c-.07.08,0,.29,0,.44a2.32,2.32,0,0,0,.36-.3C47.83,123.33,48.08,123,48.34,122.64ZM27.77,15.93l-.35.39C26.27,17.54,25.11,18.75,24,20a14.59,14.59,0,0,0-1,1.36c-.06.08,0,.22,0,.33s.24,0,.32-.06c.58-.41,1.17-.82,1.72-1.27q2.53-2.09,5-4.22s0-.29-.06-.35c-2.1-1.77-4.21-3.54-6.34-5.29a2.79,2.79,0,0,0-.91-.31,3.64,3.64,0,0,0,.46.88c1.42,1.49,2.87,2.95,4.3,4.42A4.49,4.49,0,0,1,27.77,15.93ZM23.42,42.09a7,7,0,0,0,.69-.41C26,40.09,28,38.49,29.92,36.92c.5-.4.44-.66,0-1.05C28.93,35,28,34,27,33.16s-2.21-1.76-3.33-2.61a1.55,1.55,0,0,0-.58-.14,1.47,1.47,0,0,0,.16.44c.52.65,1,1.31,1.59,1.91,1,1.09,2.06,2.14,3.1,3.2.19.2.44.36.09.69-.85.81-1.67,1.65-2.46,2.52s-1.33,1.55-2,2.34A2.12,2.12,0,0,0,23.42,42.09Zm7.15-10.38a8.07,8.07,0,0,0-.69-1q-2.15-2.26-4.33-4.49c-.28-.29-.35-.4,0-.75,1.41-1.4,2.76-2.85,4.11-4.31a4.28,4.28,0,0,0,.5-.9,3.3,3.3,0,0,0-1.08.38c-1.86,1.56-3.68,3.18-5.53,4.76-.38.32-.37.52,0,.83,1.13,1,2.22,2,3.35,2.93S29.1,31,30.2,31.83a1.17,1.17,0,0,0,.29.12Zm.1,9.09c0-.07-.09-.18-.11-.18a1,1,0,0,0-.4.12c-.79.58-1.6,1.14-2.35,1.76-1.29,1.07-2.55,2.18-3.81,3.28-.22.2-.48.38-.08.74,1.52,1.35,3,2.75,4.52,4.1.61.54,1.29,1,2,1.47.08.06.21,0,.32.06s0-.24,0-.32a5.77,5.77,0,0,0-.61-.88c-1.32-1.45-2.65-2.9-4-4.33-.33-.34-.3-.51,0-.85,1.44-1.5,2.84-3,4.25-4.57C30.46,41.08,30.56,40.94,30.67,40.8ZM23.72,61.94a5.19,5.19,0,0,0,.59-.33c2-1.61,4-3.22,6-4.86a.63.63,0,0,0,0-.61c-1.93-1.72-3.88-3.41-5.84-5.1a4.15,4.15,0,0,0-.64-.45c-.08,0-.21,0-.32,0a1,1,0,0,0,.09.31,7.38,7.38,0,0,0,.64.87q2,2.18,4,4.34c.26.28.3.41,0,.71-1.07,1-2.1,2.1-3.13,3.17-.44.47-.83,1-1.23,1.49C23.75,61.56,23.76,61.7,23.72,61.94Zm6.81-1.37a5.14,5.14,0,0,0-.94.47c-.67.52-1.3,1.09-1.94,1.64-1.11.94-2.23,1.89-3.35,2.82-.35.29-.39.51,0,.84,1.47,1.34,2.91,2.72,4.4,4a16.29,16.29,0,0,0,1.81,1.28c.1.07.26,0,.39.06a1.76,1.76,0,0,0-.11-.37,2.8,2.8,0,0,0-.36-.53c-1.35-1.47-2.7-3-4.09-4.4-.32-.33-.41-.48,0-.83.86-.8,1.7-1.62,2.5-2.48.65-.7,1.25-1.45,1.86-2.18a1.1,1.1,0,0,0,.13-.32Zm.15,39c-.12,0-.22-.1-.28-.08a2.53,2.53,0,0,0-.63.32q-2.93,2.27-5.83,4.57a.56.56,0,0,0,0,.54q3,2.63,6,5.22c.15.13.43.1.65.15a2.37,2.37,0,0,0-.21-.5,8.62,8.62,0,0,0-.72-.89c-1.18-1.26-2.35-2.52-3.55-3.76-.31-.33-.32-.5,0-.84,1.33-1.27,2.62-2.6,3.91-3.91A8.29,8.29,0,0,0,30.67,99.55ZM23.61,89.7a2.12,2.12,0,0,0,.19.55c1.22,1.41,2.41,2.84,3.68,4.2,1,1.09,1,1,0,2C26.32,97.6,25.16,98.81,24,100a2,2,0,0,0-.27.61,2,2,0,0,0,.65-.2c1.92-1.49,3.83-3,5.74-4.49.36-.28.3-.55,0-.81s-.61-.53-.92-.8L24.31,90.1A5.6,5.6,0,0,0,23.61,89.7Zm7.22,1.48a7.47,7.47,0,0,0-.62-1c-1.31-1.45-2.63-2.9-4-4.32-.27-.29-.33-.39,0-.7,1.37-1.34,2.7-2.72,4-4.1a4.81,4.81,0,0,0,.52-.81,3.16,3.16,0,0,0-.88.33C28,82.05,26.17,83.54,24.3,85c-.41.32-.37.56,0,.89,1.19,1.08,2.34,2.2,3.54,3.27.75.67,1.54,1.29,2.33,1.9C30.29,91.17,30.54,91.13,30.83,91.18Zm0,37.88a12.17,12.17,0,0,0-.72-1c-1.24-1.39-2.48-2.79-3.76-4.15-.39-.41-.4-.65,0-1,.83-.73,1.62-1.5,2.38-2.29.6-.62,1.15-1.29,1.71-1.95.07-.09.06-.25.08-.37a1.33,1.33,0,0,0-.34.06,2.06,2.06,0,0,0-.43.26l-5.47,4.33c-.36.28-.33.48,0,.78,1.7,1.55,3.37,3.13,5.06,4.68a7,7,0,0,0,1.11.73C30.59,129.12,30.7,129.07,30.87,129.05ZM24,70.51l-.24.07a.89.89,0,0,0,.1.25c.67.84,1.31,1.7,2,2.49s1.68,1.7,2.5,2.58c.11.12.18.47.11.54-1.37,1.4-2.77,2.77-4.15,4.17a3.68,3.68,0,0,0-.46.8,3,3,0,0,0,.82-.31q2.91-2.28,5.77-4.62a.49.49,0,0,0,0-.48c-.45-.46-.93-.89-1.42-1.31Q26.87,72.84,24.72,71A6.62,6.62,0,0,0,24,70.51Zm6.46,43.84a3,3,0,0,0-.26-.3c-1.89-1.64-3.79-3.29-5.7-4.92a3.11,3.11,0,0,0-.87-.36,3.81,3.81,0,0,0,.44.83q2,2.23,4.1,4.41c.28.29.25.44,0,.69-.72.67-1.44,1.34-2.13,2s-1.34,1.44-2,2.18a1.38,1.38,0,0,0-.17.44,3.49,3.49,0,0,0,.46-.09,1,1,0,0,0,.31-.18l5.56-4.5A3.08,3.08,0,0,0,30.43,114.35Zm-.15,33.12c0-.19.07-.32,0-.4a4.41,4.41,0,0,0-.52-.77c-1.14-1.26-2.27-2.54-3.44-3.76-.4-.42-.43-.62,0-1,1.37-1.3,2.69-2.66,4-4a1.48,1.48,0,0,0,.2-.42,1.44,1.44,0,0,0-.45.12c-1.16.76-2.33,1.51-3.45,2.33-.87.64-1.67,1.36-2.48,2.07a.58.58,0,0,0-.07.56,31.1,31.1,0,0,0,5.65,5.06C29.89,147.27,30,147.33,30.28,147.47Zm-1.52-14.13c-.21.06-.36.07-.44.14-.58.51-1.15,1-1.71,1.54-.88.85-1.74,1.72-2.6,2.58a1.16,1.16,0,0,0-.16.37,2.09,2.09,0,0,0,.39,0,1.14,1.14,0,0,0,.39-.18l5.6-4.25c.27-.2.32-.34,0-.59-.67-.54-1.27-1.16-1.93-1.72q-1.86-1.58-3.76-3.12a3,3,0,0,0-.7-.32,2.4,2.4,0,0,0,.3.65c1.33,1.48,2.67,2.94,4,4.41C28.27,133,28.41,133.05,28.76,133.34Zm-5,13.12-.22.09a1.47,1.47,0,0,0,.18.38c1.27,1.45,2.54,2.92,3.85,4.34.43.47.41.71-.11,1a11,11,0,0,0-1.24,1q-1.46,1.25-2.91,2.52c-.1.09-.11.27-.16.41l.41,0a.35.35,0,0,0,.13-.07c1.93-1.27,3.88-2.52,5.8-3.81.44-.3.6-.63,0-1.1-1.79-1.44-3.51-3-5.27-4.44A3.79,3.79,0,0,0,23.76,146.46ZM10.65,122.57l0-.3c-.18-.16-.34-.39-.55-.45-1-.31-1.94-.53-2.9-.85-2-.68-4.11-1.36-5.62-3a.92.92,0,0,0-.22-.14c0,.11-.09.26,0,.33a7.09,7.09,0,0,0,1.15,1.53c2.2,1.79,4.92,2.4,7.56,3.16C10.22,122.85,10.45,122.65,10.65,122.57Zm.06,10.35v-.31a3.15,3.15,0,0,0-.64-.44c-1.44-.53-2.91-1-4.32-1.57a9.29,9.29,0,0,1-4-2.84c-.07-.1-.22-.13-.33-.2,0,.14-.06.32,0,.41a9.68,9.68,0,0,0,1.35,1.73,18.89,18.89,0,0,0,7.42,3.46C10.35,133.18,10.55,133,10.71,132.91Zm.08-14.21a3.72,3.72,0,0,0-.73-.55c-.36-.13-.75-.17-1.12-.27-2.55-.68-5.13-1.29-7.19-3.12-.07-.06-.2-.06-.31-.09s-.09.21,0,.27A5.16,5.16,0,0,0,2.24,116c2.32,1.88,5.17,2.44,8,3.13C10.31,119.18,10.48,118.95,10.8,118.71Zm-.55,1.47c.07-.06.28-.16.28-.25a.53.53,0,0,0-.26-.4c-.47-.16-1-.24-1.45-.38-2.56-.71-5.14-1.36-7.18-3.23a.67.67,0,0,0-.23-.08c0,.09,0,.2.06.26a8.34,8.34,0,0,0,1.09,1.13C4.8,118.89,7.48,119.48,10.25,120.18Zm34.15-6.26h0a6.29,6.29,0,0,0,0-1c0-.18-.21-.33-.33-.5a1.89,1.89,0,0,0-.35.52,4.75,4.75,0,0,0-.07.88l-.63-.74c-.08-.09-.14-.21-.24-.26-.36-.19-.68-.2-.7.32,0,.76,0,1.53,0,2.29,0,.12.23.33.33.32a.51.51,0,0,0,.36-.32,8.77,8.77,0,0,0,.07-1.12l.8.94s0,0,0,.05.31.17.43.14a.49.49,0,0,0,.25-.36C44.42,114.69,44.4,114.3,44.4,113.92Zm-34.18,4s.26-.12.25-.17a.8.8,0,0,0-.25-.48,2,2,0,0,0-.62-.16c-2.72-.65-5.46-1.27-7.73-3.07a.88.88,0,0,0-.25-.09c0,.11,0,.25,0,.31a8.75,8.75,0,0,0,1.23,1.09A22.21,22.21,0,0,0,10.22,117.88Zm.6,8a4.53,4.53,0,0,0-.71-.4c-.94-.29-1.9-.53-2.83-.85a13.8,13.8,0,0,1-5.16-2.78,2.17,2.17,0,0,0-.47-.26,1.81,1.81,0,0,0,.23.51c2.26,2.48,5.39,3.2,8.43,4.07C10.41,126.18,10.55,126,10.82,125.87ZM2,133.34l-.14.1a1,1,0,0,0,.2.36,20.09,20.09,0,0,0,3,2.31c1.58.83,3.31,1.39,5,2.06a2.19,2.19,0,0,0,.4.08c-.06-.21-.05-.47-.18-.61s-.39-.16-.59-.23a18.55,18.55,0,0,1-7.39-3.85ZM39,114.72c.12,1.63.12,1.63,1.68,1.33.09,0,.23,0,.27-.06a.67.67,0,0,0,.18-.42c0-.1-.19-.23-.32-.27a2.85,2.85,0,0,0-.5,0,4,4,0,0,1-.5-.09l.45-.31.66-.47-.7-.25s-.1,0-.14,0a3,3,0,0,1-.29-.13c.08-.09.15-.24.24-.26a5.18,5.18,0,0,0,.78-.11.7.7,0,0,0,.28-.47c0-.07-.18-.27-.29-.28C39.29,112.83,38.86,113.25,39,114.72Zm6.27-1h0q0,.22,0,.43c0,1.12,0,1.11,1.05.84.33-.09.72-.11.64-.59s-.47-.13-.72-.18a2,2,0,0,1-.3-.1,1.18,1.18,0,0,1,.24-.22c.13-.07.31-.06.4-.15a.57.57,0,0,0,.15-.43c0-.09-.21-.17-.35-.21a2.12,2.12,0,0,0-.44,0,3.74,3.74,0,0,1,.41-.29c.15-.08.36-.08.45-.19a.7.7,0,0,0,.12-.51c0-.08-.26-.17-.39-.16-1.11.05-1.28.25-1.28,1.38C45.24,113.4,45.24,113.54,45.24,113.68Zm-20-77.28a1,1,0,0,0-.89-1.05,1.16,1.16,0,0,0-1.25,1,1.13,1.13,0,0,0,1,1.12A1.11,1.11,0,0,0,25.19,36.41Zm26.55-7.85c.23,1.25.38,2.13.55,3a1.48,1.48,0,0,0,.16.34,1.6,1.6,0,0,0,.11-.37,1.2,1.2,0,0,0-.07-.35,18.78,18.78,0,0,1-.1-6.19c0-.44.4-.78.4-1.08a3.43,3.43,0,0,1,.67-2.1c.09-.13,0-.38,0-.58-.16.1-.41.16-.47.3A11.51,11.51,0,0,0,52.19,24C51.95,25.6,51.86,27.26,51.75,28.56ZM24.63,16c0-.65-.34-1.06-.89-1.05a1.11,1.11,0,0,0-1.13,1.13.88.88,0,0,0,1,.93A1,1,0,0,0,24.63,16Zm3.79,9.93c.1.4.15,1,.79,1a1.26,1.26,0,0,0,1.27-1.1,1.12,1.12,0,0,0-1.1-1A1,1,0,0,0,28.42,25.94ZM47.55,113h0c0,.34,0,.67,0,1a1.78,1.78,0,0,0,.2.48,4.19,4.19,0,0,0,.37-.43,1.39,1.39,0,0,0,.12-.36,1.74,1.74,0,0,0,.27.31.69.69,0,0,0,.36.13s.15-.13.15-.21c.05-.6.12-1.2.11-1.8,0-.44-.1-.88-.72-.85s-.92.22-.87.86C47.57,112.42,47.55,112.71,47.55,113ZM30.79,46.41a1.07,1.07,0,0,0-1-1.13.88.88,0,0,0-.95,1c0,.57.24,1,.88,1A.94.94,0,0,0,30.79,46.41ZM29.88,67a1,1,0,0,0,1.05-.92,1,1,0,0,0-1-1,1,1,0,0,0-.94,1A.82.82,0,0,0,29.88,67Zm-5.48-9.6a1,1,0,0,0,1.05-.91,1,1,0,0,0-1-1.06,1,1,0,0,0-1,1A.93.93,0,0,0,24.41,57.41Zm4.49,66c0,.47.13.91.75,1a1,1,0,1,0,.25-1.94A1,1,0,0,0,28.9,123.43Zm.89-38.79a.87.87,0,0,0-1,.8c0,.7.26,1,.85,1a1.06,1.06,0,0,0,1.12-.88A.94.94,0,0,0,29.79,84.65ZM24.43,96.44a.92.92,0,0,0,1-.85,1,1,0,0,0-.91-1.07,1,1,0,1,0-.12,1.92Zm.11,18.8a.9.9,0,0,0,1-.91c0-.59-.47-1.13-1-1a1.82,1.82,0,0,0-1,.9C23.37,114.62,24.12,115.24,24.55,115.24Zm.14-40c-.48,0-1.07.52-.94.94a1.72,1.72,0,0,0,.76,1c.51.2,1.14-.49,1.12-1.06A.91.91,0,0,0,24.68,75.24Zm5.93,29.55a.92.92,0,0,0-.93-1,.9.9,0,0,0-.94,1,.8.8,0,0,0,.8.92A1,1,0,0,0,30.62,104.79Zm-.76,36.35a1,1,0,0,0-1.06,1c0,.55.23.86.81.85a1,1,0,0,0,1.06-.93A.87.87,0,0,0,29.86,141.13ZM10.08,139.2l.39-.16a1.92,1.92,0,0,0-.44-.29,20.41,20.41,0,0,1-7-3.39,1,1,0,0,0-.32-.11,1.38,1.38,0,0,0,.19.28,14.42,14.42,0,0,0,4.3,2.54C8.13,138.47,9.09,138.82,10.08,139.2ZM24.69,134a.86.86,0,0,0,1-.88,1,1,0,0,0-1-.91.83.83,0,0,0-.85.88C23.8,133.62,24,134.09,24.69,134ZM24,150.69c-.18.22-.64.52-.66.85s.13,1,.81,1,1.05-.44,1-.89S24.72,150.8,24,150.69ZM10,140.43l.38-.1a1.42,1.42,0,0,0-.34-.29c-.33-.13-.7-.2-1-.35-1.73-.81-3.44-1.64-5.16-2.47-.23-.11-.44-.25-.66-.37.17.2.3.46.51.58,1.54.85,3.09,1.7,4.67,2.49A10.18,10.18,0,0,0,10,140.43Zm0-24.11.4-.23a1,1,0,0,0-.28-.17,24.4,24.4,0,0,1-7.41-2.52.78.78,0,0,0-.26,0c0,.09.06.23.13.26A17.57,17.57,0,0,0,5,114.79C6.67,115.36,8.39,115.82,10,116.32Zm40.84-3.88h0a1.24,1.24,0,0,0,0-.36,3.15,3.15,0,0,0-.22-.45,4.81,4.81,0,0,0-.4.5c0,.06.05.18.05.27a1.57,1.57,0,0,1,0,.29c-.08-.07-.21-.13-.22-.21,0-.45-.11-.91.43-1.17a.84.84,0,0,0,.31-.49c0-.05-.2-.27-.27-.25a.89.89,0,0,0-.53.27,2.45,2.45,0,0,0-.34,2.19c.07.22.35.38.54.57a8.85,8.85,0,0,0,.68-.74C50.94,112.77,50.88,112.58,50.88,112.44ZM10.28,129.35l.31-.12a1.71,1.71,0,0,0-.39-.23,22.26,22.26,0,0,1-7.12-3,.9.9,0,0,0-.32-.07,1.39,1.39,0,0,0,.23.31A21.49,21.49,0,0,0,10.28,129.35ZM28.5,8.87l-.35.1-.58.18a2.72,2.72,0,0,0,.4.47c.56.43,1.14.84,1.73,1.24a1.51,1.51,0,0,0,.41.13c0-.15,0-.34-.05-.44C29.63,10,29.18,9.51,28.73,9A.58.58,0,0,0,28.5,8.87Zm-18.31,108,.29-.07c-.09-.09-.16-.22-.27-.26s-.37-.08-.56-.13c-1.72-.51-3.45-1-5.15-1.56a14.47,14.47,0,0,1-1.68-.81.7.7,0,0,0-.28,0,1,1,0,0,0,.19.22A22.93,22.93,0,0,0,10.19,116.9ZM29.31,7c.29,0,.86.06.83-.57s-.63-.63-1.08-.68-.78.15-.78.61S28.72,7,29.31,7ZM4,139.43l-.13.08c.11.12.2.28.33.35q2.93,1.41,5.87,2.79c.07,0,.19,0,.28-.06s-.07-.22-.14-.28a1.44,1.44,0,0,0-.33-.14L4.31,139.6C4.21,139.55,4.11,139.48,4,139.43ZM13.8,53.05c-.09-.11-.24-.35-.29-.33-.23.07-.58.2-.61.36a5,5,0,0,0,0,1.47.62.62,0,0,0,.51.32c.2-.07.34-.33.5-.51C13.44,54,13.65,53.55,13.8,53.05Zm35.51,63.58-.14-.2c-.26.11-.69.18-.73.35a2.45,2.45,0,0,0,.16,1s.19,0,.19,0,0-.29,0-.43a3.5,3.5,0,0,1,.15-.43c.05.14.1.27.16.41s.12.25.18.37c.18-.23.37-.46.53-.7,0-.07,0-.18,0-.27a1,1,0,0,0,.09.23c.09.12.19.23.29.34a1.65,1.65,0,0,0,.2-.46,4.2,4.2,0,0,0,0-.69c0-.08,0-.17,0-.25a.93.93,0,0,0-.25.09C49.89,116.17,49.61,116.4,49.32,116.63ZM3.49,95.42l.14.1c0,.14,0,.28.06.42.1.55.1.55.41.36a.19.19,0,0,1,.14,0c.82.23.68-.43.6-.77a4.76,4.76,0,0,0-.62-1.16Zm40.67,23.05.2.66c.23-.09.66-.18.65-.25,0-.56.23-.43.47-.22s.65.3.79-.09a2.67,2.67,0,0,0,0-1l-.79.35c-.11,0-.22.15-.32.13s-.49-.25-.63-.18S44.25,118.29,44.16,118.47ZM14.92,53.14a3.53,3.53,0,0,0,.38.47,4.08,4.08,0,0,0,.47.28,2.71,2.71,0,0,1-.09-.43c0-.16,0-.33,0-.49a3.87,3.87,0,0,0-.08-.49c-.1.08-.26.14-.3.25-.12.27-.18.43-.47.11a.4.4,0,0,0-.73.17c-.07.26.1.59.17.88.07,0,.16,0,.2-.1S14.72,53.45,14.92,53.14Zm.82,44.54c-.25-.59-.49-1.15-.74-1.72,0,0-.21,0-.24.1-.22.45-.42.91-.61,1.37,0,.07,0,.17,0,.26a.5.5,0,0,0,.18-.05c.39-.33.75-.37,1.06.1a.22.22,0,0,0,.18.08S15.7,97.74,15.74,97.69ZM9.21,96.31a3.4,3.4,0,0,0,0,.43,4.11,4.11,0,0,0,.1.45l.17-.39c0-.09.09-.18.14-.27a2.2,2.2,0,0,1,.2.26c0,.08.05.19.1.27a1.78,1.78,0,0,0,.22.24l0-.3a5.1,5.1,0,0,0,.07-.71c0-.24,0-.55-.14-.7a1,1,0,0,0-.71-.2c-.07,0-.14.38-.19.59A1.75,1.75,0,0,0,9.21,96.31ZM11.73,47c-.23-.57-.45-1.12-.69-1.67,0,0-.22,0-.23.06-.19.54-.37,1.09-.54,1.64,0,.08,0,.17,0,.26s.13-.07.16-.12c.32-.53.68-.51,1.06-.07a.44.44,0,0,0,.11.07Zm.61,49.54h0a.69.69,0,0,0,0,.07l.09.89.2-.81c0-.06,0-.12.06-.19a.89.89,0,0,1,.22.13c.28.31.54.62.81.93l.06-1.41a.17.17,0,0,0,0-.07l-.16-.34a2.6,2.6,0,0,0-.14.35c0,.19-.07.39-.11.58l-.38-.4-.58-.58Zm36.19,36c-.15,0-.27.05-.28.08-.09.42-.17.84-.25,1.26a4,4,0,0,0,.72-.18,1.33,1.33,0,0,0,.63-.44,1.82,1.82,0,0,0,.1-.84c0-.08-.14-.16-.21-.24l-.25.62s0,.1,0,.14-.09.16-.13.24c0-.09-.07-.18-.11-.27S48.58,132.69,48.52,132.57ZM11.93,96.37H12l-.17-.73c-.06.25-.13.49-.19.74,0,.09,0,.21,0,.28a4.24,4.24,0,0,1-.36.45c-.11-.14-.28-.27-.31-.43s0-.62,0-.93c0-.09-.12-.18-.18-.26-.07.1-.22.2-.21.28a5.55,5.55,0,0,0,.26,1.3.72.72,0,0,0,.59.37c.22-.06.4-.35.53-.57S11.93,96.54,11.93,96.37ZM10.34,22.62h0c0-.26,0-.52,0-.79,0-.06-.06-.11-.09-.17a.8.8,0,0,0-.12.13,6.32,6.32,0,0,0-.51.93,1.47,1.47,0,0,0-.06.79c0,.09.44.22.5.16a1.29,1.29,0,0,0,.31-1ZM4.16,72.69v.59c.08-.11.15-.31.23-.3a2.54,2.54,0,0,1,.65.16c.06,0,.11.09.17.14a1.83,1.83,0,0,0,0-.2,3,3,0,0,0-.09-.42c-.17-.5-.35-1-.53-1.49Zm7.18-23h0c0-.26,0-.53,0-.79,0-.05-.07-.1-.11-.15s-.12.1-.11.14c.08.43-.24.59-.49.84a1,1,0,0,0-.08.77c0,.11.44.28.49.23a1.52,1.52,0,0,0,.33-.61A1.38,1.38,0,0,0,11.34,49.67Zm37.53,58.55a5.6,5.6,0,0,0,.39.84.44.44,0,0,0,.43,0,2,2,0,0,0,.32-.6s-.11-.12-.18-.15a3.74,3.74,0,0,0-.42-.11,6.35,6.35,0,0,1,.31-.63c.07-.12.29-.2.29-.29s-.14-.36-.25-.37a.51.51,0,0,0-.41.23A11.35,11.35,0,0,0,48.88,108.22ZM8.35,76.81c0-.87.3-1.22.84-1.14a3.35,3.35,0,0,0,.39,0c-.13-.1-.29-.3-.38-.27a1.83,1.83,0,0,0-.88.44,1.41,1.41,0,0,0,.35,1.92.87.87,0,0,0,.74,0c.17-.08.25-.39.33-.61s-.08-.19-.12-.29a1.81,1.81,0,0,1-.12.28c-.1.16-.2.42-.33.44a.69.69,0,0,1-.55-.23A2.15,2.15,0,0,1,8.35,76.81Zm7.53-27.33h0c0-.26,0-.52,0-.79a.77.77,0,0,0-.1-.24l-.15.2a5.53,5.53,0,0,0-.45.68,1.63,1.63,0,0,0-.24.81c0,.15.37.36.57.37.43,0,.43-.34.39-.67A2.16,2.16,0,0,1,15.88,49.48Zm28.58,85.25c-.08-.11-.23-.46-.36-.46-.48,0-.86.23-.73.83,0,.21.12.41.17.62a3.08,3.08,0,0,0,.77-.31C44.43,135.33,44.4,135.06,44.46,134.72ZM5.29,103.39l.14.4a2.3,2.3,0,0,1,.08-.32,1.17,1.17,0,0,1,.14-.22.91.91,0,0,1,.11.32c0,.5.46.45.69.68a3.11,3.11,0,0,1-.09-.4s.16,0,.17-.09a5,5,0,0,0,.06-.53H6.12c-.08,0-.18.05-.24,0a3.36,3.36,0,0,1-.38-.31Zm6.24-63.45-.69-.6c-.17.23-.45.44-.47.68s.28.39.44.59ZM4.82,147.48l-.09,0a1.87,1.87,0,0,0,0-.36,2.15,2.15,0,0,0-.13-.35,3.37,3.37,0,0,0-.12.36c0,.09,0,.19,0,.29s-.08.34-.13.51a4,4,0,0,1-.18-.54c-.06-.31-.09-.63-.13-1a3.33,3.33,0,0,0-.09,1,4.34,4.34,0,0,0,.51,1Zm41.88-29.4.08.42c.27-.08.68-.08.77-.26a2.75,2.75,0,0,0,.12-1c-.12.08-.24.17-.37.25a.27.27,0,0,1-.18,0C46.7,117.44,46.7,117.43,46.7,118.08ZM11.44,43.35l-.71-.6c-.16.21-.44.42-.45.64s.27.42.42.63ZM7.82,81.18l-.54-1.51c-.16.38-.33.75-.49,1.13a1.91,1.91,0,0,0-.1.34c0,.22-.09.45-.13.67.12-.12.21-.29.36-.36s.34,0,.49,0A1.8,1.8,0,0,0,7.82,81.18Zm5.8-45.12c-.2-.15-.44-.41-.52-.37s-.54.38-.51.54.31.52.48.78ZM5.07,96c0,.25-.11.8.46.57.26-.1.47-.69.45-1s-.41-.55-.65-.81a2.59,2.59,0,0,0-.24.17l.23.15c.13.08.35.15.36.24a3.84,3.84,0,0,1,0,.89s-.15.07-.24.1c0-.22-.08-.44-.14-.66a1,1,0,0,0-.11-.22,1.19,1.19,0,0,0-.1.24A2.39,2.39,0,0,0,5.07,96Zm5.41-43.13H10.2a2.13,2.13,0,0,0-.33.75c0,.19.25.39.39.59.18-.22.45-.41.5-.65S10.58,53.07,10.47,52.84Zm41.4,57.33-.11-.29c0,.4-.91.3-.55,1a4.65,4.65,0,0,1,.21,1.41,2,2,0,0,0,.1.32c.07-.11.19-.21.2-.32C51.78,111.65,51.82,111,51.87,110.17ZM11.48,56.26h0c0,.19,0,.38,0,.57a3.28,3.28,0,0,0,.1.44,4.06,4.06,0,0,1,.14-.42,4.26,4.26,0,0,1,.22-.39,1.75,1.75,0,0,1,.23.31,3.86,3.86,0,0,1,.15.49,1.72,1.72,0,0,0,.06-.59,1.58,1.58,0,0,0-.34-.49c-.11-.15-.24-.29-.35-.44a2.89,2.89,0,0,1-.17-.31,2.4,2.4,0,0,0-.06.32C11.47,55.92,11.48,56.09,11.48,56.26ZM27.91,5.53,28.81,5c-.27-.18-.55-.52-.81-.5s-.58.35-.87.55ZM8.8,30.32s0,.22.13.25a1.37,1.37,0,0,0,.54-.08c0-.14-.06-.27-.09-.41-.11-.43-.23-.86-.35-1.28,0-.07-.12-.11-.18-.17a1.43,1.43,0,0,0,0,.24C8.79,29.29,8.8,29.72,8.8,30.32Zm4.6,19.84-.54-.76a4.2,4.2,0,0,0-.45.82c0,.1.27.43.32.41A3.36,3.36,0,0,0,13.39,50.16Zm-8,25c-.12.06-.37.12-.37.19,0,.71,0,1.43,0,2.14,0,.07.32.12.5.16s.13,0,.19-.07a1.47,1.47,0,0,1-.39-.2A.62.62,0,0,1,5.17,77c0-.16.1-.41.2-.44.27-.08.45-.05.07-.29a.66.66,0,0,1-.26-.47c0-.1.21-.22.33-.32a2.84,2.84,0,0,1,.26-.17Zm39.28,59.7a3.73,3.73,0,0,0,.24.37c.27-.13.75-.32.74-.44a3.45,3.45,0,0,0-.44-1ZM15.15,56.81l-.24-.63a3.14,3.14,0,0,1-.13.45,4,4,0,0,1-.26.44c-.07-.16-.16-.31-.22-.47s0-.2,0-.28-.12,0-.19-.07c0,.27-.12.59,0,.8a.74.74,0,0,0,.65.22C14.88,57.23,15,57,15.15,56.81Zm-1-31.74c0,.46.06.72.1,1a.92.92,0,0,0,.16.27,1.43,1.43,0,0,0,.12-.3c.08-.53.15-1.07.21-1.6,0,0-.21-.1-.22-.09C14.31,24.62,14.17,24.92,14.1,25.07ZM8.19,96c0,.66,0,.65.45.91a2.34,2.34,0,0,1,.24.19,2.3,2.3,0,0,1-.06-.33c0-.15,0-.3,0-.45s-.1-.1-.16-.15S8.48,96,8.46,96a7.11,7.11,0,0,1-.14-.71c0,.26-.08.52-.12.78C8.19,96.07,8.19,96.12,8.19,96Zm43.22,11.08h0a2.06,2.06,0,0,0,0,.5,2.56,2.56,0,0,0,.24.49,2,2,0,0,0,.21-.54,7.73,7.73,0,0,0,0-1c0-.2,0-.39,0-.58a3.88,3.88,0,0,0-.36.61A1.49,1.49,0,0,0,51.41,107.07ZM12,53.58l-.22-.65c0,.17-.07.34-.12.51a3,3,0,0,1-.16.35,1.94,1.94,0,0,1-.24-.35,2.27,2.27,0,0,1,0-.35s-.12,0-.18,0a2.85,2.85,0,0,0,.09.82c0,.1.39.18.54.12S11.94,53.71,12,53.58Zm.78-21.2h0a5.57,5.57,0,0,0,0,.57,2,2,0,0,0,.11.38c0-.11.08-.23.13-.34a2.47,2.47,0,0,1,.27-.52s.22,0,.34,0c-.13-.1-.27-.2-.39-.31a1,1,0,0,1-.22-.3,3,3,0,0,1-.13-.44,4.44,4.44,0,0,0-.14.49A2.71,2.71,0,0,0,12.82,32.38Zm-4.63-9,.49.57a4.68,4.68,0,0,0,.47-.79c0-.1-.16-.28-.25-.43Zm4.11-.92.27.65a3.06,3.06,0,0,1,.11-.46,2.86,2.86,0,0,1,.23-.4c.09.14.18.28.26.42s.11.23.17.34c0-.13.15-.29.11-.37A5.45,5.45,0,0,0,13,22ZM49.66,132.4l.14.57.47-.26c.08,0,.24-.08.24-.13,0-.34,0-.69,0-1,0,0-.09-.07-.14-.1l-.13.66a.63.63,0,0,1,0,.14,1,1,0,0,1-.11.16s-.11-.08-.13-.13-.12-.27-.18-.41Zm-3.09-23.19v0a2,2,0,0,0,.69-.11c.13-.08.16-.33.24-.51a1.27,1.27,0,0,0-.48-.06,5.52,5.52,0,0,0-.86.36,1.23,1.23,0,0,0-.25.22,1.12,1.12,0,0,0,.3.12A1.49,1.49,0,0,0,46.57,109.21ZM11.51,39.7l.15.66a3.53,3.53,0,0,1,.14-.47,3,3,0,0,1,.25-.39c.08.14.17.27.25.41a2.51,2.51,0,0,1,.11.31s.09,0,.09-.06a3.48,3.48,0,0,0-.09-.83c0-.08-.36-.15-.48-.08A1.76,1.76,0,0,0,11.51,39.7ZM5.2,80.5c0,.42,0,.66,0,.9,0,.51.31.51.66.51A.54.54,0,0,0,6,81.82s0-.11-.07-.11c-.77,0-.5-.65-.56-1.07s-.07-.62-.1-.93Zm45.23,27.18a2.83,2.83,0,0,0,0,.5,3.17,3.17,0,0,0,.17.49c.16-.09.38-.14.47-.28s-.09-.29-.14-.44a4.14,4.14,0,0,1-.14-.44c-.06-.26-.1-.52-.15-.78-.07.27-.15.54-.21.82A.52.52,0,0,0,50.43,107.68ZM15,35.53c0,.27.06.46.1.64a3.18,3.18,0,0,0,.11.36,1.76,1.76,0,0,0,.12-.36c0-.45.06-.9.11-1.36a.83.83,0,0,1,.14-.27c-.13,0-.34,0-.36.12A7.39,7.39,0,0,0,15,35.53ZM7.73,103.9l-.51-.63a4,4,0,0,0-.3.59c-.16.51.37.3.53.49Zm35.21,14.82.11.12.09.55c.07,0,.19,0,.21-.1a5.89,5.89,0,0,0,.22-.64,1.44,1.44,0,0,1,.06-.28,1.77,1.77,0,0,1,.24-.28c-.13,0-.32-.08-.38,0A5.79,5.79,0,0,0,42.94,118.72Zm-28.15-90c0,.24,0,.57.1.9,0,.06.11.11.17.16s.17-.13.17-.2c0-.47-.07-.93-.12-1.4a1,1,0,0,0-.09-.24,1.14,1.14,0,0,0-.17.27A3.36,3.36,0,0,0,14.79,28.68Zm-2.33-9.32-.32-.49c0,.12.07.25,0,.34a3.12,3.12,0,0,1-.32.48,1.54,1.54,0,0,1-.25-.27,3.69,3.69,0,0,1-.19-.46c0,.18-.1.39,0,.55a1.88,1.88,0,0,0,.41.47ZM8.8,43.46c-.11-.15-.17-.3-.28-.36s-.3,0-.31,0a3.85,3.85,0,0,0-.15.9c0,.07.24.15.37.22,0-.09-.14-.18-.14-.27a.47.47,0,0,1,.16-.27A2.64,2.64,0,0,1,8.8,43.46Zm-.43,7.15a1.47,1.47,0,0,0,0-.42A3.64,3.64,0,0,0,8,49.78a1.42,1.42,0,0,1,0,.36c0,.08-.17.12-.19.2a1.17,1.17,0,0,0,0,.51c0,.05.28.12.35.07A1,1,0,0,0,8.37,50.61Zm6.71-32.19-.25-1c0,.34-.09.69-.09,1a7.31,7.31,0,0,0,.11.89ZM4.87,47,5,47l0,.78c.09-.2.2-.4.28-.61s0-.19,0-.29a7.09,7.09,0,0,1,.09-.75c0-.08.12-.14.19-.21-.12,0-.31,0-.33,0C5.12,46.27,5,46.62,4.87,47Zm8.87-25.12a8.54,8.54,0,0,0,.14,1.06c0,.11.23.17.36.25V22.8c0-.25,0-.51,0-.76a1.12,1.12,0,0,0-.15-.39s-.11-.07-.18-.1ZM7.14,96.38l.19.52c0-.14.07-.28.13-.42a1.9,1.9,0,0,1,.16-.27c0,.09.1.19.13.28s0,.1,0,.14a2.57,2.57,0,0,0,.17.24,2.76,2.76,0,0,0-.06-.75c0-.12-.34-.26-.43-.22S7.24,96.22,7.14,96.38Zm4.59-63.83.28,1a8.16,8.16,0,0,0,.09-1.07,4.27,4.27,0,0,0-.19-.83Zm36,100.88-.14-.33-.16.49s0,0,0,.07l-.08.26-.1-.24-.16-.42c-.05.16-.16.34-.14.49a2.9,2.9,0,0,0,.28.64c.17-.2.35-.39.5-.59C47.76,133.77,47.73,133.68,47.73,133.44ZM15.46,56.39h0a5.3,5.3,0,0,0,.12.76c0,.07.21.09.33.11a.35.35,0,0,0,.08-.21,5.93,5.93,0,0,0-.13-.83,2.36,2.36,0,0,0-.23-.46,4.12,4.12,0,0,0-.17.41A.54.54,0,0,0,15.46,56.39Zm-7.52,16H7.88c0-.34,0-.67,0-1,0-.07-.08-.14-.12-.21s-.11.15-.11.22a9.48,9.48,0,0,0,0,1c0,.34.1.67.15,1Zm6-26.24L14,46c-.05,0-.13,0-.15.09-.14.28-.26.59-.53.08,0-.05-.1-.07-.16-.11s0,.14,0,.2a3.92,3.92,0,0,0,.29.65.37.37,0,0,0,.31,0A6,6,0,0,0,14,46.16Zm35.48-10.6.19.62c.16-.21.43-.42.44-.64s-.25-.43-.39-.65ZM9.33,26.33l.08,0c-.11-.33-.21-.66-.33-1,0,0-.15,0-.23,0a1.14,1.14,0,0,0,0,.2c.08.42.18.85.26,1.27a3.68,3.68,0,0,1,0,.46,4.91,4.91,0,0,0,.18-.51A1.55,1.55,0,0,0,9.33,26.33Zm-4,121.77-.09-.5c-.05.12-.11.23-.16.35-.17.43,0,1.2-.91.86,0,.08-.09.21-.06.24.28.27.61.34.84,0A5.72,5.72,0,0,0,5.34,148.1ZM11.43,25.81l-.21-1a7.89,7.89,0,0,0-.08,1,8.06,8.06,0,0,0,.14,1Zm-2.86,55h0l.16,1.09a3.53,3.53,0,0,0,.16-1.15c-.11-.53-.13-.85.54-.79.07,0,.14-.08.21-.13s0-.1-.07-.1a3.6,3.6,0,0,0-.84,0c-.06,0-.09.34-.11.52S8.56,80.66,8.56,80.85Zm.32-31,.13,0-.27-.43a1.62,1.62,0,0,0-.14.44,2.46,2.46,0,0,0,.07.7c0,.13.17.24.26.35,0-.13,0-.27,0-.4S8.9,50.1,8.89,49.9Zm1.65-30.4a2.91,2.91,0,0,0,.1.51c0,.07.18.09.29.12A.24.24,0,0,0,11,20c0-.33-.08-.66-.14-1,0-.1-.12-.18-.18-.27a.89.89,0,0,0-.18.26A2.4,2.4,0,0,0,10.54,19.49ZM46.27,134.87a2.6,2.6,0,0,0,.14-.32c.08-.31.16-.62.23-.93a.34.34,0,0,0,0-.18,1.45,1.45,0,0,0-.53.1c-.6.35.21.67,0,1C46.09,134.62,46.18,134.71,46.27,134.87ZM9.24,32.93,9,32A9.16,9.16,0,0,0,9,33a5.62,5.62,0,0,0,.15.84Zm3,13.31-.2-1a8.92,8.92,0,0,0-.09,1,5.77,5.77,0,0,0,.14.86Zm-3.1-9.89c-.11-.08-.19-.16-.21-.15s-.33.15-.37.27a1.64,1.64,0,0,0,0,.74c0,.1.24.18.39.23s.13-.1.2-.16A.62.62,0,0,0,9,37.18c-.58-.17-.45-.43-.08-.71A2,2,0,0,1,9.16,36.34Zm6.58,3.3c-.09-.21-.13-.5-.29-.6a1.11,1.11,0,0,0-.68,0c-.06,0-.1.19-.15.29a.78.78,0,0,0,.23,0c.43-.2.56,0,.57.41a1.06,1.06,0,0,0,.11.31Zm-3.69,3.13.21,1a5.24,5.24,0,0,0,.14-.84,5.89,5.89,0,0,0-.11-.88ZM10.67,56.55h0c0,.26.08.52.15.77,0,.06.15.08.22.12a.63.63,0,0,0,.08-.21,5.14,5.14,0,0,0,0-.83,1.83,1.83,0,0,0-.22-.46,4.24,4.24,0,0,0-.18.4A.58.58,0,0,0,10.67,56.55ZM10.11,29c-.05,0-.13,0-.13.05,0,.46.1.91.15,1.37l.24,0c0-.41-.08-.82-.14-1.22C10.23,29.06,10.15,29,10.11,29ZM9.5,43.23h.05a1.47,1.47,0,0,0,0,.42,2.4,2.4,0,0,0,.27.43c0-.14,0-.28,0-.42s0-.28,0-.42,0-.38-.06-.56a.39.39,0,0,0-.15,0C9.56,42.87,9.53,43.05,9.5,43.23ZM3.12,146.37l-.22-.69c0,.21,0,.41-.08.62s-.08.17-.09.26a6.39,6.39,0,0,0-.05.65s.16.06.16.05c.09-.19.17-.38.25-.58A1.88,1.88,0,0,0,3.12,146.37ZM7.33,44.16l.12.22c.1-.11.29-.24.28-.34a5.88,5.88,0,0,0-.26-.88Zm.18,6.17-.35-.46c-.13.18-.27.36-.4.55a.23.23,0,0,0,0,.14c0,.11,0,.23.06.34,0-.11,0-.22.08-.33s.1-.25.15-.37a2.76,2.76,0,0,1,.21.29,2.25,2.25,0,0,1,.12.31ZM12.3,36l-.2-1c0,.34-.08.67-.08,1a5.84,5.84,0,0,0,.11.8Zm.39-7.08-.2-.83a6.19,6.19,0,0,0-.08.92,5.93,5.93,0,0,0,.18.9Zm1.83,21.26c0-.6-.08-.93-.64-.83l-.2.07a1.3,1.3,0,0,1,.18.15,4.72,4.72,0,0,1,.41.51,1.49,1.49,0,0,1,.12.37ZM7.84,103.39c0,.41,0,.72.1,1,0,.08.15.13.24.2s.1-.1.09-.15a5.78,5.78,0,0,0-.07-.89c0-.13-.17-.24-.26-.37ZM2.32,143.74c-.09.22-.17.31-.15.36.14.32.3.64.46.95,0,0,.11,0,.17,0a3.36,3.36,0,0,0-.09-.66A4.35,4.35,0,0,0,2.32,143.74ZM9.14,53.43H8.92a1.36,1.36,0,0,0,0,.2c0,.27.1.55.12.82A3.21,3.21,0,0,1,9,55c.08-.16.23-.33.23-.49A7.72,7.72,0,0,0,9.14,53.43Zm42.12,77.65-.2-.25c-.1.14-.3.28-.29.42A2.73,2.73,0,0,0,51,132ZM4.13,80.52h0a9.66,9.66,0,0,0,0,1c0,.08.19.16.3.22s.12,0,.13,0a.31.31,0,0,0,0-.15c-.09-.36-.21-.71-.28-1.07s-.06-.68-.09-1Zm5,24.09-.35-1.06c-.08.09-.26.21-.24.28a8.91,8.91,0,0,0,.31.91ZM4.43,76.46h0c0-.28,0-.57,0-.85a.76.76,0,0,0-.06-.2,1.07,1.07,0,0,0-.07.19,10.64,10.64,0,0,0-.2,1.29c0,.17.17.35.26.52,0-.15.06-.3.07-.45S4.43,76.63,4.43,76.46ZM2.18,99.57,1.87,99c-.06.14-.17.29-.15.42a1.73,1.73,0,0,0,.22.49Zm1.69-15h0c0,.07,0,.14,0,.22,0,.3.05.6.08.9,0-.28,0-.55,0-.83a2.59,2.59,0,0,0,0-.29c0-.31-.06-.62-.08-.93Zm6.75-61.64.18.46a1.57,1.57,0,0,0,.09-.43,2.21,2.21,0,0,0-.14-.48ZM12.83,46.6l-.15-.47a2.26,2.26,0,0,0-.12.48,1.85,1.85,0,0,0,.09.45ZM10.28,19.7,10,19.12c0,.07-.09.15-.08.21,0,.27.1.53.15.79ZM14,19l.23.46a1.28,1.28,0,0,0,.13-.42,1.79,1.79,0,0,0-.16-.47Zm-4.3,1.19-.18-.28c0,.06-.1.13-.08.18a1.22,1.22,0,0,0,.18.25ZM3.58,146.43l-.05-.14a.6.6,0,0,0-.06.17s0,.1.06.15ZM35.54.89s0-.09-.07-.09-.08,0-.11,0l.09.13ZM1.95,132.29l-.11-.06s0,0,0,0,0,.07.07.08S1.92,132.32,1.95,132.29Zm-.42-18.6,0,0v.05Zm.94,27.38,0,0v0Z" transform="translate(-0.12 -0.33)"/><path class="cls-2" d="M.12,26l.17,2.74H.12Z" transform="translate(-0.12 -0.33)"/><path class="cls-3" d="M.29,34.45l-.17-2V32a9.23,9.23,0,0,1,.36,1.41A3.67,3.67,0,0,1,.29,34.45Z" transform="translate(-0.12 -0.33)"/><path class="cls-4" d="M.12,28.71H.29L.12,30.58Z" transform="translate(-0.12 -0.33)"/><path class="cls-3" d="M52.45,7.52l.13.28c-.07.31-.15.61-.19.93a7.13,7.13,0,0,1-.08.91c-.08.29-.26.35-.52.08a16.5,16.5,0,0,0-7.94-4.22A58.41,58.41,0,0,0,33.08,3.72c-1-.07-1.95-.21-2.93-.27a2,2,0,0,0-1.61.36c-.28.24-.81.19-1.22.25-.05,0-.17-.06-.17-.09.09-.91-.56-.48-.94-.51-1-.08-2,.24-3-.33a2.75,2.75,0,0,0-1.49,0A55.39,55.39,0,0,0,9.47,5.43c-2,.68-3.82,1.64-5.73,2.47A2.17,2.17,0,0,1,3.31,8a1.28,1.28,0,0,1,.17-.42c.36-.38.74-.75,1.12-1.11.58-.53,1.14-1.08,1.77-1.55a10.42,10.42,0,0,1,1.3-.68c.58-.32,1.07-.65,1.84-.27.42.21,1.09-.06,1.65-.15,3-.45,6-1,9-1.35,2.56-.31,5.15-.4,7.72-.61,1.4-.11,2.79-.3,4.19-.4.52,0,1,.09,1.57.1.68,0,1.37,0,2.05,0,0,0,.12,0,.14,0,.75.75,1.78.38,2.65.65a31.38,31.38,0,0,0,3.62.69c.3.06.6.13.91.18a2.5,2.5,0,0,0,.46,0c-.07-.13-.11-.32-.22-.38-.74-.37-1.49-.7-2.24-1.06a7.76,7.76,0,0,1-.73-.46c1.16.26,2.35.43,3.48.8a17.82,17.82,0,0,1,5.82,2.56,29.16,29.16,0,0,1,2.55,2.57Zm-21-4.82V2.8c-.31,0-.63,0-.93,0a1.34,1.34,0,0,0-.41.2,1.67,1.67,0,0,0,.43.14c1.43.06,2.87.07,4.29.19,1.18.1,2.35.34,3.52.53.54.08,1.08.2,1.62.26.15,0,.31-.14.47-.22l-.36-.13a1.44,1.44,0,0,0-.27-.08Z" transform="translate(-0.12 -0.33)"/><path class="cls-3" d="M51.09,149.65a21.78,21.78,0,0,1-10.15,7.61A40.48,40.48,0,0,1,24.05,160a28.73,28.73,0,0,1-10.26-2.25c-.22-.09-.42-.21-.63-.32.44.07.89.13,1.33.23,1.66.36,3.31.74,5,1.09.06,0,.26-.22.26-.33-.1-1.19-.1-1.23,1.14-1.15s2.6.39,3.9.34a6.5,6.5,0,0,0,2.39-.83c.76-.36,1.44-.87,2.17-1.29a2.08,2.08,0,0,1,.56-.14c-.08.21-.11.48-.26.62-.51.47-1.06.89-1.6,1.33a1.29,1.29,0,0,0-.16.19H28c.73-.08,1.45-.14,2.18-.24,1-.13,2-.3,3-.42s2.09-.13,3.1-.35c1.56-.35,3.1-.82,4.64-1.27a21.36,21.36,0,0,0,2.33-.76c.54-.23,1-.66,1.54-.9,1.35-.6,2.53-1.5,3.82-2.18a3.22,3.22,0,0,0,1.62-1.55A.57.57,0,0,1,51.09,149.65Z" transform="translate(-0.12 -0.33)"/><path class="cls-5" d="M1.17,15l.25-1.17.24-.09,0,.59c.08,0,.18-.07.23-.14a6.35,6.35,0,0,0,1.39-3.16c0-.11-.17-.22-.26-.32l-.1-.1A5.08,5.08,0,0,1,5.67,7.72a.39.39,0,0,1,.28-.05c1,.41,1.75-.33,2.63-.48.4-.07.79-.18,1.19-.24a3.85,3.85,0,0,1,1.76,1.43c-.48,0-.59.3-.63.65,0,.1.22.24.34.36-.06.14-.08.39-.17.41-.37.1-.52.25-.43.66,0,.11-.22.34-.39.42-1.83.79-3.69,1.52-5.5,2.34A19.68,19.68,0,0,0,3,14.37a6.38,6.38,0,0,1-1.14.42ZM9.53,8a8.19,8.19,0,0,0-.9,1.05,3.92,3.92,0,0,0-.31,1c-.06.23-.1.47-.14.7A3.5,3.5,0,0,0,9,10.75,3.15,3.15,0,0,0,10.18,8.6C10.11,8.41,9.84,8.29,9.53,8ZM5.87,9.23c-.29-.19-.53-.42-.59-.38a1.58,1.58,0,0,0-.5.58c0,.07.24.38.26.37C5.28,9.66,5.51,9.48,5.87,9.23ZM4.25,12.84c-.16-.12-.29-.25-.31-.24a2.76,2.76,0,0,0-.42.42.66.66,0,0,0,.16.2C3.87,13.13,4,13,4.25,12.84Z" transform="translate(-0.12 -0.33)"/><path class="cls-6" d="M27.77,15.93a4.49,4.49,0,0,0-.35-.47C26,14,24.54,12.53,23.12,11a3.64,3.64,0,0,1-.46-.88,2.79,2.79,0,0,1,.91.31c2.13,1.74,4.23,3.51,6.34,5.29.07.06.11.31.06.35q-2.5,2.13-5,4.22c-.55.45-1.14.86-1.72,1.27-.08.06-.21,0-.32.06s0-.25,0-.33A14.59,14.59,0,0,1,24,20c1.13-1.23,2.29-2.44,3.44-3.66Z" transform="translate(-0.12 -0.33)"/><path class="cls-6" d="M23.42,42.09a2.12,2.12,0,0,1,.17-.57c.65-.79,1.29-1.59,2-2.34s1.62-1.7,2.46-2.52c.35-.33.1-.49-.09-.69-1-1.07-2.08-2.12-3.1-3.2-.57-.61-1.08-1.26-1.59-1.91a1.47,1.47,0,0,1-.16-.44,1.55,1.55,0,0,1,.58.14c1.12.85,2.26,1.7,3.33,2.61s1.95,1.82,2.94,2.71c.43.39.49.65,0,1.05-2,1.57-3.88,3.17-5.81,4.75A7,7,0,0,1,23.42,42.09Z" transform="translate(-0.12 -0.33)"/><path class="cls-6" d="M30.57,31.71l-.08.24a1.17,1.17,0,0,1-.29-.12C29.1,31,28,30.08,26.9,29.18s-2.22-2-3.35-2.93c-.37-.31-.37-.51,0-.83,1.85-1.58,3.67-3.19,5.53-4.76a3.3,3.3,0,0,1,1.08-.38,4.28,4.28,0,0,1-.5.9c-1.35,1.46-2.7,2.91-4.11,4.31-.35.35-.29.47,0,.75q2.18,2.23,4.33,4.49A8.07,8.07,0,0,1,30.57,31.71Z" transform="translate(-0.12 -0.33)"/><path class="cls-6" d="M30.67,40.8c-.11.14-.2.28-.32.4-1.41,1.53-2.81,3.07-4.25,4.57-.33.34-.35.51,0,.85,1.35,1.43,2.68,2.88,4,4.33a5.77,5.77,0,0,1,.61.88c.05.08,0,.21,0,.32s-.24,0-.32-.06c-.66-.48-1.34-.93-2-1.47-1.52-1.35-3-2.75-4.52-4.1-.4-.35-.14-.54.08-.74,1.26-1.1,2.52-2.21,3.81-3.28.75-.62,1.56-1.19,2.35-1.76a1,1,0,0,1,.4-.12S30.62,40.73,30.67,40.8Z" transform="translate(-0.12 -0.33)"/><path class="cls-6" d="M23.72,61.94c0-.24,0-.38.09-.46.4-.51.79-1,1.23-1.49,1-1.08,2.05-2.15,3.13-3.17.32-.3.27-.44,0-.71q-2-2.15-4-4.34a7.38,7.38,0,0,1-.64-.87,1,1,0,0,1-.09-.31c.11,0,.24,0,.32,0a4.15,4.15,0,0,1,.64.45c2,1.69,3.9,3.39,5.84,5.1a.63.63,0,0,1,0,.61c-2,1.64-4,3.25-6,4.86A5.19,5.19,0,0,1,23.72,61.94Z" transform="translate(-0.12 -0.33)"/><path class="cls-6" d="M30.53,60.57l.21.06a1.1,1.1,0,0,1-.13.32c-.61.73-1.21,1.49-1.86,2.18-.8.85-1.64,1.68-2.5,2.48-.37.34-.28.49,0,.83,1.39,1.44,2.74,2.93,4.09,4.4a2.8,2.8,0,0,1,.36.53,1.76,1.76,0,0,1,.11.37c-.13,0-.29,0-.39-.06a16.29,16.29,0,0,1-1.81-1.28c-1.49-1.32-2.93-2.71-4.4-4-.36-.33-.33-.55,0-.84,1.12-.93,2.24-1.88,3.35-2.82.65-.55,1.28-1.12,1.94-1.64A5.14,5.14,0,0,1,30.53,60.57Z" transform="translate(-0.12 -0.33)"/><path class="cls-6" d="M30.67,99.55a8.29,8.29,0,0,1-.61.8c-1.29,1.31-2.58,2.64-3.91,3.91-.35.34-.35.52,0,.84,1.2,1.24,2.37,2.5,3.55,3.76a8.62,8.62,0,0,1,.72.89,2.37,2.37,0,0,1,.21.5c-.22,0-.5,0-.65-.15q-3-2.58-6-5.22a.56.56,0,0,1,0-.54q2.89-2.31,5.83-4.57a2.53,2.53,0,0,1,.63-.32C30.46,99.44,30.56,99.51,30.67,99.55Z" transform="translate(-0.12 -0.33)"/><path class="cls-6" d="M23.61,89.7a5.6,5.6,0,0,1,.7.41l4.85,4.21c.31.27.6.55.92.8s.39.53,0,.81c-1.91,1.5-3.82,3-5.74,4.49a2,2,0,0,1-.65.2A2,2,0,0,1,24,100c1.16-1.2,2.31-2.41,3.51-3.57,1-1,1-.9,0-2-1.27-1.36-2.46-2.8-3.68-4.2A2.12,2.12,0,0,1,23.61,89.7Z" transform="translate(-0.12 -0.33)"/><path class="cls-6" d="M30.83,91.18c-.3,0-.54,0-.68-.11-.79-.61-1.58-1.23-2.33-1.9-1.2-1.07-2.35-2.19-3.54-3.27-.36-.33-.41-.56,0-.89,1.87-1.46,3.71-3,5.59-4.41a3.16,3.16,0,0,1,.88-.33,4.81,4.81,0,0,1-.52.81c-1.33,1.38-2.66,2.76-4,4.1-.32.31-.25.41,0,.7,1.35,1.42,2.67,2.86,4,4.32A7.47,7.47,0,0,1,30.83,91.18Z" transform="translate(-0.12 -0.33)"/><path class="cls-6" d="M30.87,129.05c-.17,0-.28.07-.33,0a7,7,0,0,1-1.11-.73c-1.7-1.55-3.36-3.13-5.06-4.68-.34-.31-.36-.5,0-.78l5.47-4.33a2.06,2.06,0,0,1,.43-.26,1.33,1.33,0,0,1,.34-.06c0,.13,0,.29-.08.37-.56.66-1.11,1.33-1.71,1.95-.77.79-1.56,1.57-2.38,2.29-.43.38-.42.62,0,1,1.28,1.36,2.52,2.75,3.76,4.15A12.17,12.17,0,0,1,30.87,129.05Z" transform="translate(-0.12 -0.33)"/><path class="cls-6" d="M24,70.51a6.62,6.62,0,0,1,.76.49q2.15,1.84,4.27,3.69c.49.42,1,.85,1.42,1.31a.49.49,0,0,1,0,.48q-2.87,2.33-5.77,4.62a3,3,0,0,1-.82.31,3.68,3.68,0,0,1,.46-.8c1.37-1.4,2.78-2.77,4.15-4.17.08-.08,0-.42-.11-.54-.82-.87-1.7-1.69-2.5-2.58s-1.36-1.66-2-2.49a.89.89,0,0,1-.1-.25Z" transform="translate(-0.12 -0.33)"/><path class="cls-3" d="M53,89.57l0,1.22c-.08.1-.22.19-.23.3-.13,1.22-.3,2.45-.33,3.67,0,1,.14,2,.2,3a.84.84,0,0,1-.68,1,6.53,6.53,0,0,0-.89.15c-.44.13-.88.09-.83-.41.08-.72-.31-1.6.56-2.13.06,0,.06-.17.09-.26.36-.23,1-.19.85-.91s-.27-1.54-.45-2.3a.72.72,0,0,0-.93-.64l-1.06-1.54c.16-.27.25-.61.48-.78s.87-.64,1.21-.56.68.64,1,1a2.14,2.14,0,0,1,.23.57c.11-.2.22-.4.34-.59S52.82,89.81,53,89.57Z" transform="translate(-0.12 -0.33)"/><path class="cls-6" d="M30.43,114.35a3.08,3.08,0,0,1-.25.26l-5.56,4.5a1,1,0,0,1-.31.18,3.49,3.49,0,0,1-.46.09,1.38,1.38,0,0,1,.17-.44c.65-.74,1.3-1.48,2-2.18s1.41-1.37,2.13-2c.26-.24.29-.39,0-.69q-2.08-2.18-4.1-4.41a3.81,3.81,0,0,1-.44-.83,3.11,3.11,0,0,1,.87.36c1.91,1.62,3.8,3.27,5.7,4.92A3,3,0,0,1,30.43,114.35Z" transform="translate(-0.12 -0.33)"/><path class="cls-6" d="M30.28,147.47c-.26-.14-.38-.2-.5-.28a31.1,31.1,0,0,1-5.65-5.06.58.58,0,0,1,.07-.56c.81-.71,1.61-1.44,2.48-2.07,1.12-.82,2.29-1.56,3.45-2.33a1.44,1.44,0,0,1,.45-.12,1.48,1.48,0,0,1-.2.42c-1.33,1.35-2.64,2.71-4,4-.45.42-.42.63,0,1,1.18,1.23,2.31,2.5,3.44,3.76a4.41,4.41,0,0,1,.52.77C30.35,147.15,30.29,147.29,30.28,147.47Z" transform="translate(-0.12 -0.33)"/><path class="cls-6" d="M28.76,133.34c-.35-.29-.49-.38-.6-.5-1.34-1.46-2.69-2.93-4-4.41a2.4,2.4,0,0,1-.3-.65,3,3,0,0,1,.7.32q1.9,1.54,3.76,3.12c.66.56,1.26,1.18,1.93,1.72.32.26.26.39,0,.59l-5.6,4.25a1.14,1.14,0,0,1-.39.18,2.09,2.09,0,0,1-.39,0,1.16,1.16,0,0,1,.16-.37c.86-.87,1.72-1.73,2.6-2.58.55-.53,1.13-1,1.71-1.54C28.4,133.41,28.54,133.4,28.76,133.34Z" transform="translate(-0.12 -0.33)"/><path class="cls-6" d="M23.76,146.46a3.79,3.79,0,0,1,.47.3c1.75,1.48,3.48,3,5.27,4.44.58.47.42.8,0,1.1-1.92,1.29-3.86,2.55-5.8,3.81a.35.35,0,0,1-.13.07l-.41,0c.05-.14.06-.32.16-.41q1.44-1.28,2.91-2.52a11,11,0,0,1,1.24-1c.52-.33.54-.58.11-1-1.31-1.42-2.58-2.89-3.85-4.34a1.47,1.47,0,0,1-.18-.38Z" transform="translate(-0.12 -0.33)"/><path class="cls-6" d="M49.26,90.63l1.06,1.54c-.15,1.09-.28,2.17-.44,3.26-.14.91-.16.91.69.66l.28-.07c0,.09,0,.23-.09.26-.87.53-.48,1.41-.56,2.13-.05.5.39.54.83.41a6.53,6.53,0,0,1,.89-.15l-3.16,1.16c-.42.15-.54,0-.53-.46.06-2.09,0-4.18.2-6.26A10.46,10.46,0,0,1,49.26,90.63Z" transform="translate(-0.12 -0.33)"/><path class="cls-3" d="M.86,97,.43,54.37A2,2,0,0,1,.72,55c0,1.34,0,2.68,0,4,0,3.18.12,6.37.16,9.55C.93,73.14,1,77.67,1,82.2q.05,5.18.11,10.35l0,.62,0,.24.06.56v1.2l0,1.71Z" transform="translate(-0.12 -0.33)"/><path class="cls-3" d="M48.34,122.64c-.26.34-.51.69-.79,1a2.32,2.32,0,0,1-.36.3c0-.15-.1-.36,0-.44a31.4,31.4,0,0,1,2.33-2.76c.37-.36.69.1.62.5-.1.58-.34,1.14-.49,1.71a1.18,1.18,0,0,0,0,.63c.05.16.24.27.37.41l.17-.52c.15-.45.28-.92.46-1.36.07-.17.32-.44.42-.41.46.13.39-.16.41-.42a1.68,1.68,0,0,1,.09-.49c0-.09.16-.15.24-.22,0,.1.15.2.14.29-.15,1.12-.27,2.26-.51,3.36a3.2,3.2,0,0,1-.75,1.08c-.21.26-.44.41-.65,0,0-.07-.11-.12-.17-.18a2.19,2.19,0,0,1-.08.25,11.25,11.25,0,0,1-.88,1.82c-.37.52-1.12.73-1.23,1.49,0,.09-.21.15-.32.22,0-.12-.08-.24-.12-.37s-.11-.38-.14-.57-.07-.33,0-.38c.8-.67.61-1.67.85-2.52s.35-1.59.53-2.38a3.17,3.17,0,0,1,.25.52,1.48,1.48,0,0,1,0,.44l.29-.39a.84.84,0,0,0,.18-.31c.05-.36.08-.73.12-1.1Zm1.05,2.44a2.74,2.74,0,0,0-.43-.58c-.07-.06-.47.07-.49.16-.16.69-.26,1.4-.36,2.11,0,.05.22.21.26.18A2,2,0,0,0,49.4,125.08ZM51,123.85l-.05-.2c-.05,0-.14,0-.15.08-.1.3-.2.61-.29.92l.1,0Z" transform="translate(-0.12 -0.33)"/><path class="cls-6" d="M52.27,43.15c-.31.24-.55.48-.07.78a.92.92,0,0,0-.4.85c0,.6.4,1.33-.28,1.84-.7-.6-1.42-1.19-2.1-1.82a.92.92,0,0,1-.29-.6c0-.84,0-1.68.11-2.51a1.07,1.07,0,0,1,.42-.72c.59-.36,1.24-.63,1.86-.93.09.71.14,1.42.29,2.11A4.68,4.68,0,0,0,52.27,43.15Z" transform="translate(-0.12 -0.33)"/><path class="cls-3" d="M53.44,64.92a.17.17,0,0,1,0,.09c-.05.78-.14,1.55-.14,2.33,0,.52-.15.75-.68.71s-.85,0-1.27-.05a5.91,5.91,0,0,1-.15-.67c-.13-1.23.69-2.5-.14-3.72-.09-.13.05-.45.13-.67.15-.42.33-.84.49-1.25l0,0,.15-.37c.17-.38.34-.77.53-1.15,0-.08.18-.11.27-.17,0,.1.15.21.14.3-.25,1.19.3,2.48-.41,3.61-.32.52-.25.83.42.87A4.94,4.94,0,0,1,53.44,64.92Z" transform="translate(-0.12 -0.33)"/><path class="cls-3" d="M1.71,123.56v-1a9,9,0,0,1,.79.53,17.43,17.43,0,0,0,6,2.87,9.51,9.51,0,0,0,1.52.42c.75.11.67.63.61,1.12,0,.08-.37.22-.53.17a21.38,21.38,0,0,1-7-2.93,3.85,3.85,0,0,0-.37-.21h0l-.3-.15h0l-.15-.15h0l-.15-.15h0l-.44-.59Z" transform="translate(-0.12 -0.33)"/><path class="cls-6" d="M51.69,61.68c-.17.42-.34.83-.49,1.25-.08.22-.22.53-.13.67.83,1.23,0,2.49.14,3.72a5.91,5.91,0,0,0,.15.67c-.71,0-1.42.09-2.13.07-.13,0-.35-.3-.36-.46,0-1.53.09-3,1.36-4.12A14,14,0,0,0,51.69,61.68Z" transform="translate(-0.12 -0.33)"/><path class="cls-3" d="M3,130.91a3.56,3.56,0,0,0,.57.64,22.65,22.65,0,0,0,6.5,2.83c.26.08.53.06.47.53s-.19.49-.57.38a22.48,22.48,0,0,1-6.88-3.13,4.27,4.27,0,0,1-1.64-2.21,1.27,1.27,0,0,1,0-.45,2.59,2.59,0,0,1,.36.18c.3.21.59.43.88.65l-.06.06-.4,0c0,.07,0,.19.07.21a4.84,4.84,0,0,0,.53.19h0l.14.14Z" transform="translate(-0.12 -0.33)"/><path class="cls-3" d="M10.65,122.57c-.2.08-.43.28-.6.24-2.64-.76-5.36-1.37-7.56-3.16a7.09,7.09,0,0,1-1.15-1.53c0-.07,0-.22,0-.33a.92.92,0,0,1,.22.14c1.51,1.69,3.57,2.36,5.62,3,1,.32,1.94.54,2.9.85.21.07.37.3.55.45Z" transform="translate(-0.12 -0.33)"/><path class="cls-3" d="M52.27,43.15a4.68,4.68,0,0,1-.46-1c-.14-.69-.2-1.41-.29-2.11.68-.52,1.36-1,2.05-1.54a1.34,1.34,0,0,1,.46-.12l-.13,5.18a5.54,5.54,0,0,1-.35-.6,4.27,4.27,0,0,1-.17-.61l-.49.33Z" transform="translate(-0.12 -0.33)"/><path class="cls-3" d="M2.28,120.52a4.84,4.84,0,0,0,.72.78,20.83,20.83,0,0,0,7,2.76.64.64,0,0,1,.56.87c0,.12-.33.31-.43.27-2-.72-4-1.41-5.9-2.23a9,9,0,0,1-2.08-1.51,3,3,0,0,1-.69-1c-.2-.42.07-.47.41-.38h0l.15.15H2l.15.15h0l.15.15Z" transform="translate(-0.12 -0.33)"/><path class="cls-3" d="M52,139.86v.25a8.65,8.65,0,0,0-.56.92,1.94,1.94,0,0,0-.22.85c0,.74.21,1.47.17,2.2,0,.32-.43.62-.66.93-.25-.23-.6-.41-.72-.7a7.4,7.4,0,0,1-.06-4.38,13.36,13.36,0,0,1,.7-2,2.36,2.36,0,0,1,.3-.45,3.46,3.46,0,0,1-.05.58c-.27,1-.56,2.07-.83,3.11a2.73,2.73,0,0,0,0,.64c.1-.05.24-.08.28-.15s.32-.47.28-.67a1.79,1.79,0,0,1,.35-1.86,3.18,3.18,0,0,1,.55-.35c.06.24.22.52.15.72C51.51,139.92,51.79,139.83,52,139.86Zm-.87.7.3-.25-.06-.08-.23.34-.08.09s0,0,0,0Z" transform="translate(-0.12 -0.33)"/><path class="cls-3" d="M10.71,132.91c-.17.08-.36.27-.5.23a18.89,18.89,0,0,1-7.42-3.46A9.68,9.68,0,0,1,1.44,128c-.07-.09,0-.27,0-.41.11.07.26.1.33.2a9.29,9.29,0,0,0,4,2.84c1.4.6,2.88,1,4.32,1.57a3.15,3.15,0,0,1,.64.44Z" transform="translate(-0.12 -0.33)"/><path class="cls-3" d="M2.57,138.25c-.4-.73-.79-1.46-1.18-2.2,0,0,0-.13,0-.19a.92.92,0,0,1,.19.08.69.69,0,0,1,.15.15c2,2.58,4.91,3.71,7.86,4.75A1.88,1.88,0,0,0,10,141c.51.05.48.43.37.74,0,.1-.42.16-.6.1A21.89,21.89,0,0,1,4,139.06a1.47,1.47,0,0,0-.41-.13l.1.26-.11.1-.45-.41.07-.08.25-.07c-.22-.28-.34-.74-.86-.48Z" transform="translate(-0.12 -0.33)"/><path class="cls-3" d="M10.8,118.71c-.31.24-.49.47-.6.45-2.79-.69-5.64-1.26-8-3.13A5.16,5.16,0,0,1,1.41,115c0-.05,0-.18,0-.27s.23,0,.31.09c2.06,1.82,4.64,2.43,7.19,3.12.37.1.76.14,1.12.27A3.72,3.72,0,0,1,10.8,118.71Z" transform="translate(-0.12 -0.33)"/><path class="cls-6" d="M51.29,58.34c-2.24-.07-2.24-.07-2.23-2.27,0-1.57,0-1.57,1.63-1.35.3,0,.6.12.9.18a4.62,4.62,0,0,1,0,.7C51.52,56.52,51.4,57.43,51.29,58.34Z" transform="translate(-0.12 -0.33)"/><path class="cls-3" d="M50.86,72.52c.57,0,1.13-.11,1.7-.14.41,0,.6.18.59.61,0,.81,0,1.62,0,2.43,0,.1-.22.26-.35.29-.44.08-.89.11-1.33.16-.18-.3-.36-.6-.55-.89s-.31-.28-.3-.41C50.66,73.89,50.77,73.21,50.86,72.52Z" transform="translate(-0.12 -0.33)"/><path class="cls-6" d="M50.86,72.52c-.09.68-.21,1.37-.27,2.06,0,.13.2.26.3.41s.37.59.55.89c-.8.09-1.6.2-2.4.25-.1,0-.31-.32-.31-.49,0-.81.06-1.63.05-2.44,0-.48.13-.72.65-.68S50.38,72.52,50.86,72.52Z" transform="translate(-0.12 -0.33)"/><path class="cls-6" d="M25.49,6.06c.05.2,0,.49.18.6.56.44,1.17.83,1.75,1.25a3.36,3.36,0,0,1,.43.45c-.22.06-.46.21-.65.15a8.88,8.88,0,0,1-1.77-.65c-.63-.33-1.18-.81-1.78-1.19-.35-.21-.31-.37,0-.57l1.44-.93Z" transform="translate(-0.12 -0.33)"/><path class="cls-6" d="M50.28,84.94c-.27.08-.54.19-.82.24-.85.18-1.1,0-1-.9,0-.59.12-1.19.12-1.78s.08-.83.69-.82a6.54,6.54,0,0,0,1.06-.16.17.17,0,0,0,0,.07l0,2a3.64,3.64,0,0,0-.14.7A2.47,2.47,0,0,0,50.28,84.94Z" transform="translate(-0.12 -0.33)"/><path class="cls-3" d="M10.25,120.18c-2.77-.7-5.45-1.29-7.7-2.95a8.34,8.34,0,0,1-1.09-1.13c-.05-.06,0-.17-.06-.26a.67.67,0,0,1,.23.08c2,1.86,4.63,2.52,7.18,3.23.48.13,1,.22,1.45.38a.53.53,0,0,1,.26.4C10.53,120,10.32,120.12,10.25,120.18Z" transform="translate(-0.12 -0.33)"/><path class="cls-3" d="M1.86,120.1l-.06-.4c.13,0,.3,0,.39.06,2.3,1.88,5.1,2.57,7.86,3.35.2.06.33.34.5.52a1.8,1.8,0,0,1-.65.1,20.58,20.58,0,0,1-7.61-3.21h0l-.15-.15h0L2,120.23H2l-.15-.15Z" transform="translate(-0.12 -0.33)"/><path class="cls-3" d="M44.4,113.92c0,.38,0,.77,0,1.15a.49.49,0,0,1-.25.36c-.12,0-.29-.08-.43-.14s0,0,0-.05l-.8-.94a8.77,8.77,0,0,1-.07,1.12.51.51,0,0,1-.36.32c-.11,0-.33-.2-.33-.32,0-.76,0-1.53,0-2.29,0-.51.34-.51.7-.32.1.05.16.17.24.26l.63.74a4.75,4.75,0,0,1,.07-.88,1.89,1.89,0,0,1,.35-.52c.11.16.3.32.33.5a6.29,6.29,0,0,1,0,1Z" transform="translate(-0.12 -0.33)"/><path class="cls-3" d="M10.22,117.88a22.21,22.21,0,0,1-7.32-2.57,8.75,8.75,0,0,1-1.23-1.09c-.06-.06,0-.21,0-.31a.88.88,0,0,1,.25.09c2.27,1.8,5,2.42,7.73,3.07a2,2,0,0,1,.62.16.8.8,0,0,1,.25.48S10.26,117.85,10.22,117.88Z" transform="translate(-0.12 -0.33)"/><path class="cls-3" d="M51.29,58.34c.11-.91.23-1.82.33-2.74a4.62,4.62,0,0,0,0-.7,5.85,5.85,0,0,1,1.11.18.7.7,0,0,1,.36.52A15.56,15.56,0,0,1,53,57.94c0,.2-.41.45-.66.5A3.75,3.75,0,0,1,51.29,58.34Z" transform="translate(-0.12 -0.33)"/><path class="cls-3" d="M10.82,125.87c-.28.16-.42.31-.51.29-3-.87-6.17-1.59-8.43-4.07a1.81,1.81,0,0,1-.23-.51,2.17,2.17,0,0,1,.47.26,13.8,13.8,0,0,0,5.16,2.78c.93.32,1.89.56,2.83.85A4.53,4.53,0,0,1,10.82,125.87Z" transform="translate(-0.12 -0.33)"/><path class="cls-3" d="M3,140.13a1.88,1.88,0,0,0,.29.48,21,21,0,0,0,6.41,3.46,4.38,4.38,0,0,1,.87.6c-.36.45-.71.07-1,0a18.34,18.34,0,0,1-6.66-3.84,8,8,0,0,1-.87-1c-.3-.42.07-.32.28-.33h0l.15.15h0l.15.15h0l.15.15h0l.3.3Z" transform="translate(-0.12 -0.33)"/><path class="cls-3" d="M2.57,127.3l-.6-.89a1.17,1.17,0,0,1-.08-.19.93.93,0,0,1,.25,0,.63.63,0,0,1,.25.13c2.15,1.9,4.81,2.71,7.47,3.5a1.65,1.65,0,0,1,.48.15,1.56,1.56,0,0,1,.3.4c-.15.06-.32.2-.44.17a20.92,20.92,0,0,1-7-3,2.61,2.61,0,0,0-.6-.25Z" transform="translate(-0.12 -0.33)"/><path class="cls-3" d="M2,133.34l.26.21a18.55,18.55,0,0,0,7.39,3.85c.21.06.46.09.59.23s.13.4.18.61a2.19,2.19,0,0,1-.4-.08c-1.67-.67-3.39-1.23-5-2.06a20.09,20.09,0,0,1-3-2.31,1,1,0,0,1-.2-.36Z" transform="translate(-0.12 -0.33)"/><path class="cls-3" d="M39,114.72c-.11-1.47.32-1.89,1.81-1.76.11,0,.31.2.29.28a.7.7,0,0,1-.28.47,5.18,5.18,0,0,1-.78.11c-.1,0-.16.17-.24.26a3,3,0,0,0,.29.13s.1,0,.14,0l.7.25-.66.47-.45.31a4.05,4.05,0,0,0,.5.09,2.85,2.85,0,0,1,.5,0c.13,0,.3.16.32.27a.67.67,0,0,1-.18.42c0,.06-.18,0-.27.06C39.09,116.34,39.09,116.34,39,114.72Z" transform="translate(-0.12 -0.33)"/><path class="cls-3" d="M51.52,46.62c.69-.51.25-1.24.28-1.84a.92.92,0,0,1,.4-.85,28.24,28.24,0,0,1,1.35,2.93c.13.39-.18.92-.29,1.39-.2-.05-.47,0-.59-.17C52.27,47.62,51.9,47.11,51.52,46.62Z" transform="translate(-0.12 -0.33)"/><path class="cls-6" d="M52.38,84.31l-.34.24-1.46-.49a3,3,0,0,0-.15-2.44l.16-.07,1.84-.28Z" transform="translate(-0.12 -0.33)"/><path class="cls-3" d="M3.44,133.35a3.37,3.37,0,0,0,.54.58,22.58,22.58,0,0,0,5.91,2.59c.16,0,.39.06.46.17a1.6,1.6,0,0,1,.12.58.77.77,0,0,1-.29,0c-1.75-.71-3.55-1.34-5.23-2.19A15.56,15.56,0,0,1,2.3,133c-.14-.12-.19-.35-.28-.53.17.09.34.17.51.27l.92.58Z" transform="translate(-0.12 -0.33)"/><path class="cls-3" d="M2.29,139.41l-.07-.4a.87.87,0,0,1,.3.11,20.74,20.74,0,0,0,7.12,3.94c.14,0,.31.06.4.15a3.94,3.94,0,0,1,.4.57,1.64,1.64,0,0,1-.57,0,19.93,19.93,0,0,1-6.67-3.6.62.62,0,0,0-.2-.07H3l-.3-.3h0l-.15-.15h0l-.15-.15h0l-.15-.15Z" transform="translate(-0.12 -0.33)"/><path class="cls-3" d="M45.24,113.68c0-.14,0-.29,0-.43,0-1.13.17-1.33,1.28-1.38.13,0,.38.09.39.16a.7.7,0,0,1-.12.51c-.09.11-.31.11-.45.19a3.74,3.74,0,0,0-.41.29,2.12,2.12,0,0,1,.44,0c.13,0,.33.12.35.21a.57.57,0,0,1-.15.43c-.09.09-.27.08-.4.15a1.18,1.18,0,0,0-.24.22,2,2,0,0,0,.3.1c.24,0,.63-.42.72.18s-.32.51-.64.59c-1.06.28-1.06.28-1.05-.84q0-.22,0-.43Z" transform="translate(-0.12 -0.33)"/><path class="cls-6" d="M25.19,36.41A1.11,1.11,0,0,1,24,37.48a1.13,1.13,0,0,1-1-1.12,1.16,1.16,0,0,1,1.25-1A1,1,0,0,1,25.19,36.41Z" transform="translate(-0.12 -0.33)"/><path class="cls-3" d="M5.45,143.73c.15.15.28.36.47.44,1.33.61,2.67,1.19,4,1.8a2.69,2.69,0,0,1,.47.35,2,2,0,0,1-.52,0A18.71,18.71,0,0,1,3,142.39a4.33,4.33,0,0,1-.46-.62l.06-.06.17.12L3,142a1.7,1.7,0,0,0-.11-.28c-.08-.13-.18-.25-.27-.38a2,2,0,0,1,.44.25c.27.27.52.56.78.85l-.25,0-.15-.14-.16-.05,0,.15.15.15.43.23-.07-.3.68.35-.12.12-.24.16,1.28.67Z" transform="translate(-0.12 -0.33)"/><path class="cls-3" d="M51.75,28.56c.12-1.29.2-3,.45-4.6A11.51,11.51,0,0,1,53,21.54c.05-.14.31-.2.47-.3,0,.2.09.45,0,.58a3.43,3.43,0,0,0-.67,2.1c0,.3-.37.64-.4,1.08a18.78,18.78,0,0,0,.1,6.19,1.2,1.2,0,0,1,.07.35,1.6,1.6,0,0,1-.11.37,1.48,1.48,0,0,1-.16-.34C52.13,30.69,52,29.8,51.75,28.56Z" transform="translate(-0.12 -0.33)"/><path class="cls-6" d="M24.63,16a1,1,0,0,1-1,1,.88.88,0,0,1-1-.93A1.11,1.11,0,0,1,23.74,15C24.29,14.95,24.64,15.35,24.63,16Z" transform="translate(-0.12 -0.33)"/><path class="cls-6" d="M28.42,25.94a1,1,0,0,1,1-1.1,1.12,1.12,0,0,1,1.1,1,1.26,1.26,0,0,1-1.27,1.1C28.57,26.89,28.53,26.34,28.42,25.94Z" transform="translate(-0.12 -0.33)"/><path class="cls-3" d="M47.55,113c0-.29,0-.58,0-.86,0-.64.31-.83.87-.86s.72.41.72.85c0,.6-.06,1.2-.11,1.8,0,.08-.1.21-.15.21a.69.69,0,0,1-.36-.13,1.74,1.74,0,0,1-.27-.31,1.39,1.39,0,0,1-.12.36,4.19,4.19,0,0,1-.37.43,1.78,1.78,0,0,1-.2-.48c0-.33,0-.67,0-1Zm.88-1.11a2.65,2.65,0,0,0-.27.57c0,.11.07.23.12.35a2.3,2.3,0,0,0,.37-.43C48.68,112.3,48.56,112.15,48.43,111.88Z" transform="translate(-0.12 -0.33)"/><path class="cls-6" d="M30.79,46.41a.94.94,0,0,1-1.1.85c-.64,0-.87-.41-.88-1a.88.88,0,0,1,.95-1A1.07,1.07,0,0,1,30.79,46.41Z" transform="translate(-0.12 -0.33)"/><path class="cls-6" d="M29.88,67a.82.82,0,0,1-.92-.93,1,1,0,0,1,.94-1,1,1,0,0,1,1,1A1,1,0,0,1,29.88,67Z" transform="translate(-0.12 -0.33)"/><path class="cls-6" d="M24.41,57.41a.93.93,0,0,1-.93-1,1,1,0,0,1,1-1,1,1,0,0,1,1,1.06A1,1,0,0,1,24.41,57.41Z" transform="translate(-0.12 -0.33)"/><path class="cls-6" d="M28.9,123.43a1,1,0,0,1,1-1,1,1,0,1,1-.25,1.94C29,124.34,28.9,123.9,28.9,123.43Z" transform="translate(-0.12 -0.33)"/><path class="cls-6" d="M29.79,84.65a.94.94,0,0,1,1,1,1.06,1.06,0,0,1-1.12.88c-.59,0-.87-.35-.85-1A.87.87,0,0,1,29.79,84.65Z" transform="translate(-0.12 -0.33)"/><path class="cls-6" d="M24.43,96.44a1,1,0,1,1,.12-1.92,1,1,0,0,1,.91,1.07A.92.92,0,0,1,24.43,96.44Z" transform="translate(-0.12 -0.33)"/><path class="cls-6" d="M24.55,115.24c-.43,0-1.18-.62-1-1a1.82,1.82,0,0,1,1-.9c.5-.16,1,.38,1,1A.9.9,0,0,1,24.55,115.24Z" transform="translate(-0.12 -0.33)"/><path class="cls-6" d="M24.68,75.24a.91.91,0,0,1,.94.93c0,.57-.61,1.26-1.12,1.06a1.72,1.72,0,0,1-.76-1C23.61,75.76,24.2,75.24,24.68,75.24Z" transform="translate(-0.12 -0.33)"/><path class="cls-6" d="M30.62,104.79a1,1,0,0,1-1.07.91.8.8,0,0,1-.8-.92.9.9,0,0,1,.94-1A.92.92,0,0,1,30.62,104.79Z" transform="translate(-0.12 -0.33)"/><path class="cls-3" d="M2.71,124.56a6.76,6.76,0,0,0,1,.91A23.58,23.58,0,0,0,10.16,128a1.71,1.71,0,0,1,.45.3,1.57,1.57,0,0,1-.49,0,20.68,20.68,0,0,1-6.8-2.81A10.49,10.49,0,0,1,1.86,124h0l.29.15h0l.15.15h0l.15.15h0l.3.15Z" transform="translate(-0.12 -0.33)"/><path class="cls-6" d="M29.86,141.13a.87.87,0,0,1,.8.93,1,1,0,0,1-1.06.93c-.58,0-.82-.3-.81-.85A1,1,0,0,1,29.86,141.13Z" transform="translate(-0.12 -0.33)"/><path class="cls-3" d="M10.08,139.2c-1-.38-1.94-.73-2.88-1.12a14.42,14.42,0,0,1-4.3-2.54,1.38,1.38,0,0,1-.19-.28,1,1,0,0,1,.32.11,20.41,20.41,0,0,0,7,3.39,1.92,1.92,0,0,1,.44.29Z" transform="translate(-0.12 -0.33)"/><path class="cls-6" d="M24.69,134c-.69,0-.89-.43-.91-.91a.83.83,0,0,1,.85-.88,1,1,0,0,1,1,.91A.86.86,0,0,1,24.69,134Z" transform="translate(-0.12 -0.33)"/><path class="cls-3" d="M2.74,118.34a23.87,23.87,0,0,0,7,2.65,3.3,3.3,0,0,1,.55.15c.08,0,.13.17.19.25-.1,0-.21.1-.3.08a21.22,21.22,0,0,1-7.48-2.86.87.87,0,0,1-.14-.16Z" transform="translate(-0.12 -0.33)"/><path class="cls-6" d="M24,150.69c.76.11,1.15.33,1.18.92s-.48.86-1,.89-.84-.55-.81-1S23.77,150.91,24,150.69Z" transform="translate(-0.12 -0.33)"/><path class="cls-3" d="M10,140.43a10.18,10.18,0,0,1-1.63-.51c-1.57-.79-3.12-1.64-4.67-2.49-.21-.12-.34-.38-.51-.58.22.12.44.26.66.37,1.72.83,3.44,1.66,5.16,2.47.32.15.69.21,1,.35a1.42,1.42,0,0,1,.34.29Z" transform="translate(-0.12 -0.33)"/><path class="cls-3" d="M10,116.32c-1.66-.49-3.37-1-5-1.52a17.57,17.57,0,0,1-2.36-1.18c-.07,0-.09-.17-.13-.26a.78.78,0,0,1,.26,0,24.4,24.4,0,0,0,7.41,2.52,1,1,0,0,1,.28.17Z" transform="translate(-0.12 -0.33)"/><path class="cls-3" d="M50.88,112.44c0,.14.06.33,0,.42a8.85,8.85,0,0,1-.68.74c-.19-.19-.47-.34-.54-.57a2.45,2.45,0,0,1,.34-2.19.89.89,0,0,1,.53-.27c.08,0,.29.2.27.25a.84.84,0,0,1-.31.49c-.54.26-.47.72-.43,1.17,0,.08.14.14.22.21a1.57,1.57,0,0,0,0-.29c0-.09-.09-.21-.05-.27a4.81,4.81,0,0,1,.4-.5,3.15,3.15,0,0,1,.22.45,1.24,1.24,0,0,1,0,.36Z" transform="translate(-0.12 -0.33)"/><path class="cls-3" d="M52.38,84.31l0-3c.16-.34.34-.68.49-1,.09-.19.14-.4.21-.61V82.3a3.29,3.29,0,0,0-.13.82A1.1,1.1,0,0,1,52.38,84.31Z" transform="translate(-0.12 -0.33)"/><path class="cls-3" d="M10.28,129.35A21.49,21.49,0,0,1,3,126.22a1.39,1.39,0,0,1-.23-.31.9.9,0,0,1,.32.07,22.26,22.26,0,0,0,7.12,3,1.71,1.71,0,0,1,.39.23Z" transform="translate(-0.12 -0.33)"/><path class="cls-3" d="M2.94,127.78a23.59,23.59,0,0,0,7.29,3.13c.14,0,.24.17.37.26-.17,0-.35.1-.49,0-1.73-.63-3.45-1.28-5.17-1.93-.26-.1-.52-.17-.78-.26h0L4,128.89H4l-.58-.29h0l-.59-.71Z" transform="translate(-0.12 -0.33)"/><path class="cls-3" d="M3.22,132.82a23.47,23.47,0,0,0,6.9,3.12c.14,0,.25.21.38.31a1.64,1.64,0,0,1-.46,0,22.06,22.06,0,0,1-6.22-2.72,2.78,2.78,0,0,0-.38-.18h0L3.12,133Z" transform="translate(-0.12 -0.33)"/><path class="cls-6" d="M28.5,8.87a.58.58,0,0,1,.23.12c.45.52.9,1,1.33,1.57.08.1,0,.29.05.44a1.51,1.51,0,0,1-.41-.13c-.58-.4-1.16-.81-1.73-1.24a2.72,2.72,0,0,1-.4-.47L28.15,9Z" transform="translate(-0.12 -0.33)"/><path class="cls-3" d="M4.16,129a6.76,6.76,0,0,0,1.13.71c1.63.63,3.28,1.2,4.91,1.8a2,2,0,0,1,.39.25c-.12,0-.25.12-.35.09a21.14,21.14,0,0,1-7.17-3.19,1.18,1.18,0,0,1-.15-.16l.11-.11.41.17h0l.58.29H4l.15.15Z" transform="translate(-0.12 -0.33)"/><path class="cls-3" d="M10.19,116.9a22.93,22.93,0,0,1-7.46-2.62,1,1,0,0,1-.19-.22.7.7,0,0,1,.28,0,14.47,14.47,0,0,0,1.68.81c1.71.55,3.43,1,5.15,1.56.18.05.38.06.56.13s.18.17.27.26Z" transform="translate(-0.12 -0.33)"/><path class="cls-6" d="M29.31,7c-.59,0-1-.05-1-.63s.37-.66.78-.61,1.06,0,1.08.68S29.6,7,29.31,7Z" transform="translate(-0.12 -0.33)"/><path class="cls-3" d="M3.37,130.82a24.87,24.87,0,0,0,6.76,2.92c.15,0,.27.2.41.3a1.15,1.15,0,0,1-.4,0,20.34,20.34,0,0,1-6.88-3.12Z" transform="translate(-0.12 -0.33)"/><path class="cls-3" d="M4,139.43c.09.05.19.12.3.17l5.59,2.57a1.44,1.44,0,0,1,.33.14c.07.06.09.18.14.28s-.21.09-.28.06q-2.94-1.38-5.87-2.79c-.13-.06-.22-.23-.33-.35Z" transform="translate(-0.12 -0.33)"/><path class="cls-3" d="M13.8,53.05c-.15.5-.37.94.07,1.32-.16.18-.3.44-.5.51a.62.62,0,0,1-.51-.32,5,5,0,0,1,0-1.47c0-.16.38-.29.61-.36C13.57,52.7,13.71,52.94,13.8,53.05Z" transform="translate(-0.12 -0.33)"/><path class="cls-3" d="M49.32,116.63c.29-.23.58-.46.87-.68a.93.93,0,0,1,.25-.09c0,.08,0,.17,0,.25a4.2,4.2,0,0,1,0,.69,1.65,1.65,0,0,1-.2.46c-.1-.11-.2-.22-.29-.34a1,1,0,0,1-.09-.23c0,.09,0,.2,0,.27-.17.24-.35.47-.53.7-.06-.12-.13-.24-.18-.37S49,117,49,116.88a3.5,3.5,0,0,0-.15.43c0,.14,0,.29,0,.43s-.19,0-.19,0a2.45,2.45,0,0,1-.16-1c0-.17.48-.23.73-.35Z" transform="translate(-0.12 -0.33)"/><path class="cls-3" d="M3.49,95.42l.73-1.07a4.76,4.76,0,0,1,.62,1.16c.08.35.22,1-.6.77a.19.19,0,0,0-.14,0c-.31.2-.31.2-.41-.36,0-.14,0-.28-.06-.42Zm.81-.05.31-.19-.4-.52-.36.47Z" transform="translate(-0.12 -0.33)"/><path class="cls-3" d="M.43,53.21.34,42.14c.08.12.23.25.23.37q.07,5.07.09,10.13C.67,52.83.51,53,.43,53.21Z" transform="translate(-0.12 -0.33)"/><path class="cls-3" d="M44.16,118.47c.09-.18.15-.49.33-.58s.41.14.63.18.21-.09.32-.13l.79-.35a2.67,2.67,0,0,1,0,1c-.14.39-.46.39-.79.09s-.51-.34-.47.22c0,.07-.42.17-.65.25Zm2.33-.17-.54-.47a1.22,1.22,0,0,0-.24.38c0,.07.15.25.23.25A2,2,0,0,0,46.49,118.3Z" transform="translate(-0.12 -0.33)"/><path class="cls-5" d="M1.18,94l-.06-.56.19-.14-.21-.1,0-.62A1.77,1.77,0,0,0,1.39,92c0-.55,0-1.1,0-1.65A1.15,1.15,0,0,1,1.56,90a1,1,0,0,1,.13.31c.06,1.1.11,2.19.17,3.29C1.89,94.21,1.63,94.24,1.18,94Z" transform="translate(-0.12 -0.33)"/><path class="cls-3" d="M14.92,53.14c-.19.3-.3.48-.42.65s-.13.07-.2.1c-.06-.3-.24-.62-.17-.88a.4.4,0,0,1,.73-.17c.29.32.35.15.47-.11,0-.11.2-.17.3-.25a3.87,3.87,0,0,1,.08.49c0,.16,0,.33,0,.49a2.71,2.71,0,0,0,.09.43,4.08,4.08,0,0,1-.47-.28A3.53,3.53,0,0,1,14.92,53.14Z" transform="translate(-0.12 -0.33)"/><path class="cls-3" d="M4.54,142.78l5.44,2.6a2.21,2.21,0,0,1,.4.33,1.75,1.75,0,0,1-.53-.05c-1.25-.54-2.5-1.1-3.74-1.65l-.65-.27h0l-1-.84Z" transform="translate(-0.12 -0.33)"/><path class="cls-5" d="M1.14,96.89l0-1.71c.22.13.6.22.64.39A12.86,12.86,0,0,1,2,97.49c0,.12-.15.24-.22.36l-.21-.32Z" transform="translate(-0.12 -0.33)"/><path class="cls-6" d="M15.74,97.69c0,.05-.08.13-.13.14a.22.22,0,0,1-.18-.08c-.32-.47-.67-.43-1.06-.1a.5.5,0,0,1-.18.05c0-.09-.06-.19,0-.26.19-.46.39-.92.61-1.37,0-.06.24-.1.24-.1C15.25,96.53,15.49,97.1,15.74,97.69Z" transform="translate(-0.12 -0.33)"/><path class="cls-6" d="M9.21,96.31a1.69,1.69,0,0,1,0-.36c0-.21.11-.59.19-.59a1,1,0,0,1,.71.2c.14.15.13.46.14.7a5.1,5.1,0,0,1-.07.71l0,.3A1.78,1.78,0,0,1,9.93,97c-.05-.08-.05-.18-.1-.27a2.2,2.2,0,0,0-.2-.26c0,.09-.1.18-.14.27l-.17.39a4.11,4.11,0,0,1-.1-.45A3.26,3.26,0,0,1,9.21,96.31Z" transform="translate(-0.12 -0.33)"/><path class="cls-3" d="M11.73,47l-.09.16a.44.44,0,0,1-.11-.07c-.39-.44-.74-.46-1.06.07,0,.05-.11.08-.16.12s-.06-.18,0-.26c.17-.55.35-1.1.54-1.64,0,0,.23-.08.23-.06C11.27,45.91,11.5,46.47,11.73,47Z" transform="translate(-0.12 -0.33)"/><path class="cls-6" d="M12.34,96.57l.09-.83.58.58.38.4c0-.19.06-.39.11-.58a2.6,2.6,0,0,1,.14-.35l.16.34a.17.17,0,0,1,0,.07l-.06,1.41c-.27-.31-.54-.62-.81-.93a.89.89,0,0,0-.22-.13c0,.06,0,.12-.06.19l-.2.81-.09-.89a.69.69,0,0,1,0-.07Z" transform="translate(-0.12 -0.33)"/><path class="cls-3" d="M48.52,132.57c.06.12.13.25.19.38s.07.18.11.27c0-.08.09-.15.13-.24s0-.1,0-.14l.25-.62c.07.08.21.16.21.24a1.82,1.82,0,0,1-.1.84,1.33,1.33,0,0,1-.63.44,4,4,0,0,1-.72.18c.08-.42.16-.84.25-1.26C48.25,132.62,48.37,132.62,48.52,132.57Z" transform="translate(-0.12 -0.33)"/><path class="cls-6" d="M11.93,96.37c0,.17.06.37,0,.5s-.32.51-.53.57a.72.72,0,0,1-.59-.37,5.55,5.55,0,0,1-.26-1.3c0-.08.13-.19.21-.28.06.09.17.17.18.26,0,.31,0,.63,0,.93s.2.29.31.43a4.24,4.24,0,0,0,.36-.45c0-.07,0-.19,0-.28.05-.25.12-.49.19-.74l.17.73Z" transform="translate(-0.12 -0.33)"/><path class="cls-3" d="M7.32,85.06a2.69,2.69,0,0,1,.19.81c0,.12-.35.34-.48.3s-.5-.27-.53-.45a9.1,9.1,0,0,1,0-1.57c0-.14.11-.4.16-.4a2.93,2.93,0,0,1,.67.16s.06.11.05.12a.35.35,0,0,1-.15.08c-.17,0-.48.06-.48.12,0,.29-.11.66.41.61.05,0,.12.16.18.24s-.1,0-.13,0c-.4-.11-.55.08-.47.44,0,.14.2.25.3.38.1-.19.22-.38.31-.59A.7.7,0,0,0,7.32,85.06Z" transform="translate(-0.12 -0.33)"/><path class="cls-3" d="M10.34,22.62a1.29,1.29,0,0,1-.31,1c-.07.06-.48-.07-.5-.16a1.47,1.47,0,0,1,.06-.79,6.32,6.32,0,0,1,.51-.93.8.8,0,0,1,.12-.13c0,.06.09.11.09.17,0,.26,0,.52,0,.79Z" transform="translate(-0.12 -0.33)"/><path class="cls-3" d="M4.16,72.69l.4-1.53c.18.5.36,1,.53,1.49a3,3,0,0,1,.09.42,1.83,1.83,0,0,1,0,.2c-.06,0-.11-.12-.17-.14A2.54,2.54,0,0,0,4.39,73c-.07,0-.15.2-.23.3Z" transform="translate(-0.12 -0.33)"/><path class="cls-3" d="M11.34,49.67a1.38,1.38,0,0,1,0,.43,1.52,1.52,0,0,1-.33.61c-.05.05-.46-.11-.49-.23a1,1,0,0,1,.08-.77c.25-.25.57-.4.49-.84,0,0,.07-.1.11-.14s.11.1.11.15c0,.26,0,.53,0,.79Z" transform="translate(-0.12 -0.33)"/><path class="cls-3" d="M1.66,13.78l-.24.09a9.16,9.16,0,0,0,.69-2,9.35,9.35,0,0,0-.27-2.08,2.32,2.32,0,0,1,0-.49,5.48,5.48,0,0,0,.12,1,5.62,5.62,0,0,0,.44.88l-.21,1.31L2,13l-.09.15Z" transform="translate(-0.12 -0.33)"/><path class="cls-3" d="M48.88,108.22a11.35,11.35,0,0,1,.48-1.07.51.51,0,0,1,.41-.23c.11,0,.24.24.25.37s-.22.18-.29.29a6.35,6.35,0,0,0-.31.63,3.75,3.75,0,0,1,.42.11c.07,0,.19.13.18.15a2,2,0,0,1-.32.6.44.44,0,0,1-.43,0A5.6,5.6,0,0,1,48.88,108.22Z" transform="translate(-0.12 -0.33)"/><path class="cls-3" d="M8.35,76.81a2.15,2.15,0,0,0,.27.61.69.69,0,0,0,.55.23c.13,0,.23-.28.33-.44a1.81,1.81,0,0,0,.12-.28c0,.1.15.22.12.29s-.16.53-.33.61a.87.87,0,0,1-.74,0,1.41,1.41,0,0,1-.35-1.92,1.83,1.83,0,0,1,.88-.44c.09,0,.25.17.38.27a3.35,3.35,0,0,1-.39,0C8.65,75.58,8.33,75.94,8.35,76.81Z" transform="translate(-0.12 -0.33)"/><path class="cls-3" d="M15.88,49.48a2.16,2.16,0,0,0,0,.36c0,.33,0,.68-.39.67-.2,0-.55-.22-.57-.37a1.63,1.63,0,0,1,.24-.81,5.53,5.53,0,0,1,.45-.68l.15-.2a.77.77,0,0,1,.1.24c0,.26,0,.52,0,.79Zm-.48-.15c-.15.26-.3.39-.28.51s.16.27.26.41c.08-.13.2-.25.21-.38S15.5,49.6,15.4,49.33Z" transform="translate(-0.12 -0.33)"/><path class="cls-3" d="M7.33,75.55a4.25,4.25,0,0,1,.21.82,9.09,9.09,0,0,1,0,1.13c0,.08,0,.17,0,.25a1,1,0,0,1-.17-.19,2.71,2.71,0,0,0-.13-.33,3.63,3.63,0,0,0-.36-.37c-.06.14-.12.28-.17.42s-.07.21-.1.31a1.45,1.45,0,0,1-.08-.31c0-.43,0-.86,0-1.29a3.67,3.67,0,0,1,.15-.66l.76.23s-.09.05-.13,0c-.41-.1-.68,0-.58.47,0,.18.2.48.31.48.51,0,.41-.39.39-.72C7.32,75.73,7.33,75.64,7.33,75.55Z" transform="translate(-0.12 -0.33)"/><path class="cls-3" d="M44.46,134.72c-.06.34,0,.61-.14.69a3.08,3.08,0,0,1-.77.31c-.06-.21-.13-.41-.17-.62-.14-.6.25-.81.73-.83C44.23,134.26,44.38,134.61,44.46,134.72Z" transform="translate(-0.12 -0.33)"/><path class="cls-3" d="M5.29,103.39l.21-.45a3.36,3.36,0,0,0,.38.31c.05,0,.16,0,.24,0H6.6a5,5,0,0,1-.06.53s-.17.07-.17.09a3.11,3.11,0,0,0,.09.4c-.23-.23-.72-.18-.69-.68a.91.91,0,0,0-.11-.32,1.17,1.17,0,0,0-.14.22,2.3,2.3,0,0,0-.08.32Z" transform="translate(-0.12 -0.33)"/><path class="cls-3" d="M11.53,39.94l-.73.67c-.16-.2-.46-.41-.44-.59s.3-.46.47-.68Z" transform="translate(-0.12 -0.33)"/><path class="cls-3" d="M50.58,84.06l1.46.49-1.75.38a2.47,2.47,0,0,1-.14-.61,3.63,3.63,0,0,1,.14-.7Z" transform="translate(-0.12 -0.33)"/><path class="cls-3" d="M4.82,147.48l-.39.93a4.34,4.34,0,0,1-.51-1,3.33,3.33,0,0,1,.09-1c0,.32.07.64.13,1a4,4,0,0,0,.18.54c0-.17.09-.34.13-.51s0-.19,0-.29a3.37,3.37,0,0,1,.12-.36,2.15,2.15,0,0,1,.13.35,1.87,1.87,0,0,1,0,.36Z" transform="translate(-0.12 -0.33)"/><path class="cls-3" d="M46.7,118.08c0-.65,0-.65.43-.56a.27.27,0,0,0,.18,0c.13-.08.25-.17.37-.25a2.75,2.75,0,0,1-.12,1c-.09.17-.5.18-.77.26Z" transform="translate(-0.12 -0.33)"/><path class="cls-3" d="M11.44,43.35l-.73.68c-.15-.21-.43-.43-.42-.63s.29-.43.45-.64Z" transform="translate(-0.12 -0.33)"/><path class="cls-3" d="M7.82,81.18a1.8,1.8,0,0,1-.41.24c-.16,0-.35,0-.49,0s-.24.23-.36.36c0-.22.08-.45.13-.67a1.91,1.91,0,0,1,.1-.34c.16-.38.33-.75.49-1.13Zm-.56-1.05a3.88,3.88,0,0,0-.26.72c0,.1.11.23.2.32s.25-.1.24-.15C7.43,80.78,7.36,80.54,7.27,80.13Z" transform="translate(-0.12 -0.33)"/><path class="cls-3" d="M13.62,36.06l-.56,1c-.17-.26-.44-.5-.48-.78s.3-.43.51-.54S13.42,35.91,13.62,36.06Z" transform="translate(-0.12 -0.33)"/><path class="cls-6" d="M5.07,96a2.39,2.39,0,0,1,0-.37,1.19,1.19,0,0,1,.1-.24,1,1,0,0,1,.11.22c.05.22.09.44.14.66.08,0,.23-.06.24-.1a3.84,3.84,0,0,0,0-.89c0-.09-.24-.16-.36-.24l-.23-.15a2.59,2.59,0,0,1,.24-.17c.24.26.63.53.65.81s-.19.94-.45,1C5,96.77,5.08,96.21,5.07,96Z" transform="translate(-0.12 -0.33)"/><path class="cls-3" d="M10.47,52.84c.11.23.33.49.29.69s-.33.44-.5.65c-.14-.2-.39-.4-.39-.59a2.13,2.13,0,0,1,.33-.75Z" transform="translate(-0.12 -0.33)"/><path class="cls-3" d="M51.87,110.17c-.06.83-.09,1.48-.15,2.12,0,.11-.13.22-.2.32a2,2,0,0,1-.1-.32,4.65,4.65,0,0,0-.21-1.41c-.36-.71.5-.61.55-1Z" transform="translate(-0.12 -0.33)"/><path class="cls-3" d="M11.48,56.26c0-.17,0-.33,0-.5a2.4,2.4,0,0,1,.06-.32,2.89,2.89,0,0,0,.17.31c.11.15.24.29.35.44a1.58,1.58,0,0,1,.34.49,1.72,1.72,0,0,1-.06.59,3.86,3.86,0,0,0-.15-.49,1.75,1.75,0,0,0-.23-.31,4.26,4.26,0,0,0-.22.39,4.06,4.06,0,0,0-.14.42,3.28,3.28,0,0,1-.1-.44c0-.19,0-.38,0-.57Z" transform="translate(-0.12 -0.33)"/><path class="cls-3" d="M8.8,30.32c0-.6,0-1,0-1.45a1.43,1.43,0,0,1,0-.24c.06.05.16.1.18.17.13.43.24.86.35,1.28,0,.13.06.27.09.41a1.37,1.37,0,0,1-.54.08C8.83,30.54,8.79,30.31,8.8,30.32Z" transform="translate(-0.12 -0.33)"/><path class="cls-3" d="M13.39,50.16a3.36,3.36,0,0,1-.67.47c-.05,0-.35-.31-.32-.41a4.2,4.2,0,0,1,.45-.82Z" transform="translate(-0.12 -0.33)"/><path class="cls-3" d="M5.4,75.21l.37.14a2.84,2.84,0,0,0-.26.17c-.12.1-.34.22-.33.32a.66.66,0,0,0,.26.47c.38.23.2.21-.07.29-.11,0-.2.29-.2.44a.62.62,0,0,0,.21.39,1.47,1.47,0,0,0,.39.2c-.06,0-.13.08-.19.07s-.5-.09-.5-.16C5,76.83,5,76.11,5,75.4,5,75.33,5.28,75.26,5.4,75.21Z" transform="translate(-0.12 -0.33)"/><path class="cls-3" d="M44.67,134.91l.54-1.1a3.45,3.45,0,0,1,.44,1c0,.13-.47.31-.74.44A3.73,3.73,0,0,1,44.67,134.91Z" transform="translate(-0.12 -0.33)"/><path class="cls-3" d="M15.15,56.81c-.13.15-.26.42-.44.45a.74.74,0,0,1-.65-.22c-.1-.22,0-.53,0-.8.07,0,.17,0,.19.07s0,.19,0,.28.14.32.22.47a4,4,0,0,0,.26-.44,3.14,3.14,0,0,0,.13-.45Z" transform="translate(-0.12 -0.33)"/><path class="cls-3" d="M25.49,6.06l-.43-.87.74-.5c.12.28.36.57.31.82S25.7,5.88,25.49,6.06Z" transform="translate(-0.12 -0.33)"/><path class="cls-3" d="M14.1,25.07c.07-.15.21-.45.37-.75,0,0,.22.07.22.09-.06.54-.13,1.07-.21,1.6a1.43,1.43,0,0,1-.12.3.92.92,0,0,1-.16-.27C14.16,25.79,14.15,25.53,14.1,25.07Z" transform="translate(-0.12 -0.33)"/><path class="cls-6" d="M8.19,96c0,.12,0,.08,0,0,0-.26.08-.52.12-.78a7.11,7.11,0,0,0,.14.71c0,.08.14.14.22.21s.15.09.16.15,0,.3,0,.45a2.3,2.3,0,0,0,.06.33,2.34,2.34,0,0,0-.24-.19C8.21,96.65,8.21,96.65,8.19,96Z" transform="translate(-0.12 -0.33)"/><path class="cls-3" d="M51.41,107.07a1.49,1.49,0,0,1,0-.5,3.88,3.88,0,0,1,.36-.61c0,.19,0,.39,0,.58a7.73,7.73,0,0,1,0,1,2,2,0,0,1-.21.54,2.56,2.56,0,0,1-.24-.49,2.06,2.06,0,0,1,0-.5Z" transform="translate(-0.12 -0.33)"/><path class="cls-3" d="M12,53.58c-.1.14-.19.38-.35.44s-.5,0-.54-.12a2.85,2.85,0,0,1-.09-.82c.06,0,.18,0,.18,0a2.27,2.27,0,0,0,0,.35,1.94,1.94,0,0,0,.24.35,3,3,0,0,0,.16-.35c.05-.17.08-.34.12-.51Z" transform="translate(-0.12 -0.33)"/><path class="cls-3" d="M12.82,32.38a2.71,2.71,0,0,1,0-.43,4.44,4.44,0,0,1,.14-.49,3,3,0,0,0,.13.44,1,1,0,0,0,.22.3c.12.12.26.21.39.31-.12,0-.3-.08-.34,0a2.47,2.47,0,0,0-.27.52c-.05.11-.09.23-.13.34a2,2,0,0,1-.11-.38,5.57,5.57,0,0,1,0-.57Z" transform="translate(-0.12 -0.33)"/><path class="cls-3" d="M8.19,23.37l.71-.65c.09.15.29.33.25.43a4.68,4.68,0,0,1-.47.79Z" transform="translate(-0.12 -0.33)"/><path class="cls-3" d="M12.3,22.45,13,22a5.45,5.45,0,0,1,.47.68c0,.08-.07.25-.11.37-.06-.11-.1-.23-.17-.34s-.18-.28-.26-.42a2.86,2.86,0,0,0-.23.4,3.06,3.06,0,0,0-.11.46Z" transform="translate(-0.12 -0.33)"/><path class="cls-3" d="M49.66,132.4l.19-.53c.06.14.11.28.18.41s.09.08.13.13a1,1,0,0,0,.11-.16.63.63,0,0,0,0-.14l.13-.66s.14.07.14.1c0,.34,0,.69,0,1,0,.05-.16.09-.24.13l-.47.26Z" transform="translate(-0.12 -0.33)"/><path class="cls-3" d="M46.57,109.21a1.49,1.49,0,0,1-.35,0,1.12,1.12,0,0,1-.3-.12,1.23,1.23,0,0,1,.25-.22,5.52,5.52,0,0,1,.86-.36,1.27,1.27,0,0,1,.48.06c-.08.18-.11.43-.24.51a2,2,0,0,1-.69.11Z" transform="translate(-0.12 -0.33)"/><path class="cls-3" d="M11.51,39.7a1.76,1.76,0,0,1,.42-.44c.12-.06.45,0,.48.08a3.48,3.48,0,0,1,.09.83s-.06,0-.09.06a2.51,2.51,0,0,0-.11-.31c-.07-.14-.16-.28-.25-.41a3,3,0,0,0-.25.39,3.53,3.53,0,0,0-.14.47Z" transform="translate(-0.12 -0.33)"/><path class="cls-3" d="M5.2,80.5l.11-.78c0,.31.06.62.1.93s-.22,1,.56,1.07c0,0,0,.07.07.11a.54.54,0,0,1-.18.08c-.35,0-.7,0-.66-.51C5.21,81.15,5.2,80.91,5.2,80.5Z" transform="translate(-0.12 -0.33)"/><path class="cls-3" d="M50.43,107.68a.56.56,0,0,1,0-.14c.07-.27.14-.54.21-.82,0,.26.09.53.15.78a4.14,4.14,0,0,0,.14.44c.05.15.2.36.14.44s-.3.19-.47.28a3.17,3.17,0,0,1-.17-.49A2.92,2.92,0,0,1,50.43,107.68Z" transform="translate(-0.12 -0.33)"/><path class="cls-3" d="M15,35.53a7.39,7.39,0,0,1,.21-.87c0-.07.24-.08.36-.12a.83.83,0,0,0-.14.27c0,.45-.06.9-.11,1.36a1.76,1.76,0,0,1-.12.36,3.18,3.18,0,0,1-.11-.36C15.09,36,15.07,35.8,15,35.53Z" transform="translate(-0.12 -0.33)"/><path class="cls-3" d="M7.73,103.9l-.28.46c-.15-.19-.69,0-.53-.49a4,4,0,0,1,.3-.59Z" transform="translate(-0.12 -0.33)"/><path class="cls-3" d="M42.94,118.72a5.79,5.79,0,0,1,.54-.64c.07-.06.25,0,.38,0a1.77,1.77,0,0,0-.24.28,1.44,1.44,0,0,0-.06.28,5.89,5.89,0,0,1-.22.64c0,.05-.14.07-.21.1l-.09-.55Z" transform="translate(-0.12 -0.33)"/><path class="cls-3" d="M14.79,28.68a3.36,3.36,0,0,1,.06-.5,1.14,1.14,0,0,1,.17-.27,1,1,0,0,1,.09.24c0,.47.09.93.12,1.4,0,.06-.11.13-.17.2s-.17-.1-.17-.16C14.84,29.25,14.82,28.93,14.79,28.68Z" transform="translate(-0.12 -0.33)"/><path class="cls-3" d="M12.46,19.36l-.67.62a1.88,1.88,0,0,1-.41-.47c-.06-.15,0-.36,0-.55a3.69,3.69,0,0,0,.19.46,1.54,1.54,0,0,0,.25.27,3.12,3.12,0,0,0,.32-.48c0-.09,0-.23,0-.34Z" transform="translate(-0.12 -0.33)"/><path class="cls-3" d="M8.8,43.46a2.64,2.64,0,0,0-.34.25A.47.47,0,0,0,8.3,44c0,.09.09.18.14.27-.13-.07-.37-.15-.37-.22a3.85,3.85,0,0,1,.15-.9s.23-.08.31,0S8.69,43.31,8.8,43.46Z" transform="translate(-0.12 -0.33)"/><path class="cls-7" d="M50.59,81.54l-.16.07a.18.18,0,0,0-.13,0,.17.17,0,0,1,0-.07c0-.65.09-1.31.15-2a.92.92,0,0,1,.1-.25c.05.09.15.18.15.27C50.67,80.23,50.63,80.89,50.59,81.54Z" transform="translate(-0.12 -0.33)"/><path class="cls-3" d="M8.37,50.61a1,1,0,0,1-.23.32c-.07.05-.34,0-.35-.07a1.17,1.17,0,0,1,0-.51c0-.08.16-.12.19-.2a1.42,1.42,0,0,0,0-.36,3.64,3.64,0,0,1,.29.41A1.47,1.47,0,0,1,8.37,50.61Z" transform="translate(-0.12 -0.33)"/><path class="cls-3" d="M15.07,18.42l-.24.94a7.31,7.31,0,0,1-.11-.89c0-.34.06-.69.09-1Z" transform="translate(-0.12 -0.33)"/><path class="cls-3" d="M4.87,47c.13-.35.25-.7.4-1,0,0,.22,0,.33,0-.07.07-.17.13-.19.21a7.09,7.09,0,0,0-.09.75c0,.1,0,.2,0,.29s-.18.41-.28.61L5,47Z" transform="translate(-0.12 -0.33)"/><path class="cls-3" d="M11.37,23.23c-.37-.31-.26-.63,0-.9a.58.58,0,0,1,.44-.13.38.38,0,0,1,.24.3c0,.13-.17.25-.27.35s-.28.26-.42.38Z" transform="translate(-0.12 -0.33)"/><path class="cls-3" d="M12.81,56.53c.19-.13.39-.37.57-.35s.37.33.37.51a1.06,1.06,0,0,1-.34.63c-.06.06-.32-.08-.49-.12.11,0,.26,0,.32-.09a2.75,2.75,0,0,0,.28-.48l-.7-.1Z" transform="translate(-0.12 -0.33)"/><path class="cls-3" d="M13.74,21.85l.14-.31c.06,0,.15,0,.18.1a1.12,1.12,0,0,1,.15.39c0,.25,0,.51,0,.76v.36c-.12-.08-.33-.14-.36-.25A8.54,8.54,0,0,1,13.74,21.85Z" transform="translate(-0.12 -0.33)"/><path class="cls-6" d="M7.14,96.38c.1-.17.16-.39.31-.47s.39.1.43.22a2.76,2.76,0,0,1,.06.75,2.57,2.57,0,0,1-.17-.24s0-.1,0-.14-.09-.19-.13-.28a1.9,1.9,0,0,0-.16.27c-.05.13-.08.28-.13.42Z" transform="translate(-0.12 -0.33)"/><path class="cls-3" d="M11.73,32.56l.19-.94a4.27,4.27,0,0,1,.19.83A8.16,8.16,0,0,1,12,33.51Z" transform="translate(-0.12 -0.33)"/><path class="cls-3" d="M47.73,133.44c0,.24,0,.33,0,.37-.16.21-.33.4-.5.59a2.9,2.9,0,0,1-.28-.64c0-.15.09-.33.14-.49l.16.42.1.24.08-.26s0,0,0-.07l.16-.49Z" transform="translate(-0.12 -0.33)"/><path class="cls-3" d="M15.46,56.39a.54.54,0,0,1,0-.21,4.12,4.12,0,0,1,.17-.41,2.36,2.36,0,0,1,.23.46,5.93,5.93,0,0,1,.13.83.35.35,0,0,1-.08.21c-.12,0-.31,0-.33-.11a5.3,5.3,0,0,1-.12-.76Z" transform="translate(-0.12 -0.33)"/><path class="cls-3" d="M7.94,72.4l-.13,1c-.05-.33-.12-.67-.15-1a9.48,9.48,0,0,1,0-1c0-.07.07-.15.11-.22s.12.14.12.21c0,.33,0,.67,0,1Z" transform="translate(-0.12 -0.33)"/><path class="cls-3" d="M14,46.16a6,6,0,0,1-.29.72.37.37,0,0,1-.31,0,3.92,3.92,0,0,1-.29-.65c0-.06,0-.13,0-.2s.13.06.16.11c.27.51.39.19.53-.08,0,0,.1-.06.15-.09Z" transform="translate(-0.12 -0.33)"/><path class="cls-3" d="M49.45,35.56l.24-.66c.14.22.4.44.39.65s-.28.43-.44.64Z" transform="translate(-0.12 -0.33)"/><path class="cls-3" d="M9.33,26.33a1.55,1.55,0,0,1,0,.36,4.91,4.91,0,0,1-.18.51,3.68,3.68,0,0,0,0-.46c-.08-.43-.17-.85-.26-1.27a1.14,1.14,0,0,1,0-.2c.08,0,.22,0,.23,0,.12.32.22.66.33,1Z" transform="translate(-0.12 -0.33)"/><path class="cls-3" d="M5.34,148.1A5.72,5.72,0,0,1,5,149c-.23.38-.55.31-.84,0,0,0,0-.16.06-.24.89.33.74-.44.91-.86,0-.12.11-.23.16-.35Z" transform="translate(-0.12 -0.33)"/><path class="cls-3" d="M11.43,25.81l-.15.93a8.06,8.06,0,0,1-.14-1,7.89,7.89,0,0,1,.08-1Z" transform="translate(-0.12 -0.33)"/><path class="cls-3" d="M8.56,80.85c0-.19,0-.38,0-.57s0-.51.11-.52a3.6,3.6,0,0,1,.84,0s0,.06.07.1-.15.13-.21.13c-.67-.06-.65.26-.54.79a3.53,3.53,0,0,1-.16,1.15l-.16-1.09Z" transform="translate(-0.12 -0.33)"/><path class="cls-5" d="M2.23,12.42l.21-1.31L3,10.63l.1.1Z" transform="translate(-0.12 -0.33)"/><path class="cls-3" d="M8.89,49.9c0,.21,0,.41,0,.62s0,.27,0,.4c-.09-.12-.22-.22-.26-.35a2.46,2.46,0,0,1-.07-.7,1.62,1.62,0,0,1,.14-.44l.27.43Z" transform="translate(-0.12 -0.33)"/><path class="cls-3" d="M10.54,19.49a2.4,2.4,0,0,1,0-.53.89.89,0,0,1,.18-.26c.06.09.16.17.18.27.06.32.1.65.14,1a.24.24,0,0,1-.09.16c-.1,0-.26-.05-.29-.12A2.91,2.91,0,0,1,10.54,19.49Z" transform="translate(-0.12 -0.33)"/><path class="cls-3" d="M46.27,134.87c-.09-.16-.18-.25-.16-.29.16-.36-.64-.68,0-1a1.45,1.45,0,0,1,.53-.1.34.34,0,0,1,0,.18c-.07.31-.15.62-.23.93A2.6,2.6,0,0,1,46.27,134.87Z" transform="translate(-0.12 -0.33)"/><path class="cls-3" d="M9.24,32.93l-.13,1A5.62,5.62,0,0,1,9,33,9.16,9.16,0,0,1,9,32Z" transform="translate(-0.12 -0.33)"/><path class="cls-3" d="M12.26,46.23l-.15.92a5.77,5.77,0,0,1-.14-.86,8.92,8.92,0,0,1,.09-1Z" transform="translate(-0.12 -0.33)"/><path class="cls-3" d="M9.16,36.34a2,2,0,0,0-.26.13c-.37.28-.5.53.08.71a.62.62,0,0,1,.14.09c-.07.06-.16.18-.2.16s-.37-.13-.39-.23a1.64,1.64,0,0,1,0-.74c0-.12.23-.2.37-.27S9.05,36.26,9.16,36.34Z" transform="translate(-0.12 -0.33)"/><path class="cls-3" d="M15.75,39.64l-.2.36a1.06,1.06,0,0,1-.11-.31c0-.39-.14-.61-.57-.41a.78.78,0,0,1-.23,0c0-.1.09-.28.15-.29a1.11,1.11,0,0,1,.68,0C15.62,39.14,15.66,39.43,15.75,39.64Z" transform="translate(-0.12 -0.33)"/><path class="cls-3" d="M12.05,42.77l.24-.74a5.89,5.89,0,0,1,.11.88,5.24,5.24,0,0,1-.14.84Z" transform="translate(-0.12 -0.33)"/><path class="cls-3" d="M10.67,56.55a.58.58,0,0,1,0-.21,4.24,4.24,0,0,1,.18-.4,1.83,1.83,0,0,1,.22.46,5.14,5.14,0,0,1,0,.83.63.63,0,0,1-.08.21c-.08,0-.21-.06-.22-.12-.07-.25-.1-.51-.15-.77Z" transform="translate(-0.12 -0.33)"/><path class="cls-3" d="M10.11,29s.11.1.12.15c.06.41.1.81.14,1.22l-.24,0c-.05-.46-.11-.91-.15-1.37C10,29,10.06,29,10.11,29Z" transform="translate(-0.12 -0.33)"/><path class="cls-3" d="M9.5,43.23c0-.18.06-.36.1-.54a.39.39,0,0,1,.15,0c0,.19,0,.37.06.56s0,.28,0,.42,0,.28,0,.42a2.4,2.4,0,0,1-.27-.43,1.47,1.47,0,0,1,0-.42Z" transform="translate(-0.12 -0.33)"/><path class="cls-3" d="M4.87,146.48c-.37-.23-.46-1.11-1.18-.48,0-.07-.11-.18-.09-.2a3.55,3.55,0,0,1,.46-.37c.3.32.57.68.85,1Z" transform="translate(-0.12 -0.33)"/><path class="cls-3" d="M3.12,146.37a1.88,1.88,0,0,1,0,.32c-.07.2-.16.39-.25.58,0,0-.16,0-.16-.05a6.39,6.39,0,0,1,.05-.65c0-.09.08-.17.09-.26s.06-.41.08-.62Z" transform="translate(-0.12 -0.33)"/><path class="cls-3" d="M7.33,44.16l.14-1a5.88,5.88,0,0,1,.26.88c0,.1-.18.22-.28.34Z" transform="translate(-0.12 -0.33)"/><path class="cls-3" d="M7.51,50.33l-.15.46a2.25,2.25,0,0,0-.12-.31A2.76,2.76,0,0,0,7,50.2c0,.12-.1.25-.15.37s-.06.22-.08.33c0-.11,0-.23-.06-.34a.23.23,0,0,1,0-.14c.13-.19.27-.37.4-.55Z" transform="translate(-0.12 -0.33)"/><path class="cls-3" d="M12.3,36l-.17.82A5.84,5.84,0,0,1,12,36c0-.33.05-.67.08-1Z" transform="translate(-0.12 -0.33)"/><path class="cls-3" d="M12.69,28.92l-.1,1a5.93,5.93,0,0,1-.18-.9,6.19,6.19,0,0,1,.08-.92Z" transform="translate(-0.12 -0.33)"/><path class="cls-3" d="M14.52,50.18l-.12.27a1.49,1.49,0,0,0-.12-.37,4.72,4.72,0,0,0-.41-.51,1.3,1.3,0,0,0-.18-.15l.2-.07C14.44,49.25,14.55,49.58,14.52,50.18Z" transform="translate(-0.12 -0.33)"/><path class="cls-3" d="M7.84,103.39l.1-.2c.09.12.24.23.26.37a5.78,5.78,0,0,1,.07.89c0,.05-.06.1-.09.15s-.22-.12-.24-.2C7.89,104.1,7.87,103.8,7.84,103.39Z" transform="translate(-0.12 -0.33)"/><path class="cls-3" d="M2.32,143.74a4.35,4.35,0,0,1,.39.68,3.36,3.36,0,0,1,.09.66c-.06,0-.15,0-.17,0-.16-.31-.32-.63-.46-.95C2.16,144,2.23,144,2.32,143.74Z" transform="translate(-0.12 -0.33)"/><path class="cls-3" d="M9.14,53.43a7.72,7.72,0,0,1,.12,1c0,.16-.15.33-.23.49a3.21,3.21,0,0,0,0-.49c0-.28-.08-.55-.12-.82a1.36,1.36,0,0,1,0-.2Z" transform="translate(-0.12 -0.33)"/><path class="cls-3" d="M51.25,131.08,51,132a2.73,2.73,0,0,1-.22-.71c0-.13.19-.28.29-.42Z" transform="translate(-0.12 -0.33)"/><path class="cls-3" d="M4.13,80.52l.09-1.05c0,.34,0,.69.09,1s.19.71.28,1.07a.31.31,0,0,1,0,.15s-.1,0-.13,0-.29-.14-.3-.22a9.66,9.66,0,0,1,0-1Z" transform="translate(-0.12 -0.33)"/><path class="cls-3" d="M9.1,104.61l-.29.13a8.91,8.91,0,0,1-.31-.91c0-.07.15-.18.24-.28Z" transform="translate(-0.12 -0.33)"/><path class="cls-3" d="M4.43,76.46c0,.17,0,.33,0,.5s0,.3-.07.45c-.09-.18-.27-.35-.26-.52a10.64,10.64,0,0,1,.2-1.29,1.07,1.07,0,0,1,.07-.19.76.76,0,0,1,.06.2c0,.28,0,.57,0,.85Z" transform="translate(-0.12 -0.33)"/><path class="cls-3" d="M11.94,25.67l.38.88a.38.38,0,0,1,0,.14.53.53,0,0,1-.26.06c-.42-.09-.48-.57-.14-1.08Z" transform="translate(-0.12 -0.33)"/><path class="cls-3" d="M4.59,102.8l-.24.66a5.26,5.26,0,0,0-.13-.58,2.91,2.91,0,0,0-.23-.43l.6.35Z" transform="translate(-0.12 -0.33)"/><path class="cls-3" d="M8.83,73.18a1.29,1.29,0,0,1,0-1.76l.1.12v1.52Z" transform="translate(-0.12 -0.33)"/><path class="cls-3" d="M9,73.07l.88.19a1.56,1.56,0,0,0,.29,0c-.07.09-.12.21-.21.26a.73.73,0,0,1-1.08-.34Z" transform="translate(-0.12 -0.33)"/><path class="cls-3" d="M13.62,28.94c.46-.31.86-.19.89.29a1.23,1.23,0,0,1-.16.44c0-.12,0-.3-.1-.36a3,3,0,0,0-.55-.29Z" transform="translate(-0.12 -0.33)"/><path class="cls-5" d="M2.18,99.57l-.24.38a1.73,1.73,0,0,1-.22-.49c0-.13.1-.28.15-.42Z" transform="translate(-0.12 -0.33)"/><path class="cls-3" d="M3.87,84.56l0-.92c0,.31.06.62.08.93a2.59,2.59,0,0,1,0,.29c0,.28,0,.55,0,.83,0-.3-.06-.6-.08-.9,0-.07,0-.14,0-.22Z" transform="translate(-0.12 -0.33)"/><path class="cls-3" d="M9,71.3c.17-.07.34-.2.5-.19a2.43,2.43,0,0,1,.63.21.8.8,0,0,1-.26.13c-.08,0-.17-.09-.26-.09a4.12,4.12,0,0,0-.49,0Z" transform="translate(-0.12 -0.33)"/><path class="cls-3" d="M10.62,22.92l.13-.46a2.21,2.21,0,0,1,.14.48,1.57,1.57,0,0,1-.09.43Z" transform="translate(-0.12 -0.33)"/><path class="cls-3" d="M7.82,56.92c.1.06.23.09.3.18s.09.26,0,.3a1.58,1.58,0,0,1-.41.2.94.94,0,0,0,.11-.31A1,1,0,0,0,7.75,57Z" transform="translate(-0.12 -0.33)"/><path class="cls-3" d="M12.83,46.6l-.18.46a1.85,1.85,0,0,1-.09-.45,2.26,2.26,0,0,1,.12-.48Z" transform="translate(-0.12 -0.33)"/><path class="cls-3" d="M10.28,19.7l-.24.43c-.05-.26-.11-.53-.15-.79,0-.07.05-.14.08-.21Z" transform="translate(-0.12 -0.33)"/><path class="cls-3" d="M14,19l.2-.43a1.79,1.79,0,0,1,.16.47,1.28,1.28,0,0,1-.13.42Z" transform="translate(-0.12 -0.33)"/><path class="cls-3" d="M11.94,25.68a1.39,1.39,0,0,1,.49-.13c.08,0,.16.2.21.33s-.07.1-.1.16a1,1,0,0,0-.21-.24,2,2,0,0,0-.39-.13Z" transform="translate(-0.12 -0.33)"/><path class="cls-3" d="M11.14,76.34l.51-.82s.07,0,.11,0l-.5.89Z" transform="translate(-0.12 -0.33)"/><path class="cls-3" d="M10.76,76.45s0,0-.05,0l-.44-.86.11,0,.5.83Z" transform="translate(-0.12 -0.33)"/><path class="cls-3" d="M13.69,29v.07l-.08.66s-.11-.05-.11-.07c0-.25.08-.49.12-.74Z" transform="translate(-0.12 -0.33)"/><path class="cls-3" d="M51.23,136.89c.06-.1.09-.24.17-.29a1.43,1.43,0,0,1,.41-.11,2.88,2.88,0,0,1-.23.38.82.82,0,0,1-.24.14Z" transform="translate(-0.12 -0.33)"/><path class="cls-3" d="M2.72,130.32l.65.49-.11.13-.25,0H3l-.14-.14h0l-.2-.38Z" transform="translate(-0.12 -0.33)"/><path class="cls-5" d="M.8,15.79,1.16,15Z" transform="translate(-0.12 -0.33)"/><path class="cls-3" d="M7.75,57l-.06-.5c.06.06.14.12.16.19a.72.72,0,0,1,0,.26Z" transform="translate(-0.12 -0.33)"/><path class="cls-3" d="M2.58,127.88c.22-.19-.55-.38,0-.58h0l.37.48-.1.11-.28,0Z" transform="translate(-0.12 -0.33)"/><path class="cls-3" d="M2.91,128.54c-.17-.15-.34-.29-.5-.45a2.09,2.09,0,0,1,.16-.21h0l.46.56Z" transform="translate(-0.12 -0.33)"/><path class="cls-3" d="M9.72,20.14l-.08.15A1.22,1.22,0,0,1,9.46,20s.05-.12.08-.18Z" transform="translate(-0.12 -0.33)"/><path class="cls-3" d="M4.59,102.8l.11.74a1,1,0,0,1-.05-.18c0-.19,0-.38,0-.57Z" transform="translate(-0.12 -0.33)"/><path class="cls-3" d="M53.13,78.91v0Z" transform="translate(-0.12 -0.33)"/><path class="cls-3" d="M11.94,23.23h0Z" transform="translate(-0.12 -0.33)"/><path class="cls-3" d="M11.26,76.45c-.17.38-.34.38-.5,0l.11-.11h.27Z" transform="translate(-0.12 -0.33)"/><path class="cls-3" d="M3.58,146.43l-.05.18s-.06-.1-.06-.15a.6.6,0,0,1,.06-.17Z" transform="translate(-0.12 -0.33)"/><path class="cls-3" d="M51.34,137l-.26.2.14-.32Z" transform="translate(-0.12 -0.33)"/><path class="cls-3" d="M26.78,4.05l-.14.24-.06-.1.21-.13Z" transform="translate(-0.12 -0.33)"/><path class="cls-3" d="M53.89,44.43v.27l-.23-.1Z" transform="translate(-0.12 -0.33)"/><path class="cls-3" d="M1.71,123.84l-.19-.26.19,0h0v.3Z" transform="translate(-0.12 -0.33)"/><path class="cls-6" d="M51.86,61.34l-.15.37Z" transform="translate(-0.12 -0.33)"/><path class="cls-3" d="M2.6,118.45l-.13-.23.27.11Z" transform="translate(-0.12 -0.33)"/><path class="cls-3" d="M1.95,132.29s-.06.07-.08.06-.05-.05-.07-.08,0,0,0,0Z" transform="translate(-0.12 -0.33)"/><polygon class="cls-3" points="1.4 113.36 1.35 113.39 1.36 113.33 1.4 113.36"/><path class="cls-3" d="M1.86,124l-.14-.14h0l.15.14Z" transform="translate(-0.12 -0.33)"/><path class="cls-3" d="M4.9,146.45l.08.08-.11-.05Z" transform="translate(-0.12 -0.33)"/><path class="cls-3" d="M26.79,4.06l0,0h0l-.08,0Z" transform="translate(-0.12 -0.33)"/><polygon class="cls-3" points="12.68 56.2 12.67 56.22 12.69 56.2 12.68 56.2"/><path class="cls-3" d="M2.72,138.4l-.14-.15h0l.15.14Z" transform="translate(-0.12 -0.33)"/><path class="cls-3" d="M2.82,138.58l-.1-.18h0l.15.13Z" transform="translate(-0.12 -0.33)"/><path class="cls-3" d="M3,138.73l-.14-.15.05,0,.16.13Z" transform="translate(-0.12 -0.33)"/><path class="cls-3" d="M3.1,138.88,3,138.73l.07-.07.15.13Z" transform="translate(-0.12 -0.33)"/><path class="cls-3" d="M3.66,139.2l0,.16-.16-.06Z" transform="translate(-0.12 -0.33)"/><path class="cls-3" d="M8.85,71.42,9,71.3l.12.1-.14.15Z" transform="translate(-0.12 -0.33)"/><path class="cls-3" d="M3.07,132.7l.15.12-.1.13L3,132.81Z" transform="translate(-0.12 -0.33)"/><path class="cls-3" d="M3,132.81l-.06-.14.16,0Z" transform="translate(-0.12 -0.33)"/><polygon class="cls-3" points="2.34 140.75 2.38 140.73 2.38 140.78 2.34 140.75"/><polygon class="cls-3" points="11.82 22.91 11.84 22.88 11.82 22.9 11.82 22.91"/><path class="cls-3" d="M2.52,141.77l0-.15.09.09Z" transform="translate(-0.12 -0.33)"/><path class="cls-1" d="M53.13,80.92v0Z" transform="translate(-0.12 -0.33)"/><path class="cls-1" d="M52.45,7.52l-.26-.47Z" transform="translate(-0.12 -0.33)"/><path class="cls-1" d="M31.45,2.71l8.34,1a1.44,1.44,0,0,1,.27.08l.36.13c-.16.08-.32.24-.47.22-.54-.05-1.08-.17-1.62-.26-1.17-.18-2.34-.42-3.52-.53-1.43-.12-2.86-.12-4.29-.19A1.67,1.67,0,0,1,30.1,3a1.34,1.34,0,0,1,.41-.2c.31,0,.62,0,.93,0Z" transform="translate(-0.12 -0.33)"/><path class="cls-1" d="M50.84,96l-.28.07c-.85.25-.83.25-.69-.66.17-1.08.3-2.17.44-3.26a.72.72,0,0,1,.93.64c.17.76.29,1.53.45,2.3S51.2,95.79,50.84,96Z" transform="translate(-0.12 -0.33)"/><path class="cls-1" d="M1.09,93.18l.21.1-.19.14Z" transform="translate(-0.12 -0.33)"/><path class="cls-1" d="M49.4,125.08a2,2,0,0,1-1,1.87s-.27-.13-.26-.18c.1-.71.2-1.41.36-2.11,0-.09.42-.22.49-.16A2.74,2.74,0,0,1,49.4,125.08Z" transform="translate(-0.12 -0.33)"/><path class="cls-1" d="M48.34,122.64l.92-.76c0,.37-.06.73-.12,1.1a.84.84,0,0,1-.18.31l-.29.39a1.48,1.48,0,0,0,0-.44,3.17,3.17,0,0,0-.25-.52Z" transform="translate(-0.12 -0.33)"/><path class="cls-1" d="M51,123.85l-.39.84-.1,0c.09-.31.18-.62.29-.92,0,0,.1-.05.15-.08Z" transform="translate(-0.12 -0.33)"/><path class="cls-1" d="M1.85,124l-.15-.14v-.3l.44.59Z" transform="translate(-0.12 -0.33)"/><path class="cls-1" d="M2.72,124.57l-.3-.15Z" transform="translate(-0.12 -0.33)"/><path class="cls-1" d="M2.43,124.42l-.15-.15Z" transform="translate(-0.12 -0.33)"/><path class="cls-1" d="M2.29,124.28l-.15-.15Z" transform="translate(-0.12 -0.33)"/><path class="cls-1" d="M2.66,130.39l.2.38a4.84,4.84,0,0,1-.53-.19s-.05-.14-.07-.21Z" transform="translate(-0.12 -0.33)"/><path class="cls-1" d="M2.86,130.76l.14.14Z" transform="translate(-0.12 -0.33)"/><path class="cls-1" d="M2.14,120.38l.15.15Z" transform="translate(-0.12 -0.33)"/><path class="cls-1" d="M2,120.23l.15.15Z" transform="translate(-0.12 -0.33)"/><path class="cls-1" d="M1.85,120.09l.15.15Z" transform="translate(-0.12 -0.33)"/><path class="cls-1" d="M51.15,140.56l.23-.34.06.08-.3.25Z" transform="translate(-0.12 -0.33)"/><path class="cls-1" d="M51.14,140.55l-.05.15s0,0,0,0l.08-.09Z" transform="translate(-0.12 -0.33)"/><path class="cls-1" d="M3.17,138.8,3,138.67l-.16-.13-.15-.13-.15-.14c.52-.27.64.2.86.48Z" transform="translate(-0.12 -0.33)"/><path class="cls-8" d="M50.3,81.59a.18.18,0,0,1,.13,0,3,3,0,0,1,.15,2.44l-.3-.43Z" transform="translate(-0.12 -0.33)"/><path class="cls-1" d="M2.71,139.84l.3.3Z" transform="translate(-0.12 -0.33)"/><path class="cls-1" d="M2.28,139.4l.15.15Z" transform="translate(-0.12 -0.33)"/><path class="cls-1" d="M2.42,139.55l.15.15Z" transform="translate(-0.12 -0.33)"/><path class="cls-1" d="M2.57,139.69l.15.15Z" transform="translate(-0.12 -0.33)"/><path class="cls-1" d="M4.42,142.9l1,.84-1.28-.67Z" transform="translate(-0.12 -0.33)"/><path class="cls-1" d="M3.62,142.4l.25,0h0l.07.3-.43-.23Z" transform="translate(-0.12 -0.33)"/><path class="cls-1" d="M3.51,142.51l-.15-.15.11-.1.15.14Z" transform="translate(-0.12 -0.33)"/><path class="cls-1" d="M3.36,142.36l0-.15.16.05Z" transform="translate(-0.12 -0.33)"/><path class="cls-1" d="M48.43,111.88c.12.27.25.42.21.49a2.3,2.3,0,0,1-.37.43c0-.12-.13-.24-.12-.35A2.65,2.65,0,0,1,48.43,111.88Z" transform="translate(-0.12 -0.33)"/><path class="cls-1" d="M3,128.43l-.46-.56.28,0,.59.71Z" transform="translate(-0.12 -0.33)"/><path class="cls-1" d="M4,128.89l-.58-.29Z" transform="translate(-0.12 -0.33)"/><path class="cls-1" d="M4.16,129,4,128.89Z" transform="translate(-0.12 -0.33)"/><path class="cls-1" d="M4.3,95.37l-.44-.24.36-.47.4.52Z" transform="translate(-0.12 -0.33)"/><path class="cls-1" d="M46.49,118.3a2,2,0,0,1-.55.17c-.08,0-.24-.18-.23-.25a1.22,1.22,0,0,1,.24-.38Z" transform="translate(-0.12 -0.33)"/><path class="cls-1" d="M7.32,85.06a.7.7,0,0,1,0,.28c-.09.2-.2.39-.31.59-.1-.12-.27-.24-.3-.38-.08-.36.07-.55.47-.44,0,0,.09,0,.13,0Z" transform="translate(-0.12 -0.33)"/><path class="cls-5" d="M2,13l-.09.15Z" transform="translate(-0.12 -0.33)"/><path class="cls-1" d="M15.4,49.33c.1.27.2.41.19.54s-.14.25-.21.38c-.09-.14-.24-.26-.26-.41S15.25,49.59,15.4,49.33Z" transform="translate(-0.12 -0.33)"/><path class="cls-1" d="M7.33,75.55c0,.09,0,.18,0,.27,0,.33.12.72-.39.72-.11,0-.27-.3-.31-.48-.1-.48.17-.57.58-.47,0,0,.09,0,.13,0Z" transform="translate(-0.12 -0.33)"/><path class="cls-1" d="M7.27,80.13c.09.41.16.65.19.89,0,0-.22.17-.24.15S7,81,7,80.85A3.88,3.88,0,0,1,7.27,80.13Z" transform="translate(-0.12 -0.33)"/></g></g></g></g></svg>