<svg xmlns="http://www.w3.org/2000/svg" viewBox="0 0 53.91 159.94"><defs><style>.cls-1{fill:#3a0b0c;}.cls-2{fill:#a88c72;}.cls-3{fill:#7d6751;}.cls-4{fill:#e3c7ab;}</style></defs><title>Asset 1</title><g id="Layer_2" data-name="Layer 2"><g id="runa"><g id="runa-2"><g id="runa-2-svg_Image" data-name="runa-2-svg Image"><path class="cls-1" d="M31.74,159.87l-2,.32h-7.6c-1-.16-1.91-.34-2.86-.49a28,28,0,0,1-9.84-3.32,5.1,5.1,0,0,1-.57-.44c.41.12.82.21,1.22.35a17.94,17.94,0,0,0,2.46.89c1.19.23,2.41.26,3.62.4,2.17.26,4.34.5,6.5.82,1,.14,2.06-.18,2.85.7.06.06.21,0,.31.07a12.84,12.84,0,0,0,1.6.39c.73.08,1.62.34,2.17,0C30.47,159.09,31.09,159,31.74,159.87Z" transform="translate(-0.18 -0.25)"/><path class="cls-2" d="M.75,53.76l0-2.68c.11-.17.32-.33.32-.5,0-1-.05-2.07-.09-3.11,0,.38,0,.76.05,1.14a.6.6,0,0,0,.14.25.34.34,0,0,0,.13-.07A1.14,1.14,0,0,0,1,47.32a1.45,1.45,0,0,1-.08-.42c.12-1,.26-2,.37-3a2.4,2.4,0,0,0-.08-.58,3.71,3.71,0,0,0-.22.58c-.12.58-.21,1.16-.32,1.74l-.1-2c.07,0,.2,0,.2,0,.06-.77.12-1.55.17-2.32.12-1.17.53-2.36-.31-3.45l-.21-4.3c.13.43.25.87.4,1.3,0,.1.17.17.26.26a.88.88,0,0,0,.06-.31C1,34,.87,33.25.69,32.49c0-.15-.21-.26-.32-.39-.06-3.51-.14-7-.18-10.52,0-1.51,0-3,.07-4.53A7.73,7.73,0,0,1,.7,15.43c.27.34.36.33.78,0A29.11,29.11,0,0,1,4.2,13c.79-.54,1.49-1.35,2.6-1.36.22,0,.43-.32.64-.48l.84,0c.74-.24,1.49-.48,2.23-.74,0,0-.06-.24-.09-.36l.24-.66a1.08,1.08,0,0,0,.24-.22c.21-.36.4-.72.59-1.09L10.43,8A.59.59,0,0,1,10.21,8a2.79,2.79,0,0,0-3.33.42c-.41.3-.93.54-1.26-.17A22.57,22.57,0,0,1,7.84,7a35.81,35.81,0,0,1,8.6-2.4,74.68,74.68,0,0,1,11.82-.76c.4.59.62.59,1.06,0,2.67.23,5.35.33,8,.72,2.14.31,4.22,1,6.32,1.49.16,0,.29.23.43.36a6.37,6.37,0,0,0,.72.68c.6.4,1.22.78,1.85,1.14.47.27,1,.51,1.43.77a4,4,0,0,0,.36.87c.47.67,1,1.3,1.49,1.94a5.43,5.43,0,0,1,.62.64,3.57,3.57,0,0,1,.3.71,2.73,2.73,0,0,1-.75-.17c-.55-.3-1-.7-1.59-1s-1.17-.7-1.66-.6A2.57,2.57,0,0,1,44.91,11c-.08,0-.21,0-.31,0l-1.31,0c-.24,0-.49,0-.73,0-1.18.09-1.51,1.12-1.8,1.94a3.19,3.19,0,0,0-.13,2.36,4.17,4.17,0,0,1,.17,1.37c.07,1.18.13,2.37.17,3.55,0,1,.06,1.93.06,2.89,0,.56-.3,1.26-.07,1.67a2.41,2.41,0,0,1,0,2.34c-.09.21,0,.73.14.76,1,.27,1,1.21.82,1.79-.44,1.83.6,3.64-.05,5.44,0,.11.1.3.17.45.17.35.34.69.52,1s.29.53-.19.75c-.24.11-.53.7-.43.88a2.42,2.42,0,0,1-.09,2.45.7.7,0,0,0,.17.63A1.4,1.4,0,0,1,42.49,43c-.18.42-.43,1-.26,1.34a3.56,3.56,0,0,1,.34,2A6.54,6.54,0,0,0,43,48.11a1.73,1.73,0,0,1,0,.54,11.46,11.46,0,0,0-.16,2.47c.14.91-.31,1.92.41,2.74.06.06,0,.26-.06.39-.14,1.14.26,2.34-.35,3.44,0,.09.07.26.09.39.17,1.4.37,2.79.49,4.19a4.16,4.16,0,0,1-.27,1.09c-.06.27-.2.68-.08.82.85,1,.43,2.15.68,3.21a3.59,3.59,0,0,1,.15,1.46c-.37,1.86.17,3.68.18,5.51,0,.5-.1,1-.12,1.49a5,5,0,0,0,.11.86c.09.59.23,1.17.26,1.77s0,1.34,0,2,.28,1.4,0,1.91a1.67,1.67,0,0,0,.42,1.88c.69.77.21,1.06-.15,1.62a2.13,2.13,0,0,0-.37,1.55c.2.63,0,1.47.74,1.89,0,0,0,.26,0,.38A10.42,10.42,0,0,0,44.85,94a31.93,31.93,0,0,0,1,5.46,2.77,2.77,0,0,1-.73,2.49c-.6.77-.67.7,0,1.43a1.49,1.49,0,0,1,.41,1c0,1-.19,2-.27,3a16.67,16.67,0,0,1-.08,3c-.22.88-.81,2,.05,3,0,.05,0,.21,0,.32a21.53,21.53,0,0,0,.28,2.38,4.34,4.34,0,0,1-1,2.83,1.11,1.11,0,0,0-.53,1.56c.06.13,0,.34-.06.51-.07.52-.38,1.22-.16,1.54a3.69,3.69,0,0,1,.86,2.09c0,.15,0,.3,0,.45a2.15,2.15,0,0,0-.39-.14,1.78,1.78,0,0,0-.39,0l.06,1.82a1.94,1.94,0,0,1,0,.57c-.16.72.12,1.44-.19,2.2-.23.56.08,1.34.15,2s.43,1.65.12,2.17c-.46.79,0,1.41-.08,2.09a1.34,1.34,0,0,1-.3.88c-.43.35-.3.68-.2,1.1a2.72,2.72,0,0,1,.11,1.28c-.34,1.23-.82,2.42-1.15,3.65a2.48,2.48,0,0,0,0,1.63,24.45,24.45,0,0,0,1.63,2.15,1.69,1.69,0,0,1,.31,1.1c0,.21-.49.48-.78.52a1.9,1.9,0,0,0-1.48,1.25,23.78,23.78,0,0,1-1.48,2.32c-.07.1-.23.14-.33.23-.3.24-.61.48-.9.73a5.88,5.88,0,0,1-1.18,1,19,19,0,0,1-2.35.76c-.89.28-1.8.53-2.68.84-.43.15-.83.74-1.21-.06,0-.06-.2-.1-.3-.09-1.11.19-2.23.4-3.34.57a7.15,7.15,0,0,1-1.21.06c-1,0-2,0-2.93-.08a36.53,36.53,0,0,1-3.82-.16c-2.16-.3-4.29-.74-6.44-1.13A9,9,0,0,1,9.83,153c-1.12-.85-2.66-1-3.73-1.95a.37.37,0,0,0-.23-.07l-2.44,0a4.1,4.1,0,0,1-1.1-3.15c-.09-2.76-.09-5.52-.13-8.28l.22.48a2.08,2.08,0,0,0,.07-.52c-.09-.69-.2-1.39-.31-2.08v-1.68l.44.38c.25-.29,0-1.3-.44-1.52l-.16-6A3.85,3.85,0,0,0,2,125c0-.75-.09-1.5-.11-2.26s0-1.36,0-2c.12.66.24,1.33.37,2a1.43,1.43,0,0,0,.18.35,1.2,1.2,0,0,0,.07-.37c-.2-1.36-.41-2.72-.62-4.08L2,115.94c.11-.48.24-1,.33-1.43,0-.1-.08-.22-.12-.34-.07.1-.14.19-.21.29s-.1.19-.14.28l0-4.35.14.46a.71.71,0,0,0,.19-.12,2.25,2.25,0,0,0-.32-2.43c-.09-1.84-.22-3.69-.26-5.53,0-1.2.14-2.4.12-3.61s-.19-2.45-.27-3.67a4.32,4.32,0,0,1,.14-.93c.65-.76.81-3,.27-3.7l-.1-.11a.91.91,0,0,0,0,.23,5,5,0,0,1,.11,1c-.06.65-.2,1.3-.31,1.94,0-1.48,0-3,0-4.45,0-.62-.11-1.24-.14-1.86,0-.38,0-.76,0-1.14h.48c0,.6,0,1.19.06,1.79,0,.07.14.14.21.21a.8.8,0,0,0,.06-.29c-.11-.57-.23-1.14-.34-1.7l-.19-4.82L2,79,2,78.68H2c0,.12,0,.24,0,.36-.16.46-.32.92-.49,1.38-.08.22-.18.43-.28.64l-.05-1.54c.15-.84.31-1.69.43-2.54,0-.07-.29-.17-.45-.26l-.1-3.65.45.31a1.93,1.93,0,0,0,0-.59c-.7-2.45.13-5-.35-7.42a1.09,1.09,0,0,1,0-.32c.15-1.11.3-2.22.43-3.33a1.77,1.77,0,0,0-.12-.56,3.77,3.77,0,0,0-.19.5c-.15.62-.28,1.24-.41,1.85l0-1.36.23-2.35c.26-1.51.72-3,0-4.52ZM31.6,137.68l-.16-.17c-.41-.73-.49-.76-.9-.33l-.18.32-.3.18-.24.23s.11.07.12.06a2.13,2.13,0,0,0,.18-.23l.33-.18.18-.32.73.33.16.16.1.08Zm2.09,0-.06.11.11-.06.06-.11Zm-9.72.19-.16-.17-.23-.26-.06.06.26.23.17.16L24,138Zm13.08-1.28.06-.12-.12.06-.05.12Zm-22-.19.07-.1-.1.07-.17.16-.19.31-.58.06.24.41.41-.4.16-.33Zm9.09.62-.09-.06.06.09.16.17.47.52c.2.53.39.21.58,0l.16-.17.16-.34.15-.18.07-.08-.08.06-.18.15-.19.31-.17.16h-.42l-.51-.48ZM22,137l-.17.17-.34.33-.58-.18A1.41,1.41,0,0,0,19.3,137l-.16.17-.17.16-.16.17-.14.19-.06.08.08-.06.19-.15.17-.16.16-.16.16-.17,1,.8.07.06-.07-.07c0-.29-.25-.85.45-.46.18.33.33.81.74.18l.32-.35.16-.17.05-.11Zm.81.32-.16.17-.16.17-.22.25,0,0,.24-.23.17-.16.17-.16.16-.16.25-.17-.14-.15-.19.24Zm4.8.41.13.05-.05-.13-.16-.17-.16-.17c-.19-.42-.38-.44-.59,0l-.25.24,0,.06.29-.21h.42l.16.16Zm.52-.69.08.08-.07-.09-.18-.12,0,.06ZM18.78,23.41l-.25-.26-.59-.59a3.48,3.48,0,0,0-.29.89,7.06,7.06,0,0,0,2.8,6,1.91,1.91,0,0,0,2.87-.11,8.7,8.7,0,0,0,2.48-4.28c.55-2-.42-3.64-.93-5.38a8,8,0,0,0-1.8-2.35c-1.31-1.58-1.7-1.54-2.91.17a16.75,16.75,0,0,1-1.35,1.6,4.35,4.35,0,0,0-.64,2.5,2.23,2.23,0,0,0,.17.25,1.52,1.52,0,0,0,.12-.26q.2-.8.39-1.6c.1-.41.22-.5.58-.17a10.63,10.63,0,0,0,1.24.87h0c.27.41.73.8.77,1.22.11,1.24,0,2.49,0,3.73l-2.37-2Zm7.35,114.65.13-.17-.09-.07-.07.21-.06.09Zm8.69-1,.24.26.06,0-.2-.3-.35-.4-.19.22ZM21,152.95c.54-.41.41-.8,0-1.2s-1-.51-1.41,0-.27.85.23,1.14S20.62,153.48,21,152.95Zm8.53-15.77c-.38,0-.59.76-1.08.24,0,.12-.09.27,0,.34.35.51.69.36,1.19-.52l.05-.11Zm3.63,0c-.49.53-.85,0-1.25-.16l-.11-.05.05.11.71.92.67-.75.05-.13ZM20.77,118.42a5.21,5.21,0,0,0,.83.24c.05,0,.22-.29.2-.43s-.22-.23-.34-.34c0,.12-.06.29-.14.35a1.32,1.32,0,0,1-.46.09,4,4,0,0,1,.31-.61,1.27,1.27,0,0,1,.38-.25c-.2-.07-.44-.25-.58-.19a1,1,0,0,0-.56.54C20.37,118,20.64,118.22,20.77,118.42Zm7.35,34.85c.34-.42.34-.72-.26-.88-.09,0-.17-.25-.18-.39s.15-.14.24-.22c-.11,0-.23-.06-.32,0a3.46,3.46,0,0,0-.47.31c.12.17.23.35.36.51s.39.41.59.62h-.41l-.46,0c0,.1,0,.25.08.28a.88.88,0,0,0,.51.14C27.91,153.59,28,153.39,28.12,153.27ZM15.35,151.9a2,2,0,0,1-.77-.2c-.16-.13-.17-.44-.24-.67l0,.76c0,.05,0,.11,0,.16.06.66.59.68,1.06.78a5.81,5.81,0,0,1-.16-.58c0-.06.07-.14.1-.22.41-.27.45-.62.1-.93-.12-.11-.41,0-.62,0a1.38,1.38,0,0,1,.29.31A4.74,4.74,0,0,1,15.35,151.9Zm23.47-14.66.11.05-.05-.1-.84-.92c-.3.31-.6.62-.89.94a.23.23,0,0,0,0,.22s.14,0,.21,0ZM8.26,110.78l-.46,0c0,.58,0,1.16,0,1.73a7.94,7.94,0,0,0,.29,1.17c.08-.38.16-.75.25-1.13a1.34,1.34,0,0,1,.11-.25,1,1,0,0,1,.15.17c.22.38.41.78.65,1.14.07.11.27.12.41.18,0-.12.14-.23.13-.35,0-.77-.06-1.53-.15-2.29,0-.12-.37-.2-.56-.3C8.7,112.08,8.53,111,8.26,110.78ZM11,111l-.2.32c0,.61,0,1.21,0,1.82,0,.31,0,.81.2.87a4.37,4.37,0,0,0,1.43.21c.1,0,.29-.25.29-.38s-.18-.28-.32-.36-.28,0-.4,0a4.62,4.62,0,0,1-.54-.27l.53-.19a1.87,1.87,0,0,0,.49-.17.4.4,0,0,0,0-.36,3.13,3.13,0,0,0-.54-.14,3.77,3.77,0,0,1-.46-.23,3.8,3.8,0,0,1,.53-.22c.1,0,.24.08.32,0a2.55,2.55,0,0,0,.43-.31c-.12-.14-.22-.38-.36-.41A13.71,13.71,0,0,0,11,111Zm14.66,12.69c-.22,1-.45,1.9-.66,2.86,0,.12.09.28.15.42a1.29,1.29,0,0,0,.38-.24,3.72,3.72,0,0,0,.29-.58,5.49,5.49,0,0,1,2.15-2.53c.2-.11.32-.35.47-.53a4.53,4.53,0,0,0-.76-.06.64.64,0,0,0-.43.22,1.26,1.26,0,0,1-1.61.45,5.2,5.2,0,0,0,.49-.37,3.46,3.46,0,0,0,.33-.42c-.19-.07-.39-.22-.56-.19a1.58,1.58,0,0,0-.73.34c-.47.4-.9.86-1.35,1.29h0l-.09-.93a4.55,4.55,0,0,0-.83.69c-.52.7-.94,1.47-1.5,2.14a3.57,3.57,0,0,1-1.25.89c-.17.08-.5-.21-.76-.33a3.74,3.74,0,0,1,.45-.5,12.73,12.73,0,0,0,1.46-1.13,1,1,0,0,0,.05-.94,1.1,1.1,0,0,0-1-.16,3.2,3.2,0,0,0-2,2.32,1,1,0,0,0,.8,1.3,3.14,3.14,0,0,0,1.66-.43,6.08,6.08,0,0,0,1.15-1,3,3,0,0,1,.26-.19,3,3,0,0,1,0,.36,2.56,2.56,0,0,0-.08.32c0,.24,0,.49.05.73a3.84,3.84,0,0,0,.68-.47,2.15,2.15,0,0,0,.27-.59A5.26,5.26,0,0,1,25.62,123.66Zm5.57-24.49c0-.8-.09-1.6-.05-2.39,0-.62-.23-.73-.77-.7-1.26.08-2.52.12-3.79.16-.54,0-1.64-1.07-1.62-1.59a.54.54,0,0,1,.28-.37,40,40,0,0,1,4-1.85c1.51-.52,2.28-1.34,2-3a3.15,3.15,0,0,1,0-.91c.06-.62,0-.87-.73-.51-2.23,1.12-4.49,2.19-6.75,3.25a.94.94,0,0,1-.81-.07c-.61-.48-1.09-1.14-1.73-1.56-2.22-1.42-6-1.39-6.65,2.75a54.3,54.3,0,0,0-.27,6.17c0,.64.23.78.81.79,5.07,0,10.13.12,15.2.17a4.46,4.46,0,0,0,.88-.17ZM14.25,80.88c0,.88,0,1.76,0,2.64,0,.47.14.67.67.67,3.58,0,7.16,0,10.73-.05A5.73,5.73,0,0,0,30.26,82a7.53,7.53,0,0,0,1.17-2.93,7.7,7.7,0,0,0-.5-4.72,5.16,5.16,0,0,0-5-3.29c-3.3-.07-6.6,0-9.91.05-1.85,0-1.85,0-1.84,1.78q0,.21,0,.41c0,1.46,0,1.44,1.43,1.43,3.25,0,6.5-.05,9.74,0a2.52,2.52,0,0,1,2.69,1.88,2.57,2.57,0,0,1-1.28,3.27,4.45,4.45,0,0,1-1.81.6c-1,.1-2.09,0-3.13,0h-.25l-7.25.1Zm11-14.47v-.11c1.76,0,3.52,0,5.29,0,.26,0,.71.2.64-.43a10.72,10.72,0,0,1-.09-2.2c.06-.69-.1-.9-.81-.89-3.11.06-6.22.07-9.33.09a3.25,3.25,0,0,1-.37,0,1.69,1.69,0,0,1,.24-.29c1-.73,1.9-1.49,2.89-2.18,1.86-1.3,3.69-2.67,5.64-3.81a3.31,3.31,0,0,0,1.7-3.5c0-.66-.28-.77-.85-.76-2.18.05-4.36,0-6.54.11-3.11.1-6.21.25-9.32.36-.51,0-.66.23-.63.72a21.32,21.32,0,0,1,0,2.15c0,.61.19.79.81.76,2.94-.14,5.88-.24,8.83-.35a2.19,2.19,0,0,1,.45.08,2.73,2.73,0,0,1-.32.32c-2.53,1.85-5,3.74-7.61,5.52A3.71,3.71,0,0,0,14,65.83c.08.52.18.7.72.68,1.74-.06,3.48-.08,5.22-.09S23.52,66.42,25.28,66.42Zm5.53-32.75c0-.23,0-.64,0-1.05,0-.65-.18-.84-.82-.6-2.62,1-5.29,1.94-7.87,3.05C19.36,36.27,16.67,37.63,14,39a1.23,1.23,0,0,0-.53.86c-.08.73,0,1.48-.06,2.22,0,.58.26.79.73.91,1.43.38,2.88.71,4.29,1.15,2.12.66,4.21,1.41,6.32,2.11,1.87.62,3.78,1.15,5.63,1.84.68.25.71,0,.69-.48,0-.8-.11-1.59-.09-2.39,0-.55-.21-.76-.72-.9-1-.28-2-.64-2.94-.94-.41-.12-.47-.27-.24-.63.41-.65.75-1.35,1.17-2a1,1,0,0,0,0-1.33c-.42-.57-.73-1.22-1.13-1.81-.27-.4-.14-.59.25-.73.65-.23,1.3-.43,1.94-.68C31.19,35.48,30.92,36,30.81,33.67ZM28,146.16a4.78,4.78,0,0,0-4.73-4.63,4.21,4.21,0,0,0-4.5,4.05,4.75,4.75,0,0,0,4.51,5A4.55,4.55,0,0,0,28,146.16ZM17.28,121.83a5.51,5.51,0,0,0-3.4,1.24,4.48,4.48,0,0,0-.6.84,6,6,0,0,0,.92-.37,3.34,3.34,0,0,1,2.68-.74.7.7,0,0,1,.46.38.72.72,0,0,1-.26.54,7.55,7.55,0,0,1-.88.6l-.61.4c0-.23.05-.47.06-.7a4.78,4.78,0,0,0,0-.53c-.18.09-.43.14-.53.29a2.41,2.41,0,0,0-.29.76c-.23.85-.4,1.71-.71,2.54-.1.28-.68.41-.75.69s.19.66.3,1c.05.16.09.33.13.49.15-.06.39-.08.42-.18.25-.75.87-.54,1.41-.65a5.69,5.69,0,0,0,1.83-.65,1.53,1.53,0,0,0,.22-2.56c-.83-.56-.48-.72.06-1.19a1.84,1.84,0,0,0,.68-1.42C18.25,122.23,17.52,122,17.28,121.83Zm11.3,3.64-.16.06c.19.3.34.83.57.86a1.52,1.52,0,0,0,1.13-.38,7.63,7.63,0,0,0,.91-1.36,5,5,0,0,1,.33-.41,3.18,3.18,0,0,1,0,.56c-.23,1-.51,2-.71,3a3.09,3.09,0,0,0,.11.95c.27-.25.55-.48.8-.75.08-.09.08-.26.11-.39.37-1.74.75-3.47,1.1-5.21a2.91,2.91,0,0,0,0-.76,3.68,3.68,0,0,0-.78.34,1.47,1.47,0,0,0-.33.55c-.46.93-.9,1.87-1.38,2.79a3.46,3.46,0,0,1-.64.68,3.07,3.07,0,0,1-.12-.91c.16-.95.4-1.88.58-2.82a1.55,1.55,0,0,0-.11-.55c-.39.26-1.06.46-1.12.78A21.4,21.4,0,0,0,28.58,125.47Zm11.26-12.84h0a.78.78,0,0,0,0-.25c-.15-.42.34-1.18-.34-1.22s-.29.75-.43,1.15a2,2,0,0,0-.05.31,2.09,2.09,0,0,1-.3-.24,9.38,9.38,0,0,0-.75-.87.91.91,0,0,0-.64-.2c-.1,0-.21.34-.22.53a16.41,16.41,0,0,0,0,1.9c0,.22.22.42.34.63.17-.19.36-.36.51-.57a4.23,4.23,0,0,0,.3-.53,4.53,4.53,0,0,1,.45.32c.12.11.19.29.32.37a.9.9,0,0,0,.56.18c.11,0,.24-.27.26-.44A10,10,0,0,0,39.84,112.64Zm-13,.52c.12,1.64.12,1.64,1.47,1.58a1.57,1.57,0,0,0,1.59-1.53,1.46,1.46,0,0,0-1.54-1.57C26.5,111.66,26.85,111.33,26.88,113.16Zm4.25,0a4.54,4.54,0,0,0,0,1c0,.2.27.35.42.53.14-.14.4-.28.41-.43.07-.63.32-.45.61-.18.12.11.18.33.31.37a4.66,4.66,0,0,0,.84.12,1.78,1.78,0,0,1-.21-.53,1.29,1.29,0,0,1,.13-.68,1.12,1.12,0,0,0-.71-1.78C31.36,111.3,31.1,111.52,31.13,113.14ZM20,113.75c.23-.86-.25-1.07-1-.94a1.41,1.41,0,0,0-.43.25,3.45,3.45,0,0,0,.34.36,1.38,1.38,0,0,0,.32.15c-.11.11-.22.28-.34.3s-.53,0-.6-.11a1.78,1.78,0,0,1-.35-1.07c.11-.51.59-.55,1.08-.41a2.11,2.11,0,0,0,.71-.06c-.14-.2-.27-.55-.41-.56a3.29,3.29,0,0,0-1.67.13,1.37,1.37,0,0,0-.43,1.78,1.46,1.46,0,0,0,1.58,1.06C19.24,114.53,20.44,115.22,20,113.75Zm-6.3-1h0a8.82,8.82,0,0,0,0,1.23c0,.15.25.29.42.38s.21-.16.29-.28a3.09,3.09,0,0,0,.2-.46c.13.12.28.24.4.38s.09.24.17.27a7,7,0,0,0,.75.22,2.3,2.3,0,0,1-.15-.53,1.4,1.4,0,0,1,.08-.7c.3-.55.37-1.19-.13-1.49a6.1,6.1,0,0,0-1.84-.46c-.08.4-.16.79-.24,1.19A1.35,1.35,0,0,0,13.74,112.7Zm27.19-.25h0c0,.36,0,.72,0,1.07,0,.17.09.46.17.47s.57,0,.6-.14c.19-.63.39-.34.71-.11s.51.08.77.12a2.27,2.27,0,0,0-.25-.7c-.5-.61-.82-1.19-.09-1.86.12-.11.14-.31.21-.47a1.92,1.92,0,0,0-.61.1c-.16.08-.24.29-.37.43a3.5,3.5,0,0,1-.35.29,1.1,1.1,0,0,0-.09-.37,2.14,2.14,0,0,0-.35-.34c-.12.14-.33.27-.36.43A7,7,0,0,0,40.93,112.45Zm-17-.71c-.09,0-.2-.14-.27-.11-.28.1-.68.17-.79.38-.36.65-.6.66-.91,0-.06-.12-.14-.28-.25-.31a3.83,3.83,0,0,0-.71-.08,2.6,2.6,0,0,0,.16.54c.38.71,1,1.32.9,2.24,0,.09.28.27.45.3s.34-.23.32-.31c-.15-.8.39-1.34.72-2C23.64,112.21,23.77,112,23.92,111.74Zm-18.22,0h0c0,.19,0,.38,0,.58,0,.93.24,1.16,1.14,1.11a1.85,1.85,0,0,0,.37-.1,1.37,1.37,0,0,0-.13-.43c-.11-.15-.42-.28-.41-.39,0-.46.21-.9.27-1.35,0-.24,0-.68-.09-.72a2,2,0,0,0-1-.06c-.09,0-.14.41-.16.63A6.59,6.59,0,0,0,5.7,111.71ZM28,108.57a1,1,0,0,0,0,.33c.08.25.19.48.29.72.12-.2.26-.39.37-.6a2.21,2.21,0,0,0,.12-.36,3.08,3.08,0,0,1,.31.26,4.05,4.05,0,0,0,.49.55c.34.25.63.23.64-.29a12.58,12.58,0,0,0,0-1.4c0-.13-.2-.25-.31-.37a1.83,1.83,0,0,0-.29.4,3.1,3.1,0,0,0-.1.59c-.16-.14-.31-.28-.48-.41s-.51-.36-.76-.54c-.08.29-.16.58-.23.87A1,1,0,0,0,28,108.57Zm-6.36.12c-.24.79.17,1.08,1,1a1.58,1.58,0,0,1,.33,0c.45,0,.47-.15.37-.55a6.28,6.28,0,0,1,0-1.2c0-.15-.07-.39-.17-.42C22.25,107.14,21.66,107.55,21.66,108.69Zm6,26.42c0,.46-.07.86.59.8s1.15,0,1.72,0c.16,0,.44-.14.44-.2,0-.41,0-1-.26-1.19-.43-.33-.86.06-.88.65,0,.17-.24.33-.36.49-.06-.17-.2-.36-.17-.51.1-.43.07-.66-.47-.67S27.56,134.63,27.67,135.11Zm-.79-25.59c-.33-.72-.58-1.33-.91-1.89a.83.83,0,0,0-.67.13,9.47,9.47,0,0,0-.64,1.49.42.42,0,0,0,0,.37.37.37,0,0,0,.36,0,.9.9,0,0,1,1.37,0C26.48,109.7,26.69,109.58,26.88,109.52Zm-9.92.24.9-.73a3.56,3.56,0,0,1-.74-.06,1,1,0,0,1-.58-.34.72.72,0,0,1,.08-.66c.11-.12.42-.08.65-.08s.37,0,.55,0c-.13-.18-.25-.5-.4-.51-.38,0-.89-.05-1.12.16a1.35,1.35,0,0,0-.31,1.14C16.12,109.09,16.57,109.36,17,109.76Zm18.93,3.1h0a7.07,7.07,0,0,0,0-1.06c0-.15-.23-.27-.35-.41-.15.14-.42.27-.43.42a21.35,21.35,0,0,0,0,2.29.53.53,0,0,0,.39.35.56.56,0,0,0,.4-.36A9,9,0,0,0,35.89,112.87Zm-16-3.16.74-.33a7.61,7.61,0,0,1-.66-.43.94.94,0,0,1-.35-.42c-.06-.23,0-.5,0-.74s-.24-.3-.36-.45c-.12.17-.34.34-.35.51s.16.65.13,1C18.94,109.5,19.23,109.72,19.9,109.7Zm7.23,24.87s-.18-.07-.18-.05c-.3.59-.61.29-.91,0-.22.47-.45.58-.68,0-.08.07-.23.15-.22.21a3.85,3.85,0,0,0,.21.8,1.52,1.52,0,0,0,.29.36,1.72,1.72,0,0,1,.31-.3.39.39,0,0,1,.33,0,1.59,1.59,0,0,1,.32.32,2.06,2.06,0,0,0,.32-.43A7.1,7.1,0,0,0,27.13,134.57Zm10.49.14.38.69,1-.92c-.23-.21-.43-.57-.68-.61C37.74,133.76,37.67,134.19,37.62,134.71Zm-2,0-.16-.51a3.33,3.33,0,0,1-.27.42s-.17,0-.23,0-.38-.21-.58-.31a6,6,0,0,0-.12.86,1.39,1.39,0,0,0,.19.47,2.19,2.19,0,0,1,.24-.35c.06-.06.22-.1.24-.08C35.7,136,35.65,135.35,35.67,134.67ZM12.52,117.4c0,.67.13,1,.83.6a.65.65,0,0,1,.33-.08,1.45,1.45,0,0,1,.35.1L14,117c-.17.06-.34.14-.52.19a.44.44,0,0,1-.3,0,3.6,3.6,0,0,1-.45-.38Zm0,0a5.11,5.11,0,0,0-1.08-.8c-.1,0-.58.5-.53.62a1.72,1.72,0,0,0,.74.78C11.8,118.07,12.13,117.72,12.56,117.41ZM33.8,134.65c-.15-.12-.28-.33-.44-.36-.4-.07-.74,0-.65.55.06.34-.26.86.49.89C34.11,135.77,33.62,135.18,33.8,134.65Zm-19-.32.22,0c-.46,1.09.61.54.8.93.07-.28.27-.61.18-.83a1.32,1.32,0,0,0-.72-.55C15.17,133.89,14.95,134.19,14.78,134.33Zm20-16.46c.16.22.29.55.51.64s.48-.12.72-.2l-.4-.77s-.05-.14,0-.15.27-.17.4-.25a4.35,4.35,0,0,0-.52-.11C34.83,117,34.83,117.38,34.75,117.87Zm-.1-9.28a2.16,2.16,0,0,0,.5,0,2.68,2.68,0,0,0,.41-.2,1.62,1.62,0,0,0-.42-.19,13.67,13.67,0,0,0-1.63-.15c-.15,0-.3.23-.46.35.16.11.32.32.47.32A8.28,8.28,0,0,0,34.64,108.59Zm-8.1,45.33a2.52,2.52,0,0,0,.36-.86c0-.21-.27-.43-.42-.64s-.23-.18-.23-.27.12-.24.19-.36c-.14,0-.32-.07-.4,0a.68.68,0,0,0-.25.44c0,.37.56.72,0,1.11ZM13.75,34.07c1,.08.44-.72.65-1.08,0,0-.21-.37-.33-.37-.65,0-.52.46-.64.9S13.28,34.1,13.75,34.07ZM37,118.57c.27-.23.7-.49.67-.59a5,5,0,0,0-.63-1c-.21.42-.43.83-.61,1.26A4.19,4.19,0,0,0,37,118.57ZM24.85,135.47c-.34-.44-.56-1-.83-1-1-.12-.08.76-.45,1,.16.13.32.38.47.37S24.47,135.67,24.85,135.47Zm-11.74-1.27.79.84a2.75,2.75,0,0,0,.51-.75c.22-.83-.69-.26-.85-.64Zm18.46-15.49.66-.29-.71-1.19a7.65,7.65,0,0,0-.57,1.07C30.92,118.36,31.35,118.57,31.56,118.71Zm-13.39-.82c0,.12,0,.22,0,.28s.25.41.43.49.41,0,.62,0c-.12-.14-.36-.36-.33-.4.23-.33.2-.51-.22-.57l.17-.1.38-.18a2.28,2.28,0,0,0-.42-.15C18.26,117.12,18.1,117.42,18.18,117.89Zm7,.73.11.2c0-.11.12-.23.09-.32a3.91,3.91,0,0,0-.39-.81c-.09-.13-.28-.2-.42-.29-.18.35-.36.7-.53,1.06a.58.58,0,0,0,0,.3s.1,0,.14,0Zm4.23-.39-.17.12c.12.12.23.32.36.33a1.2,1.2,0,0,0,.67-.16c.07,0,.07-.36,0-.49s-.29-.21-.45-.31l.46-.08c0-.1-.08-.29-.12-.3a8,8,0,0,0-.83,0c0,.2,0,.41.05.61S29.44,118.15,29.45,118.24ZM9.63,117c-.14.82.44.77.82.79a1,1,0,0,0,.25-.71c-.07-.25-.38-.44-.58-.66Zm8.18,18.26L17,134.09l-.54,1.1c.34.09.67.18,1,.25C17.54,135.46,17.63,135.35,17.81,135.23Zm19.13-1.35c-.32.16-.67.23-.7.37a2.65,2.65,0,0,0,0,1.11c0,.06.48,0,.74,0,.05,0,.14-.21.13-.22-.36-.31-.41-.6,0-.9C37.17,134.25,37,134,36.94,133.88ZM23.76,118.05l-.28-.59a1.29,1.29,0,0,0-.19.21c-.12.21-.22.44-.33.66-.11-.22-.2-.45-.33-.67a.92.92,0,0,0-.26-.25s-.16.1-.15.14a4,4,0,0,0,.32,1.06.67.67,0,0,0,.65.12A2.57,2.57,0,0,0,23.76,118.05Zm-7.32-.43.08,0a3,3,0,0,0,0,.57c0,.09.15.15.23.23.26-.54.5-.47.72,0,0,0,.14,0,.22,0l0-1.1a1.48,1.48,0,0,1-.41.2.54.54,0,0,1-.38-.11,2,2,0,0,1-.3-.39ZM26.94,5.69l.87-.61c-.26-.17-.52-.46-.79-.46s-.51.3-.76.47ZM9.29,133.35a2.45,2.45,0,0,1,0,.4c-.19.8.71.18.79.61a3.31,3.31,0,0,0,.17-.64c0-.4,0-.39-.41-.33a.26.26,0,0,1-.21,0,2.85,2.85,0,0,1-.24-.36Zm28.65-15.81.25.64.72-.33a3.29,3.29,0,0,1-.24-.42s0-.14.1-.2.19-.2.29-.3l-.39-.06C38.17,116.81,37.91,117,37.94,117.54ZM9.61,116.9,9,116.23c-.13.22-.35.44-.35.66a2.55,2.55,0,0,0,.26.82ZM29.7,152.4c-.43,0-.72,0-.85.06a1.64,1.64,0,0,0-.3.68c0,.06,0,.14,0,.22.12-.12.25-.36.35-.34s.4.33.47.29a2.84,2.84,0,0,0,.54-.56l.09.14.19.38c0-.19.1-.45,0-.55A1.7,1.7,0,0,0,29.7,152.4ZM26.92,9.52l.89-.34A2.72,2.72,0,0,0,27,8.86a2.86,2.86,0,0,0-.88.29ZM20.28,135.79l.44-.18c-.09-.08-.21-.14-.26-.24s-.18-.46-.29-.68a1.29,1.29,0,0,0-.32-.4s-.28.05-.28.08a3.46,3.46,0,0,0,.14,1.05C19.78,135.6,20.1,135.68,20.28,135.79Zm-9-2.57H11a2.81,2.81,0,0,0-.32,1c0,.15.53.26.82.37,0,0,.17-.18.15-.24C11.56,134,11.41,133.61,11.26,133.22Zm16.16-15.4c0,.59.19.94.78.9s.6-.47.56-.89a1.15,1.15,0,0,0-.19-.37c-.05.11-.1.23-.16.34l-.31.55c-.11-.19-.21-.38-.32-.56s-.16-.23-.24-.34ZM9.68,135.38l-.42.64a4.41,4.41,0,0,1,.51.06c.17,0,.36.19.51.15a1.23,1.23,0,0,0,.48-.37.27.27,0,0,0,0-.23C10.45,135.55,10.15,135.49,9.68,135.38Zm8.53-.79c0,.28,0,.37,0,.44a1.67,1.67,0,0,0,.4.56c.11.07.34,0,.52-.06a5.78,5.78,0,0,1-.38-.45,1.79,1.79,0,0,1-.15-.36l-.22-.56Zm7.29,17.93a4,4,0,0,0-.46-.74c-.06-.07-.33.06-.5.1.12,0,.28.06.35.14s.11.32.07.35c-.38.25.5,1-.38,1,.11.06.24.19.32.17C25.39,153.41,25.58,153.1,25.5,152.53Zm-9.1-.72.12.08a.93.93,0,0,0,0,.16c0,.2.08.41.12.61l.76-.49c-.13-.09-.31-.16-.37-.29a.51.51,0,0,1,.05-.42c.06-.11.22-.16.33-.24-.18,0-.43-.16-.52-.09A3.3,3.3,0,0,0,16.4,151.8ZM1.47,76.14l.07.31A1.47,1.47,0,0,0,1.75,76c0-.66,0-1.33,0-2,0-.1-.13-.19-.21-.28,0,.11,0,.21,0,.32C1.47,74.65,1.47,75.3,1.47,76.14Zm19.69,58.48-.13-.22c-.06.07-.18.18-.16.22.18.37.38.74.59,1.1,0,0,.16,0,.18-.09a10.18,10.18,0,0,0,.41-1c0-.05-.12-.23-.17-.23A7,7,0,0,0,21.16,134.62ZM13,107.81l-1.44.26a10.5,10.5,0,0,0,1.29.36c.17,0,.38-.16.57-.24ZM33.38,118h0c0,.14-.06.33,0,.4a1,1,0,0,0,.53.33c.17,0,.37-.15.55-.24a1.52,1.52,0,0,1-.47-.28,3.41,3.41,0,0,1-.27-.61,1.82,1.82,0,0,0-.21-.28.92.92,0,0,0-.14.26A2.27,2.27,0,0,0,33.38,118Zm-7.48-.36-.1-.21c0,.07-.15.17-.13.21.19.4.4.79.6,1.19.17-.38.34-.75.49-1.13,0,0-.11-.2-.16-.19A6.86,6.86,0,0,0,25.9,117.59ZM32,134.44a2.19,2.19,0,0,0-.51,0,2.57,2.57,0,0,0-.55.19l0,.07c.13.31.25.63.4.94,0,.07.19.09.28.13Zm-8.68,18a2.81,2.81,0,0,0,.17.71c.09.17.3.27.46.4a3,3,0,0,1-.1-.47c0-.35,0-.69,0-1,0-.13,0-.25,0-.38-.13.08-.3.14-.37.25A2.12,2.12,0,0,0,23.35,152.4Zm7.23.09c0,.84.24,1.12.77.91.06,0,.1-.11.15-.16s-.08-.09-.12-.09c-.87.07-.29-.6-.45-.89a3,3,0,0,1-.18-.56c-.06.18-.13.37-.17.55A1,1,0,0,0,30.57,152.49Zm-12.73-.35h0a1.92,1.92,0,0,0,.07.72c.07.13.36.15.55.19,0,0,.07-.14.11-.22-.62-.24-.3-.79-.39-1.2a1.31,1.31,0,0,0-.12-.27c-.07.09-.17.18-.19.29A2.43,2.43,0,0,0,17.85,152.14ZM2.21,83.43l-.28-.81a2.94,2.94,0,0,0-.18.75,3.59,3.59,0,0,0,.21.81Zm13,33.45c-.08.05-.24.13-.23.15.15.41.31.82.48,1.22,0,0,.09,0,.14,0s0,0,.06,0a4.53,4.53,0,0,0,.27-1.05C15.93,117.1,15.48,117,15.21,116.88Zm-2.42,16.69a3.51,3.51,0,0,0-.57-.14c-.08,0-.25.16-.24.19.15.39.32.77.48,1.15Zm3.9,3.5a2.13,2.13,0,0,0-.38-.55.49.49,0,0,0-.47,0,4.65,4.65,0,0,0-.56.67c.41.23.77-.7,1.2-.05A1.26,1.26,0,0,0,16.69,137.07Zm5.39,16.45.45-.34c-.53-.1-.52-.39-.27-.77l-.17-.1c-.19.28-.38.57-.57.86ZM37,137.12a2,2,0,0,0-.33-.2c-.43.45-.63,0-.89-.22-.06-.06-.19,0-.28-.06s0,.22,0,.29a3.24,3.24,0,0,0,.44.49c.11.1.29.25.37.21A4.12,4.12,0,0,0,37,137.12ZM13.39,35.2l1.06-.5a8.59,8.59,0,0,0-1-.31c-.05,0-.22.23-.23.36A1.21,1.21,0,0,0,13.39,35.2ZM.47,22l.09.86A5.26,5.26,0,0,0,.81,21.7a3.27,3.27,0,0,0-.29-.94c0,.28,0,.55,0,.83C.47,21.64.47,21.69.47,22Zm13,114.65c-.18-.28-.33-.63-.4-.62a1.93,1.93,0,0,0-.71.38c-.1.08-.12.26-.17.4a2.24,2.24,0,0,1,.47-.22,1.7,1.7,0,0,1,.47,0ZM32,152.4l.23.75a4,4,0,0,0,.16-.9c0-.2-.19-.4-.29-.6ZM2.5,118.22l.09,0-.31-.84c0,.29-.1.59-.14.89a1.55,1.55,0,0,0,0,.48c0,.08.11.15.18.22.06-.08.14-.15.16-.24A3,3,0,0,0,2.5,118.22ZM1.92,100.9l.21.73a2.47,2.47,0,0,0,.16-.63,3.71,3.71,0,0,0-.16-.74Zm0-35.23L1.62,65a5.48,5.48,0,0,0-.13.83,1.89,1.89,0,0,0,.16.55Zm9.23,70.52-.16.12c.12.14.3.4.34.38a2.88,2.88,0,0,0,.54-.42Zm11.11,15.36-.41.14a4.07,4.07,0,0,0,.53.17c.06,0,.15-.08.22-.12Zm-5.47-14,.13.06s.06-.1,0-.13-.08,0-.13-.07Zm-3.1-.57-.14-.06s-.06.1,0,.14.08,0,.13.07Zm20.4.35s.11,0,.13-.08,0-.09,0-.14l-.18.11Zm-.5-.61-.06,0,.11,0s0,0,0-.06S33.57,136.76,33.55,136.75Z" transform="translate(-0.18 -0.25)"/><path class="cls-3" d="M3.43,151l2.44,0a.37.37,0,0,1,.23.07c1.07,1,2.62,1.1,3.73,1.95A9,9,0,0,0,14,154.38c2.15.39,4.28.83,6.44,1.13a36.53,36.53,0,0,0,3.82.16c1,0,2,.06,2.93.08a7.15,7.15,0,0,0,1.21-.06c1.12-.17,2.23-.39,3.34-.57.1,0,.27,0,.3.09.38.8.78.21,1.21.06.88-.31,1.79-.56,2.68-.84a19,19,0,0,0,2.35-.76,5.88,5.88,0,0,0,1.18-1c.29-.25.6-.49.9-.73.11-.08.26-.12.33-.23a23.78,23.78,0,0,0,1.48-2.32,1.9,1.9,0,0,1,1.48-1.25c.29,0,.75-.3.78-.52a1.69,1.69,0,0,0-.31-1.1,24.45,24.45,0,0,1-1.63-2.15,2.48,2.48,0,0,1,0-1.63c.32-1.23.81-2.42,1.15-3.65a2.72,2.72,0,0,0-.11-1.28c-.1-.42-.23-.75.2-1.1a1.34,1.34,0,0,0,.3-.88c0-.69-.38-1.3.08-2.09.3-.52-.05-1.43-.12-2.17s-.38-1.46-.15-2c.31-.77,0-1.48.19-2.2a1.94,1.94,0,0,0,0-.57l-.06-1.82a1.78,1.78,0,0,1,.39,0,2.15,2.15,0,0,1,.39.14c0-.15,0-.3,0-.45a3.69,3.69,0,0,0-.86-2.09c-.22-.32.09-1,.16-1.54,0-.17.12-.39.06-.51a1.11,1.11,0,0,1,.53-1.56,4.34,4.34,0,0,0,1-2.83,21.53,21.53,0,0,1-.28-2.38c0-.11.07-.26,0-.32-.86-1-.27-2.08-.05-3a16.67,16.67,0,0,0,.08-3c.09-1,.24-2,.27-3a1.49,1.49,0,0,0-.41-1c-.69-.72-.62-.65,0-1.43a2.77,2.77,0,0,0,.73-2.49,31.93,31.93,0,0,1-1-5.46A10.42,10.42,0,0,1,45,89.73c0-.12.08-.36,0-.38-.77-.42-.54-1.26-.74-1.89a2.13,2.13,0,0,1,.37-1.55c.37-.56.84-.86.15-1.62a1.67,1.67,0,0,1-.42-1.88c.25-.51,0-1.27,0-1.91s.06-1.34,0-2-.17-1.18-.26-1.77a5,5,0,0,1-.11-.86c0-.5.12-1,.12-1.49,0-1.84-.55-3.65-.18-5.51a3.59,3.59,0,0,0-.15-1.46c-.25-1.06.17-2.26-.68-3.21-.13-.14,0-.54.08-.82a4.16,4.16,0,0,0,.27-1.09c-.12-1.4-.32-2.8-.49-4.19,0-.13-.13-.3-.09-.39.62-1.1.21-2.3.35-3.44,0-.14.12-.33.06-.39C42.56,53,43,52,42.88,51.11A11.46,11.46,0,0,1,43,48.64a1.73,1.73,0,0,0,0-.54,6.54,6.54,0,0,1-.44-1.72,3.56,3.56,0,0,0-.34-2c-.17-.31.07-.92.26-1.34A1.4,1.4,0,0,0,42,41.27a.7.7,0,0,1-.17-.63,2.42,2.42,0,0,0,.09-2.45c-.1-.18.19-.77.43-.88.48-.22.36-.44.19-.75s-.35-.69-.52-1c-.07-.15-.22-.34-.17-.45.66-1.8-.38-3.61.05-5.44.14-.58.22-1.52-.82-1.79-.11,0-.22-.55-.14-.76a2.41,2.41,0,0,0,0-2.34c-.23-.41.06-1.1.07-1.67,0-1,0-1.93-.06-2.89,0-1.18-.1-2.37-.17-3.55a4.17,4.17,0,0,0-.17-1.37,3.19,3.19,0,0,1,.13-2.36c.28-.82.61-1.85,1.8-1.94.24,0,.48,0,.73,0l1.31,0c.1,0,.23-.05.31,0a2.57,2.57,0,0,0,1.91.35c.5-.1,1.13.33,1.66.6s1,.68,1.59,1a2.73,2.73,0,0,0,.75.17,3.57,3.57,0,0,0-.3-.71,5.44,5.44,0,0,0-.62-.64l.43,0c.17.12.39.21.5.38.6.94,1.17,1.9,1.75,2.85.31.51.82,1,.9,1.52.18,1.29.14,2.6.22,3.9a7.66,7.66,0,0,0,.23,1.11v.32c-.15,1.29-.37,2.58-.42,3.88,0,1.06.13,2.12.15,3.18s-.08,2-.09,3c0,1.64,0,3.27,0,4.91a2.56,2.56,0,0,0,.27.76v.31c-.39.17-.39.35,0,.52v.47c-.09.09-.26.18-.26.27q0,1.64,0,3.28c0,.09.16.19.25.28v.47a12.51,12.51,0,0,0-.42,2.24c0,1.87.17,3.74.11,5.6,0,1.25.42,2.54-.41,3.78a3.73,3.73,0,0,0-.2,2A4.52,4.52,0,0,0,53.3,58c0,.11.16.26.12.32a3.36,3.36,0,0,0-.22,2.22c.11,1.27.28,2.54.32,3.82,0,1-.09,2.06-.13,3.1-.06,1.37-.19,2.74-.14,4.1,0,.81-.58,1.66.1,2.47.07.08-.19.44-.3.67-.11-.16-.3-.31-.32-.48-.06-.61-.39-.81-.95-.76-.68-1.31-1.34-2.63-2-3.94-.07-.14-.28-.22-.42-.32a2,2,0,0,0,.07.53c.57,1.33,1.14,2.67,1.74,4a1.74,1.74,0,0,1,0,1.71c-.52.94-1,1.92-1.4,2.89a8.62,8.62,0,0,0-.33,1,6.48,6.48,0,0,0,.77-.81c.56-.84,1.09-1.7,1.62-2.56a6.49,6.49,0,0,0,.85.54c.8.36.54.77.11,1.23a6.3,6.3,0,0,0-.46.64l-.19.18h0c-.07,0-.17.07-.2.13-.82,1.4-1.64,2.79-2.42,4.21a1,1,0,0,0,.08.81c.73,1.41,1.49,2.81,2.25,4.21.09.17.3.28.45.41a5.6,5.6,0,0,1,.16.89c.07,2.75.11,5.49.19,8.24a4.7,4.7,0,0,0,.27,1,3.56,3.56,0,0,0,.34-1c0-3.72,0-7.43,0-11.15,0-.34-.18-.85.49-.79q0,14.42-.07,28.83,0,9.5-.07,19c0,4.57,0,9.15,0,13.72a4.18,4.18,0,0,1-.93,2.8c-.44.55-.93,1.06-1.4,1.59a3.6,3.6,0,0,1,.15-.54c.23-.53.5-1,.72-1.57a2,2,0,0,0,.06-.55c-.1.13-.21.26-.29.41a4.23,4.23,0,0,0-.21.45A7.19,7.19,0,0,1,45.83,154c-.4.07-1.15-.26-1.39.5a1.42,1.42,0,0,0-.3-.06c-.21,0-.49,0-.62.14-1.31,1.22-3.2.33-4.57,1.3,0,0-.05,0-.08,0-1.12.17-2.24.31-3.34.54-.29.06-.53.39-.8.6l.78.36c.07,0,.17,0,.23.07a4,4,0,0,1,.34.3,1.85,1.85,0,0,1-.35.13c-.81.12-1.63.2-2.43.35-.31.06-.76.2-.86.43a3.18,3.18,0,0,0,0,1.19l-.67,0c-.66-.88-1.28-.78-2.14-.29-.54.31-1.44.05-2.17,0a12.84,12.84,0,0,1-1.6-.39c-.1,0-.25,0-.31-.07-.79-.88-1.89-.56-2.85-.7-2.16-.32-4.33-.56-6.5-.82-1.21-.14-2.43-.17-3.62-.4a17.94,17.94,0,0,1-2.46-.89c-.4-.14-.81-.24-1.22-.35h0l-.15-.31-.15.24A15.85,15.85,0,0,1,3.43,151Zm48.73-50.42-.39-.34a1.31,1.31,0,0,0-.21.4,2.71,2.71,0,0,0,0,.89c0,.1.32.13.49.19a5.47,5.47,0,0,0,0,.66,1.59,1.59,0,0,0,.17.38,1.18,1.18,0,0,0,.13-.35c0-.63,0-1.26,0-1.89ZM49.09,87.47l-.05,0,.06,0c.63,1.4,1.23,2.81,1.89,4.19a1.69,1.69,0,0,1,0,1.63c-.58,1.15-1.09,2.33-1.62,3.51a4.89,4.89,0,0,0-.2.67c.22-.17.53-.29.64-.51.73-1.38,1.43-2.77,2.11-4.18a.9.9,0,0,0,0-.7c-.65-1.32-1.32-2.64-2-3.93C49.75,87.86,49.37,87.69,49.09,87.47ZM52.27,38.6a2.84,2.84,0,0,0-.06-.6Q51,35,49.72,32.1c-.05-.12-.23-.18-.35-.27a1.29,1.29,0,0,0,0,.44c.65,1.72,1.34,3.42,2,5.15a1.72,1.72,0,0,1-.07,1.21c-.55,1.13-1.21,2.22-1.8,3.33-.07.13,0,.33,0,.5.14-.06.33-.09.42-.2.57-.73,1.16-1.45,1.67-2.21A11.78,11.78,0,0,0,52.27,38.6Zm-.62-19.14a6.16,6.16,0,0,1-.33.74c-.54.89-1.12,1.76-1.65,2.66a2.71,2.71,0,0,0-.19.74c.25-.12.59-.18.75-.38.69-.85,1.35-1.73,2-2.63a1,1,0,0,0,.13-.76c-.82-2.09-1.68-4.17-2.53-6.24,0-.11-.17-.18-.26-.28a1.11,1.11,0,0,0,0,.42c.38,1,.79,2,1.17,3.07C51,17.66,51.33,18.54,51.65,19.46Zm.58,37.13a1.21,1.21,0,0,0,0-.29c-.82-1.85-1.64-3.7-2.48-5.55-.05-.11-.24-.16-.37-.24a1.81,1.81,0,0,0,.06.46c.64,1.61,1.31,3.2,1.91,4.82a1.61,1.61,0,0,1-.09,1.13c-.56,1.19-1.21,2.34-1.8,3.52a1.35,1.35,0,0,0,0,.51c.13-.08.32-.13.39-.25q1.16-1.79,2.28-3.61A2.12,2.12,0,0,0,52.24,56.59Zm.07-14.29a3.7,3.7,0,0,0-.42.4c-.79,1.14-1.58,2.29-2.35,3.45a.74.74,0,0,0,0,.61c.78,1.72,1.59,3.43,2.39,5.14,0,.1.17.16.26.24a1,1,0,0,0,0-.31c-.44-1.38-.82-2.78-1.34-4.13A2.18,2.18,0,0,1,51,45.62a29.29,29.29,0,0,0,1.27-2.76A2,2,0,0,0,52.31,42.3Zm-3,94.76a2.79,2.79,0,0,0,.24.53q1.08,1.45,2.19,2.89a1.71,1.71,0,0,0,.36.27c0-.16.07-.34,0-.46-.48-1-1-1.94-1.46-2.94a2.06,2.06,0,0,1-.09-1.29c.43-1.5.95-3,1.42-4.47,0-.1,0-.22-.06-.33a1.54,1.54,0,0,0-.19.25c-.66,1.43-1.33,2.87-2,4.31C49.61,136.21,49.49,136.63,49.35,137.06ZM52.37,24a3.26,3.26,0,0,0-.33.28c-.82,1-1.65,2.06-2.44,3.11a.81.81,0,0,0,0,.67c.74,1.8,1.5,3.59,2.27,5.38a2.16,2.16,0,0,0,.27.38,1.42,1.42,0,0,0,0-.49c-.46-1.51-.91-3-1.41-4.51a1.58,1.58,0,0,1,.18-1.46c.52-.87.95-1.79,1.39-2.71A2.13,2.13,0,0,0,52.37,24Zm-.21,36.37-.29.41c-.74,1.18-1.5,2.35-2.2,3.56a1.29,1.29,0,0,0-.07,1c.67,1.44,1.42,2.85,2.14,4.26A2.48,2.48,0,0,0,52,70a1.36,1.36,0,0,0,0-.48A30.53,30.53,0,0,0,50.85,66a2.1,2.1,0,0,1,.1-2.12,29.58,29.58,0,0,0,1.26-2.94C52.25,60.79,52.18,60.62,52.16,60.33Zm-2.9,54.94.12,0a3,3,0,0,0,.23-.31c.43-.76.88-1.52,1.29-2.3.91-1.73,1.57-3.46.09-5.24-.58-.7-1.1-1.44-1.67-2.14-.06-.08-.24-.07-.36-.1s0,.17,0,.23c.66,1.25,1.31,2.5,2,3.73a1.56,1.56,0,0,1,.07,1.55c-.6,1.32-1.14,2.68-1.69,4A2.49,2.49,0,0,0,49.26,115.27Zm2.12,12.37c-.1.29-.19.55-.29.81-.58,1.48-1.17,3-1.74,4.44a1.25,1.25,0,0,0,0,.42c.08-.07.19-.12.23-.21q1.24-2.8,2.45-5.62A.6.6,0,0,0,52,127q-1.06-1.75-2.16-3.48c-.09-.14-.3-.19-.46-.28a1.76,1.76,0,0,0,.08.53c.56,1.16,1.15,2.31,1.72,3.46C51.22,127.37,51.31,127.5,51.38,127.64ZM52,106a1.88,1.88,0,0,0,0-.54c-.48-1.2-.95-2.4-1.48-3.57a1.4,1.4,0,0,1,0-1.3c.56-1.28,1-2.61,1.52-3.92,0-.12,0-.29-.05-.43a1.3,1.3,0,0,0-.21.24C51,98,50.18,99.48,49.39,101a.64.64,0,0,0,0,.52c.78,1.36,1.58,2.7,2.38,4C51.81,105.68,51.89,105.76,52,106Zm-2.6,45.36.16,0a6.2,6.2,0,0,0,.53-.9q1-2.6,1.95-5.23a.64.64,0,0,0-.06-.51q-1.07-1.45-2.19-2.86c-.11-.14-.34-.18-.52-.27a2,2,0,0,0,.14.6c.51.88,1,1.76,1.59,2.59a1.4,1.4,0,0,1,.16,1.45c-.58,1.53-1.12,3.09-1.67,4.63A3,3,0,0,0,49.44,151.32Zm2.77-28.59A29.45,29.45,0,0,0,50.93,120a2.22,2.22,0,0,1-.21-2.39A28.61,28.61,0,0,0,52,114a1.18,1.18,0,0,0,0-.42,2.14,2.14,0,0,0-.23.32c-.74,1.56-1.47,3.12-2.19,4.7a.89.89,0,0,0-.07.69c.76,1.24,1.56,2.45,2.36,3.67,0,.07.17.1.26.15ZM49,37.3l.85,1.06c.16-.25.49-.54.45-.76a4.69,4.69,0,0,0-.58-1.17Zm1.59-18.43-.83-1.16a3,3,0,0,0-.39.88c0,.47,0,1,.66,1C50.21,19.61,50.38,19.21,50.62,18.87Zm-.13,37.2-.78-1c-.15.29-.44.58-.42.86a2.91,2.91,0,0,0,.49,1ZM48.9,92.61l.57.94c.2-.28.54-.55.56-.84s-.27-.63-.42-.95Zm1.41,17.79-.64-.93a3.43,3.43,0,0,0-.54,1c0,.24.23.54.36.81ZM49,74.47l.66.91c.18-.31.49-.62.49-.92s-.34-.59-.53-.88Zm0,72,.54.82c.21-.29.53-.57.58-.89s-.23-.59-.36-.88Zm1.23-18.11-.5-.82a4.58,4.58,0,0,0-.61,1.05c-.05.18.24.46.37.7Zm2.05-10.13-.55-.77a3.27,3.27,0,0,0-.36.94c0,.24.21.5.33.75Zm-.78-71.08.53.93c.09-.23.28-.47.26-.69a4.65,4.65,0,0,0-.34-1Zm1.64,56.35h0c0-.3,0-.61,0-.91a.82.82,0,0,0-.12-.27c-.06.07-.15.14-.16.22a9.38,9.38,0,0,0-.16,1.3,4.42,4.42,0,0,0,.16.9c.1-.31.21-.61.3-.92A1.24,1.24,0,0,0,53.22,103.48ZM51.3,136l.41.78a3.07,3.07,0,0,0,.41-.88c0-.25-.16-.52-.26-.79ZM52.55,28.88,52,28c-.09.26-.28.54-.24.78a3.76,3.76,0,0,0,.41.95Zm-.16,36.37L52,64.41a2.78,2.78,0,0,0-.23.79A2.64,2.64,0,0,0,52,66Z" transform="translate(-0.18 -0.25)"/><path class="cls-3" d="M28.26,3.82a74.68,74.68,0,0,0-11.82.76A35.81,35.81,0,0,0,7.84,7,22.5,22.5,0,0,0,5.62,8.21C4.53,8.27,4.15,9.3,3.41,9.85a2.17,2.17,0,0,0-.52.85c-.3.67-.58,1.35-.86,2C2,11.36,1.85,10,1.85,8.64a4.82,4.82,0,0,1,.43-1.37l0,0,0,.62-.08.25L2.36,8l.28-.86h0L4,5.9l.17-.25h0a.79.79,0,0,0,.3-.06,24.61,24.61,0,0,1,7.92-3.32A46.29,46.29,0,0,1,21.95.81l.36.07h.82l1,0a6.28,6.28,0,0,0,4,.87c1.6,0,3.2-.33,4.8-.44a1.75,1.75,0,0,0,1.5-.79l2,.27c-.13.24-.21.61-.4.7A13,13,0,0,1,34.33,2c-.21.06-.41.14-.61.22l.46.2a2.27,2.27,0,0,0,.6.23c1.9.18,3.83.23,5.71.55,2.07.35,4.11.91,6.15,1.44a12,12,0,0,1,1.75.82c.43.19.87.35,1.32.5,0,0,.19-.09.18-.12a1.21,1.21,0,0,0-.13-.35c-.13-.24-.26-.47-.39-.71.09,0,.21-.06.27,0,1.92,1.37,3.16,3.11,3,5.6,0,.3-.05.6-.08.9-.34-.11-.68-.22-1-.35a1.9,1.9,0,0,1-.37-.27l-.19.49c0,.12-.08.23-.12.35-.09-.09-.22-.16-.27-.26-.17-.33-.3-.69-.47-1s-.45-.84-.67-1.26c.22-.23.45-.45.66-.69s.49-.57.72-.87c.06-.07,0-.2.06-.3s-.21,0-.29,0c-1,.47-2,.81-2.5,1.89-.48-.25-1-.49-1.43-.77-.63-.36-1.25-.74-1.85-1.14a6.37,6.37,0,0,1-.72-.68c-.14-.13-.27-.32-.43-.36-2.1-.52-4.19-1.17-6.32-1.49-2.64-.39-5.33-.49-8-.72ZM10.17,5l-.08-.16c-1.41.64-2.85,1.23-4.23,1.94a20,20,0,0,0-2.34,1.6c-.07.05-.06.22-.09.33a.82.82,0,0,0,.29-.09,21.51,21.51,0,0,1,6.52-3.39A2.8,2.8,0,0,0,10.57,5Z" transform="translate(-0.18 -0.25)"/><path class="cls-1" d="M32.41,159.83a3.18,3.18,0,0,1,0-1.19c.1-.23.55-.37.86-.43.8-.15,1.62-.23,2.43-.35a1.85,1.85,0,0,0,.35-.13,4,4,0,0,0-.34-.3c-.06,0-.16,0-.23-.07l-.78-.36c.26-.21.5-.54.8-.6,1.1-.23,2.23-.37,3.34-.54,0,0,.06,0,.08,0,1.37-1,3.26-.09,4.57-1.3.13-.12.41-.11.62-.14a1.42,1.42,0,0,1,.3.06c.23-.76,1-.43,1.39-.5a7.19,7.19,0,0,0,5.83-4.35,4.23,4.23,0,0,1,.21-.45c.08-.14.19-.27.29-.41a2,2,0,0,1-.06.55c-.22.53-.49,1-.72,1.57a3.6,3.6,0,0,0-.15.54,11.18,11.18,0,0,0-1.08,1.17,13.28,13.28,0,0,1-6.82,4.94A47,47,0,0,1,32.41,159.83Zm4.94-2.29.17-.11-.17.12,0,.05Z" transform="translate(-0.18 -0.25)"/><path class="cls-2" d="M53.71,85.48c-.68-.06-.49.45-.49.79,0,3.72,0,7.43,0,11.15a3.56,3.56,0,0,1-.34,1,4.7,4.7,0,0,1-.27-1c-.08-2.75-.12-5.49-.19-8.24a5.6,5.6,0,0,0-.16-.89L52,87.14a5.48,5.48,0,0,0,.2-3.35l-.15-1.45c.12-.58.27-1.16.34-1.75a4.27,4.27,0,0,0-.08-.94l-.58.55.34-1.65h0l.19-.18a6.3,6.3,0,0,1,.46-.64c.42-.46.69-.87-.11-1.23a6.34,6.34,0,0,1-.85-.55,2.72,2.72,0,0,0,0-2.53c.55,0,.89.16.95.76,0,.17.21.32.32.48.11-.23.37-.59.3-.67-.67-.81-.06-1.66-.1-2.47-.05-1.36.08-2.73.14-4.1,0-1,.17-2.07.13-3.1,0-1.27-.21-2.54-.32-3.82a3.36,3.36,0,0,1,.22-2.22c0-.06-.09-.21-.12-.32a4.52,4.52,0,0,1-.38-1.2,3.73,3.73,0,0,1,.2-2c.83-1.24.36-2.53.41-3.78.06-1.86-.12-3.73-.11-5.6a12.51,12.51,0,0,1,.42-2.24c0,4.24,0,8.47,0,12.71q0,7.35,0,14.69C53.8,75.53,53.75,80.5,53.71,85.48Z" transform="translate(-0.18 -0.25)"/><path class="cls-4" d="M2,12.72c.29-.67.56-1.35.86-2a2.17,2.17,0,0,1,.52-.85c.73-.55,1.12-1.58,2.21-1.64.33.71.85.47,1.26.17A2.79,2.79,0,0,1,10.21,8a.59.59,0,0,0,.22.08l1.06.1c-.2.36-.39.73-.59,1.09a1.08,1.08,0,0,1-.24.22L9.85,8.9a1,1,0,0,0-1.53.29c-.34.64-.59,1.33-.87,2-.21.17-.43.48-.64.48-1.11,0-1.81.82-2.6,1.36a29.11,29.11,0,0,0-2.72,2.35c-.42.37-.51.38-.78,0Z" transform="translate(-0.18 -0.25)"/><path class="cls-1" d="M49.35,4.77c.13.24.27.47.39.71a1.21,1.21,0,0,1,.13.35s-.14.13-.18.12c-.44-.16-.89-.31-1.32-.5a12,12,0,0,0-1.75-.82c-2-.53-4.07-1.09-6.15-1.44-1.88-.32-3.81-.36-5.71-.55a2.27,2.27,0,0,1-.6-.23l-.46-.2c.2-.07.4-.16.61-.22A13,13,0,0,0,36,1.53c.2-.08.27-.46.4-.7a34.57,34.57,0,0,1,11,2.69A15.58,15.58,0,0,1,49.26,4.7h-.14v0l.16,0,.06,0Z" transform="translate(-0.18 -0.25)"/><path class="cls-4" d="M24.1.92l-1,0h-.82L21.95.81a46.29,46.29,0,0,0-9.57,1.47A24.61,24.61,0,0,0,4.46,5.6a.79.79,0,0,1-.3.06l0-.21A44.18,44.18,0,0,1,8.18,3.19,32.82,32.82,0,0,1,17.53.88C19.7.63,21.87.46,24,.25c.24,0,.48.06.72.07,1.67.06,3.33.1,5,.19a3.06,3.06,0,0,1,.91.37,4.52,4.52,0,0,1-.91.17C27.88,1,26,1,24.1.92Z" transform="translate(-0.18 -0.25)"/><path class="cls-2" d="M24.1.92C26,1,27.88,1,29.76,1a4.52,4.52,0,0,0,.91-.17,3.06,3.06,0,0,0-.91-.37c-1.66-.09-3.33-.13-5-.19-.24,0-.48,0-.72-.07L34.39.56a1.75,1.75,0,0,1-1.5.79c-1.61.1-3.21.45-4.8.44A6.28,6.28,0,0,1,24.1.92Z" transform="translate(-0.18 -0.25)"/><path class="cls-2" d="M49.39,8.93c.22.42.46.83.67,1.26s.3.69.47,1c.05.11.18.18.27.26,0-.12.07-.24.12-.35l.19-.49a1.9,1.9,0,0,0,.37.27c.33.13.68.24,1,.35a2.14,2.14,0,0,0,.13,2.31c1.66,2.45,1.58,5.19,1.29,8a7.67,7.67,0,0,1-.23-1.11c-.08-1.3,0-2.62-.22-3.9-.07-.54-.59-1-.9-1.52-.58-1-1.15-1.91-1.75-2.85-.1-.16-.33-.25-.5-.38a10.45,10.45,0,0,0-.81-1.22A1.14,1.14,0,0,1,49.39,8.93Z" transform="translate(-0.18 -0.25)"/><path class="cls-2" d="M53.85,37.56a2.56,2.56,0,0,1-.27-.76c0-1.64,0-3.27,0-4.91,0-1,.1-2,.09-3s-.2-2.13-.15-3.18c.06-1.3.28-2.58.42-3.88,0,1.62.07,3.23.06,4.85,0,3.43-.06,6.87-.1,10.3C53.89,37.18,53.86,37.37,53.85,37.56Z" transform="translate(-0.18 -0.25)"/><path class="cls-3" d="M.91,63.51c.14-.62.27-1.24.41-1.85a3.77,3.77,0,0,1,.19-.5,1.77,1.77,0,0,1,.12.56c-.13,1.11-.28,2.22-.43,3.33a1.09,1.09,0,0,0,0,.32c.48,2.45-.35,5,.35,7.42a1.93,1.93,0,0,1,0,.59l-.45-.31Z" transform="translate(-0.18 -0.25)"/><path class="cls-3" d="M1,47.47c0,1,.08,2.07.09,3.11,0,.17-.21.33-.32.5l0-5.44c.1-.58.2-1.16.32-1.74a3.71,3.71,0,0,1,.22-.58,2.4,2.4,0,0,1,.08.58c-.11,1-.26,2-.37,3a1.45,1.45,0,0,0,.08.42A.89.89,0,0,0,1,47.47Z" transform="translate(-0.18 -0.25)"/><path class="cls-3" d="M1.82,86.47H1.34v-.32l0-.66,0-3.84h.37l.19,4.82Z" transform="translate(-0.18 -0.25)"/><path class="cls-1" d="M1.12,55.28c.71,1.51.24,3,0,4.52l-.21,0,0-1.1L1,56.53.85,55.25Z" transform="translate(-0.18 -0.25)"/><path class="cls-1" d="M.65,37.86c.84,1.08.43,2.28.31,3.45H.65q0-.36,0-.73l.17-.71-.26-1Z" transform="translate(-0.18 -0.25)"/><path class="cls-1" d="M1.46,93.91c.11-.65.24-1.29.31-1.94a5,5,0,0,0-.11-1,.91.91,0,0,1,0-.23l.1.11c.54.66.38,2.94-.27,3.7Z" transform="translate(-0.18 -0.25)"/><path class="cls-2" d="M53.84,42.68c-.09-.09-.25-.19-.25-.28q0-1.64,0-3.28c0-.09.17-.18.26-.27Z" transform="translate(-0.18 -0.25)"/><path class="cls-3" d="M2,125a3.85,3.85,0,0,1,0,3.62Z" transform="translate(-0.18 -0.25)"/><path class="cls-3" d="M1.85,118.57c.21,1.36.42,2.72.62,4.08a1.2,1.2,0,0,1-.07.37,1.43,1.43,0,0,1-.18-.35c-.13-.66-.25-1.32-.37-2Z" transform="translate(-0.18 -0.25)"/><path class="cls-3" d="M1.8,108.31a2.25,2.25,0,0,1,.32,2.43.71.71,0,0,1-.19.12l-.14-.46Z" transform="translate(-0.18 -0.25)"/><path class="cls-3" d="M.37,32.1c.11.13.29.24.32.39.18.77.32,1.55.47,2.32a.88.88,0,0,1-.06.31C1,35,.88,35,.84,34.86c-.15-.43-.27-.86-.4-1.3Z" transform="translate(-0.18 -0.25)"/><path class="cls-1" d="M1.63,81.65H1.26l0-.58c.09-.21.2-.42.28-.64C1.68,80,1.83,79.5,2,79H2Z" transform="translate(-0.18 -0.25)"/><path class="cls-3" d="M.65,41.3H1c-.05.77-.11,1.55-.17,2.32,0,0-.13,0-.2,0Z" transform="translate(-0.18 -0.25)"/><path class="cls-3" d="M1.16,76.72c.16.09.46.2.45.26-.12.85-.28,1.69-.43,2.54Z" transform="translate(-0.18 -0.25)"/><path class="cls-2" d="M4.13,5.44l0,.21h0L4,5.9,2.65,7.13l0-.34h0L3,6.46H3l.18-.18h0l.16-.16Z" transform="translate(-0.18 -0.25)"/><path class="cls-3" d="M2.16,134.58c.4.22.69,1.22.44,1.52l-.44-.38Z" transform="translate(-0.18 -0.25)"/><path class="cls-3" d="M1,56.53.92,58.74Z" transform="translate(-0.18 -0.25)"/><path class="cls-3" d="M.89,59.83l.21,0L.87,62.15Z" transform="translate(-0.18 -0.25)"/><path class="cls-3" d="M2.17,137.4c.11.69.22,1.38.31,2.08a2.08,2.08,0,0,1-.07.52l-.22-.48Z" transform="translate(-0.18 -0.25)"/><path class="cls-3" d="M1.83,114.74c0-.1.09-.19.14-.28s.14-.2.21-.29c0,.11.14.24.12.34-.09.48-.21,1-.33,1.43Z" transform="translate(-0.18 -0.25)"/><path class="cls-3" d="M1.12,55.28l-.27,0L.75,53.76Z" transform="translate(-0.18 -0.25)"/><path class="cls-2" d="M.57,38.83l.26,1H.54Z" transform="translate(-0.18 -0.25)"/><path class="cls-3" d="M.54,39.87H.83l-.17.71Z" transform="translate(-0.18 -0.25)"/><path class="cls-2" d="M53.85,38.38c-.39-.17-.39-.35,0-.52Z" transform="translate(-0.18 -0.25)"/><path class="cls-3" d="M2.64,6.79l0,.34h0l-.32.16,0,0Z" transform="translate(-0.18 -0.25)"/><path class="cls-1" d="M8.61,155.86l.15-.24.15.31Z" transform="translate(-0.18 -0.25)"/><path class="cls-2" d="M1.3,85.48l0,.66Z" transform="translate(-0.18 -0.25)"/><path class="cls-3" d="M3,6.46l-.34.34Z" transform="translate(-0.18 -0.25)"/><path class="cls-3" d="M49.27,4.69l-.16,0v0h.15Z" transform="translate(-0.18 -0.25)"/><path class="cls-3" d="M3.14,6.29,3,6.47Z" transform="translate(-0.18 -0.25)"/><path class="cls-3" d="M3.29,6.14l-.16.16Z" transform="translate(-0.18 -0.25)"/><path class="cls-1" d="M25.28,66.42c-1.76,0-3.52,0-5.28,0s-3.48,0-5.22.09c-.55,0-.65-.16-.72-.68A3.71,3.71,0,0,1,15.95,62c2.57-1.78,5.08-3.67,7.61-5.52a2.73,2.73,0,0,0,.32-.32,2.19,2.19,0,0,0-.45-.08c-2.94.11-5.89.2-8.83.35-.63,0-.84-.15-.81-.76a21.32,21.32,0,0,0,0-2.15c0-.49.12-.7.63-.72,3.11-.11,6.21-.26,9.32-.36,2.18-.07,4.36-.06,6.54-.11.57,0,.81.11.85.76a3.31,3.31,0,0,1-1.7,3.5c-2,1.14-3.78,2.51-5.64,3.81-1,.69-1.93,1.45-2.89,2.18a1.69,1.69,0,0,0-.24.29,3.25,3.25,0,0,0,.37,0c3.11,0,6.22,0,9.33-.09.7,0,.87.2.81.89a10.72,10.72,0,0,0,.09,2.2c.07.63-.38.43-.64.43-1.76,0-3.52,0-5.29,0Z" transform="translate(-0.18 -0.25)"/><path class="cls-1" d="M30.81,33.67c.11,2.35.38,1.81-1.51,2.52-.64.24-1.3.45-1.94.68-.39.14-.52.33-.25.73.4.59.71,1.24,1.13,1.81a1,1,0,0,1,0,1.33c-.42.64-.76,1.34-1.17,2-.23.36-.17.51.24.63,1,.29,1.95.66,2.94.94.5.14.73.35.72.9,0,.8.06,1.59.09,2.39,0,.5,0,.73-.69.48-1.85-.69-3.75-1.22-5.63-1.84-2.11-.69-4.2-1.44-6.32-2.11-1.41-.44-2.86-.77-4.29-1.15-.46-.12-.77-.34-.73-.91.06-.74,0-1.49.06-2.22A1.23,1.23,0,0,1,14,39c2.7-1.33,5.39-2.69,8.15-3.88C24.7,34,27.37,33,30,32c.64-.25.86-.06.82.6C30.79,33,30.81,33.45,30.81,33.67Zm-7.25,8.45s.15,0,.19-.11a7.54,7.54,0,0,0,1-1.8c.09-.34-.34-.81-.53-1.22,0-.1-.08-.24-.16-.28-.26-.12-.57-.32-.79-.26a17.39,17.39,0,0,0-1.89.76c-.83.36-1.66.71-2.49,1.09-.13.06-.22.21-.33.32a3.59,3.59,0,0,0,.45.19c.55.15,1.11.28,1.67.44Z" transform="translate(-0.18 -0.25)"/><path class="cls-1" d="M21.86,80.57c1,0,2.1.06,3.13,0a4.45,4.45,0,0,0,1.81-.6,2.57,2.57,0,0,0,1.28-3.27,2.52,2.52,0,0,0-2.69-1.88c-3.25,0-6.5,0-9.74,0-1.43,0-1.43,0-1.43-1.43q0-.21,0-.41c0-1.8,0-1.77,1.84-1.78,3.3,0,6.61-.12,9.91-.05a5.16,5.16,0,0,1,5,3.29,7.7,7.7,0,0,1,.5,4.72A7.53,7.53,0,0,1,30.26,82a5.73,5.73,0,0,1-4.58,2.1c-3.58.08-7.16,0-10.73.05-.53,0-.67-.2-.67-.67,0-.88,0-1.76,0-2.64l.11-.21,7.25-.1Z" transform="translate(-0.18 -0.25)"/><path class="cls-1" d="M31.18,99.37a4.46,4.46,0,0,1-.88.17c-5.07-.05-10.13-.12-15.2-.17-.59,0-.84-.15-.81-.79a54.3,54.3,0,0,1,.27-6.17c.68-4.14,4.43-4.17,6.65-2.75.65.41,1.13,1.07,1.73,1.56a.94.94,0,0,0,.81.07C26,90.21,28.28,89.14,30.51,88c.71-.36.79-.11.73.51a3.15,3.15,0,0,0,0,.91c.33,1.65-.44,2.47-2,3a40,40,0,0,0-4,1.85.54.54,0,0,0-.28.37c0,.52,1.08,1.6,1.62,1.59,1.26,0,2.53-.08,3.79-.16.54,0,.8.07.77.7,0,.8,0,1.6.05,2.39ZM19.53,96.06v.06c.69,0,1.37,0,2.06,0,.47,0,.71-.06.4-.58a18.17,18.17,0,0,0-1.38-2.33,4.78,4.78,0,0,0-1.78-1.35c-.84-.35-1.53.2-1.66,1.12-.09.67-.21,1.34-.3,2-.11.83.08,1.05.92,1.06Z" transform="translate(-0.18 -0.25)"/><path class="cls-1" d="M28,146.16a4.55,4.55,0,0,1-4.72,4.43,4.75,4.75,0,0,1-4.51-5,4.21,4.21,0,0,1,4.5-4.05A4.78,4.78,0,0,1,28,146.16ZM26.33,149l.17-.17.16-.17.23-.29.11-.2a4.08,4.08,0,0,0-2.73-6.09A3.92,3.92,0,0,0,20,143.36a3.71,3.71,0,0,0-.39,4.31l.18.32.09.21.24.28.25.3.13-.13c-.08-.1-.17-.19-.25-.28l-.22-.28-.12-.21-.17-.32c-.09-.29-.18-.57-.26-.86-.23-.9-.19-.92.71-.86q2.74.16,5.49.26c1.95.07,2,.06,1.18,1.94l-.13.2-.24.28-.14.17-.17.17L26,149l-.27.23-.52.33.64-.2.27-.23Zm-3.92-1.28,1.16-.08a2.43,2.43,0,0,0,.39-.1l-.39-.93c-.1.17-.19.34-.3.5a4.23,4.23,0,0,1-.3.35c-.37-.82-.23.36-.45.12a5,5,0,0,1,.13-.71c0-.08.19-.11.29-.16-.14-.07-.31-.23-.42-.19a2.5,2.5,0,0,1-1.73-.1c-.12,0-.45.1-.46.19a2,2,0,0,0,.06.83c0,.1.25.16.39.21s.39-.76.64,0C21.81,147,22.08,147.68,22.41,147.72Zm.95,2.54,0-.1c.27,0,.55,0,.82-.08.06,0,.11-.1.16-.15s-.14-.12-.19-.11a4,4,0,0,1-2.69-.4.69.69,0,0,0-.22,0c.05.08.09.2.15.22C22.07,149.85,22.72,150,23.36,150.26Zm1.76-3.18-.73-.4c-.08.17-.18.33-.24.5-.2.53.3.44.53.59Zm.68.15L26,147l-.12-.35a3.29,3.29,0,0,0-.53.72c0,.12.15.48.27.49a2.22,2.22,0,0,0,.75-.18c0-.08,0-.2-.08-.24A3.49,3.49,0,0,0,25.8,147.23Zm.4-.43s-.05,0-.05.05a.52.52,0,0,0,.05.11s.05,0,.05-.05A.44.44,0,0,0,26.2,146.8Z" transform="translate(-0.18 -0.25)"/><path class="cls-1" d="M21.47,25.64c0-1.25.06-2.5,0-3.73,0-.43-.5-.82-.77-1.22.78.41.78.41.79-.51s0-1.92,0-2.88a2.27,2.27,0,0,0-.09-.44,1.77,1.77,0,0,0-.38.27c-.45.55-.88,1.12-1.32,1.67a.6.6,0,0,0,.1,1,10.13,10.13,0,0,1,.88.93,10.63,10.63,0,0,1-1.24-.87c-.36-.33-.48-.24-.58.17s-.25,1.07-.39,1.6a1.52,1.52,0,0,1-.12.26,2.23,2.23,0,0,1-.17-.25,4.35,4.35,0,0,1,.64-2.5,16.75,16.75,0,0,0,1.35-1.6c1.21-1.72,1.6-1.75,2.91-.17a8,8,0,0,1,1.8,2.35c.51,1.73,1.48,3.42.93,5.38a8.7,8.7,0,0,1-2.48,4.28,1.91,1.91,0,0,1-2.87.11,7.06,7.06,0,0,1-2.8-6,3.48,3.48,0,0,1,.29-.89l.59.59-.13.13c-.12.1-.35.23-.33.31a21.07,21.07,0,0,0,.76,3.33,4.43,4.43,0,0,0,2.27,2.49c.41.19.67.26.6-.36-.11-1-.19-2.06-.28-3.09Zm2.43-6.45c-.55-.72-1.09-1.44-1.64-2.16a1.48,1.48,0,0,0-.32-.24,1.55,1.55,0,0,0-.11.43c0,1.26.11,2.53.16,3.79l.11.37L22,25.46l.2.4c-.06,1-.14,2-.19,3a3.21,3.21,0,0,0,.12.69,4.56,4.56,0,0,0,.66-.29,7.12,7.12,0,0,0,2.72-6c0-.12-.17-.21-.25-.32l0-.42c-.23-1-.45-1.93-.71-2.88,0-.1-.25-.15-.39-.22Z" transform="translate(-0.18 -0.25)"/><path class="cls-1" d="M17.28,121.83c.25.17,1,.4,1.07.78a1.84,1.84,0,0,1-.68,1.42c-.54.46-.89.63-.06,1.19a1.53,1.53,0,0,1-.22,2.56,5.69,5.69,0,0,1-1.83.65c-.54.11-1.16-.11-1.41.65,0,.09-.28.12-.42.18,0-.16-.08-.33-.13-.49-.11-.34-.38-.72-.3-1s.65-.4.75-.69c.3-.82.47-1.69.71-2.54a2.41,2.41,0,0,1,.29-.76c.11-.15.35-.2.53-.29a4.78,4.78,0,0,1,0,.53c0,.23,0,.47-.06.7l.61-.4a7.55,7.55,0,0,0,.88-.6.72.72,0,0,0,.26-.54.7.7,0,0,0-.46-.38,3.34,3.34,0,0,0-2.68.74,6,6,0,0,1-.92.37,4.48,4.48,0,0,1,.6-.84A5.51,5.51,0,0,1,17.28,121.83Zm-1.77,6a6.65,6.65,0,0,0,.73-.1,1.09,1.09,0,0,0,.94-1.18c0-.52-1-1.48-1.57-1.39-.19,0-.3.63-.43,1s-.15.59-.28.86C14.58,127.7,14.79,127.94,15.51,127.86Z" transform="translate(-0.18 -0.25)"/><path class="cls-1" d="M23.8,124.32c.45-.43.88-.88,1.35-1.29a1.58,1.58,0,0,1,.73-.34c.17,0,.37.12.56.19a3.46,3.46,0,0,1-.33.42,5.2,5.2,0,0,1-.49.37h0a5.26,5.26,0,0,0-2.46,2.74,2.15,2.15,0,0,1-.27.59,3.84,3.84,0,0,1-.68.47c0-.24,0-.49-.05-.73a2.56,2.56,0,0,1,.08-.32,3,3,0,0,0,0-.36,3,3,0,0,0-.26.19,6.08,6.08,0,0,1-1.15,1,3.14,3.14,0,0,1-1.66.43,1,1,0,0,1-.8-1.3,3.2,3.2,0,0,1,2-2.32,1.1,1.1,0,0,1,1,.16,1,1,0,0,1-.05.94,12.73,12.73,0,0,1-1.46,1.13,3.74,3.74,0,0,0-.45.5c.26.12.59.41.76.33a3.57,3.57,0,0,0,1.25-.89c.55-.67,1-1.45,1.5-2.14a4.55,4.55,0,0,1,.83-.69l.09.93-.08.05h0A.22.22,0,0,0,23.8,124.32Zm-3.91,1.61.75-1c-.09-.06-.26-.19-.27-.17-.29.3-.56.63-.84.94Z" transform="translate(-0.18 -0.25)"/><path class="cls-1" d="M28.58,125.47a21.4,21.4,0,0,1,.21-3c.06-.32.73-.52,1.12-.78a1.55,1.55,0,0,1,.11.55c-.18.94-.42,1.87-.58,2.82a3.07,3.07,0,0,0,.12.91,3.46,3.46,0,0,0,.64-.68c.49-.92.92-1.86,1.38-2.79a1.47,1.47,0,0,1,.33-.55,3.68,3.68,0,0,1,.78-.34,2.91,2.91,0,0,1,0,.76c-.35,1.74-.73,3.48-1.1,5.21,0,.13,0,.3-.11.39-.25.27-.53.5-.8.75a3.09,3.09,0,0,1-.11-.95c.2-1,.48-2,.71-3a3.18,3.18,0,0,0,0-.56,5,5,0,0,0-.33.41,7.63,7.63,0,0,1-.91,1.36,1.52,1.52,0,0,1-1.13.38c-.23,0-.38-.56-.57-.86Z" transform="translate(-0.18 -0.25)"/><path class="cls-1" d="M39.84,112.64a10,10,0,0,1,0,1.07c0,.16-.14.42-.26.44A.9.9,0,0,1,39,114c-.13-.08-.2-.26-.32-.37a4.53,4.53,0,0,0-.45-.32,4.23,4.23,0,0,1-.3.53c-.15.2-.34.38-.51.57-.12-.21-.32-.41-.34-.63a16.41,16.41,0,0,1,0-1.9c0-.19.13-.52.22-.53a.91.91,0,0,1,.64.2,9.38,9.38,0,0,1,.75.87,2.09,2.09,0,0,0,.3.24,2,2,0,0,1,.05-.31c.14-.4-.38-1.2.43-1.15s.2.81.34,1.22a.78.78,0,0,1,0,.25ZM38,112.8s0,0,0,.05,0,0,0,.05,0,0,0-.05S38,112.82,38,112.8Z" transform="translate(-0.18 -0.25)"/><path class="cls-1" d="M26.88,113.16c0-1.83-.38-1.5,1.52-1.52a1.46,1.46,0,0,1,1.54,1.57,1.57,1.57,0,0,1-1.59,1.53C27,114.8,27,114.8,26.88,113.16Zm.57-.06c.34.43.51.85.73.88a.72.72,0,0,0,.9-.79c0-.53-.31-.85-.82-.76C28,112.47,27.81,112.78,27.45,113.1Z" transform="translate(-0.18 -0.25)"/><path class="cls-1" d="M31.13,113.14c0-1.61.23-1.84,1.84-1.61a1.12,1.12,0,0,1,.71,1.78,1.29,1.29,0,0,0-.13.68,1.78,1.78,0,0,0,.21.53,4.66,4.66,0,0,1-.84-.12c-.13,0-.19-.26-.31-.37-.29-.27-.55-.45-.61.18,0,.16-.27.29-.41.43-.15-.17-.37-.33-.42-.53A4.54,4.54,0,0,1,31.13,113.14ZM32.51,112c-.25.27-.52.42-.53.59s.29.46.42.44a2.06,2.06,0,0,0,.68-.39Z" transform="translate(-0.18 -0.25)"/><path class="cls-1" d="M20,113.75c.4,1.47-.8.78-1.22.88a1.46,1.46,0,0,1-1.58-1.06,1.37,1.37,0,0,1,.43-1.78,3.29,3.29,0,0,1,1.67-.13c.15,0,.28.36.41.56a2.11,2.11,0,0,1-.71.06c-.49-.13-1-.09-1.08.41a1.78,1.78,0,0,0,.35,1.07c.07.12.4.14.6.11s.23-.19.34-.3a1.38,1.38,0,0,1-.32-.15,3.45,3.45,0,0,1-.34-.36,1.41,1.41,0,0,1,.43-.25C19.79,112.68,20.27,112.89,20,113.75Z" transform="translate(-0.18 -0.25)"/><path class="cls-1" d="M13.74,112.7a1.35,1.35,0,0,1,0-.25c.07-.4.16-.79.24-1.19a6.1,6.1,0,0,1,1.84.46c.5.31.43.94.13,1.49a1.4,1.4,0,0,0-.08.7,2.3,2.3,0,0,0,.15.53,7,7,0,0,1-.75-.22c-.08,0-.1-.19-.17-.27s-.26-.25-.4-.38a3.09,3.09,0,0,1-.2.46c-.07.11-.25.3-.29.28s-.4-.23-.42-.38a8.82,8.82,0,0,1,0-1.23Zm2-.26a3.51,3.51,0,0,0-.91-.45c-.11,0-.38.34-.34.43a.79.79,0,0,0,.49.42C15.09,112.87,15.29,112.67,15.71,112.44Z" transform="translate(-0.18 -0.25)"/><path class="cls-1" d="M40.93,112.45a7,7,0,0,1,0-1.07c0-.16.23-.29.36-.43a2.14,2.14,0,0,1,.35.34,1.1,1.1,0,0,1,.09.37,3.5,3.5,0,0,0,.35-.29c.13-.14.21-.35.37-.43a1.92,1.92,0,0,1,.61-.1c-.07.16-.09.36-.21.47-.73.67-.4,1.25.09,1.86a2.27,2.27,0,0,1,.25.7c-.26,0-.58,0-.77-.12s-.53-.51-.71.11c0,.1-.4.16-.6.14s-.15-.3-.17-.47c0-.36,0-.71,0-1.07Z" transform="translate(-0.18 -0.25)"/><path class="cls-1" d="M11,111a13.71,13.71,0,0,1,1.39.17c.14,0,.24.27.36.41a2.55,2.55,0,0,1-.43.31c-.08,0-.22-.07-.32,0a3.8,3.8,0,0,0-.53.22,3.77,3.77,0,0,0,.46.23,3.13,3.13,0,0,1,.54.14.4.4,0,0,1,0,.36,1.87,1.87,0,0,1-.49.17l-.53.19a4.63,4.63,0,0,0,.54.27c.13,0,.3,0,.4,0s.32.23.32.36-.19.38-.29.38A4.37,4.37,0,0,1,11,114c-.16-.06-.18-.57-.2-.87,0-.6,0-1.21,0-1.82Z" transform="translate(-0.18 -0.25)"/><path class="cls-1" d="M8.26,110.78c.27.24.44,1.3.9.11.2.1.55.18.56.3.09.76.12,1.53.15,2.29,0,.11-.09.23-.13.35-.14-.06-.34-.08-.41-.18-.24-.37-.44-.76-.65-1.14a1,1,0,0,0-.15-.17,1.34,1.34,0,0,0-.11.25c-.09.38-.17.75-.25,1.13a7.94,7.94,0,0,1-.29-1.17c-.06-.57,0-1.15,0-1.73Z" transform="translate(-0.18 -0.25)"/><path class="cls-1" d="M25.62,123.66a1.26,1.26,0,0,0,1.61-.45.64.64,0,0,1,.43-.22,4.53,4.53,0,0,1,.76.06c-.16.18-.28.42-.47.53a5.49,5.49,0,0,0-2.15,2.53,3.72,3.72,0,0,1-.29.58,1.29,1.29,0,0,1-.38.24c-.05-.14-.17-.29-.15-.42.2-1,.43-1.91.66-2.86Z" transform="translate(-0.18 -0.25)"/><path class="cls-1" d="M23.92,111.74c-.15.26-.28.47-.39.69-.33.61-.87,1.15-.72,2,0,.09-.23.33-.32.31s-.46-.21-.45-.3c.11-.92-.51-1.53-.9-2.24a2.6,2.6,0,0,1-.16-.54,3.83,3.83,0,0,1,.71.08c.11,0,.2.19.25.31.31.66.55.66.91,0,.12-.21.51-.28.79-.38C23.72,111.61,23.82,111.7,23.92,111.74Z" transform="translate(-0.18 -0.25)"/><path class="cls-1" d="M5.7,111.71a6.59,6.59,0,0,1,0-.74c0-.22.07-.62.16-.63a2,2,0,0,1,1,.06c.11,0,.12.48.09.72-.06.46-.23.9-.27,1.35,0,.11.29.24.41.39a1.37,1.37,0,0,1,.13.43,1.85,1.85,0,0,1-.37.1c-.9,0-1.14-.18-1.14-1.11,0-.19,0-.38,0-.58Z" transform="translate(-0.18 -0.25)"/><path class="cls-1" d="M49.39,8.93a1.14,1.14,0,0,0,.14,1.61,10.45,10.45,0,0,1,.81,1.22l-.43,0c-.5-.64-1-1.28-1.49-1.94A4,4,0,0,1,48.06,9c.49-1.08,1.55-1.42,2.5-1.89.08,0,.19,0,.29,0s0,.22-.06.3c-.23.3-.47.59-.72.87S49.62,8.7,49.39,8.93Z" transform="translate(-0.18 -0.25)"/><path class="cls-1" d="M28,108.57a1,1,0,0,1,0-.25c.07-.29.15-.58.23-.87.26.18.52.35.76.54s.32.27.48.41a3.1,3.1,0,0,1,.1-.59,1.83,1.83,0,0,1,.29-.4c.11.12.3.24.31.37a12.58,12.58,0,0,1,0,1.4c0,.52-.3.54-.64.29a4.05,4.05,0,0,1-.49-.55,3.08,3.08,0,0,0-.31-.26,2.21,2.21,0,0,1-.12.36c-.11.21-.24.4-.37.6-.1-.24-.21-.48-.29-.72A1,1,0,0,1,28,108.57Z" transform="translate(-0.18 -0.25)"/><path class="cls-1" d="M21.66,108.69c0-1.14.59-1.55,1.57-1.2.1,0,.16.27.17.42a6.28,6.28,0,0,0,0,1.2c.1.41.07.58-.37.55a1.58,1.58,0,0,0-.33,0C21.83,109.77,21.42,109.48,21.66,108.69Z" transform="translate(-0.18 -0.25)"/><path class="cls-1" d="M27.67,135.11c-.11-.48.08-.66.61-.66s.57.24.47.67c0,.15.11.34.17.51.13-.16.35-.32.36-.49,0-.58.45-1,.88-.65.25.19.22.78.26,1.19,0,.05-.28.19-.44.2-.57,0-1.15,0-1.72,0S27.63,135.57,27.67,135.11Zm2.54.36c-.06,0-.11-.1-.15-.1a.83.83,0,0,0-.21.07s.08.08.12.08A1.06,1.06,0,0,0,30.21,135.48Z" transform="translate(-0.18 -0.25)"/><path class="cls-1" d="M26.88,109.52c-.19.06-.4.19-.45.14a.9.9,0,0,0-1.37,0,.37.37,0,0,1-.36,0,.42.42,0,0,1,0-.37,9.47,9.47,0,0,1,.64-1.49.83.83,0,0,1,.67-.13C26.29,108.19,26.55,108.8,26.88,109.52Z" transform="translate(-0.18 -0.25)"/><path class="cls-1" d="M17,109.76c-.39-.41-.84-.68-1-1.05a1.35,1.35,0,0,1,.31-1.14c.22-.22.74-.19,1.12-.16.14,0,.27.33.4.51-.18,0-.37,0-.55,0s-.54,0-.65.08a.72.72,0,0,0-.08.66,1,1,0,0,0,.58.34,3.56,3.56,0,0,0,.74.06Z" transform="translate(-0.18 -0.25)"/><path class="cls-1" d="M35.89,112.87a9,9,0,0,1,0,1.23.56.56,0,0,1-.4.36.53.53,0,0,1-.39-.35,21.35,21.35,0,0,1,0-2.29c0-.15.28-.28.43-.42.12.14.33.26.35.41a7.07,7.07,0,0,1,0,1.06Z" transform="translate(-0.18 -0.25)"/><path class="cls-1" d="M19.9,109.7c-.67,0-1-.2-.89-.89,0-.31-.15-.64-.13-1s.23-.34.35-.51c.13.15.32.28.36.45s0,.5,0,.74a.94.94,0,0,0,.35.42,7.61,7.61,0,0,0,.66.43Z" transform="translate(-0.18 -0.25)"/><path class="cls-1" d="M27.13,134.57a7.1,7.1,0,0,1-.23.89,2.06,2.06,0,0,1-.32.43,1.59,1.59,0,0,0-.32-.32.39.39,0,0,0-.33,0,1.72,1.72,0,0,0-.31.3,1.52,1.52,0,0,1-.29-.36,3.85,3.85,0,0,1-.21-.8c0-.06.15-.14.22-.21.23.58.46.47.68,0,.31.28.61.58.91,0C27,134.5,27.14,134.57,27.13,134.57Z" transform="translate(-0.18 -0.25)"/><path class="cls-1" d="M37.62,134.71c0-.52.12-1,.7-.85.26,0,.46.4.68.61l-1,.92Z" transform="translate(-0.18 -0.25)"/><path class="cls-1" d="M35.67,134.67c0,.68,0,1.28-.68.53,0,0-.19,0-.24.08a2.19,2.19,0,0,0-.24.35,1.39,1.39,0,0,1-.19-.47,6,6,0,0,1,.12-.86c.19.11.38.22.58.31s.2,0,.23,0a3.33,3.33,0,0,0,.27-.42Z" transform="translate(-0.18 -0.25)"/><path class="cls-3" d="M12.52,117.4l.17-.59a3.6,3.6,0,0,0,.45.38.44.44,0,0,0,.3,0c.18-.05.34-.13.52-.19l.08,1a1.45,1.45,0,0,0-.35-.1.65.65,0,0,0-.33.08C12.65,118.38,12.48,118.06,12.52,117.4Z" transform="translate(-0.18 -0.25)"/><path class="cls-3" d="M12.56,117.41c-.43.31-.76.66-.87.6a1.72,1.72,0,0,1-.74-.78c-.05-.12.43-.66.53-.62A5.11,5.11,0,0,1,12.56,117.41Z" transform="translate(-0.18 -0.25)"/><path class="cls-1" d="M33.8,134.65c-.19.53.3,1.12-.6,1.09-.74,0-.43-.55-.49-.89-.09-.52.25-.62.65-.55C33.53,134.32,33.66,134.53,33.8,134.65Zm-.44.14s0,0,0,0,0,0-.05,0l.07,0Z" transform="translate(-0.18 -0.25)"/><path class="cls-1" d="M14.78,134.33c.16-.15.39-.45.48-.41a1.32,1.32,0,0,1,.72.55c.09.21-.11.55-.18.83-.19-.4-1.26.15-.8-.93Z" transform="translate(-0.18 -0.25)"/><path class="cls-3" d="M34.75,117.87c.09-.49.09-.88.67-.83a4.35,4.35,0,0,1,.52.11c-.14.08-.27.16-.4.25s0,.1,0,.15l.4.77c-.24.08-.54.27-.72.2S34.91,118.09,34.75,117.87Z" transform="translate(-0.18 -0.25)"/><path class="cls-1" d="M34.64,108.59a8.28,8.28,0,0,1-1.12.15c-.15,0-.31-.21-.47-.32.15-.12.31-.35.46-.35a13.67,13.67,0,0,1,1.63.15,1.62,1.62,0,0,1,.42.19,2.68,2.68,0,0,1-.41.2A2.16,2.16,0,0,1,34.64,108.59Z" transform="translate(-0.18 -0.25)"/><path class="cls-3" d="M26.54,153.92l-.73-.59c.54-.38,0-.74,0-1.11a.68.68,0,0,1,.25-.44c.08-.06.26,0,.4,0-.07.12-.19.24-.19.36s.15.18.23.27.42.43.42.64A2.52,2.52,0,0,1,26.54,153.92Z" transform="translate(-0.18 -0.25)"/><path class="cls-3" d="M13.75,34.07c-.47,0-.43-.09-.32-.55s0-.92.64-.9c.12,0,.36.32.33.37C14.19,33.35,14.7,34.15,13.75,34.07Z" transform="translate(-0.18 -0.25)"/><path class="cls-3" d="M37,118.57a4.19,4.19,0,0,1-.57-.37c.18-.43.4-.84.61-1.26a5,5,0,0,1,.63,1C37.68,118.08,37.25,118.34,37,118.57Z" transform="translate(-0.18 -0.25)"/><path class="cls-1" d="M24.85,135.47c-.38.2-.59.39-.81.39s-.31-.24-.47-.37c.37-.26-.58-1.15.45-1C24.29,134.5,24.51,135,24.85,135.47Z" transform="translate(-0.18 -0.25)"/><path class="cls-1" d="M13.11,134.21l.44-.54c.17.38,1.07-.19.85.64a2.75,2.75,0,0,1-.51.75Z" transform="translate(-0.18 -0.25)"/><path class="cls-3" d="M31.56,118.71c-.22-.14-.64-.36-.62-.41a7.65,7.65,0,0,1,.57-1.07l.71,1.19Z" transform="translate(-0.18 -0.25)"/><path class="cls-3" d="M18.18,117.89c-.08-.47.08-.77.65-.68a2.28,2.28,0,0,1,.42.15l-.38.18-.17.1c.42.06.44.24.22.57,0,0,.21.26.33.4-.21,0-.45.12-.62,0s-.3-.31-.43-.49S18.18,118,18.18,117.89Z" transform="translate(-0.18 -0.25)"/><path class="cls-3" d="M25.22,118.62l-1,.17s-.14,0-.14,0a.58.58,0,0,1,0-.3c.17-.36.35-.71.53-1.06.14.1.33.16.42.29a3.91,3.91,0,0,1,.39.81c0,.08-.06.21-.09.32Z" transform="translate(-0.18 -0.25)"/><path class="cls-3" d="M29.45,118.24c0-.08,0-.17,0-.25s0-.41-.05-.61a8,8,0,0,1,.83,0s.08.19.12.3l-.46.08c.15.1.36.16.45.31s.09.44,0,.49a1.2,1.2,0,0,1-.67.16c-.13,0-.24-.21-.36-.33Zm.4,0s0,0,0,0h.06l0-.08Z" transform="translate(-0.18 -0.25)"/><path class="cls-3" d="M9.63,117l.49-.57c.2.22.51.4.58.66a1,1,0,0,1-.25.71C10.07,117.74,9.49,117.79,9.63,117Z" transform="translate(-0.18 -0.25)"/><path class="cls-1" d="M17.81,135.23c-.17.12-.26.23-.33.22-.34-.07-.67-.16-1-.25l.54-1.1Z" transform="translate(-0.18 -0.25)"/><path class="cls-1" d="M36.94,133.88c.09.16.23.37.23.38-.43.3-.37.59,0,.9,0,0-.08.22-.13.22-.26,0-.73,0-.74,0a2.65,2.65,0,0,1,0-1.11C36.27,134.11,36.62,134,36.94,133.88Z" transform="translate(-0.18 -0.25)"/><path class="cls-3" d="M23.76,118.05a2.57,2.57,0,0,1-.56.68.67.67,0,0,1-.65-.12,4,4,0,0,1-.32-1.06s.14-.15.15-.14a.92.92,0,0,1,.26.25c.12.21.22.44.33.67.11-.22.21-.44.33-.66a1.29,1.29,0,0,1,.19-.21Z" transform="translate(-0.18 -0.25)"/><path class="cls-3" d="M16.44,117.63l.15-.54a2,2,0,0,0,.3.39.54.54,0,0,0,.38.11,1.48,1.48,0,0,0,.41-.2l0,1.1c-.08,0-.21,0-.22,0-.23-.5-.46-.57-.72,0-.08-.08-.21-.14-.23-.23a3,3,0,0,1,0-.57Z" transform="translate(-0.18 -0.25)"/><path class="cls-3" d="M21.47,25.64l-.05.32-2.58-2.21.26-.09Z" transform="translate(-0.18 -0.25)"/><path class="cls-3" d="M38.82,137.25l-1.49.22c-.07,0-.19,0-.21,0a.23.23,0,0,1,0-.22c.29-.32.59-.63.89-.94l.84.92Z" transform="translate(-0.18 -0.25)"/><path class="cls-1" d="M9.29,133.35l.1-.36a2.85,2.85,0,0,0,.24.36.26.26,0,0,0,.21,0c.41-.07.43-.07.41.33a3.31,3.31,0,0,1-.17.64c-.08-.44-1,.18-.79-.61A2.45,2.45,0,0,0,9.29,133.35Z" transform="translate(-0.18 -0.25)"/><path class="cls-3" d="M37.94,117.54c0-.55.23-.73.71-.67l.39.06c-.1.1-.2.19-.29.3s-.12.15-.1.2a3.29,3.29,0,0,0,.24.42l-.72.33Z" transform="translate(-0.18 -0.25)"/><path class="cls-3" d="M9.61,116.9l-.72.82a2.55,2.55,0,0,1-.26-.82c0-.22.23-.44.35-.66Z" transform="translate(-0.18 -0.25)"/><path class="cls-3" d="M29.7,152.4a1.7,1.7,0,0,1,.53.31c.09.09,0,.36,0,.55l-.19-.38-.09-.14a2.84,2.84,0,0,1-.54.56c-.07,0-.3-.27-.47-.29s-.23.22-.35.34c0-.07,0-.15,0-.22a1.64,1.64,0,0,1,.3-.68C29,152.35,29.27,152.42,29.7,152.4Z" transform="translate(-0.18 -0.25)"/><path class="cls-1" d="M20.28,135.79c-.18-.11-.5-.19-.57-.37a3.46,3.46,0,0,1-.14-1.05s.23-.11.28-.08a1.29,1.29,0,0,1,.32.4c.11.22.18.46.29.68s.17.16.26.24Z" transform="translate(-0.18 -0.25)"/><path class="cls-1" d="M11.26,133.22c.15.39.3.77.43,1.16,0,.06-.13.25-.15.24-.29-.11-.81-.22-.82-.37a2.81,2.81,0,0,1,.32-1Z" transform="translate(-0.18 -0.25)"/><path class="cls-3" d="M27.42,117.83l.13-.37c.08.11.17.22.24.34s.21.37.32.56l.31-.55c.06-.11.1-.22.16-.34a1.15,1.15,0,0,1,.19.37c0,.42,0,.85-.56.89S27.44,118.41,27.42,117.83Z" transform="translate(-0.18 -0.25)"/><path class="cls-4" d="M8.29,11.21l1.46-.78.33-.15.34-.18c0,.13.1.36.09.36C9.78,10.73,9,11,8.29,11.21Z" transform="translate(-0.18 -0.25)"/><path class="cls-3" d="M9.68,135.38c.47.11.76.16,1,.25a.27.27,0,0,1,0,.23,1.23,1.23,0,0,1-.48.37c-.15,0-.33-.11-.51-.15a4.41,4.41,0,0,0-.51-.06Z" transform="translate(-0.18 -0.25)"/><path class="cls-1" d="M18.21,134.59l.17-.43.22.56a1.79,1.79,0,0,0,.15.36,5.78,5.78,0,0,0,.38.45c-.18,0-.41.13-.52.06a1.67,1.67,0,0,1-.4-.56C18.18,135,18.21,134.87,18.21,134.59Z" transform="translate(-0.18 -0.25)"/><path class="cls-3" d="M25.5,152.53c.07.58-.11.89-.59,1-.08,0-.21-.11-.32-.17.87,0,0-.75.38-1,0,0,0-.27-.07-.35s-.23-.1-.35-.14c.17,0,.44-.17.5-.1A4,4,0,0,1,25.5,152.53Z" transform="translate(-0.18 -0.25)"/><path class="cls-3" d="M16.4,151.8a3.3,3.3,0,0,1,.49-.68c.08-.07.34.06.52.09-.11.08-.27.13-.33.24a.51.51,0,0,0-.05.42c.07.13.24.2.37.29l-.76.49c0-.2-.08-.4-.12-.61a.93.93,0,0,1,0-.16Z" transform="translate(-0.18 -0.25)"/><path class="cls-1" d="M1.47,76.14c0-.85,0-1.49,0-2.14,0-.11,0-.21,0-.32.07.09.2.19.21.28,0,.66.05,1.33,0,2a1.47,1.47,0,0,1-.21.49Z" transform="translate(-0.18 -0.25)"/><path class="cls-3" d="M15.39,151.94c0,.07-.11.15-.1.22a5.81,5.81,0,0,0,.16.58c-.47-.1-1-.12-1.06-.78,0-.05,0-.11,0-.16l0-.76c.07.23.08.55.24.67a2,2,0,0,0,.77.2Z" transform="translate(-0.18 -0.25)"/><path class="cls-1" d="M21.16,134.62a7,7,0,0,1,.72-.2s.19.17.17.23a10.18,10.18,0,0,1-.41,1c0,.05-.18.1-.18.09-.21-.36-.41-.72-.59-1.1,0,0,.1-.14.16-.22Z" transform="translate(-0.18 -0.25)"/><path class="cls-1" d="M13,107.81l.42.38c-.19.09-.4.27-.57.24a10.5,10.5,0,0,1-1.29-.36Z" transform="translate(-0.18 -0.25)"/><path class="cls-3" d="M33.38,118a2.27,2.27,0,0,1,0-.41.92.92,0,0,1,.14-.26,1.82,1.82,0,0,1,.21.28,3.41,3.41,0,0,0,.27.61,1.52,1.52,0,0,0,.47.28c-.18.09-.38.25-.55.24a1,1,0,0,1-.53-.33c-.07-.07,0-.26,0-.4Z" transform="translate(-0.18 -0.25)"/><path class="cls-3" d="M25.9,117.59a6.86,6.86,0,0,1,.7-.14c.05,0,.18.15.16.19-.15.38-.32.76-.49,1.13-.2-.39-.41-.78-.6-1.19,0,0,.08-.14.13-.21Z" transform="translate(-0.18 -0.25)"/><path class="cls-3" d="M19.82,152.93c-.51-.29-.61-.67-.23-1.14s.93-.45,1.41,0l0,0c-1.15-.05-1.17,0-1.12,1.12Z" transform="translate(-0.18 -0.25)"/><path class="cls-1" d="M32,134.44l-.34,1.29c-.1,0-.25-.06-.28-.13-.15-.3-.27-.62-.4-.94l0-.07a2.57,2.57,0,0,1,.55-.19A2.19,2.19,0,0,1,32,134.44Z" transform="translate(-0.18 -0.25)"/><path class="cls-3" d="M23.35,152.4a2.12,2.12,0,0,1,.18-.52c.08-.12.24-.17.37-.25,0,.13,0,.25,0,.38,0,.35,0,.69,0,1a3,3,0,0,0,.1.47c-.16-.13-.37-.23-.46-.4A2.81,2.81,0,0,1,23.35,152.4Z" transform="translate(-0.18 -0.25)"/><path class="cls-3" d="M30.57,152.49a1,1,0,0,1,0-.24c0-.19.12-.37.17-.55a3,3,0,0,0,.18.56c.16.29-.41,1,.45.89,0,0,.08.06.12.09s-.09.14-.15.16C30.82,153.62,30.58,153.33,30.57,152.49Z" transform="translate(-0.18 -0.25)"/><path class="cls-3" d="M17.85,152.14a2.43,2.43,0,0,1,0-.49c0-.1.13-.19.19-.29a1.31,1.31,0,0,1,.12.27c.08.42-.23,1,.39,1.2,0,.08-.09.22-.11.22-.19,0-.48-.06-.55-.19a1.92,1.92,0,0,1-.07-.72Z" transform="translate(-0.18 -0.25)"/><path class="cls-1" d="M1,47.47A.89.89,0,0,1,1,47.32a1.14,1.14,0,0,1,.26,1.48.34.34,0,0,1-.13.07A.6.6,0,0,1,1,48.62C1,48.24,1,47.86,1,47.47Z" transform="translate(-0.18 -0.25)"/><path class="cls-1" d="M2.21,83.43,2,84.18a3.59,3.59,0,0,1-.21-.81,2.94,2.94,0,0,1,.18-.75Z" transform="translate(-0.18 -0.25)"/><path class="cls-3" d="M28.07,153.21c-.2-.21-.4-.4-.58-.62s-.24-.34-.36-.51a3.46,3.46,0,0,1,.47-.31c.09,0,.21,0,.32,0-.08.07-.24.15-.24.22s.09.37.18.39c.6.16.6.46.26.88Z" transform="translate(-0.18 -0.25)"/><path class="cls-3" d="M20.77,118.42c-.13-.2-.4-.45-.35-.6a1,1,0,0,1,.56-.54c.14-.06.38.12.58.19a1.27,1.27,0,0,0-.38.25,4,4,0,0,0-.31.61Z" transform="translate(-0.18 -0.25)"/><path class="cls-3" d="M15.21,116.88c.27.11.72.22.72.31a4.53,4.53,0,0,1-.27,1.05s0,.05-.06,0-.13,0-.14,0c-.17-.4-.33-.81-.48-1.22C15,117,15.12,116.93,15.21,116.88Z" transform="translate(-0.18 -0.25)"/><path class="cls-1" d="M12.78,133.57l-.32,1.2c-.17-.38-.34-.76-.48-1.15,0,0,.16-.2.24-.19A3.51,3.51,0,0,1,12.78,133.57Z" transform="translate(-0.18 -0.25)"/><path class="cls-3" d="M19.3,137a1.41,1.41,0,0,1,1.57.32l-.08.08c-.7-.39-.44.17-.45.46h0l-1-.8Z" transform="translate(-0.18 -0.25)"/><path class="cls-3" d="M16.69,137.07a1.26,1.26,0,0,1-.21.09c-.43-.64-.79.28-1.2.05a4.65,4.65,0,0,1,.56-.67.49.49,0,0,1,.47,0A2.13,2.13,0,0,1,16.69,137.07Z" transform="translate(-0.18 -0.25)"/><path class="cls-3" d="M22.08,153.53l-.55-.35c.19-.29.37-.58.57-.86l.17.1c-.25.38-.25.67.27.77Z" transform="translate(-0.18 -0.25)"/><path class="cls-3" d="M37,137.12a4.12,4.12,0,0,1-.66.5c-.07,0-.26-.11-.37-.21a3.24,3.24,0,0,1-.44-.49c-.05-.07,0-.19,0-.29s.22,0,.28.06c.26.25.46.66.89.22A2,2,0,0,1,37,137.12Z" transform="translate(-0.18 -0.25)"/><path class="cls-3" d="M13.39,35.2a1.21,1.21,0,0,1-.14-.45c0-.14.18-.38.23-.36a8.59,8.59,0,0,1,1,.31Z" transform="translate(-0.18 -0.25)"/><path class="cls-3" d="M.47,22c0-.29,0-.35,0-.4,0-.28,0-.55,0-.83a3.27,3.27,0,0,1,.29.94,5.26,5.26,0,0,1-.25,1.14Z" transform="translate(-0.18 -0.25)"/><path class="cls-3" d="M1.82,86.47c.12.57.24,1.13.34,1.7a.8.8,0,0,1-.06.29c-.07-.07-.21-.14-.21-.21,0-.59,0-1.19-.06-1.79Z" transform="translate(-0.18 -0.25)"/><path class="cls-3" d="M13.44,136.64l-.34,0a1.7,1.7,0,0,0-.47,0,2.24,2.24,0,0,0-.47.22c.05-.14.07-.32.17-.4A1.93,1.93,0,0,1,13,136C13.11,136,13.26,136.35,13.44,136.64Z" transform="translate(-0.18 -0.25)"/><path class="cls-3" d="M31.93,137c.41.13.76.69,1.25.16l.07.07-.67.75-.71-.92Z" transform="translate(-0.18 -0.25)"/><path class="cls-3" d="M20.87,118.33a1.32,1.32,0,0,0,.46-.09c.09-.05.1-.23.14-.35.12.11.32.21.34.34s-.15.44-.2.43a5.23,5.23,0,0,1-.83-.24Z" transform="translate(-0.18 -0.25)"/><path class="cls-3" d="M32,152.4l.09-.74c.1.2.28.39.29.6a4,4,0,0,1-.16.9Z" transform="translate(-0.18 -0.25)"/><path class="cls-3" d="M2.5,118.22a3,3,0,0,1,0,.48c0,.08-.1.16-.16.24-.06-.07-.16-.14-.18-.22a1.55,1.55,0,0,1,0-.48c0-.3.09-.59.14-.89l.31.84Z" transform="translate(-0.18 -0.25)"/><path class="cls-3" d="M29.62,137.24c-.5.88-.84,1-1.19.52,0-.07,0-.23,0-.34.49.52.7-.23,1.08-.24Z" transform="translate(-0.18 -0.25)"/><path class="cls-3" d="M15.35,151.9a4.74,4.74,0,0,0-.2-.62,1.38,1.38,0,0,0-.29-.31c.21,0,.5-.07.62,0,.35.31.31.66-.1.93Z" transform="translate(-0.18 -0.25)"/><path class="cls-1" d="M1.92,100.9l.21-.64a3.71,3.71,0,0,1,.16.74,2.47,2.47,0,0,1-.16.63Z" transform="translate(-0.18 -0.25)"/><path class="cls-1" d="M1.9,65.67l-.25.73a1.89,1.89,0,0,1-.16-.55A5.48,5.48,0,0,1,1.62,65Z" transform="translate(-0.18 -0.25)"/><path class="cls-3" d="M11.12,136.2l.72.08a2.88,2.88,0,0,1-.54.42s-.22-.25-.34-.38Z" transform="translate(-0.18 -0.25)"/><path class="cls-3" d="M21,151.75c.43.39.56.79,0,1.2l-.05-.05v-1.12Z" transform="translate(-0.18 -0.25)"/><path class="cls-3" d="M28.12,153.27c-.11.12-.21.31-.34.34a.88.88,0,0,1-.51-.14c-.06,0-.05-.18-.08-.28l.46,0,.41,0Z" transform="translate(-0.18 -0.25)"/><path class="cls-3" d="M31.36,137.59l-.73-.33-.09-.08c.41-.43.5-.4.9.33Z" transform="translate(-0.18 -0.25)"/><path class="cls-3" d="M21,152.95c-.41.53-.8.42-1.2,0l0,0H21Z" transform="translate(-0.18 -0.25)"/><path class="cls-3" d="M14.74,136.91l-.41.4-.24-.41.58-.06Z" transform="translate(-0.18 -0.25)"/><path class="cls-3" d="M20.87,137.33l.58.18.08.09c-.42.63-.56.14-.74-.18Z" transform="translate(-0.18 -0.25)"/><path class="cls-3" d="M22.23,151.56l.33.18c-.07,0-.16.13-.22.12a4.07,4.07,0,0,1-.53-.17Z" transform="translate(-0.18 -0.25)"/><path class="cls-3" d="M34.82,137.1l-.44-.27.19-.22.35.4Z" transform="translate(-0.18 -0.25)"/><path class="cls-3" d="M24.32,137.19l.51.49-.08.07-.47-.52Z" transform="translate(-0.18 -0.25)"/><path class="cls-3" d="M26.73,137.32c.2-.43.4-.41.59,0l-.08.09h-.42Z" transform="translate(-0.18 -0.25)"/><path class="cls-3" d="M25.33,137.74c-.19.21-.38.54-.58,0l.08-.07h.42Z" transform="translate(-0.18 -0.25)"/><path class="cls-1" d="M2,79c0-.12,0-.24,0-.36H2L2,79Z" transform="translate(-0.18 -0.25)"/><path class="cls-3" d="M30.12,137.76a2.34,2.34,0,0,1-.18.23s-.08,0-.12-.06l.24-.23Z" transform="translate(-0.18 -0.25)"/><path class="cls-3" d="M22.51,137.74l-.24.23,0,0,.22-.25Z" transform="translate(-0.18 -0.25)"/><path class="cls-3" d="M23.79,137.73l-.26-.23.06-.06.23.26Z" transform="translate(-0.18 -0.25)"/><path class="cls-3" d="M16.76,137.58l.06-.14s.11,0,.13.07,0,.09,0,.13Z" transform="translate(-0.18 -0.25)"/><path class="cls-3" d="M21.45,137.51l.34-.33.06.06-.33.35Z" transform="translate(-0.18 -0.25)"/><path class="cls-3" d="M22.93,137.17l.19-.24.14.15-.25.17Z" transform="translate(-0.18 -0.25)"/><path class="cls-3" d="M13.65,137l-.05.14s-.11,0-.13-.07,0-.09,0-.14Z" transform="translate(-0.18 -0.25)"/><path class="cls-3" d="M26.81,137.42l-.29.21,0-.06.25-.24Z" transform="translate(-0.18 -0.25)"/><path class="cls-3" d="M8.26,110.78l-.46,0Z" transform="translate(-0.18 -0.25)"/><path class="cls-3" d="M34.92,137l.2.3-.06,0-.24-.26Z" transform="translate(-0.18 -0.25)"/><path class="cls-3" d="M34,137.36l-.08-.11.18-.11s0,.11,0,.14S34.09,137.34,34,137.36Z" transform="translate(-0.18 -0.25)"/><path class="cls-3" d="M30.45,137.57l-.33.18-.06-.07.3-.18Z" transform="translate(-0.18 -0.25)"/><path class="cls-3" d="M33.55,136.75s.05,0,.06,0,0,0,0,.06l-.11,0Z" transform="translate(-0.18 -0.25)"/><path class="cls-3" d="M26.1,138l.07-.2.09.07-.13.17Z" transform="translate(-0.18 -0.25)"/><path class="cls-1" d="M19.1,23.66l-.26.09-.19-.22.13-.12Z" transform="translate(-0.18 -0.25)"/><path class="cls-3" d="M25.65,137.24l-.16.34-.07-.07.19-.31Z" transform="translate(-0.18 -0.25)"/><path class="cls-3" d="M30.36,137.5l.18-.32.09.08-.18.32Z" transform="translate(-0.18 -0.25)"/><path class="cls-1" d="M18.53,23.15l.25.26-.13.12-.25-.25Z" transform="translate(-0.18 -0.25)"/><path class="cls-3" d="M11,111l-.2.31Z" transform="translate(-0.18 -0.25)"/><path class="cls-3" d="M14.9,136.58l-.16.33-.08-.06.19-.31Z" transform="translate(-0.18 -0.25)"/><path class="cls-3" d="M28.09,137.06l-.21-.07,0-.06.18.12Z" transform="translate(-0.18 -0.25)"/><path class="cls-3" d="M21.86,80.57h0Z" transform="translate(-0.18 -0.25)"/><path class="cls-3" d="M14.36,80.68l-.11.21Z" transform="translate(-0.18 -0.25)"/><path class="cls-3" d="M31.18,99.37l0-.2Z" transform="translate(-0.18 -0.25)"/><path class="cls-3" d="M27.48,137.5l.16.17-.08.08-.17-.16Z" transform="translate(-0.18 -0.25)"/><path class="cls-3" d="M25.48,137.58l-.16.17-.08-.08.16-.16Z" transform="translate(-0.18 -0.25)"/><path class="cls-3" d="M22.68,137.58l-.17.16-.07-.06.16-.17Z" transform="translate(-0.18 -0.25)"/><path class="cls-3" d="M18.67,137.7l.14-.19.07.07-.19.15Z" transform="translate(-0.18 -0.25)"/><path class="cls-3" d="M27.32,137.33l.16.17-.09.08-.16-.16Z" transform="translate(-0.18 -0.25)"/><path class="cls-3" d="M25.78,137l.08-.06-.07.08Z" transform="translate(-0.18 -0.25)"/><path class="cls-3" d="M22.61,137.51l.16-.17.08.08-.17.16Z" transform="translate(-0.18 -0.25)"/><path class="cls-3" d="M18.81,137.51l.16-.17.07.07-.17.16Z" transform="translate(-0.18 -0.25)"/><path class="cls-3" d="M31.87,137.07l-.05-.11.11.05Z" transform="translate(-0.18 -0.25)"/><path class="cls-3" d="M19.37,137.08l-.16.17-.07-.07.16-.17Z" transform="translate(-0.18 -0.25)"/><path class="cls-3" d="M38.87,137.19l.05.1-.11-.05Z" transform="translate(-0.18 -0.25)"/><path class="cls-3" d="M22,137.08l-.16.17-.06-.06L22,137Z" transform="translate(-0.18 -0.25)"/><path class="cls-3" d="M24.15,137l.17.16,0,0-.16-.17Z" transform="translate(-0.18 -0.25)"/><path class="cls-3" d="M25.6,137.2l.18-.15h0l-.15.18Z" transform="translate(-0.18 -0.25)"/><path class="cls-3" d="M23,137.26l-.16.16-.08-.08.16-.16Z" transform="translate(-0.18 -0.25)"/><path class="cls-3" d="M28.11,137l.07.09-.08-.08Z" transform="translate(-0.18 -0.25)"/><path class="cls-3" d="M19.2,137.25l-.16.16-.07-.07.17-.16Z" transform="translate(-0.18 -0.25)"/><path class="cls-3" d="M33.19,137.17l.13-.05-.05.13Z" transform="translate(-0.18 -0.25)"/><path class="cls-3" d="M29.56,137.18l.11-.05-.05.11Z" transform="translate(-0.18 -0.25)"/><path class="cls-3" d="M15,136.38l.1-.07-.07.1Z" transform="translate(-0.18 -0.25)"/><path class="cls-3" d="M14.86,136.53l.17-.16,0,0-.16.17Z" transform="translate(-0.18 -0.25)"/><path class="cls-3" d="M37,136.53l.12-.06-.06.12Z" transform="translate(-0.18 -0.25)"/><path class="cls-3" d="M37.06,136.59l-.12.06.05-.12Z" transform="translate(-0.18 -0.25)"/><path class="cls-3" d="M26.13,138.06l-.09.06.06-.09Z" transform="translate(-0.18 -0.25)"/><path class="cls-3" d="M24,137.87,24,138l-.09-.07Z" transform="translate(-0.18 -0.25)"/><path class="cls-3" d="M20.34,137.87l.07.07-.07-.06Z" transform="translate(-0.18 -0.25)"/><path class="cls-3" d="M33.75,137.73l-.11.06.06-.11Z" transform="translate(-0.18 -0.25)"/><path class="cls-3" d="M31.6,137.68l0,.15-.1-.08Z" transform="translate(-0.18 -0.25)"/><path class="cls-3" d="M22,137l.11-.05-.05.11Z" transform="translate(-0.18 -0.25)"/><path class="cls-3" d="M27.65,137.67l.05.13-.13-.05Z" transform="translate(-0.18 -0.25)"/><path class="cls-3" d="M24,137.89l-.17-.16,0,0,.16.17Z" transform="translate(-0.18 -0.25)"/><path class="cls-3" d="M24.12,137.06l-.06-.09.09.06Z" transform="translate(-0.18 -0.25)"/><path class="cls-3" d="M18.69,137.72l-.08.06.06-.08Z" transform="translate(-0.18 -0.25)"/><path class="cls-3" d="M33.69,137.68l.11-.06-.06.11Z" transform="translate(-0.18 -0.25)"/><path class="cls-3" d="M31.44,137.51l.16.17-.07.07-.17-.16Z" transform="translate(-0.18 -0.25)"/><path class="cls-1" d="M52.27,38.6A11.78,11.78,0,0,1,51.54,40c-.51.77-1.1,1.49-1.67,2.21-.09.11-.28.14-.42.2,0-.17-.06-.37,0-.5.6-1.11,1.25-2.2,1.8-3.33a1.72,1.72,0,0,0,.07-1.21c-.61-1.73-1.31-3.43-2-5.15a1.29,1.29,0,0,1,0-.44c.12.09.3.15.35.27Q51,35,52.21,38A2.84,2.84,0,0,1,52.27,38.6Z" transform="translate(-0.18 -0.25)"/><path class="cls-1" d="M51.65,19.46c-.33-.92-.63-1.8-1-2.67-.38-1-.79-2-1.17-3.07a1.11,1.11,0,0,1,0-.42c.09.09.22.17.26.28.86,2.08,1.71,4.15,2.53,6.24a1,1,0,0,1-.13.76c-.63.9-1.29,1.78-2,2.63-.16.2-.49.26-.75.38a2.71,2.71,0,0,1,.19-.74c.53-.9,1.1-1.77,1.65-2.66A6.16,6.16,0,0,0,51.65,19.46Z" transform="translate(-0.18 -0.25)"/><path class="cls-1" d="M52.24,56.59a2.12,2.12,0,0,1-.17.5q-1.13,1.82-2.28,3.61c-.08.12-.26.17-.39.25a1.35,1.35,0,0,1,0-.51c.59-1.18,1.24-2.33,1.8-3.52a1.61,1.61,0,0,0,.09-1.13c-.6-1.62-1.27-3.21-1.91-4.82a1.81,1.81,0,0,1-.06-.46c.13.08.32.13.37.24.84,1.84,1.66,3.69,2.48,5.55A1.21,1.21,0,0,1,52.24,56.59Z" transform="translate(-0.18 -0.25)"/><path class="cls-1" d="M52.31,42.3a2,2,0,0,1,0,.56A29.29,29.29,0,0,1,51,45.62a2.18,2.18,0,0,0-.16,2.08c.52,1.35.91,2.75,1.34,4.13a1,1,0,0,1,0,.31c-.09-.08-.21-.14-.26-.24-.81-1.71-1.61-3.42-2.39-5.14a.74.74,0,0,1,0-.61c.76-1.16,1.56-2.3,2.35-3.45A3.7,3.7,0,0,1,52.31,42.3Z" transform="translate(-0.18 -0.25)"/><path class="cls-1" d="M49.09,87.47c.28.22.67.39.83.68.72,1.29,1.38,2.61,2,3.93a.9.9,0,0,1,0,.7c-.68,1.4-1.38,2.8-2.11,4.18-.12.22-.42.34-.64.51a4.89,4.89,0,0,1,.2-.67c.53-1.17,1-2.36,1.62-3.51a1.69,1.69,0,0,0,0-1.63c-.66-1.38-1.26-2.79-1.89-4.19Z" transform="translate(-0.18 -0.25)"/><path class="cls-1" d="M51.79,73.43a2.72,2.72,0,0,1,0,2.53c-.54.85-1.06,1.72-1.63,2.56a6.48,6.48,0,0,1-.77.81,8.62,8.62,0,0,1,.33-1c.45-1,.89-2,1.4-2.89a1.74,1.74,0,0,0,0-1.71c-.6-1.32-1.17-2.66-1.74-4a2,2,0,0,1-.07-.53c.14.11.34.18.42.32C50.44,70.8,51.11,72.11,51.79,73.43Z" transform="translate(-0.18 -0.25)"/><path class="cls-1" d="M49.35,137.06c.15-.43.26-.85.43-1.24.65-1.44,1.31-2.88,2-4.31a1.54,1.54,0,0,1,.19-.25c0,.11.09.24.06.33-.47,1.49-1,3-1.42,4.47a2.06,2.06,0,0,0,.09,1.29c.44,1,1,2,1.46,2.94.06.12,0,.31,0,.46a1.71,1.71,0,0,1-.36-.27q-1.11-1.43-2.19-2.89A2.79,2.79,0,0,1,49.35,137.06Z" transform="translate(-0.18 -0.25)"/><path class="cls-1" d="M52.08,78.54l-.34,1.65-.16.34-.16.48-.18.46L51,82l-.05.16-.19.36c-.1.32-.36.71-.26,1,.46,1.25,1,2.46,1.54,3.68l.24,1.16c-.15-.14-.36-.24-.45-.41-.77-1.39-1.53-2.79-2.25-4.21a1,1,0,0,1-.08-.81c.77-1.42,1.6-2.81,2.42-4.21C51.91,78.6,52,78.58,52.08,78.54Z" transform="translate(-0.18 -0.25)"/><path class="cls-1" d="M52.37,24a2.13,2.13,0,0,1-.05.65c-.44.91-.87,1.84-1.39,2.71a1.58,1.58,0,0,0-.18,1.46c.5,1.49,1,3,1.41,4.51a1.42,1.42,0,0,1,0,.49,2.16,2.16,0,0,1-.27-.38c-.76-1.79-1.53-3.58-2.27-5.38a.81.81,0,0,1,0-.67c.79-1.06,1.62-2.08,2.44-3.11A3.26,3.26,0,0,1,52.37,24Z" transform="translate(-0.18 -0.25)"/><path class="cls-1" d="M52.16,60.33c0,.29.09.46,0,.59a29.58,29.58,0,0,1-1.26,2.94,2.1,2.1,0,0,0-.1,2.12,30.53,30.53,0,0,1,1.21,3.49A1.36,1.36,0,0,1,52,70a2.48,2.48,0,0,1-.28-.36c-.73-1.41-1.47-2.82-2.14-4.26a1.29,1.29,0,0,1,.07-1c.69-1.21,1.46-2.38,2.2-3.56Z" transform="translate(-0.18 -0.25)"/><path class="cls-1" d="M49.26,115.27a2.49,2.49,0,0,1,.1-.5c.55-1.35,1.09-2.7,1.69-4A1.56,1.56,0,0,0,51,109.2c-.69-1.23-1.34-2.48-2-3.73,0-.06,0-.15,0-.23s.3,0,.36.1c.57.71,1.09,1.44,1.67,2.14,1.47,1.78.81,3.51-.09,5.24-.41.78-.86,1.53-1.29,2.3a3,3,0,0,1-.23.31Z" transform="translate(-0.18 -0.25)"/><path class="cls-1" d="M51.38,127.64c-.08-.13-.16-.27-.24-.41-.58-1.15-1.16-2.3-1.72-3.46a1.76,1.76,0,0,1-.08-.53c.16.09.37.15.46.28q1.1,1.73,2.16,3.48a.6.6,0,0,1,.06.47q-1.2,2.82-2.45,5.62c0,.09-.15.14-.23.21a1.25,1.25,0,0,1,0-.42c.57-1.48,1.16-3,1.74-4.44C51.2,128.19,51.28,127.93,51.38,127.64Z" transform="translate(-0.18 -0.25)"/><path class="cls-1" d="M52,106c-.15-.2-.23-.28-.28-.37-.8-1.35-1.6-2.69-2.38-4a.64.64,0,0,1,0-.52c.78-1.54,1.59-3.06,2.39-4.59A1.3,1.3,0,0,1,52,96.2c0,.14.1.31.05.43-.49,1.31-1,2.64-1.52,3.92a1.4,1.4,0,0,0,0,1.3c.54,1.17,1,2.38,1.48,3.57A1.88,1.88,0,0,1,52,106Z" transform="translate(-0.18 -0.25)"/><path class="cls-1" d="M49.44,151.32a3,3,0,0,1,.09-.46c.55-1.55,1.09-3.1,1.67-4.63a1.4,1.4,0,0,0-.16-1.45c-.58-.83-1.08-1.72-1.59-2.59a2,2,0,0,1-.14-.6c.18.09.41.13.52.27q1.12,1.41,2.19,2.86a.64.64,0,0,1,.06.51q-1,2.62-1.95,5.23a6.2,6.2,0,0,1-.53.9Z" transform="translate(-0.18 -0.25)"/><path class="cls-1" d="M52.21,122.73l-.11.36c-.09,0-.21-.07-.26-.15-.8-1.22-1.6-2.43-2.36-3.67a.89.89,0,0,1,.07-.69c.71-1.57,1.45-3.13,2.19-4.7a2.14,2.14,0,0,1,.23-.32,1.18,1.18,0,0,1,0,.42,28.61,28.61,0,0,1-1.28,3.63,2.22,2.22,0,0,0,.21,2.39A29.45,29.45,0,0,1,52.21,122.73Z" transform="translate(-0.18 -0.25)"/><path class="cls-1" d="M49,37.3l.71-.86a4.69,4.69,0,0,1,.58,1.17c0,.21-.29.5-.45.76Z" transform="translate(-0.18 -0.25)"/><path class="cls-1" d="M50.62,18.87c-.25.34-.41.74-.56.74-.62,0-.7-.55-.66-1a3,3,0,0,1,.39-.88Z" transform="translate(-0.18 -0.25)"/><path class="cls-1" d="M50.49,56.07l-.71.82a2.91,2.91,0,0,1-.49-1c0-.27.27-.57.42-.86Z" transform="translate(-0.18 -0.25)"/><path class="cls-1" d="M48.9,92.61l.71-.84c.15.32.44.64.42.95s-.36.56-.56.84Z" transform="translate(-0.18 -0.25)"/><path class="cls-1" d="M50.31,110.4l-.82.87c-.13-.27-.41-.57-.36-.81a3.43,3.43,0,0,1,.54-1Z" transform="translate(-0.18 -0.25)"/><path class="cls-1" d="M49,74.47l.62-.9c.19.29.52.59.53.88s-.31.61-.49.92Z" transform="translate(-0.18 -0.25)"/><path class="cls-1" d="M49.07,146.45l.76-.94c.13.3.4.61.36.88s-.38.59-.58.89Z" transform="translate(-0.18 -0.25)"/><path class="cls-1" d="M50.3,128.34l-.74.93c-.13-.24-.42-.52-.37-.7a4.58,4.58,0,0,1,.61-1.05Z" transform="translate(-0.18 -0.25)"/><path class="cls-1" d="M52.35,118.2l-.58.92c-.12-.25-.34-.51-.33-.75a3.27,3.27,0,0,1,.36-.94Z" transform="translate(-0.18 -0.25)"/><path class="cls-1" d="M51.58,47.13l.45-.77a4.65,4.65,0,0,1,.34,1c0,.22-.17.46-.26.69Z" transform="translate(-0.18 -0.25)"/><path class="cls-2" d="M53.22,103.48a1.24,1.24,0,0,1,0,.33c-.09.31-.2.61-.3.92a4.42,4.42,0,0,1-.16-.9,9.38,9.38,0,0,1,.16-1.3c0-.08.11-.15.16-.22a.82.82,0,0,1,.12.27c0,.3,0,.61,0,.91Z" transform="translate(-0.18 -0.25)"/><path class="cls-1" d="M51.3,136l.56-.88c.09.26.29.54.26.79a3.07,3.07,0,0,1-.41.88Z" transform="translate(-0.18 -0.25)"/><path class="cls-1" d="M52.55,28.88l-.37.87a3.76,3.76,0,0,1-.41-.95c0-.24.15-.52.24-.78Z" transform="translate(-0.18 -0.25)"/><path class="cls-2" d="M52.15,100.53l.24-.06c0,.63,0,1.26,0,1.89a1.18,1.18,0,0,1-.13.35,1.59,1.59,0,0,1-.17-.38,5.47,5.47,0,0,1,0-.66Z" transform="translate(-0.18 -0.25)"/><path class="cls-1" d="M52.15,100.53l-.1,1.14c-.17-.06-.47-.1-.49-.19a2.71,2.71,0,0,1,0-.89,1.31,1.31,0,0,1,.21-.4Z" transform="translate(-0.18 -0.25)"/><path class="cls-1" d="M52.39,65.25,52,66a2.64,2.64,0,0,1-.25-.77,2.78,2.78,0,0,1,.23-.79Z" transform="translate(-0.18 -0.25)"/><path class="cls-1" d="M52.26,78.37l-.19.18Z" transform="translate(-0.18 -0.25)"/><path class="cls-1" d="M49.1,87.46l-.06,0,.05,0Z" transform="translate(-0.18 -0.25)"/><path class="cls-2" d="M10.17,5l.4,0a2.8,2.8,0,0,1-.34.19A21.51,21.51,0,0,0,3.71,8.62a.82.82,0,0,1-.29.09c0-.11,0-.28.09-.33a20,20,0,0,1,2.34-1.6c1.38-.71,2.82-1.3,4.23-1.94Z" transform="translate(-0.18 -0.25)"/><path class="cls-2" d="M2.32,7.3l.32-.16L2.36,8l-.09-.07Z" transform="translate(-0.18 -0.25)"/><path class="cls-2" d="M22.65.89h0Z" transform="translate(-0.18 -0.25)"/><path class="cls-2" d="M21.95.81l.36.07Z" transform="translate(-0.18 -0.25)"/><path class="cls-2" d="M2.36,8l-.17.18.08-.25Z" transform="translate(-0.18 -0.25)"/><path class="cls-4" d="M4,5.9l.17-.25Z" transform="translate(-0.18 -0.25)"/><path class="cls-3" d="M37.36,157.55l.17-.12-.17.11Z" transform="translate(-0.18 -0.25)"/><path class="cls-3" d="M37.35,157.54l0,.06,0-.05Z" transform="translate(-0.18 -0.25)"/><path class="cls-3" d="M51.24,81.47l.18-.46.17-.48.16-.34.58-.55a4.27,4.27,0,0,1,.08.94c-.08.59-.23,1.17-.34,1.75-.78.13-.43.75-.47,1.16s.22.61.62.29a5.48,5.48,0,0,1-.2,3.35c-.52-1.22-1.08-2.43-1.54-3.68-.09-.25.17-.64.26-1l.19-.36L51,82Z" transform="translate(-0.18 -0.25)"/><path class="cls-1" d="M52.2,83.8c-.4.31-.68.24-.62-.29s-.31-1,.47-1.16Z" transform="translate(-0.18 -0.25)"/><path class="cls-2" d="M23.56,42.12l-2.92-.87c-.55-.16-1.11-.29-1.67-.44a3.59,3.59,0,0,1-.45-.19c.11-.11.2-.26.33-.32.82-.37,1.65-.73,2.49-1.09a17.39,17.39,0,0,1,1.89-.76c.22-.07.54.14.79.26.08,0,.12.18.16.28.2.41.62.88.53,1.22a7.54,7.54,0,0,1-1,1.8C23.71,42.08,23.58,42.11,23.56,42.12Z" transform="translate(-0.18 -0.25)"/><path class="cls-2" d="M19.53,96.06H17.79c-.84,0-1-.23-.92-1.06.09-.67.2-1.34.3-2,.13-.91.82-1.47,1.66-1.12a4.78,4.78,0,0,1,1.78,1.35A18.17,18.17,0,0,1,22,95.54c.31.52.07.6-.4.58-.69,0-1.37,0-2.06,0Z" transform="translate(-0.18 -0.25)"/><path class="cls-2" d="M26.87,148.05c.77-1.88.76-1.87-1.18-1.94S22,146,20.2,145.84c-.91-.05-.95,0-.71.86.07.29.17.57.26.86l-.12.1a3.71,3.71,0,0,1,.39-4.31,3.92,3.92,0,0,1,4.25-1.28A4.08,4.08,0,0,1,27,148.17Zm-3.57-3.4c.19.37-.18,1.15.73,1a2.65,2.65,0,0,1,1.13-.12c.84.28.64-.18.51-.62s0-1.32-1-.76c-.09.05-.3-.08-.45-.14-.64-.25-1-.11-.92.65a2.18,2.18,0,0,1-.16-.39c-.17-.84-.81-.17-1.19-.37-.06,0-.28.09-.31.18-.1.33-.15.68-.22,1,0-.34-.06-.69-.11-1a.43.43,0,0,0-.17-.23s-.18.07-.18.11a4.86,4.86,0,0,0,.09,1.29c0,.12.54.1.83.13.08,0,.19-.06.23,0C23.07,146,23.14,145.27,23.3,144.65Z" transform="translate(-0.18 -0.25)"/><path class="cls-2" d="M22.41,147.72c-.33,0-.6-.75-1-.1-.25-.73-.43.09-.64,0s-.36-.11-.39-.21a2,2,0,0,1-.06-.83c0-.09.34-.24.46-.19a2.5,2.5,0,0,0,1.73.1c.11,0,.28.12.42.19-.1.05-.26.09-.29.16a5,5,0,0,0-.13.71Z" transform="translate(-0.18 -0.25)"/><path class="cls-2" d="M22.52,147.58c.22.24.08-.94.45-.12a4.23,4.23,0,0,0,.3-.35c.11-.16.2-.33.3-.5l.39.93a2.43,2.43,0,0,1-.39.1l-1.16.08Z" transform="translate(-0.18 -0.25)"/><path class="cls-2" d="M23.36,150.26c-.64-.21-1.29-.41-1.93-.63-.07,0-.1-.14-.15-.22a.69.69,0,0,1,.22,0,4,4,0,0,0,2.69.4s.12.07.19.11-.1.14-.16.15c-.27,0-.54.06-.82.08Z" transform="translate(-0.18 -0.25)"/><path class="cls-2" d="M25.12,147.08l-.44.69c-.23-.15-.73-.06-.53-.59.07-.17.16-.34.24-.5Z" transform="translate(-0.18 -0.25)"/><path class="cls-2" d="M25.8,147.23a3.49,3.49,0,0,1,.45.25c.05,0,.05.16.08.24a2.22,2.22,0,0,1-.75.18c-.11,0-.32-.37-.27-.49a3.29,3.29,0,0,1,.53-.72L26,147Z" transform="translate(-0.18 -0.25)"/><path class="cls-2" d="M25.88,149.38l-.64.2.52-.33Z" transform="translate(-0.18 -0.25)"/><path class="cls-2" d="M20.26,148.37c.09.09.17.18.25.28l-.13.13-.25-.3Z" transform="translate(-0.18 -0.25)"/><path class="cls-2" d="M26.5,148.54l.24-.28.14.12-.23.29Z" transform="translate(-0.18 -0.25)"/><path class="cls-2" d="M25.76,149.25,26,149l.11.12-.27.23Z" transform="translate(-0.18 -0.25)"/><path class="cls-2" d="M19.74,147.56l.17.32-.11.11-.18-.32Z" transform="translate(-0.18 -0.25)"/><path class="cls-2" d="M20,148.09l.22.28-.12.11-.24-.28Z" transform="translate(-0.18 -0.25)"/><path class="cls-2" d="M26.74,148.25l.13-.2.12.12-.11.2Z" transform="translate(-0.18 -0.25)"/><path class="cls-2" d="M19.9,148.2,19.8,148l.11-.11.12.21Z" transform="translate(-0.18 -0.25)"/><path class="cls-2" d="M26.36,148.7l.14-.17.15.12-.16.17Z" transform="translate(-0.18 -0.25)"/><path class="cls-2" d="M26.2,148.87l.17-.17.13.13-.17.17Z" transform="translate(-0.18 -0.25)"/><path class="cls-2" d="M26.33,149l-.18.15L26,149l.16-.16Z" transform="translate(-0.18 -0.25)"/><path class="cls-2" d="M26.2,146.8a.47.47,0,0,1,.05.11s0,0-.05.05a.52.52,0,0,1-.05-.11S26.18,146.82,26.2,146.8Z" transform="translate(-0.18 -0.25)"/><path class="cls-2" d="M25.28,22.9c.09.11.23.2.25.32a7.12,7.12,0,0,1-2.72,6,4.56,4.56,0,0,1-.66.29,3.21,3.21,0,0,1-.12-.69c0-1,.12-2,.19-3Z" transform="translate(-0.18 -0.25)"/><path class="cls-2" d="M18.4,23.28l.25.25.19.22L21.41,26c.09,1,.17,2.06.28,3.09.07.62-.19.55-.6.36a4.43,4.43,0,0,1-2.27-2.49,21.07,21.07,0,0,1-.76-3.33C18.05,23.51,18.28,23.38,18.4,23.28Z" transform="translate(-0.18 -0.25)"/><path class="cls-2" d="M22,25.46q0-2,.07-4.08l2-2c.13.07.36.12.39.22.26,1,.48,1.92.71,2.88l-1,.87Z" transform="translate(-0.18 -0.25)"/><path class="cls-2" d="M20.67,20.69a10.13,10.13,0,0,0-.88-.93.6.6,0,0,1-.1-1c.44-.55.87-1.12,1.32-1.67a1.77,1.77,0,0,1,.38-.27,2.27,2.27,0,0,1,.09.44c0,1,0,1.92,0,2.88s0,.93-.79.51Z" transform="translate(-0.18 -0.25)"/><path class="cls-2" d="M22,21c-.06-1.26-.12-2.53-.16-3.79a1.55,1.55,0,0,1,.11-.43,1.48,1.48,0,0,1,.32.24c.55.72,1.1,1.44,1.64,2.16Z" transform="translate(-0.18 -0.25)"/><path class="cls-3" d="M22,25.46l2.25-2.11,1-.87,0,.42-3.06,3Z" transform="translate(-0.18 -0.25)"/><path class="cls-3" d="M22,21l1.91-1.83.24.19-2,2Z" transform="translate(-0.18 -0.25)"/><path class="cls-2" d="M15.51,127.86c-.71.08-.93-.16-.61-.84.13-.27.17-.58.28-.86s.24-.94.43-1c.55-.08,1.54.87,1.57,1.39a1.09,1.09,0,0,1-.94,1.18A6.65,6.65,0,0,1,15.51,127.86Z" transform="translate(-0.18 -0.25)"/><path class="cls-2" d="M19.89,125.93l-.36-.24c.28-.32.55-.64.84-.94,0,0,.18.11.27.17Z" transform="translate(-0.18 -0.25)"/><path class="cls-2" d="M23.8,124.32a.22.22,0,0,1,0,.06h0l.08-.05Z" transform="translate(-0.18 -0.25)"/><path class="cls-2" d="M38,112.8s0,0,0,.05,0,0,0,.05,0,0,0-.05S37.94,112.82,38,112.8Z" transform="translate(-0.18 -0.25)"/><path class="cls-2" d="M27.45,113.1c.36-.31.56-.63.81-.67.51-.09.82.23.82.76a.72.72,0,0,1-.9.79C28,113.95,27.79,113.53,27.45,113.1Z" transform="translate(-0.18 -0.25)"/><path class="cls-2" d="M32.51,112l.58.63a2.06,2.06,0,0,1-.68.39c-.13,0-.43-.29-.42-.44S32.25,112.3,32.51,112Z" transform="translate(-0.18 -0.25)"/><path class="cls-2" d="M15.71,112.44c-.42.23-.61.44-.77.41a.79.79,0,0,1-.49-.42c0-.09.24-.44.34-.43A3.51,3.51,0,0,1,15.71,112.44Z" transform="translate(-0.18 -0.25)"/><path class="cls-2" d="M10.08,10.29l-.33.15Z" transform="translate(-0.18 -0.25)"/><path class="cls-2" d="M30.21,135.48a1.06,1.06,0,0,1-.24.05s-.08-.05-.12-.08a.83.83,0,0,1,.21-.07S30.14,135.43,30.21,135.48Z" transform="translate(-0.18 -0.25)"/><path class="cls-2" d="M33.36,134.79l0,0-.07,0s0,0,.05,0S33.34,134.77,33.36,134.79Z" transform="translate(-0.18 -0.25)"/><path class="cls-2" d="M29.85,118.28l.06,0,0,.08h-.06S29.86,118.29,29.85,118.28Z" transform="translate(-0.18 -0.25)"/><path class="cls-2" d="M21,152.89H19.85c0-1.16,0-1.17,1.12-1.12Q21,152.34,21,152.89Z" transform="translate(-0.18 -0.25)"/><path class="cls-2" d="M51.58,80.53l-.17.48Z" transform="translate(-0.18 -0.25)"/><path class="cls-2" d="M51.24,81.47,51,82Z" transform="translate(-0.18 -0.25)"/><path class="cls-2" d="M50.91,82.14l-.19.36Z" transform="translate(-0.18 -0.25)"/><path class="cls-1" d="M23.31,144.66c-.07-.76.28-.9.92-.65.15.06.35.19.45.14,1-.56.85.27,1,.76s.33.9-.51.62a2.65,2.65,0,0,0-1.13.12c-.91.15-.54-.63-.73-1Z" transform="translate(-0.18 -0.25)"/><path class="cls-1" d="M23.3,144.65c-.16.62-.24,1.37-1.17.71,0,0-.16,0-.23,0-.29,0-.79,0-.83-.13A4.86,4.86,0,0,1,21,144s.16-.13.18-.11a.43.43,0,0,1,.17.23c.05.34.08.68.11,1,.07-.34.12-.69.22-1,0-.09.25-.21.31-.18.38.2,1-.47,1.19.37a2.18,2.18,0,0,0,.16.39Zm-.38-.24a1.86,1.86,0,0,0-.18-.16s-.06,0-.09.07a1.06,1.06,0,0,0,.15.15S22.87,144.43,22.92,144.41Z" transform="translate(-0.18 -0.25)"/><path class="cls-2" d="M22.92,144.41s-.11.07-.12.06a1.06,1.06,0,0,1-.15-.15s.08-.08.09-.07A1.86,1.86,0,0,1,22.92,144.41Z" transform="translate(-0.18 -0.25)"/></g></g></g></g></svg>