<svg xmlns="http://www.w3.org/2000/svg" viewBox="0 0 54.17 159.93"><defs><style>.cls-1{fill:#a18168;}.cls-2{fill:#400e0c;}.cls-3{fill:#a9acc8;}.cls-4{fill:#b23732;}.cls-5{fill:#837d91;}</style></defs><title>Asset 18</title><g id="Layer_2" data-name="Layer 2"><g id="runa"><g id="runa-19"><g id="runa-19-svg_Image" data-name="runa-19-svg Image"><path class="cls-1" d="M30.23.1H31.6a.69.69,0,0,0,.22.11c1.71.14,3.43.24,5.14.43a36.43,36.43,0,0,1,8.76,1.93,12.25,12.25,0,0,1,4.21,2.3c-.54-.28-1.07-.58-1.61-.85a34.45,34.45,0,0,0-9-2.8.59.59,0,0,0-.46.12c-.41.43-.74.95-1.19,1.34s-.24.38.09.44c.8.16,1.6.29,2.41.43a47.34,47.34,0,0,1,4.67.88c1.95.56,3.84,1.34,5.75,2l.27.07-.14-.21L50.1,5a6.24,6.24,0,0,1,2.76,6.15,2.83,2.83,0,0,0,.2,1.89c.11.21.55.69-.21.71a1.43,1.43,0,0,0,.06.26,17.84,17.84,0,0,1,1.24,2.85,12,12,0,0,1,.17,3q-.08,7.41-.2,14.82-.31,18.06-.64,36.13c-.06,3.19-.1,6.37-.15,9.56l0,3.18c0,1.22,0,2.44,0,3.66-.07,3.19-.16,6.37-.22,9.56-.1,6.1-.18,12.21-.27,18.31q-.25,15.68-.53,31.35a2,2,0,0,1-.29,1c-.93,1.43-1.91,2.83-2.88,4.23a2,2,0,0,1-.38.32,2.38,2.38,0,0,0-.42.16,29.67,29.67,0,0,1-3.82,2.25c-1,.41-.85,1.19-1.11,1.86l-2.07,1c0-.62-.38-.46-.75-.34-1.35.43-2.68.93-4.05,1.22a50.47,50.47,0,0,1-5.35.81,32.91,32.91,0,0,1-3.47,0c-.08,0-.15.08-.23.1a3.32,3.32,0,0,1-.93.21c-1-.05-1.94-.15-2.91-.25-1.3-.13-2.61-.28-3.91-.39a2.57,2.57,0,0,0-.76.17h0c-.25-.56-.64-.57-1.1-.27a1.58,1.58,0,0,1-.46,0c-2.7-.93-5.41-1.84-8.09-2.84a7,7,0,0,1-2.77-2A35.2,35.2,0,0,1,2.23,147a1.43,1.43,0,0,1-.16-.65q-.12-7.42-.23-14.83c-.08-6-.15-12-.25-18-.09-5.81-.24-11.62-.33-17.42-.13-8.2-.21-16.4-.33-24.61Q.62,49.65.29,27.78C.24,24.15.22,20.53.18,16.9l.3-.79a4.66,4.66,0,0,0,.71-.56,1.05,1.05,0,0,1,1.41-.31c.64,1.11,1.27,2.23,1.95,3.32a1.06,1.06,0,0,1,.06,1.07C4,21.27,3.38,22.91,2.78,24.56a1.91,1.91,0,0,0,0,.46,1.68,1.68,0,0,0,.33-.35C4,22.75,5,20.83,5.87,18.9a.74.74,0,0,0-.11-.64c-.67-.84-1.38-1.64-2.06-2.46-.3-.36-.56-.75-.83-1.13L4.8,12.81c.19.15.37.31.56.45l.78.55-.24-.88a.55.55,0,0,1,0-.13c-.14-.37,0-.51.38-.61,1.07-.29,2.12-.64,3.18-1l4-1.19c.32-.09.66-.15,1-.23,1.08-.3,2.16-.59,3.23-.91.12,0,.3-.27.27-.35a1.2,1.2,0,0,0-.36-.46C17.17,7.7,16.55,8,16,7.63a2.27,2.27,0,0,0-2.2-.36.62.62,0,0,1-.47,0c-.71-.34-1.35.06-2,.16-.18,0-.44.09-.55,0a1.83,1.83,0,0,0-1.67-.25c-.65.14-1.32.22-2,.32a8.38,8.38,0,0,0,.56-.86,1.54,1.54,0,0,0,.05-.55c-.18,0-.43,0-.52.1-.28.32-.49.71-.74,1.06a5.26,5.26,0,0,1-.35.41c-.68.39-1.39.73-2,1.19a4.76,4.76,0,0,0-1.48,2.47,1.4,1.4,0,0,1-.22.31,1.73,1.73,0,0,1-.18-.32A4.42,4.42,0,0,1,2,10.36c-.1-1.3-.26-2.65.81-3.65a16.32,16.32,0,0,1,2.53-2A29.22,29.22,0,0,1,15,1.32,41.09,41.09,0,0,1,26.09.54q1.53.1,3,.26c1.2.13,2.4.31,3.61.42.17,0,.36-.19.54-.29-.15-.12-.3-.32-.47-.34-.7-.1-1.4-.14-2.1-.23A1.62,1.62,0,0,1,30.23.1ZM50.75,78.59l0-.19s-.1.06-.11.1,0,.3,0,.45h0c-.08.57-.17,1.13-.23,1.7,0,.23,0,.56.39.41l.11-1.56c0-.15,0-.3,0-.45ZM20.89,136.77a1.58,1.58,0,0,0-.37-.38c-.08,0-.36.06-.36.12a4.59,4.59,0,0,0,0,.88c0,.06.11.12.17.18s.15-.11.16-.17c0-.74.26-.13.39,0s.28.19.43.29a3.36,3.36,0,0,0,.12-.49,1.6,1.6,0,0,0,0-.54c0-.1-.15-.18-.23-.26l-.17.33ZM30.46,3.71a3.18,3.18,0,0,1,.67-.06c2.33.29,4.67.52,7,.93a44.19,44.19,0,0,1,6.74,1.53,69.58,69.58,0,0,1,6.52,3,3.17,3.17,0,0,0,.41.13,2.27,2.27,0,0,0-.19-.45c-.12-.18-.44-.42-.41-.48.42-.69-.29-1.14-.54-1.28-.91-.47-1.74-1.25-2.89-1.14a1,1,0,0,1-.39-.1,46.1,46.1,0,0,0-7-1.9,20.24,20.24,0,0,0-2.77-.35c-.69,0-1.42.16-2.09.05a14.34,14.34,0,0,0-2.85-.25c-.74,0-1.49-.08-2.24-.12-.29,0-.53,0-.3.41l-.2,0-.7.1c0,.08,0,.21.07.22a2.2,2.2,0,0,0,.76.12C30.21,4.06,30.33,3.84,30.46,3.71Zm4.79,64.65v0c2.57,0,5.15,0,7.72,0,.48,0,.71-.11.68-.65a15.34,15.34,0,0,1,0-2.18c.06-.64-.21-.75-.78-.74-2.76,0-5.51,0-8.27,0a2.53,2.53,0,0,1-.43-.07,3.25,3.25,0,0,1,.28-.26c2.44-1.81,5-3.53,7.32-5.44,2.19-1.77,1.84-.83,1.91-3.73a1.43,1.43,0,0,1,0-.2c.1-.56-.19-.69-.7-.69-2,0-4-.12-6-.15-3.21,0-6.42-.06-9.63-.11-.46,0-.6.13-.58.58,0,.89.06,1.77.07,2.66,0,.39.18.5.55.5.79,0,1.59.08,2.38.08h6.69a8.19,8.19,0,0,1,1,.12c-.24.2-.47.42-.73.59-2.7,1.82-5.42,3.62-8.12,5.46a3.44,3.44,0,0,0-1.33,1.26,9.69,9.69,0,0,0-.3,2.33c-.07.52.13.66.64.65C30.15,68.34,32.7,68.35,35.25,68.35ZM43.89,36c0-.35,0-.55,0-.75s0-.41,0-.61c0-.72-.07-.8-.76-.57-3.22,1.1-6.44,2.18-9.64,3.31-2.2.77-4.39,1.61-6.58,2.4a.59.59,0,0,0-.47.69c.07.88.07,1.77.17,2.64a.91.91,0,0,0,.51.59c.82.32,1.68.53,2.51.84,2.66,1,5.33,2,8,3,1.9.78,3.75,1.7,5.6,2.59.51.24.64.12.62-.4,0-.87,0-1.73,0-2.6a.72.72,0,0,0-.5-.78c-.85-.37-1.69-.78-2.55-1.15-.28-.12-.41-.22-.22-.54.41-.71.75-1.45,1.17-2.16a1,1,0,0,0,0-1.08c-.36-.68-.69-1.39-1-2.08-.16-.32-.15-.51.26-.63a25.82,25.82,0,0,0,2.45-.86.94.94,0,0,0,.49-.62A7.45,7.45,0,0,0,43.89,36ZM32.62,76.83v-.1c1.59,0,3.19,0,4.78,0a7.81,7.81,0,0,1,2.26.33c1.16.39,1.66,2.36,1.08,3.75A2.87,2.87,0,0,1,38,82.55c-1,.07-2,.1-2.93.12-2.48,0-5,.08-7.45.1-.47,0-.65.14-.62.62s0,1.18,0,1.78c0,1.25,0,1.27,1.24,1.25,3.16-.05,6.31-.11,9.47-.2a8,8,0,0,0,2.08-.32,4.91,4.91,0,0,0,3.49-3.39,11,11,0,0,0,.06-6.13,3.94,3.94,0,0,0-2.54-2.91A10.38,10.38,0,0,0,37.92,73c-1.32,0-2.64.15-4,.16-2.16,0-4.32,0-6.47-.05-.41,0-.5.17-.5.53,0,.8.05,1.6,0,2.39,0,.62.14.83.78.81C29.39,76.8,31,76.83,32.62,76.83Zm-.42,25c3-.2,5.35-.35,7.75-.54.91-.07,1.81-.19,2.71-.35a.7.7,0,0,0,.45-.49,22.7,22.7,0,0,0,0-2.46.58.58,0,0,0-.42-.39c-.72,0-1.44.14-2.16.25-1.67.27-1.79.21-2.39-.93-.19-.37-.14-.53.21-.74,1.18-.72,2.31-1.55,3.53-2.21a2.21,2.21,0,0,0,1.39-2.53,4.37,4.37,0,0,1,.06-.68c0-.43,0-.85,0-1.28-.37.2-.75.38-1.1.6L37,93.23c-.38.23-.71.38-1.07-.15a6,6,0,0,0-1.23-1.15,4.8,4.8,0,0,0-3.3-.78,3.94,3.94,0,0,0-2.26.61A4.68,4.68,0,0,0,27,95.41c-.16,1.92-.1,3.87-.18,5.8,0,.55.19.64.67.64C29.25,101.82,31,101.83,32.2,101.83ZM40,24.9a7.7,7.7,0,0,1-.56-1.77,7.12,7.12,0,0,0-1.84-4.39c-.48-.54-.86-1.17-1.36-1.69a.6.6,0,0,0-1.06.08,24.05,24.05,0,0,1-1.64,2c-.26.29-.73.48-.84.81a15.79,15.79,0,0,0-1,3.72,8.09,8.09,0,0,0,2.84,6.79c1.32,1.22,2.23.89,3.31-.25A8.76,8.76,0,0,0,40,24.9ZM30,124.43a7.61,7.61,0,0,0-3.85,1.5,4.75,4.75,0,0,0-.67.64c-.06.07-.05.21-.07.32a.78.78,0,0,0,.31,0,5.21,5.21,0,0,0,.95-.5,4.3,4.3,0,0,1,2.75-1,2.27,2.27,0,0,1,.72.29,2.5,2.5,0,0,1-.4.72,9,9,0,0,1-1.12.77c-.15.1-.31.17-.46.25l0-.57,0-.63a3.17,3.17,0,0,0-.67.37,1.25,1.25,0,0,0-.26.54c-.28.87-.53,1.74-.81,2.6-.14.43-.27.89-.87.88a.33.33,0,0,0-.26.18.3.3,0,0,0,.14.26c.49.12.44.37.28.75s.11.47.4.35.33-.3.51-.43a2.94,2.94,0,0,1,.73-.45c.85-.29,1.75-.45,2.56-.81a1.8,1.8,0,0,0,1.07-1.7,1.32,1.32,0,0,0-1.06-1.26c-.5-.18-.2-.37,0-.55a8.77,8.77,0,0,0,1.2-1.19c.4-.57.15-1.06-.52-1.22C30.4,124.49,30.18,124.46,30,124.43Zm7.62,3.46.18.57a5.21,5.21,0,0,0,.5-.47,1.81,1.81,0,0,0,.21-.43,6.29,6.29,0,0,1,2.06-2.91c.11-.07.11-.29.17-.45-.17,0-.42-.1-.51,0-.37.33-.68.71-1,1.07l-.28.28a5.73,5.73,0,0,1-.4-.5s.16-.14.21-.23.2-.39.29-.58c-.23,0-.54-.06-.68.06-.49.43-.92.93-1.38,1.4a1.63,1.63,0,0,1-.26.18,1.28,1.28,0,0,0,0-.28,4.13,4.13,0,0,0-.1-.42c-.12.05-.28.07-.35.16a12.52,12.52,0,0,0-.7,1.07,7.73,7.73,0,0,1-2.36,2.87c-.33.21-.65.28-.87-.13s.1-.46.37-.63a9.56,9.56,0,0,0,1.58-1.32c.16-.17.19-.76.08-.84a1.22,1.22,0,0,0-1-.14,3.48,3.48,0,0,0-2,2.13c-.18.49-.3,1,.13,1.4a1.19,1.19,0,0,0,1.52.1,15.24,15.24,0,0,0,1.62-1.34c.16-.14.31-.3.46-.45l-.09.66a.38.38,0,0,0,0,.07c0,.21,0,.42,0,.62a5.79,5.79,0,0,0,.6-.37c.08-.06.1-.2.14-.31a8.18,8.18,0,0,1,2.13-3.28,1.2,1.2,0,0,1,.33-.17,3.84,3.84,0,0,1-.06.38C38,126.39,37.81,127.11,37.6,127.89Zm-6.16,19.9a3.71,3.71,0,0,0,4.41,3.65,5.39,5.39,0,0,0,4.32-5A3.51,3.51,0,0,0,37.88,143,5.25,5.25,0,0,0,31.44,147.79Zm9.61-23.63c-.09.83-.23,1.59-.25,2.36,0,.3.25.61.38.92.31-.18.75-.29.91-.57a19,19,0,0,0,.92-2,2.42,2.42,0,0,1,.13-.23,1,1,0,0,1,0,.28c-.23,1.18-.48,2.36-.69,3.55a3.38,3.38,0,0,0,.07.87c.21-.25.43-.49.64-.74a.45.45,0,0,0,0-.2l.61-3.46c.13-.76.27-1.52.39-2.29a1.06,1.06,0,0,0-.09-.37c-.14,0-.34,0-.4.14a8.3,8.3,0,0,0-.63,1.19c-.39.95-.73,1.91-1.12,2.86-.06.15-.23.26-.35.39a1.71,1.71,0,0,1-.1-.55c.17-1.05.37-2.1.55-3.16a1.57,1.57,0,0,0-.05-.44l-.36.12A1,1,0,0,0,41.05,124.16ZM3.16,43.48l.1,0v.26a1.25,1.25,0,0,0,.27-.25c.88-1.54,1.72-3.1,2.63-4.61A1.28,1.28,0,0,0,6,37.19C5,36,4.16,34.74,3.21,33.51a1.2,1.2,0,0,0-.32-.21,1.25,1.25,0,0,0,.05.38A22.17,22.17,0,0,0,4.6,36.89a2.28,2.28,0,0,1,.15,2.76A40.23,40.23,0,0,0,3.16,43.48Zm.19,8.34a2.77,2.77,0,0,0,.1.58c.71,1.44,1.42,2.89,2.17,4.32a.91.91,0,0,1,0,1C5,59.09,4.36,60.54,3.73,62a1.06,1.06,0,0,0,0,.37A1.18,1.18,0,0,0,4,62.14C5,60.55,6,59,7,57.37a.53.53,0,0,0,0-.47c-1.09-1.57-2.19-3.13-3.29-4.69C3.63,52.12,3.55,52,3.35,51.82Zm4.44,28a3.61,3.61,0,0,0-.59.46c-1,1.29-1.94,2.57-2.86,3.89a1.08,1.08,0,0,0,0,.87A19,19,0,0,0,5.43,87c.6,1,1.24,2,1.89,3,.11.16.35.23.53.35a3.07,3.07,0,0,0-.16-.55,31.83,31.83,0,0,0-1.81-3.5A2.44,2.44,0,0,1,6,83a20,20,0,0,0,1.62-2.68A2.51,2.51,0,0,0,7.79,79.77ZM7.33,61.31l-.06-.19c-.1,0-.24.06-.28.14-1,1.59-2.08,3.19-3.08,4.8-.08.13,0,.44.13.63.5.92,1,1.84,1.57,2.71.47.72,1,1.38,1.58,2.05a1.64,1.64,0,0,0,.42.28c0-.17-.06-.34-.11-.51A1.13,1.13,0,0,0,7.37,71c-.64-1.13-1.22-2.29-1.93-3.37a2.08,2.08,0,0,1,0-2.7,10.44,10.44,0,0,0,.86-1.47C6.62,62.74,7,62,7.33,61.31ZM6.82,42.2,6.76,42c-.09.06-.21.11-.26.2-1,1.79-2.06,3.57-3.06,5.37a.74.74,0,0,0,.09.62q1.32,2,2.69,4a4.06,4.06,0,0,0,.7.7c.05,0,.2,0,.3,0a.75.75,0,0,0,0-.25L4.92,49.05a2,2,0,0,1-.28-2.29C5.39,45.44,6,44,6.6,42.65ZM6.23,22.95l0-.2c-.1.07-.26.12-.31.22-1,2-2,3.93-3,5.91-.07.15,0,.45.17.61q1.36,1.87,2.77,3.71a2.7,2.7,0,0,0,.63.45c-.07-.27-.13-.54-.21-.81a1.33,1.33,0,0,0-.18-.29c-.7-1.09-1.37-2.2-2.09-3.27A1,1,0,0,1,4,28.14c.42-.88.8-1.78,1.19-2.68S5.87,23.78,6.23,22.95ZM3.86,70.42a2.8,2.8,0,0,0,.09.56c.73,1.54,1.48,3.06,2.19,4.61a1,1,0,0,1,0,.78c-.67,1.31-1.38,2.6-2.07,3.9-.06.11,0,.29,0,.43a1.34,1.34,0,0,0,.3-.22C5.2,79.4,6,78.34,6.81,77.26s.81-1.13,0-2.34c-.08-.11-.14-.23-.21-.35L4.28,71C4.19,70.82,4.08,70.71,3.86,70.42Zm.51,28.39.17-.23c1-1.19,2-2.36,2.94-3.57a.87.87,0,0,0,0-.78c-1-1.76-2-3.5-3-5.24a1.85,1.85,0,0,0-.31-.32,1.72,1.72,0,0,0,.06.45c.67,1.56,1.33,3.13,2.05,4.67A1.06,1.06,0,0,1,6.2,95c-.69,1.09-1.33,2.21-2,3.33a.7.7,0,0,0,0,.37S4.28,98.75,4.37,98.81Zm3.58,17.51a3.18,3.18,0,0,0-.65.39c-.87,1-1.74,1.91-2.57,2.9a.8.8,0,0,0,0,.68c.71,1.57,1.42,3.13,2.18,4.68a14.71,14.71,0,0,0,1,1.61c.06.09.22.12.33.18a1.55,1.55,0,0,0-.07-.38c-.72-1.58-1.36-3.21-2.2-4.73a2,2,0,0,1,.36-2.57,21.5,21.5,0,0,0,1.63-2.25C8,116.73,7.95,116.55,7.95,116.32Zm-.06-3.68c-.07-.13-.12-.26-.19-.37q-1.4-2.53-2.81-5.06c-.17-.31-.39-.59-.58-.88a4.91,4.91,0,0,0,.2,1.11c.62,1.45,1.24,2.9,1.94,4.3a1,1,0,0,1-.13,1.14c-.61.93-1.18,1.88-1.75,2.84a1.21,1.21,0,0,0-.07.44,1.52,1.52,0,0,0,.44-.23c.93-1,1.84-2,2.76-3A2.11,2.11,0,0,0,7.89,112.65ZM7.82,98.23a4.77,4.77,0,0,0-.65.51c-.86,1.06-1.74,2.11-2.55,3.22a1.12,1.12,0,0,0-.09,1c.91,1.78,1.87,3.52,2.83,5.27a3.32,3.32,0,0,0,.56.6,3.92,3.92,0,0,0-.2-.84c-.66-1.37-1.31-2.74-2.05-4.06a1.73,1.73,0,0,1,.23-2.23,28.92,28.92,0,0,0,1.88-2.84C7.85,98.71,7.81,98.54,7.82,98.23ZM8,134.42a1.05,1.05,0,0,0-.26.11c-.93.75-1.88,1.48-2.77,2.27a.9.9,0,0,0-.09.8c.44,1.17.87,2.35,1.41,3.47s1.11,2,1.68,3a1.52,1.52,0,0,0,.2.23,1,1,0,0,0,0-.35c-.1-.3-.22-.6-.35-.89-.66-1.5-1.29-3-2-4.49a1.06,1.06,0,0,1,.25-1.37c.68-.73,1.29-1.52,1.92-2.29a1,1,0,0,0,.14-.36S8.06,134.45,8,134.42ZM4.58,124.08a2.12,2.12,0,0,0,0,.66c.68,1.64,1.34,3.28,2.08,4.89a1,1,0,0,1-.21,1.24c-.6.71-1.13,1.48-1.67,2.23-.07.1,0,.28,0,.43a1.08,1.08,0,0,0,.37-.12c.91-.78,1.83-1.56,2.7-2.38a.72.72,0,0,0,.07-.65c-.25-.56-.58-1.08-.86-1.62-.72-1.4-1.43-2.8-2.14-4.19C4.81,124.42,4.72,124.29,4.58,124.08Zm3.5,24.13c-.23-.39-.46-.73-.64-1.09-.84-1.74-1.66-3.48-2.49-5.21-.06-.12-.2-.2-.3-.29a3.07,3.07,0,0,0,.09.36c.63,1.73,1.25,3.46,1.91,5.17a.82.82,0,0,1-.19,1c-.47.58-.88,1.21-1.3,1.83a1.34,1.34,0,0,0-.11.42,1.38,1.38,0,0,0,.42-.12q1.17-.82,2.32-1.67A2,2,0,0,0,8.08,148.21Zm13-32.75h0c0-.36,0-.73,0-1.09s0-.53-.42-.54-.42.24-.41.53,0,.41,0,.61a1.38,1.38,0,0,1-.05.26.91.91,0,0,1-.26-.16c-.29-.35-.54-.74-.85-1.06a2.08,2.08,0,0,0-.64-.31,2,2,0,0,0-.2.58c0,.7,0,1.41,0,2.11,0,.13.26.3.43.35s.29-.21.33-.35a4.24,4.24,0,0,0,0-.75,1.29,1.29,0,0,1,.08-.3,1.23,1.23,0,0,1,.25.19c.31.39.59.81.93,1.17a.85.85,0,0,0,.6.2c.07,0,.18-.31.19-.49S21,115.77,21,115.45Zm6-1.43h0a2.14,2.14,0,0,1-.34,0c-.58-.09-.75.15-.7.71s0,1.23,0,1.84c0,.19.27.36.41.55.14-.15.37-.29.4-.46.1-.52.32-.41.59-.16s.23.39.39.46a3.45,3.45,0,0,0,.83.13,1.74,1.74,0,0,0-.21-.54c-.25-.29,0-.44.07-.69a1.73,1.73,0,0,0,.13-1.19c-.12-.29-.6-.47-.95-.62A1.82,1.82,0,0,0,27.06,114Zm6,2.2c0-1.14,0-1.14-1.05-1.06H32l-.45.3c.14.12.28.24.43.35a1.67,1.67,0,0,0,.27.13c-.07.08-.14.24-.2.24-.33,0-.8,0-1-.15a1.13,1.13,0,0,1-.11-1,.81.81,0,0,1,1.18-.3c.15.07.42-.1.62-.19a.53.53,0,0,0-.09-.36,1.71,1.71,0,0,0-2.24.18,1.5,1.5,0,0,0-.12,2.09,1.76,1.76,0,0,0,1.91.51C32.75,116.83,33.35,117,33.09,116.22Zm-10.76-.8a8.31,8.31,0,0,0,0,1.16.59.59,0,0,0,.36.42,11.76,11.76,0,0,0,1.7.07c.13,0,.27-.19.4-.3-.13-.14-.23-.37-.38-.41s-.59,0-.88,0c-.14,0-.26-.17-.39-.26a1.33,1.33,0,0,1,.37-.19c.2,0,.42,0,.61,0s.34-.22.32-.29a.6.6,0,0,0-.32-.38,6.94,6.94,0,0,0-.74,0c-.1,0-.18-.16-.26-.25.1-.07.19-.19.29-.2.34,0,.68.05,1,0,.12,0,.27-.25.3-.4s-.16-.29-.28-.33a2.65,2.65,0,0,0-.68,0C22.29,113.93,22.29,113.93,22.33,115.43ZM24.93,2c-.7.08-1.59.17-2.48.3-.13,0-.23.18-.35.28a1.37,1.37,0,0,0,.44.15c.73,0,1.45-.1,2.18-.11,2.29,0,4.59,0,6.88,0,1,0,1.9.11,2.86.15.33,0,.66,0,1,0l-.88-.18-.13,0c-1.8-.17-3.6-.38-5.4-.49C27.75,1.93,26.43,2,24.93,2ZM14.83,114.88h0a9.33,9.33,0,0,0,0,1.09c0,.16.16.4.28.43a12.37,12.37,0,0,0,1.62.18.4.4,0,0,0,.3-.25.49.49,0,0,0-.18-.39c-.12-.08-.31-.06-.46-.1s-.55-.19-.83-.28c.27-.06.54-.1.8-.18a1.94,1.94,0,0,0,.39-.23c-.13-.14-.23-.33-.38-.41s-.37,0-.53-.07-.2-.2-.29-.3a1.15,1.15,0,0,1,.38-.16c.22,0,.45.08.67.06s.34-.16.35-.25a.54.54,0,0,0-.22-.42,1.16,1.16,0,0,0-.53-.08l-1.38,0Zm24.69-.11c0,.07,0,.14,0,.2,0,1.53,0,1.53,1.49,1.1a1.7,1.7,0,0,0,1-2,1.15,1.15,0,0,0-1.34-1c-1.2.13-1.2.13-1.2,1.37C39.51,114.54,39.51,114.65,39.52,114.77Zm5.72-1.52c-.26-.26-.51-.68-.86-.79a2.05,2.05,0,0,0-1.11.21.52.52,0,0,0-.3.37c0,.75,0,1.5,0,2.25,0,.13.18.25.28.37.13-.11.35-.21.36-.33.07-.82.28-.53.62-.13.11.13.43.08.66.11,0-.17,0-.35,0-.52a2.57,2.57,0,0,1,0-.6A9.31,9.31,0,0,1,45.24,113.24Zm-10.8.42c-.49.07-.59.16-.37.56.36.66,1,1.16,1,2.05a.62.62,0,0,0,.36.48c.37.1.4-.18.45-.49a6.4,6.4,0,0,1,.37-1.34c.13-.34.37-.63.51-1,0-.08-.14-.24-.22-.37-.25.19-.59.32-.73.57-.27.5-.44.61-.75,0A2.71,2.71,0,0,0,34.44,113.66Zm14.53-1h0c0-.36,0-.73,0-1.09a1.17,1.17,0,0,0-.19-.38c-.11.12-.28.23-.32.37a3.92,3.92,0,0,0,0,.68.71.71,0,0,1-.11.22.88.88,0,0,1-.19-.15c-.07-.09-.09-.22-.16-.29s-.31-.27-.47-.4a2.17,2.17,0,0,0-.21.6c0,.61,0,1.23,0,1.84a1.68,1.68,0,0,0,.2.51,2.45,2.45,0,0,0,.27-.51,5.62,5.62,0,0,0,.1-.77,4.56,4.56,0,0,0,.42.56,2.38,2.38,0,0,0,.47.3,1.9,1.9,0,0,0,.23-.52A8.11,8.11,0,0,0,49,112.66Zm-14.23-2c0,1.2,0,1.2,1.1,1,0,0,.1,0,.13,0l.49-.31a5.73,5.73,0,0,0-.53-.24,3.63,3.63,0,0,0-.48-.1,3.35,3.35,0,0,0,.44-.2,3.09,3.09,0,0,0,.36-.3,3.37,3.37,0,0,0-.36-.19c-.15-.06-.3-.09-.46-.13a4.62,4.62,0,0,1,.45-.19c.11,0,.25,0,.33,0a1.37,1.37,0,0,0,.25-.34c-.1-.07-.2-.18-.31-.2C35,109.3,34.74,109.51,34.74,110.69Zm5.78-.58h0a4.39,4.39,0,0,0,0,.68c0,.13.14.24.21.35a2.83,2.83,0,0,0,.33-.35c0-.06,0-.18,0-.27s0-.25.07-.38a3.83,3.83,0,0,1,.33.27c.09.1.16.22.25.32a4,4,0,0,0,.36.28c.09-.15.24-.29.26-.45a6.24,6.24,0,0,0,0-1.23,1.83,1.83,0,0,0-.27-.57c-.13.17-.27.34-.38.52a1.14,1.14,0,0,0-.09.3l-.25-.17-.64-.44c-.08.26-.16.52-.23.79A1.49,1.49,0,0,0,40.52,110.11ZM29.65,112.2l.13-.14s.1,0,.13,0c.29-.19.84-.48.81-.56-.19-.5-.48,0-.75,0a.88.88,0,0,1-.64-.24.64.64,0,0,1,0-.61,1,1,0,0,1,.61-.32c.15,0,.33.15.5.17s.23-.1.34-.16a.92.92,0,0,0-.16-.26,1.08,1.08,0,0,0-1.38-.13c-.48.31-.83.77-.56,1.31S29.31,111.89,29.65,112.2Zm8.87-1.13.41.11.52.13a2.54,2.54,0,0,0,0-.56,8.4,8.4,0,0,0-.44-1.14c-.08-.16-.26-.36-.4-.36a.62.62,0,0,0-.42.34c-.21.47-.38,1-.55,1.46a1.72,1.72,0,0,0,0,.44,2.67,2.67,0,0,0,.47-.12A4.71,4.71,0,0,0,38.53,111.08Zm11,1.19h0c0,.39,0,.77,0,1.16,0,.09.09.18.14.27a1.06,1.06,0,0,0,.31-.22c.05-.08,0-.22,0-.33s0-.24.06-.36a1.12,1.12,0,0,0,.17.27,2.19,2.19,0,0,0,.35.21c.06-.14.2-.32.15-.4a2.21,2.21,0,0,1,0-2.2c0-.06-.13-.27-.14-.27a3.36,3.36,0,0,0-1,.47c-.13.12-.07.47-.08.71S49.51,112,49.51,112.26ZM1.58,91.54l-.11,0q.26,1.77.52,3.54a1.53,1.53,0,0,0,.09.27,2.41,2.41,0,0,0,0-.26Q2,93.95,2,92.79c-.05-1-.1-2.09-.16-3.13a1.14,1.14,0,0,0-.1-.29c0,.09,0,.18,0,.27Q1.63,90.59,1.58,91.54ZM32,110.83c0,1.23.08,1.28,1.3,1,0,0,.1,0,.13,0s.17-.17.25-.26c-.11-.09-.23-.26-.32-.24-.75.14-.82-.29-.76-.86a1.53,1.53,0,0,0,0-.54c0-.1-.18-.26-.24-.25s-.3.15-.32.25A6.18,6.18,0,0,0,32,110.83Zm14.49,2.58h0a6.74,6.74,0,0,0,0-1,1.63,1.63,0,0,0-.27-.5c-.12.16-.34.31-.35.48,0,.7,0,1.41,0,2.11,0,.15.18.29.28.43.12-.14.33-.27.35-.42A8.81,8.81,0,0,0,46.5,113.41ZM7.66,66.51c-.11-.6-.23-1.09-.74-1.11s-.56.52-.56.92,0,.93.58.88C7.21,67.17,7.42,66.75,7.66,66.51Zm.54,55.22c0-.76-.11-1.26-.7-1.38-.1,0-.41.44-.43.69,0,.47,0,1,.64,1.1C7.9,122.16,8.12,121.81,8.2,121.74ZM7,47.62c0-.2,0-.31,0-.38-.17-.26-.37-.5-.56-.75a2.77,2.77,0,0,0-.5.69A1.31,1.31,0,0,0,6,48c.06.17.33.4.44.37a1.28,1.28,0,0,0,.56-.45C7,47.83,7,47.65,7,47.62ZM5.2,28.29c.17.27.28.66.52.78s.71-.45.71-1c0-.41,0-.86-.57-.82S5.34,27.78,5.2,28.29Zm3,75.25-.93-1.07a2.61,2.61,0,0,0-.43.8c-.06.42,0,1,.57,1C7.63,104.23,7.85,103.86,8.21,103.54ZM6.55,84.83c.16.55.2,1,.74,1,.19,0,.47-.45.5-.72s0-1-.57-1C7,84.13,6.78,84.58,6.55,84.83Zm1.8,54.63c0-.79-.4-1.47-.7-1.34a1,1,0,0,0-.4.71c-.05.46.06,1,.64,1C8.07,139.85,8.27,139.54,8.36,139.46Zm18.91-2.35c0,.68,0,.67.45.56a.23.23,0,0,1,.18.06c.47.47.5.19.46-.26,0-.26.07-.65-.06-.75a1,1,0,0,0-.82-.09C27.33,136.7,27.29,137.06,27.27,137.11Zm12.24-1.32-.12-.27c-.08.07-.2.12-.23.2s-.05.42-.34.09-.65.52-1,.07c0,0,0,0,0,.06l.3,1c.21-.14.46-.44.61-.39s.37.66.62,0C39.38,136.34,39.43,136.1,39.51,135.79Zm-14.15,1.1c0,.75.24,1.06.68,1.05s.74-.41.66-1c0-.13-.14-.25-.22-.37-.06.12-.13.24-.18.37s-.16.42-.24.63c-.1-.19-.21-.38-.31-.58s-.14-.3-.2-.45Zm-21-79.44a1.23,1.23,0,0,0-.05-.38c-.12-.23-.27-.43-.41-.65a2.28,2.28,0,0,0-.39.63,1.83,1.83,0,0,0,.06.8c0,.15.19.27.28.4a2.28,2.28,0,0,0,.41-.39A1.12,1.12,0,0,0,4.35,57.45ZM3.45,19.87l-.47-1c-.16.29-.44.57-.46.87a3.27,3.27,0,0,0,.29,1.05ZM5.16,94.06l-.68-1a4.16,4.16,0,0,0-.3,1.08c0,.23.26.47.41.7ZM22,137.6a.87.87,0,0,0,.25.12,9.19,9.19,0,0,0,.94,0c.06,0,.19-.15.18-.19a8.16,8.16,0,0,0-.47-1.05.44.44,0,0,0-.39,0C22.28,136.84,22.14,137.2,22,137.6ZM5.28,111.82c-.19-.41-.33-.75-.5-1.07,0,0-.27,0-.28,0a5,5,0,0,0-.09,1.16c0,.19.27.35.42.52ZM2.88,38.7l.11.06A.83.83,0,0,0,3,39c.09.22.2.42.31.63.16-.2.33-.39.48-.6a.33.33,0,0,0,0-.26c-.13-.35-.27-.69-.41-1ZM4.81,76a1.35,1.35,0,0,0,0-.43c-.12-.23-.27-.43-.41-.65-.14.21-.35.4-.39.62a2.08,2.08,0,0,0,.09.86c0,.12.2.29.3.29a.52.52,0,0,0,.34-.27A1.45,1.45,0,0,0,4.81,76Zm20.37,34.59-1.61.17a1.33,1.33,0,0,0-.3.11,2.19,2.19,0,0,0,.33.12c.46.1.92.2,1.38.26a1.16,1.16,0,0,0,.59-.15.38.38,0,0,0,0-.34A1.68,1.68,0,0,0,25.18,110.62ZM5.51,129.47c-.2-.38-.37-.71-.55-1,0,0-.23,0-.23,0a4.42,4.42,0,0,0-.07,1.09c0,.19.28.35.43.52ZM27.75,4.31,26.58,5a3.74,3.74,0,0,0,.9.46c.4.08.83-.06.86-.53C28.36,4.78,28,4.58,27.75,4.31ZM7.28,153.15c.3-.4.57-.74.82-1.1,0-.06,0-.19,0-.3-.29.09-.57.17-.86.27a.68.68,0,0,0-.28.18c-.12.14-.32.39-.28.44A3.49,3.49,0,0,0,7.28,153.15ZM29.84,136.5h-.28L29,137.75c.38,0,.77.09,1.15.11.06,0,.19-.16.18-.2C30.21,137.27,30,136.89,29.84,136.5Zm11.39-1a5.13,5.13,0,0,0,.3.91.71.71,0,0,0,.51-.16,1.65,1.65,0,0,0,.08-.68c0-.1,0-.21,0-.3.11-.42.1-.47-.27-.31S41.41,135.31,41.23,135.49Zm-1.48.45c.24.33.38.69.55.71.5.07.63-.25.47-.7a.39.39,0,0,1,0-.26c.22-.49,0-.54-.38-.38S40,135.65,39.74,135.94Zm-2.68.44.15-.1c-.07-.12-.15-.33-.22-.33a1.08,1.08,0,0,0-.61.15c-.1.07-.09.32-.08.48s.13.19.15.3a1.17,1.17,0,0,1,0,.35,2.5,2.5,0,0,0,.7-.1c.1,0,.15-.29.15-.45S37.13,136.48,37.07,136.38Zm6.77-1.29c.14.18.28.5.41.5.4,0,.58-.26.45-.67a1.06,1.06,0,0,1-.09-.35,1.42,1.42,0,0,1,.13-.37c-.19,0-.45,0-.55.12A2.93,2.93,0,0,0,43.84,135.08Zm2.49-.92.32.59a4.57,4.57,0,0,0,.43-.62.84.84,0,0,0,0-.46,3,3,0,0,0-.14-.45c-.15.08-.36.12-.45.25A2.36,2.36,0,0,0,46.33,134.16Zm-.24.25a3.64,3.64,0,0,0,0-.58s-.14-.07-.22-.1c0,.42-.18.51-.51.2,0,0-.18.09-.18.14,0,.36,0,.71,0,1.07.13-.1.29-.31.37-.28C46.21,135.1,46.07,134.63,46.09,134.41Zm-22,2.08-.43.12c0,.06,0,.16.06.17.52.08.34.49.38.8a1,1,0,0,0,.14.28c.2-.38.41-.75.6-1.13,0,0-.12-.15-.21-.18A3,3,0,0,0,24.07,136.49ZM5.55,146.56l-.62-1c-.07.17-.22.37-.18.5a6.67,6.67,0,0,0,.5.95Zm40.74-37.48c-.05,0-.09-.12-.13-.12a11.21,11.21,0,0,0-1.4.11c-.1,0-.15.31-.23.48.15,0,.33.15.46.11a11.86,11.86,0,0,0,1.13-.45A1,1,0,0,0,46.28,109.09Zm-11.4,27.24-.14-.11c-.27.41-.6.23-.93.1,0,0-.11.11-.1.14q.24.54.52,1.06s.16,0,.17,0C34.57,137.13,34.71,136.76,34.88,136.33Zm-3.53,1.59.62-.28s-.08-.14-.12-.14c-.65.07-.49-.41-.54-.77,0-.08-.16-.14-.24-.21a5.1,5.1,0,0,0-.1,1C31,137.64,31.22,137.77,31.36,137.91Zm15.91-4.43.41.76a5.14,5.14,0,0,0,.46-.9c0-.11-.2-.3-.31-.46ZM32.5,137c0,.7.39,1,.92.66,0,0,0-.16.05-.24-.66.07-.57-.38-.57-.79,0-.08-.11-.16-.17-.25-.06.08-.16.15-.18.24A1.78,1.78,0,0,0,32.5,137Zm11-2.43c.06.08,0,0,0,0-.24,0-.67.1-.68.17a4.19,4.19,0,0,0,.14,1c0,.07.1.12.15.18s.16-.1.18-.17C43.36,135.41,43.42,135.05,43.5,134.56ZM27.71,9.62l.83-.32c-.25-.14-.51-.39-.75-.38s-.52.28-.78.43ZM2.14,97h0c0-.33,0-.66-.07-1H2q0,.5,0,1s0,0,0,.07q0,.41,0,.81h0q0-.37,0-.75S2.14,97,2.14,97Z" transform="translate(-0.18 -0.1)"/><path class="cls-1" d="M29.28.1h0Z" transform="translate(-0.18 -0.1)"/><path class="cls-1" d="M29.69.1l-.1.09,0-.09Z" transform="translate(-0.18 -0.1)"/><path class="cls-2" d="M35.25,68.35c-2.55,0-5.1,0-7.65,0-.51,0-.71-.13-.64-.65a9.69,9.69,0,0,1,.3-2.33,3.44,3.44,0,0,1,1.33-1.26c2.69-1.84,5.41-3.64,8.12-5.46.26-.17.49-.39.73-.59a8.19,8.19,0,0,0-1-.12H29.78c-.79,0-1.59-.07-2.38-.08-.36,0-.54-.11-.55-.5,0-.89,0-1.78-.07-2.66,0-.45.12-.59.58-.58,3.21,0,6.42.06,9.63.11,2,0,4,.12,6,.15.51,0,.79.13.7.69a1.43,1.43,0,0,0,0,.2c-.06,2.9.28,2-1.91,3.73-2.36,1.91-4.87,3.63-7.32,5.44a3.25,3.25,0,0,0-.28.26,2.53,2.53,0,0,0,.43.07c2.76,0,5.51,0,8.27,0,.57,0,.83.1.78.74a15.34,15.34,0,0,0,0,2.18c0,.54-.2.65-.68.65-2.57,0-5.15,0-7.72,0Z" transform="translate(-0.18 -0.1)"/><path class="cls-2" d="M43.89,36a7.45,7.45,0,0,1,0,1.29.94.94,0,0,1-.49.62,25.82,25.82,0,0,1-2.45.86c-.41.12-.42.31-.26.63.35.69.67,1.39,1,2.08a1,1,0,0,1,0,1.08c-.41.7-.76,1.45-1.17,2.16-.18.32-.06.42.22.54.86.37,1.7.77,2.55,1.15a.72.72,0,0,1,.5.78c0,.86,0,1.73,0,2.6,0,.52-.11.65-.62.4-1.86-.89-3.7-1.81-5.6-2.59-2.63-1.08-5.3-2-8-3-.83-.31-1.69-.52-2.51-.84a.91.91,0,0,1-.51-.59c-.1-.87-.1-1.76-.17-2.64a.59.59,0,0,1,.47-.69c2.2-.79,4.38-1.63,6.58-2.4,3.21-1.13,6.43-2.21,9.64-3.31.69-.23.8-.15.76.57,0,.2,0,.41,0,.61S43.87,35.63,43.89,36Zm-5.22,5.79c-.35-.62-.67-1.21-1-1.79,0-.06-.26-.05-.38,0l-4.62,1.61c-.09,0-.15.13-.23.2s.12.14.2.17q2.24.86,4.48,1.7c.13,0,.38.07.43,0C37.92,43,38.28,42.42,38.67,41.77Z" transform="translate(-0.18 -0.1)"/><path class="cls-2" d="M32.62,76.83c-1.62,0-3.23,0-4.85,0-.64,0-.82-.19-.78-.81,0-.79,0-1.59,0-2.39,0-.36.08-.53.5-.53,2.16,0,4.32.07,6.47.05,1.32,0,2.64-.19,4-.16a10.38,10.38,0,0,1,2.87.43,3.94,3.94,0,0,1,2.54,2.91,11,11,0,0,1-.06,6.13,4.91,4.91,0,0,1-3.49,3.39,8,8,0,0,1-2.08.32c-3.15.09-6.31.15-9.47.2-1.24,0-1.24,0-1.24-1.25,0-.59,0-1.19,0-1.78s.15-.62.62-.62c2.48,0,5-.05,7.45-.1,1,0,2-.05,2.93-.12a2.87,2.87,0,0,0,2.77-1.73c.58-1.38.08-3.35-1.08-3.75a7.81,7.81,0,0,0-2.26-.33c-1.59,0-3.19,0-4.78,0Z" transform="translate(-0.18 -0.1)"/><path class="cls-2" d="M32.2,101.83c-1.2,0-3,0-4.71,0-.48,0-.69-.08-.67-.64.08-1.93,0-3.87.18-5.8a4.68,4.68,0,0,1,2.11-3.64,3.94,3.94,0,0,1,2.26-.61,4.8,4.8,0,0,1,3.3.78,6,6,0,0,1,1.23,1.15c.36.53.69.37,1.07.15l5.2-3.13c.36-.22.74-.4,1.1-.6,0,.43,0,.85,0,1.28a4.37,4.37,0,0,0-.06.68A2.21,2.21,0,0,1,41.88,94c-1.22.66-2.34,1.48-3.53,2.21-.35.21-.4.38-.21.74.6,1.14.72,1.2,2.39.93.71-.11,1.43-.21,2.16-.25a.58.58,0,0,1,.42.39,22.7,22.7,0,0,1,0,2.46.7.7,0,0,1-.45.49c-.9.16-1.8.28-2.71.35C37.55,101.48,35.15,101.63,32.2,101.83ZM29.92,97h0a5.5,5.5,0,0,1,0,.75c-.07.52.13.67.64.64,1.41-.07,2.82-.11,4.23-.14.42,0,.61-.1.34-.55-.43-.72-.78-1.5-1.27-2.17a4.67,4.67,0,0,0-1.4-1.22,1.53,1.53,0,0,0-2.36,1A13.07,13.07,0,0,0,29.92,97Z" transform="translate(-0.18 -0.1)"/><path class="cls-2" d="M40,24.9a8.76,8.76,0,0,1-2.19,5.31c-1.08,1.14-2,1.47-3.31.25a8.09,8.09,0,0,1-2.84-6.79,15.79,15.79,0,0,1,1-3.72c.11-.33.58-.52.84-.81a24.05,24.05,0,0,0,1.64-2,.6.6,0,0,1,1.06-.08c.5.52.88,1.15,1.36,1.69a7.12,7.12,0,0,1,1.84,4.39A7.7,7.7,0,0,0,40,24.9Zm-3.39-3.19c.37-.4.71-.82,1.1-1.19s.35-.48.1-.81c-.45-.59-.88-1.21-1.33-1.8a2.1,2.1,0,0,0-.39-.32,3.64,3.64,0,0,0-.05.46c0,1.11.05,2.23,0,3.34,0,.54.18.53.54.31l-.22.51a2.24,2.24,0,0,0-.29.71c0,1.09,0,2.18,0,3.27a1.68,1.68,0,0,0,.09.37,1.48,1.48,0,0,0,.33-.19C37.39,25.6,38.2,24.8,39,24a.64.64,0,0,0,.2-.46c-.15-.85-.34-1.69-.51-2.53-.1-.49-.27-.6-.69-.21A11.93,11.93,0,0,1,36.65,21.72ZM35,26.23a3.42,3.42,0,0,1-.6-.38c-.59-.57-1.15-1.17-1.73-1.74a3.06,3.06,0,0,0-.43-.3,2.52,2.52,0,0,0-.13.55,7.64,7.64,0,0,0,1.84,5,8.35,8.35,0,0,0,1.45,1.22c.05,0,.38-.14.37-.17-.31-1.35.42-2.89-.78-4.07,0,0,0-.09,0-.13a.92.92,0,0,1,.19.07l.37.26a2.7,2.7,0,0,0,.08-.51,11.23,11.23,0,0,1,0-1.77,3.46,3.46,0,0,0-1.43-3.35c-1.18-1-1.1-1.06-1.54.49a2.56,2.56,0,0,0,.82,3.06A13.39,13.39,0,0,1,35,26.23Zm4.41-.92a3.44,3.44,0,0,0,0-.48,4,4,0,0,0-.13-.49,2.65,2.65,0,0,0-.39.25A16.55,16.55,0,0,1,37.41,26a2.84,2.84,0,0,0-1.28,3c0,.24-.08.49-.06.73a9.8,9.8,0,0,0,.19,1c.29-.12.58-.22.86-.35a1.47,1.47,0,0,0,.44-.32A7.25,7.25,0,0,0,39.44,25.31Zm-3.84-5.68h.1c0-.57,0-1.13,0-1.7a2.66,2.66,0,0,0-.06-.38c-.12.05-.27.07-.34.16-.53.59-1.06,1.18-1.55,1.8a.61.61,0,0,0,.05.58c.45.53,1,1,1.44,1.53a1.07,1.07,0,0,0,.27.15,1.18,1.18,0,0,0,.09-.3C35.6,20.85,35.59,20.24,35.59,19.63Z" transform="translate(-0.18 -0.1)"/><path class="cls-2" d="M49.93,4.87,50.1,5l.59,1.3-.14.15c-1.91-.69-3.8-1.47-5.75-2a47.34,47.34,0,0,0-4.67-.88c-.8-.15-1.61-.28-2.41-.43-.33-.06-.43-.14-.09-.44s.78-.9,1.19-1.34a.59.59,0,0,1,.46-.12,34.45,34.45,0,0,1,9,2.8C48.87,4.29,49.4,4.59,49.93,4.87Z" transform="translate(-0.18 -0.1)"/><path class="cls-2" d="M30.12,3.61c-.22-.38,0-.42.3-.41.75,0,1.5.14,2.24.12a14.34,14.34,0,0,1,2.85.25c.67.11,1.4-.09,2.09-.05a20.24,20.24,0,0,1,2.77.35,46.1,46.1,0,0,1,7,1.9,1,1,0,0,0,.39.1c1.15-.12,2,.66,2.89,1.14.25.13,1,.58.54,1.28,0,.05.29.3.41.48a2.28,2.28,0,0,1,.19.45,3.17,3.17,0,0,1-.41-.13,69.58,69.58,0,0,0-6.52-3,44.19,44.19,0,0,0-6.74-1.53c-2.31-.41-4.65-.63-7-.93a3.18,3.18,0,0,0-.67.06ZM50.57,7.78s0,0,.05,0,0,0,0-.05,0,0-.05,0S50.58,7.76,50.57,7.78Z" transform="translate(-0.18 -0.1)"/><path class="cls-2" d="M30,124.43c.2,0,.43.06.65.11.67.16.92.64.52,1.22a8.77,8.77,0,0,1-1.2,1.19c-.19.19-.5.37,0,.55A1.32,1.32,0,0,1,31,128.76a1.8,1.8,0,0,1-1.07,1.7c-.82.36-1.71.52-2.56.81a2.94,2.94,0,0,0-.73.45c-.18.13-.31.34-.51.43s-.54,0-.4-.35.21-.64-.28-.75a.3.3,0,0,1-.14-.26.33.33,0,0,1,.26-.18c.6,0,.73-.45.87-.88.28-.87.54-1.74.81-2.6a1.25,1.25,0,0,1,.26-.54,3.17,3.17,0,0,1,.67-.37l0,.63,0,.57c.16-.08.32-.16.46-.25a9,9,0,0,0,1.12-.77,2.5,2.5,0,0,0,.4-.72,2.27,2.27,0,0,0-.72-.29,4.3,4.3,0,0,0-2.75,1,5.21,5.21,0,0,1-.95.5.78.78,0,0,1-.31,0c0-.11,0-.25.07-.32a4.75,4.75,0,0,1,.67-.64A7.61,7.61,0,0,1,30,124.43Zm-2.17,6.28a8,8,0,0,0,1.51-.52,1,1,0,0,0,.09-1.75c-.32-.25-.76-.35-1.11-.57s-.42,0-.5.23c-.18.61-.32,1.23-.55,1.81S27.14,130.72,27.81,130.71Z" transform="translate(-0.18 -0.1)"/><path class="cls-2" d="M37.6,127.89c.21-.78.4-1.5.59-2.22a3.84,3.84,0,0,0,.06-.38,1.2,1.2,0,0,0-.33.17,8.18,8.18,0,0,0-2.13,3.28c0,.11-.06.25-.14.31a5.79,5.79,0,0,1-.6.37c0-.21,0-.42,0-.62a.38.38,0,0,1,0-.07l.09-.66c-.15.15-.3.31-.46.45a15.24,15.24,0,0,1-1.62,1.34,1.19,1.19,0,0,1-1.52-.1c-.43-.41-.31-.92-.13-1.4a3.48,3.48,0,0,1,2-2.13,1.22,1.22,0,0,1,1,.14c.12.07.09.67-.08.84a9.56,9.56,0,0,1-1.58,1.32c-.26.18-.57.26-.37.63s.53.34.87.13a7.73,7.73,0,0,0,2.36-2.87,12.52,12.52,0,0,1,.7-1.07c.07-.09.23-.11.35-.16a4.13,4.13,0,0,1,.1.42,1.29,1.29,0,0,1,0,.28,1.63,1.63,0,0,0,.26-.18c.46-.47.89-1,1.38-1.4.14-.12.45,0,.68-.06-.1.19-.18.39-.29.58s-.22.21-.21.23a5.73,5.73,0,0,0,.4.5l.28-.28c.34-.36.66-.74,1-1.07.09-.08.33,0,.51,0-.05.15-.06.37-.17.45a6.29,6.29,0,0,0-2.06,2.91,1.81,1.81,0,0,1-.21.43,5.21,5.21,0,0,1-.5.47Zm-5.08.42c.41-.39.68-.62.9-.89.08-.1,0-.28.07-.43-.15,0-.34,0-.44.15a4.3,4.3,0,0,0-.52.7C32.49,127.89,32.52,128,32.52,128.31Z" transform="translate(-0.18 -0.1)"/><path class="cls-2" d="M41.31,157.22a62.72,62.72,0,0,1-6.38,1.94,39.4,39.4,0,0,1-7.71.86,49.84,49.84,0,0,1-7.05-.93,9.41,9.41,0,0,1-1.22-.35,2.57,2.57,0,0,1,.76-.17c1.31.11,2.61.26,3.91.39,1,.1,1.94.2,2.91.25a3.32,3.32,0,0,0,.93-.21c.08,0,.15-.1.23-.1a32.91,32.91,0,0,0,3.47,0,50.47,50.47,0,0,0,5.35-.81c1.38-.29,2.71-.79,4.05-1.22C40.93,156.77,41.28,156.6,41.31,157.22Z" transform="translate(-0.18 -0.1)"/><path class="cls-2" d="M31.44,147.79A5.25,5.25,0,0,1,37.88,143a3.51,3.51,0,0,1,2.29,3.45,5.39,5.39,0,0,1-4.32,5A3.71,3.71,0,0,1,31.44,147.79Zm7,1.79.12-.29.41-.54.14-.14a8.88,8.88,0,0,0,.61-1.56,3.16,3.16,0,0,0-3.79-3.81,5.44,5.44,0,0,0-3,1.68,3.78,3.78,0,0,0-.28,4.87l.19.22a3.27,3.27,0,0,0,4.27.51l.68-.41.27-.28.29-.12Z" transform="translate(-0.18 -0.1)"/><path class="cls-2" d="M41.05,124.16a1,1,0,0,1,.62-1.37l.36-.12a1.57,1.57,0,0,1,.05.44c-.18,1.05-.38,2.1-.55,3.16a1.71,1.71,0,0,0,.1.55c.12-.13.29-.24.35-.39.38-.95.73-1.91,1.12-2.86a8.3,8.3,0,0,1,.63-1.19c.06-.09.26-.1.4-.14a1.06,1.06,0,0,1,.09.37c-.12.76-.25,1.52-.39,2.29l-.61,3.46a.45.45,0,0,1,0,.2c-.21.25-.42.49-.64.74a3.38,3.38,0,0,1-.07-.87c.21-1.19.46-2.36.69-3.55a1,1,0,0,0,0-.28,2.42,2.42,0,0,0-.13.23,19,19,0,0,1-.92,2c-.16.27-.6.38-.91.57-.13-.31-.39-.62-.38-.92C40.82,125.75,41,125,41.05,124.16Z" transform="translate(-0.18 -0.1)"/><path class="cls-2" d="M3.16,43.48a40.23,40.23,0,0,1,1.59-3.83,2.28,2.28,0,0,0-.15-2.76A22.17,22.17,0,0,1,3,33.69a1.25,1.25,0,0,1-.05-.38,1.2,1.2,0,0,1,.32.21C4.16,34.74,5,36,6,37.19a1.28,1.28,0,0,1,.12,1.73C5.25,40.44,4.41,42,3.53,43.53a1.25,1.25,0,0,1-.27.25v-.26Z" transform="translate(-0.18 -0.1)"/><path class="cls-2" d="M3.35,51.82c.2.22.27.3.33.38,1.1,1.56,2.2,3.12,3.29,4.69a.53.53,0,0,1,0,.47C6,59,5,60.55,4,62.14a1.18,1.18,0,0,1-.24.21,1.06,1.06,0,0,1,0-.37c.63-1.43,1.23-2.88,1.93-4.28a.91.91,0,0,0,0-1c-.74-1.43-1.45-2.87-2.17-4.32A2.77,2.77,0,0,1,3.35,51.82Z" transform="translate(-0.18 -0.1)"/><path class="cls-2" d="M7.79,79.77a2.51,2.51,0,0,1-.13.57A20,20,0,0,1,6,83a2.44,2.44,0,0,0-.16,3.3,31.83,31.83,0,0,1,1.81,3.5,3.07,3.07,0,0,1,.16.55c-.18-.11-.42-.18-.53-.35-.65-1-1.29-2-1.89-3A19,19,0,0,1,4.38,85a1.08,1.08,0,0,1,0-.87c.92-1.32,1.89-2.6,2.86-3.89A3.61,3.61,0,0,1,7.79,79.77Z" transform="translate(-0.18 -0.1)"/><path class="cls-2" d="M2.6,15.24c0-.22-.39-.65.27-.57.28.38.54.77.83,1.13.68.83,1.39,1.63,2.06,2.46a.74.74,0,0,1,.11.64C5,20.83,4,22.75,3.07,24.67a1.68,1.68,0,0,1-.33.35,1.91,1.91,0,0,1,0-.46c.6-1.65,1.19-3.3,1.82-4.93a1.06,1.06,0,0,0-.06-1.07C3.87,17.47,3.24,16.35,2.6,15.24Z" transform="translate(-0.18 -0.1)"/><path class="cls-2" d="M7.33,61.31c-.36.72-.7,1.43-1.08,2.14a10.44,10.44,0,0,1-.86,1.47,2.08,2.08,0,0,0,0,2.7C6.15,68.7,6.73,69.86,7.37,71a1.13,1.13,0,0,1,.12.24c0,.17.07.34.11.51a1.64,1.64,0,0,1-.42-.28c-.54-.67-1.11-1.33-1.58-2.05C5,68.53,4.53,67.61,4,66.69c-.1-.18-.21-.49-.13-.63,1-1.61,2-3.21,3.08-4.8,0-.08.19-.09.28-.14Z" transform="translate(-0.18 -0.1)"/><path class="cls-2" d="M6.82,42.2l-.22.44c-.65,1.38-1.22,2.8-2,4.12a2,2,0,0,0,.28,2.29l2.25,3.63a.75.75,0,0,1,0,.25c-.1,0-.24.06-.3,0a4.06,4.06,0,0,1-.7-.7q-1.37-2-2.69-4a.74.74,0,0,1-.09-.62c1-1.8,2-3.59,3.06-5.37,0-.09.17-.13.26-.2Z" transform="translate(-0.18 -0.1)"/><path class="cls-2" d="M6.23,22.95c-.36.83-.71,1.67-1.07,2.51S4.38,27.25,4,28.14A1,1,0,0,0,4,29.28c.72,1.08,1.4,2.18,2.09,3.27a1.33,1.33,0,0,1,.18.29c.08.27.14.54.21.81a2.7,2.7,0,0,1-.63-.45q-1.41-1.83-2.77-3.71c-.12-.16-.24-.47-.17-.61,1-2,2-3.95,3-5.91.05-.1.2-.15.31-.22Z" transform="translate(-0.18 -0.1)"/><path class="cls-2" d="M3.86,70.42c.23.29.33.4.42.53l2.31,3.62c.07.12.14.24.21.35.82,1.21.83,1.22,0,2.34S5.2,79.4,4.39,80.47a1.34,1.34,0,0,1-.3.22c0-.15-.06-.32,0-.43.68-1.3,1.4-2.59,2.07-3.9a1,1,0,0,0,0-.78C5.42,74,4.68,72.51,3.95,71A2.8,2.8,0,0,1,3.86,70.42Z" transform="translate(-0.18 -0.1)"/><path class="cls-2" d="M4.37,98.81c-.09-.06-.18-.1-.18-.13a.7.7,0,0,1,0-.37c.65-1.12,1.3-2.24,2-3.33a1.06,1.06,0,0,0,.07-1.17c-.73-1.54-1.38-3.11-2.05-4.67a1.72,1.72,0,0,1-.06-.45,1.85,1.85,0,0,1,.31.32c1,1.74,2.05,3.48,3,5.24a.87.87,0,0,1,0,.78c-1,1.21-2,2.38-2.94,3.57Z" transform="translate(-0.18 -0.1)"/><path class="cls-2" d="M7.95,116.32c0,.23.06.41,0,.5a21.5,21.5,0,0,1-1.63,2.25,2,2,0,0,0-.36,2.57c.83,1.52,1.48,3.15,2.2,4.73a1.55,1.55,0,0,1,.07.38c-.11-.06-.27-.09-.33-.18a14.71,14.71,0,0,1-1-1.61c-.75-1.55-1.47-3.11-2.18-4.68a.8.8,0,0,1,0-.68c.83-1,1.7-1.95,2.57-2.9A3.18,3.18,0,0,1,7.95,116.32Z" transform="translate(-0.18 -0.1)"/><path class="cls-2" d="M7.89,112.65a2.11,2.11,0,0,1-.19.29c-.92,1-1.83,2-2.76,3a1.52,1.52,0,0,1-.44.23,1.21,1.21,0,0,1,.07-.44c.57-1,1.14-1.91,1.75-2.84a1,1,0,0,0,.13-1.14c-.71-1.41-1.33-2.85-1.94-4.3a4.91,4.91,0,0,1-.2-1.11c.19.29.41.58.58.88q1.41,2.53,2.81,5.06C7.76,112.39,7.82,112.51,7.89,112.65Z" transform="translate(-0.18 -0.1)"/><path class="cls-2" d="M7.82,98.23c0,.32,0,.48,0,.59a28.92,28.92,0,0,1-1.88,2.84,1.73,1.73,0,0,0-.23,2.23c.75,1.32,1.39,2.7,2.05,4.06a3.92,3.92,0,0,1,.2.84,3.32,3.32,0,0,1-.56-.6c-1-1.75-1.93-3.5-2.83-5.27a1.12,1.12,0,0,1,.09-1c.81-1.1,1.68-2.15,2.55-3.22A4.77,4.77,0,0,1,7.82,98.23Z" transform="translate(-0.18 -0.1)"/><path class="cls-2" d="M8,134.42c.06,0,.16.07.16.09a1,1,0,0,1-.14.36c-.63.77-1.24,1.57-1.92,2.29a1.06,1.06,0,0,0-.25,1.37c.7,1.48,1.33,3,2,4.49.13.29.25.59.35.89a1,1,0,0,1,0,.35A1.52,1.52,0,0,1,8,144c-.57-1-1.19-1.94-1.68-3s-1-2.3-1.41-3.47a.9.9,0,0,1,.09-.8c.89-.79,1.84-1.52,2.77-2.27A1.05,1.05,0,0,1,8,134.42Z" transform="translate(-0.18 -0.1)"/><path class="cls-2" d="M4.58,124.08c.14.22.23.34.3.48.72,1.4,1.42,2.8,2.14,4.19.28.54.61,1.06.86,1.62a.72.72,0,0,1-.07.65c-.88.82-1.79,1.6-2.7,2.38a1.08,1.08,0,0,1-.37.12c0-.14,0-.33,0-.43.54-.76,1.07-1.53,1.67-2.23a1,1,0,0,0,.21-1.24c-.74-1.61-1.4-3.25-2.08-4.89A2.12,2.12,0,0,1,4.58,124.08Z" transform="translate(-0.18 -0.1)"/><path class="cls-2" d="M8.08,148.21a2,2,0,0,1-.29.34q-1.15.85-2.32,1.67a1.38,1.38,0,0,1-.42.12,1.34,1.34,0,0,1,.11-.42c.42-.62.83-1.25,1.3-1.83a.82.82,0,0,0,.19-1C6,145.42,5.36,143.69,4.73,142a3.07,3.07,0,0,1-.09-.36c.1.1.25.18.3.29.84,1.74,1.65,3.48,2.49,5.21C7.61,147.48,7.85,147.82,8.08,148.21Z" transform="translate(-0.18 -0.1)"/><path class="cls-2" d="M21,115.45c0,.32,0,.64,0,1s-.12.48-.19.49a.85.85,0,0,1-.6-.2c-.34-.36-.62-.78-.93-1.17a1.23,1.23,0,0,0-.25-.19,1.29,1.29,0,0,0-.08.3,4.24,4.24,0,0,1,0,.75c0,.14-.25.37-.33.35s-.42-.21-.43-.35c-.05-.7-.05-1.41,0-2.11a2,2,0,0,1,.2-.58A2.08,2.08,0,0,1,19,114c.31.32.56.71.85,1.06a.91.91,0,0,0,.26.16,1.38,1.38,0,0,0,.05-.26c0-.2,0-.41,0-.61s0-.54.41-.53.42.25.42.54,0,.73,0,1.09Z" transform="translate(-0.18 -0.1)"/><path class="cls-2" d="M27.06,114a1.82,1.82,0,0,1,.67,0c.35.15.82.33.95.62a1.73,1.73,0,0,1-.13,1.19c-.1.25-.32.4-.07.69a1.74,1.74,0,0,1,.21.54,3.45,3.45,0,0,1-.83-.13c-.16-.07-.24-.32-.39-.46s-.49-.35-.59.16c0,.17-.26.31-.4.46-.14-.18-.39-.35-.41-.55-.06-.61,0-1.23,0-1.84s.13-.81.7-.71a2.14,2.14,0,0,0,.34,0Zm.27,1.8.69-.7a2.57,2.57,0,0,0-.64-.42c-.32-.09-.62,0-.53.43C26.9,115.33,27.09,115.48,27.33,115.82Z" transform="translate(-0.18 -0.1)"/><path class="cls-2" d="M33.09,116.22c.26.78-.34.61-.89.73a1.76,1.76,0,0,1-1.91-.51,1.5,1.5,0,0,1,.12-2.09,1.71,1.71,0,0,1,2.24-.18.53.53,0,0,1,.09.36c-.2.09-.47.26-.62.19a.81.81,0,0,0-1.18.3,1.13,1.13,0,0,0,.11,1c.16.19.63.14,1,.15.06,0,.14-.16.2-.24a1.67,1.67,0,0,1-.27-.13c-.15-.11-.29-.23-.43-.35l.45-.3H32C33.07,115.08,33.07,115.08,33.09,116.22Z" transform="translate(-0.18 -0.1)"/><path class="cls-2" d="M22.33,115.43c0-1.5,0-1.5,1.45-1.47a2.65,2.65,0,0,1,.68,0c.12,0,.3.23.28.33s-.17.38-.3.4c-.33,0-.68,0-1,0-.1,0-.19.13-.29.2.09.09.16.23.26.25a6.94,6.94,0,0,1,.74,0,.6.6,0,0,1,.32.38c0,.06-.19.25-.32.29s-.41,0-.61,0a1.33,1.33,0,0,0-.37.19c.13.09.25.24.39.26.29,0,.6,0,.88,0s.26.27.38.41c-.13.1-.26.29-.4.3a11.76,11.76,0,0,1-1.7-.07.59.59,0,0,1-.36-.42A8.31,8.31,0,0,1,22.33,115.43Z" transform="translate(-0.18 -0.1)"/><path class="cls-2" d="M24.93,2c1.5,0,2.81-.06,4.12,0,1.8.11,3.6.32,5.4.49l.13,0,.88.18c-.33,0-.67.06-1,0-1,0-1.9-.14-2.86-.15-2.29,0-4.59,0-6.88,0-.73,0-1.45.09-2.18.11a1.37,1.37,0,0,1-.44-.15c.12-.1.22-.26.35-.28C23.34,2.16,24.23,2.07,24.93,2Z" transform="translate(-0.18 -0.1)"/><path class="cls-2" d="M14.83,114.88v-1.42l1.38,0a1.16,1.16,0,0,1,.53.08A.54.54,0,0,1,17,114c0,.1-.22.24-.35.25s-.45-.06-.67-.06a1.15,1.15,0,0,0-.38.16c.1.1.17.25.29.3s.38,0,.53.07.26.27.38.41a1.94,1.94,0,0,1-.39.23c-.26.08-.53.12-.8.18.27.1.55.2.83.28s.34,0,.46.1a.49.49,0,0,1,.18.39.4.4,0,0,1-.3.25,12.37,12.37,0,0,1-1.62-.18c-.12,0-.26-.27-.28-.43a9.33,9.33,0,0,1,0-1.09Z" transform="translate(-0.18 -0.1)"/><path class="cls-2" d="M39.51,114.77c0-.11,0-.23,0-.34,0-1.24,0-1.24,1.2-1.37a1.15,1.15,0,0,1,1.34,1,1.7,1.7,0,0,1-1,2c-1.48.43-1.48.43-1.49-1.1C39.52,114.9,39.52,114.83,39.51,114.77Zm1.16-.9c-.69,0-.37.58-.41.94s-.12.64.39.58a.74.74,0,0,0,.69-.84C41.35,114.16,41.25,113.82,40.68,113.87Z" transform="translate(-0.18 -0.1)"/><path class="cls-2" d="M45.24,113.24a9.31,9.31,0,0,0-.34.95,2.57,2.57,0,0,0,0,.6c0,.17,0,.35,0,.52-.22,0-.55,0-.66-.11-.34-.41-.55-.69-.62.13,0,.12-.23.22-.36.33-.1-.12-.27-.24-.28-.37,0-.75,0-1.5,0-2.25a.52.52,0,0,1,.3-.37,2.05,2.05,0,0,1,1.11-.21C44.73,112.57,45,113,45.24,113.24Zm-1.44.81.22,0a3.09,3.09,0,0,0,.42-.56c0-.06-.23-.34-.27-.33a1.16,1.16,0,0,0-.49.38C43.62,113.69,43.75,113.89,43.8,114.05Z" transform="translate(-0.18 -0.1)"/><path class="cls-2" d="M48.72,152a11.67,11.67,0,0,1-1.64,1.87c-1.17.88-2.46,1.61-3.7,2.4.26-.68.1-1.45,1.11-1.86a29.67,29.67,0,0,0,3.82-2.25A2.38,2.38,0,0,1,48.72,152Z" transform="translate(-0.18 -0.1)"/><path class="cls-2" d="M34.44,113.66a2.71,2.71,0,0,1,.57.55c.32.56.48.45.75,0,.14-.25.48-.39.73-.57.08.12.26.29.22.37-.14.33-.38.63-.51,1a6.4,6.4,0,0,0-.37,1.34c0,.31-.08.59-.45.49a.62.62,0,0,1-.36-.48c.08-.89-.61-1.39-1-2.05C33.85,113.82,33.95,113.73,34.44,113.66Z" transform="translate(-0.18 -0.1)"/><path class="cls-2" d="M49,112.66a8.11,8.11,0,0,1,0,1,1.9,1.9,0,0,1-.23.52,2.38,2.38,0,0,1-.47-.3,4.56,4.56,0,0,1-.42-.56,5.62,5.62,0,0,1-.1.77,2.45,2.45,0,0,1-.27.51,1.68,1.68,0,0,1-.2-.51c0-.61,0-1.23,0-1.84a2.17,2.17,0,0,1,.21-.6c.16.13.33.25.47.4s.1.2.16.29a.88.88,0,0,0,.19.15.71.71,0,0,0,.11-.22,3.92,3.92,0,0,1,0-.68c0-.14.21-.25.32-.37a1.17,1.17,0,0,1,.19.38c0,.36,0,.73,0,1.09Z" transform="translate(-0.18 -0.1)"/><path class="cls-2" d="M34.74,110.69c0-1.18.24-1.39,1.42-1.24.11,0,.2.13.31.2a1.37,1.37,0,0,1-.25.34c-.08.06-.22,0-.33,0a4.62,4.62,0,0,0-.45.19c.15,0,.31.08.46.13a3.37,3.37,0,0,1,.36.19,3.09,3.09,0,0,1-.36.3,3.35,3.35,0,0,1-.44.2,3.63,3.63,0,0,1,.48.1,5.73,5.73,0,0,1,.53.24l-.49.31s-.09,0-.13,0C34.74,111.89,34.74,111.89,34.74,110.69Z" transform="translate(-0.18 -0.1)"/><path class="cls-2" d="M40.52,110.11a1.49,1.49,0,0,1,0-.34c.06-.27.15-.53.23-.79l.64.44.25.17a1.14,1.14,0,0,1,.09-.3c.11-.18.25-.35.38-.52a1.83,1.83,0,0,1,.27.57,6.24,6.24,0,0,1,0,1.23c0,.16-.17.3-.26.45a4,4,0,0,1-.36-.28c-.1-.09-.16-.22-.25-.32a3.83,3.83,0,0,0-.33-.27c0,.13-.05.25-.07.38s0,.2,0,.27a2.83,2.83,0,0,1-.33.35c-.07-.12-.19-.23-.21-.35a4.39,4.39,0,0,1,0-.68Z" transform="translate(-0.18 -0.1)"/><path class="cls-2" d="M29.65,112.2c-.34-.32-.8-.58-1-1s.08-1,.56-1.31a1.08,1.08,0,0,1,1.38.13.92.92,0,0,1,.16.26c-.11.06-.23.17-.34.16s-.35-.2-.5-.17a1,1,0,0,0-.61.32.64.64,0,0,0,0,.61.88.88,0,0,0,.64.24c.27,0,.56-.48.75,0,0,.07-.53.37-.81.56,0,0-.09,0-.13,0Z" transform="translate(-0.18 -0.1)"/><path class="cls-2" d="M38.53,111.08a4.71,4.71,0,0,1-.5.29,2.67,2.67,0,0,1-.47.12,1.72,1.72,0,0,1,0-.44c.17-.49.34-1,.55-1.46a.62.62,0,0,1,.42-.34c.14,0,.32.2.4.36a8.4,8.4,0,0,1,.44,1.14,2.54,2.54,0,0,1,0,.56l-.52-.13Z" transform="translate(-0.18 -0.1)"/><path class="cls-2" d="M49.51,112.26c0-.23,0-.45,0-.68s-.05-.6.08-.71a3.36,3.36,0,0,1,1-.47s.16.21.14.27a2.21,2.21,0,0,0,0,2.2c0,.08-.1.26-.15.4a2.19,2.19,0,0,1-.35-.21,1.12,1.12,0,0,1-.17-.27c0,.12,0,.24-.06.36s0,.25,0,.33a1.06,1.06,0,0,1-.31.22c0-.09-.14-.18-.14-.27,0-.38,0-.77,0-1.16ZM50,111l0,0,.05,0Z" transform="translate(-0.18 -0.1)"/><path class="cls-2" d="M32,110.83a6.06,6.06,0,0,1,0-.88c0-.1.2-.22.32-.25s.22.14.24.25a1.53,1.53,0,0,1,0,.54c-.06.57,0,1,.76.86.09,0,.21.16.32.24-.08.09-.16.18-.25.26s-.09,0-.13,0C32.09,112.11,32,112.06,32,110.83Z" transform="translate(-0.18 -0.1)"/><path class="cls-2" d="M46.5,113.41a8.81,8.81,0,0,1,0,1.15c0,.15-.23.28-.35.42-.1-.14-.27-.28-.28-.43,0-.7,0-1.41,0-2.11,0-.17.23-.32.35-.48a1.63,1.63,0,0,1,.27.5,6.74,6.74,0,0,1,0,1Z" transform="translate(-0.18 -0.1)"/><path class="cls-2" d="M7.66,66.51c-.24.24-.45.66-.71.68-.56.06-.58-.48-.58-.88s0-.94.56-.92S7.55,65.91,7.66,66.51Z" transform="translate(-0.18 -0.1)"/><path class="cls-2" d="M8.2,121.74c-.09.08-.31.43-.48.41-.61-.07-.68-.62-.64-1.1,0-.25.33-.71.43-.69C8.09,120.48,8.21,121,8.2,121.74Z" transform="translate(-0.18 -0.1)"/><path class="cls-2" d="M7,47.62s0,.2,0,.29a1.28,1.28,0,0,1-.56.45c-.11,0-.38-.21-.44-.37a1.31,1.31,0,0,1,0-.79,2.77,2.77,0,0,1,.5-.69c.19.25.38.49.56.75C7,47.31,7,47.42,7,47.62Z" transform="translate(-0.18 -0.1)"/><path class="cls-2" d="M5.2,28.29c.14-.51.07-1,.67-1.07s.57.41.57.82c0,.59-.39,1.19-.71,1S5.37,28.56,5.2,28.29Z" transform="translate(-0.18 -0.1)"/><path class="cls-2" d="M8.21,103.54c-.36.33-.58.69-.79.69-.59,0-.62-.54-.57-1a2.61,2.61,0,0,1,.43-.8Z" transform="translate(-0.18 -0.1)"/><path class="cls-2" d="M6.55,84.83c.23-.25.46-.7.68-.7.55,0,.62.57.57,1s-.31.7-.5.72C6.75,85.87,6.72,85.38,6.55,84.83Z" transform="translate(-0.18 -0.1)"/><path class="cls-2" d="M8.36,139.46c-.09.08-.29.39-.46.37-.58,0-.69-.54-.64-1a1,1,0,0,1,.4-.71C8,138,8.36,138.68,8.36,139.46Z" transform="translate(-0.18 -0.1)"/><path class="cls-2" d="M27.27,137.11s.06-.41.21-.47a1,1,0,0,1,.82.09c.13.1,0,.49.06.75,0,.45,0,.73-.46.26a.23.23,0,0,0-.18-.06C27.28,137.78,27.28,137.79,27.27,137.11Z" transform="translate(-0.18 -0.1)"/><path class="cls-2" d="M39.51,135.79c-.09.31-.14.55-.22.79-.25.65-.39.06-.62,0s-.4.25-.61.39l-.3-1s0,0,0-.06c.39.45.75-.4,1-.07s.26.13.34-.09.15-.13.23-.2Z" transform="translate(-0.18 -0.1)"/><path class="cls-2" d="M21,136.67l.17-.33c.08.09.2.16.23.26a1.6,1.6,0,0,1,0,.54,3.36,3.36,0,0,1-.12.49c-.14-.1-.28-.2-.43-.29s-.35-.69-.39,0c0,.06-.1.11-.16.17s-.16-.11-.17-.18a4.59,4.59,0,0,1,0-.88c0-.06.28-.16.36-.12a1.59,1.59,0,0,1,.37.38l.14.05Z" transform="translate(-0.18 -0.1)"/><path class="cls-2" d="M25.36,136.88l.2-.34c.07.15.13.31.2.45s.2.39.31.58c.08-.21.15-.43.24-.63s.12-.25.18-.37c.07.12.2.24.22.37.08.58-.2,1-.66,1S25.37,137.64,25.36,136.88Z" transform="translate(-0.18 -0.1)"/><path class="cls-2" d="M4.35,57.45a1.12,1.12,0,0,1-.09.41,2.28,2.28,0,0,1-.41.39c-.1-.13-.25-.26-.28-.4a1.83,1.83,0,0,1-.06-.8,2.28,2.28,0,0,1,.39-.63c.14.22.29.42.41.65A1.23,1.23,0,0,1,4.35,57.45Z" transform="translate(-0.18 -0.1)"/><path class="cls-2" d="M3.45,19.87l-.64,1a3.27,3.27,0,0,1-.29-1.05c0-.3.3-.58.46-.87Z" transform="translate(-0.18 -0.1)"/><path class="cls-2" d="M5.16,94.06l-.57.77c-.14-.23-.41-.47-.41-.7a4.16,4.16,0,0,1,.3-1.08Z" transform="translate(-0.18 -0.1)"/><path class="cls-2" d="M22,137.6c.18-.4.33-.76.52-1.09a.44.44,0,0,1,.39,0,8.16,8.16,0,0,1,.47,1.05s-.11.19-.18.19a9.19,9.19,0,0,1-.94,0A.87.87,0,0,1,22,137.6Z" transform="translate(-0.18 -0.1)"/><path class="cls-2" d="M5.28,111.82l-.46.63c-.15-.17-.4-.34-.42-.52a5,5,0,0,1,.09-1.16s.26-.06.28,0C5,111.07,5.1,111.41,5.28,111.82Z" transform="translate(-0.18 -0.1)"/><path class="cls-2" d="M5.4,12.09l.49.72a.54.54,0,0,0,0,.13l.24.88-.78-.55c-.19-.14-.37-.3-.56-.45l-.24-.53Z" transform="translate(-0.18 -0.1)"/><path class="cls-2" d="M2.88,38.7l.54-.94c.14.35.28.69.41,1a.33.33,0,0,1,0,.26c-.15.21-.32.4-.48.6-.1-.21-.22-.41-.31-.63a.83.83,0,0,1,0-.27Z" transform="translate(-0.18 -0.1)"/><path class="cls-2" d="M4.81,76a1.45,1.45,0,0,1-.11.43.52.52,0,0,1-.34.27c-.11,0-.27-.17-.3-.29A2.08,2.08,0,0,1,4,75.58c0-.22.26-.42.39-.62.14.21.29.42.41.65A1.35,1.35,0,0,1,4.81,76Z" transform="translate(-0.18 -0.1)"/><path class="cls-2" d="M6.09,7.85V7.63a5.24,5.24,0,0,0,.35-.41c.25-.35.46-.73.74-1.06.09-.1.34-.07.52-.1a1.54,1.54,0,0,1-.05.55,8.38,8.38,0,0,1-.56.86l-.63.71Z" transform="translate(-0.18 -0.1)"/><path class="cls-2" d="M25.18,110.62a1.68,1.68,0,0,1,.42.18.38.38,0,0,1,0,.34,1.16,1.16,0,0,1-.59.15c-.46-.05-.92-.16-1.38-.26a2.19,2.19,0,0,1-.33-.12,1.33,1.33,0,0,1,.3-.11Z" transform="translate(-0.18 -0.1)"/><path class="cls-2" d="M5.51,129.47l-.42.6c-.15-.17-.41-.33-.43-.52a4.42,4.42,0,0,1,.07-1.09s.21,0,.23,0C5.15,128.76,5.31,129.09,5.51,129.47Z" transform="translate(-0.18 -0.1)"/><path class="cls-2" d="M7.28,153.15a3.49,3.49,0,0,1-.64-.51s.17-.3.28-.44A.68.68,0,0,1,7.2,152c.28-.1.57-.18.86-.27,0,.1.08.23,0,.3C7.85,152.4,7.58,152.75,7.28,153.15Z" transform="translate(-0.18 -0.1)"/><path class="cls-2" d="M29.84,136.5c.18.38.37.76.53,1.16,0,0-.12.21-.18.2-.39,0-.77-.07-1.15-.11l.52-1.25Z" transform="translate(-0.18 -0.1)"/><path class="cls-2" d="M41.23,135.49c.18-.17.35-.44.6-.54s.39-.11.27.31c0,.09,0,.2,0,.3a1.65,1.65,0,0,1-.08.68.71.71,0,0,1-.51.16A5.13,5.13,0,0,1,41.23,135.49Z" transform="translate(-0.18 -0.1)"/><path class="cls-2" d="M39.74,135.94c.28-.28.43-.54.66-.64s.61-.11.38.38a.39.39,0,0,0,0,.26c.16.46,0,.77-.47.7C40.12,136.62,40,136.27,39.74,135.94Z" transform="translate(-0.18 -0.1)"/><path class="cls-2" d="M37.07,136.38c.07.1.19.2.19.3s-.05.4-.15.45a2.5,2.5,0,0,1-.7.1,1.17,1.17,0,0,0,0-.35c0-.1-.14-.2-.15-.3s0-.41.08-.48a1.08,1.08,0,0,1,.61-.15c.07,0,.15.21.22.33Zm-.31.55,0,0v0Z" transform="translate(-0.18 -0.1)"/><path class="cls-2" d="M43.84,135.08a2.93,2.93,0,0,1,.34-.78c.1-.11.36-.09.55-.12a1.42,1.42,0,0,0-.13.37,1.06,1.06,0,0,0,.09.35c.13.41,0,.68-.45.67C44.12,135.58,44,135.27,43.84,135.08Z" transform="translate(-0.18 -0.1)"/><path class="cls-2" d="M46.33,134.16a2.36,2.36,0,0,1,.18-.69c.09-.13.3-.17.45-.25a3,3,0,0,1,.14.45.84.84,0,0,1,0,.46,4.57,4.57,0,0,1-.43.62Z" transform="translate(-0.18 -0.1)"/><path class="cls-2" d="M46.09,134.41c0,.22.12.69-.53.45-.08,0-.25.18-.37.28,0-.36,0-.71,0-1.07,0,0,.17-.15.18-.14.32.31.48.22.51-.2.08,0,.21.05.22.1A3.64,3.64,0,0,1,46.09,134.41Z" transform="translate(-0.18 -0.1)"/><path class="cls-2" d="M24.07,136.49a3,3,0,0,1,.54,0c.08,0,.22.16.21.18-.19.38-.39.76-.6,1.13a1,1,0,0,1-.14-.28c0-.31.13-.71-.38-.8,0,0,0-.11-.06-.17Z" transform="translate(-0.18 -0.1)"/><path class="cls-2" d="M5.55,146.56l-.3.48a6.67,6.67,0,0,1-.5-.95c0-.13.11-.33.18-.5Z" transform="translate(-0.18 -0.1)"/><path class="cls-2" d="M46.28,109.09a1,1,0,0,1-.18.13,11.86,11.86,0,0,1-1.13.45c-.13,0-.3-.07-.46-.11.07-.17.13-.46.23-.48a11.21,11.21,0,0,1,1.4-.11S46.23,109,46.28,109.09Z" transform="translate(-0.18 -0.1)"/><path class="cls-2" d="M34.88,136.33c-.17.43-.31.8-.47,1.17,0,0-.16,0-.17,0q-.27-.52-.52-1.06s.09-.14.1-.14c.33.13.66.31.93-.1Z" transform="translate(-0.18 -0.1)"/><path class="cls-2" d="M31.36,137.91c-.14-.15-.36-.28-.37-.42a5.1,5.1,0,0,1,.1-1c.08.07.23.13.24.21.05.36-.11.83.54.77,0,0,.08.09.12.14Z" transform="translate(-0.18 -0.1)"/><path class="cls-2" d="M47.27,133.48l.57-.6c.11.15.34.35.31.46a5.14,5.14,0,0,1-.46.9Z" transform="translate(-0.18 -0.1)"/><path class="cls-2" d="M32.5,137a1.78,1.78,0,0,1,0-.38c0-.09.12-.16.18-.24.06.08.17.16.17.25,0,.41-.09.86.57.79,0,.08,0,.21-.05.24C32.89,138,32.5,137.69,32.5,137Z" transform="translate(-0.18 -0.1)"/><path class="cls-2" d="M43.5,134.56c-.08.49-.14.85-.21,1.21,0,.07-.12.11-.18.17s-.14-.11-.15-.18a4.19,4.19,0,0,1-.14-1c0-.07.44-.12.68-.17C43.52,134.55,43.56,134.64,43.5,134.56Z" transform="translate(-0.18 -0.1)"/><path class="cls-3" d="M50.86,79.07v.44l-.11,1.56c-.43.15-.41-.18-.39-.41.05-.57.15-1.14.23-1.7Z" transform="translate(-0.18 -0.1)"/><path class="cls-2" d="M.18,16.9c0-.44.07-.88.13-1.31,0-.1.16-.18.24-.27a2.71,2.71,0,0,1,0,.33c0,.16,0,.31-.08.46Z" transform="translate(-0.18 -0.1)"/><path class="cls-4" d="M53.35,80.36l0,3.18Z" transform="translate(-0.18 -0.1)"/><path class="cls-2" d="M18.95,158.75l-1.1-.27C18.31,158.18,18.7,158.19,18.95,158.75Z" transform="translate(-0.18 -0.1)"/><path class="cls-5" d="M50.75,81.07l.11-1.56Z" transform="translate(-0.18 -0.1)"/><path class="cls-3" d="M50.59,78.94c0-.15,0-.3,0-.45s.07-.07.11-.1l0,.19Z" transform="translate(-0.18 -0.1)"/><path class="cls-5" d="M50.59,78.94l.16-.36.1.48L50.59,79Z" transform="translate(-0.18 -0.1)"/><path class="cls-2" d="M50.69,6.31l.14.21-.27-.07Z" transform="translate(-0.18 -0.1)"/><path class="cls-1" d="M5.4,12.09l-.84.19c-.63-.76-.7-1.58-.15-2,.28-.19.51-.29.6.21S5.27,11.57,5.4,12.09Z" transform="translate(-0.18 -0.1)"/><path class="cls-1" d="M2.32,12.63c-.46.7-1,1.47-1.47,2.23a.17.17,0,0,1-.16,0,.21.21,0,0,1,0-.18c.41-.75.83-1.51,1.26-2.25,0-.06.15-.08.23-.12Z" transform="translate(-0.18 -0.1)"/><path class="cls-1" d="M7.67,9.17c-.35.35-.68.72-1.05,1,0,0-.26-.16-.4-.25.28-.41.55-.83.87-1.21,0-.05.33.1.5.15Z" transform="translate(-0.18 -0.1)"/><path class="cls-1" d="M6.09,7.85l.38.35L5.69,9c-.07-.08-.21-.2-.19-.23C5.68,8.47,5.89,8.16,6.09,7.85Z" transform="translate(-0.18 -0.1)"/><path class="cls-1" d="M10.8,2s0,.06,0,.06l-1.2.36s0-.05,0-.08L10.81,2Z" transform="translate(-0.18 -0.1)"/><path class="cls-1" d="M10.81,2l.41-.11,0,.09h-.43Z" transform="translate(-0.18 -0.1)"/><path class="cls-1" d="M9,2.56l-.26.12,0-.05L9,2.57Z" transform="translate(-0.18 -0.1)"/><path class="cls-1" d="M9,2.57l.19-.1,0,.05L9,2.56Z" transform="translate(-0.18 -0.1)"/><path class="cls-1" d="M38.67,41.77c-.39.65-.75,1.28-1.14,1.88,0,.07-.3,0-.43,0q-2.25-.83-4.48-1.7c-.08,0-.13-.11-.2-.17s.14-.17.23-.2L37.27,40c.12,0,.34,0,.38,0C38,40.56,38.32,41.15,38.67,41.77Z" transform="translate(-0.18 -0.1)"/><path class="cls-1" d="M29.92,97a13.07,13.07,0,0,1,.22-1.68,1.53,1.53,0,0,1,2.36-1,4.67,4.67,0,0,1,1.4,1.22c.5.67.84,1.45,1.27,2.17.27.45.08.54-.34.55-1.41,0-2.82.07-4.23.14-.51,0-.71-.13-.64-.64A5.5,5.5,0,0,0,30,97Z" transform="translate(-0.18 -0.1)"/><path class="cls-1" d="M35,26.22s0,.11,0,.13c1.2,1.17.46,2.72.78,4.07,0,0-.32.21-.37.17A8.35,8.35,0,0,1,34,29.37a7.64,7.64,0,0,1-1.84-5,2.52,2.52,0,0,1,.13-.55,3.06,3.06,0,0,1,.43.3c.58.58,1.14,1.17,1.73,1.74a3.42,3.42,0,0,0,.6.38Z" transform="translate(-0.18 -0.1)"/><path class="cls-1" d="M35,26.23a13.39,13.39,0,0,0-1.57-1.76,2.56,2.56,0,0,1-.82-3.06c.45-1.54.36-1.49,1.54-.49a3.46,3.46,0,0,1,1.43,3.35,11.23,11.23,0,0,0,0,1.77,2.7,2.7,0,0,1-.08.51l-.37-.26a.92.92,0,0,0-.19-.07Z" transform="translate(-0.18 -0.1)"/><path class="cls-1" d="M39.44,25.31A7.25,7.25,0,0,1,37.55,30a1.47,1.47,0,0,1-.44.32c-.28.14-.57.24-.86.35a9.8,9.8,0,0,1-.19-1c0-.24.1-.5.06-.73a2.84,2.84,0,0,1,1.28-3,16.55,16.55,0,0,0,1.51-1.38,2.65,2.65,0,0,1,.39-.25,4,4,0,0,1,.13.49A3.44,3.44,0,0,1,39.44,25.31Z" transform="translate(-0.18 -0.1)"/><path class="cls-1" d="M36.65,21.72A11.93,11.93,0,0,0,38,20.78c.43-.39.59-.27.69.21.18.84.37,1.68.51,2.53A.64.64,0,0,1,39,24c-.8.81-1.61,1.61-2.42,2.4a1.48,1.48,0,0,1-.33.19,1.68,1.68,0,0,1-.09-.37c0-1.09,0-2.18,0-3.27a2.24,2.24,0,0,1,.29-.71l.22-.51Z" transform="translate(-0.18 -0.1)"/><path class="cls-1" d="M35.59,19.63c0,.61,0,1.23,0,1.84a1.18,1.18,0,0,1-.09.3,1.07,1.07,0,0,1-.27-.15c-.49-.5-1-1-1.44-1.53a.61.61,0,0,1-.05-.58c.49-.62,1-1.21,1.55-1.8.08-.09.23-.11.34-.16a2.66,2.66,0,0,1,.06.38c0,.57,0,1.13,0,1.7Z" transform="translate(-0.18 -0.1)"/><path class="cls-1" d="M36.66,21.71c-.36.22-.55.23-.54-.31,0-1.11,0-2.23,0-3.34a3.64,3.64,0,0,1,.05-.46,2.1,2.1,0,0,1,.39.32c.45.6.88,1.21,1.33,1.8.25.32.18.54-.1.81s-.74.79-1.1,1.19Z" transform="translate(-0.18 -0.1)"/><path class="cls-1" d="M50.57,7.78s0,0,0-.05,0,0,.05,0,0,0,0,.05S50.59,7.79,50.57,7.78Z" transform="translate(-0.18 -0.1)"/><path class="cls-1" d="M27.81,130.71c-.67,0-.78-.23-.55-.81s.37-1.21.55-1.81c.08-.28.16-.46.5-.23s.78.33,1.11.57a1,1,0,0,1-.09,1.75A8,8,0,0,1,27.81,130.71Z" transform="translate(-0.18 -0.1)"/><path class="cls-1" d="M32.52,128.31c0-.3,0-.41,0-.47a4.3,4.3,0,0,1,.52-.7c.1-.1.29-.1.44-.15,0,.15,0,.33-.07.43C33.2,127.68,32.93,127.91,32.52,128.31Z" transform="translate(-0.18 -0.1)"/><path class="cls-1" d="M32.61,149.8a3.78,3.78,0,0,1,.28-4.87,5.44,5.44,0,0,1,3-1.68,3.16,3.16,0,0,1,3.79,3.81,8.88,8.88,0,0,1-.61,1.56h0c.14-.5.29-1,.41-1.5s0-.64-.51-.55c-2.17.35-4.35.67-6.52,1-.35,0-.52.16-.4.51.2.55.42,1.09.62,1.63Zm4.55-4c-.1-.77-.44-1-1-.73a2.91,2.91,0,0,1-.52.06c-.23.05-.54.07-.65.23s0,.44.13.64.2.22.3.33c-.06,0-.14,0-.18,0a2.22,2.22,0,0,1-.46-.36c-.06-.07,0-.23,0-.33a1.64,1.64,0,0,0-.17-.32,1.15,1.15,0,0,0-.22.33c-.07.31-.11.62-.16.94,0-.32-.06-.64-.12-1,0-.1-.14-.26-.21-.26s-.31.14-.3.2a6.48,6.48,0,0,0,.24,1.3c0,.08.45.11.63,0s.35-.38.68-.11c.1.08.55-.1.64-.27s-.09-.45-.18-.68-.15-.15-.23-.22c.12,0,.29,0,.34,0a1.09,1.09,0,0,1,.28.53c.06.54.27.7.71.4C36.91,146.41,37,146.08,37.16,145.83Zm.71.53c.14-.11.37-.23.36-.28a4.67,4.67,0,0,0-.41-1.22c-.7.1-.51.81-.57,1.24C37.12,147,37.68,145.91,37.87,146.37Z" transform="translate(-0.18 -0.1)"/><path class="cls-1" d="M37.07,150.53A3.27,3.27,0,0,1,32.8,150l.13-.14a3.3,3.3,0,0,0,3.81.66.9.9,0,0,1,.34,0Z" transform="translate(-0.18 -0.1)"/><path class="cls-1" d="M37.75,150.12l-.68.41h0l.68-.41Z" transform="translate(-0.18 -0.1)"/><path class="cls-1" d="M39,148.75l-.41.54h0l.41-.55Z" transform="translate(-0.18 -0.1)"/><path class="cls-1" d="M38,149.84l-.27.28h0l.27-.27Z" transform="translate(-0.18 -0.1)"/><path class="cls-1" d="M38.31,149.72l-.29.12h0l.21-.21Z" transform="translate(-0.18 -0.1)"/><path class="cls-1" d="M32.8,150l-.19-.22.12-.11.2.2Z" transform="translate(-0.18 -0.1)"/><path class="cls-1" d="M38.57,149.3l-.12.29-.08-.07.21-.21Z" transform="translate(-0.18 -0.1)"/><path class="cls-1" d="M38.45,149.58l-.13.14-.08-.09.13-.13Z" transform="translate(-0.18 -0.1)"/><path class="cls-1" d="M39.12,148.62l-.14.14h0l.14-.13Z" transform="translate(-0.18 -0.1)"/><path class="cls-1" d="M27.33,115.82c-.24-.34-.43-.5-.47-.69-.09-.41.21-.53.53-.43a2.57,2.57,0,0,1,.64.42Z" transform="translate(-0.18 -0.1)"/><path class="cls-1" d="M40.68,113.87c.57,0,.67.29.68.68a.74.74,0,0,1-.69.84c-.51.06-.41-.32-.39-.58S40,113.87,40.68,113.87Z" transform="translate(-0.18 -0.1)"/><path class="cls-1" d="M43.8,114.05c0-.16-.17-.36-.12-.46a1.16,1.16,0,0,1,.49-.38s.29.27.27.33a3.09,3.09,0,0,1-.42.56Z" transform="translate(-0.18 -0.1)"/><path class="cls-1" d="M50,111l0,0L50,111Z" transform="translate(-0.18 -0.1)"/><path class="cls-1" d="M21,136.67v.16l-.14-.05Z" transform="translate(-0.18 -0.1)"/><polygon class="cls-1" points="36.58 136.82 36.53 136.83 36.54 136.79 36.58 136.82"/><path class="cls-2" d="M39.13,148.62l-.14.13-.41.55-.21.21-.13.13-.21.21-.27.27-.68.41a.9.9,0,0,0-.34,0,3.3,3.3,0,0,1-3.81-.66l-.2-.2c-.21-.54-.43-1.08-.62-1.63-.13-.35.05-.46.4-.51,2.18-.31,4.35-.63,6.52-1,.53-.08.6.15.51.55S39.26,148.12,39.13,148.62Zm-3.67-.5.16-.18c-.15-.06-.39-.21-.43-.17a.66.66,0,0,1-.81.12c-.09,0-.36.15-.38.26a3.57,3.57,0,0,0,0,.8,2.6,2.6,0,0,1,.26-.27.18.18,0,0,1,.17,0,2.22,2.22,0,0,1,.24.21,3.37,3.37,0,0,1,0-.4.72.72,0,0,1,.1-.2c0,.06.09.11.09.17,0,.63.37.55.78.34.17-.09.38-.13.55-.21s.3-.16.29-.21a5.89,5.89,0,0,0-.25-.73,5.66,5.66,0,0,0-.36.49,3.21,3.21,0,0,0-.19.46Zm2.41-.32-.12-.34-.12.41c0,.09-.07.18-.1.27a.83.83,0,0,1-.08-.31c.1-.6-.39-.05-.49-.26-.08.08-.22.16-.24.26-.08.32,0,.37.36.53C37.7,148.6,37.86,148.52,37.86,147.8Zm-5.13.82.65.54c.14-.22.35-.42.38-.65s-.2-.37-.31-.56Zm5.28-.84c0,.21,0,.32,0,.38s.18.23.27.23.22-.13.33-.2c-.09,0-.24-.09-.25-.15a1.52,1.52,0,0,1,0-.53c0-.08.13-.14.2-.21-.14,0-.35-.07-.41,0A1.88,1.88,0,0,0,38,147.78Z" transform="translate(-0.18 -0.1)"/><path class="cls-2" d="M37.16,145.83c-.15.25-.25.58-.47.73-.44.31-.66.14-.71-.4a1.09,1.09,0,0,0-.28-.53c0-.06-.22,0-.34,0,.08.07.19.13.23.22s.26.53.18.68-.55.35-.64.27c-.33-.26-.45,0-.68.11s-.61,0-.63,0a6.48,6.48,0,0,1-.24-1.3c0-.06.19-.19.3-.2s.19.16.21.26c.06.32.08.64.12,1,0-.31.08-.63.16-.94a1.15,1.15,0,0,1,.22-.33,1.64,1.64,0,0,1,.17.32c0,.11,0,.27,0,.33a2.22,2.22,0,0,0,.46.36s.12,0,.18,0c-.1-.11-.25-.2-.3-.33s-.22-.52-.13-.64.42-.17.65-.23a2.91,2.91,0,0,0,.52-.06C36.72,144.83,37.06,145.06,37.16,145.83Z" transform="translate(-0.18 -0.1)"/><path class="cls-2" d="M37.87,146.37c-.19-.45-.74.64-.63-.26.05-.43-.13-1.14.57-1.24a4.67,4.67,0,0,1,.41,1.22C38.24,146.14,38,146.26,37.87,146.37Z" transform="translate(-0.18 -0.1)"/><path class="cls-1" d="M35.45,148.12l.25.49a3.21,3.21,0,0,1,.19-.46,5.66,5.66,0,0,1,.36-.49,5.89,5.89,0,0,1,.25.73s-.18.15-.29.21-.38.12-.55.21c-.41.21-.74.3-.78-.34,0-.06-.06-.11-.09-.17a.72.72,0,0,0-.1.2,3.37,3.37,0,0,0,0,.4,2.22,2.22,0,0,0-.24-.21.18.18,0,0,0-.17,0A2.6,2.6,0,0,0,34,149a3.57,3.57,0,0,1,0-.8c0-.11.29-.29.38-.26a.66.66,0,0,0,.81-.12s.28.11.43.17Z" transform="translate(-0.18 -0.1)"/><path class="cls-1" d="M37.86,147.8c0,.72-.16.8-.78.56-.39-.15-.44-.21-.36-.53,0-.1.16-.17.24-.26.1.2.58-.34.49.26a.83.83,0,0,0,.08.31c0-.09.07-.18.1-.27l.12-.41Z" transform="translate(-0.18 -0.1)"/><path class="cls-1" d="M32.74,148.62l.72-.67c.11.19.34.39.31.56s-.25.44-.38.65Z" transform="translate(-0.18 -0.1)"/><path class="cls-1" d="M38,147.78a1.88,1.88,0,0,1,.24-.49c.05-.06.27,0,.41,0-.07.07-.18.13-.2.21a1.52,1.52,0,0,0,0,.53c0,.06.16.1.25.15-.11.07-.22.2-.33.2s-.21-.13-.27-.23S38,148,38,147.78Z" transform="translate(-0.18 -0.1)"/></g></g></g></g></svg>