<svg xmlns="http://www.w3.org/2000/svg" viewBox="0 0 54.35 159.94"><defs><style>.cls-1{fill:#776755;}.cls-2{fill:#a9947e;}.cls-3{fill:#413220;}.cls-4{fill:#d1ceca;}.cls-5{fill:#bcb6b0;}.cls-6{fill:#d8cabe;}.cls-7{fill:#3e070e;}.cls-8{fill:#e9d5be;}</style></defs><title>Asset 2</title><g id="Layer_2" data-name="Layer 2"><g id="runa"><g id="runa-1"><g id="runa-1-svg_Image" data-name="runa-1-svg Image"><path class="cls-1" d="M54.54,142.91v1.18c-.09.48-.17,1-.29,1.44-.17.67-.36,1.34-.55,2s-.41,1.42-.6,2.13c0,0,.17.1.27.14h.25l-2,2.53a1.67,1.67,0,0,0-.64.11c-1.73,1.16-3.83,1.23-5.71,2a22.7,22.7,0,0,1-3.21.86c-1.22.28-2.47.48-3.69.75a3.47,3.47,0,0,0-.83.44,7.38,7.38,0,0,0,.83.49.91.91,0,0,0,.49,0c.81-.16,1.61-.36,2.42-.48.2,0,.43.16.65.25-.14.16-.26.4-.44.46a12.64,12.64,0,0,1-1.72.4,5,5,0,0,0-2,1.41c0,.11.06.26.1.4l-5.56.69c-.06-.66-.34-.8-1-.78-1.44,0-3,.48-4.31-.5a1,1,0,0,0-.49-.09c-1.87-.11-3.73-.21-5.6-.33-1.05-.07-2.1-.22-3.16-.28-.19,0-.4.23-.6.35a47.85,47.85,0,0,1-9.72-3.54l.53-.57-.84-.14a.94.94,0,0,0-.25,0l-.51-.67c.24-.06.51-.21.73-.16,1.22.26,2.43.59,3.65.86,1.9.42,3.78.9,5.7,1.2,1.55.25,3.14.28,4.71.39s3.26.28,4.88.28a25.69,25.69,0,0,0,3.36-.35c1.26-.16,2.51-.35,3.76-.54.71-.11,1.4-.33,2.11-.38a7.84,7.84,0,0,0,3.68-.68c.06,0,.18,0,.27,0,.38,0,.94.22,1.09,0,.7-.8,2.11-.56,2.51-1.76,0,0,.24,0,.36,0a2.09,2.09,0,0,0,1.91-.89,15.65,15.65,0,0,1,1.54-2.35A2,2,0,0,0,47,147.4a1.69,1.69,0,0,1,.35-1.68,1.85,1.85,0,0,0,.27-1.06c0-.11-.44-.18-.54-.36a1.79,1.79,0,0,1-.39-1c.17-1.45.88-2.85.42-4.37a.53.53,0,0,1,0-.25c.34-1.58.7-3.15,1-4.73,0-.23-.06-.69-.14-.7-.67-.09-.65-.53-.63-1s-.05-1.05-.06-1.58c0-.1.09-.28.12-.28.87.1.34-.39.3-.69a3.53,3.53,0,0,1,0-.48,3,3,0,0,0-.05-1.26,1.42,1.42,0,0,1,.19-1.83c.36-.39.4-.7-.1-1.1a2.46,2.46,0,0,1-.67-3.05,3.32,3.32,0,0,0,.07-1.13c0-.47-.61-1.23.54-1.23.1,0,.3-.38.27-.55a1.28,1.28,0,0,1,.6-1.44.74.74,0,0,0,.26-.52,6,6,0,0,0-.08-1.2,4.42,4.42,0,0,0-.38-1.54c-.36-.58-.41-.82.36-.92s.82-.38.33-1a1.87,1.87,0,0,1-.25-.91c-.08-.54-.12-1.09-.17-1.63,0-.2-.09-.45,0-.6a3.75,3.75,0,0,0,.1-3.1c-.19-.4-.36-.88.25-1.12.16-.06.38,0,.57,0-.11-.25-.15-.61-.34-.74-1.05-.72-.08-.73.31-.92s.56-.55.16-.89c-1.25-1.06-1.11-2.55-1.2-3.93,0-.63.36-1.29.31-1.91s-.47-1.51-.57-2.28a20,20,0,0,1-.07-2.78c0-1.81.05-3.63.16-5.44,0-.34.39-.67.63-1s.5-.36.49-.52-.2-.71-.4-.77c-1.46-.43-1.09-1.53-1-2.54a7.76,7.76,0,0,0,0-1.08c-.06-1.05-.16-2.1-.19-3.16s0-2.15,0-3.23c0-.86-.14-1.72-.06-2.57a6.74,6.74,0,0,0-.27-3.63c0-.1,0-.26.06-.4a8.33,8.33,0,0,0,.18-1.75c-.09-.93-.75-1.8-.23-2.78,0-.07-.05-.21-.07-.32-.19-1.34-.46-2.67-.53-4-.09-1.82,0-3.65,0-5.48A7.75,7.75,0,0,0,47,50.69c-.26-.79.13-1.88-.9-2.39-.1,0-.16-.3-.15-.45.08-.81.22-1.62.28-2.43a4.41,4.41,0,0,0-.05-1.83,6,6,0,0,1,0-2.66A15.93,15.93,0,0,0,46,36.4a3.56,3.56,0,0,1,.09-1.13c.07-.68.16-1.36.19-2a6.22,6.22,0,0,0-.08-1.35c0-.21-.23-.56-.36-.56-.43,0-.36-.12-.26-.45a3,3,0,0,0,0-.94c0-.18-.08-.43,0-.54.5-.65.31-1.06-.31-1.51s-.41-.85.22-1.18a.67.67,0,0,0,.24-.52c0-1.47,0-2.95-.14-4.42a17.59,17.59,0,0,1-.4-2.25c.08-1.1.78-2.1.65-3.27a.53.53,0,0,1,.19-.36c.35-.32.28-.62.13-1a1.92,1.92,0,0,1,.48-2.1,1.49,1.49,0,0,1,1.94-.19c1.26.8,2.49,1.66,3.72,2.51a.55.55,0,0,1,.16.29c.2.64.41,1.28.57,1.93.3,1.27.56,2.56.84,3.83L54,22.77c-.63,1-.1,2-.24,3.05,0,0,.18.11.27.17v1l-.25,0c-.08-.12-.05-.62-.32-.11-.65,1.24-1.51,2.44-.6,3.94A7.4,7.4,0,0,1,53.19,32c.06.15.24.26.36.38.11.63.23,1.26.31,1.89a1.28,1.28,0,0,1-.1.6c-1,0-.43.6-.39,1,.16,1.35.34,2.69.51,4-.1,0-.27,0-.3.11-.41,1-.82,2-1.19,3.07,0,.07.22.23.34.35a3.14,3.14,0,0,1,.47.65,4,4,0,0,1,.14.87,2.2,2.2,0,0,1-.13.38c-1.07,1.88-.59,3.64.41,5.36l.56,1v.33c-.1.17-.2.35-.29.53a3,3,0,0,0-.11.29c0-.09-.13-.18-.12-.26.09-.84-.45-.34-.75-.35-.08-.21-.14-.42-.23-.62s-.12-.08-.19-.11-.1.15-.08.21c.37,1.26.74,2.52,1.12,3.78a4.19,4.19,0,0,1,.29.47,3.91,3.91,0,0,1,.16.52c0-.19,0-.37,0-.56q.08-1.44.16-2.87v4.88l-.5-.09c-.1.09-.27.15-.3.26-.36,1.17-.71,2.35-1.06,3.52,0,.83,0,1.67,0,2.5a2.77,2.77,0,0,0,.19.69v1l-.67.4c.86.23.59,1,.74,1.58a8.18,8.18,0,0,1,.11,1.71c-.1.14-.3.29-.28.41.11.55.28,1.09.42,1.64l-.32,2.34v1.69c0,.7,0,1.4,0,2.1a2.17,2.17,0,0,0,.08.39c.09-.12.22-.22.26-.35a9,9,0,0,0,.63-4.08l.19-.07a6.29,6.29,0,0,1-.49,4.61,8.11,8.11,0,0,0-.36,3.8A3.42,3.42,0,0,0,53,84.87c0,.41-.1.82-.13,1.23s0,1,0,1.47c-.12.06-.35.13-.34.18,0,.41.13.82.21,1.22v2.57c-.38.65-.66,1.3.13,1.87L53,95.1c-.15.59-.31,1.17-.45,1.76,0,.09,0,.19.07.29a1.92,1.92,0,0,0,.23-.2c.09-.1.16-.22.24-.32l.12,1.86,0,.14,0-.14c.16-.64.31-1.28.48-1.92s.31-1.09.46-1.64l0,1.78v1.48l-.29.31-.33.59a2.22,2.22,0,0,0-.82,2.33c.29.77.29.77.74.77a4.5,4.5,0,0,0,.39-.85c.14-.61.21-1.24.32-1.85l.21.52.05.5q0,3,0,6.06l0,4.58a3.35,3.35,0,0,1-.21-.76c0-.94.05-1.89-.05-2.83a4.43,4.43,0,0,0-.64-1.32c-.2-.36-.39-.72-.6-1.07,0-.08-.15-.13-.23-.19a.82.82,0,0,0,0,.29c.23.82.45,1.65.72,2.46.05.15.29.24.45.36l.25,2-.35-.08c0-.3,0-.59,0-.89,0-.72-.33-.7-.78-.29-.52.93-.48,1.44.15,1.93l.16,1.18c-.17.74-.34,1.49-.49,2.23a1.37,1.37,0,0,0,0,.35l.34-.2.62.46,0,.62h0c-.22.57-.43,1.14-.65,1.7a2.62,2.62,0,0,0,.15,2.31,12.37,12.37,0,0,1,.67,2.29l-.89.52c-.06.21-.2.44-.15.61q.42,1.56.92,3.09c.05.16.3.27.46.4-.07.69-.1,1.39-.22,2.07-.17,1-.42,2-.61,2.95a1.52,1.52,0,0,0,.14.57,2,2,0,0,0,.28-.43c.09-.26.12-.54.19-.81,0-.09.11-.15.17-.23,0,.09.13.19.12.27-.13,1-.28,1.92-.42,2.88-.18.13-.46.22-.51.39a3.64,3.64,0,0,0-.21,2.72,2.71,2.71,0,0,0-.42.92c0,.86.05,1.72.09,2.58l.32,1.38-.3,2.64v1.39l.15.14a.16.16,0,0,1,0,.15,1.07,1.07,0,0,0,.07.33c.12.21.27.4.41.6a5.43,5.43,0,0,0,.28-.76,6,6,0,0,0-.27-3.91l.27-.27ZM53.15,56.85l-.46-1a2.54,2.54,0,0,0-.29.83,2.69,2.69,0,0,0,.31.84Zm.3,70.41-.37-.74a3.93,3.93,0,0,0-.35,1c0,.21.18.44.29.67Zm-.51-88.58-.36-.83c-.14.24-.41.5-.38.7a3.24,3.24,0,0,0,.49.93Zm0-18c-.09-.32-.18-.63-.28-.93a.57.57,0,0,0-.25,0,3.88,3.88,0,0,0,0,1c0,.2.22.37.34.55Z" transform="translate(-0.19 -0.3)"/><path class="cls-2" d="M52.84,140.2c0-.86-.12-1.72-.09-2.58a2.71,2.71,0,0,1,.42-.92,4.93,4.93,0,0,0,.29.5,2.18,2.18,0,0,0,.31.29c.05-.14.19-.33.14-.42-.6-1.16-.15-2.32,0-3.48.14-1,.29-1.92.42-2.88,0-.08-.08-.18-.12-.27-.06.08-.15.14-.17.23-.08.27-.1.55-.19.81a2,2,0,0,1-.28.43,1.52,1.52,0,0,1-.14-.57c.18-1,.43-2,.61-2.95.12-.68.15-1.38.22-2.07L53,122.22l.89-.52c.35-.12.37-.12.29-.56-.36-1.82-1-3.61-.39-5.5,0-.07,0-.16-.06-.24h0l.34-.84.31-.61.19,1.7v27.26l-.75-1C53.67,141.21,53.75,140.43,52.84,140.2Zm1.49-22.65-.27-.62a1.93,1.93,0,0,0-.2.63,2.41,2.41,0,0,0,.24.68Z" transform="translate(-0.19 -0.3)"/><path class="cls-3" d="M32.33,160.06l-.34.17H25.6c-1.22-.22-2.45-.41-3.66-.68-1.6-.35-3.2-.74-4.8-1.12.2-.12.41-.36.6-.35,1.05.06,2.1.21,3.16.28,1.86.13,3.73.22,5.6.33a1,1,0,0,1,.49.09c1.34,1,2.86.54,4.31.5C32,159.27,32.27,159.41,32.33,160.06Z" transform="translate(-0.19 -0.3)"/><path class="cls-2" d="M54.54,148.63l-.91,1.18h-.25l.34-2.27c.18-.67.38-1.34.55-2,.12-.47.19-1,.29-1.44Z" transform="translate(-0.19 -0.3)"/><path class="cls-4" d="M54.41,100.5a.22.22,0,0,1,.13,0v6.06a.27.27,0,0,0-.13,0Z" transform="translate(-0.19 -0.3)"/><path class="cls-5" d="M54.41,106.55a.27.27,0,0,1,.13,0v4.88a.23.23,0,0,1-.12,0l0-.33Z" transform="translate(-0.19 -0.3)"/><path class="cls-6" d="M54.42,111.46a.23.23,0,0,0,.12,0v4.21l-.19-1.7v-1Z" transform="translate(-0.19 -0.3)"/><path class="cls-2" d="M.56,17.24l.31-.47c.32.24.32.24.54-.13s.35-1.09,1.08-1.07l.39,0-.2-.86c.66-.41,1.31-.82,2-1.22a10.7,10.7,0,0,1,1.29-.72C7.62,12,9.33,11.34,11,10.59c.29-.13.66-.63.61-.86a1.6,1.6,0,0,0-.8-1.05,3.8,3.8,0,0,0-2.07-.11A5.15,5.15,0,0,0,6.83,9.79c-.7.65-.89.72-1.24-.14-.21-.52-.5-.49-.9-.4l-.09-.83c.12-.15.21-.35.36-.43A35.07,35.07,0,0,1,9.49,5.85c2.22-.72,4.54-1.17,6.81-1.72a2.11,2.11,0,0,1,.57,0,3.7,3.7,0,0,1-.55.26L11,5.89c-.11,0-.2.16-.3.24.14,0,.29.15.42.12.7-.16,1.4-.38,2.1-.53a46.5,46.5,0,0,1,5.59-1.07c3.64-.3,7.29-.48,10.94-.49a46.4,46.4,0,0,1,6.68.6c2.21.31,4.39.81,6.59,1.23a25.43,25.43,0,0,1,6.61,3.1,4.58,4.58,0,0,1,.76,1c.13.29,0,.71.06,1a3.61,3.61,0,0,0,.54.85,4.21,4.21,0,0,1,.26-.61c.28-.47.59-.92.89-1.38l.33.24a4.75,4.75,0,0,1-.35,1.26,1.4,1.4,0,0,0,0,1.78s-.05,0,0,.06a.66.66,0,0,0,.07.11v0l1.33,2.53a2.38,2.38,0,0,1,.31.76c0,1.49,0,3,.07,4.47-.28-1.28-.54-2.56-.84-3.83-.15-.65-.37-1.29-.57-1.93a.55.55,0,0,0-.16-.29c-1.23-.85-2.45-1.71-3.72-2.51a1.49,1.49,0,0,0-1.94.19,1.92,1.92,0,0,0-.48,2.1c.15.42.22.72-.13,1a.53.53,0,0,0-.19.36c.13,1.17-.57,2.17-.65,3.27a17.59,17.59,0,0,0,.4,2.25c.1,1.47.12,2.94.14,4.42a.67.67,0,0,1-.24.52c-.63.33-.78.77-.22,1.18s.81.87.31,1.51c-.09.12,0,.36,0,.54a3,3,0,0,1,0,.94c-.1.33-.17.44.26.45.13,0,.32.35.36.56a6.22,6.22,0,0,1,.08,1.35c0,.68-.13,1.36-.19,2A3.56,3.56,0,0,0,46,36.4a15.93,15.93,0,0,1,.14,4.54,6,6,0,0,0,0,2.66,4.41,4.41,0,0,1,.05,1.83c-.06.81-.2,1.62-.28,2.43,0,.15,0,.4.15.45,1,.51.64,1.6.9,2.39A7.75,7.75,0,0,1,47,53c0,1.83-.07,3.66,0,5.48.07,1.34.34,2.67.53,4,0,.11.11.25.07.32-.52,1,.14,1.86.23,2.78a8.33,8.33,0,0,1-.18,1.75c0,.13-.11.3-.06.4a6.74,6.74,0,0,1,.27,3.63c-.07.85.06,1.71.06,2.57,0,1.08-.06,2.15,0,3.23s.13,2.1.19,3.16a7.76,7.76,0,0,1,0,1.08c-.08,1-.46,2.11,1,2.54.2.06.38.5.4.77s-.34.32-.49.52-.61.64-.63,1c-.11,1.81-.13,3.63-.16,5.44a20,20,0,0,0,.07,2.78c.1.77.51,1.51.57,2.28s-.35,1.28-.31,1.91c.09,1.39,0,2.88,1.2,3.93.4.34.33.65-.16.89s-1.37.2-.31.92c.19.13.23.49.34.74-.19,0-.41-.11-.57,0-.61.23-.43.72-.25,1.12a3.75,3.75,0,0,1-.1,3.1c-.08.15,0,.4,0,.6.05.55.09,1.09.17,1.63a1.87,1.87,0,0,0,.25.91c.49.57.32.87-.33,1s-.71.33-.36.92a4.42,4.42,0,0,1,.38,1.54,6,6,0,0,1,.08,1.2.74.74,0,0,1-.26.52A1.28,1.28,0,0,0,48,119c0,.17-.17.55-.27.55-1.15,0-.52.76-.54,1.23a3.32,3.32,0,0,1-.07,1.13,2.46,2.46,0,0,0,.67,3.05c.49.39.46.71.1,1.1a1.42,1.42,0,0,0-.19,1.83,3,3,0,0,1,.05,1.26,3.53,3.53,0,0,0,0,.48c0,.3.57.78-.3.69,0,0-.12.18-.12.28,0,.53.08,1.05.06,1.58s0,.94.63,1c.08,0,.18.47.14.7-.32,1.58-.67,3.15-1,4.73a.53.53,0,0,0,0,.25c.45,1.52-.25,2.91-.42,4.37a1.79,1.79,0,0,0,.39,1c.11.17.55.25.54.36a1.85,1.85,0,0,1-.27,1.06A1.69,1.69,0,0,0,47,147.4a2,2,0,0,1-.38,1.84,15.65,15.65,0,0,0-1.54,2.35,2.09,2.09,0,0,1-1.91.89c-.12,0-.34,0-.36,0-.4,1.2-1.81,1-2.51,1.76-.15.17-.72,0-1.09,0-.09,0-.21-.07-.27,0a7.84,7.84,0,0,1-3.68.68c-.71.05-1.41.27-2.11.38-1.25.2-2.5.38-3.76.54a25.69,25.69,0,0,1-3.36.35c-1.63,0-3.26-.17-4.88-.28s-3.16-.15-4.71-.39c-1.92-.3-3.8-.78-5.7-1.2-1.22-.27-2.43-.6-3.65-.86-.22,0-.49.1-.73.16l-1-1.12c0-.33,0-.66,0-1a1.22,1.22,0,0,0-.19-.4c-.12.12-.28.22-.34.36a1.44,1.44,0,0,0,0,.49c-.7-.68-1.42-1.34-2.07-2.06a1.39,1.39,0,0,1-.22-.85q-.18-9.85-.34-19.7c0-1.23,0-2.47-.07-3.7a3.65,3.65,0,0,0,0-3q-.1-3.44-.19-6.88a.9.9,0,0,1,.11-.3l.36-.09.71-.19A.73.73,0,0,0,3.2,115c.66-1.23,1.33-2.46,2-3.7a.8.8,0,0,0,0-.57q-.84-2.1-1.71-4.18c0-.1-.17-.17-.26-.25a1.66,1.66,0,0,0,0,.38q.41,1.45.84,2.9c.13.43.47.91.37,1.26-.35,1.18-.86,2.32-1.3,3.48v-3a1.24,1.24,0,0,0,.17-1.6s-.17.07-.26.1c-.09-.58-.16-1.16-.28-1.73s-.27-1.07-.41-1.6c0-2.27-.08-4.54-.13-6.8q-.47-21.1-1-42.19l0-2.2L1.07,50.7v-.33L1,48.7l0-1.23L.86,41.3v-.83L.79,37.7.72,34.19a2,2,0,0,0,.08-.41C.71,29.37.61,25,.52,20.55.5,19.45.54,18.34.56,17.24ZM25.77,138l.18-.15c.51-.45,1-.54,1.42.11,0,.06.19.06.28.08s0-.18,0-.22c-.3-.33-.61-.64-.91-1l-.81,1-.14.19,0,0Zm-.16-1,0-.06,0,.06-.19.15-.35.32-.32,0h-.41c.09.13.21.39.26.37a2.59,2.59,0,0,0,.56-.3l.32-.37Zm-10.09,0,.18-.15a5.58,5.58,0,0,0,.73.38c.12,0,.29,0,.43-.06l.45.06c.19.07.49.25.56.18a4.21,4.21,0,0,0,.56-.78c-.22.13-.43.27-.65.39a2.11,2.11,0,0,1-.38.12l-.45-.5-.09.52-.54-.58c-.37-.39-.59-.31-.67.21l-.14.2-.16.17-.22.16,0,.05.16-.22Zm16-.14.1,0,0-.1h-.1Zm5.44-.34.05-.06,0,0-.06.06-.06.06,0,0Zm1.95-.14.16.17.18.32c.43.54.67.49,1-.26a1.35,1.35,0,0,0,.07-.37,3.52,3.52,0,0,0-.34.14l-.65.37-.2-.32-.17-.16-.12,0Zm1.68.57-.17.28.27-.18,0-.14Zm-7.9.35a1.06,1.06,0,0,1-.38.12,2.15,2.15,0,0,1-.49-.16c0,.08,0,.18,0,.23s.32.3.48.44l.45-.53.37-.4-.1-.1Zm2.78-.51-.11,0,0,.11a3.49,3.49,0,0,0,.56.69c.08.06.38-.08.53-.19s.15-.27.22-.41l-.21,0Zm-11.86.76.1,0,0-.1-.8-.73-.43.73,0,.1.1,0ZM27.1,152c-.66.39-.52.87-.07,1.28s.89.67,1.29,0l.48,0,1,.3c-.1-.13-.26-.24-.29-.38a.75.75,0,0,1,.13-.44c.12-.22.28-.41.39-.63a.37.37,0,0,0,0-.28,4.62,4.62,0,0,0-.73,0s-.1.1-.14.16c.81.65-.1.91-.3,1.33a4.39,4.39,0,0,0-.61-1.34C28,151.68,27.47,151.91,27.1,152Zm16.49-18.39-.1-.4c-.24.1-.66.15-.7.3a4.13,4.13,0,0,0,0,1.14l.81-.34Zm-6.35,3.81c.42,0,.83,0,1.25,0a1.25,1.25,0,0,0,.34-.11,5.52,5.52,0,0,0-.78-.83c-.07-.05-.42.22-.59.39a1.94,1.94,0,0,0-.28.49l0,.11Zm-19-19.88h0c-.18-.56-.66-.42-.8-.15a1.23,1.23,0,0,0,.12,1.07c.28.39.71.23,1-.14S18.77,117.59,18.2,117.51ZM32,151.83c.46,0,.72.1.2.56-.2.18-.16.63-.23,1,.18,0,.45.12.53,0a1.73,1.73,0,0,0,.4-.72,1.35,1.35,0,0,0-.06-.66c-.16-.59-.44-.69-.85-.19l0,.06Zm10.48-15.71-.36-.12.25.25c.14.19.32.55.41.53.44-.1,1-.19,1.24-.5.37-.48.59-.1.88,0l.13,0,0-.13c-.52-1-1.06-1.08-1.88-.22C43,136.06,42.69,136.06,42.48,136.12ZM1.2,18.23c.24.82.5,1.63.72,2.45a1.71,1.71,0,0,1,0,.72c-.21,1.19-.45,2.37-.67,3.56a.88.88,0,0,0,0,.28c.07-.07.17-.12.2-.21a13.12,13.12,0,0,1,.58-2.09,3.94,3.94,0,0,0-.58-4.71,1,1,0,0,0-.08-.32,5.49,5.49,0,0,0-.37-.47c0,.19,0,.38,0,.57S1.15,18.16,1.2,18.23ZM5.62,142.37a.28.28,0,0,0,0,.07s0,0,0,0v-.1c-.41-1.34-.77-2.68-1.23-4A3.43,3.43,0,0,1,4.59,135a5.22,5.22,0,0,0,.52-1.14c.15-.37.27-.76.4-1.14a8.67,8.67,0,0,0-.9.89,4,4,0,0,0-.82,4.12c.45,1.14.72,2.35,1.13,3.51A6.42,6.42,0,0,0,5.62,142.37Zm23.83-16.31.11.1a1.72,1.72,0,0,0-.12.4c0,.3,0,.61,0,.91.25-.22.51-.44.74-.68a1.3,1.3,0,0,0,.19-.37,6.75,6.75,0,0,1,2.9-3.33c.16-.09.25-.32.37-.48-.23,0-.53-.19-.67-.1-.53.35-1,.78-1.51,1.17-.09.07-.3.14-.33.11-.45-.52-.57-.5-1,.13a26.54,26.54,0,0,1-1.53,2.3,4.11,4.11,0,0,1-1.3,1c-.17.09-.53-.19-.8-.29a4.71,4.71,0,0,1,.46-.51c.53-.44,1.1-.83,1.58-1.32a.81.81,0,0,0,0-.81,1,1,0,0,0-.88-.21,3.12,3.12,0,0,0-2,1.89c-.22.59-.4,1.23.18,1.7a1.38,1.38,0,0,0,1.79-.08C28.31,127.13,28.87,126.57,29.45,126.05ZM27.79,21.11h0a7.18,7.18,0,0,1,.37,1.24c.08.72.09,1.45.1,2.18,0,.32,0,.65,0,1-.26-.19-.51-.39-.78-.57a5.76,5.76,0,0,0-.55-.29c.13.19.24.38.38.55.36.47.88.89,1,1.41a9.31,9.31,0,0,1,.16,2.25,3.13,3.13,0,0,1-.1.61,2.46,2.46,0,0,1-.61-.21,6.61,6.61,0,0,1-3-5.7,1.29,1.29,0,0,1,.11-.37,1.56,1.56,0,0,1,.36.17c.37.31.71.64,1.08.94.08.07.23,0,.35.07a1,1,0,0,0-.14-.29c-.45-.43-.91-.84-1.35-1.26-.17-.17-.32-.36-.48-.54a3.71,3.71,0,0,0-.39.93,4.11,4.11,0,0,0,.06,1.25,8.21,8.21,0,0,0,2.53,4.7c1.14,1.05,2.28,1.15,3.26.27a7,7,0,0,0,2.53-6.28,22.13,22.13,0,0,0-1.11-3.69.82.82,0,0,0-.15-.3l-2.23-2.48c-.51-.57-1-.64-1.56,0a14,14,0,0,1-1.72,2c-.93.74-1,1.79-1.27,2.77,0,.11.12.28.19.42a1.65,1.65,0,0,0,.26-.4c.14-.51.24-1,.38-1.54s.3-.48.64-.18C26.65,20.23,27.23,20.66,27.79,21.11Zm2.88,35.15c-2.6,1.76-5.18,3.53-7.8,5.27-1.53,1-2.9,2-2.42,4.22.12.55.29.68.79.67,2.5,0,5-.08,7.51-.1,2.72,0,5.44,0,8.15,0,.73,0,1.11-.08,1-.94a8.2,8.2,0,0,1,0-1.85c0-.6-.18-.76-.76-.76-3.05,0-6.11,0-9.16,0a2.69,2.69,0,0,1-.52-.1,3.93,3.93,0,0,1,.36-.32L36.88,56a3,3,0,0,0,.72-3.22c-.18-.32-1.06-.27-1.63-.36a6.71,6.71,0,0,0-1.09-.06l-7.28.11c-2.26,0-4.51.05-6.77,0-.64,0-.85.21-.79.83a21.44,21.44,0,0,1,.12,2.26c0,.47.16.56.59.55,3.3-.08,6.61-.14,9.91-.2ZM37.36,34.2c0-.5,0-1,0-1.51,0-.33-.06-.54-.55-.37-2.51.91-5.06,1.7-7.55,2.64-2.72,1-5.37,2.25-8.1,3.24a1.94,1.94,0,0,0-1.46,2.41c.17,1.6.08,1.59,1.61,2.12Q29.14,45.46,37,48.22c.46.16.68.18.66-.39,0-.87,0-1.74-.08-2.6a.79.79,0,0,0-.36-.57c-.61-.3-1.26-.53-1.89-.79l-1.6-.66a11.53,11.53,0,0,1,.89-1.61A1.94,1.94,0,0,0,34.62,39c-1.19-1.78-1.11-1.83,1-2.42C37.42,36.08,37.42,36.08,37.36,34.2ZM26.69,80.5v.18c-1.76,0-3.53,0-5.29,0-.54,0-.68.15-.65.66,0,.84,0,1.68,0,2.52,0,.17.29.47.45.46q4,0,8-.13a36.47,36.47,0,0,0,4.44-.25,4.56,4.56,0,0,0,4.21-3.83,30.15,30.15,0,0,0,.19-3.51,5.24,5.24,0,0,0-5-5.52c-2-.07-4-.05-6,0s-3.86.07-5.8.08c-.54,0-.75.19-.7.74a17.29,17.29,0,0,1,0,2.18c0,.61.22.75.78.74,2.46-.05,4.93-.1,7.39-.08a33.48,33.48,0,0,1,4.34.21A2.08,2.08,0,0,1,35,77c.25,2.18-.81,3.44-3,3.49C30.22,80.54,28.46,80.5,26.69,80.5Zm2.6,19v-.21c2.58,0,5.15,0,7.73,0,.8,0,1-.27.93-1a10.18,10.18,0,0,1,0-1.76c0-.5-.12-.7-.66-.67-1,.07-2.08,0-3.1.14a1.71,1.71,0,0,1-2-1.13c-.17-.36-.21-.49.18-.68,1.3-.64,2.56-1.36,3.87-2C38,91.4,38,91.42,38,89.45c0-.39,0-.78,0-1.17s0-.69-.59-.39c-1.74.93-3.5,1.8-5.26,2.68-.57.29-1.18.82-1.73.77s-.95-.72-1.41-1.13a5.15,5.15,0,0,0-6.29-.49,5.43,5.43,0,0,0-1.9,4.56c0,1.43.05,2.86,0,4.28,0,.74.17,1,1,1C24.31,99.5,26.8,99.54,29.3,99.54Zm1.46,42a4.66,4.66,0,0,0-4.83,4.51,4.52,4.52,0,0,0,4.58,4.48,4.83,4.83,0,0,0,4.85-4.84A4.22,4.22,0,0,0,30.76,141.54Zm-7.5-18.69,1.09.57-.67.88s-.1.05-.15.08c-1.35.79-1.33.81-.09,1.6.33.21.73.71.69,1a1.66,1.66,0,0,1-.83,1,3.11,3.11,0,0,1-1.38.24c-.12,0-.39-.35-.36-.49.22-1.06.5-2.1.74-3.15a7.49,7.49,0,0,0,.1-.8,5.9,5.9,0,0,0-.75.68,1.88,1.88,0,0,0-.2.64c-.25.86-.44,1.74-.78,2.57-.11.28-.71.36-.82.64s.26.59.39.9a2.13,2.13,0,0,1,.07.52c.21-.1.54-.15.6-.31.21-.54.62-.54,1.08-.57a4.06,4.06,0,0,0,2.68-1c.61-.58.9-1.59.39-1.94-1.31-.88-.75-1.38.12-2.13a.86.86,0,0,0-.31-1.54c-1.31-.45-4.3.67-5,1.87a1.15,1.15,0,0,0-.07.31,1,1,0,0,0,.37,0c.22-.11.42-.28.64-.39C21.63,123.62,22.43,123.25,23.26,122.86Zm12.58,1.77H35.7a.88.88,0,0,0,0,.33c.14.39.31.77.47,1.16a3.65,3.65,0,0,0,1.12-.66,10.83,10.83,0,0,0,.92-1.68,2.61,2.61,0,0,1,.18-.25,1,1,0,0,1,0,.3c-.24,1.15-.52,2.29-.73,3.45a3.32,3.32,0,0,0,.11,1c.25-.27.52-.53.76-.82.08-.1.05-.27.08-.41.32-1.7.65-3.41.95-5.11a2.93,2.93,0,0,0-.1-.83,5.23,5.23,0,0,0-.79.56c-.14.15-.17.41-.26.61-.41.92-.8,1.85-1.24,2.75-.11.22-.36.36-.55.54a2.4,2.4,0,0,1-.1-.7c.16-1,.37-2,.54-3a2,2,0,0,0-.08-.6c-.2,0-.47,0-.6.16a1.5,1.5,0,0,0-.52.79C35.79,123,35.84,123.82,35.84,124.63ZM27.18,114c0-1.07-.26-1.27-1.22-1-.13,0-.32.17-.33.27s.14.26.24.36a1.8,1.8,0,0,0,.35.21c-.14.08-.31.25-.41.22a1.59,1.59,0,0,1-.82-.44.87.87,0,0,1,0-.83,1.68,1.68,0,0,1,.86-.36c.1,0,.26.18.37.16a3.17,3.17,0,0,0,.62-.29,1.68,1.68,0,0,0-.31-.42,1.69,1.69,0,0,0-2,.15,1.48,1.48,0,0,0-.41,1.76,1.61,1.61,0,0,0,1.82,1C26.39,114.6,27.56,115.21,27.18,114Zm-6.92-.84h0a7.5,7.5,0,0,0,0,1.09c0,.17.22.31.34.46.16-.13.42-.24.46-.4.14-.58.36-.34.6-.1s.18.34.31.38a3.8,3.8,0,0,0,.79.12,2.61,2.61,0,0,1-.16-.56,1.23,1.23,0,0,1,.08-.64c.53-1,.11-1.8-1-1.88-1.49-.1-1.49-.1-1.46,1.35C20.26,113,20.26,113.08,20.26,113.14ZM16.88,113a8.61,8.61,0,0,0,0,1.17c0,.17.22.42.36.44a10.35,10.35,0,0,0,1.59,0,.42.42,0,0,0,.3-.28.55.55,0,0,0-.21-.4c-.09-.08-.27,0-.4-.09a3.17,3.17,0,0,1-.41-.22c.12-.06.29-.09.36-.18a2.38,2.38,0,0,0,.32-.58,3.8,3.8,0,0,0,.15-.56c0-.18.16-.39.1-.53a.58.58,0,0,0-.45-.23C16.49,111.51,16.84,111.2,16.88,113ZM34,112.88c0,1.78,0,1.78,1.65,1.59a1.57,1.57,0,0,0,0-3.1C34.19,111.17,33.95,111.39,34,112.88Zm-28.7,1.64a5.72,5.72,0,0,0-.49.63c-.41.79-.83,1.57-1.18,2.38a2.32,2.32,0,0,0-.32,1.35c.56,1.89,1.24,3.75,1.89,5.62,0,.13.21.22.32.32a3.15,3.15,0,0,0-.08-.48c-.47-1.43-.89-2.88-1.44-4.27a2.65,2.65,0,0,1,.17-2.37c.43-.84.77-1.73,1.13-2.61A2.22,2.22,0,0,0,5.29,114.52ZM38,112.69h0a6.83,6.83,0,0,0,0,1.09c0,.19.23.35.36.52.15-.15.41-.29.44-.46.08-.48.25-.44.52-.17.1.1.16.28.27.31a5,5,0,0,0,.78.13,2.12,2.12,0,0,1-.14-.55,1.83,1.83,0,0,1,.14-.73c.37-.79.14-1.55-.63-1.66a3.25,3.25,0,0,0-1.63.17c-.18.07-.11.76-.15,1.16C38,112.57,38,112.63,38,112.69ZM2.29,70.41a2.8,2.8,0,0,0,0,.77c.33,1,.64,2,1.05,2.92a2.66,2.66,0,0,1,.09,2.22A21.74,21.74,0,0,0,2.69,79a2.06,2.06,0,0,0,0,.44A1.58,1.58,0,0,0,3,79.08c.49-1.16,1-2.32,1.43-3.49A.9.9,0,0,0,4.44,75c-.63-1.44-1.28-2.87-1.93-4.3A2,2,0,0,0,2.29,70.41Zm2.4,8.43a4.33,4.33,0,0,0-.41.59c-.53,1.32-1.06,2.64-1.56,4a1.25,1.25,0,0,0,0,.82c.6,1.53,1.23,3.05,1.86,4.57,0,.12.18.19.28.29a1.61,1.61,0,0,0,0-.45c-.45-1.23-.89-2.47-1.37-3.69a2.74,2.74,0,0,1,0-2.11c.43-1.12.82-2.26,1.21-3.39A3.46,3.46,0,0,0,4.69,78.84Zm8.5,33.94h.07a10.93,10.93,0,0,0,0,1.25c0,.13.23.27.38.32s.26-.18.29-.3a9.65,9.65,0,0,0,.14-1l.7.91c.12.15.24.41.38.42s.55-.15.55-.25a23.12,23.12,0,0,0,0-2.34c0-.12-.24-.23-.36-.34-.11.13-.28.24-.31.38a8.34,8.34,0,0,0-.13,1l-.65-.86c-.05-.07-.09-.16-.15-.2-.24-.15-.49-.29-.73-.43a6.39,6.39,0,0,0-.14.68C13.16,112.27,13.18,112.52,13.18,112.78Zm32.54-.72h0a8.63,8.63,0,0,0,0-1.09c0-.14-.21-.26-.32-.39-.13.12-.36.22-.38.35-.12,1-.41.59-.79.14-.14-.16-.4-.21-.61-.3a1.94,1.94,0,0,0-.26.63,15.54,15.54,0,0,0,.08,1.93c0,.18.24.34.36.51a2.11,2.11,0,0,0,.36-.55,3.74,3.74,0,0,0,.05-.81l.6.75s0,.13.06.15.39.27.55.24.3-.29.33-.47A7.74,7.74,0,0,0,45.73,112.06Zm-42.84-87-.11-.2c-.08.1-.22.19-.25.3-.39,1.52-.76,3-1.14,4.56-.08.32-.35.71-.25.93.6,1.25,1.28,2.46,1.95,3.68,0,.08.17.13.25.19a.92.92,0,0,0,0-.36c-.36-.82-.69-1.65-1.13-2.43a3.26,3.26,0,0,1-.34-2.63C2.25,27.81,2.54,26.48,2.89,25.09ZM4.11,93.22c-.08.23-.16.46-.24.7q-.51,1.71-1,3.43a.84.84,0,0,0,0,.3,1.32,1.32,0,0,0,.18-.24c.56-1.25,1.12-2.5,1.65-3.76a.91.91,0,0,0,0-.62c-.6-1.5-1.22-3-1.85-4.49a2.52,2.52,0,0,0-.2-.33,1.15,1.15,0,0,0,0,.36c.2.8.41,1.61.64,2.41S3.85,92.46,4.11,93.22ZM3.24,57.13c-.11.34-.22.63-.29.92q-.42,1.75-.82,3.5a1,1,0,0,0,0,.33,1.24,1.24,0,0,0,.18-.27c.51-1.47,1-2.94,1.52-4.42a.91.91,0,0,0,0-.62c-.51-1.05-1-2.09-1.58-3.12-.05-.1-.17-.17-.26-.25a1.06,1.06,0,0,0,0,.42c.31.92.65,1.84,1,2.76Zm-1.61-9a12.17,12.17,0,0,0,2.06,4.57.89.89,0,0,0,.18.14c0-.12.06-.25,0-.35-.43-1-.87-2-1.33-3.06a2.86,2.86,0,0,1-.21-2.17c.43-1.35.79-2.73,1.17-4.1a1.3,1.3,0,0,0,0-.33c-.07.06-.17.12-.19.19C2.74,44.76,2.16,46.5,1.62,48.11Zm8.83,64.68a2,2,0,0,1,0,.47c-.12.68.17,1,.85.94.22,0,.45.06.66,0s.24-.15.35-.23c-.43-.47.08-1.32-.67-1.67-.1,0-.17-.19-.25-.29a1.45,1.45,0,0,0,.36-.1,5.61,5.61,0,0,0,.5-.36c-.16-.1-.31-.27-.48-.3-1.56-.27-1.42-.4-1.34,1.23C10.43,112.54,10.43,112.57,10.45,112.8ZM2.13,65.72a12.72,12.72,0,0,0,2,4.81c0,.06.13.09.2.13a1,1,0,0,0,0-.37A34.5,34.5,0,0,0,3,67a2.46,2.46,0,0,1-.12-2c.4-1.3.78-2.6,1.17-3.91,0-.1,0-.2.07-.3s-.2.08-.23.15C3.28,62.64,2.67,64.28,2.13,65.72Zm2.59,62.89c-.06.15-.14.33-.21.51-.33.85-.67,1.71-1,2.57a2.2,2.2,0,0,0-.07.48,3.41,3.41,0,0,0,.29-.35c.37-.59.69-1.22,1.11-1.76a1.78,1.78,0,0,0,.27-2.1c-.61-1.31-1-2.71-1.52-4.07,0-.1-.17-.17-.25-.25a1.29,1.29,0,0,0,0,.29Q4,126,4.58,128.17C4.62,128.31,4.66,128.44,4.72,128.61Zm-.84,20.52.1,0,0,.33.15-.28c.36-.62.74-1.23,1.08-1.86.13-.24.3-.57.23-.8-.53-1.67-1.11-3.33-1.69-5a.9.9,0,0,0-.18-.23,1.63,1.63,0,0,0,0,.28c.33,1.4.68,2.81,1,4.21a2,2,0,0,1,0,.88C4.37,147.54,4.11,148.33,3.88,149.14ZM2.73,101.45c.72,1.82,1.39,3.51,2.07,5.21,0,.07.16.11.24.16,0-.11.07-.23,0-.32-.25-.65-.51-1.3-.79-1.94C3.61,103,3.1,101.49,4,99.83A18.17,18.17,0,0,0,5,97.42a1.48,1.48,0,0,0,0-.31c-.09,0-.22,0-.25.11C4.08,98.61,3.42,100,2.73,101.45Zm.67-62.6a1.38,1.38,0,0,0,0-.35c-.51-1-1-2-1.56-2.93,0-.07-.18-.1-.27-.14,0,.11-.09.24-.05.34.28.8.54,1.61.88,2.39a2.28,2.28,0,0,1,.17,1.67c-.28.93-.46,1.9-.68,2.85a1.55,1.55,0,0,0,0,.41c.1-.12.25-.22.29-.35.17-.47.3-1,.45-1.43Zm28.77,87.44.16.44c.16-.08.37-.13.46-.26s.22-.59.41-.82c.62-.81,1.28-1.59,1.93-2.37.15-.18.31-.34.47-.51a2.19,2.19,0,0,0-.76-.05,2.32,2.32,0,0,0-.69.46c-.3.23-.35,1-1,.42,0,0-.36.23-.4.39C32.51,124.73,32.35,125.5,32.17,126.28Zm-2.65-11.53.36.22a1.63,1.63,0,0,0,.13-.57c-.16-1,.51-1.61.9-2.36a2.56,2.56,0,0,0,.14-.44c-.16,0-.35-.11-.48-.06a1.08,1.08,0,0,0-.57.41c-.31.64-.58.74-.92,0-.06-.12-.16-.28-.27-.31a3.88,3.88,0,0,0-.73,0,2.82,2.82,0,0,0,.18.56c.39.69,1,1.28.92,2.19C29.17,114.49,29.4,114.63,29.52,114.75Zm-3.66,4.12c.13-.05.45-.13.44-.19a3,3,0,0,0-.2-.77c0-.09-.74-.13,0-.26.07,0,.13-.13.19-.2-.09,0-.19-.12-.28-.12-.84,0-1.68,0-2.52.05-.07,0-.18.19-.2.31-.13.56.06.76.65.71.07,0,.15.06.23.07Zm9.19-10.51a.82.82,0,0,0,0,.25c.09.28.2.55.3.82a6.32,6.32,0,0,1,.36-.7c0-.07.27-.14.32-.09s.28.35.44.49.35.25.48.21.21-.29.23-.46a8,8,0,0,0,0-1.25,1.52,1.52,0,0,0-.23-.48,1.58,1.58,0,0,0-.42.31c-.22.32-.38.52-.69.07-.1-.15-.36-.2-.55-.29a5,5,0,0,0-.24.63A2.13,2.13,0,0,0,35.05,108.37Zm11.48,3.44h0a9.26,9.26,0,0,0,0,1.17c0,.17.21.32.32.47a2.75,2.75,0,0,0,.33-.4,2.22,2.22,0,0,0,.14-.46c.1.12.18.29.32.36a4.41,4.41,0,0,0,.68.26,1.46,1.46,0,0,0-.07-.58c-.41-.66-.65-1.29-.06-2,.07-.08,0-.24,0-.37-.15,0-.34,0-.45,0s-.17.29-.29.39-.23,0-.33,0a2.83,2.83,0,0,1-.4-.31c-.1.14-.28.28-.3.43A6.86,6.86,0,0,0,46.54,111.8ZM34,109.37a15.47,15.47,0,0,0-.88-1.9c-.24-.38-.59-.23-.77.16s-.42,1-.6,1.47a.59.59,0,0,0,0,.44s.3,0,.37,0a.8.8,0,0,1,1.24,0C33.55,109.54,33.81,109.41,34,109.37Zm-5.24-.92c0,1.15.51,1.53,1.55,1.16.11,0,.25-.17.25-.26s-.14-.23-.24-.26a4.14,4.14,0,0,0-.5,0,1.2,1.2,0,0,1-.31-.15l.27-.13.6-.28-.64-.23-.27-.13a1.14,1.14,0,0,1,.32-.19c.16,0,.34,0,.5,0s.25-.18.25-.26-.15-.23-.26-.26C29.34,107.08,28.79,107.46,28.8,108.45Zm-5.1,1.42a3.94,3.94,0,0,0,.8-.33c.13-.1.18-.3.26-.45l-.5-.06a2.87,2.87,0,0,1-.87-.14c-.09,0-.08-.6,0-.64a2.89,2.89,0,0,1,.88-.12l.45,0c-.08-.15-.15-.42-.24-.43a2.65,2.65,0,0,0-1.37.09,1.21,1.21,0,0,0-.41,1.11C22.88,109.27,23.38,109.56,23.7,109.86Zm3.14-.16a1,1,0,0,0,.3,0c.21-.08.4-.18.6-.28-.19-.1-.38-.29-.57-.28-.48,0-.57-.23-.55-.62a2.92,2.92,0,0,0,0-.75c0-.12-.2-.21-.3-.32-.1.11-.28.21-.29.33,0,.36,0,.73,0,1.09C25.9,109.58,26.18,109.86,26.84,109.7Zm15.54,2.75h0a7.68,7.68,0,0,0,0-1.08c0-.16-.22-.3-.33-.45-.14.13-.4.26-.41.39,0,.78,0,1.56,0,2.34,0,.13.26.36.34.34s.4-.22.42-.37A7.56,7.56,0,0,0,42.38,112.45Zm-8,22-.13-.21a1.25,1.25,0,0,0-.31.23c-.12.17-.14.51-.33,0s-.81.81-1-.14c0,0-.12,0-.13.09a.5.5,0,0,0,0,.23c.07.24.15.48.22.72.23.76,1-.81,1.15.26.1-.08.26-.14.29-.24C34.22,135.11,34.28,134.81,34.37,134.45ZM20.55,117.92c-.14-.1.26-1.33-.64-.24,0,0-.24,0-.33-.07a3.64,3.64,0,0,1-.42-.33A2.36,2.36,0,0,0,19,118c0,.19.17.48.3.51s.58-.21.72-.11C20.6,118.76,20.59,118.46,20.55,117.92Zm1,16.9c-.23,1.18.89.48,1,.93.09-.28.33-.61.24-.81a1.23,1.23,0,0,0-.75-.54C22,134.35,21.78,134.67,21.59,134.82Zm22.21-.92.49.57a6.2,6.2,0,0,0,.81-.88c0-.06-.33-.54-.54-.57C44,132.93,43.84,133.28,43.8,133.9ZM16.2,118.31c.77.41.34-.46.59-.63a4.48,4.48,0,0,0-.7-.63s-.48.36-.45.43C15.77,117.77,15.35,118.46,16.2,118.31Zm23.31,16c.12.36.13.7.28.78s.64,0,.68-.06-.09-.61,0-.84c.3-.65-.14-.59-.46-.47S39.67,134.09,39.51,134.28Zm-7.42,1.06c-.29-.41-.48-1-.73-1-1-.11-.14.81-.51,1.11.17.1.35.31.5.29A2.59,2.59,0,0,0,32.09,135.35Zm.09-16.71.46-.26-.72-1.17-.67,1.18ZM34.9,134.7c0,.26,0,.5,0,.58a1.12,1.12,0,0,0,.59.25c.13,0,.28-.1.42-.16a.6.6,0,0,1-.29-.7c0-.06,0-.13,0-.17a3.08,3.08,0,0,1,.28-.24,1.17,1.17,0,0,0-.35-.15C35.16,134.08,34.77,134.17,34.9,134.7Zm-10,.84L24,134.43l-.64,1.21c.38,0,.76.11,1.15.13C24.61,135.78,24.7,135.67,24.88,135.54ZM5.66,119.75,5,118.68c-.15.22-.44.46-.41.64a4.48,4.48,0,0,0,.49,1.06Zm12.45,15.47-.7-1.17-.58,1.12c.32.08.64.16,1,.22C17.88,135.4,18,135.3,18.11,135.22ZM5,83.86l-.54-.79a2.43,2.43,0,0,0-.34.83,2.57,2.57,0,0,0,.31.86Zm37.33,50.28-.18-.69a1.89,1.89,0,0,1-.26.4s-.23,0-.29-.09c-.38-.4-.49-.22-.52.22,0,.59,0,.63.45.46a.27.27,0,0,1,.21.08C42.52,135.27,42.14,134.33,42.33,134.15ZM3,47.75l.42.79a2.66,2.66,0,0,0,.41-.9c0-.28-.23-.57-.36-.85Zm16.42,60.42-1.74.31c.54.13,1.08.29,1.62.37.17,0,.38-.19.57-.29Zm17.09,26.25a2.89,2.89,0,0,0,0,.34c.07.22.08.56.23.63s.47,0,.72-.06l-.31-.36.18-.14c-.27-.21.55-1-.42-.8C36.7,134.07,36.56,134.37,36.51,134.42Zm1-16.81c-.16-.23-.27-.57-.48-.66s-.47.15-.72.25c.16.22.32.43.47.66,0,0,0,.15-.06.19a1.48,1.48,0,0,1-.26.17c.09.05.18.14.28.15C37.23,118.42,37.49,118.21,37.51,117.61ZM4.78,137.17l.61,1c.11-.2.33-.42.29-.59a6.1,6.1,0,0,0-.41-1.1Zm36-29.5c-.25.06-.62.14-1,.26a.93.93,0,0,0,0,.35,4.2,4.2,0,0,0,1,0,7.4,7.4,0,0,0,1.08-.38Zm-5.38,44.86-.24.26-.3.32c.21,0,.52,0,.6-.06a1.56,1.56,0,0,0,.19-.74c0-.31-1.13-.26-.27-.86-.06,0-.15-.13-.19-.11-.22.08-.53.14-.6.3s.08.45.22.61S35.16,152.43,35.39,152.53Zm5.85-35.33c.2.35.28.64.46.77s.56,0,.59-.06a1.82,1.82,0,0,0,0-.75c0-.09-.11-.18-.11-.27,0-.43,0-.47-.28-.32A3.56,3.56,0,0,0,41.24,117.2Zm-10.32.8-.22-.58a1.67,1.67,0,0,0-.23.27c-.11.2-.19.41-.28.61-.13-.21-.25-.43-.38-.64a3.57,3.57,0,0,0-.23-.3c-.09.08-.27.19-.25.25a1.88,1.88,0,0,0,.34.89,1,1,0,0,0,.83.12C30.68,118.56,30.78,118.22,30.92,118Zm7,.31,1.12-.46-.61-1c-.21.39-.44.78-.63,1.18C37.78,118.09,37.89,118.21,37.93,118.31Zm-10,.83.32-.31a1.1,1.1,0,0,0,.39-.13.93.93,0,0,0,.28-.42c0-.06-.15-.18-.24-.28-.07.11-.12.29-.22.32a1.24,1.24,0,0,1-.47,0c.14-.2.27-.41.42-.6a.94.94,0,0,1,.24-.16c-.05-.05-.12-.16-.16-.15a2.06,2.06,0,0,0-.82.26c-.13.11-.14.46-.1.67A4.54,4.54,0,0,0,28,119.13ZM29.3,137l-.12.13c.26.15.64.5.76.43.51-.32.82-.11,1.14.25.06.06.19.06.28.08a2.81,2.81,0,0,0-.11-.35C30.89,136.73,30.14,137,29.3,137Zm7.93,14.66c-.57.45-1.46,0-1.36,1,0,.09.1.17.15.26a1.55,1.55,0,0,0,.18-.23,3.33,3.33,0,0,0,.15-.35c.06.13.12.27.19.4a1.65,1.65,0,0,0,.14.19c.07-.07.18-.13.19-.21.08-.58.2-.59.38,0l.29-.09Zm-1.22-34-.28-.6c-.07.12-.16.24-.22.37s-.2.4-.3.6c-.08-.2-.15-.4-.24-.59a2.12,2.12,0,0,0-.21-.31c-.08.1-.24.21-.22.29a2.51,2.51,0,0,0,.3.89.61.61,0,0,0,.6.06A3.3,3.3,0,0,0,36,117.72ZM27.84,5.51V5.23a2.74,2.74,0,0,0-1-.36c-.3,0-.59.3-.89.46.28.18.55.48.84.5A2.89,2.89,0,0,0,27.84,5.51Zm-25.37,24,.37.87a4.26,4.26,0,0,0,.4-1c0-.24-.19-.51-.3-.76ZM42.63,117.7a3.75,3.75,0,0,0,.89,0c.16,0,.42-.3.4-.35a8.18,8.18,0,0,0-.57-.91ZM4.26,101.89l.48.89a2.28,2.28,0,0,0,.35-.81,2.62,2.62,0,0,0-.33-.87Zm25.09,32.65-.07-.11a.67.67,0,0,1-1,0s-.1.09-.09.11c.17.4.35.79.53,1.18a.26.26,0,0,0,.2,0C29,135.37,29.18,135,29.35,134.54Zm-25-68.48a2,2,0,0,0,0-.49c-.11-.23-.23-.46-.35-.68-.12.22-.25.43-.35.66a.5.5,0,0,0,0,.33c.08.24.18.48.27.71Zm20.95,68.75c0,.34,0,.5,0,.61a.86.86,0,0,0,.38.4,1.37,1.37,0,0,0,.55,0,1.92,1.92,0,0,1-.42-.32,1.54,1.54,0,0,1-.15-.45l-.2-.56Zm8.14-16,.48-1.4c-.32-.05-.63-.11-.95-.14,0,0-.16.17-.14.22C33,117.86,33.22,118.23,33.48,118.78Zm5.26,15-.67.23.45,1.2c.09-.1.23-.19.26-.31s.07-.47.13-.69a1.15,1.15,0,0,1,.2-.3Zm-19.94.29a2.94,2.94,0,0,0-.45.24c.13.41.29.81.45,1.21a6.9,6.9,0,0,0,.53-1C19.34,134.4,19,134.21,18.79,134.07ZM40,117.17c0,.25,0,.39,0,.47a1.37,1.37,0,0,0,.44.51c.12.06.34-.08.52-.13-.11-.15-.24-.3-.34-.46s-.05-.21-.11-.31-.21-.34-.32-.5Zm-17.75.06-.59.28.64,1.14a10.09,10.09,0,0,0,.43-1.1C22.79,117.49,22.47,117.34,22.29,117.23Zm-1.16,17.48-.17-.29a2.87,2.87,0,0,1-.18.41,1.76,1.76,0,0,1-.36.46c-.1.08-.27.06-.41.09.14.1.27.25.42.28C21,135.74,21.16,135.39,21.13,134.71ZM2,39.73l-.35-.83a4.39,4.39,0,0,0-.35,1c0,.19.19.41.3.61Zm43.28,76.94-.49-.52a3.63,3.63,0,0,0-.47.82c0,.17.14.4.23.6Zm-5.62,35.27a.92.92,0,0,0-.56-1,2.18,2.18,0,0,1,.08.5,7.29,7.29,0,0,1-.15,1,1.77,1.77,0,0,1-.23.43c.2-.08.47-.11.59-.26A2,2,0,0,0,39.61,151.94ZM15.24,133.73c0,.36-.07.58-.07.8s0,.35.74.4c.08,0,.17-.12.26-.18ZM1.84,57.54l.24.73a1.92,1.92,0,0,0,.22-.65,4.18,4.18,0,0,0-.22-.88Zm12.41,59.94.21.75c.14-.07.32-.11.39-.22s0-.27,0-.41a.79.79,0,0,1,.07-.25c0-.1.08-.19.12-.29s-.26-.09-.31,0A4.36,4.36,0,0,0,14.25,117.48ZM.88,22l.24.66A3.47,3.47,0,0,0,1.27,22a3.31,3.31,0,0,0-.14-.7ZM3.79,128.1l-.33-.87a7.41,7.41,0,0,0-.11.94,1.68,1.68,0,0,0,.18.52ZM3.24,93.17l-.3-.85a2.71,2.71,0,0,0-.2.75,3.3,3.3,0,0,0,.22.8Zm23.67,41.7c0,.27,0,.37,0,.43s.18.44.34.52.42,0,.64,0a2,2,0,0,1-.49-.32c-.09-.11-.07-.31-.12-.46s-.12-.32-.18-.49Zm6.91,18.58a4.74,4.74,0,0,0,.5-.78c0-.09-.18-.27-.28-.42-.2.32-.41.64-.6,1Zm8.25-16.89c-.34-.29-.53-.59-.74-.6s-.36.33-.54.51c.26,0,.53.11.79.14A2.59,2.59,0,0,0,42.07,136.55Zm-6.82.92c-.34-.29-.62-.54-.92-.76,0,0-.19.13-.29.2.31.24.61.48.93.7C35,137.63,35.08,137.56,35.25,137.47ZM27.11,9.77l.64-.32c-.21-.11-.42-.3-.63-.31s-.42.19-.63.3Zm3.62,142.84c.15.27.29.53.44.77,0,0,.1,0,.15,0,0-.22-.09-.43-.14-.65s0-.17,0-.25-.08-.34-.12-.51ZM22,137.21c-.12-.13-.19-.22-.21-.22l-1,.59c.1.09.25.27.29.25C21.38,137.66,21.65,137.44,22,137.21ZM2.78,75.39l-.2-.74a1.5,1.5,0,0,0,0,1.48Zm31.16,76.26c-.09-.06-.19-.17-.22-.15a2,2,0,0,0-.51.37s.08.22.12.34Zm-5.6-14.22-.3.08c.14.16.25.4.42.44s.3-.22.45-.34ZM3.48,145.33l.27.65a1.37,1.37,0,0,0,.14-.49,3.37,3.37,0,0,0-.22-.67Zm15.94-8.84c-.1.19-.21.31-.19.34.17.21.36.39.55.59.05-.06.16-.16.14-.19C19.79,137,19.63,136.79,19.42,136.48Zm.84.07c-.05.11-.12.19-.1.22a4.34,4.34,0,0,0,.32.35c0-.06.15-.16.13-.18A4.05,4.05,0,0,0,20.26,136.55Zm13.25,1.38a5.12,5.12,0,0,0,.32-.47,1.36,1.36,0,0,0-.19-.14,2,2,0,0,0-.22.33C33.4,137.7,33.46,137.79,33.51,137.94Zm-5.66-.83-.07-.12-.09.07s0,.06,0,.06ZM51.27,12.23l0,0h0Z" transform="translate(-0.19 -0.3)"/><path class="cls-3" d="M51.61,152.34a15.19,15.19,0,0,1-8,5.52c-1.87.64-3.83,1-5.76,1.51,0-.13-.13-.29-.1-.4a5,5,0,0,1,2-1.41,12.64,12.64,0,0,0,1.72-.4c.18-.06.29-.3.44-.46-.22-.09-.45-.28-.65-.25-.81.12-1.61.32-2.42.48a.91.91,0,0,1-.49,0,7.38,7.38,0,0,1-.83-.49,3.47,3.47,0,0,1,.83-.44c1.23-.27,2.47-.48,3.69-.75a22.7,22.7,0,0,0,3.21-.86c1.88-.73,4-.8,5.71-2A1.67,1.67,0,0,1,51.61,152.34Z" transform="translate(-0.19 -0.3)"/><path class="cls-2" d="M54.21,57.95c.05,3.66.12,7.31.16,11,0,2.4,0,4.8,0,7.2a2.49,2.49,0,0,0-.31.64c-.15.94-.26,1.88-.38,2.82L52.86,82a8.11,8.11,0,0,1,.36-3.8,6.29,6.29,0,0,0,.49-4.61l-1-4.06a8.18,8.18,0,0,0-.11-1.71c-.15-.55.12-1.35-.74-1.58l.67-.4c.28.81.56,1.63.85,2.44.07.2.17.39.26.58,0-.21.06-.42.08-.63a.58.58,0,0,0,0-.17c-.26-1.46-.81-2.92-.17-4.42,0-.07-.06-.2-.09-.29-.11.07-.26.11-.31.2-.22.41-.41.85-.6,1.27a2.77,2.77,0,0,1-.19-.69c0-.83,0-1.67,0-2.5,1.19-1,1.25-2.4,1.36-3.78ZM53.8,69.3l0,0v0Z" transform="translate(-0.19 -0.3)"/><path class="cls-2" d="M54.18,49.19v2.54l-.56-1c-.26-1.77-.62-3.55.08-5.31a.87.87,0,0,0,0-.33c0-.22,0-.45,0-.67l-.37.57a4,4,0,0,0-.14-.87,3.14,3.14,0,0,0-.47-.65l1.15-3.53c-.17-1.35-.35-2.69-.51-4,0-.37-.58-1,.39-1a1.28,1.28,0,0,0,.1-.6c-.08-.63-.2-1.26-.31-1.89l-.08-.92.55,0c.05,2.48.13,5,.15,7.45,0,2.91,0,5.81,0,8.72-.5-.08-.56.26-.52.61S53.47,49.22,54.18,49.19Z" transform="translate(-0.19 -0.3)"/><path class="cls-2" d="M52.52,73.93l.32-2.34.68,2.09a9,9,0,0,1-.63,4.08c0,.13-.17.23-.26.35a2.17,2.17,0,0,1-.08-.39c0-.7,0-1.4,0-2.1.69,0,.52-.52.53-.89S53.17,73.88,52.52,73.93Z" transform="translate(-0.19 -0.3)"/><path class="cls-2" d="M54.42,111.46,54.35,113c-.17.19-.42.36-.5.59a5.38,5.38,0,0,0-.18,1.05l0,.17-.62-.46,1-4.23-.25-2-.31-1.85a4.43,4.43,0,0,1,.64,1.32c.11.93,0,1.88.05,2.83a3.35,3.35,0,0,0,.21.76Z" transform="translate(-0.19 -0.3)"/><path class="cls-2" d="M52.83,87.57c0-.49,0-1,.05-1.47s.08-.82.13-1.23l.33,1,.8,2.52q0,1.14,0,2.29l-.59-.64Z" transform="translate(-0.19 -0.3)"/><path class="cls-2" d="M52.86,144.22l.3-2.64.37.57a6,6,0,0,1,.27,3.91,5.43,5.43,0,0,1-.28.76c-.14-.2-.29-.39-.41-.6a1.07,1.07,0,0,1-.07-.32c.17-.25.49-.5.49-.76S53.9,143.91,52.86,144.22Z" transform="translate(-0.19 -0.3)"/><path class="cls-3" d="M53.35,45l.37-.57c0,.22,0,.45,0,.67a.87.87,0,0,1,0,.33c-.7,1.76-.34,3.54-.08,5.31-1-1.72-1.49-3.48-.41-5.36A2.2,2.2,0,0,0,53.35,45Z" transform="translate(-0.19 -0.3)"/><path class="cls-3" d="M53.34,85.91l-.33-1A3.42,3.42,0,0,1,52.86,82l.81-2.42.23.27c-.39,1.94-1,3.87-.2,5.85Z" transform="translate(-0.19 -0.3)"/><path class="cls-2" d="M52.71,91.55q0-1.28,0-2.57l.43,1.23.39,3.31v.34h0L53,95.1l-.14-1.68A1.73,1.73,0,0,0,52.71,91.55Z" transform="translate(-0.19 -0.3)"/><path class="cls-3" d="M53.47,31.49l.09.92c-.13-.13-.31-.23-.36-.38a7.4,7.4,0,0,0-.37-1.18c-.9-1.5,0-2.7.6-3.94.27-.51.24,0,.32.11l-.33,1.29a3,3,0,0,0-.11,2.43l0,.22Z" transform="translate(-0.19 -0.3)"/><path class="cls-3" d="M53.71,115.4c0,.08.08.17.06.24-.62,1.89,0,3.68.39,5.5.09.44.06.44-.29.56a12.36,12.36,0,0,0-.67-2.29,2.62,2.62,0,0,1-.15-2.31C53.28,116.53,53.49,116,53.71,115.4Z" transform="translate(-0.19 -0.3)"/><path class="cls-2" d="M54.2,52.05v1q-.08,1.44-.16,2.87c0,.19,0,.37,0,.56a3.91,3.91,0,0,0-.16-.52,4.19,4.19,0,0,0-.29-.47l-.62-3.26c.29,0,.83-.48.75.35,0,.08.08.17.12.26a3,3,0,0,1,.11-.29C54,52.4,54.1,52.23,54.2,52.05Z" transform="translate(-0.19 -0.3)"/><path class="cls-3" d="M54.15,90.72q0-1.14,0-2.29l0-1.09L54,86.7h0l.11-1.36.2,0,0,9.08,0,5.55-.21-.52V97.76q0-.53,0-1.06l0-1.78,0-.6Q54.15,92.52,54.15,90.72Z" transform="translate(-0.19 -0.3)"/><path class="cls-3" d="M52.52,64.84c.2-.42.39-.86.6-1.27.05-.1.2-.14.31-.2,0,.1.12.22.09.29-.64,1.5-.09,3,.17,4.42a.58.58,0,0,1,0,.17c0,.21-.06.42-.08.63-.09-.19-.19-.38-.26-.58-.29-.81-.57-1.63-.85-2.44Z" transform="translate(-0.19 -0.3)"/><path class="cls-2" d="M54.15,94.32l0,.6c-.15.55-.31,1.09-.46,1.64s-.32,1.28-.48,1.92h0l-.12-1.86.6-2.28Z" transform="translate(-0.19 -0.3)"/><path class="cls-3" d="M53,122.22l1.23,4.11c-.16-.13-.41-.23-.46-.4q-.5-1.53-.92-3.09C52.79,122.65,52.93,122.43,53,122.22Z" transform="translate(-0.19 -0.3)"/><path class="cls-2" d="M54.16,99.19v.29c-.1.62-.18,1.24-.32,1.85a4.5,4.5,0,0,1-.39.85,5.85,5.85,0,0,1,.09-3.1l.33-.59h0Z" transform="translate(-0.19 -0.3)"/><path class="cls-3" d="M53.89,133.59c-.13,1.16-.58,2.32,0,3.48,0,.09-.09.28-.14.42a2.18,2.18,0,0,1-.31-.29,4.93,4.93,0,0,1-.29-.5,3.64,3.64,0,0,1,.21-2.72C53.43,133.81,53.71,133.72,53.89,133.59Z" transform="translate(-0.19 -0.3)"/><path class="cls-3" d="M53.88,39.92l-1.15,3.53c-.12-.12-.37-.29-.34-.35.37-1,.78-2.05,1.19-3.07C53.61,40,53.78,40,53.88,39.92Z" transform="translate(-0.19 -0.3)"/><path class="cls-2" d="M53.18,111.94,53,110.76c.19-.66.49-1.33-.15-1.93.45-.41.75-.43.78.29,0,.3,0,.59,0,.89Z" transform="translate(-0.19 -0.3)"/><path class="cls-3" d="M53.52,73.68l-.68-2.09c-.15-.54-.31-1.09-.42-1.64,0-.11.18-.27.28-.41l1,4.06Z" transform="translate(-0.19 -0.3)"/><path class="cls-3" d="M53.18,111.94l.51-1.92.35.08-1,4.23-.34.2a1.37,1.37,0,0,1,0-.35C52.84,113.42,53,112.68,53.18,111.94Z" transform="translate(-0.19 -0.3)"/><path class="cls-3" d="M53.54,99.08a5.85,5.85,0,0,0-.09,3.1c-.44,0-.44,0-.74-.77A2.22,2.22,0,0,1,53.54,99.08Z" transform="translate(-0.19 -0.3)"/><path class="cls-3" d="M52.92,52.25l.62,3.26c-.38-1.26-.75-2.52-1.12-3.78,0-.06.05-.14.08-.21s.16.06.19.11S52.85,52,52.92,52.25Z" transform="translate(-0.19 -0.3)"/><path class="cls-3" d="M53.71,57.86c-.11,1.38-.16,2.79-1.36,3.78.35-1.18.69-2.35,1.06-3.52C53.44,58,53.61,57.95,53.71,57.86Z" transform="translate(-0.19 -0.3)"/><path class="cls-3" d="M53.48,106.22l.31,1.85c-.15-.12-.4-.21-.45-.36-.27-.81-.49-1.64-.72-2.46a.82.82,0,0,1,0-.29c.08.06.18.11.23.19C53.09,105.51,53.29,105.87,53.48,106.22Z" transform="translate(-0.19 -0.3)"/><path class="cls-3" d="M53.68,94.35l-.6,2.28c-.08.11-.15.22-.24.32a1.92,1.92,0,0,1-.23.2c0-.1-.09-.21-.07-.29.14-.59.3-1.17.45-1.76l.52-1.24Z" transform="translate(-0.19 -0.3)"/><path class="cls-2" d="M54,22.77,54,26c-.1-.06-.28-.12-.27-.17C53.85,24.81,53.32,23.75,54,22.77Z" transform="translate(-0.19 -0.3)"/><path class="cls-3" d="M53.13,90.21,52.7,89c-.08-.41-.16-.81-.21-1.23,0,0,.22-.12.34-.18l.73,2.5Z" transform="translate(-0.19 -0.3)"/><path class="cls-3" d="M53.15,56.85l-.45.69a2.69,2.69,0,0,1-.31-.84,2.54,2.54,0,0,1,.29-.83Z" transform="translate(-0.19 -0.3)"/><path class="cls-3" d="M52.87,108.83c.64.6.34,1.27.15,1.93C52.39,110.27,52.35,109.77,52.87,108.83Z" transform="translate(-0.19 -0.3)"/><path class="cls-3" d="M53.45,127.26l-.43.88c-.1-.22-.31-.46-.29-.67a3.93,3.93,0,0,1,.35-1Z" transform="translate(-0.19 -0.3)"/><path class="cls-7" d="M52.86,144.22c1-.31.68.53.67.92s-.32.51-.49.76a.16.16,0,0,0,0-.15l-.15-.14Z" transform="translate(-0.19 -0.3)"/><path class="cls-3" d="M52.94,38.69l-.24.81a3.24,3.24,0,0,1-.49-.93c0-.21.24-.47.38-.7Z" transform="translate(-0.19 -0.3)"/><path class="cls-3" d="M52.71,91.55a1.73,1.73,0,0,1,.13,1.87C52,92.85,52.33,92.2,52.71,91.55Z" transform="translate(-0.19 -0.3)"/><path class="cls-3" d="M52.92,20.7l-.23.6c-.12-.18-.31-.35-.34-.55a3.88,3.88,0,0,1,0-1,.57.57,0,0,1,.25,0C52.74,20.07,52.83,20.38,52.92,20.7Z" transform="translate(-0.19 -0.3)"/><path class="cls-3" d="M52.52,73.93c.65,0,.53.44.53.8s.17.91-.53.89Z" transform="translate(-0.19 -0.3)"/><path class="cls-3" d="M53.52,142.15l-.37-.57-.32-1.38c.91.23.83,1,1,1.69Z" transform="translate(-0.19 -0.3)"/><path class="cls-3" d="M53.71,147.53l-.34,2.27c-.09,0-.27-.12-.27-.14C53.3,148.95,53.5,148.24,53.71,147.53Z" transform="translate(-0.19 -0.3)"/><path class="cls-2" d="M7.43,154.9l-.56-.68a.94.94,0,0,1,.24,0l.84.14Z" transform="translate(-0.19 -0.3)"/><path class="cls-2" d="M53.41,28.3,53.74,27,54,27l0,1.52Z" transform="translate(-0.19 -0.3)"/><path class="cls-2" d="M54.15,96.7q0,.53,0,1.06Q54.16,97.23,54.15,96.7Z" transform="translate(-0.19 -0.3)"/><path class="cls-3" d="M53.66,114.79l0-.17.36-.05-.34.84Z" transform="translate(-0.19 -0.3)"/><path class="cls-2" d="M54.16,98.18v.28l-.29,0h0Z" transform="translate(-0.19 -0.3)"/><path class="cls-2" d="M53.19,98.49l0,.14,0-.14Z" transform="translate(-0.19 -0.3)"/><path class="cls-2" d="M52.86,145.61l.15.14Z" transform="translate(-0.19 -0.3)"/><path class="cls-1" d="M52.51,10.16l-.33-.24c-.3.46-.61.91-.89,1.38a4.21,4.21,0,0,0-.26.61,3.61,3.61,0,0,1-.54-.85c-.1-.32.07-.73-.06-1a4.59,4.59,0,0,0-.76-1,2.63,2.63,0,0,0-1-2,6.88,6.88,0,0,0-2.08-.75,13.75,13.75,0,0,0-3-.56c-.17,0-.37.13-.56.2-2.2-.42-4.38-.92-6.59-1.23a46.4,46.4,0,0,0-6.68-.6c-3.65,0-7.3.2-10.94.49a46.5,46.5,0,0,0-5.59,1.07c-.71.15-1.4.37-2.1.53-.12,0-.28-.08-.42-.12.1-.08.18-.21.3-.24l5.3-1.48a3.7,3.7,0,0,0,.55-.26,2.11,2.11,0,0,0-.57,0c-2.28.55-4.59,1-6.81,1.72A35.07,35.07,0,0,0,5,8c-.15.08-.24.28-.36.43l-.41.41c-.28.22-.66.38-.81.67a3.61,3.61,0,0,1-1,1.5l.32-1.85c.91-1,1.84-1.92,2.73-2.91.12-.14.09-.42.13-.63a33.56,33.56,0,0,1,14.65-4.2c.3,0,.6.1.9.12l4.49.38c2.08.16,4.16.4,6.24.44a2.67,2.67,0,0,0,2.64-1.24c.66.06,1.33.11,2,.2a3.63,3.63,0,0,1,.66.21,6.18,6.18,0,0,0-.65.08A4,4,0,0,0,36,1.8l-1.77.63-.67.21c.21.14.4.38.63.41.77.1,1.57.08,2.34.21,2.83.46,5.68.85,8.47,1.49A30.07,30.07,0,0,1,49.45,6.5c.42.17.84.32.89-.38A4.56,4.56,0,0,1,52.51,10.16ZM18.83,4c-.16-.11-.22-.18-.27-.17a2.07,2.07,0,0,0-.36.09c.05,0,.1.13.15.14A3,3,0,0,0,18.83,4Z" transform="translate(-0.19 -0.3)"/><path class="cls-3" d="M50.34,6.12c0,.7-.46.55-.89.38A30.07,30.07,0,0,0,45,4.75c-2.79-.64-5.64-1-8.47-1.49-.77-.12-1.56-.1-2.34-.21-.22,0-.42-.27-.63-.41l.67-.21L36,1.8a4,4,0,0,1,.45-.19,6.18,6.18,0,0,1,.65-.08,3.63,3.63,0,0,0-.66-.21c-.66-.08-1.32-.13-2-.2l-4-.34-1-.08V.3c2.23.26,4.46.55,6.7.76a32.27,32.27,0,0,1,9.43,2.42A45.78,45.78,0,0,1,50.34,6.12Z" transform="translate(-0.19 -0.3)"/><path class="cls-3" d="M2.38,115.31,2,115.4c-.05-.78-.14-1.56-.15-2.34Q1.38,85.51.9,58c0-.17,0-.34,0-.5l.3,0q.48,21.1,1,42.19c.05,2.27.09,4.53.13,6.8l.06,7.36s0,0,0,.06a.77.77,0,0,0,0,.12v.66s0,0,0,.05a.72.72,0,0,0,0,.12Z" transform="translate(-0.19 -0.3)"/><path class="cls-8" d="M29.49.7l1,.08.57.49c-.26.07-.51.15-.77.21a1.74,1.74,0,0,1-.42,0c-2-.08-4-.2-6-.24-1.19,0-2.39.1-3.58.16A33.56,33.56,0,0,0,5.57,5.61L5,5.92l-.63.31.19-.62h0l.5-.34h0l.67-.34h0l4.37-2.06c1.8-.48,3.59-1,5.41-1.42a30.25,30.25,0,0,1,3.19-.36C19.16,1,19.6,1,20,.91l2,0L24.35.74h.14Z" transform="translate(-0.19 -0.3)"/><path class="cls-2" d="M2.39,11a3.61,3.61,0,0,0,1-1.5c.15-.28.53-.45.81-.67l.06.91c-.1.34-.22.68-.28,1,0,.14,0,.42.11.43.7.14.2.52.1.71s-.31.78-.62.1a1.8,1.8,0,0,0-.36.15c-.8.5-.73,1.29-.69,2.07l-.1,0-.67.1h0l0-.26Zm1.38.55-.07,0v.11s.05,0,.07,0S3.76,11.58,3.77,11.55Z" transform="translate(-0.19 -0.3)"/><path class="cls-1" d="M.56,17.24c0,1.1-.05,2.21,0,3.31C.61,25,.71,29.37.8,33.79a2,2,0,0,1-.08.41l-.2,0c0-.92-.11-1.84-.13-2.76-.08-4.3-.16-8.6-.2-12.91A5,5,0,0,1,.56,17.24Z" transform="translate(-0.19 -0.3)"/><path class="cls-2" d="M4.57,5.61l-.19.62L5,5.92l.57-.31c0,.21,0,.49-.13.63-.89,1-1.82,1.94-2.73,2.91-.16-.36.33-1-.44-1.1.07-.18.09-.41.21-.53C3.16,6.87,3.87,6.24,4.57,5.61Z" transform="translate(-0.19 -0.3)"/><path class="cls-1" d="M54.35,85.37l-.2,0a9.76,9.76,0,0,1-.29-2.51,15.7,15.7,0,0,0,0-3l-.23-.27c.12-.94.23-1.89.38-2.82a2.49,2.49,0,0,1,.31-.64Z" transform="translate(-0.19 -0.3)"/><path class="cls-1" d="M29.49.7l-5,0c.06-.11.12-.33.18-.33C26.28.36,27.89.33,29.49.3Z" transform="translate(-0.19 -0.3)"/><path class="cls-1" d="M53.41,28.3l.6.21V30l-.72.73A3,3,0,0,1,53.41,28.3Z" transform="translate(-0.19 -0.3)"/><path class="cls-8" d="M1.73,14.35l.67-.1.08,1.31c-.73,0-.81.62-1.08,1.07s-.22.38-.54.13c.17-.57.33-1.15.52-1.71A5.63,5.63,0,0,1,1.73,14.35Z" transform="translate(-0.19 -0.3)"/><path class="cls-2" d="M10.11,2.87,5.74,4.94a2.47,2.47,0,0,1,.57-.51C7.57,3.89,8.84,3.39,10.11,2.87Z" transform="translate(-0.19 -0.3)"/><path class="cls-3" d="M.86,41.3,1,47.48l-.27,0L.64,41.32Z" transform="translate(-0.19 -0.3)"/><path class="cls-3" d="M1.07,50.7l.11,4.53-.31,0L.81,50.72Z" transform="translate(-0.19 -0.3)"/><path class="cls-3" d="M53.52,15.88l-1.33-2.53Z" transform="translate(-0.19 -0.3)"/><path class="cls-1" d="M.79,37.7l.06,2.76H.6l0-2.72Z" transform="translate(-0.19 -0.3)"/><path class="cls-1" d="M2.1,122.58a3.65,3.65,0,0,1,0,3Z" transform="translate(-0.19 -0.3)"/><path class="cls-3" d="M.79,37.7l-.23,0,0-3.52.2,0Z" transform="translate(-0.19 -0.3)"/><path class="cls-1" d="M54.18,49.19c-.71,0-.49-.52-.53-.88s0-.69.52-.61Z" transform="translate(-0.19 -0.3)"/><path class="cls-1" d="M.88,55.25l.31,0,0,2.2-.3,0Z" transform="translate(-0.19 -0.3)"/><path class="cls-2" d="M22.09.87l-2,0,2-.32Z" transform="translate(-0.19 -0.3)"/><path class="cls-1" d="M22.09.87l0-.28c.67-.06,1.33-.13,2-.16.09,0,.19.2.28.31Z" transform="translate(-0.19 -0.3)"/><path class="cls-1" d="M4.86,151.89a1.44,1.44,0,0,1,0-.49c.06-.14.22-.24.34-.36a1.22,1.22,0,0,1,.19.4c0,.33,0,.66,0,1Z" transform="translate(-0.19 -0.3)"/><path class="cls-3" d="M1,48.7l0,1.67-.26,0,0-1.64Z" transform="translate(-0.19 -0.3)"/><path class="cls-2" d="M53.3,30.73,54,30l0,1L53.35,31Z" transform="translate(-0.19 -0.3)"/><path class="cls-1" d="M1,48.7H.75l0-1.2.27,0Z" transform="translate(-0.19 -0.3)"/><path class="cls-1" d="M53.35,31,54,31l0,.5-.55,0Z" transform="translate(-0.19 -0.3)"/><path class="cls-1" d="M.8,50.35l.26,0v.33H.81Z" transform="translate(-0.19 -0.3)"/><path class="cls-2" d="M5.74,4.93l-.67.34Z" transform="translate(-0.19 -0.3)"/><path class="cls-3" d="M.6,40.46H.85v.47H.61Z" transform="translate(-0.19 -0.3)"/><path class="cls-2" d="M5.07,5.27l-.5.34Z" transform="translate(-0.19 -0.3)"/><path class="cls-1" d="M.61,40.93H.85v.36l-.22,0Z" transform="translate(-0.19 -0.3)"/><path class="cls-8" d="M1.77,14.1l0,.26Z" transform="translate(-0.19 -0.3)"/><path class="cls-3" d="M52.2,13.37a.66.66,0,0,1-.07-.11s0,0,0-.06Z" transform="translate(-0.19 -0.3)"/><path class="cls-1" d="M54,114.56l-.36.05a5.37,5.37,0,0,1,.18-1.05c.08-.23.33-.39.5-.59v1Z" transform="translate(-0.19 -0.3)"/><path class="cls-1" d="M54.32,117.55l-.24.69a2.41,2.41,0,0,1-.24-.68,1.93,1.93,0,0,1,.2-.63Z" transform="translate(-0.19 -0.3)"/><path class="cls-7" d="M30.67,56c-3.3.06-6.61.12-9.91.2-.43,0-.59-.08-.59-.55A21.44,21.44,0,0,0,20,53.39c-.06-.62.15-.83.79-.83,2.26,0,4.51,0,6.77,0l7.28-.11a6.71,6.71,0,0,1,1.09.06c.57.09,1.45,0,1.63.36A3,3,0,0,1,36.88,56l-9.08,6.32a3.93,3.93,0,0,0-.36.32,2.69,2.69,0,0,0,.52.1c3.05,0,6.11,0,9.16,0,.58,0,.81.16.76.76a8.2,8.2,0,0,0,0,1.85c.13.86-.26,1-1,.94-2.72,0-5.43,0-8.15,0-2.5,0-5,0-7.51.1-.5,0-.67-.12-.79-.67-.48-2.19.89-3.21,2.42-4.22,2.61-1.73,5.2-3.51,7.8-5.27l.21-.16Z" transform="translate(-0.19 -0.3)"/><path class="cls-7" d="M37.36,34.2c.06,1.88.06,1.88-1.73,2.38-2.12.59-2.2.64-1,2.42a1.94,1.94,0,0,1-.05,2.61,11.53,11.53,0,0,0-.89,1.61l1.6.66c.63.26,1.28.49,1.89.79a.79.79,0,0,1,.36.57c.06.87,0,1.74.08,2.6,0,.57-.19.55-.66.39q-7.81-2.77-15.65-5.49c-1.53-.53-1.45-.51-1.61-2.12a1.94,1.94,0,0,1,1.46-2.41c2.73-1,5.38-2.21,8.1-3.24,2.49-.94,5-1.74,7.55-2.64.48-.17.53,0,.55.37C37.38,33.19,37.36,33.69,37.36,34.2Zm-6.95,4.15-.25.08-4.62,1.76a1.2,1.2,0,0,0-.26.19,1.34,1.34,0,0,0,.32.22l3.29,1c1.74.52,1.75.53,2.58-1.06a.88.88,0,0,0,.05-.67,8.17,8.17,0,0,0-.74-1.21A1.56,1.56,0,0,0,30.42,38.34Z" transform="translate(-0.19 -0.3)"/><path class="cls-7" d="M26.69,80.5c1.76,0,3.53,0,5.29,0,2.22-.06,3.28-1.31,3-3.49a2.08,2.08,0,0,0-1.85-2.08,33.48,33.48,0,0,0-4.34-.21c-2.46,0-4.93,0-7.39.08-.56,0-.81-.13-.78-.74a17.29,17.29,0,0,0,0-2.18c0-.56.16-.74.7-.74,1.93,0,3.86-.07,5.8-.08s4,0,6,0a5.24,5.24,0,0,1,5,5.52,30.15,30.15,0,0,1-.19,3.51,4.56,4.56,0,0,1-4.21,3.83,36.47,36.47,0,0,1-4.44.25q-4,.11-8,.13c-.16,0-.44-.29-.45-.46-.05-.84,0-1.68,0-2.52,0-.51.11-.67.65-.66,1.76,0,3.53,0,5.29,0Z" transform="translate(-0.19 -0.3)"/><path class="cls-7" d="M29.3,99.54c-2.49,0-5,0-7.48,0-.8,0-1-.25-1-1,0-1.43,0-2.86,0-4.28a5.43,5.43,0,0,1,1.9-4.56,5.15,5.15,0,0,1,6.29.49c.46.41.91,1.08,1.41,1.13s1.15-.48,1.73-.77c1.76-.89,3.52-1.76,5.26-2.68.57-.3.61-.07.59.39s0,.78,0,1.17c0,2,0,2-1.73,2.79-1.3.63-2.57,1.34-3.87,2-.39.19-.35.32-.18.68a1.71,1.71,0,0,0,2,1.13c1-.14,2.07-.07,3.1-.14.53,0,.68.16.66.67a10.18,10.18,0,0,0,0,1.76c.09.75-.13,1-.93,1-2.58,0-5.15,0-7.73,0Zm-2.75-3.38v0c.76,0,1.51,0,2.26,0,.11,0,.32-.27.31-.3a35.64,35.64,0,0,0-2.26-3.38,1.74,1.74,0,0,0-2-.48,1.67,1.67,0,0,0-1,1.62c0,.64,0,1.28-.08,1.93s.13.71.66.67C25.14,96.12,25.85,96.15,26.54,96.15Z" transform="translate(-0.19 -0.3)"/><path class="cls-3" d="M30.76,141.54a4.22,4.22,0,0,1,4.6,4.15,4.83,4.83,0,0,1-4.85,4.84,4.52,4.52,0,0,1-4.58-4.48A4.66,4.66,0,0,1,30.76,141.54Zm-3.64,6.57L27,148l.06.17.19.31.67.68.18.16a4.12,4.12,0,0,0,4.79.05.82.82,0,0,0,.22-.11,2.42,2.42,0,0,0,.23-.29,3.1,3.1,0,0,0-.34.15,1,1,0,0,0-.17.17,4.36,4.36,0,0,1-4.63-.11l-.18-.12-.68-.65Zm3.76-6.2a4.24,4.24,0,0,0-4.37,5.19,2.92,2.92,0,0,0,.36.63c0-.21-.07-.42-.13-.62-.29-.95-.22-1,.75-1.07,2.07-.07,4.14-.12,6.21-.24,1.1-.06,1.11-.1.86,1a2.21,2.21,0,0,0,0,.42,2.12,2.12,0,0,0,.22-.42A3.92,3.92,0,0,0,30.89,141.92ZM30,147.83c.32-.09.61-.16.9-.25a2.08,2.08,0,0,0,.36-.2l-.4-.69a2,2,0,0,1-.24.34,1.8,1.8,0,0,1-.33.21,1.4,1.4,0,0,0-.1-.38c-.07-.11-.23-.28-.28-.26a4,4,0,0,1-1.9,0,.57.57,0,0,0-.41.38,2.45,2.45,0,0,0,.18.76l.54-.21c.08,0,.18-.13.25-.11C29.1,147.56,29.58,147.7,30,147.83Zm2.21-.54c0-.59,0-.61-.43-.58-.11,0-.23.2-.29.33-.27.61.51.25.54.58Zm1-1c-.12.26-.29.45-.28.63a2.3,2.3,0,0,0,.27.68l.36-.16c-.08-.05-.21-.09-.22-.16a2.44,2.44,0,0,1,0-.61s.14-.07.22-.11Z" transform="translate(-0.19 -0.3)"/><path class="cls-3" d="M27.79,21.11c-.56-.45-1.14-.88-1.69-1.35-.35-.3-.54-.22-.64.18s-.24,1-.38,1.54a1.65,1.65,0,0,1-.26.4c-.07-.14-.22-.31-.19-.42.28-1,.33-2,1.27-2.77a14,14,0,0,0,1.72-2c.52-.61,1-.55,1.56,0l2.23,2.48a.82.82,0,0,1,.15.3,22.13,22.13,0,0,1,1.11,3.69,7,7,0,0,1-2.53,6.28c-1,.89-2.12.79-3.26-.27a8.21,8.21,0,0,1-2.53-4.7,4.11,4.11,0,0,1-.06-1.25,3.71,3.71,0,0,1,.39-.93c.16.18.3.38.48.54.45.43.91.84,1.35,1.26a1,1,0,0,1,.14.29c-.12,0-.27,0-.35-.07-.37-.3-.71-.63-1.08-.94a1.56,1.56,0,0,0-.36-.17,1.29,1.29,0,0,0-.11.37,6.61,6.61,0,0,0,3,5.7,2.46,2.46,0,0,0,.61.21,3.13,3.13,0,0,0,.1-.61,9.31,9.31,0,0,0-.16-2.25c-.15-.53-.68-.94-1-1.41-.13-.18-.25-.37-.38-.55a5.76,5.76,0,0,1,.55.29c.27.18.52.38.78.57,0-.32.06-.65,0-1,0-.73,0-1.46-.1-2.18a7.18,7.18,0,0,0-.37-1.24c.12-.12.33-.25.34-.37,0-1.14,0-2.28,0-3.42a1.09,1.09,0,0,0-.09-.3c-.12.05-.27.07-.34.16-.44.5-.84,1-1.31,1.51s-.3.66.08,1A18.84,18.84,0,0,1,27.79,21.11Zm2.52-1.18c.07-.33.32-.78.19-1A16.42,16.42,0,0,0,29,17.15a.94.94,0,0,0-.27-.15,1.16,1.16,0,0,0-.12.36c0,1,.06,2,.09,3,0,.42.21.59.61.55a5.61,5.61,0,0,0-.52,1.41,21.47,21.47,0,0,0,0,2.59,2.29,2.29,0,0,0,.14.52,2.34,2.34,0,0,0,.41-.26q1.21-1.16,2.39-2.33a.58.58,0,0,0,.19-.42q-.32-1.34-.71-2.66c0-.08-.3-.15-.45-.12A1.82,1.82,0,0,0,30.31,19.93Zm-1.46,7.6c0,.52,0,.88,0,1.25,0,.81.14.88.85.47,1.48-.85,2.86-4,2.56-5.73-.07-.38-.19-.42-.46-.17-.61.57-1.19,1.19-1.85,1.7A2.24,2.24,0,0,0,28.85,27.53Z" transform="translate(-0.19 -0.3)"/><path class="cls-8" d="M2.51,14.23c0-.78-.11-1.57.69-2.07A1.8,1.8,0,0,1,3.55,12c.31.69.54.07.62-.1s.6-.57-.1-.71c-.07,0-.14-.29-.11-.43.07-.35.19-.69.29-1l.44-.49c.4-.1.69-.12.9.4.35.86.54.79,1.24.14A5.15,5.15,0,0,1,8.74,8.57a3.8,3.8,0,0,1,2.07.11,1.6,1.6,0,0,1,.8,1.05c.06.23-.32.73-.61.86-1.67.75-3.38,1.41-5.07,2.13a10.7,10.7,0,0,0-1.29.72l-2,1.21Z" transform="translate(-0.19 -0.3)"/><path class="cls-7" d="M23.26,122.86c-.83.39-1.62.77-2.41,1.15-.22.11-.42.28-.64.39a1,1,0,0,1-.37,0,1.15,1.15,0,0,1,.07-.31c.66-1.2,3.64-2.32,5-1.87a.86.86,0,0,1,.31,1.54c-.87.75-1.43,1.25-.12,2.13.51.34.23,1.36-.39,1.94a4.06,4.06,0,0,1-2.68,1c-.45,0-.87,0-1.08.57-.06.16-.39.21-.6.31a2.13,2.13,0,0,0-.07-.52c-.12-.31-.47-.69-.39-.9s.71-.36.82-.64c.33-.83.53-1.71.78-2.57a1.88,1.88,0,0,1,.2-.64,5.9,5.9,0,0,1,.75-.68,7.49,7.49,0,0,1-.1.8c-.25,1.05-.53,2.1-.74,3.15,0,.14.24.49.36.49a3.11,3.11,0,0,0,1.38-.24,1.66,1.66,0,0,0,.83-1c0-.32-.36-.81-.69-1-1.24-.79-1.26-.81.09-1.6,0,0,.12,0,.15-.08l.67-.88Z" transform="translate(-0.19 -0.3)"/><path class="cls-7" d="M29.45,126.05c-.58.52-1.13,1.08-1.75,1.54a1.38,1.38,0,0,1-1.79.08c-.58-.47-.4-1.11-.18-1.7a3.12,3.12,0,0,1,2-1.89,1,1,0,0,1,.88.21.81.81,0,0,1,0,.81c-.48.49-1.05.87-1.58,1.32a4.71,4.71,0,0,0-.46.51c.27.11.63.38.8.29a4.11,4.11,0,0,0,1.3-1,26.54,26.54,0,0,0,1.53-2.3c.4-.62.52-.64,1-.13,0,0,.24,0,.33-.11.5-.39,1-.82,1.51-1.17.14-.09.44.06.67.1-.12.17-.21.4-.37.48a6.75,6.75,0,0,0-2.9,3.33,1.3,1.3,0,0,1-.19.37c-.23.24-.49.45-.74.68,0-.3,0-.61,0-.91a1.74,1.74,0,0,1,.12-.4c0-.07,0-.13,0-.2Zm-2.63.16c.41-.48.7-.82,1-1.17,0,0-.1-.16-.15-.24-.32.32-.65.65-1,1C26.66,125.82,26.73,125.93,26.82,126.22Z" transform="translate(-0.19 -0.3)"/><path class="cls-7" d="M35.84,124.63c0-.81,0-1.62,0-2.42a1.5,1.5,0,0,1,.52-.79c.13-.13.4-.11.6-.16a2,2,0,0,1,.08.6c-.17,1-.38,2-.54,3a2.4,2.4,0,0,0,.1.7c.19-.18.45-.32.55-.54.44-.9.83-1.83,1.24-2.75.09-.2.12-.46.26-.61a5.23,5.23,0,0,1,.79-.56,2.93,2.93,0,0,1,.1.83c-.3,1.71-.63,3.41-.95,5.11,0,.14,0,.31-.08.41-.23.29-.5.55-.76.82a3.32,3.32,0,0,1-.11-1c.21-1.15.49-2.3.73-3.45a1,1,0,0,0,0-.3,2.61,2.61,0,0,0-.18.25,10.83,10.83,0,0,1-.92,1.68,3.65,3.65,0,0,1-1.12.66c-.16-.39-.32-.77-.47-1.16a.88.88,0,0,1,0-.33Z" transform="translate(-0.19 -0.3)"/><path class="cls-3" d="M27.18,114c.38,1.23-.79.62-1.24.78a1.61,1.61,0,0,1-1.82-1,1.48,1.48,0,0,1,.41-1.76,1.69,1.69,0,0,1,2-.15,1.68,1.68,0,0,1,.31.42,3.17,3.17,0,0,1-.62.29c-.1,0-.27-.18-.37-.16a1.68,1.68,0,0,0-.86.36.87.87,0,0,0,0,.83,1.59,1.59,0,0,0,.82.44c.1,0,.27-.14.41-.22a1.8,1.8,0,0,1-.35-.21c-.11-.1-.25-.25-.24-.36s.2-.24.33-.27C26.92,112.71,27.17,112.91,27.18,114Z" transform="translate(-0.19 -0.3)"/><path class="cls-3" d="M20.26,113.14c0-.06,0-.11,0-.17,0-1.46,0-1.46,1.46-1.35,1.12.08,1.55.89,1,1.88a1.23,1.23,0,0,0-.08.64,2.61,2.61,0,0,0,.16.56,3.8,3.8,0,0,1-.79-.12c-.13,0-.2-.26-.31-.38s-.46-.49-.6.1c0,.16-.3.27-.46.4-.12-.15-.32-.29-.34-.46a7.5,7.5,0,0,1,0-1.09Zm2.19-.28c-.42-.28-.62-.49-.83-.52s-.36.18-.54.29c.14.18.26.46.44.5S22,113,22.44,112.86Z" transform="translate(-0.19 -0.3)"/><path class="cls-3" d="M16.88,113c0-1.76-.39-1.45,1.74-1.42a.58.58,0,0,1,.45.23c.06.14-.06.35-.1.53a3.8,3.8,0,0,1-.15.56,2.38,2.38,0,0,1-.32.58c-.08.1-.24.12-.36.18a3.17,3.17,0,0,0,.41.22c.13,0,.31,0,.4.09a.55.55,0,0,1,.21.4.42.42,0,0,1-.3.28,10.35,10.35,0,0,1-1.59,0c-.14,0-.33-.27-.36-.44A8.61,8.61,0,0,1,16.88,113Zm1.14-.71-.19.22a1.21,1.21,0,0,0,.34.18c.05,0,.13-.12.2-.19Z" transform="translate(-0.19 -0.3)"/><path class="cls-3" d="M34,112.88c0-1.49.21-1.72,1.68-1.51a1.57,1.57,0,0,1,0,3.1C34,114.66,34,114.66,34,112.88Zm2.21.25v-.41a3.22,3.22,0,0,0-.9-.53c-.54-.11-.47.35-.42.66s-.27.92.42.83C35.62,113.64,35.9,113.32,36.2,113.13Z" transform="translate(-0.19 -0.3)"/><path class="cls-7" d="M5.29,114.52a2.22,2.22,0,0,1,0,.58c-.37.88-.7,1.77-1.13,2.61A2.65,2.65,0,0,0,4,120.09c.55,1.4,1,2.84,1.44,4.27a3.15,3.15,0,0,1,.08.48c-.11-.11-.27-.2-.32-.32-.65-1.87-1.32-3.73-1.89-5.62a2.32,2.32,0,0,1,.32-1.35c.35-.81.78-1.59,1.18-2.38A5.72,5.72,0,0,1,5.29,114.52Z" transform="translate(-0.19 -0.3)"/><path class="cls-3" d="M38,112.69c0-.06,0-.11,0-.17,0-.41,0-1.09.15-1.16a3.25,3.25,0,0,1,1.63-.17c.77.11,1,.86.63,1.66a1.83,1.83,0,0,0-.14.73,2.12,2.12,0,0,0,.14.55,5,5,0,0,1-.78-.13c-.11,0-.17-.22-.27-.31-.27-.27-.44-.31-.52.17,0,.17-.29.31-.44.46-.13-.17-.33-.33-.36-.52a6.83,6.83,0,0,1,0-1.09Zm2.08-.45c-.44-.2-.65-.37-.82-.35s-.31.26-.47.41c.13.13.28.37.39.36A3.59,3.59,0,0,0,40.09,112.24Z" transform="translate(-0.19 -0.3)"/><path class="cls-7" d="M2.29,70.41a2,2,0,0,1,.21.27c.65,1.43,1.31,2.86,1.93,4.3a.9.9,0,0,1-.06.61c-.46,1.17-.94,2.33-1.43,3.49a1.58,1.58,0,0,1-.28.34,2.06,2.06,0,0,1,0-.44,21.74,21.74,0,0,1,.74-2.66,2.66,2.66,0,0,0-.09-2.22c-.41-.95-.72-1.94-1.05-2.92A2.8,2.8,0,0,1,2.29,70.41Z" transform="translate(-0.19 -0.3)"/><path class="cls-7" d="M4.69,78.84a3.46,3.46,0,0,1-.06.59c-.4,1.13-.78,2.27-1.21,3.39a2.74,2.74,0,0,0,0,2.11c.48,1.22.92,2.46,1.37,3.69a1.61,1.61,0,0,1,0,.45c-.09-.1-.23-.18-.28-.29-.63-1.52-1.27-3-1.86-4.57a1.25,1.25,0,0,1,0-.82c.5-1.33,1-2.65,1.56-4A4.33,4.33,0,0,1,4.69,78.84Z" transform="translate(-0.19 -0.3)"/><path class="cls-7" d="M5.62,142.37a6.29,6.29,0,0,1-.7-1.14c-.41-1.16-.68-2.37-1.13-3.51a4,4,0,0,1,.82-4.12,8.67,8.67,0,0,1,.9-.89c-.13.38-.26.76-.4,1.14A5.22,5.22,0,0,1,4.59,135a3.43,3.43,0,0,0-.21,3.41c.46,1.32.82,2.67,1.23,4Z" transform="translate(-0.19 -0.3)"/><path class="cls-3" d="M43,6c.19-.07.39-.22.56-.2a13.75,13.75,0,0,1,3,.56,6.88,6.88,0,0,1,2.08.75,2.63,2.63,0,0,1,1,2A25.44,25.44,0,0,0,43,6Z" transform="translate(-0.19 -0.3)"/><path class="cls-3" d="M13.18,112.78c0-.25,0-.5,0-.75a6.39,6.39,0,0,1,.14-.68c.25.14.5.28.73.43.07,0,.1.13.15.2l.65.86a8.34,8.34,0,0,1,.13-1c0-.14.2-.26.31-.38.13.11.36.22.36.34a23.12,23.12,0,0,1,0,2.34c0,.1-.37.26-.55.25s-.26-.27-.38-.42l-.7-.91a9.65,9.65,0,0,1-.14,1c0,.12-.22.32-.29.3s-.37-.19-.38-.32a10.93,10.93,0,0,1,0-1.25Z" transform="translate(-0.19 -0.3)"/><path class="cls-3" d="M45.73,112.06a7.74,7.74,0,0,1,0,1.09c0,.18-.19.44-.33.47s-.37-.14-.55-.24,0-.11-.06-.15l-.6-.75a3.74,3.74,0,0,1-.05.81,2.11,2.11,0,0,1-.36.55c-.13-.17-.34-.33-.36-.51a15.54,15.54,0,0,1-.08-1.93,1.94,1.94,0,0,1,.26-.63c.21.1.48.14.61.3.38.45.68.85.79-.14,0-.13.25-.23.38-.35.11.13.3.25.32.39a8.63,8.63,0,0,1,0,1.09Z" transform="translate(-0.19 -0.3)"/><path class="cls-7" d="M2.89,25.09c-.35,1.39-.64,2.73-1,4a3.26,3.26,0,0,0,.34,2.63c.43.78.76,1.61,1.13,2.43a.92.92,0,0,1,0,.36c-.09-.06-.2-.11-.25-.19-.66-1.22-1.35-2.43-1.95-3.68-.1-.22.17-.61.25-.93.38-1.52.75-3,1.14-4.56,0-.11.16-.2.25-.3Z" transform="translate(-0.19 -0.3)"/><path class="cls-7" d="M4.11,93.22c-.26-.76-.53-1.5-.76-2.24s-.44-1.6-.64-2.41a1.15,1.15,0,0,1,0-.36,2.52,2.52,0,0,1,.2.33c.62,1.49,1.25,3,1.85,4.49a.91.91,0,0,1,0,.62c-.54,1.26-1.1,2.51-1.65,3.76a1.32,1.32,0,0,1-.18.24.84.84,0,0,1,0-.3q.49-1.72,1-3.43C3.95,93.69,4,93.45,4.11,93.22Z" transform="translate(-0.19 -0.3)"/><path class="cls-7" d="M3.24,57.13,3,56.39c-.33-.92-.66-1.83-1-2.76a1.06,1.06,0,0,1,0-.42c.09.08.21.15.26.25.54,1,1.08,2.07,1.58,3.12a.91.91,0,0,1,0,.62c-.49,1.48-1,2.95-1.52,4.42a1.24,1.24,0,0,1-.18.27,1,1,0,0,1,0-.33q.4-1.75.82-3.5C3,57.76,3.13,57.47,3.24,57.13Z" transform="translate(-0.19 -0.3)"/><path class="cls-7" d="M1.62,48.11c.54-1.62,1.11-3.36,1.7-5.1,0-.08.13-.13.19-.19a1.3,1.3,0,0,1,0,.33c-.38,1.37-.73,2.75-1.17,4.1a2.86,2.86,0,0,0,.21,2.17c.46,1,.9,2,1.33,3.06,0,.1,0,.23,0,.35a.89.89,0,0,1-.18-.14A12.17,12.17,0,0,1,1.62,48.11Z" transform="translate(-0.19 -0.3)"/><path class="cls-3" d="M10.45,112.8c0-.22,0-.25,0-.28-.08-1.62-.21-1.5,1.34-1.23.17,0,.32.2.48.3a5.61,5.61,0,0,1-.5.36,1.45,1.45,0,0,1-.36.1c.08.1.14.24.25.29.75.35.24,1.2.67,1.67-.12.08-.23.22-.35.23s-.44,0-.66,0c-.67,0-1-.26-.85-.94A2,2,0,0,0,10.45,112.8Z" transform="translate(-0.19 -0.3)"/><path class="cls-7" d="M3.07,114.31c.45-1.16,1-2.29,1.3-3.48.1-.35-.24-.83-.37-1.26q-.43-1.45-.84-2.9a1.66,1.66,0,0,1,0-.38c.09.08.22.15.26.25q.87,2.08,1.71,4.18a.8.8,0,0,1,0,.57c-.64,1.24-1.31,2.47-2,3.7a.73.73,0,0,1-.11.13Z" transform="translate(-0.19 -0.3)"/><path class="cls-7" d="M2.13,65.72C2.67,64.28,3.28,62.64,3.9,61c0-.07.15-.1.23-.15s0,.2-.07.3c-.39,1.3-.78,2.61-1.17,3.91A2.46,2.46,0,0,0,3,67a34.5,34.5,0,0,1,1.32,3.24,1,1,0,0,1,0,.37c-.07,0-.16-.07-.2-.13A12.72,12.72,0,0,1,2.13,65.72Z" transform="translate(-0.19 -0.3)"/><path class="cls-7" d="M4.72,128.61c-.06-.17-.1-.31-.14-.44Q4,126,3.36,123.92a1.29,1.29,0,0,1,0-.29c.09.08.21.15.25.25.5,1.36.91,2.76,1.52,4.07a1.78,1.78,0,0,1-.27,2.1c-.42.55-.74,1.18-1.11,1.76a3.41,3.41,0,0,1-.29.35,2.2,2.2,0,0,1,.07-.48c.32-.86.66-1.71,1-2.57C4.57,128.94,4.65,128.76,4.72,128.61Z" transform="translate(-0.19 -0.3)"/><path class="cls-7" d="M3.88,149.14c.23-.8.49-1.6.69-2.41a2,2,0,0,0,0-.88c-.32-1.41-.66-2.81-1-4.21a1.63,1.63,0,0,1,0-.28.9.9,0,0,1,.18.23c.57,1.66,1.16,3.31,1.69,5,.07.22-.1.55-.23.8-.34.63-.71,1.24-1.08,1.86l-.15.28,0-.33Z" transform="translate(-0.19 -0.3)"/><path class="cls-7" d="M2.73,101.45c.69-1.44,1.36-2.84,2-4.23,0-.06.16-.07.25-.11a1.48,1.48,0,0,1,0,.31A18.17,18.17,0,0,1,4,99.83c-.92,1.66-.41,3.19.26,4.73.28.64.54,1.29.79,1.94,0,.09,0,.21,0,.32-.08-.05-.21-.09-.24-.16C4.11,105,3.45,103.26,2.73,101.45Z" transform="translate(-0.19 -0.3)"/><path class="cls-7" d="M3.4,38.84,2.62,41.3c-.15.48-.28,1-.45,1.43,0,.13-.19.23-.29.35a1.55,1.55,0,0,1,0-.41c.21-1,.4-1.91.68-2.85a2.28,2.28,0,0,0-.17-1.67c-.34-.77-.6-1.59-.88-2.39,0-.09,0-.22.05-.34.09,0,.23.07.27.14.53,1,1,1.95,1.56,2.93A1.38,1.38,0,0,1,3.4,38.84Z" transform="translate(-0.19 -0.3)"/><path class="cls-7" d="M32.17,126.28c.19-.78.35-1.55.56-2.3,0-.16.39-.4.4-.39.66.62.72-.18,1-.42a2.32,2.32,0,0,1,.69-.46,2.19,2.19,0,0,1,.76.05c-.16.17-.33.33-.47.51-.65.79-1.31,1.57-1.93,2.37-.18.24-.24.57-.41.82s-.3.17-.46.26Z" transform="translate(-0.19 -0.3)"/><path class="cls-8" d="M3.07,114.31l0,.81-.71.19,0-.5v-1l-.06-7.36c.14.53.3,1.06.41,1.6s.19,1.15.28,1.73l.1,1.5Z" transform="translate(-0.19 -0.3)"/><path class="cls-7" d="M1.54,18.24a3.94,3.94,0,0,1,.58,4.71A13.12,13.12,0,0,0,1.54,25c0,.08-.13.14-.2.21a.88.88,0,0,1,0-.28c.22-1.19.46-2.37.67-3.56a1.71,1.71,0,0,0,0-.72c-.22-.82-.48-1.63-.72-2.45Z" transform="translate(-0.19 -0.3)"/><path class="cls-3" d="M29.52,114.75c-.12-.12-.35-.26-.33-.37.1-.91-.53-1.49-.92-2.19a2.82,2.82,0,0,1-.18-.56,3.88,3.88,0,0,1,.73,0c.11,0,.21.18.27.31.34.71.61.6.92,0a1.08,1.08,0,0,1,.57-.41c.13-.05.32,0,.48.06a2.56,2.56,0,0,1-.14.44c-.39.75-1.06,1.39-.9,2.36a1.63,1.63,0,0,1-.13.57Z" transform="translate(-0.19 -0.3)"/><path class="cls-1" d="M25.86,118.87l-1.69-.39c-.08,0-.16-.08-.23-.07-.59.05-.78-.15-.65-.71,0-.12.13-.31.2-.31.84,0,1.68,0,2.52-.05.09,0,.19.08.28.12-.06.07-.12.19-.19.2-.73.13,0,.17,0,.26a3,3,0,0,1,.2.77C26.3,118.75,26,118.82,25.86,118.87Z" transform="translate(-0.19 -0.3)"/><path class="cls-3" d="M35.05,108.37a2.15,2.15,0,0,1,0-.5,5,5,0,0,1,.24-.63c.19.09.44.14.55.29.31.45.47.25.69-.07a1.58,1.58,0,0,1,.42-.31,1.52,1.52,0,0,1,.23.48,8,8,0,0,1,0,1.25c0,.17-.11.42-.23.46s-.35-.09-.48-.21-.28-.35-.44-.49-.27,0-.32.09a6.32,6.32,0,0,0-.36.7c-.1-.27-.21-.54-.3-.82A.84.84,0,0,1,35.05,108.37Z" transform="translate(-0.19 -0.3)"/><path class="cls-3" d="M46.54,111.8a6.86,6.86,0,0,1,0-1c0-.15.19-.29.3-.43a2.83,2.83,0,0,0,.4.31c.09,0,.27.08.33,0s.16-.31.29-.39.3,0,.45,0c0,.13,0,.29,0,.37-.59.68-.35,1.32.06,2a1.46,1.46,0,0,1,.07.58,4.41,4.41,0,0,1-.68-.26c-.13-.07-.21-.24-.32-.36a2.22,2.22,0,0,1-.14.46,2.75,2.75,0,0,1-.33.4c-.11-.16-.3-.3-.32-.47a9.26,9.26,0,0,1,0-1.17Z" transform="translate(-0.19 -0.3)"/><path class="cls-3" d="M34,109.37c-.23,0-.49.18-.58.1a.8.8,0,0,0-1.24,0c-.07.07-.35.08-.37,0a.59.59,0,0,1,0-.44c.18-.5.38-1,.6-1.47s.53-.54.77-.16A15.47,15.47,0,0,1,34,109.37Z" transform="translate(-0.19 -0.3)"/><path class="cls-3" d="M28.8,108.45c0-1,.54-1.37,1.53-1.05.11,0,.25.17.26.26s-.14.23-.25.26-.34,0-.5,0a1.14,1.14,0,0,0-.32.19l.27.13.64.23-.6.28-.27.13a1.2,1.2,0,0,0,.31.15,4.14,4.14,0,0,1,.5,0c.1,0,.25.18.24.26s-.15.22-.25.26C29.3,110,28.81,109.6,28.8,108.45Z" transform="translate(-0.19 -0.3)"/><path class="cls-3" d="M23.7,109.86c-.32-.31-.82-.59-1-1a1.21,1.21,0,0,1,.41-1.11,2.65,2.65,0,0,1,1.37-.09c.09,0,.16.28.24.43l-.45,0a2.89,2.89,0,0,0-.88.12c-.09,0-.1.6,0,.64a2.87,2.87,0,0,0,.87.14l.5.06c-.08.15-.13.36-.26.45A3.94,3.94,0,0,1,23.7,109.86Z" transform="translate(-0.19 -0.3)"/><path class="cls-3" d="M26.84,109.7c-.66.16-.93-.12-.85-.84,0-.36,0-.73,0-1.09,0-.12.19-.22.29-.33.11.11.28.2.3.32a2.92,2.92,0,0,1,0,.75c0,.39.06.64.55.62.19,0,.38.18.57.28-.2.09-.4.2-.6.28A1,1,0,0,1,26.84,109.7Z" transform="translate(-0.19 -0.3)"/><path class="cls-3" d="M42.38,112.45a7.56,7.56,0,0,1,0,1.16c0,.15-.25.32-.42.37s-.34-.21-.34-.34c0-.78,0-1.56,0-2.34,0-.14.26-.26.41-.39.12.15.31.29.33.45a7.68,7.68,0,0,1,0,1.08Z" transform="translate(-0.19 -0.3)"/><path class="cls-7" d="M34.37,134.45c-.09.35-.15.66-.26.94,0,.1-.19.16-.29.24-.16-1.07-.92.49-1.15-.26-.07-.24-.15-.48-.22-.72a.5.5,0,0,1,0-.23s.08-.06.13-.09c.24,1,.84-.42,1,.14s.2.17.33,0a1.25,1.25,0,0,1,.31-.23Z" transform="translate(-0.19 -0.3)"/><path class="cls-1" d="M20.55,117.92c0,.54,0,.84-.49.44-.13-.1-.49.16-.72.11s-.28-.32-.3-.51a2.36,2.36,0,0,1,.12-.69,3.64,3.64,0,0,0,.42.33c.1.06.3.11.33.07C20.81,116.59,20.41,117.82,20.55,117.92Z" transform="translate(-0.19 -0.3)"/><path class="cls-7" d="M21.59,134.82c.18-.15.41-.47.53-.43a1.23,1.23,0,0,1,.75.54c.09.2-.15.54-.24.81C22.49,135.3,21.36,136,21.59,134.82Z" transform="translate(-0.19 -0.3)"/><path class="cls-7" d="M43.8,133.9c0-.62.23-1,.77-.88.22,0,.58.51.54.57a6.2,6.2,0,0,1-.81.88Z" transform="translate(-0.19 -0.3)"/><path class="cls-1" d="M16.2,118.31c-.86.15-.44-.54-.56-.82,0-.07.4-.46.45-.43a4.48,4.48,0,0,1,.7.63C16.55,117.85,17,118.72,16.2,118.31Z" transform="translate(-0.19 -0.3)"/><path class="cls-7" d="M39.51,134.28c.16-.19.29-.5.52-.59s.76-.18.46.47c-.11.23.08.59,0,.84s-.5.16-.68.06S39.63,134.65,39.51,134.28Z" transform="translate(-0.19 -0.3)"/><path class="cls-1" d="M42.48,136.12c.22-.06.5-.06.64-.2.82-.86,1.36-.81,1.88.22l-.1.1c-.29-.06-.51-.44-.88,0-.24.31-.8.4-1.24.5-.09,0-.27-.34-.41-.53Zm1.33-.35-.11.06s0,0,.06,0S43.78,135.8,43.8,135.77Z" transform="translate(-0.19 -0.3)"/><path class="cls-7" d="M32.09,135.35a2.59,2.59,0,0,1-.73.4c-.15,0-.33-.19-.5-.29.37-.29-.52-1.21.51-1.11C31.61,134.38,31.8,134.93,32.09,135.35Z" transform="translate(-0.19 -0.3)"/><path class="cls-1" d="M32.18,118.64l-.93-.25.67-1.18.72,1.17Z" transform="translate(-0.19 -0.3)"/><path class="cls-7" d="M34.9,134.7c-.13-.53.25-.62.73-.59a1.17,1.17,0,0,1,.35.15,3.08,3.08,0,0,0-.28.24s0,.11,0,.17a.6.6,0,0,0,.29.7c-.14.06-.29.18-.42.16a1.12,1.12,0,0,1-.59-.25C34.86,135.2,34.92,135,34.9,134.7Z" transform="translate(-0.19 -0.3)"/><path class="cls-1" d="M32,151.82c.41-.5.69-.4.85.19a1.35,1.35,0,0,1,.06.66,1.73,1.73,0,0,1-.4.72c-.08.08-.34,0-.53,0,.07-.33,0-.77.23-1,.52-.47.26-.52-.2-.56Z" transform="translate(-0.19 -0.3)"/><path class="cls-7" d="M24.88,135.54c-.18.12-.26.24-.35.23-.38,0-.76-.08-1.15-.13l.64-1.21Z" transform="translate(-0.19 -0.3)"/><path class="cls-7" d="M5.66,119.75l-.54.64a4.48,4.48,0,0,1-.49-1.06c0-.18.26-.43.41-.64Z" transform="translate(-0.19 -0.3)"/><path class="cls-7" d="M18.11,135.22c-.14.08-.23.18-.3.17-.33-.06-.65-.14-1-.22l.58-1.12Z" transform="translate(-0.19 -0.3)"/><path class="cls-7" d="M5,83.86l-.57.89a2.57,2.57,0,0,1-.31-.86,2.43,2.43,0,0,1,.34-.83Z" transform="translate(-0.19 -0.3)"/><path class="cls-7" d="M42.33,134.15c-.19.18.2,1.12-.59.37a.27.27,0,0,0-.21-.08c-.47.16-.5.13-.45-.46,0-.44.14-.61.52-.22.06.07.25.13.29.09a1.89,1.89,0,0,0,.26-.4Z" transform="translate(-0.19 -0.3)"/><path class="cls-7" d="M3,47.75l.47-1c.13.28.37.57.36.85a2.66,2.66,0,0,1-.41.9Z" transform="translate(-0.19 -0.3)"/><path class="cls-3" d="M19.41,108.17l.46.39c-.19.1-.4.31-.57.29-.55-.08-1.08-.24-1.62-.37Z" transform="translate(-0.19 -0.3)"/><path class="cls-7" d="M36.51,134.42c0-.05.19-.36.4-.4,1-.21.15.6.42.8l-.18.14.31.36c-.24,0-.54.15-.72.06s-.16-.41-.23-.63A2.89,2.89,0,0,1,36.51,134.42Z" transform="translate(-0.19 -0.3)"/><path class="cls-1" d="M37.51,117.61c0,.6-.28.81-.77.75-.1,0-.19-.1-.28-.15a1.48,1.48,0,0,0,.26-.17s.09-.15.06-.19c-.15-.23-.31-.44-.47-.66.24-.09.54-.32.72-.25S37.36,117.38,37.51,117.61Z" transform="translate(-0.19 -0.3)"/><path class="cls-7" d="M4.78,137.17l.5-.67a6.1,6.1,0,0,1,.41,1.1c0,.17-.19.39-.29.59Z" transform="translate(-0.19 -0.3)"/><path class="cls-3" d="M40.77,107.67l1.17.22a7.4,7.4,0,0,1-1.08.38,4.2,4.2,0,0,1-1,0,.93.93,0,0,1,0-.35C40.15,107.81,40.52,107.73,40.77,107.67Z" transform="translate(-0.19 -0.3)"/><path class="cls-1" d="M35.39,152.53c-.23-.1-.47-.14-.58-.28s-.29-.47-.22-.61.39-.22.6-.3c0,0,.13.07.19.11-.86.59.3.54.27.86a1.56,1.56,0,0,1-.19.74c-.08.11-.4,0-.6.06l.3-.32Z" transform="translate(-0.19 -0.3)"/><path class="cls-1" d="M41.24,117.2a3.56,3.56,0,0,1,.66-.62c.29-.15.3-.11.28.32,0,.09.1.18.11.27a1.82,1.82,0,0,1,0,.75c0,.09-.46.15-.59.06S41.43,117.55,41.24,117.2Z" transform="translate(-0.19 -0.3)"/><path class="cls-1" d="M18.2,117.51c.56.09.52.42.28.77s-.69.53-1,.14a1.23,1.23,0,0,1-.12-1.07c.14-.28.62-.41.8.15l-.64.34.33.41Z" transform="translate(-0.19 -0.3)"/><path class="cls-1" d="M30.92,118c-.14.22-.24.55-.43.62a1,1,0,0,1-.83-.12,1.88,1.88,0,0,1-.34-.89c0-.06.16-.16.25-.25a3.57,3.57,0,0,1,.23.3c.13.21.25.42.38.64.09-.2.18-.41.28-.61a1.67,1.67,0,0,1,.23-.27Z" transform="translate(-0.19 -0.3)"/><path class="cls-1" d="M37.93,118.31c0-.09-.16-.22-.13-.28.19-.4.42-.79.63-1.18l.61,1Z" transform="translate(-0.19 -0.3)"/><path class="cls-1" d="M28.8,153.17c.2-.42,1.11-.68.3-1.33,0-.06.1-.16.14-.16a4.62,4.62,0,0,1,.73,0,.37.37,0,0,1,0,.28c-.11.22-.27.42-.39.63a.75.75,0,0,0-.13.44c0,.14.19.25.29.38l-1-.3Z" transform="translate(-0.19 -0.3)"/><path class="cls-1" d="M28,119.13a4.54,4.54,0,0,1-.35-.84c0-.22,0-.56.1-.67a2.06,2.06,0,0,1,.82-.26s.11.1.16.15a.94.94,0,0,0-.24.16c-.15.19-.28.4-.42.6a1.24,1.24,0,0,0,.47,0c.1,0,.15-.21.22-.32.09.09.26.21.24.28a.93.93,0,0,1-.28.42,1.1,1.1,0,0,1-.39.13Z" transform="translate(-0.19 -0.3)"/><path class="cls-1" d="M29.3,137c.83-.06,1.59-.29,2,.54a2.81,2.81,0,0,1,.11.35c-.1,0-.23,0-.28-.08-.32-.36-.62-.57-1.14-.25-.12.07-.5-.27-.76-.43Z" transform="translate(-0.19 -0.3)"/><path class="cls-1" d="M37.23,151.68l.31.89-.29.09c-.18-.56-.3-.55-.38,0,0,.08-.13.14-.19.21a1.65,1.65,0,0,1-.14-.19c-.07-.13-.13-.27-.19-.4a3.33,3.33,0,0,1-.15.35,1.55,1.55,0,0,1-.18.23c-.05-.09-.14-.17-.15-.26C35.77,151.65,36.66,152.12,37.23,151.68Z" transform="translate(-0.19 -0.3)"/><path class="cls-1" d="M36,117.72a3.3,3.3,0,0,1-.57.72.61.61,0,0,1-.6-.06,2.51,2.51,0,0,1-.3-.89c0-.08.14-.19.22-.29a2.13,2.13,0,0,1,.21.31c.09.19.16.4.24.59.1-.2.19-.4.3-.6s.15-.25.22-.37Z" transform="translate(-0.19 -0.3)"/><path class="cls-8" d="M27.84,5.51a2.89,2.89,0,0,1-1,.32c-.29,0-.56-.32-.84-.5.3-.16.59-.45.89-.46a2.74,2.74,0,0,1,1,.36Z" transform="translate(-0.19 -0.3)"/><path class="cls-7" d="M2.47,29.51l.47-.93c.11.25.33.52.3.76a4.26,4.26,0,0,1-.4,1Z" transform="translate(-0.19 -0.3)"/><path class="cls-1" d="M42.63,117.7l.72-1.22a8.18,8.18,0,0,1,.57.91s-.24.31-.4.35A3.75,3.75,0,0,1,42.63,117.7Z" transform="translate(-0.19 -0.3)"/><path class="cls-7" d="M4.26,101.89l.5-.79a2.62,2.62,0,0,1,.33.87,2.28,2.28,0,0,1-.35.81Z" transform="translate(-0.19 -0.3)"/><path class="cls-7" d="M29.35,134.54c-.17.45-.3.83-.46,1.2a.26.26,0,0,1-.2,0c-.19-.39-.36-.79-.53-1.18,0,0,.06-.07.09-.11a.67.67,0,0,0,1,0Z" transform="translate(-0.19 -0.3)"/><path class="cls-7" d="M4.39,66.06l-.44.52c-.09-.24-.2-.47-.27-.71a.5.5,0,0,1,0-.33c.1-.23.23-.44.35-.66.12.23.25.45.35.68A2,2,0,0,1,4.39,66.06Z" transform="translate(-0.19 -0.3)"/><path class="cls-7" d="M25.33,134.82l.18-.36.2.56a1.54,1.54,0,0,0,.15.45,1.92,1.92,0,0,0,.42.32,1.37,1.37,0,0,1-.55,0,.86.86,0,0,1-.38-.4C25.29,135.32,25.33,135.15,25.33,134.82Z" transform="translate(-0.19 -0.3)"/><path class="cls-1" d="M33.48,118.78c-.26-.55-.45-.93-.61-1.32,0,0,.1-.23.14-.22.32,0,.63.09.95.14Z" transform="translate(-0.19 -0.3)"/><path class="cls-7" d="M38.74,133.78l.39.13a1.15,1.15,0,0,0-.2.3c-.06.23-.06.47-.13.69s-.17.21-.26.31l-.45-1.2Z" transform="translate(-0.19 -0.3)"/><path class="cls-7" d="M18.79,134.07c.19.14.55.34.53.41a6.9,6.9,0,0,1-.53,1c-.16-.4-.32-.8-.45-1.21A2.94,2.94,0,0,1,18.79,134.07Z" transform="translate(-0.19 -0.3)"/><path class="cls-1" d="M37.17,137.31a2,2,0,0,1,.28-.49c.18-.17.53-.44.59-.39a5.52,5.52,0,0,1,.78.83,1.25,1.25,0,0,1-.34.11c-.41,0-.83,0-1.25,0Z" transform="translate(-0.19 -0.3)"/><path class="cls-1" d="M40,117.17l.22-.43c.11.17.22.33.32.5s.05.22.11.31.23.31.34.46c-.18.05-.4.19-.52.13a1.37,1.37,0,0,1-.44-.51C40,117.55,40.06,117.42,40,117.17Z" transform="translate(-0.19 -0.3)"/><path class="cls-1" d="M22.29,117.23c.18.12.5.26.48.31a10.09,10.09,0,0,1-.43,1.1l-.64-1.14Z" transform="translate(-0.19 -0.3)"/><path class="cls-7" d="M21.13,134.71c0,.68-.12,1-.7.94-.15,0-.28-.18-.42-.28.14,0,.31,0,.41-.09a1.76,1.76,0,0,0,.36-.46,2.87,2.87,0,0,0,.18-.41Z" transform="translate(-0.19 -0.3)"/><path class="cls-7" d="M43.64,134.28l-.81.34a4.13,4.13,0,0,1,0-1.14c0-.15.45-.2.7-.3l.1.4c-.64-.22-.33.23-.27.43S43.52,134.19,43.64,134.28Z" transform="translate(-0.19 -0.3)"/><path class="cls-3" d="M2,39.73l-.39.77c-.11-.21-.33-.42-.3-.61a4.39,4.39,0,0,1,.35-1Z" transform="translate(-0.19 -0.3)"/><path class="cls-1" d="M25.91,137.84l.81-1c.31.32.62.63.91,1,0,0,0,.15,0,.22s-.24,0-.28-.08c-.44-.65-.91-.56-1.42-.11Z" transform="translate(-0.19 -0.3)"/><path class="cls-1" d="M45.23,116.68l-.73.9c-.08-.2-.27-.43-.23-.6a3.63,3.63,0,0,1,.47-.82Z" transform="translate(-0.19 -0.3)"/><path class="cls-1" d="M28.32,153.2c-.4.71-.89.41-1.3,0s-.6-.89.07-1.28l.06.06c-.08,1.12,0,1.18,1.12,1.12Z" transform="translate(-0.19 -0.3)"/><path class="cls-1" d="M39.61,151.94a2,2,0,0,1-.26.63c-.13.15-.39.18-.59.26a1.77,1.77,0,0,0,.23-.43,7.29,7.29,0,0,0,.15-1,2.18,2.18,0,0,0-.08-.5.92.92,0,0,1,.56,1Z" transform="translate(-0.19 -0.3)"/><path class="cls-7" d="M3.08,111.27l-.1-1.5c.09,0,.24-.13.26-.1A1.24,1.24,0,0,1,3.08,111.27Z" transform="translate(-0.19 -0.3)"/><path class="cls-7" d="M15.24,133.73l.93,1c-.09.06-.18.19-.26.18-.74-.06-.75-.07-.74-.4S15.2,134.09,15.24,133.73Z" transform="translate(-0.19 -0.3)"/><path class="cls-1" d="M28.8,153.17l-.48,0,0-.05c.26-1,.07-1.21-1.12-1.12L27.1,152c.38-.06.94-.29,1.09-.13a4.39,4.39,0,0,1,.61,1.34Z" transform="translate(-0.19 -0.3)"/><path class="cls-7" d="M1.84,57.54l.24-.8a4.18,4.18,0,0,1,.22.88,1.92,1.92,0,0,1-.22.65Z" transform="translate(-0.19 -0.3)"/><path class="cls-1" d="M14.25,117.48a4.36,4.36,0,0,1,.46-.47c.06,0,.21,0,.31,0s-.09.19-.12.29a.79.79,0,0,0-.07.25c0,.14.08.32,0,.41s-.26.15-.39.22Z" transform="translate(-0.19 -0.3)"/><path class="cls-1" d="M2.51,14.23l.17.43.2.86-.39,0L2.4,14.25Z" transform="translate(-0.19 -0.3)"/><path class="cls-7" d="M.88,22l.26-.75a3.31,3.31,0,0,1,.14.7,3.47,3.47,0,0,1-.15.71Z" transform="translate(-0.19 -0.3)"/><path class="cls-7" d="M3.79,128.1l-.27.59a1.68,1.68,0,0,1-.18-.52,7.41,7.41,0,0,1,.11-.94Z" transform="translate(-0.19 -0.3)"/><path class="cls-7" d="M3.24,93.17l-.27.7a3.3,3.3,0,0,1-.22-.8,2.71,2.71,0,0,1,.2-.75Z" transform="translate(-0.19 -0.3)"/><path class="cls-7" d="M26.91,134.86l.19-.35c.06.16.13.32.18.49s0,.35.12.46a2,2,0,0,0,.49.32c-.22,0-.47.12-.64,0s-.24-.33-.34-.52S26.91,135.13,26.91,134.86Z" transform="translate(-0.19 -0.3)"/><path class="cls-1" d="M22.38,137.5l.43-.73.8.73-.06.06h-1.1Z" transform="translate(-0.19 -0.3)"/><path class="cls-1" d="M33.83,153.44l-.37-.24c.19-.33.39-.65.6-1,.1.14.31.33.28.42A4.74,4.74,0,0,1,33.83,153.44Z" transform="translate(-0.19 -0.3)"/><path class="cls-1" d="M35.4,136.8l1,.13.21,0c-.07.14-.1.32-.22.41s-.45.26-.53.19a3.49,3.49,0,0,1-.56-.69Z" transform="translate(-0.19 -0.3)"/><path class="cls-1" d="M16.86,137.19c-.15,0-.31.11-.43.06a5.57,5.57,0,0,1-.73-.38l-.05-.05c.08-.52.31-.6.67-.21l.54.58Z" transform="translate(-0.19 -0.3)"/><path class="cls-1" d="M42.07,136.55a2.59,2.59,0,0,1-.49.06c-.27,0-.53-.1-.79-.14.18-.18.37-.52.54-.51S41.74,136.26,42.07,136.55Z" transform="translate(-0.19 -0.3)"/><path class="cls-1" d="M39.31,136.79l.65-.37a3.52,3.52,0,0,1,.34-.14,1.35,1.35,0,0,1-.07.37c-.38.74-.62.8-1,.26Z" transform="translate(-0.19 -0.3)"/><path class="cls-1" d="M17.39,137.15a2.09,2.09,0,0,0,.38-.12c.22-.12.44-.26.65-.39a4.21,4.21,0,0,1-.56.78c-.07.07-.37-.11-.56-.18Z" transform="translate(-0.19 -0.3)"/><path class="cls-1" d="M35.25,137.47c-.17.09-.26.16-.29.14-.31-.23-.62-.47-.93-.7.1-.07.26-.23.29-.2C34.63,136.93,34.91,137.18,35.25,137.47Z" transform="translate(-0.19 -0.3)"/><path class="cls-8" d="M27.11,9.77l-.62-.33c.21-.11.42-.3.63-.3s.42.2.63.31Z" transform="translate(-0.19 -0.3)"/><path class="cls-1" d="M30.74,152.61l.32-.59c0,.17.08.34.12.51s0,.16,0,.25.09.43.14.65c-.05,0-.13,0-.15,0C31,153.13,30.89,152.88,30.74,152.61Z" transform="translate(-0.19 -0.3)"/><path class="cls-1" d="M22,137.21c-.31.23-.59.44-.88.62,0,0-.19-.16-.29-.25l1-.59S21.85,137.08,22,137.21Z" transform="translate(-0.19 -0.3)"/><path class="cls-3" d="M4.69,9.26l-.44.49-.06-.91.41-.41Z" transform="translate(-0.19 -0.3)"/><path class="cls-7" d="M2.78,75.39l-.2.74a1.5,1.5,0,0,1,0-1.48Z" transform="translate(-0.19 -0.3)"/><path class="cls-1" d="M33.93,151.66l-.62.56c0-.12-.16-.3-.12-.34a2,2,0,0,1,.51-.37S33.85,151.6,33.93,151.66Z" transform="translate(-0.19 -0.3)"/><path class="cls-1" d="M28.34,137.44l.57.18c-.15.12-.34.37-.45.34s-.28-.29-.42-.44Z" transform="translate(-0.19 -0.3)"/><path class="cls-1" d="M32.72,137.42l-.45.53c-.16-.15-.33-.28-.48-.44s0-.15,0-.23a2.15,2.15,0,0,0,.49.16,1.06,1.06,0,0,0,.38-.12Z" transform="translate(-0.19 -0.3)"/><path class="cls-1" d="M3.48,145.33l.19-.51a3.37,3.37,0,0,1,.22.67,1.37,1.37,0,0,1-.14.49Z" transform="translate(-0.19 -0.3)"/><path class="cls-1" d="M19.42,136.48c.21.3.37.52.5.74,0,0-.09.12-.14.19-.18-.19-.38-.38-.55-.59C19.21,136.8,19.32,136.67,19.42,136.48Z" transform="translate(-0.19 -0.3)"/><path class="cls-1" d="M25.15,137.59a2.64,2.64,0,0,1-.56.3s-.17-.24-.26-.37h.41l.32,0Z" transform="translate(-0.19 -0.3)"/><path class="cls-1" d="M43.64,134.28c-.11-.09-.29-.16-.32-.27s-.36-.64.27-.43Z" transform="translate(-0.19 -0.3)"/><path class="cls-1" d="M1.54,18.24H1.2c0-.07-.11-.14-.12-.21s0-.38,0-.57a5.49,5.49,0,0,1,.37.47A1,1,0,0,1,1.54,18.24Z" transform="translate(-0.19 -0.3)"/><path class="cls-1" d="M20.26,136.55a4.05,4.05,0,0,1,.35.38s-.09.12-.13.18a4.34,4.34,0,0,1-.32-.35S20.21,136.66,20.26,136.55Z" transform="translate(-0.19 -0.3)"/><path class="cls-1" d="M17.31,137.25l-.45-.06h0l.09-.52.45.5Z" transform="translate(-0.19 -0.3)"/><path class="cls-1" d="M33.51,137.94c0-.15-.11-.23-.09-.28a2,2,0,0,1,.22-.33,1.36,1.36,0,0,1,.19.14A5.12,5.12,0,0,1,33.51,137.94Z" transform="translate(-0.19 -0.3)"/><path class="cls-1" d="M32.63,137.31l.37-.39.1.1-.37.4Z" transform="translate(-0.19 -0.3)"/><path class="cls-1" d="M30.67,56l.22.11-.21.16Q30.67,56.13,30.67,56Z" transform="translate(-0.19 -0.3)"/><path class="cls-1" d="M40.62,137.06l-.27.18.17-.28Z" transform="translate(-0.19 -0.3)"/><path class="cls-1" d="M15.34,137.18l-.16.22,0-.05.22-.16Z" transform="translate(-0.19 -0.3)"/><path class="cls-1" d="M42.36,136.25l-.25-.25.36.12Z" transform="translate(-0.19 -0.3)"/><path class="cls-1" d="M25.07,137.49l.35-.32.06.06-.32.37Z" transform="translate(-0.19 -0.3)"/><path class="cls-1" d="M27.85,137.1h-.13s0-.05,0-.06l.09-.07Z" transform="translate(-0.19 -0.3)"/><path class="cls-1" d="M39.11,136.46l.2.32-.13.11-.18-.32Z" transform="translate(-0.19 -0.3)"/><path class="cls-1" d="M32,151.83l0,.05,0-.06Z" transform="translate(-0.19 -0.3)"/><polygon class="cls-1" points="51.08 11.93 51.09 11.97 51.05 11.97 51.08 11.93"/><path class="cls-1" d="M38.84,136.4l0-.12.12,0Z" transform="translate(-0.19 -0.3)"/><path class="cls-1" d="M45,136.13l0,.13-.13,0Z" transform="translate(-0.19 -0.3)"/><path class="cls-1" d="M36.86,136.5l.06-.06,0,0-.05.06Z" transform="translate(-0.19 -0.3)"/><path class="cls-1" d="M39,136.57l-.16-.17.09-.09.17.16Z" transform="translate(-0.19 -0.3)"/><path class="cls-1" d="M36.9,136.54l-.06.06,0,0,.05-.06Z" transform="translate(-0.19 -0.3)"/><path class="cls-1" d="M31.46,136.88l-.05-.06h.1Z" transform="translate(-0.19 -0.3)"/><path class="cls-1" d="M35.33,136.88l0-.11.11,0Z" transform="translate(-0.19 -0.3)"/><path class="cls-1" d="M15.5,137l.14-.2.05.05-.18.15Z" transform="translate(-0.19 -0.3)"/><path class="cls-1" d="M25.6,137l0-.06,0,.06Z" transform="translate(-0.19 -0.3)"/><path class="cls-1" d="M31.51,136.83l0,.1-.1,0Z" transform="translate(-0.19 -0.3)"/><path class="cls-1" d="M40.52,137l.14,0,0,.14Z" transform="translate(-0.19 -0.3)"/><path class="cls-1" d="M15.51,137l-.17.16h0l.16-.17Z" transform="translate(-0.19 -0.3)"/><path class="cls-1" d="M25.6,137l-.13.2-.06-.06.18-.15Z" transform="translate(-0.19 -0.3)"/><path class="cls-1" d="M37.24,137.38l-.11,0,0-.11Z" transform="translate(-0.19 -0.3)"/><path class="cls-1" d="M22.44,137.56l-.1,0,0-.1Z" transform="translate(-0.19 -0.3)"/><path class="cls-1" d="M23.61,137.5l0,.1-.1,0Z" transform="translate(-0.19 -0.3)"/><path class="cls-1" d="M26,137.88l-.18.15h0l.14-.19Z" transform="translate(-0.19 -0.3)"/><polygon class="cls-1" points="25.58 137.72 25.53 137.77 25.58 137.73 25.58 137.72"/><path class="cls-7" d="M5.61,142.38v.1s0,0,0,0a.26.26,0,0,1,0-.07Z" transform="translate(-0.19 -0.3)"/><polygon class="cls-3" points="53.61 69 53.56 69.02 53.57 68.97 53.61 69"/><path class="cls-1" d="M53.13,90.21l.43-.14.59.64q0,1.8,0,3.6l-.47,0-.18-.49h0v-.34Z" transform="translate(-0.19 -0.3)"/><path class="cls-1" d="M54.17,87.34l0,1.09-.8-2.52.36-.2.34,1h0Z" transform="translate(-0.19 -0.3)"/><path class="cls-2" d="M54,86.72l-.34-1c-.82-2-.19-3.91.2-5.85a15.7,15.7,0,0,1,0,3,9.76,9.76,0,0,0,.29,2.51Z" transform="translate(-0.19 -0.3)"/><path class="cls-3" d="M53.52,93.52v0Z" transform="translate(-0.19 -0.3)"/><path class="cls-1" d="M53.86,98.49l.29,0v.73Z" transform="translate(-0.19 -0.3)"/><path class="cls-2" d="M54.17,87.34,54,86.7Z" transform="translate(-0.19 -0.3)"/><path class="cls-2" d="M20.22,1.41c1.19-.06,2.39-.18,3.58-.16,2,0,4,.15,6,.24a1.74,1.74,0,0,0,.42,0c.26-.05.52-.14.77-.21L30.46.78l4,.34a2.67,2.67,0,0,1-2.64,1.24c-2.08,0-4.16-.28-6.24-.44l-4.49-.38C20.82,1.51,20.52,1.45,20.22,1.41Z" transform="translate(-0.19 -0.3)"/><path class="cls-2" d="M18.83,4a3,3,0,0,1-.48,0c-.05,0-.1-.09-.15-.14a2.07,2.07,0,0,1,.36-.09C18.61,3.82,18.67,3.9,18.83,4Z" transform="translate(-0.19 -0.3)"/><path class="cls-1" d="M2.35,113.79V114a.77.77,0,0,1,0-.12S2.34,113.81,2.35,113.79Z" transform="translate(-0.19 -0.3)"/><path class="cls-1" d="M2.36,114.64v.18a.72.72,0,0,1,0-.12S2.35,114.65,2.36,114.64Z" transform="translate(-0.19 -0.3)"/><path class="cls-8" d="M3.77,11.55s0,.05,0,.07,0,0-.07,0v-.11Z" transform="translate(-0.19 -0.3)"/><path class="cls-2" d="M30.42,38.34a1.56,1.56,0,0,1,.37.3,8.17,8.17,0,0,1,.74,1.21.88.88,0,0,1-.05.67c-.83,1.59-.84,1.59-2.58,1.06l-3.29-1a1.34,1.34,0,0,1-.32-.22,1.2,1.2,0,0,1,.26-.19l4.62-1.76Z" transform="translate(-0.19 -0.3)"/><path class="cls-2" d="M26.54,96.15c-.7,0-1.4,0-2.1,0-.53,0-.7-.18-.66-.67s0-1.28.08-1.93a1.67,1.67,0,0,1,1-1.62,1.74,1.74,0,0,1,2,.48,35.64,35.64,0,0,1,2.26,3.38s-.2.29-.31.3c-.75,0-1.51,0-2.26,0Z" transform="translate(-0.19 -0.3)"/><path class="cls-2" d="M30.89,141.92a3.92,3.92,0,0,1,3.89,4.89,2.12,2.12,0,0,1-.22.42,2.21,2.21,0,0,1,0-.42c.24-1.08.24-1-.86-1-2.07.11-4.14.17-6.21.24-1,0-1,.12-.75,1.07.06.2.09.41.13.62a2.92,2.92,0,0,1-.36-.63A4.24,4.24,0,0,1,30.89,141.92Zm-2.66,2.77c0,1,.09,1.08,1,.81a1.2,1.2,0,0,1,.37,0,9.21,9.21,0,0,0,1.67,0,.9.9,0,0,0,.53-.68,1.28,1.28,0,0,0-.35-1,.48.48,0,0,0-.8.37l-.14-.08c-.19-.12-.39-.34-.58-.34s-.33.26-.46.42a.89.89,0,0,0-.08.34,1.23,1.23,0,0,0,0-.33,2.48,2.48,0,0,0-.23-.36,1.18,1.18,0,0,0-.18.33c-.06.31-.08.62-.12.94-.06-.31-.1-.62-.17-.92a1.58,1.58,0,0,0-.17-.34,1.43,1.43,0,0,0-.25.35A1.32,1.32,0,0,0,28.23,144.68Zm3.53.52a7.53,7.53,0,0,0,1.06.19.57.57,0,0,0,.35-.24c-.18-.48-.4-.95-.61-1.41Z" transform="translate(-0.19 -0.3)"/><path class="cls-2" d="M30,147.83c-.47-.13-1-.27-1.44-.39-.07,0-.16.08-.25.11l-.54.21a2.45,2.45,0,0,1-.18-.76.57.57,0,0,1,.41-.38,4,4,0,0,0,1.9,0s.21.15.28.26a1.4,1.4,0,0,1,.1.38,1.8,1.8,0,0,0,.33-.21,2,2,0,0,0,.24-.34l.4.69a2.08,2.08,0,0,1-.36.2C30.66,147.67,30.37,147.74,30,147.83Z" transform="translate(-0.19 -0.3)"/><path class="cls-2" d="M28.2,149.18a4.36,4.36,0,0,0,4.63.11l.07.09a4.13,4.13,0,0,1-4.8-.05Z" transform="translate(-0.19 -0.3)"/><path class="cls-2" d="M32.26,147.3l-.18.33c0-.33-.82,0-.54-.58.06-.13.18-.33.29-.33C32.27,146.68,32.27,146.71,32.26,147.3Z" transform="translate(-0.19 -0.3)"/><path class="cls-2" d="M33.31,146.3l.35.29c-.08,0-.21.06-.22.11a2.44,2.44,0,0,0,0,.61c0,.06.14.1.22.16l-.36.16a2.3,2.3,0,0,1-.27-.68C33,146.75,33.18,146.56,33.31,146.3Z" transform="translate(-0.19 -0.3)"/><path class="cls-2" d="M27.34,148.41l.68.65-.1.1-.67-.68Z" transform="translate(-0.19 -0.3)"/><path class="cls-2" d="M32.83,149.29a1,1,0,0,1,.17-.17,3.1,3.1,0,0,1,.34-.15,2.42,2.42,0,0,1-.23.29.84.84,0,0,1-.22.11Z" transform="translate(-0.19 -0.3)"/><path class="cls-2" d="M27.12,148.12l.22.29-.08.07-.19-.31Z" transform="translate(-0.19 -0.3)"/><path class="cls-2" d="M27.07,148.17,27,148l.12.12Z" transform="translate(-0.19 -0.3)"/><path class="cls-2" d="M28,149.06l.18.12-.1.14-.18-.16Z" transform="translate(-0.19 -0.3)"/><path class="cls-2" d="M28.85,27.53A2.24,2.24,0,0,1,30,25c.66-.51,1.24-1.13,1.85-1.7.27-.25.4-.21.46.17.31,1.76-1.08,4.88-2.56,5.73-.71.41-.84.33-.85-.47C28.85,28.41,28.85,28,28.85,27.53Z" transform="translate(-0.19 -0.3)"/><path class="cls-2" d="M30.31,19.93a1.82,1.82,0,0,1,.49-.26c.14,0,.42,0,.45.12q.39,1.32.71,2.66a.58.58,0,0,1-.19.42Q30.58,24,29.37,25.2a2.34,2.34,0,0,1-.41.26,2.29,2.29,0,0,1-.14-.52,21.47,21.47,0,0,1,0-2.59,5.61,5.61,0,0,1,.52-1.41h0l.18-.18h0l.18-.18h0l.18-.18h0l.18-.18h0l.18-.18h0l.18-.18Z" transform="translate(-0.19 -0.3)"/><path class="cls-2" d="M29.31,20.93c-.41,0-.6-.13-.61-.55,0-1-.07-2-.09-3a1.16,1.16,0,0,1,.12-.36.94.94,0,0,1,.27.15,16.42,16.42,0,0,1,1.5,1.79c.13.2-.12.65-.19,1h0l-.18.18h0l-.18.18h0l-.18.18h0l-.18.18h0l-.18.18h0l-.18.18Z" transform="translate(-0.19 -0.3)"/><path class="cls-2" d="M27.79,21.11a18.84,18.84,0,0,0-1.29-1.43c-.38-.35-.48-.6-.08-1s.86-1,1.31-1.51c.08-.09.23-.11.34-.16a1.09,1.09,0,0,1,.09.3c0,1.14,0,2.28,0,3.42,0,.13-.22.25-.34.37Z" transform="translate(-0.19 -0.3)"/><path class="cls-2" d="M26.82,126.22c-.09-.28-.16-.4-.13-.43.31-.33.64-.66,1-1,.05.08.17.21.15.24C27.53,125.4,27.23,125.74,26.82,126.22Z" transform="translate(-0.19 -0.3)"/><path class="cls-2" d="M29.45,126.05l.11-.1c0,.07,0,.13,0,.2Z" transform="translate(-0.19 -0.3)"/><path class="cls-2" d="M22.44,112.86c-.48.15-.74.32-.94.27s-.29-.33-.44-.5c.18-.1.38-.31.54-.29S22,112.58,22.44,112.86Z" transform="translate(-0.19 -0.3)"/><path class="cls-2" d="M18,112.25l.35.21c-.07.07-.15.2-.2.19a1.21,1.21,0,0,1-.34-.18Z" transform="translate(-0.19 -0.3)"/><path class="cls-2" d="M36.2,113.13c-.3.19-.58.51-.9.55-.7.09-.37-.52-.42-.83s-.12-.77.42-.66a3.22,3.22,0,0,1,.9.53Z" transform="translate(-0.19 -0.3)"/><path class="cls-2" d="M40.09,112.24a3.59,3.59,0,0,1-.9.42c-.12,0-.26-.23-.39-.36.15-.14.29-.38.47-.41S39.65,112,40.09,112.24Z" transform="translate(-0.19 -0.3)"/><path class="cls-2" d="M43.8,135.77s0,.07-.05.08,0,0-.06,0Z" transform="translate(-0.19 -0.3)"/><path class="cls-2" d="M18.2,117.51l-.32.74-.33-.41.64-.34Z" transform="translate(-0.19 -0.3)"/><path class="cls-2" d="M27.15,152c1.19-.09,1.38.1,1.12,1.12C27.14,153.21,27.07,153.15,27.15,152Z" transform="translate(-0.19 -0.3)"/><path class="cls-3" d="M28.23,144.68a1.32,1.32,0,0,1,0-.42,1.43,1.43,0,0,1,.25-.35,1.58,1.58,0,0,1,.17.34c.07.3.12.61.17.92,0-.31.06-.63.12-.94a1.18,1.18,0,0,1,.18-.33,2.48,2.48,0,0,1,.23.36,1.23,1.23,0,0,1,0,.33.89.89,0,0,1,.08-.34c.13-.17.3-.42.46-.42s.39.22.58.34l.14.08a.48.48,0,0,1,.8-.37,1.28,1.28,0,0,1,.35,1,.9.9,0,0,1-.53.68,9.21,9.21,0,0,1-1.67,0,1.2,1.2,0,0,0-.37,0C28.31,145.77,28.22,145.7,28.23,144.68Z" transform="translate(-0.19 -0.3)"/><path class="cls-3" d="M31.75,145.21l.79-1.46c.21.47.43.94.61,1.41a.57.57,0,0,1-.35.24A7.53,7.53,0,0,1,31.75,145.21Z" transform="translate(-0.19 -0.3)"/><path class="cls-3" d="M30.14,20.09l.18-.18Z" transform="translate(-0.19 -0.3)"/><path class="cls-3" d="M29.3,20.94l.18-.18Z" transform="translate(-0.19 -0.3)"/><path class="cls-3" d="M29.47,20.77l.18-.18Z" transform="translate(-0.19 -0.3)"/><path class="cls-3" d="M29.63,20.6l.18-.18Z" transform="translate(-0.19 -0.3)"/><path class="cls-3" d="M29.8,20.43l.18-.18Z" transform="translate(-0.19 -0.3)"/><path class="cls-3" d="M30,20.26l.18-.18Z" transform="translate(-0.19 -0.3)"/></g></g></g></g></svg>