<svg xmlns="http://www.w3.org/2000/svg" viewBox="0 0 54.02 159.86"><defs><style>.cls-1{fill:#735c42;}.cls-2{fill:#37090a;}.cls-3{fill:#a48b70;}.cls-4{fill:#ebcfb3;}.cls-5{fill:#fbf1d9;}.cls-6{fill:#b0a49e;}</style></defs><title>Asset 2</title><g id="Layer_2" data-name="Layer 2"><g id="runa"><g id="runa-3"><g id="runa-3-svg_Image" data-name="runa-3-svg Image"><path class="cls-1" d="M27.23,160.18h-.82c.09-.57-.2-.8-.73-.83s-.83.11-1-.47c0-.1-.37-.16-.57-.18a67.53,67.53,0,0,1-10.37-1.38,2.21,2.21,0,0,0-1.93.09,4,4,0,0,1-.83-.23,20.43,20.43,0,0,1-4-2.63A33.86,33.86,0,0,1,4.46,152c.32,0,.7.19.94.06.52-.28.84,0,1.26.2A46.38,46.38,0,0,0,11,153.94c1.53.46,3.12.74,4.69,1.06a25.44,25.44,0,0,0,2.72.43c1.84.17,3.69.3,5.54.43,1.44.09,2.89.23,4.34.19,1.28,0,2.55-.27,3.83-.4,1.43-.14,2.87-.22,4.29-.42a14.5,14.5,0,0,0,4.09-.92,19.25,19.25,0,0,1,3.14-.85l1.22-.83.34-.5.12-.14c1,0,.76-.77.86-1.33l.09-.14c.31-.1.81-.12.91-.32a15.37,15.37,0,0,0,.64-2.06l.33-1.18a5.53,5.53,0,0,1,.1-2.18,2,2,0,0,0,.06-1.79l0-.33c.06-.06.16-.12.17-.19.16-.68-.84-1.39,0-2.07,0,0-.14-.28-.23-.3-.72-.13-.87-.54-.65-1.18l.48-.34c.14-.2.43-.42.41-.61a4.75,4.75,0,0,1,.17-2.64,16.82,16.82,0,0,0,.32-2.47,11.56,11.56,0,0,0,.2-4.54c-.09-.51.08-1.07-.6-1.31a.54.54,0,0,1-.13-.5c.48-.59.1-1.13,0-1.68h0c.15-.14.45-.29.44-.41-.05-.51-.27-1-.28-1.51a2.57,2.57,0,0,1,.32-1.46c.25-.35.38-.52.13-.89-.1-.14-.06-.37-.12-.55-.18-.52-.38-1-.56-1.56-.09-.25-.3-.57-.21-.73.63-1.26.15-3,1.66-3.88a.48.48,0,0,0,.18-.35c0-.7,0-1.39,0-2.09a9.43,9.43,0,0,1,.06-1.58c0-.12.48-.15.7-.27a.54.54,0,0,0,.26-.36,32.64,32.64,0,0,0,.18-3.55c-.06-1.5-.29-3-.43-4.51a3,3,0,0,1,.11-.71,22.55,22.55,0,0,0,.47-3c0-1.58-.09-3.17-.13-4.75a1.44,1.44,0,0,0-1.47-1.6c-.08,0-.2,0-.22,0a5.76,5.76,0,0,1-.71-1.67,28.11,28.11,0,0,1,0-3.27,6.72,6.72,0,0,1,.11-1.9,3.12,3.12,0,0,0,0-2.11,4,4,0,0,1-.06-2.29c.08-.37.06-.85-.54-.88l.12-.43a2.19,2.19,0,0,1-.09-.63,2.4,2.4,0,0,0-.37-2c-.07-.08,0-.26,0-.39h0l.17-.37a.1.1,0,0,1,.08-.12l.06-.33-.16-.3c.06-.24.26-.57.17-.71a1.7,1.7,0,0,1-.11-1.75,6.7,6.7,0,0,0,.29-1.33l0-.17.37-.42c-.65-.53-.23-1.1-.09-1.68,0-.16-.16-.36-.21-.56s-.18-.59-.07-.69c.77-.74.11-1.6.22-2.38,0-.08-.27-.2-.42-.31h0c0-1.08-.88-2.09-.27-3.22,0,0,0,0-.05-.06l.31-1.18a6,6,0,0,1-.53-1.75,6.7,6.7,0,0,1,.54-1.83h0c.09-.08.27-.17.26-.23a7.21,7.21,0,0,0-.42-2.25c-.4-.78-.41-1.27.34-1.73v-.36l-.2-.5-.12-.32a1.85,1.85,0,0,0-.25-2c-.07-.09,0-.3,0-.45.07-.34.15-.67.22-1l.35-.46c.43-.26.44-.53,0-.79l-.19-.45c-.09-.25.15-.85-.42-.6-.78.35-.58-.17-.51-.5s.34-.78.46-1.18.21-.93.3-1.39l.26-.69-.49.06c-.19-.29-.52-.58-.54-.89a13,13,0,0,1,.12-1.92v0l.66-.88a3.12,3.12,0,0,0-.06-.88,10,10,0,0,0-.61-1.2,3.51,3.51,0,0,0,0-1.08c-.21-.57-.59-1.08-.79-1.66a1.91,1.91,0,0,1,.09-1s.36,0,.56,0c.24.29.47.59.72.87a2.74,2.74,0,0,0,.36.3,2.07,2.07,0,0,0-.07-.51c-.26-.65-.54-1.29-.81-1.93a6.22,6.22,0,0,1-.12-1.18,4.33,4.33,0,0,1,.32-1c.63,0,.91-.28.77-.88A7.4,7.4,0,0,0,48,26.44c-.18-.74-.83-1.38-.48-2.23h0c.5-.14.83-.4.66-1l.25-.83-.53.05L47,19.88a6.39,6.39,0,0,1,.73-.73,1,1,0,0,0,.39-1.48c0-.59-.1-1.18-.09-1.77s-.64-1.49.34-2l.07-.77c.93-.24,1.56.4,2.32.75a4.79,4.79,0,0,1,2.66,3.92c.16,1.87-.11,3.76.39,5.6.1.36.08.56-.38.7s-.91.43-.67,1.13,1.45,1.4.85,2.54c0,.06.11.19.12.29.06.45.12.9.14,1.36,0,.08-.16.23-.27.25-.37.06-.33,0-.18.37a9.59,9.59,0,0,1,.37,1.11c-.8.24-.13.59-.06.89s.11.47.16.7h0c-.34,0-.62.06-.36.52a2,2,0,0,1,.32.73c0,.4.17,1.09-.44,1-.87-.14-.47.38-.52.69l0,0,0,0c.38.56.78,1.11,1.12,1.7.06.1-.16.5-.25.51-.66,0-.07.37-.16.52l-.11.11c-.26,0-.72-.44-.71.18s-.38,1.6.4,2.22c.06,0,.11.22.08.27-.4.52,0,.78.27,1.18s.74.92-.16,1.21a.37.37,0,0,0-.14.32c.17.69.39,1.37.53,2.06,0,.15-.16.41-.32.51s-.38,0-.57,0l.47.5c.29.29.82.54.09,1-.06,0,0,.33,0,.5.07.33.19.65.24,1,0,0-.24.18-.37.18a2.37,2.37,0,0,1-.56-.11,5.79,5.79,0,0,0,.33.67,2.49,2.49,0,0,0,.39.39c-.16,0-.32,0-.47,0s-.21,0-.25.1a3.31,3.31,0,0,0,.48,2.39,2.07,2.07,0,0,1,.22.31,1.16,1.16,0,0,0-.35.1,2.39,2.39,0,0,0-.33.33l1.27,1V56a2.82,2.82,0,0,0-.59-.24,3.64,3.64,0,0,0-.7,0c.11.25.16.58.35.74a4,4,0,0,0,.93.47v1a.92.92,0,0,0-.19-.13l-1.2-.4.65.7a.57.57,0,0,1,.08.14c.22.44.44.22.65,0l0,16.69h-.14a5.86,5.86,0,0,0,0-.81,2.67,2.67,0,0,0-.22-.57,3.44,3.44,0,0,1-.5.26.51.51,0,0,1-.3-.06c-.12,0-.27-.19-.33-.15a.74.74,0,0,0-.35.38c0,.1.12.29.24.36s.43,0,.43.05c0,.83.67.43,1.05.53,0,.92-.32,1.3-.84.9s-.4,0-.42.13a3.69,3.69,0,0,0,0,.95c0,.36.26.75.17,1.06-.42,1.38-.17,1.74,1.2,1.56V80c-.34.23-.7.43-1,.68-.15.12-.38.38-.34.47a4.7,4.7,0,0,0,.58.8c.16-.18.41-.34.47-.56a4.77,4.77,0,0,0,.07-1l.22,1v.33s-.05,0,0,0a.71.71,0,0,0,0,.12l-.11,10.81-.45.18c0-1.84,0-3.69-.06-5.53a.86.86,0,0,0-.43-.66c-.53-.13-.52.31-.51.67q.09,2.9.18,5.8c-.16.17-.41.32-.47.52a3.27,3.27,0,0,0,0,.89c0,.87,0,1.74,0,2.61,0,.14.18.27.28.4.08-.13.24-.26.24-.39,0-.7,0-1.4.06-2.1s.05-1.28.08-1.92l.56-.16c.18.33-.27,1,.52,1v.35l-.06,0,.06.11v4.75c-.06-.17-.12-.34-.17-.51s0-.25-.07-.38a3.09,3.09,0,0,0,0,.36c0,1.28,0,2.55,0,3.83a2.73,2.73,0,0,1-.08.46l-.12-.44-.16-.56a3.82,3.82,0,0,0-.28.55c0,.15-.1.38,0,.47s-.52,1.4.62.59c0,0,.21.14.31.22v.8a6.32,6.32,0,0,0-1,.55.68.68,0,0,0-.17.58c0,.15.27.29.44.37a3.64,3.64,0,0,0,.68.16c0,.82,0,1.63-.05,2.45-.06,7.6-.1,15.19-.18,22.79,0,1.87-.15,3.73-.17,5.6,0,1.43.06,2.86.09,4.29-.39.28-.38.57,0,.86v.28c-.13.13-.36.25-.37.39-.12,2.06-.2,4.13-.29,6.19,0,.05.1.11.16.16a5.08,5.08,0,0,1-2.33,2.62,2,2,0,0,0-.6.63c-.5.65-1,1.32-1.48,2a5.75,5.75,0,0,1-.92.35c-.45.09-.92.11-1.38.16a1.54,1.54,0,0,1,.32-1.34,18.56,18.56,0,0,0,1.63-2.21c.07-.11,0-.3,0-.45a2.28,2.28,0,0,0-.3.28,7.27,7.27,0,0,1-.78,1c-1,.87-2,1.7-3,2.54-.07.06-.2,0-.3,0a.49.49,0,0,1,0-.2,2.53,2.53,0,0,1,.19-.31,2.68,2.68,0,0,0-.38.13,4.74,4.74,0,0,1-.82.44c-.93.26-1.87.5-2.81.7-1.53.33-3.07.61-4.6,1a2.66,2.66,0,0,0-.71.42c.25.13.5.37.75.37.85,0,1.7-.09,2.55-.13.11,0,.22.09.33.14-.08.05-.15.14-.24.15a21.66,21.66,0,0,1-3.6.52,2.33,2.33,0,0,0-1.66.63,1.16,1.16,0,0,1-.7.16c-.14,0-.28-.15-.42-.24,0,.19,0,.38.08.57a4.62,4.62,0,0,0,.14.46l-2.25.24ZM53.88,69.3,53.76,69a4.08,4.08,0,0,0-1.14.75,2,2,0,0,0,.06,2.72c.18.19.56.21.86.27.09,0,.31-.08.31-.13,0-.7.21-1.54-.09-2.07s-.73-.58.08-.83C53.88,69.65,53.86,69.46,53.88,69.3Zm-.06,14.18-.1,0c0-.14,0-.27,0-.41s0-.27-.27-.17c-.12,0-.27,0-.4,0-.31.07-.57.08-.53.59s-.38,1.35.33,1.89c.09.07.11.22.17.34.11-.1.28-.19.31-.32C53.52,84.75,53.66,84.12,53.82,83.49Zm.05-18.27a7.68,7.68,0,0,0,0-1.29.76.76,0,0,0-.49-.45,1.9,1.9,0,0,0-.72.1,6.83,6.83,0,0,0,.52.47.62.62,0,0,1,0,1.11l-.22.13.27.14.4.22-.46.15-.42.14.3.21.76.49c0-.31.07-.62.1-.94C53.88,65.54,53.87,65.38,53.87,65.22Zm0-3.31h0a3.39,3.39,0,0,0,0-.89c0-.18-.3-.3-.46-.45a2.73,2.73,0,0,1,0,.43c0,.28.17.71-.42.67-.12,0-.25.2-.38.3a3.26,3.26,0,0,0,.36.34c.13.09.3.13.42.22a4.73,4.73,0,0,1,.43.41c0-.24,0-.48,0-.73S53.88,62,53.88,61.91Zm-1.12,5s-.1,0-.1,0c0,.4-.1.88.1,1.15s.68.13,1,.16c0,0,.09-.24,0-.28C53.51,67.6,53.14,67.26,52.76,66.9Zm-1.19,46.61-.21-.38-.47-.63c-.13.21-.38.42-.37.62s.26.43.46.51S51.37,113.56,51.57,113.51ZM53.24,59.3l-.44.39c.28.18.55.36.84.52,0,0,.25-.22.24-.23C53.7,59.77,53.51,59.58,53.24,59.3ZM51.33,90.6a1.18,1.18,0,0,0-.35-.19s-.16.16-.15.23.13.19.21.28Z" transform="translate(-0.23 -0.32)"/><path class="cls-2" d="M22.32,160.18c-.94-.16-1.88-.35-2.82-.48a30.22,30.22,0,0,1-7.24-2,2.14,2.14,0,0,1-.43-.32,2.21,2.21,0,0,1,1.93-.09,67.53,67.53,0,0,0,10.37,1.38c.2,0,.54.08.57.18.15.58.59.45,1,.47s.82.26.73.83Z" transform="translate(-0.23 -0.32)"/><path class="cls-3" d="M1.48,100.8,1.4,94.88A5.4,5.4,0,0,0,1.53,94c0-1.61,0-3.22,0-4.82v-.81l-.08-3.71q0-1.35,0-2.7,0-1.87,0-3.75L1.3,74.4l-.21-4.85A2.13,2.13,0,0,1,.94,69c0-2.23,0-4.46,0-6.7L1,59.59c0-.67,0-1.35,0-2a3.11,3.11,0,0,0-.23-.77L.73,52a3.76,3.76,0,0,0,.16-.68C1,50.07,1,48.77,1,47.48A6.1,6.1,0,0,0,.64,46L.57,41.89c.05-.09.15-.18.15-.27q0-2.58,0-5.16c0-.12-.11-.23-.17-.34l-.1-1.58,0-1V31.09a4,4,0,0,0,.15-.76c0-1,0-2,0-3C.45,25.06.32,22.78.23,20.51c0-.77.06-1.55.1-2.32,0-.27,0-.55.07-.82.05.46.1.93.16,1.39A1,1,0,0,0,.64,19a.81.81,0,0,0,.09-.2q.26-1.62.52-3.24L2,14.43A5.91,5.91,0,0,0,3,13.91c.39-.31.66-.81,1.08-1s.7-.52.47-1.07c0-.1,0-.36.08-.37.81-.09.83-.72.93-1.3L5.5,9.66l.25-.72c-.25,0-.5,0-.74,0a1.86,1.86,0,0,1-.37-.13,21.11,21.11,0,0,1,3.63-2,55.22,55.22,0,0,1,7.54-2,59.57,59.57,0,0,1,8.39-.93C27.12,3.74,30,4,33,4.1a44.47,44.47,0,0,1,11.09,2,4.47,4.47,0,0,1-.36.43c-1.17,1.09-1.17,1.09,0,2.2,1.7,1.62,3.54,3.1,4.69,5.21-1,.52-.33,1.32-.34,2s.06,1.18.1,1.77c-.15-.26-.29-.52-.46-.77-1.18-1.72-2.36-3.44-3.57-5.15a2.07,2.07,0,0,0-.58-.4,3.15,3.15,0,0,0,.2.64c1,1.73,1.92,3.47,2.93,5.18a1,1,0,0,1-.17,1.4c-.94,1-1.82,2.08-2.7,3.15a1.78,1.78,0,0,0-.19.64c.2,0,.46,0,.6-.15,1-.76,1.88-1.55,2.81-2.33l.84,2.57c-1.24,1.12-2.48,2.26-3.73,3.37-.44.39-.55.63-.14,1.19,1.16,1.59,2.21,3.27,3.31,4.91-.19,0-.54,0-.56,0a1.91,1.91,0,0,0-.09,1c.2.57.58,1.08.79,1.66a3.51,3.51,0,0,1,0,1.08C46.34,34.12,45.19,32.56,44,31a1.89,1.89,0,0,0-.52-.34c0,.22,0,.45.06.66a.9.9,0,0,0,.15.28c1,1.57,1.88,3.17,2.89,4.71a.94.94,0,0,1-.09,1.34c-.86,1-1.72,2-2.54,3a3.26,3.26,0,0,0-.35,1,3.2,3.2,0,0,0,.83-.37c1-.88,2-1.79,3-2.7a13,13,0,0,0-.12,1.92c0,.31.35.59.54.89-.24.26-.47.53-.72.77Q45.63,43.73,44,45.26a.75.75,0,0,0-.09,1.14c1.32,1.73,2.63,3.46,4,5.19a3.41,3.41,0,0,0,.59.49c-.74.46-.74,1-.34,1.73a7.21,7.21,0,0,1,.42,2.25c0,.06-.17.15-.26.23a1.67,1.67,0,0,0-.14-.6q-2-2.7-4-5.37a2.26,2.26,0,0,0-.65-.41c.05.28.1.56.15.83,0,0,.07.08.1.13.94,1.46,1.86,2.93,2.82,4.37a.91.91,0,0,1-.05,1.27c-.95,1.18-1.84,2.42-2.73,3.65a2.26,2.26,0,0,0-.2.73,2.9,2.9,0,0,0,.53-.35q2.08-2.12,4.14-4.26a6.7,6.7,0,0,0-.54,1.83,6,6,0,0,0,.53,1.75c-1.47,1.51-2.95,3-4.39,4.56-.1.11,0,.51.08.67q1.82,2.38,3.69,4.71a6.19,6.19,0,0,0,.8.71,6.7,6.7,0,0,1-.29,1.33,1.7,1.7,0,0,0,.11,1.75c.09.14-.11.47-.17.71-.21-.28-.41-.57-.63-.85-1.11-1.37-2.22-2.75-3.34-4.11-.11-.13-.36-.14-.54-.21a2.29,2.29,0,0,0,.17.51c1,1.51,1.91,3,2.91,4.52a.68.68,0,0,1,0,1c-.87,1.15-1.7,2.33-2.52,3.52a7.88,7.88,0,0,0-.5,1,4.5,4.5,0,0,0,1-.59c1.15-1.19,2.26-2.41,3.38-3.63,0,.13,0,.31,0,.39a2.4,2.4,0,0,1,.37,2,2.18,2.18,0,0,0,.09.63,1.88,1.88,0,0,0-.62.3c-1.32,1.48-2.63,3-3.9,4.49A.86.86,0,0,0,44,84c1.15,1.44,2.34,2.86,3.54,4.27a3.85,3.85,0,0,0,.68.51,3,3,0,0,0-.21-.89c-.81-1.31-1.63-2.62-2.5-3.89a.63.63,0,0,1,0-.89c1-1.4,1.89-2.84,2.83-4.27.6,0,.62.51.54.88A4,4,0,0,0,49,82.06a3.12,3.12,0,0,1,0,2.11,6.72,6.72,0,0,0-.11,1.9,28.11,28.11,0,0,0,0,3.27A5.76,5.76,0,0,0,49.57,91s.14,0,.22,0a1.44,1.44,0,0,1,1.47,1.6c0,1.58.18,3.17.13,4.75a22.55,22.55,0,0,1-.47,3,3,3,0,0,0-.11.71c.14,1.5.37,3,.43,4.51a32.64,32.64,0,0,1-.18,3.55.54.54,0,0,1-.26.36c-.23.12-.68.14-.7.27a9.43,9.43,0,0,0-.06,1.58c0,.7,0,1.39,0,2.09a.48.48,0,0,1-.18.35c-1.5.88-1,2.62-1.66,3.88-.08.17.12.49.21.73.18.52.38,1,.56,1.56.06.18,0,.4.12.55.25.37.12.54-.13.89a2.57,2.57,0,0,0-.32,1.46c0,.5.23,1,.28,1.51,0,.12-.28.27-.44.41a12.29,12.29,0,0,0-2.81-4.16.81.81,0,0,1-.08-1.18c.9-1.45,1.73-2.94,2.58-4.43a1.49,1.49,0,0,0,.09-.45c-.12.07-.28.1-.36.2-1.33,1.72-2.66,3.44-4,5.18a.62.62,0,0,0,0,.6q1.87,2,3.8,3.93a2.08,2.08,0,0,0,.7.3c.14.55.52,1.09,0,1.68a.54.54,0,0,0,.13.5c.68.24.51.8.6,1.31a11.56,11.56,0,0,1-.2,4.54,16.82,16.82,0,0,1-.32,2.47,4.75,4.75,0,0,0-.17,2.64c0,.18-.27.4-.41.61h0a5.26,5.26,0,0,0,0-1.2c0-.15-.4-.23-.62-.35a3.33,3.33,0,0,0-.45,1.13c0,.25.4.5.62.76h0c-.22.64-.07,1.05.65,1.18.1,0,.24.3.23.3-.87.69.14,1.39,0,2.07,0,.07-.11.13-.17.19-.86-1.12-1.67-2.27-2.58-3.34a1.09,1.09,0,0,1-.16-1.57c.89-1.42,1.63-2.95,2.41-4.43a1.64,1.64,0,0,0,.08-.51,1.93,1.93,0,0,0-.36.29c-1.28,1.69-2.56,3.37-3.81,5.07a1,1,0,0,0,.31,1.52c.6.46,1.15,1,1.74,1.47.77.63,1.56,1.23,2.35,1.84a2,2,0,0,1-.06,1.79,5.53,5.53,0,0,0-.1,2.18c-1.31-1.13-2.62-2.27-4-3.38a2,2,0,0,0-.64-.22,1.85,1.85,0,0,0,.21.62c.87,1,1.74,2.08,2.66,3.07a.81.81,0,0,1,.16,1.17c-1,1.73-2,3.5-2.95,5.25a19.25,19.25,0,0,0-3.14.85,14.5,14.5,0,0,1-4.09.92c-1.42.2-2.86.27-4.29.42-1.28.13-2.55.37-3.83.4-1.44,0-2.89-.1-4.34-.19-1.85-.12-3.69-.25-5.54-.43a25.44,25.44,0,0,1-2.72-.43c-1.57-.32-3.16-.61-4.69-1.06a46.38,46.38,0,0,1-4.38-1.66c-.42-.17-.73-.48-1.26-.2-.24.12-.62,0-.94-.06h0l-.28-.32c-.64-1.1-1.29-2.19-1.91-3.3a1.38,1.38,0,0,1-.09-.63c-.07-5.28-.13-10.56-.21-15.84q-.14-9.35-.3-18.69c0-1.33-.1-2.66-.11-4,0-1.08.08-2.16.12-3.23s0-1.89,0-2.84a7.64,7.64,0,0,0-.18-1.06v-.34Zm7.26,35.33a3.89,3.89,0,0,1,.54-.1,1.44,1.44,0,0,1,.37.08c0-.12-.06-.29-.14-.36-.58-.53-.59.08-.76.39l0,.05Zm5.4,15.71c.12-.12.29-.22.34-.37a.59.59,0,0,0,0-.48c-.06-.09-.29-.06-.44-.08a1.24,1.24,0,0,1,.2.38,2.45,2.45,0,0,1,0,.55c-.07,0-.2,0-.22.09-.07.21-.11.42-.17.64l.62.08a4.27,4.27,0,0,1-.23-.48A1,1,0,0,1,14.14,151.83Zm-2-15.37.07,0-.07,0-.24-.42c-.22.22-.46.44-.67.68,0,0,0,.15,0,.22.16-.1.32-.21.49-.29S12,136.52,12.17,136.46Zm11.29,1-.16-.23-.08.09.24.14.45.79c.32-.22.64-.43.94-.67.08-.07.09-.22.14-.33-.11,0-.28,0-.33.11C24.3,137.89,23.9,137.86,23.46,137.44Zm-5.73.32c.53-.31,1.06-.59,1.46.18,0,0,.14,0,.21,0s.06-.11,0-.13a6.13,6.13,0,0,0-.83-1c-.06,0-.45.27-.66.46a1.35,1.35,0,0,0-.21.42l0,.06Zm-1-115.65-.2-1.2c-.23-.72-.35-1.52-1.26-1.76-.4-.56-.79-1.13-1.2-1.68s-.78-.52-1.17,0c-1.46,1.78-2.67,3.66-2.52,6.1a2.68,2.68,0,0,0-.24.65,7.41,7.41,0,0,0,1.73,5.53C12.9,31,13.76,31,15,30A7.4,7.4,0,0,0,17,26.33c0-.14-.08-.32-.13-.49a2.23,2.23,0,0,0-.33.38c-.61,1.17-1.21,2.35-1.81,3.52a3.57,3.57,0,0,1-.59.42c-.08,0-.35-.1-.35-.15,0-1.12.07-2.23.12-3.35l.29-.38-.28.08a8.43,8.43,0,0,1,.16-4.76l.17-.16.75-.68.8-.74.4,1,.23,1.09c.13,1.1.25,2.2.39,3.3a1.06,1.06,0,0,0,.14.3c.06-.08.15-.15.17-.24a3,3,0,0,0,.07-.48A4.28,4.28,0,0,0,16.75,22.11Zm4.42,96.36c-.5.09-.32.34,0,.4s.51-.15.77-.25a8.84,8.84,0,0,0-.46-1.12s-.41.11-.63.17l.4.76ZM13.29,118c-.14-.26-.36-.54.17-.63.09,0,.18-.1.27-.16-.08-.07-.19-.21-.24-.19-.26.1-.68.21-.7.37a1.23,1.23,0,0,0,.27.92c.13.14.54,0,.82,0v-.61l-.53.19ZM8.45,132.89c-.25.06-.71-.52-.72.25a1.12,1.12,0,0,1-.14.36,1.16,1.16,0,0,1-.12-.36c0-.67-.69-.57-1-.93a3.84,3.84,0,0,0-.23.32c.32.28-.18,1.34.86,1,.23.75.8.37,1.25.37.24.1.67.3.68.28C9.4,133.47,9.21,133.11,8.45,132.89ZM8.25,11.08l1.48-.58A8.82,8.82,0,0,0,11,9.76.8.8,0,0,0,11.14,9a1.74,1.74,0,0,0-2.46-.41l-.11,0c-.05,0-.13,0-.16,0-.76.67-2,.8-2.16,2.12a.64.64,0,0,1-.11.21l-.32.58a2.3,2.3,0,0,0,.88.13A12.89,12.89,0,0,0,8.25,11.08ZM31.78,114.51a17.42,17.42,0,0,1,0-2c.06-.6-.36-.57-.69-.64a2.73,2.73,0,0,0-.25.59c-.06.16-.11.32-.17.48a1.73,1.73,0,0,1-.48-.24,8,8,0,0,0-.58-.68,1,1,0,0,0-.67-.16c-.09,0-.19.34-.19.53a20.47,20.47,0,0,0,0,2.12c0,.19.28.36.42.54a4.1,4.1,0,0,0,.42-.56,4.06,4.06,0,0,0,.22-.66l.57.36c.39.25.6.94,1.27.55Zm-15.93,9.42-.13-.12-.19-.62a2.15,2.15,0,0,0-.56.43c-.46.7-.84,1.46-1.34,2.13a3.61,3.61,0,0,1-1.13.89c-.11.06-.4-.21-.6-.32a2.47,2.47,0,0,1,.33-.48,12.51,12.51,0,0,0,1.3-1.14.86.86,0,0,0-.06-.85,1,1,0,0,0-.92-.1,2.49,2.49,0,0,0-1.39,2.47,1,1,0,0,0,1.58.9,11.16,11.16,0,0,0,1.35-1.16l.17.13a1.45,1.45,0,0,0-.05.32c0,.25.05.49.08.74a2.64,2.64,0,0,0,.6-.53,17.79,17.79,0,0,1,1-1.83,6.87,6.87,0,0,1,1.34-1.06c-.2.75-.44,1.49-.59,2.24a2.22,2.22,0,0,0,.17.82c.18-.17.43-.3.53-.5a4.91,4.91,0,0,1,2.36-2.77c.1,0,.17-.19.25-.28-.13-.08-.3-.26-.37-.22-.44.22-.85.48-1.28.73-.16.09-.35.94-.51,0a3.06,3.06,0,0,0-.55,0,7.74,7.74,0,0,0,.62-.55,1.35,1.35,0,0,0,.18-.4l-.34,0C16.81,122.68,16.33,123.31,15.85,123.93ZM15,66.65v0h.49c2.1,0,4.2,0,6.29-.09.31,0,.83.2.8-.49s-.08-1.58-.05-2.37c0-.56-.19-.69-.71-.67-2.89.09-5.77.16-8.66.24h-.48a2.31,2.31,0,0,1,.3-.35c2.73-2.18,5.45-4.37,8.19-6.53A3.14,3.14,0,0,0,22.3,53a.61.61,0,0,0-.47-.28,22.9,22.9,0,0,0-2.37,0q-5.57.33-11.14.7c-1.1.07-1.09.1-1.06,1.21a11.15,11.15,0,0,1,0,1.39c-.07.76.17,1,1,1,2.09-.17,4.2-.24,6.3-.35a5.72,5.72,0,0,1,.63,0c-.12.19-.24.39-.37.58a1.56,1.56,0,0,1-.24.21c-1.77,1.57-3.5,3.19-5.32,4.71a4.24,4.24,0,0,0-1.71,4.06c.07.56.19.74.77.71C10.54,66.8,12.77,66.73,15,66.65Zm7-33.15h0c0-.38,0-.76,0-1.14s-.11-.44-.49-.26c-1.88.92-3.81,1.72-5.65,2.7-2.33,1.25-4.65,2.53-6.87,4S6.82,40.31,7,43c0,.05,0,.12,0,.16s.23.43.4.49c2.42.85,4.84,1.69,7.28,2.49,1.25.41,2.53.74,3.79,1.13,1.09.33,2.19.67,3.27,1,.46.16.58,0,.55-.42a23.78,23.78,0,0,1-.11-2.52.67.67,0,0,0-.6-.78q-1.29-.34-2.57-.72c-.54-.16-.78-.46-.45-1s.44-.88.71-1.28a1.58,1.58,0,0,0,0-2.17c-.35-.4-.5-1-.83-1.38s-.07-.6.27-.74c.92-.4,1.86-.77,2.77-1.2a1,1,0,0,0,.54-.59A18.45,18.45,0,0,0,22,33.49ZM12.91,71.31v.19c-1.55,0-3.1,0-4.65,0-.2,0-.56.25-.57.42a18,18,0,0,0-.06,2.52.82.82,0,0,0,.51.61,18.43,18.43,0,0,0,2.12,0c2.2,0,4.4-.13,6.6-.09a2.58,2.58,0,0,1,2.59,1.49,2.88,2.88,0,0,1-2.35,4.23,9.88,9.88,0,0,1-1.38.07c-2.45,0-4.9,0-7.34,0-.49,0-.62.13-.6.58,0,.79,0,1.58,0,2.37,0,.44.17.56.57.56.9,0,1.8.08,2.69.07,2.51,0,5,0,7.53-.23A4.16,4.16,0,0,0,22.37,81a13.31,13.31,0,0,0,.51-4.15c-.17-3.47-2.51-5.57-6-5.58Zm5,28.32v.1c1.39,0,2.78,0,4.17,0,.46,0,.56-.16.54-.56,0-.76,0-1.53,0-2.29,0-.46-.13-.62-.6-.61-1.11,0-2.24-.07-3.35,0a1.59,1.59,0,0,1-1.75-1.08c-.21-.46-.21-.63.26-.85,1.59-.74,3.15-1.55,4.74-2.29A1,1,0,0,0,22.64,91a13.4,13.4,0,0,1,0-2.2c.07-.79-.22-.69-.75-.43-2,1-4.07,2-6.08,3-.49.24-.76.28-1.12-.23a6.28,6.28,0,0,0-1.42-1.45c-1.35-1-3.39-1.27-4.41.32a4.13,4.13,0,0,0-.74,1.81C8,94.07,8,96.38,7.92,98.69a.56.56,0,0,0,.38.39c2.15.2,4.29.4,6.45.53C15.8,99.69,16.86,99.63,17.92,99.63Zm1.61,45.94c-.2-.51-.54-1.41-.9-2.3a1,1,0,0,0-.32-.36c-.07-.05-.2,0-.3-.05a1.62,1.62,0,0,0,.05.26c.29.77.61,1.52.89,2.3.22.62.19.62-.39.54l-5.8-.84c-.82-.12-1,0-.77.82a2.9,2.9,0,0,1,.12.3,3,3,0,0,1,0,.44l-.21-.33-.24-.36c0,.15-.09.32,0,.44a6.82,6.82,0,0,0,1.21,2.27,4.72,4.72,0,0,0,2.83,1.38C17.78,150,19.45,148.49,19.53,145.57ZM20.06,125h0a1.66,1.66,0,0,0,0,.57c.12.36.25.94.47,1a1.34,1.34,0,0,0,1.09-.42,11.12,11.12,0,0,0,1-1.65c.08-.13.16-.24.25-.36a1.67,1.67,0,0,1,0,.45c-.3,1.24-.62,2.48-.9,3.73a1.67,1.67,0,0,0,.09.59,2,2,0,0,0,.61-.26A1.13,1.13,0,0,0,23,128c.41-1.76.81-3.53,1.19-5.3a2.69,2.69,0,0,0-.08-.81,3.81,3.81,0,0,0-.78.37,1.6,1.6,0,0,0-.31.56c-.43.85-.83,1.72-1.3,2.55a3.27,3.27,0,0,1-.7.67,3.47,3.47,0,0,1-.08-.91c.17-.94.4-1.86.58-2.79a1.61,1.61,0,0,0-.1-.56c-.39.25-1,.44-1.12.77A11.77,11.77,0,0,0,20.06,125ZM10,121.27a3.14,3.14,0,0,0-2.6,1.28,2,2,0,0,0-.17.56l.48-.23a9.23,9.23,0,0,1,1.58-.75c.25-.07.61.22.91.35a5.75,5.75,0,0,1-.44.87,2.38,2.38,0,0,1-.57.45,2.63,2.63,0,0,1-.27.15,2.17,2.17,0,0,1,0-.37c0-.16.07-.32.06-.48a1.1,1.1,0,0,0-.13-.33c-.08.06-.2.1-.25.18a2.77,2.77,0,0,0-.28.67c-.18.82-.33,1.65-.51,2.47,0,.2-.13.51-.26.55-.56.16-.35.34-.15.68a2.43,2.43,0,0,1,.12.93c.1,0,.27,0,.29-.06.25-.77.9-.48,1.42-.55a1.87,1.87,0,0,0,1.6-1.21,1.51,1.51,0,0,0-.36-1.8c-.72-.52-.34-.71.05-1.17a2.07,2.07,0,0,0,.45-1.51C10.88,121.62,10.23,121.42,10,121.27ZM43.66,87.82l-.18.06a1.81,1.81,0,0,0,.15.46c1,1.42,1.9,2.84,2.88,4.24a.76.76,0,0,1,0,1.06c-1,1.32-1.87,2.67-2.77,4a1.76,1.76,0,0,0-.12.65,2.05,2.05,0,0,0,.53-.33c1.29-1.53,2.57-3.07,3.82-4.63a.65.65,0,0,0,0-.62c-1.27-1.55-2.57-3.08-3.88-4.61A2.06,2.06,0,0,0,43.66,87.82Zm0,28.88a2.89,2.89,0,0,0,.37-.32c1.34-1.7,2.69-3.4,4-5.13a.74.74,0,0,0,0-.71c-1.28-1.43-2.59-2.83-3.92-4.22-.14-.15-.43-.17-.64-.26a2.58,2.58,0,0,0,.24.62q1.44,2,2.92,3.91a.69.69,0,0,1,0,1c-.78,1.07-1.48,2.2-2.21,3.32-.28.43-.53.88-.78,1.34C43.57,116.35,43.62,116.51,43.62,116.7ZM48.24,129c-.17-.21-.32-.43-.5-.62-1.1-1.16-2.19-2.33-3.31-3.47-.18-.18-.51-.2-.77-.3a2.89,2.89,0,0,0,.26.64c.85,1.19,1.7,2.39,2.61,3.53a.76.76,0,0,1,.05,1.06c-1,1.52-1.89,3-2.82,4.58a3.28,3.28,0,0,0-.23.65,2.26,2.26,0,0,0,.63-.41c1.09-1.45,2.17-2.91,3.23-4.37C47.68,129.9,47.93,129.48,48.24,129Zm.08-32.12s-.12-.14-.13-.13a1.87,1.87,0,0,0-.45.33c-1.27,1.53-2.52,3.07-3.79,4.59a.59.59,0,0,0,0,.91c1.22,1.33,2.42,2.69,3.64,4a3.25,3.25,0,0,0,.58.41,1.93,1.93,0,0,0-.13-.72q-1.25-1.9-2.57-3.77a.7.7,0,0,1,0-1c.92-1.37,1.75-2.8,2.61-4.21C48.18,97.21,48.24,97.06,48.32,96.88ZM18.5,113.09c0,.33,0,.65,0,1,0,.53.16.82.75.74a4.22,4.22,0,0,1,.57,0c1,0,1.55-.47,1.6-1.34a1.65,1.65,0,0,0-1.5-1.71C18.43,111.61,18.41,111.63,18.5,113.09Zm15-1.72c-.26.38-.49.56-.5.75a20.51,20.51,0,0,0,0,2.2c0,.15.24.41.34.4a.82.82,0,0,0,.51-.35,2.17,2.17,0,0,0,.17-.65,3.39,3.39,0,0,0,.57.51,7.64,7.64,0,0,0,1,.39,3.34,3.34,0,0,0-.29-.8c-.34-.5-.93-.93-.12-1.53.18-.14.25-.43.37-.65-.32.08-.64.15-.95.26-.11,0-.19.19-.28.29-.24.28-.41.39-.46-.12A3,3,0,0,0,33.53,111.37Zm-10.91,2a8.23,8.23,0,0,0,0,1.14.54.54,0,0,0,.36.38c.13,0,.3-.19.42-.33a2.29,2.29,0,0,0,.23-.45,4.06,4.06,0,0,1,.44.32c.14.13.22.36.37.42a2.47,2.47,0,0,0,.71.06,2.56,2.56,0,0,1-.18-.54,2.34,2.34,0,0,1,0-.6c.07-.43.32-1,.16-1.26a1.53,1.53,0,0,0-1.13-.54C22.62,111.87,22.62,111.91,22.62,113.34Zm-10.16,0c0-.05.07-.35,0-.47a1.58,1.58,0,0,0-.72-.36c-.12,0-.29.07-.43.11a2.16,2.16,0,0,0,.14.42,2.62,2.62,0,0,0,.3.37c-.24,0-.66.06-.7,0a3.09,3.09,0,0,1-.21-1.19,3.76,3.76,0,0,1,.86-.17l.55-.12a1.56,1.56,0,0,0-.24-.46,1.07,1.07,0,0,0-1.73.28A1.89,1.89,0,0,0,11,114.2C11.78,114.57,12.46,114.23,12.46,113.34Zm-5-1.17h0a11,11,0,0,0,0,1.14c0,.15.18.28.28.41.08-.12.16-.23.23-.36a2,2,0,0,0,.1-.28,1.55,1.55,0,0,1,.29.24c.11.15.17.36.3.48s.28.06.43.09c0-.12,0-.25,0-.37a7.53,7.53,0,0,0,0-.86,3.23,3.23,0,0,0-.26-1.51c-.21-.29-.85-.27-1.31-.39,0,.41-.08.83-.12,1.24C7.48,112.06,7.49,112.11,7.49,112.17Zm7.32,28.72a3.49,3.49,0,0,0-3.42,3.67,5.74,5.74,0,0,0,.1.94,5.85,5.85,0,0,0,.22-.86,3.13,3.13,0,0,1,1.85-2.93,3.65,3.65,0,0,1,3.49.5,1.26,1.26,0,0,0,.49.07c-.09-.12-.16-.31-.29-.36C16.44,141.54,15.62,141.22,14.81,140.88Zm-.34-26.22c.16-.2.34-.32.33-.41-.14-.91.45-1.53.81-2.25a1.64,1.64,0,0,0,.09-.43c-.16,0-.35-.1-.47,0a1.07,1.07,0,0,0-.43.43c-.23.43-.42.68-.67,0a.77.77,0,0,0-.26-.4,2.06,2.06,0,0,0-.59-.13,3,3,0,0,0,.08.49c.25.76.51,1.51.78,2.26A2.44,2.44,0,0,0,14.47,114.67Zm5.09-6a.86.86,0,0,0,0,.18c.07.31.15.63.23.94a5.46,5.46,0,0,1,.39-.72c0-.06.28-.07.37,0,.33.23.64.49,1,.75,0-.44.1-.88.14-1.31a.53.53,0,0,0,0-.24c-.08-.2-.19-.38-.28-.58-.1.17-.22.34-.31.52a2.45,2.45,0,0,0-.12.41l-.36-.3-.83-.68Zm-5.14-1.3c-.41-.11-.64.09-.58.64,0,.27,0,.54,0,.81,0,.71.32.94,1.19.8s.17-.44.11-.71a1.12,1.12,0,0,1,0-.76C15.73,107.2,15,107.39,14.42,107.33ZM5.7,110.42c-.06.09-.23.23-.24.37,0,.68,0,1.36,0,2s.52.51.86.62c.12,0,.3-.1.45-.16l-.6-.57-.25-.28.26-.14.41-.23c-.09-.14-.17-.3-.27-.43a4.14,4.14,0,0,0-.3-.34,1.19,1.19,0,0,0,.38-.08c.13-.08.3-.2.33-.33a.43.43,0,0,0-.21-.36A3.8,3.8,0,0,0,5.7,110.42Zm-.89,1.13c-.27-.37.58-1.37-.7-1.31-.14,0-.29-.16-.43-.24,0,.16,0,.32,0,.48,0,.49,0,1,0,1.47,0,.24,0,.59.1.69a3.18,3.18,0,0,0,.92.35c0-.3.1-.6.13-.89A5.38,5.38,0,0,0,4.82,111.55Zm12.56-4.1c-.12.08-.25.11-.28.19q-.36.87-.66,1.75s.34.22.4.18a.71.71,0,0,1,1.12.12.33.33,0,0,0,.32.06.37.37,0,0,0,.12-.33c-.2-.56-.41-1.12-.65-1.67C17.7,107.63,17.52,107.56,17.38,107.45ZM15.28,144c0,1.23.08,1.27,1,.8a.19.19,0,0,1,.15,0c0,.71.75-.07.9.4,0-.24,0-.49,0-.73a1.7,1.7,0,0,0-.12-.56,1.53,1.53,0,0,0-.28-.35,3.08,3.08,0,0,0-.31.3,1.4,1.4,0,0,0-.14.29,1.23,1.23,0,0,0-.2-.25c-.24-.18-.48-.34-.73-.51ZM45.36,36.65c-.53-.5-.85-1.06-1.25-1.13-.56-.09-.72.51-.71,1s.3,1.07.86,1C44.57,37.58,44.87,37.1,45.36,36.65ZM13.17,143.89c0,.8,0,.8.88.8.09,0,.18.1.28.12s.43.07.65.1a9.18,9.18,0,0,0,.06-1.3c0-.12-.31-.22-.48-.32-.12.44-.83-.49-.79.35a4,4,0,0,1-.1.76c-.05-.26-.1-.53-.16-.79a4,4,0,0,0-.15-.41,2.35,2.35,0,0,0-.19.38A1.19,1.19,0,0,0,13.17,143.89ZM45.06,17.65c0-.92-.44-1.59-.91-1.45a1.2,1.2,0,0,0-.69.8.92.92,0,0,0,1,1.13C44.7,18.07,44.93,17.75,45.06,17.65ZM27.42,113.36h0a7.86,7.86,0,0,0,0-1.14.56.56,0,0,0-.38-.38c-.13,0-.41.19-.42.31,0,.79,0,1.58,0,2.37,0,.13.27.33.42.34s.35-.21.37-.36A8.25,8.25,0,0,0,27.42,113.36ZM43.19,55.49c.41.46.64,1,1,1a.7.7,0,0,0,.86-.79c0-.51-.14-1.13-.81-1.06C43.9,54.71,43.62,55.13,43.19,55.49Zm2,37.83c-.43-.47-.67-.95-1-1-.57-.08-.82.44-.84,1s.12,1,.67.87C44.42,94.11,44.71,93.71,45.2,93.33Zm.2-18.63-1.13-1.07c-.24.32-.63.61-.69,1s.07,1,.69,1C44.6,75.51,44.89,75.1,45.4,74.7Zm0,73.63-1-.85a5.57,5.57,0,0,0-.82,1.15c-.06.15.35.48.55.73ZM45,129.53l-.66-.6a5.59,5.59,0,0,0-.81,1.19c-.06.16.29.66.54.73C44.48,131,45,130.29,45,129.53Zm.29-18.1-1-1c-.27.34-.68.65-.76,1s.37.6.57.91ZM6.55,116.57c-.18-.24-.3-.55-.53-.67a5.3,5.3,0,0,0-1.15-.35c-.18,0-.36-.06-.54-.09.12.1.28.17.34.3s.06.48.17.67a1.69,1.69,0,0,0,.51.51c.11.08.29.06.43.11s.41.2.47.15A2.08,2.08,0,0,0,6.55,116.57Zm3.7-8.06-.09.18c-.19-.12-.47-.2-.55-.38a.81.81,0,0,1,.06-.67c.05-.09.39,0,.6,0s.23.06.28,0,.08-.24,0-.27a2,2,0,0,0-.75-.42.76.76,0,0,0-.58.33A1.3,1.3,0,0,0,9.59,109a1.47,1.47,0,0,0,.87,0c.07,0,.1-.26.15-.4Zm19,26.95c.2.2.49.61.58.56.35-.15.81-.4.9-.71.14-.47-.27-.68-.75-.7S29.33,134.86,29.26,135.46ZM11.48,108.17c.09,1.19.2,1.34,1.1,1.24.13,0,.25-.14.37-.21-.1-.11-.19-.31-.29-.31-.52,0-.61-.25-.61-.71a3.89,3.89,0,0,0-.26-1Zm5.46,26.14c0,.09-.11.18-.09.26a5.25,5.25,0,0,0,.27.93c0,.07.38.1.39.06.23-.52.32-.27.46,0,0,.07.35.09.36.07.12-.35.22-.72.32-1.08l-.46.27a.2.2,0,0,1-.13,0C18,134,17,135.22,16.94,134.3ZM48.63,83.46c-.34-.37-.55-.8-.77-.8-.59,0-.74.53-.66,1,.05.29.37.54.57.8Zm0,36.24c-.34-.42-.53-.89-.76-.9-.59,0-.74.51-.67,1,0,.3.34.56.52.83Zm0-17.88-.8-.91c-.22.33-.55.64-.61,1s.3.57.48.85ZM27.08,4.52,26,5.28a3.18,3.18,0,0,0,1.08.42,2.94,2.94,0,0,0,1-.44Zm1.47,131.53A7,7,0,0,0,28.8,135c0-.08-.34-.31-.49-.28a2.81,2.81,0,0,0-.74.4C27.85,135.41,27.46,136.21,28.56,136.05Zm-2.84-.73h.07a2.55,2.55,0,0,0,0,.57c0,.05.21.07.33.1.12-.57.33-.29.56-.07.07.07.22.06.33.09V134.8c-.09.14-.16.31-.29.39s-.24-.08-.36-.14l-.53-.28Zm3.43-16.52.21.3c0-.12.13-.29.08-.37-.25-.42-.54-.82-.81-1.22-.23.41-.47.81-.69,1.22,0,.05,0,.22,0,.22Zm-2.75-.8c0,.89.33,1.15.9.94.05,0,0-.2.06-.3-.44,0-.2-.12-.05-.3s.22-.57.14-.63a.85.85,0,0,0-.72-.17C26.51,117.63,26.42,118,26.39,118Zm-3.06,1c.16-.1.37-.22.37-.23-.21-.4-.43-.8-.65-1.2-.25.35-.72.71-.71,1C22.36,119.41,23.1,118.35,23.33,119Zm.79,16.17a1.78,1.78,0,0,0,0,.37c.08.2.13.49.28.56s.46,0,.7,0l-.38-.3c.09-.07.22-.13.25-.23a7.08,7.08,0,0,0,.13-.77c-.24,0-.52-.13-.7,0S24.15,135.1,24.12,135.14Zm.78-26.07c.75-.05,1.31-.08,1.87-.13.09,0,.17-.1.26-.15a.87.87,0,0,0-.23-.12,15.28,15.28,0,0,0-1.67-.22c-.2,0-.41.21-.61.32Zm-4.43,9.08-.34-.63a1.6,1.6,0,0,0-.23.27c-.11.21-.19.43-.29.65-.09-.23-.17-.46-.26-.69s-.11-.2-.18-.22-.22.12-.22.16a2.63,2.63,0,0,0,.26,1,.72.72,0,0,0,.68.17C20.13,118.69,20.27,118.39,20.47,118.15ZM7.86,116.9l-.5-.62c-.4.7-.36-.29-.6-.15a.37.37,0,0,0-.14.26c0,.22-.09.53,0,.63a4.22,4.22,0,0,0,.89.51ZM2.7,109.43a1.64,1.64,0,0,0-.16.43c0,.41,0,.81,0,1.22s.07.68.1,1l.23-.73s.05,0,.06-.05c.24-.49-.27-1.06.18-1.53Zm16.39,25.87c.15.2.27.46.47.58s.4,0,.6,0c-.12-.27-.25-.53-.36-.8a.21.21,0,0,1,.05-.19,1.74,1.74,0,0,1,.31-.16,1.51,1.51,0,0,0-.33-.17C19.21,134.38,19.16,134.76,19.09,135.31Zm9.59,3,.27.2a3.09,3.09,0,0,1,.49-.75.76.76,0,0,1,.63,0,2.84,2.84,0,0,1,.63.41c-.14-.23-.26-.47-.41-.69s-.22-.35-.37-.41a.63.63,0,0,0-.56.05,6.48,6.48,0,0,0-.68,1C28.63,138.15,28.67,138.25,28.67,138.33Zm-12-19.69c.16-.14.41-.31.39-.35-.17-.34-.39-.65-.6-1l-.58,1Zm-2.47-.79c.2.22.41.64.7.71.56.14.61-.4.66-.79a1.54,1.54,0,0,0-.15-.56c-.09.16-.19.31-.27.48s-.15.34-.23.52l-.27-.54-.22-.43ZM16,134.14c-1.32.06.05.9-.55,1.11.14.11.31.33.41.3s.49-.28.47-.39A5.35,5.35,0,0,0,16,134.14Zm4.84,18.31c-.21,0-.4-.12-.52-.07a.69.69,0,0,0-.29.39c0,.11,0,.26.06.39.09-.1.16-.23.27-.27a.37.37,0,0,1,.31.12,1.1,1.1,0,0,1,.14.35l.18-.29.18-.31.17.32.19.29a1.05,1.05,0,0,0,.11-.36C21.61,152.47,21.3,152.32,20.86,152.45Zm8.95-34.26.18.68a3.1,3.1,0,0,1,.51-.37c.4-.18.31-.3,0-.43a1.29,1.29,0,0,1,.14-.26,1.93,1.93,0,0,1,.26-.22,2.11,2.11,0,0,0-.36-.11C30,117.41,29.75,117.64,29.81,118.19Zm-19-.92c.08.4.05.68.18.8s.43.14.65.2a1.48,1.48,0,0,1-.13-.36,3.8,3.8,0,0,1,0-.76c0-.08.15-.15.23-.22-.12,0-.28-.14-.36-.1A4.15,4.15,0,0,0,10.81,117.27Zm16.12,19.49c-.08.37-.15.5-.11.57a2.16,2.16,0,0,0,.35.44.9.9,0,0,0,1.58-.37c0-.05-.07-.14-.11-.21C28,137.8,27.43,138,26.93,136.76ZM14.39,26c.12,0,.19,0,.22-.08.52-.62,1-1.24,1.56-1.87,0-.05,0-.18,0-.28s-.22.05-.28.12q-.73.87-1.43,1.76C14.37,25.74,14.41,25.87,14.39,26Zm-3.85,91.6c0-.68,0-.67-.41-.56a.34.34,0,0,1-.21,0c-.38-.16-.4-.16-.35.25,0,.09-.36,1,.39.33,0,0,.15,0,.2,0a4.37,4.37,0,0,1,.32.34Zm10.27,17.64c0,.09,0,.12,0,.15.09.19.14.46.3.55s.41,0,.63,0c-.13-.11-.26-.22-.38-.33a.14.14,0,0,1,0-.12c.51-.14.34-.25,0-.35a.74.74,0,0,1,.12-.18,2.56,2.56,0,0,1,.29-.19,1.38,1.38,0,0,0-.33-.15C20.89,134.53,20.72,134.8,20.81,135.25Zm3.89-17.07c0,.81.44.83,1,.77a1,1,0,0,0,.27-.12,2.53,2.53,0,0,1-.27-.21,2.58,2.58,0,0,1-.41-.46,3.71,3.71,0,0,1-.24-.61ZM25.8,136.9c-.3.41-.54.71-.75,1a1.71,1.71,0,0,0-.14.39c.12-.05.27-.08.34-.17.41-.52.82-.67,1.29-.07,0,0,.18,0,.27-.06Zm-5.42,1.52c.33-.46.54-.74.73-1a1.19,1.19,0,0,0,.09-.34c-.09,0-.22,0-.28.11-.39.5-.76.52-1.16,0,0-.06-.21,0-.32,0Zm2.68-.52c-.27-.24-.61-.74-.89-.71s-.62.52-.92.82c0,0,0,.09,0,.14s.23,0,.27-.1c.36-.53.72-.53,1.11,0,.06.08.22.08.34.12ZM18.5,117.46a.85.85,0,0,0-.32-.07c-.14,0-.27.15-.41.16a1.68,1.68,0,0,1-.47-.1l.17.45a4.69,4.69,0,0,0,.25.59c0,.08.17.1.27.15Zm-6.39,16.65c0,.23,0,.33,0,.39a2.15,2.15,0,0,0,.38.58c.08.07.29,0,.45,0a2.83,2.83,0,0,1-.42-.4c-.07-.09,0-.26-.07-.38s-.12-.38-.19-.57Zm-2.62.21c.31.1.56.19.82.26,0,0,.17-.12.16-.15-.16-.4-.34-.79-.52-1.18Zm-4.18-1.93-.61-.77c-.07.2-.24.43-.19.59A3.65,3.65,0,0,0,5,133Zm18.54,20.42a4,4,0,0,0-.25-.72c-.06-.11-.26-.15-.4-.22,0,.13,0,.27,0,.4,0,.35.1.7.14,1.05a2.6,2.6,0,0,1,0,.39c.1-.08.25-.14.3-.25A4.08,4.08,0,0,0,23.84,152.81ZM6.73,107.3l-.8.26a7.71,7.71,0,0,0,1,.39c.09,0,.23-.18.35-.28ZM23,134.63l-.59.1a1.54,1.54,0,0,1,.28.37c.11.3.17.62.26.93.08-.32.15-.64.26-.95,0-.12.19-.2.28-.29Zm-9.1-.82a3.15,3.15,0,0,0-.48.79c0,.18.13.41.2.62.17-.37.35-.74.51-1.12C14.19,134.06,14.08,134,13.94,133.81ZM8.46,117l.38.8a5.91,5.91,0,0,0,.29-1c0-.1-.27-.23-.42-.35Zm13.7,34.77a2.64,2.64,0,0,0-.15.47,2.7,2.7,0,0,0,0,1c.08.2.4.31.61.45l.14-.24c-.7-.13-.43-.68-.49-1.1C22.29,152.16,22.25,152.05,22.16,151.72Zm-6-14.62h0a4.1,4.1,0,0,0,.43.67s.34-.06.43-.17a4.85,4.85,0,0,0,.42-.72,2.07,2.07,0,0,1-.53.28A2.92,2.92,0,0,1,16.2,137.1ZM10.9,134c0,.26,0,.43,0,.52a1.49,1.49,0,0,0,.47.35s.16-.07.25-.12a1.37,1.37,0,0,1-.33-.27,1.46,1.46,0,0,1-.13-.43c0-.16-.08-.33-.12-.49Zm3.46,2.81a2.79,2.79,0,0,0-.39-.27c-.26.2-.51.42-.76.63.09.07.23.22.27.2C13.75,137.24,14,137.05,14.36,136.83Zm-1.27-.22-.12-.07s-.05,0,0,.05a.78.78,0,0,0,.08.12Z" transform="translate(-0.23 -0.32)"/><path class="cls-3" d="M52.26,8.36a6,6,0,0,1,.2,3.79,3.29,3.29,0,0,0,.6,2.21,6.84,6.84,0,0,1,1.14,3.75c.07,4.63,0,9.26,0,13.89a2.33,2.33,0,0,1-.31.77c-.05-.23-.11-.47-.16-.7s-.74-.65.06-.89A9.59,9.59,0,0,0,53.45,30c-.16-.34-.19-.31.18-.37.11,0,.27-.17.27-.25,0-.45-.08-.91-.14-1.36,0-.1-.15-.23-.12-.29.59-1.14-.56-1.7-.85-2.54s.21-1,.67-1.13.48-.34.38-.7c-.5-1.84-.23-3.74-.39-5.6a4.79,4.79,0,0,0-2.66-3.92c-.75-.34-1.38-1-2.32-.75-.62-.82-1.2-1.67-1.86-2.45S45.22,9.24,44.53,8.5C44.4,8.35,44.2,8,44.25,8c.47-.48,1-.92,1.47-1.37.57.27,1.15.53,1.72.81a9.72,9.72,0,0,1,4,3.06A2.61,2.61,0,0,0,52,11a2.56,2.56,0,0,0,.25-.69C52.29,9.63,52.26,9,52.26,8.36ZM47.11,9.68s.2-.08.19-.12a2.16,2.16,0,0,0-.22-.75,4,4,0,0,0-.7-.73.72.72,0,0,0-.32.28C45.9,8.79,46.57,9.68,47.11,9.68Z" transform="translate(-0.23 -0.32)"/><path class="cls-2" d="M48.6,154.46a11.54,11.54,0,0,1-4,2.47c-4,1.68-8.34,2.23-12.64,2.71a4.62,4.62,0,0,1-.14-.46c0-.19-.05-.38-.08-.57.14.08.28.24.42.24a1.16,1.16,0,0,0,.7-.16,2.33,2.33,0,0,1,1.66-.63,21.66,21.66,0,0,0,3.6-.52c.08,0,.16-.1.24-.15-.11,0-.22-.14-.33-.14-.85,0-1.7.13-2.55.13-.25,0-.5-.24-.75-.37a2.66,2.66,0,0,1,.71-.42c1.53-.34,3.07-.62,4.6-1,.94-.2,1.88-.44,2.81-.7a4.74,4.74,0,0,0,.82-.44,2.68,2.68,0,0,1,.38-.13,2.53,2.53,0,0,0-.19.31.49.49,0,0,0,0,.2c.1,0,.24,0,.3,0,1-.84,2-1.67,3-2.54a7.27,7.27,0,0,0,.78-1,2.28,2.28,0,0,1,.3-.28c0,.15.05.35,0,.45a18.56,18.56,0,0,1-1.63,2.21A1.54,1.54,0,0,0,46.3,155c.46-.05.93-.07,1.38-.16A5.75,5.75,0,0,0,48.6,154.46Zm-8.68,2.4-1,.41c.08,0,.17.11.23.09.4-.11.8-.25,1.2-.38Z" transform="translate(-0.23 -0.32)"/><path class="cls-2" d="M45.72,6.61c-.5.45-1,.89-1.47,1.37,0,0,.15.37.29.52.68.74,1.42,1.42,2.06,2.19s1.24,1.63,1.86,2.45l-.07.77c-1.14-2.11-3-3.59-4.69-5.21-1.17-1.11-1.17-1.11,0-2.2a4.48,4.48,0,0,0,.36-.43c.8-.34,1.6-.66,2.38-1,.09,0,.11-.26.16-.39-1.09-.13-2.06-1.43-3.29-.36-.1.09-.3.05-.45.07a1.47,1.47,0,0,0,0-.42c0-.17-.11-.42-.23-.47a6.18,6.18,0,0,0-1-.19l-6.24-1a1.57,1.57,0,0,1,1.81-.83,9,9,0,0,0,2,.18c.21,0,.43-.19.65-.29a27.65,27.65,0,0,1,8.44,2.73,23.28,23.28,0,0,1,2,1.46c0,.1-.13.22-.11.31a2.09,2.09,0,0,0,.21.45,2,2,0,0,1-.54-.1c-.56-.27-1.11-.56-1.64-.88a.94.94,0,0,0-1.41.2A10.87,10.87,0,0,1,45.72,6.61Z" transform="translate(-0.23 -0.32)"/><path class="cls-3" d="M53.91,32.75a2.91,2.91,0,0,1,.3.88q0,10.32,0,20.63a3.69,3.69,0,0,1-.08.55l-1.27-1a2.39,2.39,0,0,1,.33-.33,1.16,1.16,0,0,1,.35-.1,2.07,2.07,0,0,0-.22-.31,3.31,3.31,0,0,1-.48-2.39c0-.06.16-.09.25-.1s.32,0,.47,0a2.49,2.49,0,0,1-.39-.39,5.79,5.79,0,0,1-.33-.67,2.37,2.37,0,0,0,.56.11c.13,0,.38-.14.37-.18-.05-.33-.17-.65-.24-1,0-.17-.1-.46,0-.5.73-.41.2-.66-.09-1l-.47-.5c.19,0,.43,0,.57,0s.35-.36.32-.51c-.14-.7-.37-1.37-.53-2.06a.37.37,0,0,1,.14-.32c.9-.29.36-.9.16-1.21s-.67-.65-.27-1.18c0,0,0-.22-.08-.27-.78-.62-.38-1.47-.4-2.22s.44-.2.71-.18l.27.34s.09-.09.09-.1-.17-.23-.25-.35c.09-.15-.5-.5.16-.52.1,0,.31-.41.25-.51-.34-.59-.74-1.14-1.12-1.7h0c.05-.31-.35-.84.52-.69.61.1.47-.59.44-1a2,2,0,0,0-.32-.73C53.29,32.82,53.57,32.77,53.91,32.75Z" transform="translate(-0.23 -0.32)"/><path class="cls-3" d="M48.33,64.31c.15.1.43.22.42.31-.11.79.55,1.64-.22,2.38-.1.1,0,.46.07.69s.25.4.21.56c-.13.58-.56,1.15.09,1.68l-.37.42c-1-1.73-2-3.46-3-5.21a.76.76,0,0,1,0-.67c.8-1.16,1.64-2.29,2.46-3.43,0,0,.06,0,.05.06-.61,1.13.3,2.13.27,3.22a3.53,3.53,0,0,0-.79,0,4.6,4.6,0,0,0-.08,1.35c0,.11.55.28.56.26a3.79,3.79,0,0,0,.47-1C48.54,64.74,48.39,64.52,48.33,64.31Z" transform="translate(-0.23 -0.32)"/><path class="cls-2" d="M47.51,38.6c-1,.9-2,1.82-3,2.7a3.2,3.2,0,0,1-.83.37,3.26,3.26,0,0,1,.35-1c.81-1,1.67-2,2.54-3a.94.94,0,0,0,.09-1.34c-1-1.54-1.93-3.13-2.89-4.71a.9.9,0,0,1-.15-.28c0-.22,0-.44-.06-.66A1.89,1.89,0,0,1,44,31c1.16,1.54,2.31,3.1,3.46,4.65a10.1,10.1,0,0,1,.61,1.2,3.12,3.12,0,0,1,.06.88l-.66.88Z" transform="translate(-0.23 -0.32)"/><path class="cls-2" d="M47,19.88c-.94.78-1.86,1.57-2.81,2.33-.15.12-.4.1-.6.15a1.78,1.78,0,0,1,.19-.64c.88-1.07,1.75-2.14,2.7-3.15a1,1,0,0,0,.17-1.4c-1-1.7-2-3.44-2.93-5.18a3.15,3.15,0,0,1-.2-.64,2.07,2.07,0,0,1,.58.4c1.2,1.71,2.38,3.43,3.57,5.15.17.25.31.51.46.77a1,1,0,0,1-.39,1.48A6.39,6.39,0,0,0,47,19.88Z" transform="translate(-0.23 -0.32)"/><path class="cls-2" d="M47.3,31.92C46.21,30.28,45.15,28.61,44,27c-.41-.56-.3-.81.14-1.19,1.26-1.11,2.49-2.24,3.73-3.37l.53-.05-.25.83-.66,1h0c-.69.76-1.4,1.52-2.07,2.3a.54.54,0,0,0-.06.49c.7,1.23,1.42,2.44,2.13,3.65.27.64.55,1.28.81,1.93a2.07,2.07,0,0,1,.07.51,2.74,2.74,0,0,1-.36-.3C47.78,32.52,47.54,32.22,47.3,31.92Z" transform="translate(-0.23 -0.32)"/><path class="cls-2" d="M48.5,52.08a3.41,3.41,0,0,1-.59-.49c-1.33-1.72-2.64-3.46-4-5.19A.75.75,0,0,1,44,45.26q1.59-1.53,3.17-3.07c.25-.25.48-.52.72-.77l.49-.06-.26.69c-.87,1.18-1.75,2.35-2.59,3.55a.91.91,0,0,0-.13.77c.88,1.53,1.81,3,2.72,4.54l.12.32.2.5Z" transform="translate(-0.23 -0.32)"/><path class="cls-2" d="M48.36,78.89c-.94,1.43-1.85,2.87-2.83,4.27a.63.63,0,0,0,0,.89c.87,1.27,1.69,2.58,2.5,3.89a3,3,0,0,1,.21.89,3.85,3.85,0,0,1-.68-.51C46.38,86.9,45.2,85.49,44,84a.86.86,0,0,1-.08-.8c1.27-1.52,2.58-3,3.9-4.49a1.88,1.88,0,0,1,.62-.3Z" transform="translate(-0.23 -0.32)"/><path class="cls-2" d="M48,75.42c-1.12,1.21-2.24,2.44-3.38,3.63a4.5,4.5,0,0,1-1,.59,7.88,7.88,0,0,1,.5-1c.82-1.18,1.65-2.37,2.52-3.52a.68.68,0,0,0,0-1c-1-1.49-2-3-2.91-4.52a2.29,2.29,0,0,1-.17-.51c.18.07.43.08.54.21,1.13,1.36,2.24,2.73,3.34,4.11.22.27.42.56.63.85l.16.3-.06.33a.1.1,0,0,0-.08.12l-.17.37Z" transform="translate(-0.23 -0.32)"/><path class="cls-2" d="M48,61c-.83,1.14-1.66,2.27-2.46,3.43a.76.76,0,0,0,0,.67c1,1.75,2,3.47,3,5.21l0,.17a6.19,6.19,0,0,1-.8-.71Q45.82,67.47,44,65.09c-.12-.16-.18-.56-.08-.67,1.45-1.54,2.92-3,4.39-4.56Z" transform="translate(-0.23 -0.32)"/><path class="cls-2" d="M43.66,153.47c1-1.75,1.92-3.53,2.95-5.25a.81.81,0,0,0-.16-1.17c-.92-1-1.79-2-2.66-3.07a1.85,1.85,0,0,1-.21-.62,2,2,0,0,1,.64.22c1.33,1.11,2.64,2.25,4,3.38l-.33,1.18-1.55,2.38-.09.14L45.34,152l-.12.14-.34.5Z" transform="translate(-0.23 -0.32)"/><path class="cls-2" d="M48.33,143c-.78-.61-1.57-1.22-2.35-1.84-.59-.48-1.13-1-1.74-1.47a1,1,0,0,1-.31-1.52c1.26-1.7,2.54-3.39,3.81-5.07a1.93,1.93,0,0,1,.36-.29,1.64,1.64,0,0,1-.08.51c-.79,1.49-1.52,3-2.41,4.43a1.09,1.09,0,0,0,.16,1.57c.91,1.07,1.73,2.22,2.58,3.34Z" transform="translate(-0.23 -0.32)"/><path class="cls-3" d="M48.17,50.9c-.91-1.51-1.84-3-2.72-4.54a.91.91,0,0,1,.13-.77c.84-1.2,1.72-2.37,2.59-3.55-.1.47-.17.94-.3,1.39s-.36.77-.46,1.18-.28.85.51.5c.57-.25.33.35.42.6a3.66,3.66,0,0,0-.85-.06,2.22,2.22,0,0,0-.12,1.21c.08.24.53.37.81.55-.08.34-.16.67-.22,1,0,.15-.1.36,0,.45A1.85,1.85,0,0,1,48.17,50.9Z" transform="translate(-0.23 -0.32)"/><path class="cls-3" d="M47.51,30.65c-.71-1.21-1.44-2.42-2.13-3.65a.54.54,0,0,1,.06-.49c.68-.78,1.38-1.53,2.07-2.3-.36.85.3,1.49.48,2.23-.94.29-1,1-.28,2a4.33,4.33,0,0,0-.32,1A6.22,6.22,0,0,0,47.51,30.65Z" transform="translate(-0.23 -0.32)"/><path class="cls-3" d="M53.35,92.92l-.56.16H52.6q-.09-2.9-.18-5.8c0-.36,0-.8.51-.67a.86.86,0,0,1,.43.66c0,1.84,0,3.69.06,5.53A.31.31,0,0,1,53.35,92.92Z" transform="translate(-0.23 -0.32)"/><path class="cls-3" d="M53.88,69.3c0,.16,0,.34,0,.36-.81.26-.35.37-.08.83s.1,1.36.09,2.07c0,0-.21.15-.31.13-.3-.06-.69-.08-.86-.27a2,2,0,0,1-.06-2.72A4.08,4.08,0,0,1,53.76,69Z" transform="translate(-0.23 -0.32)"/><path class="cls-3" d="M54,74.94l0,4.6c-1.37.18-1.62-.18-1.2-1.56.09-.31-.13-.7-.17-1.06a3.69,3.69,0,0,1,0-.95c0-.12,0-.42.42-.13s.86,0,.84-.9H54Zm-.62,3.65-.18-.14c0,.06-.11.12-.11.18s.09.1.14.15Zm.42-1s0-.1-.07-.11-.08,0-.13,0l.1.15ZM53,77.11s.07-.08.07-.12,0-.08-.07-.12-.07.08-.07.12S53,77.07,53,77.11Z" transform="translate(-0.23 -0.32)"/><path class="cls-3" d="M53.82,83.49c-.16.63-.3,1.27-.48,1.89,0,.12-.21.21-.31.32-.05-.11-.08-.27-.17-.34-.72-.54-.29-1.24-.33-1.89s.22-.53.53-.59c.13,0,.28,0,.4,0,.27-.1.27-.11.27.17s0,.27,0,.41Z" transform="translate(-0.23 -0.32)"/><path class="cls-3" d="M53.51,142.48c0,2,0,3.91-.12,5.86a2.68,2.68,0,0,1-.38.88c-.06-.05-.16-.11-.16-.16.08-2.06.17-4.13.29-6.19C53.14,142.74,53.38,142.61,53.51,142.48Z" transform="translate(-0.23 -0.32)"/><path class="cls-3" d="M53.88,99.15l0,4.59c-.11-.08-.28-.25-.31-.22-1.14.81-.45-.37-.62-.59s0-.32,0-.47a3.82,3.82,0,0,1,.28-.55l.16.56.12.44a2.73,2.73,0,0,0,.08-.46c0-1.28,0-2.55,0-3.83a3.09,3.09,0,0,1,0-.36c0,.13,0,.25.07.38S53.82,99,53.88,99.15Z" transform="translate(-0.23 -0.32)"/><path class="cls-2" d="M52.6,93.07h.19c0,.64-.06,1.28-.08,1.92s0,1.4-.06,2.1c0,.13-.16.26-.24.39-.1-.13-.28-.26-.28-.4,0-.87,0-1.74,0-2.61a3.27,3.27,0,0,1,0-.89C52.19,93.39,52.44,93.24,52.6,93.07Z" transform="translate(-0.23 -0.32)"/><path class="cls-3" d="M53.87,65.22c0,.16,0,.33,0,.49,0,.31-.06.62-.1.94L53,66.15l-.3-.21.42-.14.46-.15-.4-.22-.27-.14.22-.13a.62.62,0,0,0,0-1.11,6.83,6.83,0,0,1-.52-.47,1.9,1.9,0,0,1,.72-.1.76.76,0,0,1,.49.45A7.72,7.72,0,0,1,53.87,65.22Z" transform="translate(-0.23 -0.32)"/><path class="cls-2" d="M47.71,28.48c-.76-1-.66-1.74.28-2a7.39,7.39,0,0,1,.49,1.15C48.62,28.19,48.34,28.51,47.71,28.48Z" transform="translate(-0.23 -0.32)"/><path class="cls-2" d="M48.17,47.42c-.28-.18-.74-.31-.81-.55a2.22,2.22,0,0,1,.12-1.21,3.66,3.66,0,0,1,.85.06l.19.45q0,.39,0,.79Z" transform="translate(-0.23 -0.32)"/><path class="cls-3" d="M53.9,74.94c-.38-.1-1,.3-1.05-.53,0,0-.31,0-.43-.05s-.26-.27-.24-.36a.74.74,0,0,1,.35-.38c.06,0,.22.11.33.15a.51.51,0,0,0,.3.06,3.44,3.44,0,0,0,.5-.26,2.67,2.67,0,0,1,.22.57,5.86,5.86,0,0,1,0,.81Z" transform="translate(-0.23 -0.32)"/><path class="cls-3" d="M53.88,61.91c0,.11,0,.22,0,.33s0,.48,0,.73a4.73,4.73,0,0,0-.43-.41c-.12-.09-.29-.13-.42-.22a3.26,3.26,0,0,1-.36-.34c.13-.11.26-.31.38-.3.59,0,.39-.39.42-.67a2.73,2.73,0,0,0,0-.43c.16.15.41.27.46.45a3.39,3.39,0,0,1,0,.89Z" transform="translate(-0.23 -0.32)"/><path class="cls-3" d="M54,80l0,1.32-.22-1a4.77,4.77,0,0,1-.07,1c-.06.21-.31.37-.47.56a4.7,4.7,0,0,1-.58-.8c0-.09.18-.35.34-.47C53.3,80.43,53.66,80.23,54,80Z" transform="translate(-0.23 -0.32)"/><path class="cls-3" d="M53.85,104.54l0,1.67a3.64,3.64,0,0,1-.68-.16c-.17-.08-.4-.22-.44-.37a.68.68,0,0,1,.17-.58A6.32,6.32,0,0,1,53.85,104.54Z" transform="translate(-0.23 -0.32)"/><path class="cls-3" d="M54.07,56v1a4,4,0,0,1-.93-.47c-.19-.16-.24-.49-.35-.74a3.64,3.64,0,0,1,.7,0A2.82,2.82,0,0,1,54.07,56Z" transform="translate(-0.23 -0.32)"/><path class="cls-3" d="M52.76,66.9c.38.36.75.7,1.09,1.06,0,0,0,.29,0,.28-.36,0-.9,0-1-.16s-.08-.76-.1-1.15C52.66,66.92,52.75,66.91,52.76,66.9Z" transform="translate(-0.23 -0.32)"/><path class="cls-3" d="M46.29,150.52l1.55-2.38a15.37,15.37,0,0,1-.64,2.06C47.1,150.4,46.6,150.42,46.29,150.52Z" transform="translate(-0.23 -0.32)"/><path class="cls-3" d="M54.07,57.94v.31c-.22.22-.44.44-.65,0a.57.57,0,0,0-.08-.14l-.65-.7,1.2.4A.92.92,0,0,1,54.07,57.94Z" transform="translate(-0.23 -0.32)"/><path class="cls-3" d="M51.57,113.51c-.2,0-.44.19-.6.12s-.45-.33-.46-.51.24-.42.37-.62l.47.63Z" transform="translate(-0.23 -0.32)"/><path class="cls-3" d="M53.24,59.3c.27.28.46.47.63.68,0,0-.21.25-.24.23-.29-.15-.56-.34-.84-.52Z" transform="translate(-0.23 -0.32)"/><path class="cls-2" d="M53.35,92.92a.31.31,0,0,0,.08-.11l.45-.18v1.29C53.09,93.9,53.54,93.24,53.35,92.92Z" transform="translate(-0.23 -0.32)"/><path class="cls-3" d="M45.34,152l.86-1.33C46.1,151.23,46.33,152,45.34,152Z" transform="translate(-0.23 -0.32)"/><path class="cls-3" d="M47.5,24.22l.66-1C48.33,23.82,48,24.08,47.5,24.22Z" transform="translate(-0.23 -0.32)"/><path class="cls-3" d="M51.33,90.6l-.29.31c-.07-.09-.18-.18-.21-.28s.1-.23.15-.23A1.18,1.18,0,0,1,51.33,90.6Z" transform="translate(-0.23 -0.32)"/><path class="cls-3" d="M47.5,38.62l.66-.88Z" transform="translate(-0.23 -0.32)"/><path class="cls-3" d="M48.52,47q0-.39,0-.79C49,46.43,48.95,46.69,48.52,47Z" transform="translate(-0.23 -0.32)"/><path class="cls-3" d="M53.51,141.34v.86C53.14,141.91,53.13,141.63,53.51,141.34Z" transform="translate(-0.23 -0.32)"/><path class="cls-3" d="M44.88,152.64l.34-.5Z" transform="translate(-0.23 -0.32)"/><path class="cls-3" d="M48.49,51.72l-.2-.5Z" transform="translate(-0.23 -0.32)"/><path class="cls-3" d="M48.16,138.57l-.48.34h0l.47-.35Z" transform="translate(-0.23 -0.32)"/><path class="cls-3" d="M48.24,74.94l.06-.33Z" transform="translate(-0.23 -0.32)"/><path class="cls-3" d="M48,75.43l.17-.37Z" transform="translate(-0.23 -0.32)"/><polygon class="cls-3" points="52.69 35.36 52.65 35.4 52.69 35.36 52.69 35.36"/><path class="cls-2" d="M53.87,94.26a.25.25,0,0,1,0,.14l-.06-.11Z" transform="translate(-0.23 -0.32)"/><path class="cls-3" d="M54,81.65q0,.08,0,.17a.71.71,0,0,1,0-.12S54,81.66,54,81.65Z" transform="translate(-0.23 -0.32)"/><path class="cls-1" d="M41.62,3.28a6.18,6.18,0,0,1,1,.19c.12,0,.19.3.23.47a1.47,1.47,0,0,1,0,.42c.15,0,.35,0,.45-.07,1.23-1.07,2.2.23,3.29.36-.05.14-.07.35-.16.39-.79.36-1.59.69-2.38,1A44.47,44.47,0,0,0,33,4.1C30,4,27.12,3.74,24.2,3.84a59.57,59.57,0,0,0-8.39.93,55.22,55.22,0,0,0-7.54,2,21.11,21.11,0,0,0-3.63,2l-.56.4a2.72,2.72,0,0,1-.32.24c-.21.12-.44.22-.66.33a1.9,1.9,0,0,1,.32-.6C4.3,8.4,5.21,7.68,6.1,6.95a2.5,2.5,0,0,0,.36-.48,2.71,2.71,0,0,0-.52.14,7.7,7.7,0,0,0-3.91,4l-.13-1,1.59-3s0-.1,0-.16l0-.14h0L4.82,5.25h0L6.63,4.2l.15-.08C7,4,7.3,4,7.55,3.86a34.47,34.47,0,0,1,9-2.39,5.91,5.91,0,0,0,1-.3h.17l.81-.08L19.37,1l.17-.06,1-.08.78,0a5.33,5.33,0,0,0,1.17.59c.79.18,1.6.24,2.4.38.16,0,.3.19.44.29-.08.06-.15.16-.23.17l-2,.19q-1.33.14-2.66.32A2.14,2.14,0,0,0,20,3a2,2,0,0,0,.51.12c1.76,0,3.53-.16,5.29-.16,2.46,0,4.91.06,7.37.13,1.67,0,3.36-.3,5,.28.07,0,.19-.1.29-.11a6,6,0,0,1,.86-.06C40.09,3.21,40.86,3.25,41.62,3.28Z" transform="translate(-0.23 -0.32)"/><path class="cls-3" d="M41.62,3.28c-.77,0-1.53-.08-2.3-.1a6,6,0,0,0-.86.06c-.1,0-.22.14-.29.11-1.64-.59-3.33-.24-5-.28-2.46-.07-4.91-.13-7.37-.13-1.76,0-3.53.11-5.29.16A2,2,0,0,1,20,3a2.14,2.14,0,0,1,.47-.18q1.33-.17,2.66-.32l2-.19c.08,0,.15-.11.23-.17-.15-.1-.28-.26-.44-.29-.8-.14-1.61-.2-2.4-.38A5.33,5.33,0,0,1,21.32.88c.92-.16,1.84-.47,2.7.2.07.06.29-.06.44-.1h.49c1.73,0,3.46,0,5.19,0a1.46,1.46,0,0,0,.48-.19c-.14-.08-.28-.22-.43-.23-.7-.06-1.4-.09-2.1-.13V.38l7,.36c-.2.76-.78.25-1.16.32-1.64.3-3.29.5-4.94.76a2.23,2.23,0,0,0-.57.27,1.92,1.92,0,0,0,.63.22c.92,0,1.84-.13,2.76-.12,1.19,0,2.38.09,3.58.14Z" transform="translate(-0.23 -0.32)"/><path class="cls-1" d="M45.72,6.61a10.87,10.87,0,0,0,1.11-1.05.94.94,0,0,1,1.41-.2c.53.32,1.09.6,1.64.88a2,2,0,0,0,.54.1,2.09,2.09,0,0,1-.21-.45c0-.09.07-.21.11-.31a5.32,5.32,0,0,1,1.94,2.79c0,.63,0,1.27,0,1.9A2.56,2.56,0,0,1,52,11a2.61,2.61,0,0,1-.57-.47,9.72,9.72,0,0,0-4-3.06C46.87,7.14,46.29,6.88,45.72,6.61Z" transform="translate(-0.23 -0.32)"/><path class="cls-1" d="M35.38,2.32c-1.19,0-2.38-.13-3.58-.14-.92,0-1.84.1-2.76.12a1.92,1.92,0,0,1-.63-.22A2.23,2.23,0,0,1,29,1.81c1.65-.26,3.3-.46,4.94-.76.38-.07,1,.44,1.16-.32l4.75.64c-.22.1-.43.29-.65.29a9,9,0,0,1-2-.18A1.57,1.57,0,0,0,35.38,2.32Z" transform="translate(-0.23 -0.32)"/><path class="cls-4" d="M24.46,1c-.15,0-.36.16-.44.1-.86-.67-1.79-.36-2.7-.2l-.78,0-1,.08L19.37,1c-.32-.06-.64-.12-1-.17,0,0-.09.09-.14.15l.29.12-.81.08L17.33,1s0,.06-.06.09l.31.07a5.91,5.91,0,0,1-1,.3,34.47,34.47,0,0,0-9,2.39C7.3,4,7,4,6.78,4.12c.12-.16.21-.4.37-.47,1.32-.5,2.63-1,4-1.44,1.58-.47,3.17-.89,4.79-1.21A48.82,48.82,0,0,1,26,.33l2,0s0,.06,0,.09c-.84,0-1.68,0-2.52.06A4.15,4.15,0,0,0,24.46,1Z" transform="translate(-0.23 -0.32)"/><path class="cls-3" d="M2,10.65a7.7,7.7,0,0,1,3.91-4,2.71,2.71,0,0,1,.52-.14,2.5,2.5,0,0,1-.36.48c-.89.74-1.8,1.45-2.68,2.2a1.9,1.9,0,0,0-.32.6c.22-.11.44-.21.66-.33a2.72,2.72,0,0,0,.32-.24l.32.89v.22c-.08.06-.23.11-.24.18-.09.6-.3,1-1,.68a3.21,3.21,0,0,0-.3.48l-.48.67Z" transform="translate(-0.23 -0.32)"/><path class="cls-3" d="M3.48,6.53c0,.05,0,.12,0,.16l-1.59,3a4.37,4.37,0,0,1,1.6-3.8V6.4h0l-.23.08Z" transform="translate(-0.23 -0.32)"/><path class="cls-5" d="M2.36,12.28l.48-.67a1.91,1.91,0,0,1-.62,2.23c-.13.11-.13.39-.19.59l-.79,1.1,0-.69c.3-.52.63-1,.89-1.58A5.16,5.16,0,0,0,2.36,12.28Z" transform="translate(-0.23 -0.32)"/><path class="cls-2" d="M1.35,78.24q0,1.87,0,3.75,0,1.35,0,2.7l-.18.06-.07-6.5Z" transform="translate(-0.23 -0.32)"/><path class="cls-1" d="M1.35,78.24H1.18l-.09-3.81.21,0Z" transform="translate(-0.23 -0.32)"/><path class="cls-1" d="M.64,46A6.1,6.1,0,0,1,1,47.48C1,48.77,1,50.07.89,51.36A3.76,3.76,0,0,1,.73,52Z" transform="translate(-0.23 -0.32)"/><path class="cls-1" d="M1.24,84.75l.18-.06q0,1.85.08,3.71H1.31Z" transform="translate(-0.23 -0.32)"/><path class="cls-4" d="M1.21,14.85l0,.69Q1,17.16.74,18.78a.81.81,0,0,1-.09.2,1,1,0,0,1-.08-.22c-.06-.46-.1-.93-.16-1.39l.14-.48.17-.32Z" transform="translate(-0.23 -0.32)"/><path class="cls-2" d="M1.3,74.4l-.21,0V69.55Z" transform="translate(-0.23 -0.32)"/><path class="cls-1" d="M.52,36.11c.06.11.17.23.17.34q0,2.58,0,5.16c0,.09-.1.18-.15.27Z" transform="translate(-0.23 -0.32)"/><path class="cls-2" d="M1.51,89.21c0,1.61,0,3.22,0,4.82a5.4,5.4,0,0,1-.13.85l-.06-5.7Z" transform="translate(-0.23 -0.32)"/><path class="cls-4" d="M6.63,4.2,4.82,5.26A1.51,1.51,0,0,1,6.63,4.2Z" transform="translate(-0.23 -0.32)"/><path class="cls-1" d="M1.51,102.1a7.64,7.64,0,0,1,.18,1.06c0,.95,0,1.89,0,2.84a5.36,5.36,0,0,1-.17-.88C1.51,104.12,1.52,103.11,1.51,102.1Z" transform="translate(-0.23 -0.32)"/><path class="cls-1" d="M.56,27.33c0,1,0,2,0,3a4,4,0,0,1-.15.76c0-1.13,0-2.25,0-3.38C.38,27.58.5,27.46.56,27.33Z" transform="translate(-0.23 -0.32)"/><path class="cls-4" d="M3.51,6.4V5.9l.17-.17h0L4,5.4H4l.17-.17h.38l.28,0Z" transform="translate(-0.23 -0.32)"/><path class="cls-1" d="M.81,56.8a3.11,3.11,0,0,1,.23.77c0,.67,0,1.35,0,2l-.12,0Z" transform="translate(-0.23 -0.32)"/><path class="cls-2" d="M.9,59.57l.12,0L.91,62.32Z" transform="translate(-0.23 -0.32)"/><path class="cls-1" d="M1.48,100.8l0,1Z" transform="translate(-0.23 -0.32)"/><path class="cls-6" d="M.4,33.55l0,1Z" transform="translate(-0.23 -0.32)"/><path class="cls-2" d="M1.31,88.38H1.5v.42H1.33Z" transform="translate(-0.23 -0.32)"/><path class="cls-3" d="M4,5.4l-.33.33Z" transform="translate(-0.23 -0.32)"/><path class="cls-1" d="M1.33,88.82H1.5v.4l-.17,0Z" transform="translate(-0.23 -0.32)"/><path class="cls-1" d="M4.2,151.69l.28.32Z" transform="translate(-0.23 -0.32)"/><path class="cls-3" d="M.72,16.56l-.17.32Z" transform="translate(-0.23 -0.32)"/><path class="cls-3" d="M4.54,5.23h0Z" transform="translate(-0.23 -0.32)"/><path class="cls-3" d="M4.16,5.24,4,5.41Z" transform="translate(-0.23 -0.32)"/><path class="cls-3" d="M3.66,5.73,3.5,5.9Z" transform="translate(-0.23 -0.32)"/><path class="cls-2" d="M15,66.65c-2.23.09-4.46.16-6.7.27-.57,0-.69-.14-.77-.71a4.24,4.24,0,0,1,1.71-4.06c1.81-1.52,3.55-3.14,5.32-4.71a1.56,1.56,0,0,0,.24-.21c.13-.19.25-.38.37-.58a5.72,5.72,0,0,0-.63,0c-2.1.11-4.2.18-6.3.35-.82.06-1.06-.21-1-1a11.15,11.15,0,0,0,0-1.39c0-1.11,0-1.13,1.06-1.21q5.57-.37,11.14-.7a22.9,22.9,0,0,1,2.37,0,.61.61,0,0,1,.47.28,3.14,3.14,0,0,1-1.12,3.37c-2.74,2.16-5.46,4.35-8.19,6.53a2.31,2.31,0,0,0-.3.35h.48c2.89-.07,5.77-.14,8.66-.24.52,0,.73.11.71.67,0,.79,0,1.58.05,2.37s-.48.48-.8.49c-2.1,0-4.2.07-6.29.09H15Z" transform="translate(-0.23 -0.32)"/><path class="cls-2" d="M22,33.49a18.45,18.45,0,0,1,0,2,1,1,0,0,1-.54.59c-.91.43-1.85.8-2.77,1.2-.34.15-.64.27-.27.74s.49,1,.83,1.38a1.58,1.58,0,0,1,0,2.17c-.27.41-.46.86-.71,1.28s-.08.87.45,1q1.28.38,2.57.72a.67.67,0,0,1,.6.78,23.78,23.78,0,0,0,.11,2.52c0,.46-.08.58-.55.42-1.08-.37-2.17-.71-3.27-1-1.26-.38-2.54-.71-3.79-1.13-2.44-.8-4.86-1.64-7.28-2.49-.17-.06-.28-.32-.4-.49S7,43,7,43c-.15-2.68-.21-2.77,2-4.21s4.53-2.73,6.87-4c1.84-1,3.78-1.79,5.65-2.7.38-.18.49-.14.49.26s0,.76,0,1.14ZM16.4,40.57a11.24,11.24,0,0,0-.82-1.33.76.76,0,0,0-.69-.19c-1.26.64-2.49,1.33-3.73,2a1.43,1.43,0,0,0-.28.27,1.15,1.15,0,0,0,.3.21l3.68,1c.14,0,.4.08.44,0C15.69,41.94,16,41.26,16.4,40.57Z" transform="translate(-0.23 -0.32)"/><path class="cls-2" d="M12.91,71.31h4c3.47,0,5.81,2.11,6,5.58A13.31,13.31,0,0,1,22.37,81,4.16,4.16,0,0,1,18.6,84.1c-2.49.25-5,.18-7.53.23-.9,0-1.8-.07-2.69-.07-.41,0-.59-.11-.57-.56,0-.79,0-1.58,0-2.37,0-.46.11-.59.6-.58,2.45,0,4.9,0,7.34,0a9.88,9.88,0,0,0,1.38-.07,2.88,2.88,0,0,0,2.35-4.23A2.58,2.58,0,0,0,16.86,75c-2.2,0-4.4.05-6.6.09a18.43,18.43,0,0,1-2.12,0,.82.82,0,0,1-.51-.61,18,18,0,0,1,.06-2.52c0-.16.37-.41.57-.42,1.55,0,3.1,0,4.65,0Z" transform="translate(-0.23 -0.32)"/><path class="cls-2" d="M17.92,99.63c-1.06,0-2.12.06-3.18,0-2.15-.14-4.3-.33-6.45-.53a.56.56,0,0,1-.38-.39c0-2.31.07-4.62.21-6.93A4.13,4.13,0,0,1,8.87,90c1-1.59,3.05-1.29,4.41-.32a6.28,6.28,0,0,1,1.42,1.45c.36.5.63.47,1.12.23,2-1,4.06-2,6.08-3,.53-.26.82-.36.75.43a13.4,13.4,0,0,0,0,2.2,1,1,0,0,1-.72,1.09c-1.59.74-3.15,1.54-4.74,2.29-.47.22-.47.39-.26.85a1.59,1.59,0,0,0,1.75,1.08c1.11-.08,2.23,0,3.35,0,.47,0,.61.15.6.61,0,.76,0,1.53,0,2.29,0,.41-.08.57-.54.56-1.39,0-2.78,0-4.17,0Zm-5.62-3.57v0c.46,0,.93,0,1.38.1s.67,0,.41-.53c-.39-.78-.71-1.59-1.16-2.33A4,4,0,0,0,11.82,92c-.8-.54-1.5-.22-1.72.71a7.13,7.13,0,0,0-.18,1.37C9.85,96,9.86,96,11.74,96Z" transform="translate(-0.23 -0.32)"/><path class="cls-2" d="M19.53,145.57c-.08,2.92-1.76,4.38-3.86,4.5a4.72,4.72,0,0,1-2.83-1.38,6.82,6.82,0,0,1-1.21-2.27c-.05-.11,0-.29,0-.44l.24.36.21.33a3,3,0,0,0,0-.44,2.9,2.9,0,0,0-.12-.3c-.21-.78-.06-.94.77-.82l5.8.84c.58.09.61.08.39-.54-.27-.77-.59-1.53-.89-2.3a1.62,1.62,0,0,1-.05-.26c.1,0,.23,0,.3.05a1,1,0,0,1,.32.36C19,144.16,19.33,145.06,19.53,145.57Zm-6.41,2.86.18.15.27.23.2.13.31.18.2.13a3,3,0,0,0,2.85,0l.71-.44.25-.24.23-.26.34-.49.28-1-.42.9-.33.49-.25.27-.23.23-.7.43H14.38l-.21-.11-.31-.18-.19-.13-.25-.24-.16-.16-.18-.12Zm2.82-1.51-.5-.65-.47.65a5,5,0,0,0-.12-.64c0-.12-.13-.3-.23-.33a12.67,12.67,0,0,0-1.43-.21,1,1,0,0,0-.44.12c.07.34.17.68.27,1,.67-.36,1.18.15,1.76.32l1.19,0a1.94,1.94,0,0,0,.62-.18c.12-.09.15-.31.22-.47a1.9,1.9,0,0,0-.4-.16C16,146.36,16,146.36,15.94,146.92Zm1.09-.09.52.59a2.19,2.19,0,0,1,0-.46.63.63,0,0,1,.19-.25,2.33,2.33,0,0,1,.22-.18c-.08-.07-.21-.2-.24-.19A8.11,8.11,0,0,0,17,146.83ZM12.76,148c0-.1.08-.17.06-.21s-.1-.1-.16-.15-.1.12-.08.15S12.67,147.87,12.76,148Zm-.46-1,0-.06s0,0,0,.05,0,0,0,.06Zm.17.33-.05-.06s-.05,0-.05.06,0,0,0,.06Z" transform="translate(-0.23 -0.32)"/><path class="cls-2" d="M20.06,125a11.77,11.77,0,0,1,.2-2.39c.09-.34.73-.52,1.12-.77a1.61,1.61,0,0,1,.1.56c-.18.93-.41,1.86-.58,2.79a3.47,3.47,0,0,0,.08.91,3.27,3.27,0,0,0,.7-.67c.47-.83.87-1.69,1.3-2.55a1.6,1.6,0,0,1,.31-.56,3.81,3.81,0,0,1,.78-.37,2.69,2.69,0,0,1,.08.81c-.38,1.77-.78,3.54-1.19,5.3a1.13,1.13,0,0,1-.27.57,2,2,0,0,1-.61.26,1.67,1.67,0,0,1-.09-.59c.29-1.25.6-2.48.9-3.73a1.67,1.67,0,0,0,0-.45c-.08.12-.17.24-.25.36a11.12,11.12,0,0,1-1,1.65,1.34,1.34,0,0,1-1.09.42c-.23-.05-.35-.63-.47-1a1.66,1.66,0,0,1,0-.57Z" transform="translate(-0.23 -0.32)"/><path class="cls-2" d="M48.33,56.28q-2.07,2.13-4.14,4.26a2.9,2.9,0,0,1-.53.35,2.26,2.26,0,0,1,.2-.73c.89-1.23,1.78-2.46,2.73-3.65a.91.91,0,0,0,.05-1.27c-1-1.44-1.88-2.91-2.82-4.37,0,0-.09-.08-.1-.13-.06-.28-.1-.56-.15-.83a2.26,2.26,0,0,1,.65.41q2,2.66,4,5.37a1.67,1.67,0,0,1,.14.6Z" transform="translate(-0.23 -0.32)"/><path class="cls-2" d="M10,121.27c.23.15.89.36.94.67a2.07,2.07,0,0,1-.45,1.51c-.39.46-.77.65-.05,1.17a1.51,1.51,0,0,1,.36,1.8,1.87,1.87,0,0,1-1.6,1.21c-.51.07-1.17-.22-1.42.55,0,0-.19,0-.29.06a2.43,2.43,0,0,0-.12-.93c-.2-.33-.41-.52.15-.68.13,0,.22-.35.26-.55.18-.82.33-1.65.51-2.47a2.77,2.77,0,0,1,.28-.67c0-.08.16-.12.25-.18a1.1,1.1,0,0,1,.13.33c0,.16-.06.32-.06.48a2.17,2.17,0,0,0,0,.37,2.63,2.63,0,0,0,.27-.15,2.38,2.38,0,0,0,.57-.45,5.75,5.75,0,0,0,.44-.87c-.31-.13-.66-.42-.91-.35a9.23,9.23,0,0,0-1.58.75l-.48.23a2,2,0,0,1,.17-.56A3.14,3.14,0,0,1,10,121.27Zm.13,4.69a1.81,1.81,0,0,0-.25-.65,9.82,9.82,0,0,0-1-.89c-.1.34-.22.67-.31,1a6.93,6.93,0,0,0-.26,1.1.59.59,0,0,0,.24.48A1.17,1.17,0,0,0,10.12,126Z" transform="translate(-0.23 -0.32)"/><path class="cls-2" d="M43.66,87.82a2.06,2.06,0,0,1,.46.31c1.3,1.53,2.6,3.06,3.88,4.61a.65.65,0,0,1,0,.62c-1.26,1.56-2.54,3.1-3.82,4.63a2.05,2.05,0,0,1-.53.33,1.76,1.76,0,0,1,.12-.65c.9-1.35,1.81-2.71,2.77-4a.76.76,0,0,0,0-1.06c-1-1.4-1.93-2.82-2.88-4.24a1.81,1.81,0,0,1-.15-.46Z" transform="translate(-0.23 -0.32)"/><path class="cls-2" d="M43.62,116.7c0-.19,0-.35,0-.45.24-.46.5-.91.78-1.34.72-1.11,1.43-2.24,2.21-3.32a.69.69,0,0,0,0-1q-1.48-1.94-2.92-3.91a2.58,2.58,0,0,1-.24-.62c.22.08.5.1.64.26,1.32,1.39,2.63,2.79,3.92,4.22a.74.74,0,0,1,0,.71c-1.31,1.73-2.66,3.43-4,5.13A2.89,2.89,0,0,1,43.62,116.7Z" transform="translate(-0.23 -0.32)"/><path class="cls-2" d="M48.24,129c-.31.48-.56.9-.85,1.3-1.07,1.47-2.14,2.93-3.23,4.37a2.26,2.26,0,0,1-.63.41,3.28,3.28,0,0,1,.23-.65c.93-1.53,1.87-3.06,2.82-4.58a.76.76,0,0,0-.05-1.06c-.91-1.14-1.76-2.34-2.61-3.53a2.89,2.89,0,0,1-.26-.64c.26.1.59.12.77.3,1.12,1.14,2.22,2.31,3.31,3.47C47.92,128.57,48.07,128.79,48.24,129Z" transform="translate(-0.23 -0.32)"/><path class="cls-2" d="M14.13,21.6A8.43,8.43,0,0,0,14,26.37v.3c0,1.12-.1,2.23-.12,3.35,0,.05.27.19.35.15a3.58,3.58,0,0,0,.59-.42L15,30C13.76,31,12.9,31,11.88,29.77a7.41,7.41,0,0,1-1.73-5.53,2.68,2.68,0,0,1,.24-.65l.23,0,.1.69c-.1.17-.28.34-.28.51a7,7,0,0,0,1.67,4.82,3.59,3.59,0,0,0,.84.63c.41.25.59.1.57-.38-.05-.87-.06-1.74-.15-2.61,0-.24-.25-.46-.38-.69v-.22l.37-.09s0,0,0-.07a.92.92,0,0,0-.05-.14v-.3s0,0,0-.06a.75.75,0,0,0,0-.13l-.23-3.24.06-.34c0-1.31.09-2.63.12-3.94,0,0-.18-.08-.28-.12l-.1-.4c.39-.53.79-.5,1.17,0s.8,1.12,1.2,1.68h0c-.44-.41-.87-.83-1.33-1.22-.05,0-.36.07-.36.11,0,1.14,0,2.27.1,3.4,0,.06.29.11.45.17Z" transform="translate(-0.23 -0.32)"/><path class="cls-2" d="M14.08,125.93a11.16,11.16,0,0,1-1.35,1.16,1,1,0,0,1-1.58-.9,2.49,2.49,0,0,1,1.39-2.47,1,1,0,0,1,.92.1.86.86,0,0,1,.06.85,12.51,12.51,0,0,1-1.3,1.14,2.47,2.47,0,0,0-.33.48c.21.12.5.38.6.32a3.61,3.61,0,0,0,1.13-.89c.5-.67.88-1.43,1.34-2.13a2.15,2.15,0,0,1,.56-.43l.19.62,0,.28.16-.16c.48-.62,1-1.25,1.86-1.22l.34,0a1.35,1.35,0,0,1-.18.4,7.74,7.74,0,0,1-.62.55h0a6.87,6.87,0,0,0-1.34,1.06,17.79,17.79,0,0,0-1,1.83,2.64,2.64,0,0,1-.6.53c0-.25-.06-.49-.08-.74a1.48,1.48,0,0,1,.05-.32v-.19Zm-1-1.27-.32-.34c-.23.26-.46.51-.67.78,0,0,.1.15.15.23Z" transform="translate(-0.23 -0.32)"/><path class="cls-2" d="M48.32,96.88c-.08.18-.14.33-.22.47-.86,1.41-1.7,2.84-2.61,4.21a.7.7,0,0,0,0,1q1.32,1.86,2.57,3.77a1.93,1.93,0,0,1,.13.72,3.25,3.25,0,0,1-.58-.41c-1.22-1.34-2.42-2.7-3.64-4a.59.59,0,0,1,0-.91c1.27-1.53,2.52-3.07,3.79-4.59a1.87,1.87,0,0,1,.45-.33S48.28,96.84,48.32,96.88Z" transform="translate(-0.23 -0.32)"/><path class="cls-2" d="M48.49,124.83a2.08,2.08,0,0,1-.7-.3q-1.93-1.94-3.8-3.93a.62.62,0,0,1,0-.6c1.3-1.74,2.63-3.46,4-5.18.08-.1.24-.13.36-.2a1.49,1.49,0,0,1-.09.45c-.85,1.48-1.67,3-2.58,4.43a.81.81,0,0,0,.08,1.18,12.29,12.29,0,0,1,2.81,4.16Z" transform="translate(-0.23 -0.32)"/><path class="cls-2" d="M31.67,114.71c-.67.39-.88-.3-1.27-.55l-.57-.36a4.06,4.06,0,0,1-.22.66,4.1,4.1,0,0,1-.42.56c-.15-.18-.41-.35-.42-.54a20.47,20.47,0,0,1,0-2.12c0-.19.1-.51.19-.53a1,1,0,0,1,.67.16,8,8,0,0,1,.58.68,1.73,1.73,0,0,0,.48.24c.06-.16.11-.32.17-.48a2.73,2.73,0,0,1,.25-.59c.33.07.75,0,.69.64a17.41,17.41,0,0,0,0,2Z" transform="translate(-0.23 -0.32)"/><path class="cls-2" d="M18.5,113.09c-.09-1.47-.07-1.48,1.41-1.32a1.65,1.65,0,0,1,1.5,1.71c-.06.87-.62,1.34-1.6,1.34a4.22,4.22,0,0,0-.57,0c-.59.08-.77-.21-.75-.74C18.51,113.75,18.5,113.42,18.5,113.09Zm.77-.2c0,1.14.08,1.2.61,1.19s.69-.34.68-.8a.69.69,0,0,0-.83-.75C19.52,112.56,19.34,112.84,19.27,112.9Z" transform="translate(-0.23 -0.32)"/><path class="cls-2" d="M33.53,111.37a3,3,0,0,1,.35.69c.05.52.23.4.46.12.09-.1.16-.25.28-.29.31-.11.63-.18.95-.26-.12.22-.19.51-.37.65-.81.6-.22,1,.12,1.53a3.34,3.34,0,0,1,.29.8,7.64,7.64,0,0,1-1-.39,3.39,3.39,0,0,1-.57-.51,2.17,2.17,0,0,1-.17.65.82.82,0,0,1-.51.35c-.1,0-.33-.25-.34-.4a20.51,20.51,0,0,1,0-2.2C33,111.93,33.27,111.75,33.53,111.37Z" transform="translate(-0.23 -0.32)"/><path class="cls-2" d="M22.62,113.34c0-1.43,0-1.47,1.45-1.39a1.53,1.53,0,0,1,1.13.54c.16.31-.1.83-.16,1.26a2.34,2.34,0,0,0,0,.6,2.56,2.56,0,0,0,.18.54,2.47,2.47,0,0,1-.71-.06c-.15-.06-.23-.29-.37-.42a4.06,4.06,0,0,0-.44-.32,2.29,2.29,0,0,1-.23.45c-.12.14-.28.34-.42.33a.54.54,0,0,1-.36-.38A8.23,8.23,0,0,1,22.62,113.34Zm1.24.31.7-.66c-.18-.15-.36-.42-.54-.42a.84.84,0,0,0-.58.4C23.39,113.05,23.64,113.31,23.85,113.65Z" transform="translate(-0.23 -0.32)"/><path class="cls-2" d="M12.46,113.34c0,.89-.68,1.22-1.44.86a1.89,1.89,0,0,1-.78-2.47,1.07,1.07,0,0,1,1.73-.28,1.56,1.56,0,0,1,.24.46l-.55.12a3.76,3.76,0,0,0-.86.17,3.09,3.09,0,0,0,.21,1.19c0,.09.45,0,.7,0a2.62,2.62,0,0,1-.3-.37,2.16,2.16,0,0,1-.14-.42c.15,0,.31-.15.43-.11a1.58,1.58,0,0,1,.72.36C12.53,113,12.46,113.29,12.46,113.34Z" transform="translate(-0.23 -0.32)"/><path class="cls-4" d="M2,14.43c.06-.2.05-.48.19-.59a1.91,1.91,0,0,0,.62-2.23,3.21,3.21,0,0,1,.3-.48c.7.3.92-.07,1-.68,0-.07.15-.12.24-.18.45.47.79,0,1.17-.13-.1.58-.12,1.22-.93,1.3,0,0-.13.27-.08.37.23.54,0,.8-.47,1.07s-.7.71-1.08,1A5.91,5.91,0,0,1,2,14.43Z" transform="translate(-0.23 -0.32)"/><path class="cls-2" d="M17.25,123.69a3.06,3.06,0,0,1,.55,0c.15,1,.35.1.51,0,.43-.24.84-.51,1.28-.73.07,0,.25.14.37.22-.08.1-.14.24-.25.28a4.91,4.91,0,0,0-2.36,2.77c-.1.21-.35.34-.53.5a2.22,2.22,0,0,1-.17-.82c.15-.76.39-1.5.59-2.24Z" transform="translate(-0.23 -0.32)"/><path class="cls-2" d="M7.49,112.17c0-.05,0-.11,0-.16,0-.41.08-.83.12-1.24.45.12,1.09.1,1.31.39a3.23,3.23,0,0,1,.26,1.51,7.53,7.53,0,0,1,0,.86c0,.12,0,.25,0,.37-.15,0-.34,0-.43-.09s-.19-.33-.3-.48a1.55,1.55,0,0,0-.29-.24,2,2,0,0,1-.1.28c-.07.12-.15.24-.23.36-.1-.14-.26-.27-.28-.41a11,11,0,0,1,0-1.14ZM9,112l-.63-.54c-.11.14-.32.28-.32.42a.57.57,0,0,0,.32.43C8.45,112.36,8.64,112.18,9,112Z" transform="translate(-0.23 -0.32)"/><path class="cls-2" d="M14.81,140.88c.82.33,1.64.66,2.44,1,.12.05.19.24.29.36a1.26,1.26,0,0,1-.49-.07,3.65,3.65,0,0,0-3.49-.5,3.13,3.13,0,0,0-1.85,2.93,5.85,5.85,0,0,1-.22.86,5.74,5.74,0,0,1-.1-.94A3.49,3.49,0,0,1,14.81,140.88Z" transform="translate(-0.23 -0.32)"/><path class="cls-4" d="M8.57,8.66a10.39,10.39,0,0,0-.49,1.48,2.69,2.69,0,0,0,.18.94,12.78,12.78,0,0,1-1.55.62,2.3,2.3,0,0,1-.88-.13L6.14,11a.64.64,0,0,0,.11-.21c.12-1.32,1.4-1.45,2.16-2.12C8.44,8.64,8.52,8.66,8.57,8.66Z" transform="translate(-0.23 -0.32)"/><path class="cls-2" d="M14.47,114.67a2.44,2.44,0,0,1-.35-.47c-.27-.75-.53-1.5-.78-2.26a3,3,0,0,1-.08-.49,2.06,2.06,0,0,1,.59.13.77.77,0,0,1,.26.4c.25.67.44.41.67,0a1.07,1.07,0,0,1,.43-.43c.12-.06.31,0,.47,0a1.64,1.64,0,0,1-.09.43c-.36.72-1,1.34-.81,2.25C14.8,114.35,14.63,114.47,14.47,114.67Z" transform="translate(-0.23 -0.32)"/><path class="cls-2" d="M19.55,108.64l.19-1,.83.68.36.3a2.45,2.45,0,0,1,.12-.41c.09-.18.21-.35.31-.52.1.19.2.38.28.58a.53.53,0,0,1,0,.24c0,.44-.1.88-.14,1.31-.32-.25-.62-.52-1-.75-.09-.06-.32-.06-.37,0a5.46,5.46,0,0,0-.39.72c-.08-.31-.16-.63-.23-.94A.86.86,0,0,1,19.55,108.64Z" transform="translate(-0.23 -0.32)"/><path class="cls-2" d="M14.42,107.33c.59.06,1.32-.13.74.78a1.12,1.12,0,0,0,0,.76c.06.27.65.59-.11.71s-1.18-.09-1.19-.8c0-.27,0-.54,0-.81C13.78,107.42,14,107.22,14.42,107.33Z" transform="translate(-0.23 -0.32)"/><path class="cls-1" d="M13.16,21.94l-.06.34c-.49-.43-1-.82-1.47-1.28s-.48-.23-.56.16c-.16.79-.3,1.59-.45,2.39l-.23,0c-.14-2.44,1.06-4.33,2.52-6.11l.1.4-.34.55C11.26,20.79,11.12,19.95,13.16,21.94Z" transform="translate(-0.23 -0.32)"/><path class="cls-2" d="M5.7,110.42a3.8,3.8,0,0,1,.81.13.43.43,0,0,1,.21.36c0,.13-.2.25-.33.33a1.19,1.19,0,0,1-.38.08,4.14,4.14,0,0,1,.3.34c.1.14.18.29.27.43l-.41.23-.26.14.25.28.6.57c-.15.06-.33.2-.45.16-.34-.11-.88,0-.86-.62s0-1.36,0-2C5.47,110.64,5.64,110.51,5.7,110.42Z" transform="translate(-0.23 -0.32)"/><path class="cls-2" d="M4.82,111.55a5.38,5.38,0,0,1,0,.55c0,.3-.09.6-.13.89a3.18,3.18,0,0,1-.92-.35c-.13-.1-.09-.45-.1-.69,0-.49,0-1,0-1.47,0-.16,0-.32,0-.48.14.09.29.25.43.24C5.39,110.18,4.54,111.18,4.82,111.55Z" transform="translate(-0.23 -0.32)"/><path class="cls-2" d="M17.38,107.45c.14.11.31.18.37.31.24.55.45,1.11.65,1.67a.37.37,0,0,1-.12.33.33.33,0,0,1-.32-.06.71.71,0,0,0-1.12-.12c-.06,0-.4-.16-.4-.18q.3-.89.66-1.75C17.13,107.56,17.26,107.52,17.38,107.45Z" transform="translate(-0.23 -0.32)"/><path class="cls-2" d="M15.28,144l.26-.56c.24.17.49.33.73.51a1.23,1.23,0,0,1,.2.25,1.4,1.4,0,0,1,.14-.29,3.08,3.08,0,0,1,.31-.3,1.53,1.53,0,0,1,.28.35,1.7,1.7,0,0,1,.12.56c0,.24,0,.49,0,.73-.15-.46-.85.31-.9-.4a.19.19,0,0,0-.15,0C15.36,145.3,15.28,145.25,15.28,144Z" transform="translate(-0.23 -0.32)"/><path class="cls-2" d="M45.36,36.65c-.49.44-.79.93-1.1.95-.55,0-.84-.47-.86-1s.15-1.12.71-1C44.51,35.59,44.83,36.15,45.36,36.65Z" transform="translate(-0.23 -0.32)"/><path class="cls-2" d="M13.17,143.89a1.16,1.16,0,0,1,0-.32,2.35,2.35,0,0,1,.19-.38,4,4,0,0,1,.15.41c.06.26.11.53.16.79a4,4,0,0,0,.1-.76c0-.84.67.09.79-.35.17.11.47.2.48.32a9.18,9.18,0,0,1-.06,1.3c-.22,0-.44-.05-.65-.1s-.19-.12-.28-.12C13.17,144.69,13.17,144.69,13.17,143.89Z" transform="translate(-0.23 -0.32)"/><path class="cls-2" d="M45.06,17.65c-.13.1-.36.42-.65.47a.92.92,0,0,1-1-1.13,1.2,1.2,0,0,1,.69-.8C44.62,16.06,45.08,16.73,45.06,17.65Z" transform="translate(-0.23 -0.32)"/><path class="cls-2" d="M27.42,113.36a8.25,8.25,0,0,1,0,1.14c0,.14-.25.36-.37.36s-.41-.21-.42-.34c0-.79-.05-1.58,0-2.37,0-.12.28-.33.42-.31a.56.56,0,0,1,.38.38,7.86,7.86,0,0,1,0,1.14Z" transform="translate(-0.23 -0.32)"/><path class="cls-2" d="M43.19,55.49c.43-.36.71-.78,1-.81.68-.06.77.55.81,1.06a.7.7,0,0,1-.86.79C43.83,56.46,43.6,56,43.19,55.49Z" transform="translate(-0.23 -0.32)"/><path class="cls-2" d="M45.2,93.33c-.49.38-.78.78-1.13.84-.56.09-.69-.43-.67-.87s.26-1,.84-1C44.53,92.38,44.77,92.86,45.2,93.33Z" transform="translate(-0.23 -0.32)"/><path class="cls-2" d="M45.4,74.7c-.52.4-.8.81-1.13.85-.62.08-.77-.53-.69-1s.45-.64.69-1Z" transform="translate(-0.23 -0.32)"/><path class="cls-2" d="M45.36,148.33l-1.29,1c-.2-.25-.61-.59-.55-.73a5.57,5.57,0,0,1,.82-1.15Z" transform="translate(-0.23 -0.32)"/><path class="cls-2" d="M45,129.53c0,.75-.51,1.45-.93,1.32-.24-.07-.6-.56-.54-.73a5.59,5.59,0,0,1,.81-1.19Z" transform="translate(-0.23 -0.32)"/><path class="cls-2" d="M45.28,111.44l-1.23,1c-.21-.31-.63-.66-.57-.91s.49-.69.76-1Z" transform="translate(-0.23 -0.32)"/><path class="cls-1" d="M6.55,116.57a2.08,2.08,0,0,1-.32.62c-.06.06-.3-.1-.47-.15s-.32,0-.43-.11a1.69,1.69,0,0,1-.51-.51c-.11-.2-.08-.46-.17-.67s-.22-.2-.34-.3c.18,0,.37,0,.54.09A5.3,5.3,0,0,1,6,115.9C6.24,116,6.37,116.33,6.55,116.57Z" transform="translate(-0.23 -0.32)"/><path class="cls-2" d="M10.25,108.51l.35.08c0,.14-.08.39-.15.4a1.47,1.47,0,0,1-.87,0,1.3,1.3,0,0,1-.33-1.68.76.76,0,0,1,.58-.33,2,2,0,0,1,.75.42s0,.22,0,.27-.18,0-.28,0-.54-.09-.6,0a.81.81,0,0,0-.06.67c.08.17.36.25.55.38Z" transform="translate(-0.23 -0.32)"/><path class="cls-1" d="M8.39,133.85c-.45,0-1,.38-1.25-.37-1,.39-.54-.67-.86-1a3.84,3.84,0,0,1,.23-.32c.27.36,1,.26,1,.93a1.16,1.16,0,0,0,.12.36,1.12,1.12,0,0,0,.14-.36c0-.77.47-.19.72-.25Z" transform="translate(-0.23 -0.32)"/><path class="cls-4" d="M9.73,10.5s0-.06,0-.08c.76-1.65.76-1.65-1-1.79A1.74,1.74,0,0,1,11.14,9a.8.8,0,0,1-.14.73A8.82,8.82,0,0,1,9.73,10.5Z" transform="translate(-0.23 -0.32)"/><path class="cls-2" d="M29.26,135.46c.07-.6.2-.87.73-.85s.89.23.75.7c-.09.31-.55.56-.9.71C29.75,136.06,29.46,135.66,29.26,135.46Z" transform="translate(-0.23 -0.32)"/><path class="cls-2" d="M11.48,108.17l.31-1a3.89,3.89,0,0,1,.26,1c0,.46.09.72.61.71.09,0,.19.2.29.31-.12.07-.24.2-.37.21C11.68,109.5,11.56,109.36,11.48,108.17Z" transform="translate(-0.23 -0.32)"/><path class="cls-1" d="M15,30l-.19-.21c.6-1.17,1.2-2.35,1.81-3.52a2.23,2.23,0,0,1,.33-.38c0,.16.17.35.13.49A7.4,7.4,0,0,1,15,30Z" transform="translate(-0.23 -0.32)"/><path class="cls-2" d="M16.94,134.3c.05.92,1.11-.32,1.13.55a.2.2,0,0,0,.13,0l.46-.27c-.1.36-.2.73-.32,1.08,0,0-.33,0-.36-.07-.14-.32-.23-.57-.46,0,0,0-.36,0-.39-.06a5.25,5.25,0,0,1-.27-.93C16.83,134.49,16.91,134.39,16.94,134.3Z" transform="translate(-0.23 -0.32)"/><path class="cls-2" d="M48.63,83.46l-.85,1c-.2-.27-.52-.51-.57-.8-.09-.47.06-1,.66-1C48.08,82.66,48.29,83.09,48.63,83.46Z" transform="translate(-0.23 -0.32)"/><path class="cls-2" d="M48.15,138.57l-.47.35c-.22-.25-.62-.51-.62-.76a3.33,3.33,0,0,1,.45-1.13c.22.11.58.19.62.35A5.26,5.26,0,0,1,48.15,138.57Z" transform="translate(-0.23 -0.32)"/><path class="cls-2" d="M48.62,119.7l-.91.9c-.18-.28-.48-.54-.52-.83-.06-.46.09-1,.67-1C48.09,118.81,48.29,119.28,48.62,119.7Z" transform="translate(-0.23 -0.32)"/><path class="cls-2" d="M48.61,101.81l-.94.94c-.17-.29-.51-.6-.48-.85s.39-.67.61-1Z" transform="translate(-0.23 -0.32)"/><path class="cls-5" d="M27.08,4.52l1.06.75a2.94,2.94,0,0,1-1,.44A3.18,3.18,0,0,1,26,5.28Z" transform="translate(-0.23 -0.32)"/><path class="cls-2" d="M28.56,136.05c-1.09.15-.71-.64-1-1a2.81,2.81,0,0,1,.74-.4c.15,0,.5.2.49.28A7,7,0,0,1,28.56,136.05Z" transform="translate(-0.23 -0.32)"/><path class="cls-2" d="M15.28,19.16c.91.23,1,1,1.26,1.76l-.29.06-.4-1-.8.74-.75.68h0a7.21,7.21,0,0,1,.52-.8,1.43,1.43,0,0,0,.46-1.5Z" transform="translate(-0.23 -0.32)"/><path class="cls-2" d="M25.72,135.32l.11-.55.53.28c.12.06.29.18.36.14s.2-.25.29-.39V136c-.11,0-.26,0-.33-.09-.23-.22-.44-.49-.56.07-.12,0-.32,0-.33-.1a2.55,2.55,0,0,1,0-.57Z" transform="translate(-0.23 -0.32)"/><path class="cls-1" d="M29.14,118.8,28,119s-.06-.16,0-.22c.22-.41.46-.82.69-1.22.27.4.56.8.81,1.22,0,.08-.05.24-.08.37Z" transform="translate(-0.23 -0.32)"/><path class="cls-1" d="M26.39,118s.12-.38.32-.46a.85.85,0,0,1,.72.17c.08.06,0,.48-.14.63s-.38.26.05.3c0,.1,0,.28-.06.3C26.72,119.15,26.4,118.89,26.39,118Z" transform="translate(-0.23 -0.32)"/><path class="cls-1" d="M23.33,119c-.23-.62-1,.44-1-.38,0-.34.46-.7.71-1,.22.4.45.79.65,1.2C23.7,118.75,23.49,118.87,23.33,119Z" transform="translate(-0.23 -0.32)"/><path class="cls-2" d="M24.12,135.14s.1-.34.28-.42.46,0,.7,0a7.08,7.08,0,0,1-.13.77c0,.09-.16.15-.25.23l.38.3c-.24,0-.51.11-.7,0s-.2-.36-.28-.56A1.78,1.78,0,0,1,24.12,135.14Z" transform="translate(-0.23 -0.32)"/><path class="cls-2" d="M24.9,109.07l-.39-.3c.2-.11.41-.33.61-.32a15.28,15.28,0,0,1,1.67.22.87.87,0,0,1,.23.12c-.09.05-.17.14-.26.15C26.22,109,25.65,109,24.9,109.07Z" transform="translate(-0.23 -0.32)"/><path class="cls-1" d="M20.47,118.15c-.2.24-.35.55-.59.66a.72.72,0,0,1-.68-.17,2.63,2.63,0,0,1-.26-1s.16-.17.22-.16.14.13.18.22.18.46.26.69c.1-.22.18-.44.29-.65a1.6,1.6,0,0,1,.23-.27Z" transform="translate(-0.23 -0.32)"/><path class="cls-1" d="M13.35,117.94l.53-.19v.61c-.28,0-.68.1-.82,0a1.23,1.23,0,0,1-.27-.92c0-.16.45-.27.7-.37,0,0,.16.12.24.19-.09.05-.17.14-.27.16-.54.08-.31.36-.17.62l.11,0Z" transform="translate(-0.23 -0.32)"/><path class="cls-1" d="M7.86,116.9l-.32.62a4.22,4.22,0,0,1-.89-.51c-.11-.1,0-.42,0-.63a.37.37,0,0,1,.14-.26c.23-.14.2.85.6.15Z" transform="translate(-0.23 -0.32)"/><path class="cls-1" d="M21.19,118.44l-.4-.76c.22-.06.61-.22.63-.17a8.84,8.84,0,0,1,.46,1.12c-.26.09-.53.29-.77.25s-.46-.31,0-.4l.17.1,0-.05Z" transform="translate(-0.23 -0.32)"/><path class="cls-2" d="M2.7,109.43l.43.37c-.46.46.05,1-.18,1.53,0,0-.05,0-.06.05l-.23.73c0-.34-.08-.68-.1-1s0-.81,0-1.22A1.64,1.64,0,0,1,2.7,109.43Z" transform="translate(-0.23 -0.32)"/><path class="cls-2" d="M16.75,22.11a4.28,4.28,0,0,1,.51,2.83,3,3,0,0,1-.07.48c0,.09-.11.16-.17.24a1.06,1.06,0,0,1-.14-.3c-.14-1.1-.26-2.2-.39-3.3Z" transform="translate(-0.23 -0.32)"/><path class="cls-2" d="M19.09,135.31c.07-.55.13-.93.74-.79a1.51,1.51,0,0,1,.33.17,1.74,1.74,0,0,0-.31.16.21.21,0,0,0-.05.19c.11.27.24.53.36.8-.21,0-.46.13-.6,0S19.24,135.51,19.09,135.31Z" transform="translate(-0.23 -0.32)"/><path class="cls-1" d="M28.67,138.33c0-.08,0-.18,0-.24a6.48,6.48,0,0,1,.68-1,.63.63,0,0,1,.56-.05c.16.06.27.26.37.41s.27.46.41.69a2.84,2.84,0,0,0-.63-.41.76.76,0,0,0-.63,0,3.09,3.09,0,0,0-.49.75Z" transform="translate(-0.23 -0.32)"/><path class="cls-1" d="M16.66,118.65l-.79-.31.58-1c.21.32.42.63.6,1C17.07,118.33,16.82,118.51,16.66,118.65Z" transform="translate(-0.23 -0.32)"/><path class="cls-1" d="M14.19,117.86l.23-.61.22.43.27.54c.08-.17.15-.35.23-.52s.18-.32.27-.48a1.54,1.54,0,0,1,.15.56c-.05.39-.1.93-.66.79C14.6,118.5,14.4,118.08,14.19,117.86Z" transform="translate(-0.23 -0.32)"/><path class="cls-2" d="M16,134.14a5.35,5.35,0,0,1,.33,1c0,.11-.28.33-.47.39s-.27-.19-.41-.3C16.07,135,14.7,134.2,16,134.14Z" transform="translate(-0.23 -0.32)"/><path class="cls-1" d="M20.86,152.45c.44-.13.75,0,.79.55a1.05,1.05,0,0,1-.11.36l-.19-.29-.17-.32-.18.31-.18.29a1.1,1.1,0,0,0-.14-.35.37.37,0,0,0-.31-.12c-.11,0-.18.18-.27.27,0-.13-.1-.28-.06-.39a.69.69,0,0,1,.29-.39C20.46,152.32,20.65,152.41,20.86,152.45Z" transform="translate(-0.23 -0.32)"/><path class="cls-4" d="M4.4,10.06l-.32-.89.56-.4A1.87,1.87,0,0,0,5,8.89c.24,0,.49,0,.74,0l-.25.72C5,9.43,4.59,9.43,4.4,10.06Z" transform="translate(-0.23 -0.32)"/><path class="cls-1" d="M29.81,118.19c-.05-.55.18-.78.71-.71a2.11,2.11,0,0,1,.36.11,1.93,1.93,0,0,0-.26.22,1.29,1.29,0,0,0-.14.26c.33.13.42.25,0,.43a3.1,3.1,0,0,0-.51.37Z" transform="translate(-0.23 -0.32)"/><path class="cls-1" d="M10.81,117.27a4.15,4.15,0,0,1,.55-.44c.07,0,.24.06.36.1-.08.07-.22.14-.23.22a3.8,3.8,0,0,0,0,.76,1.48,1.48,0,0,0,.13.36c-.22-.06-.5-.06-.65-.2S10.89,117.67,10.81,117.27Z" transform="translate(-0.23 -0.32)"/><path class="cls-1" d="M26.93,136.76c.51,1.25,1.09,1,1.71.42,0,.07.12.16.11.21a.9.9,0,0,1-1.58.37,2.16,2.16,0,0,1-.35-.44C26.77,137.26,26.85,137.13,26.93,136.76Z" transform="translate(-0.23 -0.32)"/><path class="cls-1" d="M14.39,26c0-.14,0-.27,0-.34q.7-.89,1.43-1.76c.06-.07.18-.08.28-.12s.08.23,0,.28c-.51.63-1,1.25-1.56,1.87C14.59,26,14.52,26,14.39,26Z" transform="translate(-0.23 -0.32)"/><path class="cls-1" d="M10.54,117.61l-.06.38a4.37,4.37,0,0,0-.32-.34s-.17-.07-.2,0c-.75.66-.38-.24-.39-.33-.05-.4,0-.4.35-.25a.34.34,0,0,0,.21,0C10.54,116.93,10.54,116.93,10.54,117.61Z" transform="translate(-0.23 -0.32)"/><path class="cls-2" d="M20.81,135.25c-.09-.44.08-.72.64-.63a1.38,1.38,0,0,1,.33.15,2.56,2.56,0,0,0-.29.19.74.74,0,0,0-.12.18c.35.11.53.22,0,.35a.14.14,0,0,0,0,.12c.12.12.25.22.38.33-.21,0-.47.09-.63,0s-.21-.36-.3-.55C20.8,135.37,20.81,135.34,20.81,135.25Z" transform="translate(-0.23 -0.32)"/><path class="cls-1" d="M24.69,118.18l.34-.63a3.71,3.71,0,0,0,.24.61,2.58,2.58,0,0,0,.41.46,2.53,2.53,0,0,0,.27.21,1,1,0,0,1-.27.12C25.14,119,24.65,119,24.69,118.18Z" transform="translate(-0.23 -0.32)"/><path class="cls-1" d="M25.8,136.9l1,1.13c-.09,0-.24.09-.27.06-.47-.6-.88-.46-1.29.07-.07.09-.22.11-.34.17a1.71,1.71,0,0,1,.14-.39C25.27,137.61,25.5,137.31,25.8,136.9Z" transform="translate(-0.23 -0.32)"/><path class="cls-2" d="M8.39,133.85l.06-1c.76.22.95.57.62,1.24C9.06,134.15,8.62,134,8.39,133.85Z" transform="translate(-0.23 -0.32)"/><path class="cls-1" d="M20.39,138.42l-.93-1.32c.11,0,.27,0,.32,0,.39.52.76.51,1.16,0,.05-.07.18-.07.28-.11a1.19,1.19,0,0,1-.09.34C20.92,137.68,20.71,138,20.39,138.42Z" transform="translate(-0.23 -0.32)"/><path class="cls-1" d="M23.07,137.91l0,.24c-.11,0-.28,0-.34-.12-.39-.51-.74-.5-1.11,0,0,.07-.18.07-.27.1s-.06-.12,0-.14c.3-.3.59-.79.92-.82S22.8,137.67,23.07,137.91Z" transform="translate(-0.23 -0.32)"/><path class="cls-1" d="M18.5,117.46l-.5,1.18c-.09,0-.22-.07-.27-.15a4.69,4.69,0,0,1-.25-.59l-.17-.45a1.68,1.68,0,0,0,.47.1c.14,0,.26-.13.41-.16A.85.85,0,0,1,18.5,117.46Z" transform="translate(-0.23 -0.32)"/><path class="cls-2" d="M12.11,134.11l.16-.41c.06.19.13.38.19.57s0,.29.07.38a2.83,2.83,0,0,0,.42.4c-.15,0-.37.11-.45,0a2.15,2.15,0,0,1-.38-.58C12.08,134.44,12.11,134.35,12.11,134.11Z" transform="translate(-0.23 -0.32)"/><path class="cls-1" d="M17.74,137.77a1.35,1.35,0,0,1,.21-.42c.21-.19.6-.51.66-.46a6.13,6.13,0,0,1,.83,1s0,.13,0,.13-.19,0-.21,0c-.4-.77-.93-.49-1.46-.18Z" transform="translate(-0.23 -0.32)"/><path class="cls-2" d="M9.49,134.32l.46-1.07c.18.39.36.78.52,1.18,0,0-.12.16-.16.15C10.05,134.51,9.8,134.42,9.49,134.32Z" transform="translate(-0.23 -0.32)"/><path class="cls-1" d="M5.31,132.39,5,133a3.65,3.65,0,0,1-.48-.8c-.05-.16.12-.39.19-.59Z" transform="translate(-0.23 -0.32)"/><path class="cls-1" d="M23.84,152.81a4.08,4.08,0,0,1-.18.66c0,.11-.2.17-.3.25a2.6,2.6,0,0,0,0-.39c0-.35-.09-.7-.14-1.05,0-.13,0-.27,0-.4.14.07.33.11.4.22A4,4,0,0,1,23.84,152.81Z" transform="translate(-0.23 -0.32)"/><path class="cls-5" d="M4.4,10.06c.19-.63.61-.63,1.11-.4l.06.49c-.38.14-.72.6-1.17.13Z" transform="translate(-0.23 -0.32)"/><path class="cls-2" d="M6.73,107.3l.51.38c-.12.1-.26.3-.35.28a7.71,7.71,0,0,1-1-.39Z" transform="translate(-0.23 -0.32)"/><path class="cls-2" d="M23,134.63l.49.16c-.1.1-.24.18-.28.29-.11.31-.17.63-.26.95-.08-.31-.15-.63-.26-.93a1.54,1.54,0,0,0-.28-.37Z" transform="translate(-0.23 -0.32)"/><path class="cls-2" d="M13.94,133.81c.14.17.25.26.23.29-.16.38-.34.75-.51,1.12-.08-.21-.25-.44-.2-.62A3.15,3.15,0,0,1,13.94,133.81Z" transform="translate(-0.23 -0.32)"/><path class="cls-1" d="M8.46,117l.24-.57c.15.12.43.25.42.35a5.91,5.91,0,0,1-.29,1Z" transform="translate(-0.23 -0.32)"/><path class="cls-1" d="M22.16,151.72c.09.33.13.44.14.56.06.41-.21,1,.49,1.1l-.14.24c-.21-.15-.54-.25-.61-.45a2.7,2.7,0,0,1,0-1A2.64,2.64,0,0,1,22.16,151.72Z" transform="translate(-0.23 -0.32)"/><path class="cls-1" d="M23.46,137.44c.44.42.83.45,1.19-.1.05-.08.22-.08.33-.11,0,.11-.05.27-.14.33-.3.24-.63.45-.94.67l-.45-.79Z" transform="translate(-0.23 -0.32)"/><path class="cls-1" d="M16.2,137.1a2.92,2.92,0,0,0,.74.07,2.07,2.07,0,0,0,.53-.28,4.85,4.85,0,0,1-.42.72c-.09.11-.39.22-.43.17a4.1,4.1,0,0,1-.43-.67Z" transform="translate(-0.23 -0.32)"/><path class="cls-2" d="M10.9,134l.17-.44c0,.16.08.33.12.49a1.46,1.46,0,0,0,.13.43,1.37,1.37,0,0,0,.33.27c-.08,0-.2.14-.25.12a1.49,1.49,0,0,1-.47-.35C10.87,134.45,10.91,134.27,10.9,134Z" transform="translate(-0.23 -0.32)"/><path class="cls-1" d="M12.17,136.46c-.14.06-.29.11-.43.18s-.33.2-.49.29c0-.08,0-.18,0-.22.21-.23.44-.45.67-.68l.24.42Z" transform="translate(-0.23 -0.32)"/><path class="cls-1" d="M14.36,136.83c-.34.22-.6.41-.88.55,0,0-.18-.13-.27-.2.25-.21.5-.43.76-.63A2.79,2.79,0,0,1,14.36,136.83Z" transform="translate(-0.23 -0.32)"/><path class="cls-1" d="M14.14,151.84a2.45,2.45,0,0,0,0-.55,1.24,1.24,0,0,0-.2-.38c.15,0,.38,0,.44.08a.59.59,0,0,1,0,.48c-.05.14-.22.25-.34.37Z" transform="translate(-0.23 -0.32)"/><path class="cls-1" d="M14.14,151.83a1,1,0,0,0,0,.32,4.27,4.27,0,0,0,.23.48l-.62-.08c.05-.21.09-.43.17-.64,0,0,.14-.06.22-.09Z" transform="translate(-0.23 -0.32)"/><path class="cls-1" d="M8.74,136.13c.17-.3.18-.91.76-.39.09.08.1.24.14.36a1.44,1.44,0,0,0-.37-.08,3.89,3.89,0,0,0-.54.1Z" transform="translate(-0.23 -0.32)"/><path class="cls-1" d="M16.75,22.11l-.26,0L16.25,21l.29-.06Z" transform="translate(-0.23 -0.32)"/><path class="cls-1" d="M14,26.67v-.3l.28-.08Z" transform="translate(-0.23 -0.32)"/><path class="cls-1" d="M23.47,137.44l-.24-.14.08-.09.16.23Z" transform="translate(-0.23 -0.32)"/><path class="cls-1" d="M13.09,136.61l-.09.1a.78.78,0,0,1-.08-.12s0-.06,0-.05Z" transform="translate(-0.23 -0.32)"/><path class="cls-2" d="M14.3,21.44l-.17.16h0l.16-.16Z" transform="translate(-0.23 -0.32)"/><path class="cls-1" d="M8.74,136.12l0,.06,0-.05Z" transform="translate(-0.23 -0.32)"/><path class="cls-1" d="M12.18,136.45l.07,0-.07,0Z" transform="translate(-0.23 -0.32)"/><path class="cls-1" d="M31.67,114.71l.11-.2Z" transform="translate(-0.23 -0.32)"/><path class="cls-1" d="M17.74,137.76l0,.06,0-.06Z" transform="translate(-0.23 -0.32)"/><path class="cls-2" d="M47.11,9.68c-.54,0-1.21-.89-1.05-1.32a.72.72,0,0,1,.32-.28,4,4,0,0,1,.7.73,2.16,2.16,0,0,1,.22.75S47.13,9.66,47.11,9.68Z" transform="translate(-0.23 -0.32)"/><path class="cls-1" d="M39.92,156.86l.38.12c-.4.13-.79.26-1.2.38-.06,0-.15-.06-.23-.09Z" transform="translate(-0.23 -0.32)"/><path class="cls-1" d="M53.62,38.4c.09.12.18.23.25.35s-.06.07-.09.1l-.27-.34Z" transform="translate(-0.23 -0.32)"/><path class="cls-2" d="M48.33,64.31c.06.2.21.43.17.61a3.79,3.79,0,0,1-.47,1s-.55-.15-.56-.26a4.6,4.6,0,0,1,.08-1.35,3.53,3.53,0,0,1,.79,0Z" transform="translate(-0.23 -0.32)"/><path class="cls-1" d="M53.41,78.59l-.16.19s-.14-.1-.14-.15.07-.12.11-.18Z" transform="translate(-0.23 -0.32)"/><path class="cls-1" d="M53.83,77.57l-.1.08-.1-.15s.09-.05.13,0S53.81,77.53,53.83,77.57Z" transform="translate(-0.23 -0.32)"/><path class="cls-1" d="M53,77.11s-.07-.08-.07-.12,0-.08.07-.12.07.08.07.12S53,77.07,53,77.11Z" transform="translate(-0.23 -0.32)"/><path class="cls-4" d="M3.48,6.53l-.19-.06.23-.08Z" transform="translate(-0.23 -0.32)"/><path class="cls-5" d="M24.46,1a4.15,4.15,0,0,1,1.1-.44c.83-.08,1.68,0,2.52-.06s1.4.07,2.1.13c.15,0,.29.15.43.23a1.46,1.46,0,0,1-.48.19c-1.73,0-3.46,0-5.19,0Z" transform="translate(-0.23 -0.32)"/><path class="cls-3" d="M16.4,40.57c-.37.69-.72,1.36-1.1,2,0,.06-.3,0-.44,0l-3.68-1a1.15,1.15,0,0,1-.3-.21,1.43,1.43,0,0,1,.28-.27c1.24-.68,2.47-1.37,3.73-2a.76.76,0,0,1,.69.19A11.24,11.24,0,0,1,16.4,40.57Z" transform="translate(-0.23 -0.32)"/><path class="cls-3" d="M12.31,96.06l-.57,0C9.86,96,9.85,96,9.92,94.11a7.13,7.13,0,0,1,.18-1.37c.22-.93.92-1.25,1.72-.71a4,4,0,0,1,1.13,1.25c.44.74.76,1.56,1.16,2.33.25.5.11.62-.41.53s-.92-.07-1.38-.1Z" transform="translate(-0.23 -0.32)"/><path class="cls-3" d="M14.77,147.21c-.57-.17-1.09-.68-1.76-.32-.1-.34-.2-.68-.27-1a1,1,0,0,1,.44-.12,12.67,12.67,0,0,1,1.43.21c.1,0,.19.2.23.33a5,5,0,0,1,.12.64Z" transform="translate(-0.23 -0.32)"/><path class="cls-3" d="M15.94,146.92c0-.56,0-.57.46-.5a1.9,1.9,0,0,1,.4.16c-.07.16-.1.39-.22.47a1.94,1.94,0,0,1-.62.18Z" transform="translate(-0.23 -0.32)"/><path class="cls-1" d="M15.94,146.92l0,.31-1.19,0,.19-.29.47-.65Z" transform="translate(-0.23 -0.32)"/><path class="cls-3" d="M14.38,149.14H17l.11.13a3,3,0,0,1-2.85,0Z" transform="translate(-0.23 -0.32)"/><path class="cls-3" d="M17,146.83a8.11,8.11,0,0,1,.69-.49s.16.12.24.19a2.33,2.33,0,0,0-.22.18.63.63,0,0,0-.19.25,2.19,2.19,0,0,0,0,.46Z" transform="translate(-0.23 -0.32)"/><path class="cls-3" d="M18.51,147.7l.42-.9-.28,1Z" transform="translate(-0.23 -0.32)"/><path class="cls-3" d="M17.83,148.82l-.71.44-.11-.13.7-.43Z" transform="translate(-0.23 -0.32)"/><path class="cls-3" d="M18.18,148.19l.33-.49.14.14-.34.49Z" transform="translate(-0.23 -0.32)"/><path class="cls-3" d="M12.76,148c-.09-.1-.16-.14-.18-.21s.05-.1.08-.15.13.09.16.15S12.79,147.87,12.76,148Z" transform="translate(-0.23 -0.32)"/><path class="cls-3" d="M17.94,148.47l.25-.27.14.13-.23.26Z" transform="translate(-0.23 -0.32)"/><path class="cls-3" d="M13.57,148.81l-.27-.23.11-.11.25.24Z" transform="translate(-0.23 -0.32)"/><path class="cls-3" d="M18.09,148.59l-.25.24-.12-.13.23-.23Z" transform="translate(-0.23 -0.32)"/><path class="cls-3" d="M14.07,149.12l-.31-.18.09-.1.31.18Z" transform="translate(-0.23 -0.32)"/><path class="cls-3" d="M14.17,149l.21.11-.1.11-.2-.13Z" transform="translate(-0.23 -0.32)"/><path class="cls-3" d="M12.31,147l-.05.05s0,0,0-.06,0,0,0-.05Z" transform="translate(-0.23 -0.32)"/><path class="cls-3" d="M12.47,147.34l-.06.06s0,0,0-.06,0,0,.05-.06Z" transform="translate(-0.23 -0.32)"/><path class="cls-3" d="M13.12,148.44l-.05-.24.18.12Z" transform="translate(-0.23 -0.32)"/><path class="cls-3" d="M13.25,148.31l.16.16-.11.11-.18-.15Z" transform="translate(-0.23 -0.32)"/><path class="cls-3" d="M13.76,148.94l-.2-.13.1-.1.19.13Z" transform="translate(-0.23 -0.32)"/><path class="cls-3" d="M10.12,126A1.17,1.17,0,0,1,8.52,127a.59.59,0,0,1-.24-.48,6.93,6.93,0,0,1,.26-1.1c.09-.34.21-.68.31-1a9.82,9.82,0,0,1,1,.89A1.81,1.81,0,0,1,10.12,126Z" transform="translate(-0.23 -0.32)"/><path class="cls-3" d="M13,26.53c.13.23.36.45.38.69.09.87.1,1.74.15,2.61,0,.47-.15.62-.57.38a3.59,3.59,0,0,1-.84-.63,7,7,0,0,1-1.67-4.82c0-.17.18-.34.28-.51h0a3.8,3.8,0,0,0,2.11,2h0Z" transform="translate(-0.23 -0.32)"/><path class="cls-3" d="M10.61,23.55c.15-.8.29-1.59.45-2.39.08-.39.22-.51.56-.16s1,.86,1.47,1.28l.23,3.24V26l0,.21-.37.09-.15-.11h0l-2.11-2h0Z" transform="translate(-0.23 -0.32)"/><path class="cls-3" d="M13.16,21.94c-2-2-1.9-1.15-.5-3.51l.34-.55c.1,0,.28.08.28.12C13.25,19.31,13.21,20.63,13.16,21.94Z" transform="translate(-0.23 -0.32)"/><path class="cls-3" d="M14.31,21.45l-.16.16c-.16-.05-.44-.1-.45-.17-.06-1.13-.09-2.27-.1-3.4,0,0,.31-.16.36-.11.46.39.89.81,1.33,1.22a1.43,1.43,0,0,1-.46,1.5A7.21,7.21,0,0,0,14.31,21.45Z" transform="translate(-0.23 -0.32)"/><path class="cls-1" d="M12.84,26.2l.15.11v.22Z" transform="translate(-0.23 -0.32)"/><path class="cls-1" d="M13.33,25.71v-.19a.74.74,0,0,1,0,.13S13.35,25.69,13.33,25.71Z" transform="translate(-0.23 -0.32)"/><path class="cls-1" d="M13.36,26.22l0-.21a.91.91,0,0,1,.05.14S13.37,26.19,13.36,26.22Z" transform="translate(-0.23 -0.32)"/><path class="cls-3" d="M13.05,124.65l-.84.67c-.05-.08-.17-.21-.15-.23.21-.27.44-.52.67-.78Z" transform="translate(-0.23 -0.32)"/><path class="cls-3" d="M15.85,123.93l-.16.16,0-.28Z" transform="translate(-0.23 -0.32)"/><path class="cls-3" d="M14.08,125.93l.19-.06v.19Z" transform="translate(-0.23 -0.32)"/><path class="cls-3" d="M19.27,112.9c.08-.06.26-.34.46-.36a.69.69,0,0,1,.83.75c0,.46-.14.79-.68.8S19.3,114,19.27,112.9Z" transform="translate(-0.23 -0.32)"/><path class="cls-3" d="M23.85,113.65c-.21-.34-.47-.6-.42-.68a.84.84,0,0,1,.58-.4c.18,0,.36.27.54.42Z" transform="translate(-0.23 -0.32)"/><path class="cls-3" d="M9,112c-.31.16-.5.34-.63.31a.57.57,0,0,1-.32-.43c0-.14.2-.28.32-.42Z" transform="translate(-0.23 -0.32)"/><path class="cls-3" d="M13.35,117.94l0,.1-.11,0Z" transform="translate(-0.23 -0.32)"/><path class="cls-3" d="M21.19,118.44l.18.08,0,.05-.17-.1Z" transform="translate(-0.23 -0.32)"/><path class="cls-1" d="M10.71,24.24l2.11,2A3.8,3.8,0,0,1,10.71,24.24Z" transform="translate(-0.23 -0.32)"/></g></g></g></g></svg>