<svg xmlns="http://www.w3.org/2000/svg" viewBox="0 0 54.11 159.49"><defs><style>.cls-1{fill:#9d866c;}.cls-2{fill:#d9d1cc;}.cls-3{fill:#c2b9af;}.cls-4{fill:#441d13;}</style></defs><title>Asset 4</title><g id="Layer_2" data-name="Layer 2"><g id="runa"><g id="runa-5"><g id="runa-5-svg_Image" data-name="runa-5-svg Image"><path class="cls-1" d="M54.36,16.81V30l-.27,2.37L52.56,31c.55.07.53-.38.56-.69,0-.14-.3-.46-.34-.44a4.94,4.94,0,0,0-.72.5l.46.49s0,.1,0,.15l-1.32-.66c.11-.41.22-.82.3-1.23,0-.09-.1-.21-.16-.32-.08.12-.24.24-.23.36,0,.4.06.8.1,1.21-.2-.12-.59-.3-.58-.35.25-.78-.31-1.1-.77-1.5A.67.67,0,0,1,49.7,28a13,13,0,0,0,.24-1.7c0-.58.13-.92.7-.78a7.15,7.15,0,0,1,1.75.7c.12.06,0,.53,0,.81,0,.43,0,.87,0,1.3a1.59,1.59,0,0,0,.15.43c.1-.1.2-.21.31-.3s.23-.17.34-.25c0,.12,0,.24,0,.36a3.27,3.27,0,0,0,.05.8c0,.14.28.23.44.32a.2.2,0,0,0,.18-.08c.22-.42-.1-1.74-.53-1.84-1.07-.24-.14-.91-.11-.91.65-.08.33-.36.09-.51A11.54,11.54,0,0,0,50.92,25c-2.41-.78-4.86-1.46-7.32-2.07-2.09-.52-2.11-.45-2.09,1.69q.11,15.16.23,30.33,0,7.09.06,14.19c0,.54.13.76.72.77,3.18.08,6.35.2,9.53.3a12.74,12.74,0,0,0,1.34-.1A8.45,8.45,0,0,0,52,69.8c-3-.12-5.94-.26-8.92-.29-.81,0-.92-.3-.91-1,0-3.51,0-7,0-10.54Q42.07,47.1,42,36.22q0-6.16,0-12.31c0-.33-.17-.88.5-.73q2.71.58,5.4,1.21a.58.58,0,0,1,.31.39.71.71,0,0,1-.14.41,7.41,7.41,0,0,1-1.12-.34c-.1,0-.14-.24-.21-.36-.11.14-.31.28-.31.42a7.49,7.49,0,0,0,.15,1.83c.05.2.56.29.88.37.05,0,.21-.3.28-.47s.16-.52.24-.79l.22.85s0,.06,0,.08l.19.56a2.88,2.88,0,0,0,.28-.54,4.46,4.46,0,0,0,.09-.7,6.72,6.72,0,0,1,.08.74c0,.24,0,.55-.09.71a1.5,1.5,0,0,0-.16,1.56c0,.1-.09.25-.14.37-.14-.09-.33-.14-.4-.26a1,1,0,0,1,0-.48c0-.53.05-1-.73-.92-.28,0-.58-.23-.87-.37-.13-.06-.31-.27-.35-.24-.28.22-.54.48-.8.72l.62.17s.1,0,.1.06c0,.75.54.67,1,.74a.69.69,0,0,1,.21.12c-.06,0-.12.14-.18.14a4.53,4.53,0,0,1-.64-.08c-1.15-.21-2.29-.42-3.45-.62-.16,0-.46,0-.48.09a.74.74,0,0,0,0,.61,1.22,1.22,0,0,0,.65.24c3.76.72,7.57,1.3,10.86,3.51l.21.69v8.65c0,2.33,0,4.66,0,7,0,2.63-.05,5.25-.08,7.88A41.42,41.42,0,0,0,49.66,56c-2.19-.31-4.41-.41-6.62-.57-.18,0-.37.23-.56.36.14.16.26.45.42.47,1.54.19,3.1.31,4.64.52,2.16.28,4.31.62,6.47.94a4.14,4.14,0,0,1,.16.82Q54.12,71.78,54,85a3.59,3.59,0,0,1-.21.83l-.71.09a6,6,0,0,0,.35,1c.09.16.34.23.52.34v5.59a14.85,14.85,0,0,1-1.61.4c-1.2.16-2.42.27-3.63.4-2.21.25-4.41.51-6.62.74-.41,0-.67.08-.66.58,0,1.19,0,2.39,0,3.58A.71.71,0,0,0,42,99c.67,0,1.34-.09,2-.15A39.6,39.6,0,0,0,54,97.18c0,.3.06.59.06.89q-.05,13.58-.11,27.15c0,2.8,0,5.6-.06,8.39a3.53,3.53,0,0,0-.13.62c-.06,1.67-.13,3.33-.14,5a6.63,6.63,0,0,0,.27,1.36c0,2.43,0,4.86,0,7.29a3,3,0,0,1-.3.88l-.51.83h0c-.3.15-.6.3-.91.44s-.45.18-.5.12c-.43-.56-.67,0-1,.15s-.81.54-1.24.76c-.74.38-1.52.69-2.25,1.08-1.57.84-3.18,1.59-4.76,2.4s-3.45.68-5.11,1.32a19.64,19.64,0,0,1-4.31.69,1.67,1.67,0,0,1-.39,0,3,3,0,0,1,.23-.38c.42-.51.85-1,1.26-1.51.07-.09.06-.24.09-.36a1.21,1.21,0,0,0-.43.1c-.38.26-.72.59-1.1.84-1.3.84-2.35,2.35-4.28,1.53-.29-.12-.78.31-1.18.33-1.4,0-2.8,0-4.2,0a12.86,12.86,0,0,1-1.37-.15c-2.14-.26-4.29-.51-6.43-.79-.8-.11-1.58-.32-2.37-.44-.17,0-.36.13-.54.2a3.18,3.18,0,0,0,.29.41,3.62,3.62,0,0,0,.33.23,1.61,1.61,0,0,1,.19.23c-.09,0-.2,0-.28,0-.92-.43-2-.08-2.89-.75a1,1,0,0,0-.39-.1A2.09,2.09,0,0,1,8,154.8c-.16-.31-.66-.44-1-.65-1-1.09-2.08-2.2-3.14-3.27a2.68,2.68,0,0,1-.88-2c0-3.39-.13-6.79-.19-10.18q-.14-7.29-.26-14.57c.11,0,.27-.07.33,0a1.33,1.33,0,0,1,.23.38l.3-.44.1-.22.14,0,.1.08.08.69.28-.69.86-2c0,.67-.09,1.34-.12,2a5.11,5.11,0,0,0,.06.68c.1-.19.21-.39.3-.58.3-.63.6-1.26.89-1.89.09-.2.16-.41.23-.62-.2.08-.5.11-.58.26-.26.48-.42.22-.61,0l.2-.82a6.94,6.94,0,0,1-.69.47c-.08,0-.19.9-.33,0-.1,0-.26,0-.28.1-.19.78-.36,1.56-.53,2.34L3.3,124c-.66-.11-.34-.48-.23-.82a12.34,12.34,0,0,0,.4-1.36c0-.15-.12-.33-.19-.5a3,3,0,0,0-.37.45,2.45,2.45,0,0,0-.16.52l-.32-.5,0-.92a1.79,1.79,0,0,0,0-2.05c0-1.68-.11-3.36-.12-5,0-2.21,0-4.42,0-6.63-.07-3.08-.22-6.17-.33-9.25a4.36,4.36,0,0,0,.88.46c1.19.31,2.37.64,3.58.84,1.6.27,1.6.22,1.56-1.39s0-1.72-1.7-1.89a3.87,3.87,0,0,0-.48-.06c-.59,0-.78-.33-1-.84-.45-1,.32-1.34.89-1.79.72-.57,1.77-1,2.12-1.69s.1-1.86.12-2.81c0,0,0-.05,0-.08,0-.54-.14-.67-.59-.31-1,.79-1.94,1.55-2.89,2.36-.39.33-.65.61-.79-.18a3.68,3.68,0,0,0-.48-1.2,6.4,6.4,0,0,0-.77-.89l-.57.72-.1-5.26c.71.14,1.42.31,2.13.42,1.86.3,3-.51,3.59-2.4a10.77,10.77,0,0,0-.47-8.15,3.07,3.07,0,0,0-3.24-1.89L1.4,72l-.08-4.33c1.75-.09,3.5-.16,5.24-.31.34,0,1,.12,1-.65s-.08-1.52-.09-2.27c0-.43-.18-.57-.59-.53-1.19.1-2.38.19-3.57.27-.23,0-.46,0-.69,0a3,3,0,0,1,.22-.68C3.9,61.64,4.93,59.75,6.2,58a4.92,4.92,0,0,0,.95-3.72c0-.18-.36-.47-.52-.45-1.9.24-3.84.31-5.58,1.29L.9,46.34s.11,0,.15.06C2.53,48,4.51,48.74,6.42,49.61c.4.18.68.22.62-.37a10.71,10.71,0,0,1-.13-2c.08-1-.34-1.3-1.22-1.48-1.12-.22-1.1-.29-.8-1.4.15-.55.32-1.09.41-1.65a2.29,2.29,0,0,0,0-1.09c-.76-2.17-.77-2.16,1-3.61.06-.05.16-.08.2-.14a1.08,1.08,0,0,0,.22-.47c0-.95,0-1.9,0-2.85a1.47,1.47,0,0,0-.11-.37,1.59,1.59,0,0,0-.41.2c-.68.63-1.38,1.23-2,1.91C2.65,38,1.26,39.73,1,42.09c0,.08-.13.14-.21.21a6.53,6.53,0,0,1-.11-.79Q.6,36.59.51,31.67q-.13-7-.26-13.91l.32-1.31.28-.62.21-.46a9.49,9.49,0,0,0,1.41-1.1,8.49,8.49,0,0,1,2.73-1.89c.26-.13.51-.37.78-.39,1.67-.11,3-1,4.53-1.63A1.2,1.2,0,0,0,11,9.29,1.41,1.41,0,0,0,10,8.68,5,5,0,0,0,8.35,9a14.27,14.27,0,0,1-1.53.53,1.45,1.45,0,0,1-1.09-.28c-.74-.71-1.19-.78-1.85,0-.47.58-.81,1.28-1.23,1.9a.4.4,0,0,1-.36,0,3.64,3.64,0,0,1,.5-4.31A12.84,12.84,0,0,1,9.7,3.15c-.09.12-.16.32-.27.36A18.55,18.55,0,0,0,5.06,6.05,12.65,12.65,0,0,0,3.64,7.2c-.07.06-.05.24-.08.36a1.35,1.35,0,0,0,.35-.1c.91-.54,1.78-1.14,2.71-1.63A36.59,36.59,0,0,1,15.55,3a5.13,5.13,0,0,0,1.31-.81,7.58,7.58,0,0,1,.93-.51,10,10,0,0,1,1-.32c.93-.13,1.86-.32,2.8-.36.58,0,1.18.28,1.77.29,2.38,0,4.76,0,7.15,0a9.85,9.85,0,0,0,1.45-.22L30.51.83l-.24,0L30,.76A1.42,1.42,0,0,1,30.29.7l7,.51c.67.18,1.34.36,2,.56.09,0,.15.17.23.26-.1,0-.19.11-.29.1C37.48,2,35.76,1.76,34,1.6a17,17,0,0,0-2.11,0c-.2,0-.4.21-.6.32a3.19,3.19,0,0,1,.5.23c.08.05.1.18.14.28a15.33,15.33,0,0,1-2.18.91,12,12,0,0,1-2.07.14c-.11,0-.2.12-.3.18a2.21,2.21,0,0,0,.34.15c.13,0,.27,0,.4.05s.48.18.72.27a5.84,5.84,0,0,1-.5.59c-.32.29-.31.4.13.59.73.31,1.2-.08,1.68-.48a2.47,2.47,0,0,1,2-.73c.86.11,1.73.08,2.59.2a46,46,0,0,1,11,2.5,43.65,43.65,0,0,1,5.06,2.83,7.07,7.07,0,0,1,.69.52,7.47,7.47,0,0,0,.2-1.24c0-.21-.21-.42-.34-.62-.23-.37-.15-.61.29-.72A6.64,6.64,0,0,1,52.59,12c-.11.76-.53,1.62.16,2.25A8.2,8.2,0,0,1,54.36,16.81ZM48.11,77.11a.86.86,0,0,0,.09,1.28,6.07,6.07,0,0,0,1,.05c.15,0,.4-.27.38-.37a1.14,1.14,0,0,0-.39-.52s-.26.18-.39.28l-.46.4-.1-1,.5-.1a1.05,1.05,0,0,0-.08-.2C48.51,77,48.31,77.06,48.11,77.11ZM42.69,106l.21.29-.08-.42a4.87,4.87,0,0,0-.82.05,6.34,6.34,0,0,0,0,1.27,1.18,1.18,0,0,0,.37,0s.05-.06.08-.09-.21-.08-.25-.16A.61.61,0,0,1,42.69,106Zm1.49-85.83.21.29c.36.48.73.39,1.06,0a1.05,1.05,0,0,0,0-1.41s-.14,0-.22,0,0,.18,0,.28c.22.9.08,1.1-.77,1.09l-.2-.3c.06-.41.12-.81.19-1.22,0-.06.07-.11.1-.17s-.25-.05-.3,0A1,1,0,0,0,44.17,20.13ZM48.43,41l-.41-.1.23.32a4.2,4.2,0,0,0-.29.67s.28.15.43.22a2.63,2.63,0,0,0,.29-.67C48.69,41.3,48.52,41.13,48.43,41ZM47.09,77.71a2.92,2.92,0,0,0-.67.2s0,.46.11.48a4.82,4.82,0,0,0,.92.06l-.21-.59.27-.18c0-.05-.11-.16-.13-.15A1.92,1.92,0,0,0,47.09,77.71ZM41.88,19.82l.19.15L42,19.73a2.76,2.76,0,0,1-.14-.7c0-.43.14-.83.73-.65.14,0,.28.06.43.09-.11-.13-.2-.31-.34-.38a.77.77,0,0,0-1.12.65A3.29,3.29,0,0,0,41.88,19.82Zm7.74,86.36,0,0,.1.37c.09-.07.22-.13.25-.22.17-.45.27-.87-.37-1.06-.19-.06-.33-.25-.49-.39a4.18,4.18,0,0,0,0,1C49.17,106,49.45,106.08,49.62,106.18ZM47.56,80.54c0,.16,0,.32,0,.48s0,.3,0,.45c0,0,.13,0,.13,0,.13-.43.26-.87.39-1.3-.07,0-.15,0-.2,0a.71.71,0,0,0-.15.18c-.24-.66-.72-.39-1.14-.28s-.92.26-1.3-.17a1.83,1.83,0,0,1-.2-.35A3.46,3.46,0,0,0,45,80a2.5,2.5,0,0,0,0,.71c0,.19.17.49.3.51a1.64,1.64,0,0,0,.86-.11c.05-.52.7-.79.72-.68.19,1.08.52-.59.65.05C47.52,80.49,47.55,80.51,47.56,80.54Zm-3.92-2.19c.4-.17.63,0,.74.38s.33.62.75.29c.25-.19.54-.34.77-.55a.82.82,0,0,0,.24-.49c0-.07-.21-.24-.34-.25a4,4,0,0,0-1.1,0c-.52.1-.92.09-1-.53-.35-.4-.79-.38-1,0a3,3,0,0,0,0,1.19ZM4.54,138.24c-.2-.13-.38-.35-.59-.37s-.39.19-.58.31-.06.14-.08.21a1.29,1.29,0,0,1,.46-.19,3.19,3.19,0,0,1,.68.16A7.1,7.1,0,0,1,6,141.93c.18,1.22.38,2.46-.43,3.57.13-.63.28-1.25.38-1.89a.69.69,0,0,0-.19-.57c-.62-.44-1.27-.83-1.91-1.22-.08,0-.2,0-.31,0s0,.1,0,.13c.36.38.66.95,1.09,1.08.68.2,1,.49.86,1.17,0,.08,0,.16,0,.23a1.06,1.06,0,0,1-.26-.1l-1.83-1.41-.23-.17c0,.07-.11.15-.1.2.33,1,.66,1.95,1,2.92.29.2.73.63.84.56a3,3,0,0,0,1.14-1.14C6.91,143.29,6.1,139.75,4.54,138.24ZM45.47,74.63a2.36,2.36,0,0,1-.75.41.8.8,0,0,0-.81.75c0,.08.05.18.08.26.3-.49,1.12.5,1.27-.44l.19.31c.07-.15.13-.3.21-.45s.12,0,.12.06c.15.72.62.49,1.08.38.16,0,.49.08.49.06a8.34,8.34,0,0,0,.17-.9c-.2,0-.41,0-.61,0s-.38.1-.55.06a4.55,4.55,0,0,1-.75-.32l.24-.28Zm-.89-21-.43-.32a6.63,6.63,0,0,0-.21.8c0,.09.12.2.18.3a4.63,4.63,0,0,1,.2-.56c0-.08.16-.13.24-.19l.53.95.75-.73.53.8c.19-.14.39-.4.57-.39s.35.29.53.44c.08-.11.17-.22.24-.33a1.24,1.24,0,0,0,.09-.24,1.61,1.61,0,0,0,.05.23c0,.12.1.23.15.34.06,0,.17-.08.17-.13,0-.4.21-.92-.46-1a4.36,4.36,0,0,0-1.12-.11C45.92,53.63,45.21,53.07,44.58,53.67ZM50,113.21c.29-.14.58-.29.88-.4s.47,0,.53-.14a1.67,1.67,0,0,0,.08-.66c-.2,0-.4.05-.59.1-.45.11-.88.26-1.33.33a2.58,2.58,0,0,1-.69-.14,2.35,2.35,0,0,0-.65,0,9.8,9.8,0,0,0-.18,1.19l.68.07a1.87,1.87,0,0,1,.6,0c.16.07.25.28.37.43l.31-.76ZM45.22,31l-1.14-.45c-.06.27-.13.55-.17.82,0,.07.1.16.15.24s.16-.08.16-.12c0-.81.66-.36,1-.51-.41.55.23.67.42,1,.06.09.39,0,.59,0a.88.88,0,0,1,.24,0l2,.63s.14-.1.14-.15a5.36,5.36,0,0,0-.06-1.1c0-.07-.41,0-.63-.08s-.21-.07-.31-.08ZM47,73.42h0l.5-.12s.09,0,.13,0c.3.12.59.28.91.36.75.22.24-.53.5-.69-.14-.1-.28-.3-.42-.3-.54,0-1.09.1-1.63.09a1.42,1.42,0,0,1-.69-.29c-.08-.05-.07-.25-.1-.38-.12.08-.28.13-.35.25-.16.27-.23.64-.69.36-.06,0-.43.22-.44.35s.23.55.29.54C45.69,73.39,46.38,73.69,47,73.42Zm-3.85-13c.14.67.67.49,1.11.51a1.53,1.53,0,0,0,.51-.06,4.68,4.68,0,0,0-.09-1,2.08,2.08,0,0,0-.56,0c-.13,0-.33.15-.36.12-.57-.69-.26.27-.46.24,0-.24-.57-.66,0-.68a39.49,39.49,0,0,1,4,.23c.11,0,.22.11.33.17-.08.05-.23.11-.23.17a5,5,0,0,0,0,1.07c0,.13.25.23.39.34a3,3,0,0,1-.75.34c-.21,0-.45-.14-.68-.15a2.6,2.6,0,0,0-1,.08c-.22.08-.36.39-.53.6-.15-.29-.3-.58-.46-.87a1.16,1.16,0,0,1-.2.09,2,2,0,0,1-.82.1c-.43-.13-.63,0-.64.4s.07.64.59.64c.91,0,1.83.2,2.73.12.73-.06,1.57.45,2.22-.3,0,0,.2.12.32.17l1,.43a6.59,6.59,0,0,1-.09-.81c0-.33.13-.72-.46-.42-.06,0-.39-.27-.45-.47s.1-.39.17-.59a1.22,1.22,0,0,0,.25.34,1,1,0,0,0,.39.08l1.12.16c.22,0,.37-.62.64-.06a.5.5,0,0,0,.12-.09.66.66,0,0,0-.39-.91l-.8-.12a2.19,2.19,0,0,1-.33-.11c.13-.06.26-.17.38-.16.64.07,1.28.19,1.93.27a1.88,1.88,0,0,0,.46-.06c-.13-.11-.25-.29-.39-.31-1-.15-1.93-.31-2.9-.39-2.11-.17-4.22-.29-6.33-.42-.12,0-.25.13-.38.2Zm9.58,62.73a27.55,27.55,0,0,0-.81-3.23,1.4,1.4,0,0,0-2.24-.75,4.14,4.14,0,0,0-1.53,1.4,23.73,23.73,0,0,0-1.5,3.56,5.47,5.47,0,0,0,1.46,5.12,1.65,1.65,0,0,0,2.4.07,4.79,4.79,0,0,0,1.34-1.95A41.91,41.91,0,0,0,52.75,123.19ZM26.45,29.87l-.33.1a1.8,1.8,0,0,0,.22.48c1.37,1.56,2.74,3.12,4.13,4.66.76.84.76.81,0,1.61q-1.83,1.85-3.62,3.74a2.32,2.32,0,0,0-.31.71,2,2,0,0,0,.72-.19c1.89-1.49,3.76-3,5.64-4.5.41-.32.35-.6,0-.92l-5.93-5.43A2.15,2.15,0,0,0,26.45,29.87Zm7.27,1.91-.43-.52c-1.41-1.64-2.79-3.31-4.23-4.92-.52-.58-.59-.91,0-1.49,1.37-1.27,2.64-2.65,3.93-4,.11-.11.12-.32.18-.49-.17,0-.38,0-.52.07-.55.35-1.09.72-1.6,1.12-1.49,1.17-3,2.36-4.43,3.52-.48.38-.28.69.06,1l3.89,3.48c.77.68,1.53,1.37,2.32,2C33.07,31.7,33.31,31.69,33.72,31.78Zm-7.29-10.4a11.25,11.25,0,0,0,1.17-.72c1.72-1.36,3.4-2.76,5.13-4.11.39-.3.44-.48.08-.8-2-1.79-3.92-3.59-5.9-5.36a2.34,2.34,0,0,0-.79-.29c.11.2.21.41.33.6a3.85,3.85,0,0,0,.37.53c1.24,1.4,2.47,2.82,3.75,4.18.46.49.38.77-.08,1.16-.71.6-1.39,1.24-2,1.91S27,20,26.35,20.84a1,1,0,0,0-.14.43S26.33,21.33,26.43,21.38Zm7.33,30a14.9,14.9,0,0,0-.9-1.3c-1.24-1.4-2.48-2.79-3.75-4.16-.33-.35-.37-.56,0-.92,1.21-1.21,2.39-2.45,3.56-3.7a9.24,9.24,0,0,0,.77-1.1,6.22,6.22,0,0,0-1.21.59C30.47,42.17,28.75,43.58,27,45c-.35.28-.41.48,0,.82,1.28,1.16,2.5,2.38,3.78,3.53.77.69,1.6,1.3,2.42,1.93C33.29,51.33,33.46,51.32,33.76,51.39Zm-6.82,9.43a2.39,2.39,0,0,0,.44-.22c2-1.56,3.93-3.12,5.88-4.71a.65.65,0,0,0,0-.62c-.69-.73-1.4-1.44-2.15-2.1C29.78,52,28.46,51,27.14,49.89a1.85,1.85,0,0,0-.58-.2,2.8,2.8,0,0,0,.21.54,6.15,6.15,0,0,0,.63.85c1.19,1.3,2.38,2.61,3.59,3.88.37.39.56.67,0,1.09a14.08,14.08,0,0,0-1.4,1.36q-1.38,1.44-2.72,2.9a1.34,1.34,0,0,0-.17.43Zm6.82-1c0-.07-.1-.19-.13-.18a1.16,1.16,0,0,0-.44.17c-2,1.58-3.93,3.16-5.87,4.77-.1.08,0,.55.11.69.76.77,1.54,1.51,2.36,2.21,1.15,1,2.33,2,3.51,2.91a1.87,1.87,0,0,0,.57.21,1.58,1.58,0,0,0-.19-.56c-1.4-1.57-2.79-3.15-4.24-4.66-.38-.39-.34-.54,0-.89,1.29-1.31,2.56-2.66,3.82-4A6.83,6.83,0,0,0,33.76,59.8Zm0,30a1.64,1.64,0,0,0,.21-.12,2.07,2.07,0,0,0-.29-.62c-1.33-1.49-2.66-3-4-4.44-.35-.37-.36-.49,0-.85,1.3-1.34,2.56-2.72,3.83-4.09A4,4,0,0,0,33.9,79a2.82,2.82,0,0,0-.87.31c-1.84,1.5-3.66,3-5.49,4.54-.37.3-.17.5.07.7l5.77,5A4.35,4.35,0,0,0,33.78,89.84ZM34,98.07c-.14,0-.25-.12-.33-.09a1.6,1.6,0,0,0-.5.26c-1.84,1.52-3.67,3-5.48,4.58a.71.71,0,0,0,0,.69q2.57,2.3,5.21,4.53a5.46,5.46,0,0,0,1.12.57,6.19,6.19,0,0,0-.68-1.19q-1.74-1.91-3.57-3.75c-.39-.39-.36-.6,0-1q1.28-1.18,2.47-2.45c.56-.59,1-1.24,1.56-1.87C33.87,98.33,33.92,98.23,34,98.07ZM27.31,80.22a1.91,1.91,0,0,0,.31-.16l5.75-4.64c.36-.29.32-.53,0-.84-.79-.7-1.52-1.48-2.32-2.17-1.11-1-2.25-1.87-3.39-2.77a2.52,2.52,0,0,0-.71-.27,3,3,0,0,0,.32.61c1.12,1.29,2.23,2.59,3.4,3.83s1.11,1.23,0,2.34-2.2,2.33-3.28,3.51a1.09,1.09,0,0,0-.18.43S27.25,80.18,27.31,80.22ZM34,146.07c.05-.15.15-.3.12-.37a1.91,1.91,0,0,0-.37-.53c-1.29-1.31-2.57-2.64-3.91-3.9-.45-.43-.35-.61,0-1,1.32-1.42,2.59-2.87,3.87-4.33a1.42,1.42,0,0,0,.17-.48,1.8,1.8,0,0,0-.42.19l-5.78,4.67c-.36.29-.33.59,0,.87l5.72,4.54A6.36,6.36,0,0,0,34,146.07Zm-2-33.2a1.74,1.74,0,0,0-.38.22q-2,2.05-3.91,4.13a3,3,0,0,0-.36.65,2,2,0,0,0,.71-.21c1.86-1.53,3.7-3.07,5.52-4.65a.8.8,0,0,0,0-.78,15.8,15.8,0,0,0-1.58-1.37q-2.2-1.75-4.41-3.47a1.23,1.23,0,0,0-.42-.12,1.5,1.5,0,0,0,.14.36,12.72,12.72,0,0,0,1,1.29c1,1.11,2.11,2.19,3.17,3.28C31.57,112.38,31.72,112.57,32,112.87ZM27.36,88.54l-.32.09a1.57,1.57,0,0,0,.19.42c1.32,1.47,2.62,3,4,4.4.45.48.59.72,0,1.26-1.33,1.27-2.56,2.65-3.82,4a1.67,1.67,0,0,0-.22.56,1.69,1.69,0,0,0,.55-.18q2.92-2.36,5.8-4.77c.08-.06,0-.48-.12-.59q-2.12-1.95-4.29-3.85C28.56,89.38,27.93,89,27.36,88.54Zm4.56,43.09-.48.51c-1.21,1.27-2.43,2.53-3.62,3.82a5.12,5.12,0,0,0-.57,1,5.93,5.93,0,0,0,1-.55c1.72-1.38,3.44-2.78,5.12-4.21.28-.24.69-.59.14-1-1.87-1.57-3.71-3.16-5.58-4.73a1.65,1.65,0,0,0-.61-.18,1.94,1.94,0,0,0,.24.54c1.27,1.44,2.55,2.87,3.83,4.3Zm2.45-4.45a9.39,9.39,0,0,0-.65-.91c-1.17-1.24-2.35-2.48-3.55-3.69-.78-.79-.77-.79,0-1.57,1.24-1.28,2.44-2.6,3.64-3.92a1.53,1.53,0,0,0,.19-.55l-.52.19a.79.79,0,0,0-.21.13l-5.47,4.62c-.34.28-.27.48.05.76,1.37,1.19,2.7,2.43,4.08,3.61a16.11,16.11,0,0,0,1.8,1.24C33.86,127.17,34,127.14,34.37,127.18ZM34.1,150.3a3,3,0,0,1-.43-.24c-.45-.35-.87-.73-1.32-1.08q-2.22-1.71-4.46-3.41a2.23,2.23,0,0,0-.59-.22c.05.18.05.41.17.53,1,1.08,2.1,2.12,3.13,3.2a5.35,5.35,0,0,1,1.18,1.49c.08.19-.59.68-.9,1q-1.57,1.86-3.12,3.73a1,1,0,0,0-.11.35c.12,0,.27,0,.37,0a5.84,5.84,0,0,0,1-.66c1.53-1.38,3-2.78,4.56-4.17C33.72,150.74,33.84,150.59,34.1,150.3Zm13-9.77a15.19,15.19,0,0,0,.42,1.72,1.8,1.8,0,0,0,3.43.33,8.53,8.53,0,0,0,.85-6.83c-.38-1.33-1.38-1.56-2.42-.63A7.36,7.36,0,0,0,47.15,140.53ZM7.63,126.86l.2.51a4,4,0,0,0,.43-.53,1.38,1.38,0,0,0,.1-.47c.21-1.47.45-2.95.63-4.42a4,4,0,0,0-.14-1c-.24.27-.49.54-.72.82-.06.07,0,.21-.06.31-.23.72-.45,1.44-.69,2.15,0,.13-.19.23-.29.34a1.49,1.49,0,0,1-.13-.5c.1-1,.24-1.93.34-2.9a1.82,1.82,0,0,0-.15-.59c-.18.18-.49.35-.51.55A24,24,0,0,0,6.51,124a3.22,3.22,0,0,0,.44,1l.66-.75c.05-.06.06-.15.12-.21a2.58,2.58,0,0,1,.28-.22,1.25,1.25,0,0,1,0,.31C7.91,125,7.78,125.87,7.63,126.86ZM27.57,6.1l-.7.33a3,3,0,0,0,.41.47q2.49,1.88,5,3.74c.34.25.71.47,1.06.7a5.2,5.2,0,0,0-.74-1.26C31.43,9,30.21,7.88,29,6.84A7.45,7.45,0,0,0,27.57,6.1ZM53.38,49.31A1.56,1.56,0,0,0,52,48a1.37,1.37,0,0,1-.83-.15c-.23-.15-.32-.3-.66-.17a.7.7,0,0,1-.93-.37c0-.07-.24-.14-.28-.11-.59.44-1,.13-1.44-.27s-.76-.23-.82.21,0,1.05.27,1.15a5.22,5.22,0,0,0,1.7.21s.07-.19.1-.29l.09-.27.06.23a1.47,1.47,0,0,0,1.53.69c.32-.18.5-.05.52.33a.82.82,0,0,0,.11.29c.36-.13.88-.17,1-.43.32-.5.15-.09.23.06a2.73,2.73,0,0,0,.46.51ZM43.2,45.07v.09a.93.93,0,0,0-.24,0c-.14,0-.27.07-.41.1a3.14,3.14,0,0,0,.39.22,1.38,1.38,0,0,0,.32,0c1.63.22,3.27.39,4.89.68,1.46.26,2.9.66,4.35,1a1.44,1.44,0,0,0,.35,0c-.07-.1-.13-.25-.23-.29a5,5,0,0,0-1.07-.37c-.44-.07-.56-.19-.46-.69.23-1.16.09-1.31-1-1.64-.23-.07-.42-.3-.65-.38a.61.61,0,0,0-.44.06,4.07,4.07,0,0,0,0,1.17c0,.12.39.17.59.26a1.53,1.53,0,0,1,.44.19,5.17,5.17,0,0,1,.49.57,3.43,3.43,0,0,1-.69,0ZM14.8,113.31h0a2,2,0,0,0,0-.49c-.09-.36.32-1-.4-1-.07,0-.19.6-.28.92,0,0,0,.06,0,.08l-.06.3a1,1,0,0,1-.3-.2c-.26-.35-.48-.73-.75-1.06-.1-.13-.32-.16-.49-.24a1.58,1.58,0,0,0-.18.48c0,.71,0,1.41,0,2.12,0,.15.22.3.34.44.12-.11.31-.21.34-.34.16-.68.45-.46.76-.13.09.1.13.26.24.33a4.84,4.84,0,0,0,.61.31,2.32,2.32,0,0,0,.19-.54C14.82,114,14.8,113.64,14.8,113.31ZM43.33,68l-.18-.21c-.17.19-.46.36-.48.56,0,.36.09.64.63.57s1.1.12,1.65.07c.18,0,.34-.41.5-.63.18.22.35.6.56.63a24.91,24.91,0,0,0,2.5.12c.07,0,.22-.13.21-.18-.08-.37-.07-.92-.31-1.07a1.33,1.33,0,0,0-1.2,0,1.26,1.26,0,0,1-1.1.13,5.65,5.65,0,0,0-2.42-.08ZM15.89,113.4h0a11.66,11.66,0,0,0,0,1.22c0,.13.2.35.32.35a.65.65,0,0,0,.42-.28c.07-.09,0-.26,0-.39a1,1,0,0,1,.14-.26,2,2,0,0,1,.21.19,1.43,1.43,0,0,1,.28.39.73.73,0,0,0,1,.48,3.59,3.59,0,0,0-.27-.85c-.33-.54-.9-1-.06-1.6.17-.12.24-.37.35-.57a7.62,7.62,0,0,0-.9.14c-.11,0-.17.2-.27.29a4.47,4.47,0,0,1-.38.27,1.29,1.29,0,0,0-.11-.42,3.32,3.32,0,0,0-.43-.44c-.11.17-.29.33-.32.52A5.94,5.94,0,0,0,15.89,113.4ZM47.25,44.14l-.18-.34-.22.44-.1.17a.46.46,0,0,0-.05-.15,10.24,10.24,0,0,1-.68-.82c-.41-.62-.64.08-1,.1s-.95-.37-1.33.17c0-.12-.09-.24-.14-.36s-.11-.43-.25-.53-.45,0-.48.09a1.54,1.54,0,0,0,0,.66c0,.06.12.11.16.18s0,.09-.05.13c-.26.31-.23.59.08.56a12.77,12.77,0,0,1,1.43.14,12.15,12.15,0,0,1,2,.3C47.13,45,47.25,44.8,47.25,44.14Zm5.1,88.54-.09-.37c-.17,0-.33-.05-.5-.06a1.82,1.82,0,0,0-1.66.48c-.54.55-1.5.66-2,1.44a4.06,4.06,0,0,1-.53.6l.78-.23s0,0,.07,0c.62.07,1-.11,1-.82,0-.07.07-.14.11-.21s.14.07.15.11c.14.9.59.32.92.18a6,6,0,0,0,1-.56A6,6,0,0,0,52.35,132.68Zm.79-94.4,0-.13a1.73,1.73,0,0,0-.3-.22,13.81,13.81,0,0,0-2.45-1C48,36.38,45.5,36,43,35.51a1.74,1.74,0,0,0-.57.1,4.3,4.3,0,0,0,.46.36,1,1,0,0,0,.38.11c1.26.18,2.54.26,3.77.56,1.89.45,3.73,1.06,5.6,1.59A3.44,3.44,0,0,0,53.15,38.29ZM48,145.17l-.13-.24c-.19.13-.46.21-.56.39a1,1,0,0,0,0,.68c0,.08.28.19.39.15a15,15,0,0,0,2-.8A18.47,18.47,0,0,0,51.85,144c.19-.14.23-.49.33-.75a2.4,2.4,0,0,0-.6.11c-.38.18-.74.41-1.12.6ZM7.94,112.62a4.59,4.59,0,0,0,0,.91c0,.17.19.32.29.48a1.85,1.85,0,0,1,.32-.34c.1-.06.3-.11.36-.06s.31.42.5.61c0,0,.23-.11.35-.18-.42-.46-.07-.88,0-1.34a1.35,1.35,0,0,0-.26-1.11,4.27,4.27,0,0,0-1.4-.47c-.06.32-.13.64-.16,1A2.87,2.87,0,0,0,7.94,112.62ZM47.5,66.86c0-.76,0-.69-.56-.69-.92,0-1.84-.12-2.76-.2-.4,0-.8-.15-1.2-.19-.07,0-.2.15-.23.25s.1.26.12.26c.44-.12.43,1.22,1.09.33a1.83,1.83,0,0,0,.22.31c.11.1.24.24.38.25a10.4,10.4,0,0,0,1.63,0c.23,0,.45-.25.67-.37a.16.16,0,0,1,.14,0c.12.11.22.24.33.36ZM43.05,38.48l-.07.14-.47.18A2.36,2.36,0,0,0,43,39a13.74,13.74,0,0,0,1.57.31,25.57,25.57,0,0,1,9.07,2.32l.22.09c0-.08,0-.21-.11-.24a7.37,7.37,0,0,0-1.76-1C49,39.8,46,39.15,43.05,38.48Zm3.17,2.67a5.58,5.58,0,0,0-.45-.77s-.28,0-.39.12-.09.19-.14.3a1.36,1.36,0,0,0-.12-.36,1.58,1.58,0,0,0-.36-.39c-.51.34-.81.23-1.13-.3-.1-.17-.58-.12-.89-.17a3.2,3.2,0,0,1,.18.51c0,.24,0,.49.07.72s.15.44.23.44a9.1,9.1,0,0,1,2.46.34C45.8,41.62,46,41.33,46.23,41.15Zm2.68-5.69-.31-.81c-.79.34-1.38-1.06-2.22-.26,0,0-.17,0-.22-.09-.32-.32-.65-.27-.73.14s.19.61.3.92c.3-.21.79.27,1-.28l.13-.34A1.8,1.8,0,0,1,47,35c.1.46,1.32,1.07,1.71.82C48.79,35.8,48.82,35.61,48.9,35.45ZM27.31,36.85a.91.91,0,0,0,.9-1c0-.52-.14-1-.81-1.1a1.08,1.08,0,0,0-1.23,1A1,1,0,0,0,27.31,36.85ZM46.92,64.14c-.31-.19-.6-.52-.78-.47-1,.32-2.17-.86-3.15.17,0,0,0-.06-.05-.06l-.29,0,.41.72c.27-.63.43.07.66.06s1-.13,1.08,0c.29.5.22-1.33.44-.05.05,0,.14,0,.15-.06a4,4,0,0,0,.12-.42c0,.15,0,.38.13.44a.69.69,0,0,0,.56.09c.12-.05.14-.31.21-.48l.15.46ZM5.56,112h0a5.09,5.09,0,0,0,0,1.06.82.82,0,0,0,.44.53,1,1,0,0,0,.8-.07,2,2,0,0,0-.43-2.71c-.7-.36-.88-.25-.86.53C5.56,111.52,5.56,111.74,5.56,112ZM42.48,24.74l.08,0a1.81,1.81,0,0,0,0,.4c.08.33.18.66.27,1l.25-.92.06-.22a1.24,1.24,0,0,1,.19.23,9.44,9.44,0,0,0,.42.88c.08.13.28.19.43.28.07-.14.2-.27.2-.41a10.72,10.72,0,0,0,0-1.46,3.54,3.54,0,0,0-.25-.78c-.08.24-.18.49-.25.73a2.62,2.62,0,0,0,0,.47l-.31-.42-.77-1ZM27.25,54.49c-.18.2-.72.54-.74.9a1,1,0,0,0,1,1.05c.57,0,1.07-.23,1-.88S28.25,54.5,27.25,54.49ZM27,16.82c.58,0,1.07-.2,1.08-.91a1.08,1.08,0,0,0-1.1-1,.91.91,0,0,0-1,1C26,16.42,26.25,16.88,27,16.82ZM42.83,31.95l-.31.12a1.44,1.44,0,0,0,.3.21,2.18,2.18,0,0,0,.4.06A40.28,40.28,0,0,1,52,34.49a1.8,1.8,0,0,0,.46.05c-.11-.12-.2-.29-.34-.35A37.65,37.65,0,0,0,42.83,31.95ZM32,65.29c.2.18.47.61.85.73s1.14-.55,1.08-1-.39-1-1-1S32,64.41,32,65.29Zm16.94,40.48-.24-.78a1.6,1.6,0,0,1-.28.5c-.11.1-.33.06-.49.11-.42.13-1.05-.21-1.21.53a.58.58,0,0,1-.18,0,5.22,5.22,0,0,0-1-.1c-.14,0-.26.27-.39.41.14.12.3.37.42.35.5-.09,1.12.15,1.48-.44,0,0,.09,0,.12,0a.56.56,0,0,0,.8-.07.27.27,0,0,1,.25-.05C48.95,106.77,48.73,106,48.93,105.77Zm-16.65-79c.65,0,1.09-.25,1.15-.9a1.08,1.08,0,0,0-1.1-1.07.84.84,0,0,0-.87,1C31.48,26.25,31.55,26.83,32.28,26.77Zm1.35,18.95a1.09,1.09,0,0,0-1-1.11c-.62,0-1,.45-.86,1a1.43,1.43,0,0,0,.74,1A.92.92,0,0,0,33.62,45.71ZM45.09,58.83c.12-.2.36-.42.34-.6a1.71,1.71,0,0,0-.42-.8c-.1-.12-.38-.06-.51-.16-.61-.49-.91-.43-1.21.28,0,.09-.09.17-.13.25-.06-.08-.12-.16-.17-.25L42.66,57c0,.06-.12.14-.1.18.15.46.32.91.5,1.36a.24.24,0,0,0,.2,0,.83.83,0,0,0,.16-.28c.06-.15.1-.31.16-.46s.09-.1.14-.14a.41.41,0,0,1,0,.15C43.54,58.82,44.45,58.51,45.09,58.83Zm7,86.06a2.48,2.48,0,0,0-.11-.29,1.77,1.77,0,0,0-.43.13l-3.9,2c-.1,0-.25.06-.29.13a2.33,2.33,0,0,0-.16.49c.14,0,.31.08.43,0,1.23-.56,2.45-1.13,3.65-1.74A4,4,0,0,0,52.13,144.89ZM28.88,94.19c0-.59-.29-1-.92-1a.9.9,0,0,0-1,.94.83.83,0,0,0,.87.94C28.41,95.06,28.83,94.83,28.88,94.19ZM29,112.94a1,1,0,0,0-1-1.11c-.47,0-1.09.57-1,1s.31,1,.94.93S29,113.49,29,112.94Zm15-48.06v0c-.32,0-.65,0-1,0a2.37,2.37,0,0,0-.43.1,1.37,1.37,0,0,0,.45.21q4.46.27,8.91.52a2.64,2.64,0,0,0,.54-.08L52,65.41a.48.48,0,0,0-.16,0Zm.45-13.16,0,.1-.89.05a2.51,2.51,0,0,0-.36.08,2.88,2.88,0,0,0,.37.11l6.74,1,2.07.31a1,1,0,0,0,.3-.06,1.17,1.17,0,0,0-.22-.22,1.31,1.31,0,0,0-.44-.2Zm3.14-1.4c-.61-.3-.56.28-.45.57s.44.87.75.93.86-.22,1.3-.36c0,0,0,0,0-.07L49.4,51a1.71,1.71,0,0,0,.07.47.63.63,0,0,0,.3.31c.05,0,.23-.12.27-.23a.84.84,0,0,0-.67-1.1C48.83,50.38,48.29,50.36,47.66,50.32Zm1.7,35.21c-.12.1-.34.2-.34.3A9.53,9.53,0,0,0,49.09,87c.44-.06.89-.11,1.33-.18.06,0,.1-.13.15-.21.43.68,1,0,1.55.17a5.26,5.26,0,0,0,.3-.61l-.45-.2a2.14,2.14,0,0,1-.45-.25c-.07-.06-.07-.2-.1-.3a3.78,3.78,0,0,0-.41.19c.17.51-.11.41-.44.38a1.58,1.58,0,0,0-.73.22,4.37,4.37,0,0,0-.58.39c.09-.22.19-.45.27-.67,0-.07.07-.16,0-.2S49.46,85.6,49.36,85.54Zm-6.21-37-.57.3a1.77,1.77,0,0,0,.34.14c.27,0,.54.07.8.11L52,50.35a2.82,2.82,0,0,0,.46,0c-.13-.09-.25-.25-.4-.28Zm9.5,24.77-.06-.42-.52-.15c-.51-.13-1-.25-1.54-.4-.2-.06-.42-.32-.54-.27-.66.28-.24.77-.14,1.16,0,.17.37.43.41.41.58-.39,1.15.08,1.71,0A2.65,2.65,0,0,0,52.65,73.32ZM27.55,76c.91,0,1.39-.41,1.33-1s-.34-1-1-1A.87.87,0,0,0,27,75C27,75.38,27.4,75.73,27.55,76Zm1.53,55.8c0-.64-.39-1-.86-.89a1.64,1.64,0,0,0-1,1,.72.72,0,0,0,.79.88A1,1,0,0,0,29.08,131.77ZM34,84c-.23-.19-.53-.63-.91-.7-.57-.1-1,.28-1,.92s.2.91.79.92S33.95,84.92,34,84Zm-.94,57.74c.34-.36.84-.67,1-1.1.06-.21-.54-.81-.91-.89a.84.84,0,0,0-1,.9C32.15,141.19,32.38,141.54,33.11,141.74Zm-.29-37.57c.8-.14,1.3-.31,1.28-1a.87.87,0,0,0-1-.92.82.82,0,0,0-.85,1C32.3,103.61,32.66,103.93,32.82,104.18Zm13.84,7.28.07.16a6,6,0,0,0,.7-.42c.05,0,0-.34,0-.34-.23,0-.46,0-.68,0a1.31,1.31,0,0,1-.53-.13c-.11-.06-.16-.22-.24-.34a1.33,1.33,0,0,0-.07.45c.16.77-.34.68-.79.6A5.18,5.18,0,0,0,44,111.2c-.21,0-.4.32-.6.5.17.12.35.36.51.35a6.71,6.71,0,0,0,1.22-.22Zm1.5-44.83c0,.34-.12.85.67.65.28-.07.65.22,1,.34.08,0,.19.12.25.1.29-.12.38-1.17.08-1.31s-.85-.18-1.22-.38C48.25,65.69,48.14,66,48.16,66.63ZM43.08,41.82l-.54.21a1.63,1.63,0,0,0,.46.24c.67.1,1.34.14,2,.26,1.86.33,3.71.7,5.56,1a1.91,1.91,0,0,0,.6-.09,1.74,1.74,0,0,0-.51-.31C48.12,42.71,45.58,42.26,43.08,41.82Zm-8.89,80.05a.91.91,0,0,0-1-1c-.59,0-.86.41-.83,1s.27.87.86.84S34.19,122.42,34.19,121.87ZM42,72.68h0a4.48,4.48,0,0,0,0,.57c0,.09.1.17.15.25.22-.7.4.13.66,0s.35.24.52.38.21.29.3.28S44,74.09,44,74a3.52,3.52,0,0,0,.1-1.12c0-.1-.34-.27-.5-.25-.56.06-1.14.29-1.38-.5a.2.2,0,0,0-.18-.09.24.24,0,0,0-.11.18C42,72.36,42,72.52,42,72.68ZM10.18,134.13c0,.92.19,1.06,1,.84a.83.83,0,0,1,.39,0l.75.21s0,0,.08,0l-.31-.36c.06,0,.17-.07.19-.12.12-.53.08-1-.64-.88-.26,0-.73-.41-.81.25,0,0-.13,0-.15,0s-.24-.28-.36-.42Zm19,16.34c-.22-.18-.53-.59-.9-.67a.78.78,0,0,0-.94.85,1.19,1.19,0,0,0,.71.86C28.51,151.62,29.06,151.44,29.15,150.47ZM51.27,32.76c.06.92.32,1.11,1.2.86.06,0,.16.16.26.23l.82.59c0-.06.12-.14.11-.18-.13-.3-.27-.59-.42-.88l-.05-.06c-.48-.47-1.32-.49-1.56-1.26-.12,0-.33.07-.35.15A1.86,1.86,0,0,0,51.27,32.76Zm-4.35,76c-.22.71.24.62.62.5s.78-.47.81-.42c.35.44.61.1.88-.06.1-.06.24-.26.21-.33a7.08,7.08,0,0,0-.44-.82,1.69,1.69,0,0,1-.21.38c-.24.26-.47.62-.77.69s-.45-.4-.7-.61a.29.29,0,0,0-.26,0A5.54,5.54,0,0,0,46.92,108.76Zm3.74,2a1.33,1.33,0,0,0,1.39-1.46c0-.12-.12-.32-.2-.33a2.37,2.37,0,0,0-1.66,1.17C50.14,110.4,49.94,110.9,50.66,110.75ZM32.41,7.35c.23-.22.69-.59.66-.64a10.7,10.7,0,0,0-1-1.14c-.28.28-.75.53-.8.84C31.22,7,31.74,7.19,32.41,7.35ZM49.58,76.2l.13-.17a1.06,1.06,0,0,1,.24,0c.67.16.62-.41.78-.77l-.83-.13c-.28,0-.76,0-.8-.12-.34-1-.76-.14-.88,0s0,.58,0,.88c.19-.06.39-.11.58-.19s0-.13.07-.2,0,.12,0,.15Zm.68-16.71c.43-.29.63-.41.82-.56a2.05,2.05,0,0,0,.24-.24.84.84,0,0,0,0,.3,1,1,0,0,0,.29.35s.28-.14.27-.18c-.11-.43-.12-1-.41-1.22a3.33,3.33,0,0,0-1.42-.34,1.35,1.35,0,0,0-.13.32c.5.22.11.48.07.74A2.73,2.73,0,0,0,50.26,59.49Zm-6.94-32.4.2-.19-.59-.48a7.37,7.37,0,0,0-.43.68c-.05.1,0,.25,0,.38,0,.57.28.84.81.68a1.23,1.23,0,0,1,.45,0c.25,0,.5.07.74.11a2.86,2.86,0,0,0-.1-.91c0-.1-.44-.06-.68-.06-.08,0-.16.08-.24.13ZM47,82.7,46.59,82c-.3.66-1.31.24-1.55,1a.32.32,0,0,1-.14,0l-.42-.35a4.32,4.32,0,0,0-.19.69.63.63,0,0,0,.42.14,8.93,8.93,0,0,0,.93-.37,1.33,1.33,0,0,1,.24,0c0,.42.19.59.54.38A3,3,0,0,0,47,82.7Zm4.57-1.86c-.64-.23-.35-1.25-1.28-.94-.36.12-.86.18-1-.44,0-.1-.41-.09-.63-.14a2.31,2.31,0,0,0,.08.56,2.42,2.42,0,0,0,.41.75,1,1,0,0,0,.58.25c.47,0,.95,0,1.42.05A3.21,3.21,0,0,0,51.57,80.84Zm0-15.74c.59.21.55-.43.8-.72a4.62,4.62,0,0,0-.71-.27A4.38,4.38,0,0,0,50.46,64c-.22,0-.43.25-.65.38.18.22.32.56.56.65A4.37,4.37,0,0,0,51.54,65.1ZM43,46.12c-.05.15-.2.36-.16.5.24.82.25.83,1,1.16a2.11,2.11,0,0,0,.68.06c0-.28.14-.7,0-.81A10.51,10.51,0,0,0,43,46.12Zm4.73,35.59-.26.15c.07.06.16.12.2.2a1.19,1.19,0,0,1,.14.47c0,.08-.16.16-.24.24.23.16.44.4.69.45a2.87,2.87,0,0,0,1.3,0c.28-.08.48-.47.71-.72a2.64,2.64,0,0,0-.61-.17c-.57,0-1.25.36-1.56-.49C48,81.77,47.83,81.76,47.69,81.71ZM46,57.62l-.22-.19a1.66,1.66,0,0,0-.14.64c.17.77.84.71,1.41.75.13,0,.29-.22.39-.37a1,1,0,0,0,.08-.36c0,.14.07.28.12.41s.07.18.11.27.11-.06.11-.07c-.12-.36-.15-.95-.38-1A4.39,4.39,0,0,0,46,57.62ZM7.6,133.42c-.08-.21-.1-.54-.24-.62a6.6,6.6,0,0,0-1.19-.37c0,.29-.16.72,0,.86a6,6,0,0,0,1.2.76ZM50,54.86c0-.47,0-.47-.71-1.13a4.12,4.12,0,0,0-.45-.32c-.09.18-.27.38-.25.55a7.17,7.17,0,0,0,.3,1.11c.61-.35.37.49.69.5a.46.46,0,0,0,.35-.23A1.48,1.48,0,0,0,50,54.86Zm.93,23.22-.18.15a1.82,1.82,0,0,0,.32.19c.14,0,.4,0,.43.1.26.68.34.23.71,0,.53-.27.37-.57.3-.87,0-.08-.5,0-.75-.07a2.53,2.53,0,0,1-.75-.35c-.08-.05-.06-.26-.08-.39-.09.18-.26.35-.25.52A2.41,2.41,0,0,0,50.92,78.08Zm-5,35.13a.74.74,0,0,1-.17-.27c0-.11,0-.24.08-.37a2.15,2.15,0,0,0-.39.34,5,5,0,0,0-.23.51c-.27.5-.12.71.43.62s.85-.19,1.28-.28l.46-.07c-.11-.16-.2-.43-.34-.46A5.47,5.47,0,0,0,45.95,113.21ZM11.29,113h0a11,11,0,0,0,0-1.22c0-.12-.22-.23-.35-.34-.09.11-.25.22-.25.33,0,.76,0,1.52,0,2.27,0,.15.24.29.36.43a1.72,1.72,0,0,0,.24-.5A7.92,7.92,0,0,0,11.29,113Zm39.94-8.23c-.17.83.2,1,.81.69.31-.18.46-.65.65-1a1.85,1.85,0,0,0,.1-.54l-.49.11C51.82,104.13,51.38,104.28,51.22,104.76Zm1-37.17c.1-.12.42-.31.44-.54.09-.75-.72-.4-1-.71-.06-.06-.76.31-.76.5C50.87,67.58,51.52,67.47,52.24,67.59ZM46.38,20.07h0a.77.77,0,0,0,0,.16c.05.25.11.49.17.73.06-.21.12-.42.18-.63s0-.15,0-.23a3,3,0,0,1,.25.28c.21.3.41.6.62.91.06-.38.13-.77.19-1.15a.4.4,0,0,0,0-.16c-.05-.19-.11-.38-.17-.57-.06.19-.13.37-.17.56a2.78,2.78,0,0,0,0,.39,3.3,3.3,0,0,1-.23-.3,4.25,4.25,0,0,0-.23-.43,6.1,6.1,0,0,0-.45-.48c0,.2-.11.4-.14.61A1.83,1.83,0,0,0,46.38,20.07Zm2.57,12,.38.59c.31-.47.39-.21.55.13.09.18.37.28.56.41a2.41,2.41,0,0,0,.42-.66c0-.12-.2-.33-.35-.45a6.46,6.46,0,0,0-.66-.45l-.59-.37Zm2.57,51,0,.1c.24,0,.54,0,.7-.09a3.65,3.65,0,0,0,.59-.79l-.64-.07c-.31,0-.62-.07-.93-.08-.15,0-.38,0-.43.13a6.77,6.77,0,0,0-.33.93.56.56,0,0,0,.15,0ZM45.6,50.27l.25.12c-.3.55-.12.94.42.93.3,0,1-.11.73-.72a4.3,4.3,0,0,0-.83-1Zm.68-24.34-.17-.1a1.87,1.87,0,0,0,0-.48,2.84,2.84,0,0,0-.25-.5,4.58,4.58,0,0,0-.19.47c0,.1,0,.22,0,.32s-.13.38-.2.57a5.44,5.44,0,0,1-.22-.55c-.1-.34-.17-.68-.25-1l-.26,1.07a.46.46,0,0,0,0,.08c0,.71.37,1,1,.9C45.94,26.63,46.09,26.19,46.28,25.93Zm-42.76,86h0a1.82,1.82,0,0,0,0,.41,3.33,3.33,0,0,0,.18.47,2.43,2.43,0,0,0,.19-.46c.11-.58.21-1.17.3-1.76a2.57,2.57,0,0,0,0-.46c-.14.18-.27.37-.42.55s-.13-.8-.33-.08A3.78,3.78,0,0,0,3.52,111.91ZM52.09,51.78c0-.22,0-.42,0-.48-.3-.28-.63-.51-1-.77a2.48,2.48,0,0,0-.35.53c-.15.44,0,.69.48.83.19.06.33.29.51.42a.36.36,0,0,0,.25,0C52,52.12,52.07,51.91,52.09,51.78Zm-.85,11.66c.18-.19.45-.34.51-.56.13-.48-.22-.58-.61-.6a5.54,5.54,0,0,1-.83-.13c-.08,0-.14-.11-.2-.17,0,.09-.12.19-.11.28C50.07,62.93,50.22,63.52,51.24,63.44Zm-9.5,16.85c.25.32.42.75.63.77.46,0,.75-.25.76-.8s-.42-.75-.83-.78C42.16,79.49,42,79.93,41.74,80.29Zm11-18.35c.2-.19.59-.4.58-.58,0-.75-.78-.45-1.18-.66a.81.81,0,0,0-.36.44C51.67,61.76,52.12,61.81,52.72,61.94ZM51.37,27.25l-.86-1.13c-.15.31-.44.63-.41.92a4.09,4.09,0,0,0,.52,1.16ZM4.49,108.14a2.45,2.45,0,0,1,.34.08,3.08,3.08,0,0,1,.38.19l.23.15a.81.81,0,0,0,.05-.29q-.16-.79-.35-1.57a.87.87,0,0,0-.17-.25,1.07,1.07,0,0,0-.19.3C4.68,107.15,4.61,107.54,4.49,108.14ZM4.32,132c0,.08,0,.16,0,.24s.1.33.15.5c.05-.15.1-.29.16-.43s.11-.14.14-.13a.26.26,0,0,1,.16.15c0,.16,0,.35.06.48a2.56,2.56,0,0,0,.42.46c.1-.18.27-.36.28-.55,0-.65-.56-.67-1-.89S4.23,131.37,4.32,132ZM53,107s0-.27-.08-.32-.34,0-.51,0c0,0,0,.18,0,.21a1.14,1.14,0,0,0,.29.15,6.17,6.17,0,0,1-.76.22c-.08,0-.18-.12-.27-.19a3.61,3.61,0,0,0-.07.63c0,.14.07.35.17.39A1,1,0,0,0,53,107Zm-.42-25.76a5.52,5.52,0,0,0,.38-.75c.06-.18.08-.54,0-.56a4.36,4.36,0,0,0-1.15-.28c-.07,0-.29.43-.24.51.28.37,1,.38.93,1.07Zm-2.85-17c-.09-.17-.17-.47-.28-.48a2.7,2.7,0,0,0-1,0c-.18,0-.45.21-.46.34a2,2,0,0,0,.2.7c.19-.11.38-.2.56-.32s.06-.14.09-.21,0,.14.07.18.36.3.54.44Zm-8,47.23.55.87.64-.58c-.34-.26.23-1.07-.57-1C42.12,110.77,42,111.16,41.7,111.46Zm.22-28.85c.25.25-.35.87.53.87,1,0,.62-.7.69-1.17,0-.07-.08-.16-.12-.25a1.14,1.14,0,0,0-.12.26,2.8,2.8,0,0,0,0,.4l-.35-.3L42,82Zm7.52-40.72.63.68.3.29c.08-.15.23-.31.21-.46a2.31,2.31,0,0,0-.23-.84,5.85,5.85,0,0,0-.58-.78ZM42.83,87.41c.16-.38.33-.76.48-1.15a1,1,0,0,0,0-.39c-.23.07-.46.15-.69.21a3.3,3.3,0,0,0-.41.06c-.13.05-.33.18-.32.24.08.44,1,.19.78.94ZM13.49,134l-.32,0a2.21,2.21,0,0,0-.24.59c0,.4-.09.91.53.84.21,0,.57-.39.54-.54A3.28,3.28,0,0,0,13.49,134Zm34.88-23.57c-.32.79.23.59.49.57.1,0,.2-.33.28-.51a2.41,2.41,0,0,0,.1-.34,1.93,1.93,0,0,1,.19.33,5,5,0,0,1,.12.52c.07-.19.15-.37.2-.56a3.75,3.75,0,0,0,.06-.4c0-.1,0-.21.07-.31s-.25.14-.3.1c-.54-.4-.73.44-.83.37C48,109.55,48.42,110.39,48.37,110.43Zm3.37-88.6c0,.33,0,.46,0,.54.19.29.41.57.62.85.06-.25.13-.5.18-.76a.49.49,0,0,0,0-.32c-.18-.29-.39-.56-.59-.83Zm-.39,86.36v-.25c-.38-.17-.76-.34-1.15-.49-.06,0-.16,0-.24.07s0,0,0,.08c-.07.29-.15.58-.2.87,0,.07.12.24.16.23a9,9,0,0,0,1-.26A3,3,0,0,0,51.35,108.19ZM44.71,47c0,1,.19,1.23,1,1.11.15,0,.36-.35.36-.54s-.2-.44-.31-.66c-.09.14-.18.28-.28.42s-.17.2-.25.3c0-.13-.05-.27-.09-.4s-.12-.45-.18-.68Zm0,61.64.07.8a2.29,2.29,0,0,1,.37-.33c.44-.25.08-.26-.08-.37s0-.21,0-.27a.33.33,0,0,1,.27-.13.38.38,0,0,1,.22.24c0,.18,0,.41,0,.56a.7.7,0,0,0,.47.26c.12,0,.37-.14.36-.2a1.88,1.88,0,0,0-.22-.51l-.13.1-.14.14a.69.69,0,0,1-.05-.22c0-.52-.26-.73-.69-.6C44.95,108.23,44.79,108.56,44.69,108.66Zm3.37-22.32-.18-.63c-.06,0-.16.07-.17.13-.12.58-.44.75-1,.53,0,0-.21.24-.29.39s0,.16,0,.24c.12-.09.3-.29.36-.26s.35.33.55.44a.39.39,0,0,0,.37-.12A5.09,5.09,0,0,0,48.06,86.34Zm2.58-64.49c-.11-.45-.22-.9-.35-1.34,0-.08-.13-.15-.19-.22s-.18.13-.21.22c-.21.55-.62,1.15.33,1.46.12,0,.21.18.31.27Zm-7.87,87.76a2.61,2.61,0,0,0-.13-.8c-.09-.15-.32-.21-.49-.31A3.26,3.26,0,0,0,42,109a5.88,5.88,0,0,0,0,.85c0,.07.17.2.18.19C42.43,109.88,42.67,109.69,42.77,109.61ZM7.35,108.47c0-1.19,0-1.19-.64-.82H6.63c-.58,0-.17.23-.08.38a3.62,3.62,0,0,0,.26.4c.14.16.3.31.44.46Zm35.29-55,.12.08a2.28,2.28,0,0,0,0,.4,3,3,0,0,0,.14.42l.24-.33c0-.06.1-.15.16-.16a.49.49,0,0,0,.44-.75c-.08-.18-.49-.38-.62-.32S42.8,53.27,42.64,53.5ZM42.55,75l.1.91a2.48,2.48,0,0,0,.47-.41,1.83,1.83,0,0,0,.36-.76c0-.09-.49-.37-.53-.33A2.49,2.49,0,0,0,42.55,75Zm.18-43.52.13-.2c.24.09.47.19.72.26.05,0,.2-.11.19-.13-.13-.46-.27-.92-.43-1.37,0,0-.26-.07-.27,0-.17.39-.33.79-.48,1.19a.11.11,0,0,0,0,.08ZM52.07,28h0a6.93,6.93,0,0,0-.21-1c0-.14-.28-.21-.42-.31-.09.14-.24.27-.26.42a7.64,7.64,0,0,0,0,1.06c0,.06.07.12.11.17a.81.81,0,0,0,.11-.19c.07-.26.13-.53.19-.79,0,.28.07.57.1.85a1,1,0,0,0,0,.24,1.17,1.17,0,0,0,.16.23.8.8,0,0,0,.15-.24A2.2,2.2,0,0,0,52.07,28ZM9.84,134l-.53-.71c-.08.24-.27.5-.22.72s.3.45.46.67ZM3.47,107h0a3.42,3.42,0,0,0,0,.72,1,1,0,0,0,.31.41s.14,0,.21-.06-.18-.3-.13-.39c.18-.39-.4-.84.1-1.2,0,0,0-.21,0-.28s-.21-.15-.27-.12a.4.4,0,0,0-.2.27A4.59,4.59,0,0,0,3.47,107ZM27,4.94l-.86.7c.12.11.28.35.34.32a12.2,12.2,0,0,0,1.12-.54ZM51.9,76.15c.21-.18.41-.26.43-.38a7.47,7.47,0,0,0,0-1,3.86,3.86,0,0,1-.38.33c-.08.06-.22,0-.3.1a5.31,5.31,0,0,0-.43.4Zm-9.3-41.9a4.77,4.77,0,0,0,.61.68c.06,0,.35-.2.54-.3-.13,0-.31,0-.4-.11A1.16,1.16,0,0,1,43,34c0-.07.18-.24.32-.31a1,1,0,0,1,.38,0,1.58,1.58,0,0,0-.31-.36C43,33.09,42.63,33.44,42.6,34.25Zm7.18,1.34.5.81c.12-.23.34-.47.33-.7a3.13,3.13,0,0,0-.33-.9ZM9.07,108.16c.11.18.16.34.22.34.5,0,1,.05,1.5.07,0-.08,0-.21,0-.22a10.64,10.64,0,0,0-1.2-.37C9.42,108,9.26,108.09,9.07,108.16ZM51.79,43.44c-.08,0-.19.07-.2.11s0,.19.07.21c.53.24,1.07.46,1.61.68,0,0,.1,0,.15,0s0-.18-.05-.2ZM48.35,58.1a5.89,5.89,0,0,0,.42.85.43.43,0,0,0,.42,0c.12-.07.16-.26.24-.4-.12,0-.26,0-.35,0s-.23-.2-.22-.3a1.19,1.19,0,0,1,.2-.49,1.22,1.22,0,0,1,.26-.24c-.16-.06-.41-.21-.47-.16A4,4,0,0,0,48.35,58.1Zm-.21-14.54-.47.2c-.13.22-.36.44-.35.65s.25.42.38.64a5.73,5.73,0,0,0,.57-.9C48.33,44,48.19,43.76,48.14,43.56Zm-4,70.31a1.14,1.14,0,0,0-.38-.13,1.19,1.19,0,0,0-.59.13c-.07,0,0,.32,0,.49a2.43,2.43,0,0,0,.54-.22,2.82,2.82,0,0,0,.43-.46s0,0,0-.05ZM41.82,75.15a2.43,2.43,0,0,0,.09.45c.09.2.2.38.31.58,0-.19,0-.38.06-.57s.11-.46.14-.7a1.78,1.78,0,0,0-.06-.44,1.77,1.77,0,0,0-.4.3A1.13,1.13,0,0,0,41.82,75.15ZM51.94,62.68l.52.75c.08-.17.26-.36.22-.49a4.7,4.7,0,0,0-.47-.84Zm-5.42-2L46,60c-.12.2-.33.4-.34.61s.2.34.31.52ZM49,20.9a3.72,3.72,0,0,0,0-.72,3,3,0,0,0-.25-.52,4.26,4.26,0,0,0-.12.49,1.91,1.91,0,0,0,0,.48c0,.32.1.64.16,1ZM27.26,1.75c-.29.36-.54.66-.77,1,0,0,.18.18.2.17.37-.24.73-.5,1.09-.76Zm20,62.88.09-.16.27.25c.06-.08.18-.19.16-.23-.14-.34-.3-.67-.46-1-.12.34-.25.68-.36,1A2.54,2.54,0,0,0,47.27,64.62ZM45,34.62l-.67-.75a4.42,4.42,0,0,0-.37.87c0,.09.28.36.41.35S44.71,34.85,45,34.62ZM8.65,133.24a2.29,2.29,0,0,0-.43-.23c-.06,0-.24.13-.23.17.09.37.21.74.33,1.11Zm36-46.14-.86-.62a2.2,2.2,0,0,0-.34.56c0,.09.19.34.28.34A4.49,4.49,0,0,0,44.65,87.1ZM46,85.7l-.33.05a2.53,2.53,0,0,0,0,.43c.06.35.14.69.21,1,.09-.37.21-.74.27-1.12C46.13,86,46,85.83,46,85.7ZM51.62,112l.5.49c.09-.1.28-.26.26-.3a7.18,7.18,0,0,0-.5-.73Zm-4.69-71,.3.68c.15-.23.44-.48.42-.69s-.32-.47-.5-.71ZM4.79,141.74l.37.4a2,2,0,0,0,.08-.55,7.67,7.67,0,0,0-.21-.88ZM26.92,9l-.71.45c.12.06.26.19.37.17a8.7,8.7,0,0,0,.93-.31ZM3,111.33l-.1-.5c0,.2,0,.39,0,.59s-.07.09-.08.13a6.06,6.06,0,0,0-.09.63s.13.05.2.08c0-.2.08-.39.12-.59A3.16,3.16,0,0,0,3,111.33ZM46.62,40.71l-.29-.63a3.53,3.53,0,0,0-.14.74,3.27,3.27,0,0,0,.16.72Zm-3,41.64a5,5,0,0,0-.26.89c0,.08.2.18.31.28a2,2,0,0,0,.26-.58C43.91,82.81,43.75,82.66,43.58,82.36Zm1.73-47.93-.24-.76a3.07,3.07,0,0,0-.18.77,2.25,2.25,0,0,0,.23.67Zm1.28,13-.21-.76a2.46,2.46,0,0,0-.21.67,2.79,2.79,0,0,0,.17.71Zm2.87-11.81h-.08l.13.43a1.63,1.63,0,0,0,.21-.39,2.48,2.48,0,0,0,.1-.78c0-.13-.21-.24-.32-.36,0,.13,0,.26,0,.39S49.47,35.42,49.47,35.66Zm3.42-1a1.35,1.35,0,0,0-.07.18c.2.12.41.23.63.32,0,0,.1-.06.15-.1ZM53,50.51l-.11,0s0,.05,0,.06Zm-6,6.82-.05,0v.11l.05,0S47,57.35,47,57.33Z" transform="translate(-0.25 -0.53)"/><path class="cls-2" d="M54.36,42.26l-.07,0h-.07q0-4.32,0-8.65h.14Z" transform="translate(-0.25 -0.53)"/><path class="cls-3" d="M54.36,33.61h-.14L54,32.93l.08-.54L54.36,30Z" transform="translate(-0.25 -0.53)"/><path class="cls-4" d="M53.07,149.59l-2.19,2.91a25.58,25.58,0,0,0-1.69,2.34,3.61,3.61,0,0,1-1.74,1.51,38.74,38.74,0,0,1-8.55,2.53,56.94,56.94,0,0,1-15.79,1,38.42,38.42,0,0,1-14.42-3.9A3,3,0,0,1,7,154.15c.35.21.85.34,1,.65a2.09,2.09,0,0,0,1.57,1.12,1,1,0,0,1,.39.1c.86.67,2,.32,2.89.75.08,0,.19,0,.28,0a1.61,1.61,0,0,0-.19-.23,3.62,3.62,0,0,1-.33-.23,3.18,3.18,0,0,1-.29-.41c.18-.07.37-.23.54-.2.79.12,1.58.34,2.37.44,2.14.28,4.28.53,6.43.79a12.86,12.86,0,0,0,1.37.15c1.4,0,2.8,0,4.2,0,.4,0,.89-.45,1.18-.33,1.94.82,3-.7,4.28-1.53.39-.25.72-.57,1.1-.84a1.21,1.21,0,0,1,.43-.1c0,.12,0,.27-.09.36-.41.51-.85,1-1.26,1.51a3,3,0,0,0-.23.38,1.67,1.67,0,0,0,.39,0,19.64,19.64,0,0,0,4.31-.69c1.67-.64,3.47-.48,5.11-1.32s3.19-1.56,4.76-2.4c.73-.39,1.51-.7,2.25-1.08.43-.22.82-.52,1.24-.76s.54-.71,1-.15c0,.06.33-.05.5-.12S52.77,149.73,53.07,149.59Z" transform="translate(-0.25 -0.53)"/><path class="cls-4" d="M37.26,1.21a34.28,34.28,0,0,1,9.21,2.22,10.63,10.63,0,0,1,5.21,4.08c-.43.1-.51.35-.29.72.12.21.34.42.34.62a7.47,7.47,0,0,1-.2,1.24,7.07,7.07,0,0,0-.69-.52,43.65,43.65,0,0,0-5.06-2.83,46,46,0,0,0-11-2.5c-.86-.12-1.73-.09-2.59-.2a2.47,2.47,0,0,0-2,.73c-.48.4-1,.78-1.68.48-.44-.19-.45-.29-.13-.59a5.84,5.84,0,0,0,.5-.59c-.24-.09-.48-.19-.72-.27s-.27,0-.4-.05a2.21,2.21,0,0,1-.34-.15c.1-.06.2-.18.3-.18a12,12,0,0,0,2.07-.14A15.33,15.33,0,0,0,32,2.38c0-.1-.07-.23-.14-.28a3.19,3.19,0,0,0-.5-.23c.2-.11.4-.31.6-.32A17,17,0,0,1,34,1.6c1.72.16,3.44.36,5.16.53.09,0,.19-.06.29-.1-.07-.09-.13-.24-.23-.26C38.6,1.57,37.93,1.39,37.26,1.21Zm-3.68.72-1.1,1c-.42.38-.15.56.22.63s.69,0,1,0c2.46.21,4.93.41,7.39.64.66.06,1.32.28,2,.31a3.61,3.61,0,0,0,1.12-.32l-.79-.27a1.87,1.87,0,0,0-.23-.08Z" transform="translate(-0.25 -0.53)"/><path class="cls-4" d="M1.09,58.35l0-3.19c1.73-1,3.68-1,5.58-1.29.16,0,.5.27.52.45A4.92,4.92,0,0,1,6.2,58c-1.27,1.71-2.29,3.6-3.4,5.42a3,3,0,0,0-.22.68c.23,0,.46,0,.69,0,1.19-.08,2.38-.17,3.57-.27.42,0,.59.1.59.53,0,.76,0,1.52.09,2.27s-.62.62-1,.65c-1.74.15-3.49.21-5.24.31l0-3.49a8.88,8.88,0,0,1,.31-1.59c.58-1.48,1.22-2.93,1.83-4.39a2.41,2.41,0,0,0,.09-.35,1.52,1.52,0,0,0-.39,0Z" transform="translate(-0.25 -0.53)"/><path class="cls-4" d="M54.09,32.39l-.08.54c-3.28-2.21-7.09-2.78-10.86-3.51a1.22,1.22,0,0,1-.65-.24.74.74,0,0,1,0-.61c0-.08.32-.12.48-.09,1.15.19,2.3.41,3.45.62a4.53,4.53,0,0,0,.64.08c.06,0,.12-.09.18-.14a.69.69,0,0,0-.21-.12c-.47-.07-1,0-1-.74,0,0-.06,0-.1-.06l-.62-.17c.26-.25.52-.5.8-.72,0,0,.22.18.35.24.28.14.59.39.87.37.78-.06.76.4.73.92a1,1,0,0,0,0,.48c.07.12.26.18.4.26,0-.13.17-.27.14-.37a1.5,1.5,0,0,1,.16-1.56c.13-.16.09-.47.09-.71a6.72,6.72,0,0,0-.08-.74,4.46,4.46,0,0,1-.09.7,2.88,2.88,0,0,1-.28.54l-.19-.56s0-.06,0-.08l-.22-.85c-.08.26-.14.53-.24.79s-.22.49-.28.47c-.32-.08-.83-.18-.88-.37a7.49,7.49,0,0,1-.15-1.83c0-.14.2-.28.31-.42.07.12.11.32.21.36A7.41,7.41,0,0,0,48,25.2a.71.71,0,0,0,.14-.41.58.58,0,0,0-.31-.39q-2.69-.63-5.4-1.21c-.67-.14-.5.4-.5.73q0,6.16,0,12.31.06,10.88.14,21.77c0,3.51,0,7,0,10.54,0,.68.1,1,.91,1,3,0,5.95.17,8.92.29a8.45,8.45,0,0,1,1.39.29,12.74,12.74,0,0,1-1.34.1c-3.18-.09-6.35-.22-9.53-.3-.59,0-.72-.23-.72-.77q0-7.09-.06-14.19-.11-15.16-.23-30.33c0-2.14,0-2.21,2.09-1.69,2.46.61,4.9,1.29,7.32,2.07a11.54,11.54,0,0,1,2.44,1.41c.24.15.55.43-.09.51,0,0-1,.67.11.91.43.1.76,1.41.53,1.84a.2.2,0,0,1-.18.08c-.16-.09-.39-.18-.44-.32a3.27,3.27,0,0,1-.05-.8c0-.12,0-.24,0-.36-.11.08-.24.16-.34.25s-.21.2-.31.3a1.59,1.59,0,0,1-.15-.43c0-.43,0-.87,0-1.3,0-.28.11-.75,0-.81a7.15,7.15,0,0,0-1.75-.7c-.58-.14-.72.2-.7.78A13,13,0,0,1,49.7,28a.67.67,0,0,0,.23.47c.45.4,1,.72.77,1.5,0,0,.38.23.58.35h0l1.32.66h0Z" transform="translate(-0.25 -0.53)"/><path class="cls-4" d="M54,92.83,54,97.18a39.6,39.6,0,0,1-9.9,1.69c-.67.06-1.34.15-2,.15a.71.71,0,0,1-.51-.48c0-1.19,0-2.39,0-3.58,0-.5.24-.54.66-.58,2.21-.22,4.41-.49,6.62-.74,1.21-.14,2.42-.24,3.63-.4A14.85,14.85,0,0,0,54,92.83Zm-5.84,2.59h0a5.45,5.45,0,0,1,0,.88c0,.15-.2.27-.31.4a2.7,2.7,0,0,1-.2-.39,2.14,2.14,0,0,1,0-.32,1.5,1.5,0,0,0-.09-.26c0,.09-.12.2-.1.27.14.34.3.67.46,1a6.62,6.62,0,0,0,.39-1A1.55,1.55,0,0,0,48.17,95.43Zm2.67.16c0,.23,0,.36,0,.44a2.88,2.88,0,0,0,.4.46s.09,0,.14,0-.24-.25-.25-.39a4.56,4.56,0,0,1,0-1c0-.13.18-.24.27-.36a1.94,1.94,0,0,0-.49.4A1.36,1.36,0,0,0,50.84,95.59ZM46,96.38l.07,0-.24-.85c0,.27,0,.54,0,.81a.68.68,0,0,0,0,.16c0,.19.09.39.13.58l.08-.6A.65.65,0,0,0,46,96.38Zm1.2.19-.65-1.13a.86.86,0,0,0-.15.09,4.68,4.68,0,0,0,.27.66c.08.15.24.27.32.42s0,.19,0,.28Zm2,.06c.08-.24.15-.46.22-.68a.54.54,0,0,0,0-.17,3.27,3.27,0,0,0-.65.22c-.07,0,0,.25-.05.38a2.65,2.65,0,0,0,0,.32,1.19,1.19,0,0,1,0-.31,1.64,1.64,0,0,1,.2-.29,2,2,0,0,1,.2.29A.73.73,0,0,1,49.19,96.63Z" transform="translate(-0.25 -0.53)"/><path class="cls-4" d="M.9,46.34l-.08-4c.07-.07.2-.14.21-.21.24-2.36,1.62-4.09,3.13-5.75.62-.68,1.32-1.28,2-1.91a1.59,1.59,0,0,1,.41-.2,1.47,1.47,0,0,1,.11.37c0,.95,0,1.9,0,2.85a1.08,1.08,0,0,1-.22.47c0,.06-.13.09-.2.14-1.8,1.45-1.78,1.44-1,3.61a2.29,2.29,0,0,1,0,1.09c-.09.56-.27,1.1-.41,1.65-.3,1.1-.32,1.18.8,1.4.89.18,1.31.52,1.22,1.48a10.71,10.71,0,0,0,.13,2c.06.59-.21.55-.62.37C4.51,48.74,2.53,48,1,46.39,1,46.36.95,46.35.9,46.34Zm2.81-3.7-.52-1.35c-.3.33-.62.64-.88,1a3.84,3.84,0,0,0-.55,1c-.07.2,0,.57.09.67a9.29,9.29,0,0,0,1.34.71.43.43,0,0,0,.12-.18C3.43,43.88,3.56,43.3,3.71,42.63Z" transform="translate(-0.25 -0.53)"/><path class="cls-4" d="M1.66,83.85l-.1-3.25c.83.09,1.67.2,2.5.26a1.48,1.48,0,0,0,1.65-1.15,5,5,0,0,0-.12-3.35,1.52,1.52,0,0,0-1.51-1l-2.61,0L1.4,72l2.27-.15a3.07,3.07,0,0,1,3.24,1.89,10.77,10.77,0,0,1,.47,8.15c-.61,1.89-1.73,2.7-3.59,2.4C3.08,84.16,2.37,84,1.66,83.85Z" transform="translate(-0.25 -0.53)"/><path class="cls-4" d="M1.89,97.85,1.76,89.1l.57-.72a6.4,6.4,0,0,1,.77.89,3.68,3.68,0,0,1,.48,1.2c.14.79.4.51.79.18.95-.8,1.93-1.57,2.89-2.36.45-.37.62-.23.59.31,0,0,0,.05,0,.08,0,.95.26,2-.12,2.81s-1.4,1.13-2.12,1.69c-.57.45-1.34.76-.89,1.79.22.51.42.85,1,.84a3.87,3.87,0,0,1,.48.06c1.65.17,1.65.17,1.7,1.89s0,1.65-1.56,1.39c-1.21-.2-2.39-.53-3.58-.84A4.36,4.36,0,0,1,1.89,97.85Zm1.64-2.69c-.3-1.32-.55-2.45-.83-3.57,0-.14-.23-.25-.35-.37a1.41,1.41,0,0,0-.16.43,25.92,25.92,0,0,0,0,2.91c0,.27.47.54.77.74C3.09,95.37,3.33,95.22,3.53,95.16Z" transform="translate(-0.25 -0.53)"/><path class="cls-4" d="M52.75,123.19a41.91,41.91,0,0,1-.89,4.24,4.79,4.79,0,0,1-1.34,1.95,1.65,1.65,0,0,1-2.4-.07,5.47,5.47,0,0,1-1.46-5.12,23.73,23.73,0,0,1,1.5-3.56,4.14,4.14,0,0,1,1.53-1.4,1.4,1.4,0,0,1,2.24.75A27.55,27.55,0,0,1,52.75,123.19Zm-1.65,5,0,.06,0-.07,0-.06Zm-3.31-.13a1.8,1.8,0,0,0,2.58,1,2,2,0,0,0,.33-.34,2.62,2.62,0,0,1-.43.16c-.33.06-.73.24-1,.12a9.28,9.28,0,0,1-1.43-1c-.23-.74-.47-1.48-.67-2.22-.12-.45.1-.66.57-.78a21.86,21.86,0,0,0,2.78-.89c2-.81,2-.85,1.52-3-.16-.73-.4-1.48-1.25-1.64a2,2,0,0,0-2,.94,12.45,12.45,0,0,0-1.56,3.43A4.61,4.61,0,0,0,47.78,128.08Zm.84-1.78-.41-.66a2.87,2.87,0,0,0-.28.76c0,.2.15.41.23.61Z" transform="translate(-0.25 -0.53)"/><path class="cls-4" d="M26.45,29.87a2.15,2.15,0,0,1,.48.26l5.93,5.43c.36.33.41.6,0,.92-1.88,1.5-3.75,3-5.64,4.5a2,2,0,0,1-.72.19,2.32,2.32,0,0,1,.31-.71q1.79-1.89,3.62-3.74c.79-.8.79-.77,0-1.61-1.39-1.54-2.76-3.1-4.13-4.66a1.8,1.8,0,0,1-.22-.48Z" transform="translate(-0.25 -0.53)"/><path class="cls-4" d="M33.72,31.78c-.42-.09-.65-.08-.78-.18-.79-.66-1.55-1.35-2.32-2l-3.89-3.48c-.34-.31-.54-.62-.06-1,1.48-1.17,2.95-2.36,4.43-3.52.51-.4,1-.77,1.6-1.12.13-.09.34-.05.52-.07-.06.16-.07.37-.18.49-1.3,1.35-2.56,2.73-3.93,4-.63.58-.56.91,0,1.49,1.44,1.61,2.83,3.28,4.23,4.92Z" transform="translate(-0.25 -0.53)"/><path class="cls-4" d="M26.43,21.38c-.1,0-.23-.09-.23-.11a1,1,0,0,1,.14-.43c.69-.8,1.38-1.6,2.12-2.36s1.33-1.3,2-1.91c.46-.39.54-.67.08-1.16-1.28-1.36-2.51-2.78-3.75-4.18a3.85,3.85,0,0,1-.37-.53c-.12-.19-.22-.4-.33-.6a2.34,2.34,0,0,1,.79.29c2,1.77,3.93,3.57,5.9,5.36.35.32.31.5-.08.8-1.73,1.34-3.42,2.75-5.13,4.11A11.25,11.25,0,0,1,26.43,21.38Z" transform="translate(-0.25 -0.53)"/><path class="cls-4" d="M33.76,51.39c-.3-.07-.47-.06-.57-.14-.82-.63-1.65-1.24-2.42-1.93C29.49,48.17,28.27,47,27,45.79c-.38-.34-.31-.54,0-.82,1.73-1.39,3.44-2.8,5.19-4.17a6.22,6.22,0,0,1,1.21-.59,9.24,9.24,0,0,1-.77,1.1c-1.17,1.25-2.35,2.49-3.56,3.7-.37.37-.32.57,0,.92,1.27,1.37,2.52,2.76,3.75,4.16A14.9,14.9,0,0,1,33.76,51.39Z" transform="translate(-0.25 -0.53)"/><path class="cls-4" d="M26.94,60.82l-.22-.08a1.34,1.34,0,0,1,.17-.43q1.35-1.46,2.72-2.9A14.08,14.08,0,0,1,31,56.05c.53-.42.35-.7,0-1.09-1.22-1.28-2.4-2.58-3.59-3.88a6.15,6.15,0,0,1-.63-.85,2.8,2.8,0,0,1-.21-.54,1.85,1.85,0,0,1,.58.2C28.46,51,29.78,52,31.07,53.17c.76.66,1.46,1.38,2.15,2.1a.65.65,0,0,1,0,.62c-1.94,1.59-3.91,3.15-5.88,4.71A2.39,2.39,0,0,1,26.94,60.82Z" transform="translate(-0.25 -0.53)"/><path class="cls-4" d="M33.76,59.8a6.83,6.83,0,0,1-.49.67c-1.27,1.34-2.53,2.68-3.82,4-.34.34-.38.49,0,.89,1.45,1.52,2.84,3.09,4.24,4.66a1.58,1.58,0,0,1,.19.56,1.87,1.87,0,0,1-.57-.21c-1.18-1-2.36-1.91-3.51-2.91-.81-.7-1.6-1.45-2.36-2.21-.14-.14-.2-.61-.11-.69,1.94-1.61,3.9-3.19,5.87-4.77a1.16,1.16,0,0,1,.44-.17S33.71,59.73,33.76,59.8Z" transform="translate(-0.25 -0.53)"/><path class="cls-4" d="M33.78,89.84a4.35,4.35,0,0,1-.4-.28l-5.77-5c-.23-.2-.44-.4-.07-.7,1.84-1.51,3.65-3,5.49-4.54A2.82,2.82,0,0,1,33.9,79a4,4,0,0,1-.42.71c-1.26,1.38-2.52,2.76-3.83,4.09-.35.36-.34.49,0,.85,1.38,1.45,2.71,2.95,4,4.44a2.07,2.07,0,0,1,.29.62A1.64,1.64,0,0,1,33.78,89.84Z" transform="translate(-0.25 -0.53)"/><path class="cls-4" d="M34,98.07c-.1.16-.15.26-.22.34-.52.63-1,1.28-1.56,1.87q-1.19,1.27-2.47,2.45c-.38.36-.42.56,0,1q1.83,1.83,3.57,3.75a6.19,6.19,0,0,1,.68,1.19,5.46,5.46,0,0,1-1.12-.57q-2.64-2.23-5.21-4.53a.71.71,0,0,1,0-.69c1.81-1.55,3.65-3.06,5.48-4.58a1.6,1.6,0,0,1,.5-.26C33.77,98,33.88,98,34,98.07Z" transform="translate(-0.25 -0.53)"/><path class="cls-4" d="M27.31,80.22c-.05,0-.16-.1-.16-.13a1.09,1.09,0,0,1,.18-.43c1.08-1.18,2.14-2.39,3.28-3.51s1.15-1.15,0-2.34-2.28-2.54-3.4-3.83a3,3,0,0,1-.32-.61,2.52,2.52,0,0,1,.71.27c1.14.91,2.29,1.82,3.39,2.77.8.69,1.53,1.46,2.32,2.17.34.31.39.54,0,.84l-5.75,4.64A1.91,1.91,0,0,1,27.31,80.22Z" transform="translate(-0.25 -0.53)"/><path class="cls-4" d="M34,146.07a6.36,6.36,0,0,1-.57-.35l-5.72-4.54c-.35-.28-.38-.57,0-.87l5.78-4.67a1.8,1.8,0,0,1,.42-.19,1.42,1.42,0,0,1-.17.48c-1.28,1.45-2.55,2.91-3.87,4.33-.37.39-.46.58,0,1,1.34,1.26,2.62,2.59,3.91,3.9a1.91,1.91,0,0,1,.37.53C34.12,145.77,34,145.91,34,146.07Z" transform="translate(-0.25 -0.53)"/><path class="cls-4" d="M32,112.87c-.25-.29-.39-.48-.56-.65-1.05-1.09-2.13-2.17-3.17-3.28a12.72,12.72,0,0,1-1-1.29,1.5,1.5,0,0,1-.14-.36,1.23,1.23,0,0,1,.42.12q2.21,1.72,4.41,3.47a15.8,15.8,0,0,1,1.58,1.37.8.8,0,0,1,0,.78c-1.82,1.58-3.66,3.12-5.52,4.65a2,2,0,0,1-.71.21,3,3,0,0,1,.36-.65q1.94-2.08,3.91-4.13A1.74,1.74,0,0,1,32,112.87Z" transform="translate(-0.25 -0.53)"/><path class="cls-4" d="M27.36,88.54c.57.43,1.2.85,1.77,1.34q2.17,1.89,4.29,3.85c.13.12.2.53.12.59q-2.87,2.41-5.8,4.77a1.69,1.69,0,0,1-.55.18,1.67,1.67,0,0,1,.22-.56c1.26-1.35,2.49-2.72,3.82-4,.57-.54.43-.78,0-1.26-1.36-1.44-2.66-2.92-4-4.4a1.57,1.57,0,0,1-.19-.42Z" transform="translate(-0.25 -0.53)"/><path class="cls-4" d="M31.92,131.63l-.48-.56c-1.28-1.43-2.56-2.86-3.83-4.3a1.94,1.94,0,0,1-.24-.54,1.65,1.65,0,0,1,.61.18c1.87,1.57,3.72,3.16,5.58,4.73.54.46.13.81-.14,1-1.69,1.43-3.4,2.82-5.12,4.21a5.93,5.93,0,0,1-1,.55,5.12,5.12,0,0,1,.57-1c1.19-1.29,2.41-2.55,3.62-3.82Z" transform="translate(-0.25 -0.53)"/><path class="cls-4" d="M34.37,127.18c-.32,0-.51,0-.64-.09a16.11,16.11,0,0,1-1.8-1.24c-1.38-1.18-2.71-2.42-4.08-3.61-.32-.28-.39-.48-.05-.76l5.47-4.62a.79.79,0,0,1,.21-.13l.52-.19a1.53,1.53,0,0,1-.19.55c-1.2,1.32-2.4,2.64-3.64,3.92-.75.77-.77.78,0,1.57,1.2,1.21,2.37,2.45,3.55,3.69A9.39,9.39,0,0,1,34.37,127.18Z" transform="translate(-0.25 -0.53)"/><path class="cls-4" d="M34.1,150.3c-.27.29-.39.44-.52.56-1.52,1.39-3,2.79-4.56,4.17a5.84,5.84,0,0,1-1,.66c-.09.05-.24,0-.37,0a1,1,0,0,1,.11-.35q1.55-1.87,3.12-3.73c.31-.37,1-.86.9-1a5.35,5.35,0,0,0-1.18-1.49c-1-1.08-2.1-2.12-3.13-3.2-.12-.12-.12-.35-.17-.53a2.23,2.23,0,0,1,.59.22q2.24,1.69,4.46,3.41c.45.35.88.72,1.32,1.08A3,3,0,0,0,34.1,150.3Z" transform="translate(-0.25 -0.53)"/><path class="cls-4" d="M9.7,3.15c1.52-.37,3-.8,4.56-1.11s3-.47,4.52-.7a10,10,0,0,0-1,.32,7.58,7.58,0,0,0-.93.51A5.13,5.13,0,0,1,15.55,3,36.59,36.59,0,0,0,6.63,5.84c-.93.49-1.81,1.09-2.71,1.63a1.35,1.35,0,0,1-.35.1c0-.12,0-.3.08-.36A12.65,12.65,0,0,1,5.06,6.05,18.55,18.55,0,0,1,9.43,3.5C9.54,3.47,9.61,3.27,9.7,3.15Z" transform="translate(-0.25 -0.53)"/><path class="cls-4" d="M43.17,60.46l-.71-1.07c.13-.07.26-.21.38-.2,2.11.13,4.22.25,6.33.42,1,.08,1.94.24,2.9.39.14,0,.26.2.39.31a1.88,1.88,0,0,1-.46.06c-.64-.08-1.28-.19-1.93-.27-.12,0-.25.1-.38.16a2.19,2.19,0,0,0,.33.11l.8.12a.66.66,0,0,1,.39.91.5.5,0,0,1-.12.09c-.27-.56-.42.1-.64.06l-1.12-.16A1,1,0,0,1,49,61.3a1.22,1.22,0,0,1-.25-.34c-.06.2-.22.43-.17.59s.38.5.45.47c.59-.3.46.09.46.42a6.59,6.59,0,0,0,.09.81l-1-.43c-.11-.05-.3-.19-.32-.17-.65.75-1.49.23-2.22.3-.9.08-1.82-.13-2.73-.12-.52,0-.6-.24-.59-.64s.21-.53.64-.4a2,2,0,0,0,.82-.1,1.16,1.16,0,0,0,.2-.09c.16.29.31.58.46.87.18-.21.31-.51.53-.6a2.6,2.6,0,0,1,1-.08c.23,0,.47.18.68.15a3,3,0,0,0,.75-.34c-.14-.11-.37-.21-.39-.34a5,5,0,0,1,0-1.07c0-.06.15-.11.23-.17-.11-.06-.21-.16-.33-.17a39.49,39.49,0,0,0-4-.23c-.55,0,.06.44,0,.68Zm5.13-.65-.4.27c.29.06.58.14.88.19.08,0,.17-.06.26-.09Z" transform="translate(-0.25 -0.53)"/><path class="cls-4" d="M54.11,57.14l-.1.6c-2.16-.32-4.31-.65-6.47-.94-1.54-.2-3.1-.32-4.64-.52-.16,0-.28-.31-.42-.47.19-.12.38-.37.56-.36,2.21.16,4.43.26,6.62.57A41.42,41.42,0,0,1,54.11,57.14Z" transform="translate(-0.25 -0.53)"/><path class="cls-4" d="M47.15,140.53a7.36,7.36,0,0,1,2.28-5.41c1-.93,2-.7,2.42.63a8.53,8.53,0,0,1-.85,6.83,1.8,1.8,0,0,1-3.43-.33A15.19,15.19,0,0,1,47.15,140.53Zm4.79-2.32a15.91,15.91,0,0,0-.42-2.05c-.33-.94-1-1.11-1.79-.56-1.73,1.16-2.58,4.65-1.6,6.51a1.36,1.36,0,0,0,2.34.38,2.6,2.6,0,0,0,.66-1C51.46,140.34,51.7,139.18,51.94,138.21Z" transform="translate(-0.25 -0.53)"/><path class="cls-4" d="M7.63,126.86c.15-1,.28-1.84.4-2.68a1.25,1.25,0,0,0,0-.31,2.58,2.58,0,0,0-.28.22c-.05.05-.07.15-.12.21l-.66.75a3.22,3.22,0,0,1-.44-1,24,24,0,0,1,.11-2.91c0-.2.33-.37.51-.55a1.82,1.82,0,0,1,.15.59c-.1,1-.24,1.93-.34,2.9a1.49,1.49,0,0,0,.13.5c.1-.11.25-.21.29-.34.25-.71.47-1.43.69-2.15,0-.1,0-.24.06-.31.23-.28.48-.55.72-.82a4,4,0,0,1,.14,1c-.18,1.48-.41,2.95-.63,4.42a1.38,1.38,0,0,1-.1.47,4,4,0,0,1-.43.53Z" transform="translate(-0.25 -0.53)"/><path class="cls-4" d="M27.57,6.1a7.45,7.45,0,0,1,1.4.74c1.25,1,2.47,2.12,3.64,3.24a5.2,5.2,0,0,1,.74,1.26c-.35-.23-.72-.45-1.06-.7q-2.51-1.86-5-3.74a3,3,0,0,1-.41-.47Z" transform="translate(-0.25 -0.53)"/><path class="cls-4" d="M53.38,49.31l-.19.33a2.73,2.73,0,0,1-.46-.51c-.08-.15.09-.56-.23-.06-.17.26-.68.3-1,.43a.82.82,0,0,1-.11-.29c0-.38-.2-.51-.52-.33a1.47,1.47,0,0,1-1.53-.69L49.22,48l-.09.27c0,.1-.07.29-.1.29a5.22,5.22,0,0,1-1.7-.21c-.23-.1-.32-.77-.27-1.15s.4-.63.82-.21.86.71,1.44.27c0,0,.25,0,.28.11a.7.7,0,0,0,.93.37c.34-.13.43,0,.66.17A1.37,1.37,0,0,0,52,48,1.56,1.56,0,0,1,53.38,49.31Z" transform="translate(-0.25 -0.53)"/><path class="cls-4" d="M43.2,45.07l6.58,1a3.43,3.43,0,0,0,.69,0,5.17,5.17,0,0,0-.49-.57,1.53,1.53,0,0,0-.44-.19c-.21-.08-.57-.14-.59-.26a4.07,4.07,0,0,1,0-1.17.61.61,0,0,1,.44-.06c.23.09.41.31.65.38,1.09.33,1.23.48,1,1.64-.1.5,0,.61.46.69a5,5,0,0,1,1.07.37c.1,0,.15.19.23.29a1.44,1.44,0,0,1-.35,0c-1.45-.33-2.89-.73-4.35-1-1.62-.29-3.26-.46-4.89-.68a1.38,1.38,0,0,1-.32,0,3.14,3.14,0,0,1-.39-.22c.14,0,.27-.08.41-.1a.93.93,0,0,1,.24,0Z" transform="translate(-0.25 -0.53)"/><path class="cls-4" d="M4.08,145.86c-.33-1-.67-1.94-1-2.92,0,0,.06-.13.1-.2l.23.17,1.83,1.41a1.06,1.06,0,0,0,.26.1c0-.08,0-.16,0-.23.1-.68-.18-1-.86-1.17-.43-.13-.73-.7-1.09-1.08,0,0,0-.09,0-.13s.23,0,.31,0c.65.4,1.3.79,1.91,1.22a.69.69,0,0,1,.19.57c-.1.63-.25,1.26-.38,1.89h0a1.12,1.12,0,0,1-1.3.14,1.38,1.38,0,0,0-.15.17Z" transform="translate(-0.25 -0.53)"/><path class="cls-4" d="M14.8,113.31c0,.33,0,.65,0,1a2.32,2.32,0,0,1-.19.54,4.84,4.84,0,0,1-.61-.31c-.1-.07-.14-.23-.24-.33-.31-.33-.6-.55-.76.13,0,.13-.22.23-.34.34-.12-.15-.33-.29-.34-.44,0-.7,0-1.41,0-2.12a1.58,1.58,0,0,1,.18-.48c.17.08.38.11.49.24.27.33.49.71.75,1.06a1,1,0,0,0,.3.2l.06-.3s0-.06,0-.08c.09-.32.21-.93.28-.92.72,0,.31.64.4,1a2,2,0,0,1,0,.49Zm-1.72,0-.05-.06s-.05,0-.05.05,0,0,0,.06Z" transform="translate(-0.25 -0.53)"/><path class="cls-4" d="M43.33,68l.36-.11a5.65,5.65,0,0,1,2.42.08,1.26,1.26,0,0,0,1.1-.13,1.33,1.33,0,0,1,1.2,0c.24.15.23.69.31,1.07,0,0-.14.18-.21.18A24.91,24.91,0,0,1,46,69c-.21,0-.37-.41-.56-.63-.17.22-.32.61-.5.63-.54,0-1.11-.14-1.65-.07s-.66-.21-.63-.57c0-.2.31-.37.48-.56Z" transform="translate(-0.25 -0.53)"/><path class="cls-4" d="M15.89,113.4a5.94,5.94,0,0,1,0-1c0-.18.21-.35.32-.52a3.32,3.32,0,0,1,.43.44,1.29,1.29,0,0,1,.11.42,4.48,4.48,0,0,0,.38-.27c.1-.09.16-.26.27-.29a7.62,7.62,0,0,1,.9-.14c-.11.19-.18.45-.35.57-.84.59-.27,1.07.06,1.6a3.59,3.59,0,0,1,.27.85.73.73,0,0,1-1-.48,1.43,1.43,0,0,0-.28-.39,2,2,0,0,0-.21-.19,1,1,0,0,0-.14.26c0,.13,0,.31,0,.39a.65.65,0,0,1-.42.28c-.11,0-.3-.22-.32-.35a11.66,11.66,0,0,1,0-1.22Z" transform="translate(-0.25 -0.53)"/><path class="cls-4" d="M47.25,44.14c0,.65-.12.81-.73.72a12.15,12.15,0,0,0-2-.3,12.77,12.77,0,0,0-1.43-.14c-.31,0-.34-.24-.08-.56,0,0,.07-.1.05-.13s-.15-.11-.16-.18a1.54,1.54,0,0,1,0-.66c0-.08.39-.16.48-.09s.17.35.25.53.09.24.14.36c.38-.55.88-.15,1.33-.17s.55-.72,1-.1a10.24,10.24,0,0,0,.68.82.46.46,0,0,1,.05.15l.1-.17.22-.44Z" transform="translate(-0.25 -0.53)"/><path class="cls-4" d="M52.35,132.68a6,6,0,0,1-.67.6,6,6,0,0,1-1,.56c-.32.13-.78.72-.92-.18,0,0-.1-.08-.15-.11s-.11.14-.11.21c0,.71-.39.89-1,.82,0,0-.05,0-.07,0l-.78.23a4.06,4.06,0,0,0,.53-.6c.45-.78,1.42-.89,2-1.44a1.82,1.82,0,0,1,1.66-.48c.17,0,.33,0,.5.06Zm-.5,0a.19.19,0,0,0,0-.06l0,0a.18.18,0,0,0,0,.06Z" transform="translate(-0.25 -0.53)"/><path class="cls-4" d="M53.15,38.29a3.44,3.44,0,0,1-.48-.07c-1.87-.54-3.71-1.14-5.6-1.59-1.23-.3-2.51-.38-3.77-.56a1,1,0,0,1-.38-.11,4.3,4.3,0,0,1-.46-.36,1.74,1.74,0,0,1,.57-.1c2.48.45,5,.87,7.42,1.41a13.81,13.81,0,0,1,2.45,1,1.73,1.73,0,0,1,.3.22Z" transform="translate(-0.25 -0.53)"/><path class="cls-4" d="M48,145.17l2.46-1.25c.38-.19.74-.42,1.12-.6a2.4,2.4,0,0,1,.6-.11c-.11.25-.14.61-.33.75a18.47,18.47,0,0,1-2.18,1.39,15,15,0,0,1-2,.8c-.1,0-.37-.07-.39-.15a1,1,0,0,1,0-.68c.1-.18.37-.26.56-.39Zm.88.11,0,.06h.08a.24.24,0,0,0,0-.07Z" transform="translate(-0.25 -0.53)"/><path class="cls-4" d="M7.94,112.62a2.87,2.87,0,0,1,0-.55c0-.32.11-.64.16-1a4.27,4.27,0,0,1,1.4.47,1.35,1.35,0,0,1,.26,1.11c-.08.46-.44.88,0,1.34-.12.06-.32.21-.35.18-.18-.18-.31-.43-.5-.61s-.26,0-.36.06a1.85,1.85,0,0,0-.32.34c-.1-.16-.26-.31-.29-.48A4.59,4.59,0,0,1,7.94,112.62Zm.39-.35c.21.18.37.4.49.38s.39-.31.36-.37a2.07,2.07,0,0,0-.45-.47Z" transform="translate(-0.25 -0.53)"/><path class="cls-4" d="M47.5,66.86l-.17.36c-.11-.12-.21-.25-.33-.36a.16.16,0,0,0-.14,0c-.23.12-.44.35-.67.37a10.4,10.4,0,0,1-1.63,0c-.13,0-.27-.15-.38-.25a1.83,1.83,0,0,1-.22-.31c-.66.89-.65-.46-1.09-.33,0,0-.14-.19-.12-.26s.16-.26.23-.25c.4,0,.79.15,1.2.19.92.09,1.84.19,2.76.2C47.53,66.17,47.53,66.1,47.5,66.86Z" transform="translate(-0.25 -0.53)"/><path class="cls-4" d="M43.05,38.48c3,.67,6,1.32,8.92,2a7.37,7.37,0,0,1,1.76,1c.06,0,.08.16.11.24l-.22-.09a25.57,25.57,0,0,0-9.07-2.32A13.74,13.74,0,0,1,43,39a2.36,2.36,0,0,1-.46-.22l.47-.18Z" transform="translate(-0.25 -0.53)"/><path class="cls-4" d="M46.23,41.15c-.22.18-.42.47-.54.44a9.1,9.1,0,0,0-2.46-.34c-.08,0-.2-.28-.23-.44s0-.49-.07-.72a3.2,3.2,0,0,0-.18-.51c.31.05.79,0,.89.17.31.53.62.65,1.13.3a1.58,1.58,0,0,1,.36.39,1.36,1.36,0,0,1,.12.36c0-.1.06-.24.14-.3s.35-.16.39-.12A5.58,5.58,0,0,1,46.23,41.15Z" transform="translate(-0.25 -0.53)"/><path class="cls-4" d="M47,73.42c-.65.27-1.34,0-2,.13-.06,0-.3-.35-.29-.54s.38-.39.44-.35c.47.28.53-.09.69-.36.07-.11.23-.17.35-.25,0,.13,0,.32.1.38a1.42,1.42,0,0,0,.69.29c.54,0,1.09-.09,1.63-.09.14,0,.28.19.42.3-.26.16.25.9-.5.69-.31-.09-.6-.24-.91-.36,0,0-.09,0-.13,0l-.5.12,0,0Z" transform="translate(-0.25 -0.53)"/><path class="cls-4" d="M45.22,31l2.4.21c.11,0,.21.07.31.08s.62,0,.63.08a5.36,5.36,0,0,1,.06,1.1c0,.05-.11.16-.14.15l-2-.63a.88.88,0,0,0-.24,0c-.2,0-.53.08-.59,0-.19-.28-.83-.4-.42-1Z" transform="translate(-0.25 -0.53)"/><path class="cls-4" d="M48.9,35.45c-.08.16-.12.35-.23.42-.39.25-1.61-.36-1.71-.82a1.8,1.8,0,0,0-.14-.32l-.13.34c-.2.55-.69.08-1,.28-.11-.31-.35-.64-.3-.92s.41-.46.73-.14c.05.05.2.11.22.09.85-.8,1.44.6,2.22.26Z" transform="translate(-0.25 -0.53)"/><path class="cls-4" d="M27.31,36.85a1,1,0,0,1-1.13-1.05,1.08,1.08,0,0,1,1.23-1c.66.06.79.58.81,1.1A.91.91,0,0,1,27.31,36.85Z" transform="translate(-0.25 -0.53)"/><path class="cls-4" d="M46.92,64.14l-.36.47-.15-.46c-.07.17-.09.43-.21.48a.69.69,0,0,1-.56-.09c-.1-.06-.09-.29-.13-.44a4,4,0,0,1-.12.42s-.1,0-.15.06c-.22-1.27-.14.55-.44.05-.1-.17-.71-.06-1.08,0s-.38-.69-.66-.06l-.41-.72.29,0s0,0,.05.06c1-1,2.11.15,3.15-.17C46.32,63.62,46.62,63.94,46.92,64.14Z" transform="translate(-0.25 -0.53)"/><path class="cls-4" d="M50,113.2l-.31.76c-.12-.15-.21-.36-.37-.43a1.87,1.87,0,0,0-.6,0l-.68-.07a9.8,9.8,0,0,1,.18-1.19,2.35,2.35,0,0,1,.65,0,2.58,2.58,0,0,0,.69.14c.45-.07.89-.22,1.33-.33.19,0,.4-.07.59-.1a1.67,1.67,0,0,1-.08.66c-.06.11-.36.07-.53.14s-.59.27-.88.4l-.06,0Zm-1.64.34c.18-.32.33-.46.33-.61a1.49,1.49,0,0,0-.21-.51,1.51,1.51,0,0,0-.26.44A2.33,2.33,0,0,0,48.32,113.54Z" transform="translate(-0.25 -0.53)"/><path class="cls-4" d="M5.56,112c0-.22,0-.43,0-.65,0-.78.17-.9.86-.53a2,2,0,0,1,.43,2.71,1,1,0,0,1-.8.07.82.82,0,0,1-.44-.53,5.09,5.09,0,0,1,0-1.06Zm.3.06.49.88c.13-.23.38-.48.35-.68a2.63,2.63,0,0,0-.48-.82Z" transform="translate(-0.25 -0.53)"/><path class="cls-4" d="M42.48,24.74l.3-1.26.77,1,.31.42a2.62,2.62,0,0,1,0-.47c.07-.25.16-.49.25-.73a3.54,3.54,0,0,1,.25.78,10.72,10.72,0,0,1,0,1.46c0,.14-.13.27-.2.41-.15-.09-.35-.15-.43-.28a9.44,9.44,0,0,1-.42-.88,1.24,1.24,0,0,0-.19-.23l-.06.22-.25.92c-.09-.33-.19-.65-.27-1a1.81,1.81,0,0,1,0-.4Z" transform="translate(-0.25 -0.53)"/><path class="cls-4" d="M27.25,54.49c1,0,1.26.5,1.29,1.07s-.47.86-1,.88a1,1,0,0,1-1-1.05C26.53,55,27.07,54.69,27.25,54.49Z" transform="translate(-0.25 -0.53)"/><path class="cls-4" d="M27,16.82c-.73.06-1-.4-1-1a.91.91,0,0,1,1-1,1.08,1.08,0,0,1,1.1,1C28.05,16.62,27.56,16.78,27,16.82Z" transform="translate(-0.25 -0.53)"/><path class="cls-4" d="M44.58,53.67c.63-.6,1.34,0,2-.12a4.36,4.36,0,0,1,1.12.11c.67.1.46.61.46,1,0,0-.11.08-.17.13-.05-.11-.11-.23-.15-.34a1.61,1.61,0,0,1-.05-.23,1.24,1.24,0,0,1-.09.24c-.07.12-.16.22-.24.33-.18-.16-.35-.43-.53-.44s-.38.25-.57.39l-.53-.8-.75.73-.53-.95Z" transform="translate(-0.25 -0.53)"/><path class="cls-4" d="M42.83,31.95a37.65,37.65,0,0,1,9.25,2.25c.14.06.23.23.34.35a1.8,1.8,0,0,1-.46-.05,40.28,40.28,0,0,0-8.73-2.16,2.18,2.18,0,0,1-.4-.06,1.44,1.44,0,0,1-.3-.21Z" transform="translate(-0.25 -0.53)"/><path class="cls-4" d="M32,65.29c0-.89.38-1.26.95-1.29s.93.39,1,1-.61,1.2-1.08,1S32.19,65.47,32,65.29Z" transform="translate(-0.25 -0.53)"/><path class="cls-4" d="M48.93,105.77c-.2.22,0,1-.73.48a.27.27,0,0,0-.25.05.56.56,0,0,1-.8.07s-.11,0-.12,0c-.36.59-1,.35-1.48.44-.12,0-.28-.23-.42-.35.13-.14.25-.4.39-.41a5.22,5.22,0,0,1,1,.1.58.58,0,0,0,.18,0c.16-.74.79-.4,1.21-.53.16,0,.38,0,.49-.11a1.6,1.6,0,0,0,.28-.5Z" transform="translate(-0.25 -0.53)"/><path class="cls-4" d="M32.28,26.77c-.73.07-.8-.52-.82-1a.84.84,0,0,1,.87-1,1.08,1.08,0,0,1,1.1,1.07C33.37,26.52,32.93,26.77,32.28,26.77Z" transform="translate(-0.25 -0.53)"/><path class="cls-4" d="M33.62,45.71a.92.92,0,0,1-1.16.89,1.43,1.43,0,0,1-.74-1c-.12-.57.24-1,.86-1A1.09,1.09,0,0,1,33.62,45.71Z" transform="translate(-0.25 -0.53)"/><path class="cls-4" d="M45.09,58.83c-.64-.31-1.55,0-1.33-1.06a.41.41,0,0,0,0-.15s-.12.09-.14.14-.1.31-.16.46a.83.83,0,0,1-.16.28.24.24,0,0,1-.2,0c-.18-.45-.34-.9-.5-1.36,0,0,.07-.12.1-.18l.33.58c.05.09.11.17.17.25,0-.08.1-.16.13-.25.29-.7.6-.76,1.21-.28.13.1.41,0,.51.16a1.71,1.71,0,0,1,.42.8C45.45,58.41,45.21,58.63,45.09,58.83Z" transform="translate(-0.25 -0.53)"/><path class="cls-4" d="M52.13,144.89a4,4,0,0,1-.8.73c-1.2.61-2.43,1.18-3.65,1.74-.11.05-.28,0-.43,0a2.33,2.33,0,0,1,.16-.49c0-.07.19-.09.29-.13l3.9-2a1.77,1.77,0,0,1,.43-.13A2.48,2.48,0,0,1,52.13,144.89Z" transform="translate(-0.25 -0.53)"/><path class="cls-4" d="M28.88,94.19c-.05.64-.47.87-1,.87a.83.83,0,0,1-.87-.94.9.9,0,0,1,1-.94C28.59,93.19,28.85,93.59,28.88,94.19Z" transform="translate(-0.25 -0.53)"/><path class="cls-4" d="M29,112.94c0,.54-.51.76-1,.81s-.84-.44-.94-.93.54-1,1-1A1,1,0,0,1,29,112.94Z" transform="translate(-0.25 -0.53)"/><path class="cls-4" d="M44.08,64.89l7.78.51a.48.48,0,0,1,.16,0l.55.28a2.64,2.64,0,0,1-.54.08q-4.46-.25-8.91-.52a1.37,1.37,0,0,1-.45-.21,2.37,2.37,0,0,1,.43-.1c.32,0,.65,0,1,0Z" transform="translate(-0.25 -0.53)"/><path class="cls-4" d="M44.53,51.72l7.54,1.15a1.31,1.31,0,0,1,.44.2,1.17,1.17,0,0,1,.22.22,1,1,0,0,1-.3.06L50.36,53l-6.74-1a2.88,2.88,0,0,1-.37-.11,2.51,2.51,0,0,1,.36-.08l.89-.05Z" transform="translate(-0.25 -0.53)"/><path class="cls-4" d="M47.66,50.32c.62,0,1.17.06,1.71.1a.84.84,0,0,1,.67,1.1c0,.1-.22.25-.27.23a.63.63,0,0,1-.3-.31A1.71,1.71,0,0,1,49.4,51l-.11.41s0,.07,0,.07c-.44.14-.91.44-1.3.36s-.61-.56-.75-.93S47,50,47.66,50.32Z" transform="translate(-0.25 -0.53)"/><path class="cls-4" d="M49.36,85.54c.1.06.19.08.22.14s0,.14,0,.2c-.09.23-.18.45-.27.67a4.37,4.37,0,0,1,.58-.39,1.58,1.58,0,0,1,.73-.22c.33,0,.61.13.44-.38a3.78,3.78,0,0,1,.41-.19c0,.1,0,.24.1.3a2.14,2.14,0,0,0,.45.25l.45.2a5.26,5.26,0,0,1-.3.61c-.51-.18-1.12.5-1.55-.17-.05.07-.09.2-.15.21-.44.07-.89.13-1.33.18A9.53,9.53,0,0,1,49,85.84C49,85.73,49.24,85.64,49.36,85.54Z" transform="translate(-0.25 -0.53)"/><path class="cls-4" d="M43.15,48.55,52,50.07c.14,0,.27.18.4.28a2.82,2.82,0,0,1-.46,0l-8.25-1.26c-.27,0-.54-.06-.8-.11a1.77,1.77,0,0,1-.34-.14Z" transform="translate(-0.25 -0.53)"/><path class="cls-4" d="M52.65,73.32a2.65,2.65,0,0,1-.68.32c-.56.09-1.13-.38-1.71,0,0,0-.36-.24-.41-.41-.11-.39-.52-.88.14-1.16.12-.05.35.21.54.27.51.15,1,.27,1.54.4l.52.15Z" transform="translate(-0.25 -0.53)"/><path class="cls-4" d="M45.61,74.78a4.55,4.55,0,0,0,.75.32c.17,0,.37-.06.55-.06s.41,0,.61,0a8.34,8.34,0,0,1-.17.9s-.34-.1-.49-.06c-.45.11-.92.34-1.08-.38,0,0-.12-.06-.12-.06s-.14.3-.21.45l-.19-.31c-.15.94-1-.06-1.27.44,0-.09-.09-.18-.08-.26a.8.8,0,0,1,.81-.75,2.36,2.36,0,0,0,.75-.41Z" transform="translate(-0.25 -0.53)"/><path class="cls-4" d="M27.55,76c-.15-.23-.55-.58-.58-1a.87.87,0,0,1,.93-1c.64,0,.91.4,1,1S28.46,76,27.55,76Z" transform="translate(-0.25 -0.53)"/><path class="cls-4" d="M29.08,131.77a1,1,0,0,1-1.06.94.72.72,0,0,1-.79-.88,1.64,1.64,0,0,1,1-1C28.69,130.74,29.06,131.13,29.08,131.77Z" transform="translate(-0.25 -0.53)"/><path class="cls-4" d="M34,84c-.1.91-.51,1.15-1.09,1.14s-.8-.38-.79-.92.4-1,1-.92C33.51,83.37,33.82,83.82,34,84Z" transform="translate(-0.25 -0.53)"/><path class="cls-4" d="M33.11,141.74c-.73-.21-1-.56-1-1.09a.84.84,0,0,1,1-.9c.37.08,1,.68.91.89C34,141.07,33.46,141.39,33.11,141.74Z" transform="translate(-0.25 -0.53)"/><path class="cls-4" d="M32.82,104.18c-.16-.25-.52-.57-.56-.92a.82.82,0,0,1,.85-1,.87.87,0,0,1,1,.92C34.12,103.87,33.62,104,32.82,104.18Z" transform="translate(-0.25 -0.53)"/><path class="cls-4" d="M46.66,111.46l-1.5.37a6.71,6.71,0,0,1-1.22.22c-.17,0-.34-.23-.51-.35.2-.18.39-.49.6-.5a5.18,5.18,0,0,1,1.05.24c.45.08,1,.17.79-.6a1.33,1.33,0,0,1,.07-.45c.08.12.13.28.24.34a1.31,1.31,0,0,0,.53.13c.23,0,.46,0,.68,0,0,0,.08.3,0,.34a6,6,0,0,1-.7.42Z" transform="translate(-0.25 -0.53)"/><path class="cls-4" d="M48.16,66.63c0-.63.09-.94.74-.59.37.19.84.19,1.22.38s.21,1.19-.08,1.31c-.06,0-.16-.06-.25-.1-.33-.13-.69-.41-1-.34C48,67.48,48.19,67,48.16,66.63Z" transform="translate(-0.25 -0.53)"/><path class="cls-4" d="M43.08,41.82c2.5.45,5,.89,7.58,1.36a1.74,1.74,0,0,1,.51.31,1.91,1.91,0,0,1-.6.09c-1.86-.34-3.71-.71-5.56-1-.66-.12-1.34-.16-2-.26a1.63,1.63,0,0,1-.46-.24Z" transform="translate(-0.25 -0.53)"/><path class="cls-4" d="M5.59,145.51c.82-1.11.61-2.35.43-3.57a7.1,7.1,0,0,0-1.6-3.58l.11-.12c1.56,1.52,2.38,5.06,1.53,7a3,3,0,0,1-1.14,1.14c-.11.07-.55-.36-.84-.56l.06-.05c.59.38,1.12.47,1.45-.32Z" transform="translate(-0.25 -0.53)"/><path class="cls-4" d="M34.19,121.87c0,.56-.4.78-1,.82s-.84-.31-.86-.84.25-1,.83-1A.91.91,0,0,1,34.19,121.87Z" transform="translate(-0.25 -0.53)"/><path class="cls-4" d="M42,72.68c0-.16,0-.33,0-.49a.24.24,0,0,1,.11-.18.2.2,0,0,1,.18.09c.24.79.82.56,1.38.5.16,0,.49.15.5.25A3.52,3.52,0,0,1,44,74c0,.11-.29.22-.45.23s-.19-.19-.3-.28-.41-.42-.52-.38-.43-.74-.66,0c-.05-.08-.14-.16-.15-.25a4.48,4.48,0,0,1,0-.57Z" transform="translate(-0.25 -0.53)"/><path class="cls-4" d="M10.18,134.13l.09-.46c.12.14.23.29.36.42s.15,0,.15,0c.08-.67.55-.21.81-.25.72-.12.76.35.64.88,0,.05-.12.08-.19.12l.31.36s-.05,0-.08,0l-.75-.21a.83.83,0,0,0-.39,0C10.37,135.19,10.17,135,10.18,134.13Z" transform="translate(-0.25 -0.53)"/><path class="cls-4" d="M29.15,150.47c-.09,1-.65,1.15-1.13,1a1.19,1.19,0,0,1-.71-.86.78.78,0,0,1,.94-.85C28.62,149.88,28.93,150.29,29.15,150.47Z" transform="translate(-0.25 -0.53)"/><path class="cls-4" d="M51.27,32.76a1.86,1.86,0,0,1,0-.55c0-.08.23-.1.35-.15.23.77,1.08.79,1.56,1.26l.05.06c.14.29.29.58.42.88,0,0-.07.12-.11.18l-.82-.59c-.1-.07-.2-.25-.26-.23C51.59,33.87,51.32,33.68,51.27,32.76Z" transform="translate(-0.25 -0.53)"/><path class="cls-4" d="M46.92,108.76a5.54,5.54,0,0,1,.13-.63.29.29,0,0,1,.26,0c.25.2.53.65.7.61s.53-.43.77-.69a1.69,1.69,0,0,0,.21-.38,7.08,7.08,0,0,1,.44.82c0,.07-.1.27-.21.33-.26.15-.53.5-.88.06,0,0-.51.33-.81.42S46.7,109.46,46.92,108.76Z" transform="translate(-0.25 -0.53)"/><path class="cls-4" d="M50.66,110.75c-.73.15-.52-.35-.46-.63A2.37,2.37,0,0,1,51.86,109c.08,0,.19.21.2.33A1.33,1.33,0,0,1,50.66,110.75Z" transform="translate(-0.25 -0.53)"/><path class="cls-4" d="M32.41,7.35c-.67-.16-1.19-.33-1.11-.93,0-.31.52-.56.8-.84a10.7,10.7,0,0,1,1,1.14S32.64,7.13,32.41,7.35Z" transform="translate(-0.25 -0.53)"/><path class="cls-4" d="M3.61,123.78l-.14,0h0c.17-.78.34-1.57.53-2.34,0-.05.18-.07.28-.1.15.87.26,0,.33,0a6.94,6.94,0,0,0,.69-.47l-.2.82h0l-.16.16h0l-.86,2-.28.69-.08-.69,0-.27Z" transform="translate(-0.25 -0.53)"/><path class="cls-4" d="M49.58,76.2,49,75.69s0-.1,0-.15,0,.18-.07.2-.38.13-.58.19c0-.3-.18-.7,0-.88s.54-1,.88,0c0,.12.52.08.8.12l.83.13c-.16.36-.11.93-.78.77a1.06,1.06,0,0,0-.24,0Z" transform="translate(-0.25 -0.53)"/><path class="cls-4" d="M50.26,59.49a2.73,2.73,0,0,1-.23-.84c0-.26.42-.53-.07-.74a1.35,1.35,0,0,1,.13-.32,3.33,3.33,0,0,1,1.42.34c.28.22.3.8.41,1.22,0,0-.24.21-.27.18a1,1,0,0,1-.29-.35.84.84,0,0,1,0-.3,2.05,2.05,0,0,1-.24.24C50.89,59.08,50.69,59.21,50.26,59.49Z" transform="translate(-0.25 -0.53)"/><path class="cls-4" d="M43.32,27.09l.14.31c.08,0,.16-.13.24-.13.24,0,.64,0,.68.06a2.86,2.86,0,0,1,.1.91c-.25,0-.5-.08-.74-.11a1.23,1.23,0,0,0-.45,0c-.53.15-.86-.11-.81-.68,0-.13,0-.27,0-.38a7.37,7.37,0,0,1,.43-.68l.59.48ZM43,26.82s-.11,0-.12.07,0,.09.06.13l.16-.09Z" transform="translate(-0.25 -0.53)"/><path class="cls-4" d="M47,82.7a3,3,0,0,1-.58.67c-.36.21-.56,0-.54-.38a1.33,1.33,0,0,0-.24,0,8.93,8.93,0,0,1-.93.37.63.63,0,0,1-.42-.14,4.32,4.32,0,0,1,.19-.69l.42.35A.32.32,0,0,0,45,83c.24-.77,1.24-.35,1.55-1Z" transform="translate(-0.25 -0.53)"/><path class="cls-4" d="M43.69,77.21c.11.63.51.64,1,.54a4,4,0,0,1,1.1,0c.13,0,.34.17.34.25a.82.82,0,0,1-.24.49c-.23.21-.52.36-.77.55-.42.33-.64.12-.75-.29s-.34-.55-.74-.38l-.17-.17.06-.8Zm1.5,1.18,0-.05s0,0,0,.05,0,0,0,.05Z" transform="translate(-0.25 -0.53)"/><path class="cls-4" d="M51.57,80.84a3.21,3.21,0,0,1-.45.08c-.47,0-1,0-1.42-.05a1,1,0,0,1-.58-.25,2.42,2.42,0,0,1-.41-.75,2.31,2.31,0,0,1-.08-.56c.22,0,.6,0,.63.14.17.62.67.56,1,.44C51.22,79.6,50.94,80.61,51.57,80.84Z" transform="translate(-0.25 -0.53)"/><path class="cls-4" d="M51.54,65.1A4.37,4.37,0,0,1,50.36,65c-.23-.09-.37-.42-.56-.65.22-.14.43-.37.65-.38a4.38,4.38,0,0,1,1.18.15,4.62,4.62,0,0,1,.71.27C52.1,64.67,52.13,65.31,51.54,65.1Z" transform="translate(-0.25 -0.53)"/><path class="cls-4" d="M43,46.12A10.51,10.51,0,0,1,44.5,47c.13.11,0,.53,0,.81a2.11,2.11,0,0,1-.68-.06c-.76-.33-.77-.35-1-1.16C42.76,46.48,42.91,46.28,43,46.12Z" transform="translate(-0.25 -0.53)"/><path class="cls-4" d="M47.69,81.71c.14,0,.35.06.38.14.32.85,1,.47,1.56.49a2.64,2.64,0,0,1,.61.17c-.23.25-.43.63-.71.72a2.87,2.87,0,0,1-1.3,0c-.25,0-.46-.29-.69-.45.09-.08.24-.16.24-.24a1.19,1.19,0,0,0-.14-.47c0-.08-.13-.13-.2-.2Z" transform="translate(-0.25 -0.53)"/><path class="cls-4" d="M46,57.62a4.39,4.39,0,0,1,1.48,0c.23.09.26.67.38,1,0,0-.07,0-.11.07s-.08-.18-.11-.27-.08-.28-.12-.41a1,1,0,0,1-.08.36c-.1.15-.27.37-.39.37-.57,0-1.25,0-1.41-.75a1.66,1.66,0,0,1,.14-.64Z" transform="translate(-0.25 -0.53)"/><path class="cls-4" d="M2.51,124.11l-.08-2.36.32.5a2.45,2.45,0,0,1,.16-.52,3,3,0,0,1,.37-.45c.07.17.22.35.19.5a12.34,12.34,0,0,1-.4,1.36c-.11.33-.42.71.23.82l.07.07-.3.44a1.33,1.33,0,0,0-.23-.38C2.78,124,2.62,124.1,2.51,124.11Z" transform="translate(-0.25 -0.53)"/><path class="cls-4" d="M5.1,121.69c.19.24.35.5.61,0,.08-.15.38-.18.58-.26-.08.21-.14.42-.23.62-.29.63-.59,1.26-.89,1.89-.09.2-.2.39-.3.58a5.11,5.11,0,0,1-.06-.68c0-.67.08-1.34.12-2h0l.16-.16Z" transform="translate(-0.25 -0.53)"/><path class="cls-4" d="M7.6,133.42l-.26.63a6,6,0,0,1-1.2-.76c-.14-.14,0-.56,0-.86a6.6,6.6,0,0,1,1.19.37C7.5,132.88,7.52,133.21,7.6,133.42Z" transform="translate(-0.25 -0.53)"/><path class="cls-4" d="M50,54.86a1.48,1.48,0,0,1-.06.48.46.46,0,0,1-.35.23c-.32,0-.08-.85-.69-.5a7.17,7.17,0,0,1-.3-1.11c0-.17.16-.37.25-.55a4.12,4.12,0,0,1,.45.32C50,54.39,50,54.4,50,54.86Z" transform="translate(-0.25 -0.53)"/><path class="cls-4" d="M50.92,78.08a2.41,2.41,0,0,1-.25-.68c0-.17.16-.35.25-.52,0,.13,0,.34.08.39a2.53,2.53,0,0,0,.75.35c.25.06.73,0,.75.07.07.3.23.6-.3.87-.37.19-.44.65-.71,0,0-.08-.29,0-.43-.1a1.82,1.82,0,0,1-.32-.19Z" transform="translate(-0.25 -0.53)"/><path class="cls-4" d="M45.95,113.21a5.47,5.47,0,0,1,1.11,0c.14,0,.23.3.34.46l-.46.07c-.43.09-.85.21-1.28.28s-.7-.12-.43-.62a5,5,0,0,1,.23-.51,2.15,2.15,0,0,1,.39-.34c0,.12-.11.26-.08.37A.74.74,0,0,0,45.95,113.21Z" transform="translate(-0.25 -0.53)"/><path class="cls-4" d="M11.29,113a7.92,7.92,0,0,1,0,1,1.72,1.72,0,0,1-.24.5c-.13-.14-.36-.28-.36-.43,0-.76,0-1.52,0-2.27,0-.11.16-.22.25-.33.12.11.33.22.35.34a11,11,0,0,1,0,1.22Z" transform="translate(-0.25 -0.53)"/><path class="cls-4" d="M47.56,80.54s0,0,0-.07c-.13-.64-.47,1-.65-.05,0-.11-.67.16-.72.68a1.64,1.64,0,0,1-.86.11c-.12,0-.26-.32-.3-.51A2.5,2.5,0,0,1,45,80a3.46,3.46,0,0,1,.09-.45,1.83,1.83,0,0,0,.2.35c.38.43.83.29,1.3.17s.9-.38,1.14.28Z" transform="translate(-0.25 -0.53)"/><path class="cls-4" d="M51.22,104.76c.15-.49.6-.64,1.07-.75l.49-.11a1.85,1.85,0,0,1-.1.54c-.19.36-.34.82-.65,1C51.42,105.81,51.06,105.59,51.22,104.76Z" transform="translate(-0.25 -0.53)"/><path class="cls-4" d="M52.24,67.59c-.72-.12-1.38,0-1.36-.75,0-.18.7-.55.76-.5.32.3,1.13,0,1,.71C52.66,67.28,52.35,67.47,52.24,67.59Z" transform="translate(-0.25 -0.53)"/><path class="cls-4" d="M46.38,20.07a1.83,1.83,0,0,1,0-.33c0-.2.09-.41.14-.61a6.1,6.1,0,0,1,.45.48,4.25,4.25,0,0,1,.23.43,3.3,3.3,0,0,0,.23.3,2.78,2.78,0,0,1,0-.39c0-.19.11-.37.17-.56.06.19.12.38.17.57a.4.4,0,0,1,0,.16c-.06.38-.12.77-.19,1.15-.2-.3-.41-.61-.62-.91a3,3,0,0,0-.25-.28c0,.08,0,.16,0,.23s-.12.42-.18.63c-.06-.24-.12-.49-.17-.73a.77.77,0,0,1,0-.16Z" transform="translate(-0.25 -0.53)"/><path class="cls-4" d="M48.95,32l.31-.8.59.37a6.46,6.46,0,0,1,.66.45c.15.12.38.33.35.45a2.41,2.41,0,0,1-.42.66c-.19-.13-.48-.23-.56-.41-.16-.34-.24-.6-.55-.13Z" transform="translate(-0.25 -0.53)"/><path class="cls-4" d="M51.51,83l-.85.15a.56.56,0,0,1-.15,0,6.77,6.77,0,0,1,.33-.93c0-.09.28-.13.43-.13.31,0,.62,0,.93.08l.64.07a3.65,3.65,0,0,1-.59.79c-.16.13-.46.07-.7.09Z" transform="translate(-0.25 -0.53)"/><path class="cls-4" d="M45.6,50.27l.56-.69a4.3,4.3,0,0,1,.83,1c.24.6-.42.71-.73.72-.54,0-.72-.38-.42-.93Z" transform="translate(-0.25 -0.53)"/><path class="cls-4" d="M46.28,25.93c-.19.26-.34.7-.57.75-.62.12-1-.19-1-.9a.46.46,0,0,1,0-.08L45,24.62c.08.34.15.68.25,1a5.44,5.44,0,0,0,.22.55c.07-.19.14-.37.2-.57s0-.22,0-.32a4.58,4.58,0,0,1,.19-.47,2.84,2.84,0,0,1,.25.5,1.87,1.87,0,0,1,0,.48Z" transform="translate(-0.25 -0.53)"/><path class="cls-4" d="M3.52,111.91a3.78,3.78,0,0,1-.13-1.32c.2-.72.17.28.33.08s.28-.37.42-.55a2.57,2.57,0,0,1,0,.46c-.09.59-.19,1.17-.3,1.76a2.43,2.43,0,0,1-.19.46,3.33,3.33,0,0,1-.18-.47,1.82,1.82,0,0,1,0-.41Z" transform="translate(-0.25 -0.53)"/><path class="cls-4" d="M52.09,51.78c0,.13,0,.34-.1.55a.36.36,0,0,1-.25,0c-.18-.13-.32-.37-.51-.42-.45-.14-.64-.39-.48-.83a2.48,2.48,0,0,1,.35-.53c.32.25.66.49,1,.77C52.13,51.37,52.08,51.56,52.09,51.78Z" transform="translate(-0.25 -0.53)"/><path class="cls-4" d="M51.24,63.44c-1,.08-1.18-.51-1.25-1.17,0-.09.07-.19.11-.28.07.06.13.15.2.17a5.54,5.54,0,0,0,.83.13c.4,0,.74.12.61.6C51.69,63.1,51.42,63.26,51.24,63.44Z" transform="translate(-0.25 -0.53)"/><path class="cls-4" d="M41.74,80.29c.24-.37.42-.81.56-.8.42,0,.84.17.83.78s-.3.84-.76.8C42.17,81,42,80.62,41.74,80.29Z" transform="translate(-0.25 -0.53)"/><path class="cls-4" d="M52.72,61.94c-.6-.13-1-.19-1-.81a.81.81,0,0,1,.36-.44c.41.22,1.15-.09,1.18.66C53.3,61.55,52.92,61.75,52.72,61.94Z" transform="translate(-0.25 -0.53)"/><path class="cls-4" d="M51.37,27.25l-.75,1A4.09,4.09,0,0,1,50.1,27c0-.29.26-.61.41-.92Z" transform="translate(-0.25 -0.53)"/><path class="cls-4" d="M4.49,108.14c.12-.6.19-1,.28-1.39a1.07,1.07,0,0,1,.19-.3.87.87,0,0,1,.17.25q.19.78.35,1.57a.81.81,0,0,1-.05.29l-.23-.15a3.08,3.08,0,0,0-.38-.19A2.45,2.45,0,0,0,4.49,108.14Z" transform="translate(-0.25 -0.53)"/><path class="cls-4" d="M4.32,132c-.09-.62.12-.35.43-.19s1,.24,1,.89c0,.18-.18.36-.28.55a2.56,2.56,0,0,1-.42-.46c-.07-.13,0-.32-.06-.48a.26.26,0,0,0-.16-.15s-.11.08-.14.13-.11.29-.16.43c0-.17-.1-.33-.15-.5A2.41,2.41,0,0,1,4.32,132Z" transform="translate(-0.25 -0.53)"/><path class="cls-4" d="M53,107a1,1,0,0,1-1.24,1.08c-.09,0-.16-.25-.17-.39a3.61,3.61,0,0,1,.07-.63c.09.07.19.21.27.19a6.17,6.17,0,0,0,.76-.22,1.14,1.14,0,0,1-.29-.15s0-.21,0-.21c.17,0,.38-.07.51,0S53,106.95,53,107Z" transform="translate(-0.25 -0.53)"/><path class="cls-4" d="M52.59,81.22l-.06,0c.05-.68-.65-.69-.93-1.07-.06-.08.17-.52.24-.51a4.36,4.36,0,0,1,1.15.28c.06,0,0,.39,0,.56A5.52,5.52,0,0,1,52.59,81.22Z" transform="translate(-0.25 -0.53)"/><path class="cls-4" d="M49.74,64.23l-.25.68c-.18-.15-.37-.29-.54-.44s-.05-.12-.07-.18,0,.18-.09.21-.37.22-.56.32a2,2,0,0,1-.2-.7c0-.13.28-.3.46-.34a2.7,2.7,0,0,1,1,0C49.57,63.77,49.64,64.06,49.74,64.23Z" transform="translate(-0.25 -0.53)"/><path class="cls-4" d="M53.85,133.61v7a6.63,6.63,0,0,1-.27-1.36c0-1.67.08-3.33.14-5A3.53,3.53,0,0,1,53.85,133.61Z" transform="translate(-0.25 -0.53)"/><path class="cls-4" d="M41.7,111.46c.25-.3.42-.68.63-.7.8-.08.23.73.57,1l-.64.58Z" transform="translate(-0.25 -0.53)"/><path class="cls-4" d="M43.32,60.27c.21,0-.11-.93.46-.24,0,0,.24-.1.36-.12a2.08,2.08,0,0,1,.56,0,4.68,4.68,0,0,1,.09,1,1.53,1.53,0,0,1-.51.06c-.43,0-1,.16-1.11-.51Z" transform="translate(-0.25 -0.53)"/><path class="cls-4" d="M41.92,82.61,42,82l.52.41.35.3a2.8,2.8,0,0,1,0-.4,1.14,1.14,0,0,1,.12-.26c0,.08.13.17.12.25-.07.48.34,1.18-.69,1.17C41.58,83.48,42.18,82.85,41.92,82.61Z" transform="translate(-0.25 -0.53)"/><path class="cls-4" d="M49.45,41.88l.33-1.11a5.85,5.85,0,0,1,.58.78,2.31,2.31,0,0,1,.23.84c0,.15-.14.31-.21.46l-.3-.29Z" transform="translate(-0.25 -0.53)"/><path class="cls-4" d="M42.83,87.41l-.19-.08c.23-.74-.7-.49-.78-.94,0-.06.2-.19.32-.24a3.3,3.3,0,0,1,.41-.06c.23-.06.46-.14.69-.21a1,1,0,0,1,0,.39C43.17,86.65,43,87,42.83,87.41Z" transform="translate(-0.25 -0.53)"/><path class="cls-4" d="M13.49,134a3.28,3.28,0,0,1,.5.94c0,.15-.33.52-.54.54-.62.06-.57-.44-.53-.84a2.21,2.21,0,0,1,.24-.59Z" transform="translate(-0.25 -0.53)"/><path class="cls-4" d="M48.37,110.43s-.38-.87.4-.25c.1.08.28-.77.83-.37,0,0,.19-.06.3-.1s-.05.2-.07.31a3.75,3.75,0,0,1-.06.4c-.06.19-.13.37-.2.56a5,5,0,0,0-.12-.52,1.93,1.93,0,0,0-.19-.33,2.41,2.41,0,0,1-.1.34c-.08.19-.17.51-.28.51C48.61,111,48.05,111.22,48.37,110.43Z" transform="translate(-0.25 -0.53)"/><path class="cls-4" d="M51.74,21.83l.21-.52c.2.28.41.55.59.83a.49.49,0,0,1,0,.32c-.05.25-.12.5-.18.76-.21-.28-.43-.56-.62-.85C51.7,22.29,51.74,22.16,51.74,21.83Z" transform="translate(-0.25 -0.53)"/><path class="cls-4" d="M51.35,108.19a3,3,0,0,1-.47.24,9,9,0,0,1-1,.26s-.17-.16-.16-.23c0-.29.13-.58.2-.87,0,0,0-.07,0-.08s.18-.1.24-.07c.39.15.77.33,1.15.49Z" transform="translate(-0.25 -0.53)"/><path class="cls-4" d="M44.71,47l.23-.44c.06.23.13.45.18.68s.06.26.09.4c.09-.1.18-.19.25-.3s.19-.28.28-.42c.11.22.31.44.31.66s-.21.51-.36.54C44.9,48.26,44.71,48.05,44.71,47Z" transform="translate(-0.25 -0.53)"/><path class="cls-4" d="M44.69,108.66c.1-.11.26-.44.5-.51.43-.13.73.07.69.6a.69.69,0,0,0,.05.22l.14-.14.13-.1a1.88,1.88,0,0,1,.22.51c0,.05-.25.21-.36.2a.7.7,0,0,1-.47-.26c-.08-.14,0-.37,0-.56a.38.38,0,0,0-.22-.24.33.33,0,0,0-.27.13c0,.06,0,.24,0,.27s.52.12.08.37a2.29,2.29,0,0,0-.37.33Z" transform="translate(-0.25 -0.53)"/><path class="cls-4" d="M48.06,86.34a5.09,5.09,0,0,1-.33.73.39.39,0,0,1-.37.12c-.2-.12-.35-.33-.55-.44s-.24.16-.36.26c0-.08-.07-.18,0-.24s.25-.41.29-.39c.56.21.87.05,1-.53,0-.05.11-.08.17-.13Z" transform="translate(-0.25 -0.53)"/><path class="cls-4" d="M50.64,21.86l-.11.39c-.1-.09-.19-.24-.31-.27-1-.3-.54-.9-.33-1.46,0-.09.14-.14.21-.22s.17.13.19.22C50.42,21,50.53,21.41,50.64,21.86Z" transform="translate(-0.25 -0.53)"/><path class="cls-4" d="M42.77,109.61c-.1.08-.34.27-.58.44,0,0-.17-.12-.18-.19a5.88,5.88,0,0,1,0-.85,3.26,3.26,0,0,1,.13-.51c.17.1.4.16.49.31A2.61,2.61,0,0,1,42.77,109.61Z" transform="translate(-0.25 -0.53)"/><path class="cls-4" d="M7.35,108.47l-.09.43c-.15-.15-.31-.3-.44-.46a3.62,3.62,0,0,1-.26-.4c-.09-.15-.5-.36.08-.38h.08C7.3,107.28,7.3,107.28,7.35,108.47Z" transform="translate(-0.25 -0.53)"/><path class="cls-4" d="M42.64,53.5c.16-.23.27-.55.48-.65s.55.14.62.32a.49.49,0,0,1-.44.75c-.06,0-.11.1-.16.16l-.24.33a3,3,0,0,1-.14-.42,2.28,2.28,0,0,1,0-.4Z" transform="translate(-0.25 -0.53)"/><path class="cls-4" d="M54,86.31v.93c-.18-.11-.43-.18-.52-.34a6,6,0,0,1-.35-1l.71-.09v.33Z" transform="translate(-0.25 -0.53)"/><path class="cls-4" d="M42.55,75a2.49,2.49,0,0,1,.39-.59s.55.24.53.33a1.83,1.83,0,0,1-.36.76,2.48,2.48,0,0,1-.47.41Z" transform="translate(-0.25 -0.53)"/><path class="cls-4" d="M42.74,31.51l-.14-.23a.11.11,0,0,1,0-.08c.16-.4.31-.8.48-1.19,0,0,.25,0,.27,0,.16.45.3.91.43,1.37,0,0-.14.15-.19.13-.24-.07-.48-.17-.72-.26Z" transform="translate(-0.25 -0.53)"/><path class="cls-4" d="M49.62,106.18c-.17-.1-.45-.18-.48-.3a4.18,4.18,0,0,1,0-1c.16.13.31.33.49.39.64.19.54.62.37,1.06,0,.09-.17.15-.25.22l-.11-.37,0-.14Z" transform="translate(-0.25 -0.53)"/><path class="cls-4" d="M41.88,19.82a3.33,3.33,0,0,1-.34-1.08.77.77,0,0,1,1.12-.65c.14.07.23.25.34.38-.14,0-.29,0-.43-.09-.6-.18-.71.22-.73.65a2.76,2.76,0,0,0,.14.7Z" transform="translate(-0.25 -0.53)"/><path class="cls-4" d="M52.07,28a2.2,2.2,0,0,1,0,.41.8.8,0,0,1-.15.24,1.17,1.17,0,0,1-.16-.23,1,1,0,0,1,0-.24c0-.28-.07-.57-.1-.85-.06.26-.12.53-.19.79a.81.81,0,0,1-.11.19c0-.06-.1-.12-.11-.17a7.64,7.64,0,0,1,0-1.06c0-.15.17-.28.26-.42.15.1.37.17.42.31a6.93,6.93,0,0,1,.21,1Z" transform="translate(-0.25 -0.53)"/><path class="cls-4" d="M9.84,134l-.29.69c-.16-.22-.41-.43-.46-.67s.14-.48.22-.72Z" transform="translate(-0.25 -0.53)"/><path class="cls-4" d="M3.47,107a4.59,4.59,0,0,1,0-.65.4.4,0,0,1,.2-.27c.06,0,.21,0,.27.12s.07.25,0,.28c-.5.36.08.81-.1,1.2,0,.09.08.26.13.39s-.18.08-.21.06a1,1,0,0,1-.31-.41,3.42,3.42,0,0,1,0-.72Z" transform="translate(-0.25 -0.53)"/><path class="cls-4" d="M51.9,76.15l-.65-.56a5.31,5.31,0,0,1,.43-.4c.08-.06.21,0,.3-.1a3.86,3.86,0,0,0,.38-.33,7.47,7.47,0,0,1,0,1C52.32,75.89,52.11,76,51.9,76.15Z" transform="translate(-0.25 -0.53)"/><path class="cls-4" d="M42.6,34.25c0-.82.43-1.16.8-.93a1.58,1.58,0,0,1,.31.36,1,1,0,0,0-.38,0c-.13.07-.34.24-.32.31a1.16,1.16,0,0,0,.33.5c.09.08.26.08.4.11-.18.11-.48.35-.54.3A4.77,4.77,0,0,1,42.6,34.25Z" transform="translate(-0.25 -0.53)"/><path class="cls-4" d="M49.78,35.59l.49-.79a3.13,3.13,0,0,1,.33.9c0,.23-.21.47-.33.7Z" transform="translate(-0.25 -0.53)"/><path class="cls-4" d="M9.07,108.16c.19-.08.35-.2.48-.17a10.64,10.64,0,0,1,1.2.37s0,.14,0,.22c-.5,0-1,0-1.5-.07C9.24,108.5,9.19,108.34,9.07,108.16Z" transform="translate(-0.25 -0.53)"/><path class="cls-4" d="M51.79,43.44l1.58.77s0,.13.05.2-.11,0-.15,0c-.54-.22-1.08-.44-1.61-.68,0,0-.08-.14-.07-.21S51.7,43.48,51.79,43.44Z" transform="translate(-0.25 -0.53)"/><path class="cls-4" d="M43.64,78.35l-1,.09a3,3,0,0,1,0-1.19c.2-.42.64-.44,1,0l-.15.17c-.22,0-.5,0-.64.09a.58.58,0,0,0,0,.58c.11.12.39.1.6.13Z" transform="translate(-0.25 -0.53)"/><path class="cls-4" d="M48.35,58.1a4,4,0,0,1,.49-.69c.06-.05.31.1.47.16a1.22,1.22,0,0,0-.26.24,1.19,1.19,0,0,0-.2.49c0,.09.12.24.22.3s.23,0,.35,0c-.08.14-.12.33-.24.4a.43.43,0,0,1-.42,0A5.89,5.89,0,0,1,48.35,58.1Z" transform="translate(-0.25 -0.53)"/><path class="cls-4" d="M48.14,43.56c.05.2.19.43.13.58a5.73,5.73,0,0,1-.57.9c-.14-.21-.38-.42-.38-.64s.22-.43.35-.65Z" transform="translate(-0.25 -0.53)"/><path class="cls-4" d="M44.13,113.87v-.24s0,0,0,.05a2.82,2.82,0,0,1-.43.46,2.43,2.43,0,0,1-.54.22c0-.17-.09-.44,0-.49a1.19,1.19,0,0,1,.59-.13A1.14,1.14,0,0,1,44.13,113.87Z" transform="translate(-0.25 -0.53)"/><path class="cls-4" d="M52.57,31c0-.05,0-.12,0-.15l-.46-.49a4.94,4.94,0,0,1,.72-.5s.35.3.34.44c0,.31,0,.76-.56.69Z" transform="translate(-0.25 -0.53)"/><path class="cls-4" d="M48.39,78.24l.46-.4c.13-.11.36-.31.39-.28a1.14,1.14,0,0,1,.39.52c0,.09-.23.35-.38.37a6,6,0,0,1-1-.05Z" transform="translate(-0.25 -0.53)"/><path class="cls-4" d="M41.82,75.15a1.13,1.13,0,0,1,.13-.39,1.77,1.77,0,0,1,.4-.3,1.78,1.78,0,0,1,.06.44c0,.23-.1.46-.14.7s0,.38-.06.57c-.1-.19-.22-.38-.31-.58A2.43,2.43,0,0,1,41.82,75.15Z" transform="translate(-0.25 -0.53)"/><path class="cls-4" d="M51.94,62.68l.28-.57a4.7,4.7,0,0,1,.47.84c0,.12-.14.32-.22.49Z" transform="translate(-0.25 -0.53)"/><path class="cls-4" d="M46.51,60.69l-.54.48c-.11-.17-.33-.36-.31-.52s.22-.41.34-.61Z" transform="translate(-0.25 -0.53)"/><path class="cls-4" d="M44.49,20.34c.85,0,1-.18.77-1.09,0-.09,0-.18,0-.28s.19,0,.22,0a1.05,1.05,0,0,1,0,1.41c-.33.4-.71.49-1.06,0Z" transform="translate(-0.25 -0.53)"/><path class="cls-4" d="M49,20.9l-.22.7c-.05-.32-.11-.64-.16-1a1.91,1.91,0,0,1,0-.48,4.26,4.26,0,0,1,.12-.49,3,3,0,0,1,.25.52A3.72,3.72,0,0,1,49,20.9Z" transform="translate(-0.25 -0.53)"/><path class="cls-4" d="M27.26,1.75l.52.39c-.36.26-.72.52-1.09.76,0,0-.2-.16-.2-.17C26.72,2.41,27,2.11,27.26,1.75Z" transform="translate(-0.25 -0.53)"/><path class="cls-4" d="M47.23,77.87l.21.59a4.82,4.82,0,0,1-.92-.06c-.08,0-.15-.45-.11-.48a2.92,2.92,0,0,1,.67-.2Z" transform="translate(-0.25 -0.53)"/><path class="cls-4" d="M45.23,31c-.34.15-1-.31-1,.51,0,0-.11.08-.16.12s-.16-.17-.15-.24c0-.28.11-.55.17-.82l1.14.45Z" transform="translate(-0.25 -0.53)"/><path class="cls-4" d="M47.27,64.62a2.54,2.54,0,0,1-.3-.13c.11-.34.23-.68.36-1,.16.33.32.66.46,1,0,0-.11.15-.16.23l-.27-.25Z" transform="translate(-0.25 -0.53)"/><path class="cls-4" d="M45,34.62c-.3.23-.46.44-.64.47s-.43-.26-.41-.35a4.42,4.42,0,0,1,.37-.87Z" transform="translate(-0.25 -0.53)"/><path class="cls-4" d="M8.65,133.24l-.34,1c-.11-.37-.23-.74-.33-1.11,0,0,.18-.19.23-.17A2.29,2.29,0,0,1,8.65,133.24Z" transform="translate(-0.25 -0.53)"/><path class="cls-4" d="M44.65,87.1a4.49,4.49,0,0,1-.92.28c-.09,0-.3-.25-.28-.34a2.2,2.2,0,0,1,.34-.56Z" transform="translate(-0.25 -0.53)"/><path class="cls-4" d="M46,85.7c.06.13.17.28.15.4-.06.38-.17.75-.27,1.12-.07-.34-.15-.69-.21-1a2.53,2.53,0,0,1,0-.43Z" transform="translate(-0.25 -0.53)"/><path class="cls-4" d="M51.62,112l.26-.55a7.18,7.18,0,0,1,.5.73s-.17.2-.26.3Z" transform="translate(-0.25 -0.53)"/><path class="cls-4" d="M46.93,41.07l.22-.72c.18.23.48.46.5.71s-.27.46-.42.69Z" transform="translate(-0.25 -0.53)"/><path class="cls-4" d="M48.43,41c.09.15.27.31.25.45a2.63,2.63,0,0,1-.29.67c-.15-.08-.44-.19-.43-.22a4.2,4.2,0,0,1,.29-.67Z" transform="translate(-0.25 -0.53)"/><path class="cls-4" d="M4.79,141.74l.23-1a7.67,7.67,0,0,1,.21.88,2,2,0,0,1-.08.55Z" transform="translate(-0.25 -0.53)"/><path class="cls-4" d="M51.27,30.36c0-.4-.1-.8-.1-1.21,0-.12.15-.24.23-.36.06.11.18.23.16.32-.08.42-.2.82-.3,1.23Z" transform="translate(-0.25 -0.53)"/><path class="cls-4" d="M3,111.33a3.16,3.16,0,0,1,0,.34c0,.2-.08.39-.12.59-.07,0-.2-.06-.2-.08a6.06,6.06,0,0,1,.09-.63s.07-.09.08-.13,0-.39,0-.59Z" transform="translate(-0.25 -0.53)"/><path class="cls-4" d="M46.62,40.71l-.27.83a3.27,3.27,0,0,1-.16-.72,3.53,3.53,0,0,1,.14-.74Z" transform="translate(-0.25 -0.53)"/><path class="cls-4" d="M44.17,20.13a1,1,0,0,1,.1-1.48c.05,0,.2,0,.3,0s-.09.11-.1.17c-.07.4-.12.81-.19,1.22Z" transform="translate(-0.25 -0.53)"/><path class="cls-4" d="M2.39,120.83l0-.42-.07-1v-.6A1.79,1.79,0,0,1,2.39,120.83Z" transform="translate(-0.25 -0.53)"/><path class="cls-4" d="M43.58,82.36c.17.3.33.45.31.58a2,2,0,0,1-.26.58c-.11-.09-.32-.2-.31-.28A5,5,0,0,1,43.58,82.36Z" transform="translate(-0.25 -0.53)"/><path class="cls-4" d="M45.32,34.43l-.19.68a2.25,2.25,0,0,1-.23-.67,3.07,3.07,0,0,1,.18-.77Z" transform="translate(-0.25 -0.53)"/><path class="cls-4" d="M44.55,53.71c-.08.06-.2.11-.24.19a4.63,4.63,0,0,0-.2.56c-.06-.1-.19-.21-.18-.3a6.63,6.63,0,0,1,.21-.8l.43.32Z" transform="translate(-0.25 -0.53)"/><path class="cls-4" d="M46.6,47.47l-.24.62a2.79,2.79,0,0,1-.17-.71,2.46,2.46,0,0,1,.21-.67Z" transform="translate(-0.25 -0.53)"/><path class="cls-4" d="M4.42,138.35a3.19,3.19,0,0,0-.68-.16,1.29,1.29,0,0,0-.46.19c0-.07,0-.17.08-.21s.39-.33.58-.31.39.24.59.37Z" transform="translate(-0.25 -0.53)"/><path class="cls-4" d="M49.47,35.66c0-.23,0-.46,0-.7s0-.26,0-.39c.11.12.31.23.32.36a2.48,2.48,0,0,1-.1.78,1.63,1.63,0,0,1-.21.39l-.13-.43Z" transform="translate(-0.25 -0.53)"/><path class="cls-4" d="M.25,17.76c0-.5,0-1,.08-1.49,0-.07.16-.13.24-.2v.38Z" transform="translate(-0.25 -0.53)"/><path class="cls-4" d="M42.69,106a.6.6,0,0,0-.44,1c0,.08.17.11.25.16s-.05.09-.08.09a1.18,1.18,0,0,1-.37,0,6.34,6.34,0,0,1,0-1.27,4.87,4.87,0,0,1,.82-.05Z" transform="translate(-0.25 -0.53)"/><path class="cls-4" d="M47.72,80.35a.71.71,0,0,1,.15-.18c.05,0,.13,0,.2,0-.13.43-.25.87-.39,1.3,0,0-.09,0-.13,0,0-.15,0-.3,0-.45s0-.32,0-.48Z" transform="translate(-0.25 -0.53)"/><path class="cls-4" d="M48.29,77.27l.1,1-.19.15a.86.86,0,0,1-.09-1.28Z" transform="translate(-0.25 -0.53)"/><path class="cls-4" d="M52.88,34.64l.7.41c-.05,0-.12.11-.15.1-.21-.09-.42-.2-.63-.32A1.35,1.35,0,0,1,52.88,34.64Z" transform="translate(-0.25 -0.53)"/><path class="cls-4" d="M53.57,148.76l-.51.83Z" transform="translate(-0.25 -0.53)"/><path class="cls-4" d="M48.11,77.11c.2,0,.4-.1.6-.14a1.05,1.05,0,0,1,.08.2l-.5.1Z" transform="translate(-0.25 -0.53)"/><path class="cls-4" d="M48.24,41.2,48,40.89l.41.1Z" transform="translate(-0.25 -0.53)"/><path class="cls-4" d="M47.09,77.71a1.92,1.92,0,0,1,.29-.18s.08.1.13.15l-.27.18Z" transform="translate(-0.25 -0.53)"/><path class="cls-4" d="M45.47,74.63l.38-.13-.24.28Z" transform="translate(-0.25 -0.53)"/><path class="cls-4" d="M42.82,105.83l.08.42-.21-.29Z" transform="translate(-0.25 -0.53)"/><path class="cls-4" d="M53,50.51l-.09,0s0,0,0-.06Z" transform="translate(-0.25 -0.53)"/><path class="cls-4" d="M42,19.73l.09.23-.19-.15Z" transform="translate(-0.25 -0.53)"/><path class="cls-4" d="M44.28,20l.21.3-.1.08-.21-.29Z" transform="translate(-0.25 -0.53)"/><path class="cls-4" d="M47,57.33s0,0,0,.05l-.05,0V57.3Z" transform="translate(-0.25 -0.53)"/><path class="cls-4" d="M3.47,123.81l-.1.22L3.3,124l.17-.15Z" transform="translate(-0.25 -0.53)"/><path class="cls-1" d="M1.47,75.31l2.61,0a1.52,1.52,0,0,1,1.51,1,5,5,0,0,1,.12,3.35,1.48,1.48,0,0,1-1.65,1.15c-.84-.06-1.67-.17-2.5-.26Z" transform="translate(-0.25 -0.53)"/><path class="cls-1" d="M1.09,58.35l2-.52a1.52,1.52,0,0,1,.39,0,2.41,2.41,0,0,1-.09.35c-.61,1.46-1.26,2.91-1.83,4.39a8.88,8.88,0,0,0-.31,1.59Z" transform="translate(-0.25 -0.53)"/><path class="cls-1" d="M9.19,2.8l5.42-1.48c.08,0,.18,0,.27.07a1.05,1.05,0,0,1-.27.15L9.18,2.79Z" transform="translate(-0.25 -0.53)"/><path class="cls-1" d="M27.47.65H27.3L26.22.58l1.05,0h.24L28.65.6,27.47.68Z" transform="translate(-0.25 -0.53)"/><path class="cls-1" d="M9.18,2.79l-.69.31,0-.1.74-.19Z" transform="translate(-0.25 -0.53)"/><path class="cls-1" d="M1,15.34l-.13.5-.27-.26Z" transform="translate(-0.25 -0.53)"/><path class="cls-1" d="M2.36,119.38l.07,1Z" transform="translate(-0.25 -0.53)"/><path class="cls-1" d="M7.87,3.27l-.41.13s0,0-.05-.06l.47-.06Z" transform="translate(-0.25 -0.53)"/><path class="cls-1" d="M7.88,3.28,8,3.15l.06.09-.22,0Z" transform="translate(-0.25 -0.53)"/><path class="cls-1" d="M54,86.31l-.15-.15Z" transform="translate(-0.25 -0.53)"/><path class="cls-1" d="M33.58,1.93l9.63,1.92a1.87,1.87,0,0,1,.23.08l.79.27a3.61,3.61,0,0,1-1.12.32c-.66,0-1.32-.25-2-.31-2.46-.23-4.92-.44-7.39-.64-.34,0-.7,0-1,0s-.64-.25-.22-.63Z" transform="translate(-0.25 -0.53)"/><path class="cls-1" d="M50.84,95.59a1.36,1.36,0,0,1,.12-.51,1.94,1.94,0,0,1,.49-.4c-.1.12-.25.23-.27.36a4.56,4.56,0,0,0,0,1c0,.13.16.26.25.39s-.13.05-.14,0a2.88,2.88,0,0,1-.4-.46C50.8,95.94,50.84,95.81,50.84,95.59Z" transform="translate(-0.25 -0.53)"/><path class="cls-1" d="M48.17,95.43a1.56,1.56,0,0,1,.11.6,6.62,6.62,0,0,1-.39,1c-.15-.33-.32-.66-.46-1,0-.07.06-.18.1-.27a1.5,1.5,0,0,1,.09.26,2.14,2.14,0,0,0,0,.32,2.7,2.7,0,0,0,.2.39c.11-.13.28-.25.31-.4a5.45,5.45,0,0,0,0-.88Z" transform="translate(-0.25 -0.53)"/><path class="cls-1" d="M46,96.38a.65.65,0,0,1,0,.08l-.08.6c0-.19-.09-.38-.13-.58a.68.68,0,0,1,0-.16c0-.27,0-.54,0-.81l.24.85Z" transform="translate(-0.25 -0.53)"/><path class="cls-1" d="M47.22,96.57l-.24.33c0-.1.07-.22,0-.28s-.24-.27-.32-.42a4.68,4.68,0,0,1-.27-.66.86.86,0,0,1,.15-.09Z" transform="translate(-0.25 -0.53)"/><path class="cls-1" d="M49.19,96.63a.73.73,0,0,0,0-.25,2,2,0,0,0-.2-.29,1.64,1.64,0,0,0-.2.29,1.19,1.19,0,0,0,0,.31,2.65,2.65,0,0,1,0-.32c0-.13,0-.34.05-.38a3.27,3.27,0,0,1,.65-.22.54.54,0,0,1,0,.17C49.34,96.18,49.27,96.4,49.19,96.63Z" transform="translate(-0.25 -0.53)"/><path class="cls-1" d="M48.17,95.42h0Z" transform="translate(-0.25 -0.53)"/><path class="cls-1" d="M3.71,42.63c-.15.66-.27,1.25-.41,1.83a.43.43,0,0,1-.12.18,9.29,9.29,0,0,1-1.34-.71c-.13-.09-.15-.47-.09-.67a3.84,3.84,0,0,1,.55-1c.26-.35.59-.66.88-1Z" transform="translate(-0.25 -0.53)"/><path class="cls-1" d="M3.53,95.16c-.2.06-.44.21-.54.15-.3-.2-.75-.47-.77-.74a25.92,25.92,0,0,1,0-2.91,1.41,1.41,0,0,1,.16-.43c.12.12.31.22.35.37C3,92.71,3.23,93.84,3.53,95.16Z" transform="translate(-0.25 -0.53)"/><path class="cls-1" d="M47.78,128.08a4.62,4.62,0,0,1-.6-4.19,12.45,12.45,0,0,1,1.56-3.43,2,2,0,0,1,2-.94c.85.16,1.09.91,1.25,1.64.47,2.13.47,2.16-1.52,3a21.86,21.86,0,0,1-2.78.89c-.47.12-.69.32-.57.78.2.75.45,1.48.67,2.22Zm.48-4.84c.16.35.23.84.51,1s1.27-.59,1.27-.92c0-.54-.51-1.2-.93-1.2C48.35,122.14,48.32,122.62,48.26,123.24Zm1.82-.44h0a2.33,2.33,0,0,0,0,.64c0,.12.27.3.34.27a3.38,3.38,0,0,0,1.09-.54c.12-.11,0-.51,0-.77a4.68,4.68,0,0,0,0-.57,2.37,2.37,0,0,0-.16-.42,2.38,2.38,0,0,0-.3.4,1.49,1.49,0,0,0-.06.4c0,.12,0,.23-.07.35a.84.84,0,0,0,0-.32c-.11-.2-.26-.38-.39-.57a4,4,0,0,0-.36.63A1.29,1.29,0,0,0,50.08,122.81Z" transform="translate(-0.25 -0.53)"/><path class="cls-1" d="M47.84,128a9.28,9.28,0,0,0,1.43,1c.26.12.66-.06,1-.12a2.62,2.62,0,0,0,.43-.16,2,2,0,0,1-.33.34,1.8,1.8,0,0,1-2.58-1Z" transform="translate(-0.25 -0.53)"/><path class="cls-1" d="M48.63,126.3l-.46.71c-.08-.2-.25-.41-.23-.61a2.87,2.87,0,0,1,.28-.76Z" transform="translate(-0.25 -0.53)"/><path class="cls-1" d="M51.09,128.21l0,.07,0-.06Z" transform="translate(-0.25 -0.53)"/><path class="cls-1" d="M51.1,128.22l0-.07,0,.06Z" transform="translate(-0.25 -0.53)"/><path class="cls-1" d="M48.3,59.81l.74.37c-.09,0-.18.1-.26.09-.3,0-.59-.12-.88-.19Z" transform="translate(-0.25 -0.53)"/><path class="cls-1" d="M51.94,138.21c-.24,1-.48,2.13-.81,3.27a2.6,2.6,0,0,1-.66,1,1.36,1.36,0,0,1-2.34-.38c-1-1.86-.13-5.35,1.6-6.51.81-.55,1.46-.38,1.79.56A15.91,15.91,0,0,1,51.94,138.21Zm-3,1.29h0c0,.71,0,1.41,0,2.12,0,.16.17.44.28.45A2.12,2.12,0,0,0,51,140.35a2.84,2.84,0,0,0-.09-.47,1.53,1.53,0,0,1-.21.38c-.33.33-.67.65-1,1,0,0-.18,0-.27,0a4.25,4.25,0,0,1,.19-1.48c.12-.23.72-.2,1.1-.3.1,0,.27-.08.28-.13.08-.55-.28-.83-.81-.63a6.93,6.93,0,0,1-.72.18,2.77,2.77,0,0,1,.1-1.09c.14-.26.56-.36.86-.53.08.23.15.46.25.68s.16.17.25.25a6.42,6.42,0,0,0,.06-1.32c0-.13-.47-.34-.67-.3-1.19.26-1.34.48-1.35,1.68C48.93,138.63,48.93,139.07,48.93,139.5Z" transform="translate(-0.25 -0.53)"/><path class="cls-1" d="M5.6,145.49c-.34.78-.86.69-1.45.32a1.38,1.38,0,0,1,.15-.17A1.12,1.12,0,0,0,5.6,145.49Z" transform="translate(-0.25 -0.53)"/><path class="cls-1" d="M13.08,113.3l-.06.05s0,0,0-.06,0,0,.05-.05Z" transform="translate(-0.25 -0.53)"/><path class="cls-1" d="M51.85,132.66l0,0a.18.18,0,0,1,0-.06l0,0A.19.19,0,0,1,51.85,132.66Z" transform="translate(-0.25 -0.53)"/><path class="cls-1" d="M48.88,145.28h0a.24.24,0,0,1,0,.07h-.08Z" transform="translate(-0.25 -0.53)"/><path class="cls-1" d="M8.33,112.28l.4-.46a2.07,2.07,0,0,1,.45.47c0,.06-.22.35-.36.37S8.54,112.45,8.33,112.28Z" transform="translate(-0.25 -0.53)"/><polygon class="cls-1" points="46.78 72.88 46.81 72.83 46.77 72.87 46.78 72.88"/><path class="cls-1" d="M48.32,113.54a2.33,2.33,0,0,1-.14-.67,1.51,1.51,0,0,1,.26-.44,1.49,1.49,0,0,1,.21.51C48.65,113.07,48.5,113.22,48.32,113.54Z" transform="translate(-0.25 -0.53)"/><path class="cls-1" d="M50,113.2H49.9l.06,0Z" transform="translate(-0.25 -0.53)"/><path class="cls-1" d="M5.86,112l.36-.61a2.63,2.63,0,0,1,.48.82c0,.2-.22.45-.35.68Z" transform="translate(-0.25 -0.53)"/><path class="cls-1" d="M3.61,123.78l.13-.19,0,.27Z" transform="translate(-0.25 -0.53)"/><path class="cls-1" d="M5.1,121.69l-.16.16Z" transform="translate(-0.25 -0.53)"/><path class="cls-1" d="M43,26.82l.1.11-.16.09s-.06-.09-.06-.13S42.93,26.84,43,26.82Z" transform="translate(-0.25 -0.53)"/><path class="cls-1" d="M43.48,78.18c-.21,0-.49,0-.6-.13a.58.58,0,0,1,0-.58c.14-.12.42-.07.64-.09Z" transform="translate(-0.25 -0.53)"/><path class="cls-1" d="M45.18,78.39l-.05.05s0,0,0-.05,0,0,0-.05Z" transform="translate(-0.25 -0.53)"/><path class="cls-1" d="M49.62,106.18l.08-.11,0,.14Z" transform="translate(-0.25 -0.53)"/><path class="cls-4" d="M48.26,123.24c.06-.62.09-1.1.85-1.1.41,0,.93.66.93,1.2,0,.33-1,1.12-1.27.92S48.42,123.6,48.26,123.24Z" transform="translate(-0.25 -0.53)"/><path class="cls-4" d="M50.08,122.81a1.29,1.29,0,0,1,0-.48,4,4,0,0,1,.36-.63c.13.19.28.37.39.57a.84.84,0,0,1,0,.32c0-.12.05-.23.07-.35a1.49,1.49,0,0,1,.06-.4,2.38,2.38,0,0,1,.3-.4,2.37,2.37,0,0,1,.16.42,4.68,4.68,0,0,1,0,.57c0,.27.15.67,0,.77a3.38,3.38,0,0,1-1.09.54c-.08,0-.31-.15-.34-.27a2.33,2.33,0,0,1,0-.64Z" transform="translate(-0.25 -0.53)"/><path class="cls-4" d="M48.93,139.5c0-.43,0-.87,0-1.3,0-1.2.16-1.42,1.35-1.68.21,0,.66.16.67.3a6.42,6.42,0,0,1-.06,1.32c-.08-.08-.2-.15-.25-.25s-.17-.45-.25-.68c-.3.17-.71.27-.86.53a2.77,2.77,0,0,0-.1,1.09,6.93,6.93,0,0,0,.72-.18c.52-.19.89.08.81.63,0,.06-.18.11-.28.13-.38.1-1,.07-1.1.3a4.25,4.25,0,0,0-.19,1.48c.09,0,.22.06.27,0,.35-.31.7-.62,1-1a1.53,1.53,0,0,0,.21-.38,2.84,2.84,0,0,1,.09.47,2.12,2.12,0,0,1-1.79,1.72c-.11,0-.27-.29-.28-.45,0-.7,0-1.41,0-2.12Z" transform="translate(-0.25 -0.53)"/></g></g></g></g></svg>