<svg xmlns="http://www.w3.org/2000/svg" viewBox="0 0 54.02 159.82"><defs><style>.cls-1{fill:#aa9076;}.cls-2{fill:#dfd7d2;}.cls-3{fill:#3c090b;}.cls-4{fill:#d7c8bb;}</style></defs><title>Asset 3</title><g id="Layer_2" data-name="Layer 2"><g id="runa"><g id="runa-4"><g id="runa-4-svg_Image" data-name="runa-4-svg Image"><path class="cls-1" d="M54.33,136.56v11.22l-1.45,2.12c-1,.38-2,.71-2.94,1.16s-1.79,1.05-2.72,1.5a28.55,28.55,0,0,1-2.77,1.09,3.93,3.93,0,0,1-.92.1c.06-.25.14-.49.17-.74a2.6,2.6,0,0,0,0-.51,1.68,1.68,0,0,0-.4.22c-.47.45-.92.92-1.38,1.38s-1,1.09-1.94.89c-.23-.05-.54.19-.8.31s-.31.24-.48.26c-1.53.16-3.07.22-4.58.44a52.37,52.37,0,0,1-9.18.61c-.88,0-1.76-.09-2.64-.11a13.32,13.32,0,0,1-1.52,0c-2.36-.35-4.71-.72-7.07-1.11a15.46,15.46,0,0,1-2.73-.56,21.6,21.6,0,0,1-2.63-1.35c-.16-.09-.37-.3-.47-.25-.65.28-1.1-.17-1.62-.38a6.07,6.07,0,0,0-.34-.63C5,151,4.15,149.8,3.35,148.55A2.76,2.76,0,0,1,3,147.2c-.11-3.76-.18-7.52-.26-11.28q-.2-9.34-.39-18.68c-.05-2.57-.09-5.14-.13-7.71l-.06-3.22L2,103.53a1.9,1.9,0,0,0,.11-.46Q2,97.17,2,91.26c0-.13-.12-.26-.18-.39l-.1-3.27,0-3.89L1.5,79.47V77l-.14-4.9,0-4.36-.12-3,0-3.52A5.24,5.24,0,0,1,1,60.37C1,57.27.91,54.17.85,51.07Q.77,47.3.7,43.54q-.09-5-.18-10c0-1.06,0-2.11,0-3.17C.42,25.81.36,21.24.32,16.67a2.5,2.5,0,0,1,.31-.81c.18-.45.34-.91.53-1.36A5.58,5.58,0,0,1,1.9,13a1.32,1.32,0,0,0,.3-1.57C1.13,8.89,1.54,6.94,3.62,5.31A16.68,16.68,0,0,1,6.88,3.37a18.87,18.87,0,0,1,5.91-1.55c1.64-.19,3.26-.57,4.89-.87a.1.1,0,0,0,.06,0,.19.19,0,0,0,0-.08l-.13.09c.05.07.1.2.15.2A7,7,0,0,0,19.71,1,13.62,13.62,0,0,1,23.91.38c.11,0,.23-.16.34-.25h7.32c.25,0,.51.11.76.14L37,.85l2,.43,1.29.31c-.16.1-.32.28-.47.28-2.44-.11-4.89-.26-7.33-.38a1.55,1.55,0,0,0-.49.15c.14.13.27.32.44.38a2.43,2.43,0,0,0,.64,0c.94.06,1.88.12,2.83.2.12,0,.33.14.34.21,0,.57-.79,1.12-1.37,1a31,31,0,0,0-3.36-.38c-1.74-.06-3.49,0-5.24,0s-3.76.17-5.64.32c-.68.05-1.34.31-2,.42s-1.36.13-2,.22c-.42.05-.83.16-1.24.25a2.8,2.8,0,0,0-.4.15c.13,0,.27.13.4.12.88-.11,1.75-.32,2.63-.37C21.64,4,25.32,3.7,29,3.73c2.88,0,5.75.48,8.62.75a2.78,2.78,0,0,1,.31.06c-.06.11-.09.26-.18.33-.46.37-.94.74-1.42,1.08s-.47.63,0,1c1.07.82,2.15,1.63,3.17,2.5s1.77,1.66,2.66,2.48a2.5,2.5,0,0,0,.51.29,1.42,1.42,0,0,0-.14-.51,19.64,19.64,0,0,0-1.63-2C40,8.79,39,8,38,7.08a.63.63,0,0,1-.09-.6c1-1.13,2.16-2,3.78-1.13a1.32,1.32,0,0,0,.31.09A25.8,25.8,0,0,1,50.41,9a.86.86,0,0,0,.53.09,1.19,1.19,0,0,0,.13-.71,1.31,1.31,0,0,0-.47-.65C50,7.3,50,6.85,50.44,6.31c.29.24.57.48.86.7a2.94,2.94,0,0,1,1.09,3.8c-.53,1.2.19,2.11.56,3.1.06.17.21.31.26.48.38,1.1.74,2.2,1.11,3.3v.49a5.23,5.23,0,0,0-.17.92c0,3.21,0,6.42,0,9.63,0,1.09-.1,2.18-.15,3.28a2.18,2.18,0,0,1-1.33-2.22c.06-.52-.81-.94-1.28-.7-.24-.2-.45-.5-.72-.57a.88.88,0,0,1-.73-1c0-.31,0-.61.07-.91.09.27.17.56.29.82a1.72,1.72,0,0,0,.28.35,1.19,1.19,0,0,0,.19-.4c0-.51,0-1,0-1.54s.11-.79.67-.45.84.49,1.26.72a1.68,1.68,0,0,0,.31.1c0-.12,0-.27-.11-.35a1.83,1.83,0,0,0-.51-.39c-1-.47-2-.9-3-1.37-.58-.28-.61,0-.61.47q.06,5.55.1,11.11.08,12.83.15,25.66,0,3.86,0,7.72c0,.4,0,.73.57.75,1.48.05,3,.16,4.45.25,0,2.54.05,5.09.06,7.63s0,5.14,0,7.71c-.67.23-.74.44-.37,1a.94.94,0,0,1,0,.46c0,1.78.06,3.57.1,5.35,0,.43-.13.64-.58.7-1.34.18-2.67.38-4,.63-.16,0-.36.36-.37.56,0,1,0,1.95,0,2.92,0,1.16.14,1.27,1.32,1l3.83-1c0,.32.06.64.07,1q0,3.76,0,7.53l-.08.87-.22.1c-.73.29-1.41.82-2.26.26-.08-.05-.5.16-.52.29a4,4,0,0,0,.09,1,19.23,19.23,0,0,0,1.89-.45,4.93,4.93,0,0,0,1-.63v3.68c-.22.09-.57.31-.64.24-.68-.67-.73,0-1,.39-.1.17-.41.22-.64.29a2.57,2.57,0,0,1-.17-.35,1.26,1.26,0,0,1-.19.41c-.1.1-.3.09-.42.18-.35.28-1,.21-1,.87,0,.07-.22.18-.32.16a.37.37,0,0,1-.21-.29,3.36,3.36,0,0,1,.11-.64l.39-.14-.06-.13-.43.18a1.68,1.68,0,0,0-.24.48c-.1.76.18.89.9.75.45-.09.69-.47,1.25-.5a4.41,4.41,0,0,0,2.65-1.05l.23,1.37v23.25c0-.49-.76.57-.6-.29.07-.36.1-.73.16-1.09,0-.07.12-.12.14-.19s.06-.35.08-.53a2.1,2.1,0,0,0-.38.35,1,1,0,0,0-.2.51q0,1.95,0,3.89c0,.12.12.25.19.37a3,3,0,0,0,.37-.5.51.51,0,0,0-.06-.36c-.71,0-.33-.6-.29-.79S54.12,136.85,54.33,136.56ZM6.7,27.45l.17.16c.17,1.24.33,2.48.49,3.72a.84.84,0,0,1-.08.3,2,2,0,0,1-.33-.15,5.05,5.05,0,0,1-1.79-3.34A.93.93,0,0,0,5,27.88c0,.1-.07.21,0,.29a18.72,18.72,0,0,0,1.25,3c.69,1.1,1.49,1.05,2.21,0a10.17,10.17,0,0,0,1.79-6.53,1.52,1.52,0,0,0-.1-.55c-.06-.12-.24-.17-.36-.25a1.4,1.4,0,0,0,0,.34,3.63,3.63,0,0,1,.19,1.07,39.63,39.63,0,0,1-.84,4.27A6.24,6.24,0,0,1,8,31.18c0,.05-.47-.07-.46-.1,0-1.16.09-2.31.14-3.47.44-.63.89-1.26,1.32-1.9a1.17,1.17,0,0,0,.1-.36,1.44,1.44,0,0,0-.24.25c-.39.67-.77,1.34-1.16,2-.28-1.84-.72-3.7.58-5.36.25-.33.52-.65.78-1,.11.37.2.75.32,1.12,0,.08.12.15.18.22a.77.77,0,0,0,.1-.18,2.09,2.09,0,0,0-.91-1.88l-.34-.5c-.31-.46-.61-.93-1-1.36-.08-.09-.38-.07-.54,0s-.18.25-.27.38a1.71,1.71,0,0,1,.49,0,1,1,0,0,1,.46.25c.26.27.48.57.71.86l.34.47a2.6,2.6,0,0,1-.14.81c-.28.51-.63,1-.95,1.47-.08-.59-.15-1.18-.23-1.76,0-.3-.11-.6-.16-.91,0,.29-.09.59-.12.88-.06.75-.11,1.51-.17,2.26L6,22.58,5.62,22c-.13.16-.36.32-.38.49-.17,1.47-.31,2.95-.44,4.42a1.41,1.41,0,0,0,.1.43c0-.15.06-.29.11-.43.12-.37-.35-1,.39-1.1L6.21,27ZM11.89,137c.24-.14.49-.27.72-.43,0,0,0-.17,0-.26l-.69.7v0Zm37.72-28.62c.29,0,.58,0,.87,0,.06,0,.12-.15.17-.23-.92-.15,0-.45-.06-.67s-.07-.37-.11-.56a10.89,10.89,0,0,0-1,.92c-.07.08.07.35.11.53l-.25.18.11.08Zm.76-31.65a.52.52,0,0,0-.9.08,2.71,2.71,0,0,0,.3,1.15s.38,0,.58-.08.7-.41.56.31c0,.16.08.34.13.51.13-.13.24-.32.4-.38s.29-.86.91-.31c.19.17.87-.19,1.31-.34.06,0,.06-.23.08-.36a.92.92,0,0,0-.36,0,1.6,1.6,0,0,0-.37.24c0-.18,0-.36,0-.54s0-.21,0-.32a1,1,0,0,0-.2.22c-.21.46-.46.67-1,.31-.19-.13-.54,0-.79-.07A3.54,3.54,0,0,1,50.37,76.78Zm2.83,27.43c-.47-.32-1,.72-1.44,0a1.3,1.3,0,0,0-.16.14,1.14,1.14,0,0,1-1.65.26c-.39-.31-.6-.17-.66.26a2.67,2.67,0,0,0,0,.88.45.45,0,0,0,.37.24,13.47,13.47,0,0,0,2.1-.51c.59-.22,1.6-.08,1.4-1.24l0,0ZM53,109.57c-.23-.38-.61-.37-1-.37a4.61,4.61,0,0,0-.74,0c-.36.73-.83.77-1.43.26-.34-.28-.54-.11-.59.27a5.65,5.65,0,0,0,0,.65c0,.53.16.54.64.35a7,7,0,0,1,1.9-.37c.38,0,1.1-.42,1.2-.8.16-.17.44-.32.46-.5s-.2-.42-.32-.63c0,.25-.05.5-.08.75S53.05,109.44,53,109.57Zm-30.5,4c.37.43.72.88,1.11,1.28a.91.91,0,0,0,.56.21c.08,0,.26-.2.26-.3a20.56,20.56,0,0,0-.05-2.26c0-.16-.36-.29-.57-.42a.53.53,0,0,0-.21.25c-.07.37-.1.75-.15,1.12-.29-.32-.57-.64-.87-.94s-.33-.41-.53-.45-.54.19-.55.31a20.47,20.47,0,0,0,0,2.34c0,.13.27.32.42.33s.34-.21.36-.36a5.63,5.63,0,0,0,0-1Zm20.68,20.51c-.42.38-.86.74-1.25,1.14-1.33,1.37-2.65,2.76-4,4.13-.41.43-.3.74.13,1.06l5.06,3.9a1.69,1.69,0,0,0,.38.17,1.19,1.19,0,0,0,0-.47,1.74,1.74,0,0,0-.37-.53c-1.08-1.1-2.13-2.23-3.25-3.29-.41-.39-.4-.58-.07-1,1.19-1.63,2.31-3.31,3.46-5l.07-.12Zm-32-10.82c-.1.79-.21,1.57-.29,2.36a2.9,2.9,0,0,0,.09.68,2.25,2.25,0,0,0,.41-.53,4,4,0,0,1,2-2.61.35.35,0,0,0,.13-.32c0-.1-.25-.23-.31-.2a4.77,4.77,0,0,0-1,.66c-.23.21-.31.39-.43,0,0-.09-.27-.11-.41-.17l.2-.24.37-.51c-.26,0-.59-.11-.78,0a4.66,4.66,0,0,0-.8.78c-.07.07-.15.13-.23.2,0-.1,0-.2,0-.3s-.06-.25-.09-.37c-.14.07-.31.1-.4.21a4.1,4.1,0,0,0-.28.55c-.43.74-.85,1.49-1.31,2.21a.61.61,0,0,1-.54.19c-.12,0-.25-.3-.24-.46s.2-.26.32-.37a4.15,4.15,0,0,0,.72-.64c.3-.44.51-1,0-1.37s-.91.2-1.1.64a11.49,11.49,0,0,0-.42,1.55,1.88,1.88,0,0,1-.12.27c0-.1,0-.2-.07-.3a3.5,3.5,0,0,0-.26-1.32c-.38-.55-.3-.85.07-1.37a2,2,0,0,0,.14-1.5,1.09,1.09,0,0,0-1-.42,3.48,3.48,0,0,0-1.13.93c-.11.11-.08.34-.11.52.13-.11.27-.21.39-.33.37-.37.79-.69,1.26-.23s0,.87-.31,1.21a3,3,0,0,1-.31.24c0-.15,0-.3-.06-.44s0-.36,0-.54a1.8,1.8,0,0,0-.29.5c-.23,1.15-.44,2.3-.63,3.46a3.86,3.86,0,0,0,0,1c0,.08.17.23.2.22.54-.26,1.09-.52,1.6-.84a.75.75,0,0,1,1,0c.2.15.69.05,1-.08s.38-.44.58-.66a1.12,1.12,0,0,1,.3-.17c0,.1,0,.21,0,.31,0,.28,0,.56,0,.84a7,7,0,0,0,.56-.68,4,4,0,0,0,.23-.61C10.1,124.37,10.38,123.57,11.24,123.23Zm-3.9,20.49h0a5.46,5.46,0,0,0,1.29,4.13,2.52,2.52,0,0,0,3.63.37c.09-.09.08-.28.12-.42h0c.2-.16.48-.29.59-.5,1.22-2.31-.14-5.94-2.59-7a2,2,0,0,0-2.33.23,4,4,0,0,0-1,3C7.14,143.61,7.26,143.66,7.35,143.72Zm7.93-78.54a6.9,6.9,0,0,1,0-.89c.1-.77-.22-.95-1-.9-2.21.16-4.43.24-6.65.34a1.78,1.78,0,0,1-.43-.09,1.68,1.68,0,0,1,.2-.33c1.67-1.69,3.3-3.41,5-5.05C13.78,57,15.4,56,15,53.72c-.09-.45-.18-.6-.63-.57-1,.08-2.06.07-3.07.19q-3.71.42-7.42.95a.82.82,0,0,0-.5.6c0,.73,0,1.46,0,2.19,0,.54.17.66.72.58,1.49-.2,3-.32,4.5-.46a2.12,2.12,0,0,1,.46.06c-.1.15-.19.3-.29.44-1.32,1.65-2.62,3.31-4,4.93A5.39,5.39,0,0,0,3.65,66.8c0,.42.11.59.62.56q4.66-.28,9.33-.46C15.32,66.84,15.32,66.88,15.28,65.18Zm-.93-30.33c0-.59,0-1.05,0-1.51s-.12-.58-.56-.35a41.72,41.72,0,0,0-8.19,5.53C4,40,2.38,41.45,3,44c0,.05,0,.12,0,.16.14.24.23.57.44.69a9,9,0,0,0,1.67.81c2.66.94,5.34,1.85,8,2.78,1.78.62,1.77.63,1.62-1.27,0-.59.12-1.36-.18-1.73s-1.11-.45-1.7-.64c-1.65-.54-1.73-.58-.91-2.13a2.4,2.4,0,0,0-.13-3,6.11,6.11,0,0,1-.5-.82c-.18-.3-.29-.53.18-.72s.92-.57,1.42-.77C14.14,36.86,14.9,36.16,14.35,34.85ZM7.73,71.68c-1.11,0-2.22.11-3.33.14-.44,0-.64.15-.59.63a10,10,0,0,1,.07,1.94c-.08.82.3.92,1,.9,1.57-.05,3.14-.11,4.71,0,1,0,2.08,0,2.74.82a3.58,3.58,0,0,1,.34,3.55,2.3,2.3,0,0,1-2.47,1.33c-1.84,0-3.68,0-5.52-.07-.46,0-.63.08-.6.56a17.25,17.25,0,0,1,0,2.11c0,.55.16.77.71.78,2,0,4.06.19,6.09.15a4.38,4.38,0,0,0,4.34-2.84,9.51,9.51,0,0,0,.25-6,4.77,4.77,0,0,0-4.09-3.88A27.68,27.68,0,0,0,7.73,71.68Zm5.51,28.1v-.12c.62,0,1.24,0,1.86.1s.71,0,.66-.59c-.06-.73-.06-1.46-.06-2.19,0-.44-.16-.62-.62-.62-.84,0-1.68-.07-2.51-.09-1.36,0-1.37,0-1.84-1.33a.59.59,0,0,1,.18-.53,31.8,31.8,0,0,1,2.87-1.49c1.56-.67,1.86-1.06,1.85-2.78,0-.41,0-.81,0-1.22.05-.62-.08-.78-.69-.45-1.7.93-3.43,1.81-5.15,2.73-.35.18-.5.14-.77-.2-.55-.69-.89-1.56-1.85-1.94-1.11-.44-1.91-.26-2.4.83a3.46,3.46,0,0,0-.36,1.24q-.11,3.61-.11,7.21c0,.17.34.45.54.48C7.66,99.16,10.45,99.46,13.24,99.78Zm-3.67-96A6.47,6.47,0,0,0,5.8,5.17a9.06,9.06,0,0,0-2,1.73A23.51,23.51,0,0,0,2.13,9.32c0,.07,0,.19,0,.29l.21-.21a14.68,14.68,0,0,1,2-2.09c3-2.11,6.42-3,9.89-3.8a14.24,14.24,0,0,0,2.49-.62c.33-.15.43-.81.64-1.24a2.69,2.69,0,0,0-.87-.13c-1.48.29-3,.58-4.42,1a8.32,8.32,0,0,0-1.63.91C10.13,3.55,9.84,3.66,9.57,3.78ZM42.7,36.36l-.15-.14q-2.84-3-5.68-6.08c-.1-.11-.32-.1-.48-.15a2.85,2.85,0,0,0,.1.45,1.67,1.67,0,0,0,.24.41c1.2,1.55,2.38,3.12,3.64,4.62.48.58.38.92-.08,1.38C39.16,38,38,39.12,37,40.28a3,3,0,0,0-.39.88,2.65,2.65,0,0,0,.88-.28c1.72-1.38,3.41-2.8,5.11-4.21C42.63,36.61,42.65,36.48,42.7,36.36Zm-6,13.09c0,.2-.08.31,0,.38a3.94,3.94,0,0,0,.44.75c1.15,1.4,2.28,2.81,3.48,4.16.52.58.45.93-.05,1.46-1.19,1.29-2.32,2.64-3.45,4-.1.12-.1.32-.14.48a1.48,1.48,0,0,0,.39-.17q2.7-2.3,5.38-4.62a.49.49,0,0,0,0-.48Q40,52.59,37.29,49.83A4,4,0,0,0,36.7,49.45Zm6-9.06a1.52,1.52,0,0,0-.27.1c-1.19.9-2.39,1.79-3.56,2.72-.58.47-1.07,1.06-1.66,1.51s-.53.76-.11,1.19.66.55,1,.85c1.46,1.49,2.9,3,4.35,4.48a4,4,0,0,0,.47.36,2.27,2.27,0,0,0,0-.68,2.48,2.48,0,0,0-.42-.59c-1.13-1.48-2.26-3-3.41-4.42-.27-.34-.29-.53,0-.87,1-1.11,2-2.25,3-3.39a8.46,8.46,0,0,0,.67-.8C42.81,40.75,42.74,40.56,42.73,40.38Zm-2-23.85c-.15.19-.28.38-.45.55-1.09,1.12-2.2,2.23-3.27,3.37a4.61,4.61,0,0,0-.54.92l1-.29A.43.43,0,0,0,37.6,21c1.52-1.21,3-2.42,4.58-3.62.42-.32.36-.62.06-.94q-2.65-2.94-5.32-5.87c-.14-.15-.4-.18-.6-.27a2.35,2.35,0,0,0,.22.57c1.21,1.66,2.43,3.3,3.65,5ZM43.45,89a.68.68,0,0,0-.06-.17,44.77,44.77,0,0,0-3-3.69c-1.07-1.09-1.17-1.46-.18-2.6S42.1,80.24,43,79.07c.1-.14.09-.36.13-.55a1.69,1.69,0,0,0-.48.21l-5.11,4.61c-.32.29-.31.46,0,.76.8.72,1.53,1.52,2.32,2.26,1,.9,2,1.78,2.95,2.66a1.15,1.15,0,0,0,.5.17S43.41,89.07,43.45,89ZM42.9,31.93a2,2,0,0,0-.15-.3c-1-1.41-2-2.84-3.09-4.23-1.24-1.66-1.22-1.61.28-3,.89-.86,1.66-1.84,2.47-2.78a1.47,1.47,0,0,0,.17-.5,3.75,3.75,0,0,0-.58.08,1.12,1.12,0,0,0-.33.23c-1.56,1.23-3.1,2.47-4.67,3.69-.44.35-.47.6-.06,1,1.16,1.21,2.26,2.48,3.39,3.72.66.72,1.33,1.42,2,2.12a.8.8,0,0,0,.41.16S42.85,32,42.9,31.93Zm.18,38.63c0-.08.12-.16.11-.21a1.17,1.17,0,0,0-.16-.47c-1.21-1.59-2.41-3.18-3.66-4.74-.29-.37-.34-.54,0-.92,1.16-1.28,2.26-2.62,3.36-4a2.29,2.29,0,0,0,.26-.7,2.34,2.34,0,0,0-.61.28c-1.68,1.48-3.35,3-5,4.48a.64.64,0,0,0,.07.61c1.77,1.79,3.56,3.56,5.34,5.34Zm.52,37.21a14.46,14.46,0,0,0-.83-1.24c-1-1.17-2-2.34-3-3.46-.41-.44-.36-.67,0-1.11,1.13-1.34,2.2-2.72,3.27-4.1a2,2,0,0,0,.2-.63,1.87,1.87,0,0,0-.56.25q-2.57,2.47-5.1,5a.41.41,0,0,0,0,.41c1,.9,1.9,1.81,2.89,2.67.81.71,1.66,1.38,2.5,2A2.63,2.63,0,0,0,43.6,107.76Zm-6.05,9.56a3.54,3.54,0,0,0,.55-.36c1.3-1.26,2.59-2.52,3.87-3.81.45-.46,1.2-1,1.16-1.47s-.81-1-1.26-1.48a2.83,2.83,0,0,0-.29-.29c-1.28-1-2.55-2.07-3.84-3.09a1.47,1.47,0,0,0-.51-.15,1.9,1.9,0,0,0,.23.53q1.72,1.94,3.47,3.85c.42.45.85.86.09,1.39a2.91,2.91,0,0,0-.51.62l-3,3.82a1,1,0,0,0-.15.32S37.48,117.29,37.54,117.33Zm3.84-23.85-1.06,1.27c-1,1.16-1.92,2.32-2.86,3.49-.1.12-.09.33-.13.5a1.41,1.41,0,0,0,.48-.19C39.44,97,41,95.4,42.68,93.85c.4-.38.37-.6,0-1-.81-.76-1.53-1.61-2.35-2.36S38.48,89,37.54,88.21c-.12-.09-.32-.08-.48-.12a1.59,1.59,0,0,0,.18.41l3.7,4.4C41.08,93.08,41.22,93.27,41.38,93.48Zm-4-13.63a4.55,4.55,0,0,0,.54-.36c1.26-1.14,2.54-2.26,3.77-3.43s1.39-1.37.08-2.74-2.74-2.67-4.14-4c-.15-.14-.42-.15-.64-.22a2.8,2.8,0,0,0,.27.54c1,1.29,2,2.58,3.1,3.83s1,1.13-.07,2.32-2,2.35-3,3.53a1.16,1.16,0,0,0-.16.41Zm.49,64.62-.39.08a1.36,1.36,0,0,0,.18.34c1.16,1.18,2.35,2.34,3.49,3.54.24.25.85.39.39,1-1.15,1.53-2.25,3.1-3.35,4.66a3,3,0,0,0-.27.69,2.41,2.41,0,0,0,.68-.34c.51-.51,1-1.06,1.46-1.61,1.06-1.24,2.12-2.48,3.15-3.74a.64.64,0,0,0,0-.63q-1.85-1.51-3.75-3C39,145.11,38.42,144.8,37.91,144.46ZM43.43,126c.07-.11.19-.22.17-.29a1.56,1.56,0,0,0-.28-.57c-1-1.17-2-2.39-3.15-3.47-.66-.63-.57-1-.05-1.61,1.09-1.33,2.09-2.74,3.12-4.13a1.42,1.42,0,0,0,.13-.49c-.17.06-.34.12-.49.2a1,1,0,0,0-.25.21L38,120.58c-.32.33-.39.57,0,.92,1.25,1.07,2.46,2.19,3.7,3.26C42.28,125.19,42.83,125.57,43.43,126Zm-.09,4.15a1.3,1.3,0,0,0-.18-.28c-1.65-1.44-3.3-2.88-5-4.29-.13-.11-.38-.08-.58-.12a1.72,1.72,0,0,0,.2.5c1.09,1.27,2.15,2.57,3.31,3.77.52.54.47.83,0,1.38-1.19,1.43-2.3,2.93-3.43,4.41a1.67,1.67,0,0,0-.17.48c.16-.05.37-.06.48-.16q2.53-2.63,5-5.28A3.34,3.34,0,0,0,43.34,130.17Zm-29.5-5.1-.29.08.64,1.11c.36-.23.73-.43,1.06-.69.16-.13.23-.36.35-.54a2.31,2.31,0,0,1,.26-.27c0,.14.13.29.11.42-.16.87-.37,1.72-.52,2.59a2.73,2.73,0,0,0,.1.8,7.63,7.63,0,0,0,.7-.65,1,1,0,0,0,.12-.47c.31-1.7.63-3.39.93-5.09a2,2,0,0,0,0-.53c-.2,0-.44,0-.58.14a1.6,1.6,0,0,0-.4.58c-.44.93-.85,1.87-1.3,2.79-.09.18-.34.28-.51.41a2,2,0,0,1-.1-.6c.15-.93.34-1.86.48-2.8a2.85,2.85,0,0,0-.09-.76c-.31.24-.85.46-.89.74A21.62,21.62,0,0,0,13.84,125.06Zm38.39-1.78a3,3,0,0,0,0,.73c.27,1,.54,2.06.88,3.07.06.17.43.24.66.35a2.11,2.11,0,0,0,.29-.69c0-1.4,0-2.81,0-4.21a1.71,1.71,0,0,0,0-.29,2.29,2.29,0,0,0-.34.16c-.27.18-.51.39-.79.54-.07,0-.35-.11-.35-.15.17-1.82.27-3.67,1.39-5.24a1.26,1.26,0,0,0,.11-.41c-.13.07-.3.1-.38.21a3.23,3.23,0,0,0-.37.63A12.34,12.34,0,0,0,52.23,123.28Zm-3.07-43.6c-.1.81.25,1.06,1,.9.36-.08.72-.15,1.07-.25.72-.19,1.42.17,1.23.68s-.49.82-.81.89a5.06,5.06,0,0,1-1.51-.22c-.28,0-.77-.11-.82,0a3,3,0,0,0-.16,1.09c0,.06.17.13.26.2.15-.76.55-.13.79-.1a2.75,2.75,0,0,0,2-.39s.14,0,.15,0c.31.65.28,0,.29-.09.06-.61.09-1.22.14-1.83.08-.91,0-1-.93-.91a5.34,5.34,0,0,1-1.64-.26,3.79,3.79,0,0,1-.83-.45ZM28,115.09l.58-.12a2,2,0,0,0-.14-.43,2.3,2.3,0,0,0-.43-.59c-.59-.51-.44-.93.09-1.36a2.11,2.11,0,0,0,.35-.51,2.22,2.22,0,0,0-.77,0c-.21.07-.35.31-.52.49s-.45.41-.49-.15a.57.57,0,0,0-.43-.38.59.59,0,0,0-.4.42,12,12,0,0,0,.06,1.94c0,.24.29.44.44.67.13-.21.28-.41.39-.63a2.61,2.61,0,0,0,.15-.42,2.49,2.49,0,0,1,.37.27C27.49,114.56,27.75,114.86,28,115.09Zm-9.62-2c0-.16,0-.2,0-.21-.22-.32-.38-.84-.66-.92a7.81,7.81,0,0,0-1.88-.12s-.11.13-.11.2c.05.82.11,1.65.19,2.47a.42.42,0,0,0,.32.26.68.68,0,0,0,.38-.28,2.16,2.16,0,0,0,.21-.45,4.27,4.27,0,0,1,.42.34c.13.13.2.35.35.43a1.8,1.8,0,0,0,.62.06,2.11,2.11,0,0,1-.14-.47,2.16,2.16,0,0,1,0-.68A3.88,3.88,0,0,1,18.33,113.09Zm-5.65-1.72c-.2.21-.55.41-.56.63a11.08,11.08,0,0,0,.18,1.91c0,.21.18.57.27.57a3.78,3.78,0,0,0,1.76-.19c.63-.36.57-1.14.3-1.76A2.11,2.11,0,0,0,12.68,111.37ZM9.4,8.64A1.56,1.56,0,0,0,7.71,9.89a4.76,4.76,0,0,1-.38.78,3.59,3.59,0,0,0-.14.5c.15,0,.32.13.45.09a5.54,5.54,0,0,0,1.8-.63,2.24,2.24,0,0,0,.66-1.42C10.13,9,9.54,8.74,9.4,8.64ZM51.83,73.46c.27-.19.61-.32.78-.57.34-.52-.24-.42-.45-.57-.06,0-.06-.17-.11-.19s-.27-.08-.33,0a3.93,3.93,0,0,1-2.11.36c-.08-.05-.11-.18-.16-.27l-.14-.25c0,.11-.15.23-.13.32a4.66,4.66,0,0,0,.32,1c.61-.12.53.51.83.69,0,0,.25-.07.25-.11C50.61,72.84,51.3,73.39,51.83,73.46Zm-38.7,34.89h0a2.76,2.76,0,0,0,0,.57,5.41,5.41,0,0,0,.24.68c.09-.2.19-.4.28-.61a1.5,1.5,0,0,0,.06-.3,2.62,2.62,0,0,1,.25.17l.89.8c0-.42.05-.83.07-1.25a1.3,1.3,0,0,0,0-.48,1.72,1.72,0,0,0-.29-.4,2.44,2.44,0,0,0-.23.37,3.73,3.73,0,0,0-.13.48c-.11-.11-.21-.23-.33-.33l-.7-.58-.09.8A.73.73,0,0,0,13.13,108.35ZM38.27,35.93a1.06,1.06,0,0,0-1.12-1.11c-.68,0-.78.55-.77,1s.26,1,.92,1S38.32,36.62,38.27,35.93ZM7.6,113l-.08,0a1.7,1.7,0,0,0,0-.56,1,1,0,0,0-.36-.42c-.08-.06-.25,0-.37,0a2.21,2.21,0,0,1,.16.51,1.19,1.19,0,0,1-.13.41c-.14-.11-.37-.21-.39-.34a3.91,3.91,0,0,1,0-1.08s.33-.07.51-.09a3.71,3.71,0,0,1,.39,0c0-.12,0-.3,0-.36s-.45-.43-.7-.45-.48.27-.55.48a2.17,2.17,0,0,0,.35,2.28c.2.23.66.25,1,.3A3.37,3.37,0,0,0,7.6,113ZM51.38,75.71a1.55,1.55,0,0,1,.33,0c.54.12.59-.33.77-.64a3.76,3.76,0,0,0-.66-.27c-.72-.15-1.6.28-2.1-.62-.16.1-.42.17-.45.3a2.26,2.26,0,0,0,0,.85,2.36,2.36,0,0,0,.23.53l.4-.44c.08-.08.17-.15.26-.23C50.26,76.1,51,75.52,51.38,75.71ZM4,110.83c.1.76.16,1.32.25,1.87,0,0,.21.12.24.09.25-.23.23-.23.39.08a2,2,0,0,0,.29.34c0-.06.12-.11.12-.17,0-.68,0-1.36,0-2a.8.8,0,0,0-.88-.85C4.24,110.17,4.12,110.68,4,110.83Zm33.8-56.48c-.89,0-1.08.42-1.13.92s.55,1.27.92,1.09a1.64,1.64,0,0,0,.87-.95A.88.88,0,0,0,37.85,54.35Zm.26,56.85a.88.88,0,0,0-1,.94c0,.43.22,1,.86.91s1-.31,1-1A.77.77,0,0,0,38.11,111.19Zm-.84-94.14c.6,0,.85-.25.86-.81A1.13,1.13,0,0,0,37,15.09c-.58,0-.77.44-.79.93A.92.92,0,0,0,37.27,17.05Zm2.28,113.67c-.5-.36-.77-.7-1.12-.78s-1.22.56-1.08,1,.7,1,.89.92C38.67,131.75,39,131.26,39.54,130.73ZM51,26.15c0,.09-.12.17-.13.25a5.9,5.9,0,0,0,0,1.05c0,.11.29.3.36.27.54-.25.55.12.66.47,0,.15.29.25.44.37.09-.14.24-.28.26-.43.07-.53.42-1.11-.36-1.48-.18-.08-.06-.67-.59-.38-.11.06-.47.81-.55-.05C51.16,26.21,51.12,26.2,51,26.15ZM20.29,113.52h0a9.75,9.75,0,0,0,0-1.21.54.54,0,0,0-.36-.38c-.13,0-.4.2-.4.32,0,.78,0,1.57.06,2.35,0,.13.26.24.39.36.12-.16.32-.3.35-.47A5.42,5.42,0,0,0,20.29,113.52ZM38.85,74.6c-.11-.45-.32-1-.94-.88a1.4,1.4,0,0,0-.85,1,.78.78,0,0,0,.86.92A.91.91,0,0,0,38.85,74.6ZM42.78,26.2c.14-.75-.52-.8-1-.85s-.71.38-.71.87.23,1.17.84,1.18S42.84,26.87,42.78,26.2ZM9.11,114.13c.09-.1.17-.14.19-.2.24-.81.47-1.62.68-2.44,0-.07-.24-.29-.27-.27a2,2,0,0,0-.45.38A2.74,2.74,0,0,0,9,112l-.23-.41c-.05-.09-.07-.22-.15-.28a4.21,4.21,0,0,0-.48-.31,2,2,0,0,0,0,.48c.21.79.42,1.57.66,2.35C8.85,113.9,9,114,9.11,114.13ZM39,93.82c-.21-.71-.36-1.17-1-1.15a.87.87,0,0,0-.91.93c0,.53.24,1,.84.92C38.3,94.45,38.63,94.07,39,93.82ZM43.3,45.94c-.54-.52-.84-1.07-1.25-1.15s-.76.43-.72.94.12,1.12.8,1C42.47,46.74,42.77,46.34,43.3,45.94ZM39.47,149.4c-.3-.21-.58-.56-.91-.61a.86.86,0,0,0-.94,1,1.11,1.11,0,0,0,.66.72C38.82,150.65,39.37,150.08,39.47,149.4Zm4.16-65.64c-.52-.45-.81-.89-1.14-.93a.75.75,0,0,0-.78,1c.06.32.49.81.74.81S43.1,84.17,43.63,83.76Zm.11,36.75c-.32-.28-.62-.76-1-.81a.76.76,0,0,0-.79,1c.06.31.4.79.64.8A1,1,0,0,0,43.74,120.51ZM11.26,107.17a1.92,1.92,0,0,0-.3.39c-.11.33-.19.67-.29,1-.22.7-.22.68.48.56.18,0,.38.12.58.19l.39.15a1.52,1.52,0,0,0,0-.44c-.14-.46-.3-.92-.48-1.36A2.73,2.73,0,0,0,11.26,107.17Zm30.18-4.78c.5.43.76.85,1.06.88a.77.77,0,0,0,.86-.92c-.06-.33-.5-.89-.69-.85C42.31,101.55,42,102,41.45,102.39Zm1.68-37.48c0-.57-.12-1-.73-1.05s-.82.41-.81,1,.18.9.77.91S43.19,65.45,43.12,64.91ZM8.54,108c0,.24-.09.55,0,.71a1.46,1.46,0,0,0,.71.44c.12,0,.3-.11.45-.18l-.53-.35L9,108.55a2.41,2.41,0,0,1,.21-.16l.36-.21-.28-.23-.31-.2c.12-.05.25-.1.37-.16s.22-.15.34-.23c-.11-.09-.21-.23-.34-.27C8.64,106.83,8.51,107,8.54,108Zm35.06,31c-.26-.27-.52-.77-.79-.78-.58,0-.87.45-.88,1s.1.87.64.8A1,1,0,0,0,43.61,139.07Zm9.32-1.67H53c0-.35,0-.7,0-1.05,0-.1-.1-.2-.16-.3,0,.09-.13.18-.13.26.06,1.2.12,2.41.23,3.6a1.58,1.58,0,0,0,.42.77.47.47,0,0,0,.47,0,1.5,1.5,0,0,0,.28-.55S54,140,54,140c-.58.35-.59-.19-.66-.47C53.14,138.83,53,138.11,52.93,137.39Zm1.22-6.52-.1-.7c-.1.12-.17.28-.29.36s-.44.17-.65.27-.34.16-.33.24c0,.43.06.87.1,1.3a5,5,0,0,0,.83-.66A3.83,3.83,0,0,0,54.15,130.88ZM41.34,8.15a4.34,4.34,0,0,0,.42-.37c-.31-.43-.66-.84-1-1.25-.2.17-.55.32-.56.5C40.16,7.66,40.59,8,41.34,8.15Zm12.93,112.5-.17-.09c0-.11,0-.21,0-.32s0-.3-.05-.45a3,3,0,0,0-.45.27,2.46,2.46,0,0,0-.36,1.92.38.38,0,0,0,.34,0C53.83,121.54,54,121.09,54.27,120.64ZM22,135.49c.4.33.67.69.8.64.32-.11.75-.38.8-.65.11-.53-.34-.77-.82-.68C22.58,134.85,22.4,135.14,22,135.49ZM12.66,134c-.35-.11-.69-.22-1-.31a3.51,3.51,0,0,0-.55-.05l.28,1.18a.68.68,0,0,1,1,.22c0-.07.06-.15.08-.22ZM3.17,111h0c0,.43,0,.86,0,1.28,0,.08.16.15.25.22s.07,0,.11-.07c-.67-.5.68-1.3-.26-1.76a1.86,1.86,0,0,0,.27-.28c.08-.13.21-.32.17-.41s-.27-.22-.42-.32a2,2,0,0,0-.14.45C3.15,110.43,3.17,110.72,3.17,111ZM51.44,86c-.31-.1-.46-.21-.58-.19-.44.1-.84.23-1-.4,0-.06-.38,0-.58,0a2.44,2.44,0,0,0,.07.53,2.52,2.52,0,0,0,.28.47l.19.29c0-.09.07-.19.11-.28s.13-.23.19-.34c0,.11.07.27.15.32s.4.26.57.23S51.14,86.36,51.44,86Zm-32.54,49c0,.64,0,.63.48.51.07,0,.17.08.26.11l.48.19v-1.12a1.53,1.53,0,0,1-.36.26.45.45,0,0,1-.31-.08c-.17-.1-.32-.22-.48-.33Zm32.7-49.18c-.05.37-.06.85.67.7.38-.08.86-.14.74-.73,0-.19-.06-.63-.49-.23s-.61.3-.58-.28c0-.09-.09-.19-.15-.28-.07.09-.18.18-.21.29A2.18,2.18,0,0,0,51.59,85.89ZM21.15,134.62c-.14.1-.41.21-.41.31A2.75,2.75,0,0,0,21,136c.05.11.49,0,.76,0-.13-.11-.26-.21-.38-.32s.07-.11.1-.18l.3-.73Zm-3.91.34c.08.59.16,1,.74.9.8-.14-.17-.83.3-1.09-.16-.1-.37-.31-.49-.27S17.42,134.8,17.24,135Zm-2.31-1c-.29.24-.49.33-.49.42a3.19,3.19,0,0,0,.13,1.08c0,.11.44.1.67.12,0,0,.06-.12.09-.19-.68-.13,0-.5-.13-.74S15.06,134.25,14.94,133.93ZM50.4,21.15c0,.55.08,1.08.73,1.15.1,0,.28-.6.4-.93,0-.07-.06-.18-.1-.28l-.16.31-.23.44a1.65,1.65,0,0,1-.27-.52,2.15,2.15,0,0,1,.1-.7,3.52,3.52,0,0,1,.17-.46c-.18.12-.42.2-.53.36A1.65,1.65,0,0,0,50.4,21.15ZM14.06,134.51c-.23-.24-.36-.47-.53-.52-.42-.12-.47.17-.46.51s-.08.88.53.87C14.44,135.36,13.52,134.77,14.06,134.51Zm7.74-15.46c.12-.09.3-.2.29-.23-.17-.36-.36-.71-.54-1.06l-.59,1Zm30.79,23.59.3.66a1.67,1.67,0,0,0,.37-.27,6.85,6.85,0,0,0,.63-.93,2.79,2.79,0,0,0,.17-.67l-.48.41ZM49.49,19.44l-.27-.21a1.89,1.89,0,0,0-.28.66,5.07,5.07,0,0,0,.18,1.44c0,.15.45.19.68.29a3.34,3.34,0,0,0-.32-.47c-.5-.52-.43-1,.19-1.21.09,0,.14-.17.2-.26Zm-35.07,99c.09.07.22.23.29.21s.47-.25.46-.29c-.13-.36-.37-1-.5-1C13.8,117.46,14.73,118,14.43,118.42ZM20,119l.36-.11c-.05,0-.1-.12-.15-.13-.38,0-.67-.06-.13-.39-.26-.22-.63-.46.07-.56,0,0-.13-.14-.14-.13-.21.12-.57.25-.58.4C19.35,118.44,19.17,119,20,119Zm31.8-97.11.69.87a3.73,3.73,0,0,0,.21-.55,1,1,0,0,0-.54-1.11ZM18.4,109.11l1.35-.26-1.39-.3a1.51,1.51,0,0,0-.55-.07.48.48,0,0,0-.29.3c0,.07.12.25.22.28A3.13,3.13,0,0,0,18.4,109.11ZM5.08,107.38a10.71,10.71,0,0,0,.47,1.07.43.43,0,0,0,.41.1c.11,0,.16-.24.24-.37-.13,0-.32,0-.37-.09a6.18,6.18,0,0,1-.36-.77c.16-.07.32-.15.48-.2a.82.82,0,0,1,.24,0c0-.08,0-.19,0-.23s-.37-.26-.56-.39ZM54.2,132.53l-.11-.23c-.11.07-.28.13-.31.23-.31.89-.61,1.78-.89,2.68,0,.08.06.19.1.28a1.15,1.15,0,0,0,.19-.28c.2-.67.37-1.36.59-2A3,3,0,0,1,54.2,132.53ZM10.74,118.17l.39-.12L10.7,117a2.27,2.27,0,0,0-.37.73C10.31,117.83,10.59,118,10.74,118.17Zm11.87.14.13.67a1.33,1.33,0,0,0,.32-.26c.08-.12.61-.22.06-.45a.76.76,0,0,1,.12-.3.93.93,0,0,1,.32-.13c-.12,0-.28-.11-.35-.07A6.49,6.49,0,0,0,22.61,118.31ZM7.07,106.74c-.1.07-.18.1-.17.13A17.85,17.85,0,0,0,7,108.76c0,.08.47.1.72.15,0-.11.07-.33.06-.33-.89-.24-.49-1-.59-1.51A2.41,2.41,0,0,0,7.07,106.74Zm9,10.53-.39,1.14c.28.08.57.17.85.24,0,0,.14-.14.13-.17C16.55,118.13,16.37,117.8,16.11,117.27Zm-5.93,17-.2.14c.14.11.28.3.42.3s.31-.2.34-.34a1.16,1.16,0,0,0-.06-.69c-.07-.15-.31-.22-.48-.33a2.09,2.09,0,0,0-.17.52C10,134,10.12,134.14,10.18,134.27Zm2.62-16.8c0,.22,0,.36,0,.43a2.44,2.44,0,0,0,.48.58c.06,0,.36-.07.39-.16a4.29,4.29,0,0,0,.11-.86s-.06-.06-.1-.09l-.08.2-.27.65-.35-.71a2.68,2.68,0,0,1-.1-.27ZM8.07,117l.28-.21-.1-.28c-.11.05-.3.1-.3.16a2.45,2.45,0,0,0,.07.84c.05.15.28.25.42.37a1.76,1.76,0,0,0,.08-.65C8.5,117.17,8.23,117.12,8.07,117Zm8.21,17.15c-.17.13-.42.26-.4.31.13.4.31.79.47,1.17a8.17,8.17,0,0,0,.46-1.09C16.83,134.52,16.5,134.36,16.28,134.19ZM9.95,117.38l-.19-.45c0,.07,0,.14-.06.2l-.24.59-.26-.61-.08-.21S9,117,9,117a4.62,4.62,0,0,0,.19.84.45.45,0,0,0,.39.11A3,3,0,0,0,9.95,117.38ZM53,144.59,54.14,143a.2.2,0,0,0,0-.14c-.07,0-.16,0-.2,0-.38.38-.76.76-1.12,1.15a.42.42,0,0,0,0,.3C52.76,144.41,52.86,144.45,53,144.59ZM12.21,117.31l-.66-.2s-.13,0-.13,0c.13.36.27.72.41,1.08ZM5.43,132.63l.17-.12a1.75,1.75,0,0,0,.18.42,2.74,2.74,0,0,0,.4.36,1.62,1.62,0,0,0,.11-.4c0-.63-.28-.82-.86-.56a3.07,3.07,0,0,0-.33.21ZM2.86,111.24l-.29-1.32H2.52c.06.52.11,1,.18,1.56a1.69,1.69,0,0,0,.16.39Zm15.07,6.89h0c0,.16-.06.37,0,.47a1.05,1.05,0,0,0,.48.28c.09,0,.21,0,.31,0-.13-.07-.3-.11-.38-.21a2,2,0,0,1-.21-.5l-.18-.45ZM6.79,116.59l.12-.08-.19-.32a3.16,3.16,0,0,0-.13.4.57.57,0,0,0,0,.32,5.42,5.42,0,0,0,.31.54c0-.19,0-.38,0-.56A1.44,1.44,0,0,0,6.79,116.59Zm-.67.07,0-.24c-.15,0-.39-.12-.42-.06-.38.56.28.47.45.69Zm2.27,16.75.22.78.24-.59a.51.51,0,0,0,0-.07l.1-.44a1.3,1.3,0,0,0-.25.09C8.6,133.25,8.49,133.34,8.39,133.41Zm-.79-.77a1.22,1.22,0,0,0-.1.32,7.41,7.41,0,0,0,.14,1c0,.05.27,0,.42.06a1.15,1.15,0,0,1-.17-.28c-.06-.25-.1-.5-.15-.76A2.49,2.49,0,0,0,7.61,132.63ZM5.8,21.48c.2-.51.34-.83.45-1.15,0,0-.05-.11-.08-.16-.12.32-.25.63-.37,1A1.9,1.9,0,0,0,5.8,21.48ZM53.08,72.75s0,0,0,0H53l0,.09Z" transform="translate(-0.32 -0.14)"/><path class="cls-2" d="M54.21,105.49q0-3.76,0-7.53c0-.32,0-.64-.07-1l0-4.67h.17V105.5Z" transform="translate(-0.32 -0.14)"/><path class="cls-3" d="M54.33,136.56c-.21.29-.52.56-.59.88s-.42.77.29.79a.51.51,0,0,1,.06.36,3,3,0,0,1-.37.5c-.07-.12-.19-.25-.19-.37q0-1.95,0-3.89a1,1,0,0,1,.2-.51,2.1,2.1,0,0,1,.38-.35c0,.18,0,.35-.08.53s-.13.12-.14.19c-.06.36-.09.73-.16,1.09-.16.86.59-.2.6.29Z" transform="translate(-0.32 -0.14)"/><path class="cls-4" d="M54.21,105.49h.12v7.32l-.23-1.37,0-.86v-4.23Z" transform="translate(-0.32 -0.14)"/><path class="cls-3" d="M52.88,149.89A19.1,19.1,0,0,1,43,157.61a38,38,0,0,1-10.17,2.15,52.09,52.09,0,0,1-20.09-2.26A19.62,19.62,0,0,1,8,155.17a8.76,8.76,0,0,1-1.79-2.32c.52.2,1,.65,1.62.38.1,0,.31.17.47.25A21.6,21.6,0,0,0,11,154.82a15.46,15.46,0,0,0,2.73.56c2.35.39,4.71.76,7.07,1.11a13.32,13.32,0,0,0,1.52,0c.88,0,1.76.09,2.64.11a52.37,52.37,0,0,0,9.18-.61c1.51-.23,3.05-.29,4.58-.44.17,0,.31-.18.48-.26s.57-.36.8-.31c.9.21,1.4-.36,1.94-.89s.91-.93,1.38-1.38a1.68,1.68,0,0,1,.4-.22,2.6,2.6,0,0,1,0,.51c0,.25-.11.49-.17.74a3.93,3.93,0,0,0,.92-.1,28.55,28.55,0,0,0,2.77-1.09c.93-.45,1.79-1.06,2.72-1.5S51.9,150.28,52.88,149.89Z" transform="translate(-0.32 -0.14)"/><path class="cls-3" d="M15.28,65.18c0,1.71,0,1.67-1.68,1.73q-4.67.18-9.33.46c-.52,0-.58-.14-.62-.56a5.39,5.39,0,0,1,1.13-4.18c1.34-1.63,2.64-3.28,4-4.93.11-.14.2-.29.29-.44a2.12,2.12,0,0,0-.46-.06c-1.5.14-3,.26-4.5.46-.55.07-.73,0-.72-.58,0-.73-.07-1.46,0-2.19a.82.82,0,0,1,.5-.6q3.7-.52,7.42-.95c1-.12,2.05-.11,3.07-.19.45,0,.54.12.63.57C15.4,56,13.78,57,12.46,58.26c-1.71,1.64-3.35,3.36-5,5.05a1.68,1.68,0,0,0-.2.33,1.78,1.78,0,0,0,.43.09c2.22-.1,4.44-.19,6.65-.34.74-.05,1.06.13,1,.9A6.9,6.9,0,0,0,15.28,65.18Z" transform="translate(-0.32 -0.14)"/><path class="cls-3" d="M14.35,34.85c.55,1.31-.21,2-1.44,2.5-.5.2-.92.57-1.42.77s-.37.42-.18.72a6.11,6.11,0,0,0,.5.82,2.4,2.4,0,0,1,.13,3c-.82,1.56-.74,1.59.91,2.13.59.19,1.36.24,1.7.64s.14,1.14.18,1.73c.15,1.9.15,1.89-1.62,1.27-2.67-.93-5.34-1.84-8-2.78a9,9,0,0,1-1.67-.81c-.21-.13-.3-.45-.44-.69,0,0,0-.11,0-.16-.61-2.53,1-4,2.62-5.46A41.72,41.72,0,0,1,13.8,33c.44-.23.58-.12.56.35S14.35,34.25,14.35,34.85Zm-5.6,5L8.54,40c-.84.58-1.68,1.15-2.5,1.74a5.27,5.27,0,0,0-.61.61c.28.13.55.28.84.39s.66.23,1,.35c1.6.58,1.6.58,2.22-1A2.72,2.72,0,0,0,9,39.93,1,1,0,0,0,8.75,39.83Z" transform="translate(-0.32 -0.14)"/><path class="cls-3" d="M7.73,71.68a27.67,27.67,0,0,1,3.65,0,4.77,4.77,0,0,1,4.09,3.88,9.51,9.51,0,0,1-.25,6,4.38,4.38,0,0,1-4.34,2.84c-2,0-4.06-.1-6.09-.15-.55,0-.74-.23-.71-.78a17.25,17.25,0,0,0,0-2.11c0-.48.13-.57.6-.56,1.84.05,3.68.06,5.52.07a2.3,2.3,0,0,0,2.47-1.33,3.58,3.58,0,0,0-.34-3.55c-.66-.87-1.78-.78-2.74-.82-1.57-.06-3.14,0-4.71,0-.68,0-1.06-.08-1-.9a10,10,0,0,0-.07-1.94c0-.48.15-.61.59-.63C5.51,71.79,6.62,71.73,7.73,71.68Z" transform="translate(-0.32 -0.14)"/><path class="cls-3" d="M13.24,99.78c-2.79-.31-5.58-.62-8.37-1-.21,0-.54-.31-.54-.48q0-3.61.11-7.21a3.46,3.46,0,0,1,.36-1.24c.48-1.09,1.29-1.27,2.4-.83,1,.38,1.3,1.25,1.85,1.94.27.34.42.38.77.2,1.71-.91,3.44-1.79,5.15-2.73.61-.33.74-.17.69.45,0,.4,0,.81,0,1.22,0,1.71-.3,2.1-1.85,2.78a31.8,31.8,0,0,0-2.87,1.49.59.59,0,0,0-.18.53c.47,1.31.48,1.3,1.84,1.33.84,0,1.68.09,2.51.09.46,0,.62.18.62.62,0,.73,0,1.46.06,2.19,0,.54-.19.64-.66.59s-1.24-.07-1.86-.1ZM5.52,94.11h.07c0,.4,0,.81,0,1.21,0,.15.15.39.26.41a13.6,13.6,0,0,0,2,.33c1,.06,1,0,.64-.89a16.08,16.08,0,0,0-.59-1.58A6.93,6.93,0,0,0,6.94,92c-.51-.59-1-.43-1.21.34A15.46,15.46,0,0,0,5.52,94.11Z" transform="translate(-0.32 -0.14)"/><path class="cls-3" d="M40.27,1.58A22.72,22.72,0,0,1,50.44,6.31c-.49.54-.41,1,.17,1.42a1.31,1.31,0,0,1,.47.65,1.19,1.19,0,0,1-.13.71A.86.86,0,0,1,50.41,9,25.8,25.8,0,0,0,42,5.44a1.32,1.32,0,0,1-.31-.09C40.11,4.5,39,5.35,38,6.48a.63.63,0,0,0,.09.6C39,8,40,8.79,40.92,9.7a19.64,19.64,0,0,1,1.63,2,1.42,1.42,0,0,1,.14.51,2.5,2.5,0,0,1-.51-.29c-.89-.82-1.74-1.69-2.66-2.48s-2.1-1.68-3.17-2.5c-.47-.36-.48-.65,0-1s1-.71,1.42-1.08c.09-.07.12-.22.18-.33a2.78,2.78,0,0,0-.31-.06c-2.87-.27-5.75-.73-8.62-.75-3.68,0-7.37.29-11.05.5-.88,0-1.75.25-2.63.37-.13,0-.27-.08-.4-.12a2.8,2.8,0,0,1,.4-.15c.41-.09.82-.19,1.24-.25.68-.09,1.36-.11,2-.22s1.33-.37,2-.42c1.88-.15,3.76-.26,5.64-.32s3.49-.07,5.24,0a31,31,0,0,1,3.36.38c.58.08,1.39-.47,1.37-1,0-.08-.21-.2-.34-.21-.94-.08-1.88-.14-2.83-.2a2.43,2.43,0,0,1-.64,0c-.17-.06-.29-.25-.44-.38a1.55,1.55,0,0,1,.49-.15c2.44.12,4.89.26,7.33.38C40,1.86,40.11,1.68,40.27,1.58ZM39.3,4c.28-.13.7-.3,1.11-.5a4.76,4.76,0,0,0,.51-.33,3.13,3.13,0,0,0-.56-.21,6,6,0,0,1-1.42-.22,2.52,2.52,0,0,0-2.66.49A2.66,2.66,0,0,0,36,3.4c.08.05.16.14.25.15Zm7.18.94.11-.19a3.2,3.2,0,0,0-.3-.12c-1.42-.43-2.83-.88-4.26-1.27-.15,0-.41.27-.6.45s0,.27.1.3c.49.21,1.05.63,1.48.52,1.13-.28,2.1.33,3.15.32Z" transform="translate(-0.32 -0.14)"/><path class="cls-3" d="M54.1,69.79l0,.22c-1.48-.09-3-.2-4.45-.25-.58,0-.57-.35-.57-.75q0-3.86,0-7.72Q49,48.47,48.92,35.64q0-5.55-.1-11.11c0-.48,0-.75.61-.47,1,.48,2,.91,3,1.37a1.83,1.83,0,0,1,.51.39c.08.08.08.23.11.35a1.68,1.68,0,0,1-.31-.1c-.42-.24-.85-.47-1.26-.72s-.7-.11-.67.45,0,1,0,1.54a1.19,1.19,0,0,1-.19.4,1.72,1.72,0,0,1-.28-.35c-.12-.27-.2-.55-.29-.82,0,.3-.06.61-.07.91a.88.88,0,0,0,.73,1c.27.07.48.37.72.57h0c-.41.09-.34.92-1,.65h0c-.05-.09-.12-.26-.16-.25-1,.08-.83-.6-.82-1.18,0-.83.06-1.66.11-2.49a6.66,6.66,0,0,1,.2-.94l.42.82a.77.77,0,0,0,0,.07l.13.19a2,2,0,0,0,0-.24,2.88,2.88,0,0,1,0-.4c.14-.76-.47-.53-.82-.6-.08,0-.33.29-.33.45,0,1.73,0,3.46,0,5.2q0,11.41.11,22.82c0,1.84.05,3.68.08,5.52,0,.81.22,1,.85.67a.28.28,0,0,1,.16,0c.64.12,1.27.23,1.9.36.09,0,.16.13.24.19-.11,0-.22.14-.32.13-.51-.06-1-.16-1.52-.2-.1,0-.24.14-.31.25s0,.2.06.3a3,3,0,0,1,.29-.19,1.14,1.14,0,0,1,.23-.06,3.94,3.94,0,0,1-.06.93c0,.07-.46.12-.64,0-.57-.29-.86-.19-.87.41,0,2.44,0,4.87,0,7.31a.72.72,0,0,0,.49.5C51.33,69.5,52.71,69.64,54.1,69.79Z" transform="translate(-0.32 -0.14)"/><path class="cls-3" d="M54.17,87.62v4.72l0,4.67L50.3,98c-1.18.28-1.32.17-1.32-1,0-1,0-2,0-2.92,0-.2.21-.53.37-.56,1.33-.24,2.66-.45,4-.63.45-.06.59-.27.58-.7,0-1.78-.07-3.57-.1-5.35a.94.94,0,0,0,0-.46c-.36-.55-.3-.76.37-1Z" transform="translate(-0.32 -0.14)"/><path class="cls-3" d="M9.57,3.78c.28-.13.56-.23.83-.38A8.32,8.32,0,0,1,12,2.49c1.46-.4,2.94-.69,4.42-1a2.69,2.69,0,0,1,.87.13c-.21.43-.31,1.09-.64,1.24a14.24,14.24,0,0,1-2.49.62c-3.47.82-6.93,1.69-9.89,3.8a14.68,14.68,0,0,0-2,2.09l-.21.21c0-.1,0-.22,0-.29A23.51,23.51,0,0,1,3.81,6.9a9.06,9.06,0,0,1,2-1.73A6.47,6.47,0,0,1,9.57,3.78Z" transform="translate(-0.32 -0.14)"/><path class="cls-3" d="M12.38,147.78c0,.14,0,.33-.12.42a2.52,2.52,0,0,1-3.63-.37,5.46,5.46,0,0,1-1.29-4.13c.32.05.64.08.95.16,1.42.39,2.85.77,4.26,1.19.5.15.56-.07.5-.46a5,5,0,0,0-2.63-3.95,1.77,1.77,0,0,0-2.68.89,9.61,9.61,0,0,0-.39,2.17c-.08-.06-.21-.11-.25-.2a4,4,0,0,1,1-3,2,2,0,0,1,2.33-.23c2.45,1.07,3.81,4.7,2.59,7-.11.21-.39.33-.59.5l-.06-.35-.35.27-.16.15-1.71.3-.27.07a1.22,1.22,0,0,0,.2.17c.75.39,1.32,0,1.89-.42l.18-.14Zm-3.09.17v-.13l-.09,0,.11.07.23.13,0-.07Zm-1.35-3.25,0,.35a2.7,2.7,0,0,0,.65.5c1.06.38,2.13.71,3.2,1a1,1,0,0,0,.37,0,1.25,1.25,0,0,1-.09-.28c0-.15,0-.31,0-.46a1,1,0,0,0-.07-.38c-.65,0-1.3,0-2,0-.16,0-.42.05-.47,0-.48-.7-.46-.73-1-.82C8.32,144.51,8.12,144.64,7.93,144.69ZM13,146.46l-.11-.21c-.16.3-.32.6-.47.91,0,0,.06.08.1.13Z" transform="translate(-0.32 -0.14)"/><path class="cls-3" d="M11.24,123.23c-.87.34-1.14,1.14-1.47,1.9a4,4,0,0,1-.23.61,7,7,0,0,1-.56.68c0-.28,0-.56,0-.84,0-.1,0-.21,0-.31a1.12,1.12,0,0,0-.3.17c-.2.22-.34.55-.58.66s-.78.23-1,.08a.75.75,0,0,0-1,0c-.51.31-1.06.57-1.6.84,0,0-.2-.13-.2-.22a3.86,3.86,0,0,1,0-1c.19-1.16.4-2.31.63-3.46a1.8,1.8,0,0,1,.29-.5c0,.18,0,.36,0,.54s0,.3.06.44a3,3,0,0,0,.31-.24c.35-.34.82-.71.31-1.21s-.89-.13-1.26.23c-.12.12-.26.22-.39.33,0-.18,0-.41.11-.52a3.48,3.48,0,0,1,1.13-.93,1.09,1.09,0,0,1,1,.42,2,2,0,0,1-.14,1.5c-.37.52-.45.82-.07,1.37a3.5,3.5,0,0,1,.26,1.32c0,.1,0,.2.07.3a1.88,1.88,0,0,0,.12-.27,11.49,11.49,0,0,1,.42-1.55c.19-.44.55-1,1.1-.64s.34.92,0,1.37a4.15,4.15,0,0,1-.72.64c-.12.11-.32.24-.32.37s.13.44.24.46A.61.61,0,0,0,8,125.6c.46-.72.88-1.47,1.31-2.21a4.1,4.1,0,0,1,.28-.55c.09-.11.26-.14.4-.21,0,.12.07.25.09.37s0,.2,0,.3c.08-.07.16-.13.23-.2a4.66,4.66,0,0,1,.8-.78c.19-.11.51,0,.78,0l-.37.51-.2.24h0l-.16.17Zm-6.4,2.34c.07.07.24.39.41.4a.93.93,0,0,0,.68-.4,1.87,1.87,0,0,0-.56-2s-.28.08-.29.14C5,124.28,4.94,124.81,4.85,125.57Z" transform="translate(-0.32 -0.14)"/><path class="cls-3" d="M42.7,36.36c-.06.12-.07.25-.15.31-1.7,1.41-3.39,2.83-5.11,4.21a2.65,2.65,0,0,1-.88.28,3,3,0,0,1,.39-.88c1.08-1.16,2.2-2.3,3.32-3.43.46-.46.56-.81.08-1.38-1.26-1.5-2.43-3.07-3.64-4.62a1.67,1.67,0,0,1-.24-.41,2.85,2.85,0,0,1-.1-.45c.16,0,.38,0,.48.15q2.85,3,5.68,6.08Z" transform="translate(-0.32 -0.14)"/><path class="cls-3" d="M36.7,49.45a4,4,0,0,1,.59.38q2.72,2.76,5.42,5.55a.49.49,0,0,1,0,.48Q40,58.18,37.32,60.48a1.48,1.48,0,0,1-.39.17c0-.16,0-.36.14-.48,1.14-1.34,2.26-2.69,3.45-4,.5-.54.57-.88.05-1.46-1.2-1.35-2.34-2.76-3.48-4.16a3.94,3.94,0,0,1-.44-.75C36.62,49.76,36.67,49.64,36.7,49.45Z" transform="translate(-0.32 -0.14)"/><path class="cls-3" d="M42.73,40.38c0,.18.08.36,0,.46a8.46,8.46,0,0,1-.67.8c-1,1.13-2,2.28-3,3.39-.31.34-.3.52,0,.87,1.16,1.46,2.28,2.94,3.41,4.42a2.48,2.48,0,0,1,.42.59,2.27,2.27,0,0,1,0,.68,4,4,0,0,1-.47-.36c-1.45-1.49-2.89-3-4.35-4.48-.3-.31-.66-.55-1-.85s-.43-.79.11-1.19,1.08-1,1.66-1.51c1.17-.93,2.37-1.82,3.56-2.72A1.52,1.52,0,0,1,42.73,40.38Z" transform="translate(-0.32 -0.14)"/><path class="cls-3" d="M40.69,16.53l-.5-.7c-1.22-1.65-2.44-3.3-3.65-5a2.35,2.35,0,0,1-.22-.57c.2.09.46.12.6.27q2.68,2.92,5.32,5.87c.29.33.35.62-.06.94C40.64,18.58,39.13,19.8,37.6,21a.43.43,0,0,1-.14.08l-1,.29a4.61,4.61,0,0,1,.54-.92c1.07-1.14,2.18-2.24,3.27-3.37C40.41,16.92,40.55,16.72,40.69,16.53Z" transform="translate(-0.32 -0.14)"/><path class="cls-3" d="M43.45,89c0,.06-.09.18-.12.17a1.15,1.15,0,0,1-.5-.17c-1-.87-2-1.75-2.95-2.66-.79-.74-1.52-1.54-2.32-2.26-.33-.3-.34-.47,0-.76l5.11-4.61a1.69,1.69,0,0,1,.48-.21c0,.18,0,.41-.13.55-.91,1.18-1.8,2.36-2.77,3.49s-.88,1.51.18,2.6a44.77,44.77,0,0,1,3,3.69A.68.68,0,0,1,43.45,89Z" transform="translate(-0.32 -0.14)"/><path class="cls-3" d="M42.9,31.93c0,.06-.11.17-.15.17a.8.8,0,0,1-.41-.16c-.68-.7-1.35-1.4-2-2.12-1.13-1.24-2.23-2.51-3.39-3.72-.41-.43-.39-.68.06-1,1.56-1.22,3.11-2.46,4.67-3.69a1.12,1.12,0,0,1,.33-.23,3.75,3.75,0,0,1,.58-.08,1.47,1.47,0,0,1-.17.5c-.81.94-1.57,1.93-2.47,2.78-1.5,1.44-1.52,1.39-.28,3,1,1.4,2.06,2.82,3.09,4.23A2,2,0,0,1,42.9,31.93Z" transform="translate(-0.32 -0.14)"/><path class="cls-3" d="M43.08,70.55l-.28-.3c-1.79-1.77-3.58-3.54-5.34-5.34a.64.64,0,0,1-.07-.61c1.65-1.51,3.32-3,5-4.48a2.34,2.34,0,0,1,.61-.28,2.29,2.29,0,0,1-.26.7c-1.1,1.33-2.21,2.67-3.36,4-.34.38-.3.55,0,.92,1.25,1.56,2.45,3.15,3.66,4.74a1.17,1.17,0,0,1,.16.47C43.2,70.4,43.12,70.47,43.08,70.55Z" transform="translate(-0.32 -0.14)"/><path class="cls-3" d="M43.6,107.76a2.63,2.63,0,0,1-.66-.2c-.84-.67-1.69-1.34-2.5-2-1-.87-1.94-1.77-2.89-2.67a.41.41,0,0,1,0-.41q2.53-2.5,5.1-5a1.87,1.87,0,0,1,.56-.25,2,2,0,0,1-.2.63c-1.07,1.38-2.14,2.77-3.27,4.1-.37.44-.42.67,0,1.11,1,1.12,2,2.3,3,3.46A14.46,14.46,0,0,1,43.6,107.76Z" transform="translate(-0.32 -0.14)"/><path class="cls-3" d="M37.54,117.33c-.07,0-.19-.1-.18-.11a1,1,0,0,1,.15-.32l3-3.82a2.91,2.91,0,0,1,.51-.62c.76-.53.33-.94-.09-1.39q-1.75-1.91-3.47-3.85a1.9,1.9,0,0,1-.23-.53,1.47,1.47,0,0,1,.51.15c1.29,1,2.56,2.06,3.84,3.09a2.83,2.83,0,0,1,.29.29c.45.49,1.21,1,1.26,1.48s-.7,1-1.16,1.47c-1.27,1.29-2.57,2.55-3.87,3.81A3.54,3.54,0,0,1,37.54,117.33Z" transform="translate(-0.32 -0.14)"/><path class="cls-3" d="M41.38,93.48c-.16-.21-.3-.4-.45-.58l-3.7-4.4a1.59,1.59,0,0,1-.18-.41c.16,0,.36,0,.48.12.94.76,1.89,1.51,2.78,2.32s1.54,1.59,2.35,2.36c.38.36.41.59,0,1C41,95.4,39.44,97,37.81,98.55a1.41,1.41,0,0,1-.48.19c0-.17,0-.38.13-.5.94-1.17,1.9-2.33,2.86-3.49Z" transform="translate(-0.32 -0.14)"/><path class="cls-3" d="M37.42,79.85l-.21-.09a1.16,1.16,0,0,1,.16-.41c1-1.18,1.94-2.39,3-3.53s1.07-1.13.07-2.32-2.08-2.55-3.1-3.83a2.8,2.8,0,0,1-.27-.54c.22.07.49.08.64.22,1.4,1.31,2.82,2.59,4.14,4s1.28,1.44-.08,2.74S39.23,78.34,38,79.48A4.55,4.55,0,0,1,37.42,79.85Z" transform="translate(-0.32 -0.14)"/><path class="cls-3" d="M43.33,134.17c-1.15,1.66-2.26,3.35-3.46,5-.33.45-.34.64.07,1,1.12,1.06,2.18,2.18,3.25,3.29a1.74,1.74,0,0,1,.37.53,1.19,1.19,0,0,1,0,.47,1.69,1.69,0,0,1-.38-.17l-5.06-3.9c-.43-.33-.54-.64-.13-1.06,1.33-1.37,2.64-2.76,4-4.13.39-.4.83-.76,1.25-1.14Z" transform="translate(-0.32 -0.14)"/><path class="cls-3" d="M37.91,144.46c.52.34,1.07.65,1.58,1q1.9,1.44,3.75,3a.64.64,0,0,1,0,.63c-1,1.26-2.09,2.5-3.15,3.74-.47.55-.95,1.1-1.46,1.61a2.41,2.41,0,0,1-.68.34,3,3,0,0,1,.27-.69c1.1-1.56,2.21-3.13,3.35-4.66.46-.61-.15-.75-.39-1-1.15-1.2-2.33-2.36-3.49-3.54a1.36,1.36,0,0,1-.18-.34Z" transform="translate(-0.32 -0.14)"/><path class="cls-3" d="M43.43,126c-.59-.45-1.15-.83-1.66-1.27-1.24-1.08-2.45-2.19-3.7-3.26-.41-.35-.34-.59,0-.92l4.56-4.72a1,1,0,0,1,.25-.21c.16-.08.33-.13.49-.2a1.42,1.42,0,0,1-.13.49c-1,1.39-2,2.8-3.12,4.13-.51.63-.61,1,.05,1.61,1.13,1.07,2.11,2.3,3.15,3.47a1.56,1.56,0,0,1,.28.57C43.61,125.8,43.49,125.91,43.43,126Z" transform="translate(-0.32 -0.14)"/><path class="cls-3" d="M43.34,130.17a3.34,3.34,0,0,1-.28.41q-2.51,2.65-5,5.28c-.1.11-.32.11-.48.16a1.67,1.67,0,0,1,.17-.48c1.13-1.48,2.24-3,3.43-4.41.45-.55.5-.84,0-1.38-1.16-1.21-2.22-2.5-3.31-3.77a1.72,1.72,0,0,1-.2-.5c.2,0,.45,0,.58.12,1.67,1.42,3.32,2.86,5,4.29A1.3,1.3,0,0,1,43.34,130.17Z" transform="translate(-0.32 -0.14)"/><path class="cls-3" d="M13.84,125.06a21.62,21.62,0,0,1,0-2.73c0-.28.58-.5.89-.74a2.85,2.85,0,0,1,.09.76c-.14.94-.33,1.86-.48,2.8a2,2,0,0,0,.1.6c.17-.14.42-.23.51-.41.45-.92.86-1.86,1.3-2.79a1.6,1.6,0,0,1,.4-.58c.14-.11.38-.1.58-.14a2,2,0,0,1,0,.53c-.3,1.7-.62,3.39-.93,5.09a1,1,0,0,1-.12.47,7.63,7.63,0,0,1-.7.65,2.73,2.73,0,0,1-.1-.8c.15-.87.35-1.73.52-2.59,0-.13-.07-.28-.11-.42a2.31,2.31,0,0,0-.26.27c-.13.17-.19.41-.35.54-.33.26-.7.46-1.06.69l-.64-1.11Z" transform="translate(-0.32 -0.14)"/><path class="cls-3" d="M6.85,23.39c.06-.75.11-1.51.17-2.26,0-.29.08-.59.12-.88.06.3.12.6.16.91.08.59.16,1.18.23,1.76.32-.49.67-1,.95-1.47a2.6,2.6,0,0,0,.14-.81l.1-.08a2.09,2.09,0,0,1,.91,1.88.77.77,0,0,1-.1.18c-.06-.07-.16-.14-.18-.22-.12-.37-.22-.74-.32-1.12-.26.32-.53.64-.78,1-1.29,1.67-.85,3.53-.58,5.36h0c-.06,1.16-.11,2.31-.14,3.47,0,0,.43.15.46.1A6.24,6.24,0,0,0,9.1,29.42a39.63,39.63,0,0,0,.84-4.27,3.63,3.63,0,0,0-.19-1.07,1.4,1.4,0,0,1,0-.34c.13.08.31.14.36.25a1.52,1.52,0,0,1,.1.55,10.17,10.17,0,0,1-1.79,6.53c-.73,1.1-1.53,1.15-2.21,0a18.72,18.72,0,0,1-1.25-3c0-.08,0-.19,0-.29a.93.93,0,0,1,.15.25,5.05,5.05,0,0,0,1.79,3.34,2,2,0,0,0,.33.15.84.84,0,0,0,.08-.3c-.16-1.24-.33-2.48-.49-3.72h0c.1-.18.28-.36.28-.54,0-.81-.06-1.62-.12-2.43,0-.42-.1-.85-.15-1.27Z" transform="translate(-0.32 -0.14)"/><path class="cls-3" d="M52.23,123.28a12.34,12.34,0,0,1,1.1-5.33,3.23,3.23,0,0,1,.37-.63c.08-.1.25-.14.38-.21a1.26,1.26,0,0,1-.11.41c-1.11,1.58-1.22,3.42-1.39,5.24,0,0,.27.19.35.15.28-.15.53-.36.79-.54a2.29,2.29,0,0,1,.34-.16,1.71,1.71,0,0,1,0,.29c0,1.4,0,2.81,0,4.21a2.11,2.11,0,0,1-.29.69c-.23-.11-.6-.18-.66-.35-.34-1-.61-2-.88-3.07A3,3,0,0,1,52.23,123.28Z" transform="translate(-0.32 -0.14)"/><path class="cls-3" d="M49.17,79.68l.25-.76a3.79,3.79,0,0,0,.83.45,5.34,5.34,0,0,0,1.64.26c.91-.06,1,0,.93.91-.05.61-.08,1.22-.14,1.83,0,.06,0,.74-.29.09,0,0-.11,0-.15,0a2.75,2.75,0,0,1-2,.39c-.24,0-.64-.66-.79.1-.09-.07-.26-.14-.26-.2a3,3,0,0,1,.16-1.09c0-.1.54,0,.82,0a5.06,5.06,0,0,0,1.51.22c.32-.06.68-.53.81-.89s-.51-.87-1.23-.68c-.35.09-.71.17-1.07.25C49.42,80.74,49.07,80.49,49.17,79.68Z" transform="translate(-0.32 -0.14)"/><path class="cls-3" d="M22.4,113.69a5.63,5.63,0,0,1,0,1c0,.15-.24.36-.36.36s-.41-.2-.42-.33a20.47,20.47,0,0,1,0-2.34c0-.12.38-.34.55-.31s.37.28.53.45.58.63.87.94c0-.37.08-.75.15-1.12a.53.53,0,0,1,.21-.25c.21.12.55.26.57.42a20.56,20.56,0,0,1,.05,2.26c0,.11-.18.31-.26.3a.91.91,0,0,1-.56-.21c-.39-.41-.74-.85-1.11-1.28l-.14,0Z" transform="translate(-0.32 -0.14)"/><path class="cls-3" d="M28,115.09c-.21-.23-.47-.53-.75-.82a2.49,2.49,0,0,0-.37-.27,2.61,2.61,0,0,1-.15.42c-.12.22-.26.42-.39.63-.15-.22-.41-.43-.44-.67a12,12,0,0,1-.06-1.94.59.59,0,0,1,.4-.42.57.57,0,0,1,.43.38c0,.57.22.44.49.15s.31-.42.52-.49a2.22,2.22,0,0,1,.77,0,2.11,2.11,0,0,1-.35.51c-.53.43-.68.85-.09,1.36a2.3,2.3,0,0,1,.43.59,2,2,0,0,1,.14.43Z" transform="translate(-0.32 -0.14)"/><path class="cls-3" d="M18.33,113.09a3.88,3.88,0,0,0-.26.61,2.16,2.16,0,0,0,0,.68,2.11,2.11,0,0,0,.14.47,1.8,1.8,0,0,1-.62-.06c-.15-.07-.22-.29-.35-.43a4.27,4.27,0,0,0-.42-.34,2.16,2.16,0,0,1-.21.45.68.68,0,0,1-.38.28.42.42,0,0,1-.32-.26c-.09-.82-.14-1.65-.19-2.47,0-.07.07-.2.11-.2a7.81,7.81,0,0,1,1.88.12c.28.08.45.6.66.92C18.33,112.9,18.32,112.93,18.33,113.09Zm-.45-.15c-.44-.24-.65-.42-.86-.43s-.31.22-.47.34c.15.16.28.43.45.46S17.43,113.15,17.89,112.95Z" transform="translate(-0.32 -0.14)"/><path class="cls-3" d="M12.68,111.37a2.11,2.11,0,0,1,2,1.16c.27.62.33,1.4-.3,1.76a3.78,3.78,0,0,1-1.76.19c-.09,0-.24-.36-.27-.57a11.08,11.08,0,0,1-.18-1.91C12.13,111.78,12.48,111.58,12.68,111.37Zm.19,1.41c.19.52-.15,1.19.62,1.05.22,0,.49-.45.53-.72a.66.66,0,0,0-.77-.79C13.09,112.33,13,112.67,12.88,112.78Z" transform="translate(-0.32 -0.14)"/><path class="cls-3" d="M54,32l.09.67-4.28-2c-.34-.16-.57-.86-.29-1s.6,0,.9,0h0c.51.26,1,.53,1.55.77.07,0,.23-.11.34-.17-.08-.13-.14-.35-.25-.38-.68-.19-.68-.18-.65-.87h0c.47-.24,1.34.18,1.28.7A2.18,2.18,0,0,0,54,32Z" transform="translate(-0.32 -0.14)"/><path class="cls-3" d="M54.13,110.59l0,.86a4.41,4.41,0,0,1-2.65,1.05c-.55,0-.79.41-1.25.5-.72.15-1,0-.9-.75a1.68,1.68,0,0,1,.24-.48l.1.08a3.36,3.36,0,0,0-.11.64.37.37,0,0,0,.21.29c.09,0,.31-.09.32-.16,0-.67.7-.59,1-.87.11-.09.31-.08.42-.18a1.26,1.26,0,0,0,.19-.41,2.57,2.57,0,0,0,.17.35c.23-.07.54-.12.64-.29.24-.41.3-1.06,1-.39C53.56,110.9,53.91,110.68,54.13,110.59Zm-.7.63c-.12-.07-.22-.16-.27-.14a.28.28,0,0,0-.13.23c0,.06.12.12.19.18Z" transform="translate(-0.32 -0.14)"/><path class="cls-3" d="M53,109.56c-.1.37-.82.76-1.2.8a7,7,0,0,0-1.9.37c-.48.19-.64.17-.64-.35a5.65,5.65,0,0,1,0-.65c0-.38.25-.56.59-.27.6.5,1.07.46,1.43-.26a4.61,4.61,0,0,1,.74,0c.38,0,.75,0,1,.37Z" transform="translate(-0.32 -0.14)"/><path class="cls-3" d="M53.19,104.2c.2,1.15-.81,1-1.4,1.24a13.47,13.47,0,0,1-2.1.51.45.45,0,0,1-.37-.24,2.67,2.67,0,0,1,0-.88c.06-.42.27-.56.66-.26a1.14,1.14,0,0,0,1.65-.26,1.3,1.3,0,0,1,.16-.14c.45.76,1-.27,1.44,0Z" transform="translate(-0.32 -0.14)"/><path class="cls-3" d="M51.83,73.46c-.52-.08-1.21-.63-1.25.36,0,0-.2.14-.25.11-.3-.18-.22-.82-.83-.69a4.66,4.66,0,0,1-.32-1c0-.09.08-.21.13-.32l.14.25c.05.09.08.21.16.27a3.93,3.93,0,0,0,2.11-.36c.06-.05.23,0,.33,0s.06.16.11.19c.22.15.8.06.45.57C52.44,73.15,52.09,73.28,51.83,73.46Z" transform="translate(-0.32 -0.14)"/><path class="cls-3" d="M11.4,123.06c.14.05.38.08.41.17.13.44.21.26.43,0a4.77,4.77,0,0,1,1-.66c.06,0,.26.1.31.2a.35.35,0,0,1-.13.32,4,4,0,0,0-2,2.61,2.25,2.25,0,0,1-.41.53,2.9,2.9,0,0,1-.09-.68c.08-.79.19-1.57.29-2.36h0l.16-.17Z" transform="translate(-0.32 -0.14)"/><path class="cls-3" d="M13.13,108.35a.73.73,0,0,1,0-.08l.09-.8.7.58c.12.1.22.22.33.33a3.73,3.73,0,0,1,.13-.48,2.44,2.44,0,0,1,.23-.37,1.72,1.72,0,0,1,.29.4,1.3,1.3,0,0,1,0,.48c0,.42,0,.83-.07,1.25l-.89-.8a2.62,2.62,0,0,0-.25-.17,1.5,1.5,0,0,1-.06.3c-.08.21-.18.41-.28.61a5.41,5.41,0,0,1-.24-.68,2.76,2.76,0,0,1,0-.57Z" transform="translate(-0.32 -0.14)"/><path class="cls-3" d="M38.27,35.93c0,.69-.39.9-1,.9s-.9-.49-.92-1,.09-1,.77-1A1.06,1.06,0,0,1,38.27,35.93Z" transform="translate(-0.32 -0.14)"/><path class="cls-3" d="M7.6,113a3.37,3.37,0,0,1-.22.66c-.35,0-.81-.07-1-.3A2.17,2.17,0,0,1,6,111.12c.08-.21.37-.49.55-.48s.49.26.7.45,0,.24,0,.36a3.71,3.71,0,0,0-.39,0c-.18,0-.51,0-.51.09a3.91,3.91,0,0,0,0,1.08c0,.13.26.23.39.34a1.19,1.19,0,0,0,.13-.41,2.21,2.21,0,0,0-.16-.51c.13,0,.29-.08.37,0a1,1,0,0,1,.36.42,1.7,1.7,0,0,1,0,.56Z" transform="translate(-0.32 -0.14)"/><path class="cls-3" d="M51.38,75.71c-.39-.19-1.12.4-1.2-.52-.09.08-.18.15-.26.23l-.4.44a2.36,2.36,0,0,1-.23-.53,2.26,2.26,0,0,1,0-.85c0-.13.29-.2.45-.3.5.89,1.38.47,2.1.62a3.76,3.76,0,0,1,.66.27c-.18.31-.23.76-.77.64A1.55,1.55,0,0,0,51.38,75.71Zm-.19-.46-.11-.08a.63.63,0,0,0,0,.13s.05,0,.06,0Z" transform="translate(-0.32 -0.14)"/><path class="cls-3" d="M4,110.83c.07-.15.19-.66.37-.68a.8.8,0,0,1,.88.85c0,.68,0,1.36,0,2,0,.06-.08.11-.12.17a2,2,0,0,1-.29-.34c-.16-.31-.14-.31-.39-.08,0,0-.23,0-.24-.09C4.21,112.15,4.14,111.59,4,110.83Z" transform="translate(-0.32 -0.14)"/><path class="cls-3" d="M50.37,76.77a3.48,3.48,0,0,0,.7.39c.25.07.6-.06.79.07.51.36.76.16,1-.31a1,1,0,0,1,.2-.22c0,.11,0,.21,0,.32s0,.36,0,.54a1.6,1.6,0,0,1,.37-.24.92.92,0,0,1,.36,0c0,.12,0,.34-.08.36-.44.15-1.12.51-1.31.34-.61-.55-.63.19-.91.31s-.27.25-.4.38c0-.17-.16-.35-.13-.51.14-.72-.28-.38-.56-.31l-.11-.11,0-.87Z" transform="translate(-0.32 -0.14)"/><path class="cls-3" d="M37.85,54.35a.88.88,0,0,1,.66,1.07,1.64,1.64,0,0,1-.87.95c-.37.18-1-.54-.92-1.09S37,54.33,37.85,54.35Z" transform="translate(-0.32 -0.14)"/><path class="cls-3" d="M38.11,111.19A.77.77,0,0,1,39,112c0,.71-.46.94-1,1s-.88-.49-.86-.91A.88.88,0,0,1,38.11,111.19Z" transform="translate(-0.32 -0.14)"/><path class="cls-3" d="M37.27,17.05a.92.92,0,0,1-1-1c0-.49.21-.9.79-.93a1.13,1.13,0,0,1,1.09,1.15C38.12,16.8,37.86,17,37.27,17.05Z" transform="translate(-0.32 -0.14)"/><path class="cls-3" d="M39.54,130.73c-.56.53-.88,1-1.31,1.17-.19.06-.78-.54-.89-.92s.61-1.15,1.08-1S39,130.36,39.54,130.73Z" transform="translate(-0.32 -0.14)"/><path class="cls-3" d="M51,26.15c.07,0,.11.05.11.07.08.86.44.12.55.05.53-.29.41.29.59.38.78.37.44,1,.36,1.48,0,.15-.17.29-.26.43-.15-.12-.4-.21-.44-.37-.11-.35-.12-.72-.66-.47-.07,0-.34-.16-.36-.27a5.9,5.9,0,0,1,0-1.05C50.92,26.32,51,26.24,51,26.15Z" transform="translate(-0.32 -0.14)"/><path class="cls-3" d="M2,103.53,1.77,90.87c.06.13.18.26.18.39q.09,5.91.16,11.82A1.9,1.9,0,0,1,2,103.53Z" transform="translate(-0.32 -0.14)"/><path class="cls-3" d="M54.13,106.36v.55a4.93,4.93,0,0,1-1,.63,19.23,19.23,0,0,1-1.89.45,4,4,0,0,1-.09-1c0-.13.44-.34.52-.29.84.57,1.53,0,2.26-.26Z" transform="translate(-0.32 -0.14)"/><path class="cls-3" d="M20.29,113.52a5.42,5.42,0,0,1,0,1c0,.17-.23.31-.35.47-.14-.12-.38-.23-.39-.36-.06-.78-.08-1.56-.06-2.35,0-.12.27-.33.4-.32a.54.54,0,0,1,.36.38,9.75,9.75,0,0,1,0,1.21Z" transform="translate(-0.32 -0.14)"/><path class="cls-3" d="M38.85,74.6a.91.91,0,0,1-.93,1,.78.78,0,0,1-.86-.92,1.4,1.4,0,0,1,.85-1C38.52,73.58,38.73,74.15,38.85,74.6Z" transform="translate(-0.32 -0.14)"/><path class="cls-3" d="M42.78,26.2c.06.68-.25,1.2-.84,1.2s-.83-.58-.84-1.18.2-.93.71-.87S42.93,25.45,42.78,26.2Z" transform="translate(-0.32 -0.14)"/><path class="cls-3" d="M9.11,114.13c-.12-.14-.26-.23-.3-.35-.23-.78-.45-1.56-.66-2.35a2,2,0,0,1,0-.48,4.21,4.21,0,0,1,.48.31c.08.06.1.19.15.28L9,112a2.74,2.74,0,0,1,.25-.36,2,2,0,0,1,.45-.38s.29.2.27.27c-.21.82-.44,1.63-.68,2.44C9.28,114,9.2,114,9.11,114.13Z" transform="translate(-0.32 -0.14)"/><path class="cls-3" d="M39,93.82c-.35.24-.68.63-1.06.7-.6.11-.85-.39-.84-.92a.87.87,0,0,1,.91-.93C38.63,92.66,38.78,93.12,39,93.82Z" transform="translate(-0.32 -0.14)"/><path class="cls-3" d="M43.3,45.94c-.53.39-.82.79-1.16.83-.68.08-.76-.53-.8-1s.24-1,.72-.94S42.76,45.42,43.3,45.94Z" transform="translate(-0.32 -0.14)"/><path class="cls-3" d="M39.47,149.4c-.11.67-.66,1.25-1.19,1.13a1.11,1.11,0,0,1-.66-.72.86.86,0,0,1,.94-1C38.89,148.84,39.17,149.19,39.47,149.4Z" transform="translate(-0.32 -0.14)"/><path class="cls-3" d="M43.63,83.76c-.53.41-.85.84-1.18.85s-.68-.48-.74-.81a.75.75,0,0,1,.78-1C42.82,82.87,43.11,83.31,43.63,83.76Z" transform="translate(-0.32 -0.14)"/><path class="cls-3" d="M43.74,120.51a1,1,0,0,1-1.11,1c-.24,0-.59-.49-.64-.8a.76.76,0,0,1,.79-1C43.13,119.74,43.42,120.22,43.74,120.51Z" transform="translate(-0.32 -0.14)"/><path class="cls-3" d="M11.26,107.17a2.73,2.73,0,0,1,.36.49c.18.45.34.9.48,1.36a1.52,1.52,0,0,1,0,.44l-.39-.15c-.19-.07-.4-.21-.58-.19-.7.12-.69.14-.48-.56.1-.33.18-.67.29-1A1.92,1.92,0,0,1,11.26,107.17Z" transform="translate(-0.32 -0.14)"/><path class="cls-3" d="M41.45,102.39c.55-.43.86-.84,1.23-.9.19,0,.63.52.69.85a.77.77,0,0,1-.86.92C42.21,103.24,41.95,102.82,41.45,102.39Z" transform="translate(-0.32 -0.14)"/><path class="cls-3" d="M43.12,64.91c.07.55-.19.84-.77.82s-.76-.4-.77-.91.22-1,.81-1S43.16,64.34,43.12,64.91Z" transform="translate(-0.32 -0.14)"/><path class="cls-3" d="M5.4,25.82c-.74.15-.27.73-.39,1.1,0,.14-.07.29-.11.43a1.41,1.41,0,0,1-.1-.43c.13-1.47.27-2.95.44-4.42,0-.18.25-.33.38-.49l.41.58H6l-.61-.18c-.17,1.14-.63,2.28-.05,3.43Z" transform="translate(-0.32 -0.14)"/><path class="cls-3" d="M8.54,108c0-1.06.1-1.22.81-1,.13,0,.23.18.34.27-.11.08-.22.16-.34.23s-.24.11-.37.16l.31.2.28.23-.36.21a2.41,2.41,0,0,0-.21.16l.18.13.53.35c-.15.06-.33.22-.45.18a1.46,1.46,0,0,1-.71-.44C8.45,108.6,8.54,108.29,8.54,108Z" transform="translate(-0.32 -0.14)"/><path class="cls-3" d="M43.61,139.07a1,1,0,0,1-1,1.06c-.54.07-.65-.35-.64-.8s.3-1.06.88-1C43.09,138.3,43.34,138.79,43.61,139.07Z" transform="translate(-0.32 -0.14)"/><path class="cls-3" d="M52.93,137.39c.12.72.21,1.44.38,2.14.06.28.08.82.66.47,0,0,.18.09.17.1a1.5,1.5,0,0,1-.28.55.47.47,0,0,1-.47,0,1.58,1.58,0,0,1-.42-.77c-.11-1.2-.17-2.4-.23-3.6,0-.08.08-.17.13-.26.06.1.15.2.16.3,0,.35,0,.7,0,1.05Z" transform="translate(-0.32 -0.14)"/><path class="cls-3" d="M54.15,130.88a3.83,3.83,0,0,1-.44.81,5,5,0,0,1-.83.66c0-.43-.1-.87-.1-1.3,0-.08.21-.18.33-.24s.45-.15.65-.27.2-.24.29-.36Z" transform="translate(-0.32 -0.14)"/><path class="cls-3" d="M41.34,8.15C40.59,8,40.16,7.66,40.19,7c0-.18.37-.33.56-.5.34.41.69.82,1,1.25A4.34,4.34,0,0,1,41.34,8.15Z" transform="translate(-0.32 -0.14)"/><path class="cls-3" d="M54.27,120.64c-.23.44-.44.89-.69,1.32a.38.38,0,0,1-.34,0,2.46,2.46,0,0,1,.36-1.92,3,3,0,0,1,.45-.27c0,.15,0,.3.05.45s0,.21,0,.32Z" transform="translate(-0.32 -0.14)"/><path class="cls-3" d="M22,135.49c.38-.34.56-.63.78-.68.48-.09.93.14.82.68-.06.27-.49.53-.8.65C22.7,136.18,22.42,135.82,22,135.49Z" transform="translate(-0.32 -0.14)"/><path class="cls-3" d="M12.66,134l-.26.81c0,.08-.06.15-.08.22a.68.68,0,0,0-1-.22l-.28-1.18a3.51,3.51,0,0,1,.55.05C12,133.79,12.31,133.91,12.66,134Z" transform="translate(-0.32 -0.14)"/><path class="cls-3" d="M3.17,111c0-.29,0-.59,0-.88a2,2,0,0,1,.14-.45c.15.1.34.18.42.32s-.09.28-.17.41a1.86,1.86,0,0,1-.27.28c.94.46-.41,1.26.26,1.76,0,0-.09.08-.11.07s-.25-.14-.25-.22c0-.43,0-.86,0-1.28Z" transform="translate(-0.32 -0.14)"/><path class="cls-3" d="M51.44,86c-.29.31-.42.56-.58.59s-.4-.12-.57-.23-.1-.21-.15-.32c-.07.11-.13.23-.19.34s-.08.18-.11.28l-.19-.29a2.52,2.52,0,0,1-.28-.47,2.44,2.44,0,0,1-.07-.53c.2,0,.56,0,.58,0,.16.62.56.5,1,.4C51,85.83,51.13,85.94,51.44,86Z" transform="translate(-0.32 -0.14)"/><path class="cls-3" d="M18.89,135.07l.08-.45c.16.11.31.24.48.33a.45.45,0,0,0,.31.08,1.53,1.53,0,0,0,.36-.26v1.12l-.48-.19c-.09,0-.19-.13-.26-.11C18.88,135.7,18.89,135.71,18.89,135.07Z" transform="translate(-0.32 -0.14)"/><path class="cls-3" d="M51.59,85.89a2.18,2.18,0,0,1,0-.53c0-.11.14-.19.21-.29.05.09.15.19.15.28,0,.57.26.57.58.28s.45,0,.49.23c.13.59-.35.65-.74.73C51.53,86.75,51.54,86.26,51.59,85.89Z" transform="translate(-0.32 -0.14)"/><path class="cls-3" d="M21.15,134.62l.59.21-.3.73c0,.06-.11.16-.1.18s.25.22.38.32c-.26,0-.71.08-.76,0a2.75,2.75,0,0,1-.21-1.1C20.74,134.83,21,134.72,21.15,134.62Z" transform="translate(-0.32 -0.14)"/><path class="cls-3" d="M17.24,135c.18-.16.34-.39.56-.47s.32.17.49.27c-.48.27.5,1-.3,1.09C17.4,136,17.32,135.56,17.24,135Z" transform="translate(-0.32 -0.14)"/><path class="cls-3" d="M14.94,133.93c.13.32.19.52.28.7s-.56.6.13.74c0,.06-.06.19-.09.19-.24,0-.63,0-.67-.12a3.19,3.19,0,0,1-.13-1.08C14.45,134.27,14.64,134.18,14.94,133.93Z" transform="translate(-0.32 -0.14)"/><path class="cls-3" d="M50.4,21.15a1.65,1.65,0,0,1,.11-.62c.11-.17.35-.25.53-.36a3.52,3.52,0,0,0-.17.46,2.15,2.15,0,0,0-.1.7,1.65,1.65,0,0,0,.27.52l.23-.44.16-.31c0,.09.12.2.1.28-.12.33-.3.94-.4.93C50.48,22.23,50.41,21.7,50.4,21.15Z" transform="translate(-0.32 -0.14)"/><path class="cls-3" d="M14.06,134.51c-.54.26.38.85-.46.86-.61,0-.51-.47-.53-.87s0-.64.46-.51C13.7,134,13.82,134.27,14.06,134.51Z" transform="translate(-0.32 -0.14)"/><path class="cls-3" d="M21.8,119.05l-.85-.3.59-1c.19.35.38.7.54,1.06C22.1,118.85,21.92,119,21.8,119.05Z" transform="translate(-0.32 -0.14)"/><path class="cls-3" d="M52.59,142.64l1-.8.48-.41a2.79,2.79,0,0,1-.17.67,6.85,6.85,0,0,1-.63.93,1.67,1.67,0,0,1-.37.27Z" transform="translate(-0.32 -0.14)"/><path class="cls-3" d="M49.49,19.44l.39.24c-.07.09-.11.23-.2.26-.62.26-.69.7-.19,1.21a3.34,3.34,0,0,1,.32.47c-.24-.09-.64-.14-.68-.29a5.07,5.07,0,0,1-.18-1.44,1.89,1.89,0,0,1,.28-.66Z" transform="translate(-0.32 -0.14)"/><path class="cls-3" d="M14.43,118.42c.31-.43-.62-1,.25-1.08.13,0,.36.63.5,1,0,0-.28.24-.46.29S14.52,118.5,14.43,118.42Z" transform="translate(-0.32 -0.14)"/><path class="cls-3" d="M20,119c-.8.07-.62-.53-.59-.93,0-.15.37-.28.58-.4,0,0,.09.09.14.13-.69.11-.33.34-.07.56-.54.33-.25.37.13.39.05,0,.1.08.15.13Z" transform="translate(-0.32 -0.14)"/><path class="cls-3" d="M51.77,21.87l.36-.79a1,1,0,0,1,.54,1.11,3.73,3.73,0,0,1-.21.55Z" transform="translate(-0.32 -0.14)"/><path class="cls-3" d="M49.62,108.43c0-.18-.18-.45-.11-.53a10.89,10.89,0,0,1,1-.92c0,.19.09.37.11.56s-.86.52.06.67c-.06.08-.11.23-.17.23-.29,0-.58,0-.87,0Z" transform="translate(-0.32 -0.14)"/><path class="cls-3" d="M18.4,109.11a3.13,3.13,0,0,1-.66-.06c-.1,0-.24-.21-.22-.28a.48.48,0,0,1,.29-.3,1.51,1.51,0,0,1,.55.07l1.39.3Z" transform="translate(-0.32 -0.14)"/><path class="cls-3" d="M5.08,107.38l.5-.88c.19.13.38.25.56.39s0,.15,0,.23a.82.82,0,0,0-.24,0c-.16.06-.32.13-.48.2a6.18,6.18,0,0,0,.36.77c0,.08.24.06.37.09-.08.13-.12.32-.24.37a.43.43,0,0,1-.41-.1A10.71,10.71,0,0,1,5.08,107.38Z" transform="translate(-0.32 -0.14)"/><path class="cls-3" d="M54.2,132.53a3,3,0,0,0-.43.66c-.22.67-.39,1.35-.59,2a1.15,1.15,0,0,1-.19.28c0-.09-.12-.21-.1-.28.28-.9.58-1.79.89-2.68,0-.1.2-.15.31-.23Z" transform="translate(-0.32 -0.14)"/><path class="cls-3" d="M10.74,118.17c-.15-.16-.43-.34-.41-.48a2.27,2.27,0,0,1,.37-.73l.43,1.09Z" transform="translate(-0.32 -0.14)"/><path class="cls-3" d="M22.61,118.31a6.49,6.49,0,0,1,.6-.54c.07,0,.23,0,.35.07a.93.93,0,0,0-.32.13.76.76,0,0,0-.12.3c.55.22,0,.33-.06.45a1.33,1.33,0,0,1-.32.26Z" transform="translate(-0.32 -0.14)"/><path class="cls-3" d="M7.07,106.74a2.41,2.41,0,0,1,.12.34c.1.54-.3,1.27.59,1.51,0,0,0,.22-.06.33-.25,0-.71-.07-.72-.15a17.85,17.85,0,0,1-.11-1.89S7,106.81,7.07,106.74Z" transform="translate(-0.32 -0.14)"/><path class="cls-3" d="M16.11,117.27c.26.53.44.87.59,1.21,0,0-.1.18-.13.17-.29-.07-.57-.16-.85-.24Z" transform="translate(-0.32 -0.14)"/><path class="cls-3" d="M10.18,134.27c-.06-.13-.17-.26-.16-.39a2.09,2.09,0,0,1,.17-.52c.17.11.4.18.48.33a1.16,1.16,0,0,1,.06.69c0,.14-.22.34-.34.34s-.28-.19-.42-.3Z" transform="translate(-0.32 -0.14)"/><path class="cls-3" d="M12.8,117.47l.09-.21a2.68,2.68,0,0,0,.1.27l.35.71.27-.65.08-.2s.1.06.1.09a4.29,4.29,0,0,1-.11.86c0,.09-.33.2-.39.16a2.44,2.44,0,0,1-.48-.58C12.76,117.82,12.8,117.69,12.8,117.47Z" transform="translate(-0.32 -0.14)"/><path class="cls-3" d="M8.07,117c.16.07.43.12.46.23a1.76,1.76,0,0,1-.08.65c-.15-.12-.37-.22-.42-.37a2.45,2.45,0,0,1-.07-.84c0-.06.2-.11.3-.16l.1.28Z" transform="translate(-0.32 -0.14)"/><path class="cls-3" d="M16.28,134.19c.22.16.55.33.53.4a8.17,8.17,0,0,1-.46,1.09c-.16-.39-.34-.77-.47-1.17C15.86,134.45,16.11,134.32,16.28,134.19Z" transform="translate(-0.32 -0.14)"/><path class="cls-3" d="M9.95,117.38a3,3,0,0,1-.34.58.45.45,0,0,1-.39-.11A4.62,4.62,0,0,1,9,117s0-.07.07-.1l.08.21.26.61.24-.59c0-.07,0-.14.06-.2Z" transform="translate(-0.32 -0.14)"/><path class="cls-3" d="M53,144.59c-.17-.14-.26-.18-.27-.23a.42.42,0,0,1,0-.3c.36-.39.74-.77,1.12-1.15,0,0,.13,0,.2,0a.2.2,0,0,1,0,.14Z" transform="translate(-0.32 -0.14)"/><path class="cls-3" d="M12.21,117.31l-.38.93c-.14-.36-.28-.72-.41-1.08,0,0,.09-.06.13,0Z" transform="translate(-0.32 -0.14)"/><path class="cls-3" d="M5.43,132.63l-.33-.08a3.07,3.07,0,0,1,.33-.21c.57-.26.87-.07.86.56a1.62,1.62,0,0,1-.11.4,2.74,2.74,0,0,1-.4-.36,1.75,1.75,0,0,1-.18-.42Z" transform="translate(-0.32 -0.14)"/><path class="cls-3" d="M8.29,20.17c-.24-.29-.46-.59-.71-.86a1,1,0,0,0-.46-.25,1.71,1.71,0,0,0-.49,0c.09-.13.15-.34.27-.38s.46-.08.54,0c.35.43.64.9,1,1.36Z" transform="translate(-0.32 -0.14)"/><path class="cls-3" d="M7.67,27.62c.39-.67.77-1.35,1.16-2a1.44,1.44,0,0,1,.24-.25,1.17,1.17,0,0,1-.1.36c-.43.64-.88,1.27-1.32,1.9Z" transform="translate(-0.32 -0.14)"/><path class="cls-3" d="M2.86,111.24v.63a1.69,1.69,0,0,1-.16-.39c-.07-.52-.12-1-.18-1.56h.05Z" transform="translate(-0.32 -0.14)"/><path class="cls-3" d="M50.34,77.93c-.2,0-.56.12-.58.08a2.71,2.71,0,0,1-.3-1.15.52.52,0,0,1,.9-.08l-.16.17c-.13.12-.38.28-.36.34a2.19,2.19,0,0,0,.38.53Z" transform="translate(-0.32 -0.14)"/><path class="cls-3" d="M17.94,118.13l.08-.45.18.45a2,2,0,0,0,.21.5c.08.11.25.14.38.21-.1,0-.22.06-.31,0a1.05,1.05,0,0,1-.48-.28c-.08-.1,0-.31,0-.47Z" transform="translate(-0.32 -0.14)"/><path class="cls-3" d="M6.79,116.59a1.44,1.44,0,0,1,.1.3c0,.19,0,.38,0,.56a5.42,5.42,0,0,1-.31-.54.57.57,0,0,1,0-.32,3.16,3.16,0,0,1,.13-.4l.19.32Z" transform="translate(-0.32 -0.14)"/><path class="cls-3" d="M1.35,72.14l0-4.36Z" transform="translate(-0.32 -0.14)"/><path class="cls-3" d="M6.12,116.66l0,.39c-.17-.22-.83-.14-.45-.69,0-.05.28,0,.42.06Z" transform="translate(-0.32 -0.14)"/><path class="cls-3" d="M1.67,87.6l0-3.89Z" transform="translate(-0.32 -0.14)"/><path class="cls-3" d="M53,109.57c0-.13,0-.26,0-.39s.05-.5.08-.75c.12.21.34.43.32.63s-.29.34-.46.5Z" transform="translate(-0.32 -0.14)"/><path class="cls-3" d="M1.2,64.81l0-3.52Z" transform="translate(-0.32 -0.14)"/><path class="cls-3" d="M8.39,133.41c.09-.07.21-.16.33-.23a1.3,1.3,0,0,1,.25-.09l-.1.44a.51.51,0,0,1,0,.07l-.24.59Z" transform="translate(-0.32 -0.14)"/><path class="cls-3" d="M7.61,132.63a2.49,2.49,0,0,1,.15.34c.06.25.09.51.15.76a1.15,1.15,0,0,0,.17.28c-.15,0-.41,0-.42-.06a7.41,7.41,0,0,1-.14-1A1.22,1.22,0,0,1,7.61,132.63Z" transform="translate(-0.32 -0.14)"/><path class="cls-3" d="M37,.85l2,.43Z" transform="translate(-0.32 -0.14)"/><path class="cls-3" d="M2.11,106.63v-.31l.06,3.22,0-2.72Z" transform="translate(-0.32 -0.14)"/><path class="cls-3" d="M5.8,21.48a1.9,1.9,0,0,1,0-.36c.12-.32.25-.64.37-1,0,.06.09.12.08.16C6.13,20.65,6,21,5.8,21.48Z" transform="translate(-0.32 -0.14)"/><path class="cls-3" d="M11.89,137l.69-.7c0,.09.06.24,0,.26-.23.16-.48.29-.72.43Z" transform="translate(-0.32 -0.14)"/><path class="cls-3" d="M1.5,79.47v0Z" transform="translate(-0.32 -0.14)"/><path class="cls-3" d="M6.21,27,5.4,25.82h0L6.2,27Z" transform="translate(-0.32 -0.14)"/><path class="cls-3" d="M6,22.58l.82.81h0L6,22.57Z" transform="translate(-0.32 -0.14)"/><path class="cls-3" d="M6.7,27.45,6.21,27h0l.49.49Z" transform="translate(-0.32 -0.14)"/><path class="cls-3" d="M49.54,111.78l.43-.18.06.13-.39.14Z" transform="translate(-0.32 -0.14)"/><path class="cls-3" d="M8.38,20.06l.34.5-.1.08-.34-.47Z" transform="translate(-0.32 -0.14)"/><path class="cls-3" d="M49.61,108.42l-.12.27-.11-.08.25-.18Z" transform="translate(-0.32 -0.14)"/><path class="cls-3" d="M53.08,72.75l-.06,0,0-.09h.06S53.07,72.73,53.08,72.75Z" transform="translate(-0.32 -0.14)"/><polygon class="cls-3" points="11.58 136.91 11.56 136.93 11.57 136.91 11.58 136.91"/><path class="cls-3" d="M6.86,27.61l-.17-.16h0l.16.16Z" transform="translate(-0.32 -0.14)"/><path class="cls-3" d="M53.2,104.21l0-.06,0,0Z" transform="translate(-0.32 -0.14)"/><path class="cls-3" d="M43.21,134.05h.18l-.07.12Z" transform="translate(-0.32 -0.14)"/><path class="cls-1" d="M2.11,106.63v0Z" transform="translate(-0.32 -0.14)"/><path class="cls-1" d="M50.44,29.73c-.3,0-.66-.15-.9,0s0,.83.29,1l4.28,2q0,5.14,0,10.28,0,6.44,0,12.88c0,.32-.06.64-.09,1-1.29-.36-2.58-.73-3.87-1.06-.17,0-.4.17-.61.26.15.2.26.54.45.59,1.35.33,2.72.61,4.09.9,0,2.78.05,5.56.06,8.34,0,1.32,0,2.64-.07,4-1.38-.15-2.77-.29-4.14-.48a.72.72,0,0,1-.49-.5c0-2.43,0-4.87,0-7.31,0-.6.3-.7.87-.41.17.09.62,0,.64,0a3.94,3.94,0,0,0,.06-.93,1.14,1.14,0,0,0-.23.06,3,3,0,0,0-.29.19c0-.1-.1-.24-.06-.3s.21-.25.31-.25c.51,0,1,.14,1.52.2.1,0,.21-.08.32-.13-.08-.07-.15-.17-.24-.19-.63-.13-1.27-.25-1.9-.36a.28.28,0,0,0-.16,0c-.63.29-.84.13-.85-.67,0-1.84-.07-3.68-.08-5.52q-.06-11.41-.11-22.82c0-1.73,0-3.46,0-5.2,0-.16.24-.46.33-.45.34.06,1-.16.82.6a2.88,2.88,0,0,0,0,.4,2,2,0,0,1,0,.24l-.13-.19a.77.77,0,0,1,0-.07l-.42-.82a6.66,6.66,0,0,0-.2.94c-.06.83-.09,1.66-.11,2.49,0,.58-.16,1.27.82,1.18C50.32,29.48,50.38,29.65,50.44,29.73Zm3.25,8.6,0,0-.06,0a.23.23,0,0,0,0-.06h0Zm-2.56-4.75L49.69,33c0,.07-.06.2-.05.2l1.43.45c.43.22.85.45,1.28.66a.74.74,0,0,0,.29,0c-.05-.08-.08-.21-.16-.24C52,33.91,51.58,33.75,51.13,33.59ZM52.87,46.8l.14.14.06-.08-.21,0c-1-.36-2-.72-3-1.07-.06,0-.16.08-.25.13s.11.19.19.21ZM50.42,44h0l-.13-.28c-.15.31-.32.62-.45.95,0,.06.12.24.21.27.75.26,1.51.47,2.26.73s.69-.38.54-.59a6.83,6.83,0,0,0-1.24-1.07C51.21,44.56,50.82,44,50.42,44Zm-.26-9.3.22.16-.06-.32-.48-.28a7.47,7.47,0,0,0-.2,1.19A.66.66,0,0,0,50,36c.86.32,1.74.59,2.61.87.15,0,.31.07.46.1,0-.18.12-.39.06-.53a1.51,1.51,0,0,0-.48-.6,8.48,8.48,0,0,0-1.43-.86c-.18-.08-.48.09-.71.18a2.45,2.45,0,0,0-.45.32Zm3,30.13a1.14,1.14,0,0,0,.19-.38c0-.14-.08-.3-.12-.45-.23.4-.72-.95-.86.12,0,0-.11,0-.11,0-.32-.81-1.16-.34-1.69-.65-.19-.11-.6.13-.91.21.18.27.33.74.55.78C51.13,64.7,52.07,64.75,53.16,64.85ZM50,31.14c-.08.15-.23.29-.23.44s0,.7.12.78c.84.47,1.72.87,2.6,1.26.14.06.36,0,.54-.07-.09-.28-.09-.68-.29-.83-.81-.6-2-.53-2.61-1.51C50.09,31.2,50.06,31.19,50,31.14Zm2.77,27.06a5.11,5.11,0,0,0-.56-.31,11.57,11.57,0,0,0-1.51-.55c-.16,0-.38.19-.58.3,0,0-.12,0-.14,0s-.2-.27-.3-.4c0,.18,0,.37,0,.55a3.72,3.72,0,0,0,.11.55,2.37,2.37,0,0,0,.16.35c.08-.08.17-.17.24-.26a2.83,2.83,0,0,0,.17-.25c0,.1,0,.22.06.29s.27.32.43.36c.33.07.73-.05,1,.1C52.77,59.5,52.47,58.61,52.75,58.21Zm-3-4.5c0,.29,0,.34,0,.4s0,.37.07.55c.12-.12.21-.31.35-.34a3.25,3.25,0,0,1,.74,0c-.09.84.7.63,1.09.88a.66.66,0,0,0,.64-.12.88.88,0,0,0,.13-.74,1,1,0,0,0-.62-.41c-.53-.13-1.08-.16-1.6-.3-.22-.06-.38-.31-.57-.47Zm2.57,9.36a1.37,1.37,0,0,0,.28-.46c0-.13-.12-.43-.22-.45a7.42,7.42,0,0,0-1.13-.07c-.06,0-.12,0-.18,0-.26-.07-.52-.17-.78-.24s-.62-.25-.6.29c0,.34-.07.73.48.75S51.41,63,52.3,63.07Zm-.72-12.31c0,.67.83,1.65,1.26,1.63.22,0,.57-.23.6-.4a1,1,0,0,0-.23-.81,4.52,4.52,0,0,0-1-.51,4.58,4.58,0,0,1-.51-.38ZM52,41.82a.94.94,0,0,0-1.33-.7l-.41.16a1.77,1.77,0,0,0,0-.48.75.75,0,0,0-.25-.41.4.4,0,0,0-.37.09,1.82,1.82,0,0,0,1,1.71,3.3,3.3,0,0,1,.53.16C52,42.73,52.08,42.37,52,41.82Zm0,6.27c0-.39-.86-.84-1.4-.73-.33.07-.31.07-.33-.16a.59.59,0,0,0-.16-.38c-.08-.06-.25,0-.38,0,0,.13.06.26.08.4a1.34,1.34,0,0,1,0,.4c-.11.74.36.86.92.9a.73.73,0,0,1,.29.1C51.75,49,52,48.83,52,48.09Zm-.7,19c.13,0,.31.11.38.05.28-.23.52-.5.78-.76l-.7-.2c-.43-.13-.85-.3-1.28-.41a2.73,2.73,0,0,0-.69,0,1.32,1.32,0,0,0,0,.5A1.51,1.51,0,0,0,51.34,67.07Zm-.26,1.8a1.48,1.48,0,0,1,.29-.06c.27,0,.63.29.69-.31s-.28-.64-.68-.66a7.21,7.21,0,0,0-1.17,0,1.85,1.85,0,0,0-.52.23c.11.24.17.6.35.68A3.26,3.26,0,0,0,51.08,68.87Zm2.39-30.79a3.65,3.65,0,0,0-.56-.43c-1-.42-1.91-.83-2.87-1.23a1.37,1.37,0,0,0-.5,0c.1.15.17.38.31.43,1,.43,2.1.82,3.15,1.22A1.88,1.88,0,0,0,53.47,38.08ZM50,42.54l-.49.14c.12.12.22.29.36.34,1.07.36,2.15.71,3.23,1a1.08,1.08,0,0,0,.29,0c-.06-.08-.11-.2-.19-.23Zm2.72,22.91v.06l.55-.06a2.44,2.44,0,0,0-.51-.21c-.78-.12-1.57-.24-2.36-.33a1.75,1.75,0,0,0-.54.11c.17.1.34.26.52.27C51.2,65.38,52,65.41,52.76,65.45ZM52.19,42l.31.43c.38-.46.37-.3.27.15,0,.11.12.26.18.39a2.42,2.42,0,0,0,.25-.32c.29-.54-.21-.64-.48-.88a2.19,2.19,0,0,1-.3-.41Zm-2.33-2.57-.31.16c.08.08.15.21.25.25.79.26,1.58.51,2.37.75a.75.75,0,0,0,.29,0c0-.06-.08-.16-.14-.18Zm.26,12.67-.45.14c.06.07.11.2.19.22q1.29.28,2.6.53c.09,0,.19,0,.29-.07-.07-.07-.13-.19-.22-.21Zm2.71,14.62.47.64c.12-.14.36-.32.33-.4a5.38,5.38,0,0,0-.5-.83Zm.13-4.9.56-.9a7,7,0,0,0-.88-.39s-.29.31-.25.4A5.09,5.09,0,0,0,53,61.81Zm-.07-11.68a1,1,0,0,0-.23-.17c-.69-.22-1.39-.43-2.09-.63-.06,0-.15.09-.23.14s.12.19.19.21c.7.18,1.41.34,2.12.49A.74.74,0,0,0,52.89,50.13Zm-.27,17.55-.2,0a1.86,1.86,0,0,0-.1.61,2.39,2.39,0,0,0,.3.61c.14-.15.4-.32.38-.44A3.28,3.28,0,0,0,52.62,67.68Zm.92-19.23c-.16-.07-.32-.19-.37-.16-.25.19-.48.42-.71.64.18.08.45.28.53.23A3.39,3.39,0,0,0,53.54,48.44Zm0,14.38-.25-.46c-.06.15-.18.3-.17.44a1.29,1.29,0,0,0,.21.44ZM53.25,60,53,60s0,.09,0,.1a.31.31,0,0,0,.15,0S53.2,60.08,53.25,60Z" transform="translate(-0.32 -0.14)"/><path class="cls-3" d="M54.1,57.49c-1.36-.29-2.73-.57-4.09-.9-.19,0-.3-.39-.45-.59.2-.09.44-.3.61-.26,1.3.33,2.58.7,3.87,1.06Z" transform="translate(-0.32 -0.14)"/><path class="cls-1" d="M8.75,39.83a1,1,0,0,1,.2.09,2.72,2.72,0,0,1,.52,2.13c-.62,1.58-.62,1.58-2.22,1-.33-.12-.67-.22-1-.35s-.56-.26-.84-.39A5.27,5.27,0,0,1,6,41.72c.83-.59,1.67-1.16,2.5-1.74Z" transform="translate(-0.32 -0.14)"/><path class="cls-1" d="M5.52,94.11a15.46,15.46,0,0,1,.2-1.76c.17-.76.7-.92,1.21-.34a6.93,6.93,0,0,1,.94,1.58,16.08,16.08,0,0,1,.59,1.58c.33.92.32,1-.64.89a13.6,13.6,0,0,1-2-.33c-.12,0-.25-.26-.26-.41,0-.4,0-.81,0-1.21Z" transform="translate(-0.32 -0.14)"/><path class="cls-1" d="M39.3,4l-3-.42c-.09,0-.17-.1-.25-.15a2.66,2.66,0,0,1,.23-.19,2.52,2.52,0,0,1,2.66-.49,6,6,0,0,0,1.42.22,3.13,3.13,0,0,1,.56.21,4.76,4.76,0,0,1-.51.33C40,3.67,39.58,3.84,39.3,4Z" transform="translate(-0.32 -0.14)"/><path class="cls-1" d="M46.48,4.91h-.31c-1.06,0-2-.6-3.15-.32-.42.11-1-.32-1.48-.52-.07,0-.13-.27-.1-.3s.45-.49.6-.45c1.43.39,2.84.84,4.26,1.27a3.2,3.2,0,0,1,.3.12Z" transform="translate(-0.32 -0.14)"/><path class="cls-1" d="M51.41,29.07c0,.7,0,.68.65.87.11,0,.17.25.25.38-.12.06-.27.2-.34.17-.53-.24-1-.51-1.55-.77C51.08,30,51,29.16,51.41,29.07Z" transform="translate(-0.32 -0.14)"/><path class="cls-1" d="M7.35,143.72a9.61,9.61,0,0,1,.39-2.17,1.77,1.77,0,0,1,2.68-.89A5,5,0,0,1,13,144.6c.06.39,0,.61-.5.46-1.41-.42-2.84-.81-4.26-1.19-.31-.08-.63-.11-.95-.16ZM8.5,142.6c0,.78.76,1.4,1.82,1.43.14,0,.28-.49.46-.72a2.15,2.15,0,0,1,.47-.33,1.41,1.41,0,0,0,.15-.14s-.07-.09-.11-.11c-.74-.2-1.49-.38-2.22-.59C8.57,142,8.42,142.18,8.5,142.6Zm3.4,1.75-.55-1.1c-.15.22-.45.48-.41.64s.37.41.61.57C11.61,144.49,11.76,144.39,11.9,144.35Z" transform="translate(-0.32 -0.14)"/><path class="cls-1" d="M7.93,144.69c.19-.06.39-.19.57-.16.57.1.56.13,1,.82.05.08.31,0,.47,0,.65,0,1.31,0,2,0a1,1,0,0,1,.07.38c0,.15,0,.31,0,.46a1.25,1.25,0,0,0,.09.28,1,1,0,0,1-.37,0c-1.07-.34-2.15-.67-3.2-1a2.7,2.7,0,0,1-.65-.5Z" transform="translate(-0.32 -0.14)"/><path class="cls-1" d="M11.92,148c-.57.39-1.14.82-1.89.42a1.22,1.22,0,0,1-.2-.17l.27-.07,1.71-.3Z" transform="translate(-0.32 -0.14)"/><path class="cls-1" d="M13,146.46l-.48.82s-.11-.1-.1-.13c.15-.31.31-.61.47-.91Z" transform="translate(-0.32 -0.14)"/><path class="cls-1" d="M12.38,147.78l-.27,0L12,147.7l.35-.27.06.35Z" transform="translate(-0.32 -0.14)"/><path class="cls-1" d="M9.28,147.95l.27,0,0,.07-.23-.13Z" transform="translate(-0.32 -0.14)"/><path class="cls-1" d="M9.3,147.94l-.11-.07.09,0v.13Z" transform="translate(-0.32 -0.14)"/><path class="cls-1" d="M12.11,147.83l-.18.14-.11-.12.16-.15Z" transform="translate(-0.32 -0.14)"/><path class="cls-1" d="M4.85,125.57c.09-.76.15-1.29.23-1.82,0-.07.25-.18.29-.14a1.87,1.87,0,0,1,.56,2,.93.93,0,0,1-.68.4C5.09,126,4.91,125.64,4.85,125.57Z" transform="translate(-0.32 -0.14)"/><path class="cls-1" d="M11.41,123.06l-.16.17Z" transform="translate(-0.32 -0.14)"/><path class="cls-1" d="M6.85,27.62l-.16-.16L6.2,27l-.81-1.14c-.58-1.15-.12-2.29.05-3.43l.61.18.81.81c.05.42.12.84.15,1.27.06.81.11,1.62.12,2.43C7.13,27.26,6.95,27.44,6.85,27.62Z" transform="translate(-0.32 -0.14)"/><path class="cls-1" d="M22.4,113.69v-.19l.14,0Z" transform="translate(-0.32 -0.14)"/><path class="cls-1" d="M17.89,112.95c-.45.2-.68.4-.87.37s-.3-.29-.45-.46c.16-.12.32-.35.47-.34S17.44,112.71,17.89,112.95Z" transform="translate(-0.32 -0.14)"/><path class="cls-1" d="M12.88,112.78c.08-.11.22-.45.37-.46a.66.66,0,0,1,.77.79c0,.27-.31.67-.53.72C12.73,114,13.07,113.3,12.88,112.78Z" transform="translate(-0.32 -0.14)"/><path class="cls-1" d="M53.44,111.22l-.21.26c-.07-.06-.18-.11-.19-.18a.28.28,0,0,1,.13-.23S53.32,111.15,53.44,111.22Z" transform="translate(-0.32 -0.14)"/><path class="cls-1" d="M51.19,75.25l-.08.09s-.06,0-.06,0a.63.63,0,0,1,0-.13Z" transform="translate(-0.32 -0.14)"/><path class="cls-1" d="M50.23,77.82a2.19,2.19,0,0,1-.38-.53c0-.06.23-.22.36-.34Z" transform="translate(-0.32 -0.14)"/><path class="cls-3" d="M50.16,34.73l-.11.72a2.45,2.45,0,0,1,.45-.32c.23-.1.54-.26.71-.18a8.48,8.48,0,0,1,1.43.86,1.51,1.51,0,0,1,.48.6c.06.14,0,.35-.06.53-.15,0-.31-.06-.46-.1-.87-.28-1.75-.55-2.61-.87a.66.66,0,0,1-.36-.49,7.47,7.47,0,0,1,.2-1.19l.48.28Z" transform="translate(-0.32 -0.14)"/><path class="cls-3" d="M53.16,64.85c-1.09-.11-2-.15-3-.33-.23,0-.37-.51-.55-.78.31-.08.72-.32.91-.21.54.32,1.37-.16,1.69.65,0,0,.1,0,.11,0,.14-1.07.63.28.86-.12,0,.15.15.31.12.45A1.14,1.14,0,0,1,53.16,64.85Z" transform="translate(-0.32 -0.14)"/><path class="cls-3" d="M50,31.14c.09,0,.12.05.13.07.6,1,1.8.91,2.61,1.51.19.14.2.54.29.83-.18,0-.4.14-.54.07-.88-.39-1.76-.79-2.6-1.26-.14-.08-.13-.51-.12-.78S49.89,31.29,50,31.14Z" transform="translate(-0.32 -0.14)"/><path class="cls-3" d="M52.75,58.21c-.27.41,0,1.29-.89.75-.26-.15-.67,0-1-.1-.16,0-.31-.22-.43-.36s0-.19-.06-.29a2.83,2.83,0,0,1-.17.25c-.07.09-.16.17-.24.26a2.37,2.37,0,0,1-.16-.35,3.72,3.72,0,0,1-.11-.55c0-.18,0-.37,0-.55.1.13.19.27.3.4s.1,0,.14,0c.2-.1.42-.33.58-.3a11.57,11.57,0,0,1,1.51.55A5.11,5.11,0,0,1,52.75,58.21Z" transform="translate(-0.32 -0.14)"/><path class="cls-3" d="M50.42,44c.4-.05.79.53,1.2,0a6.83,6.83,0,0,1,1.24,1.07c.15.21.15.82-.54.59s-1.51-.48-2.26-.73c-.1,0-.23-.22-.21-.27.13-.33.3-.63.45-.95l.13.28-.12.16.1,0Z" transform="translate(-0.32 -0.14)"/><path class="cls-3" d="M49.73,53.71l.24-.54c.19.16.35.41.57.47.52.14,1.08.17,1.6.3a1,1,0,0,1,.62.41.88.88,0,0,1-.13.74.66.66,0,0,1-.64.12c-.39-.25-1.18,0-1.09-.88a3.25,3.25,0,0,0-.74,0c-.13,0-.23.22-.35.34,0-.18-.05-.37-.07-.55S49.73,54,49.73,53.71Z" transform="translate(-0.32 -0.14)"/><path class="cls-3" d="M52.3,63.07c-.88-.07-1.52-.13-2.16-.16s-.46-.41-.48-.75c0-.54.33-.36.6-.29s.52.16.78.24c.05,0,.12,0,.18,0a7.42,7.42,0,0,1,1.13.07c.11,0,.25.32.22.45A1.37,1.37,0,0,1,52.3,63.07Z" transform="translate(-0.32 -0.14)"/><path class="cls-3" d="M51.57,50.75l.14-.48a4.58,4.58,0,0,0,.51.38,4.52,4.52,0,0,1,1,.51,1,1,0,0,1,.23.81c0,.17-.38.39-.6.4C52.4,52.41,51.6,51.42,51.57,50.75Z" transform="translate(-0.32 -0.14)"/><path class="cls-3" d="M52,41.82c.05.55-.08.92-.8.53a3.3,3.3,0,0,0-.53-.16,1.82,1.82,0,0,1-1-1.71.4.4,0,0,1,.37-.09.75.75,0,0,1,.25.41,1.77,1.77,0,0,1,0,.48l.41-.16A.94.94,0,0,1,52,41.82Z" transform="translate(-0.32 -0.14)"/><path class="cls-3" d="M52,48.09c0,.74-.28.89-.94.52a.73.73,0,0,0-.29-.1c-.56,0-1-.16-.92-.9a1.34,1.34,0,0,0,0-.4c0-.13-.05-.26-.08-.4.13,0,.3-.05.38,0a.59.59,0,0,1,.16.38c0,.23,0,.23.33.16C51.17,47.25,52,47.7,52,48.09Z" transform="translate(-0.32 -0.14)"/><path class="cls-3" d="M51.34,67.07a1.51,1.51,0,0,1-1.47-.81,1.32,1.32,0,0,1,0-.5,2.73,2.73,0,0,1,.69,0c.43.11.85.27,1.28.41l.7.2c-.26.26-.5.53-.78.76C51.65,67.18,51.47,67.09,51.34,67.07Z" transform="translate(-0.32 -0.14)"/><path class="cls-3" d="M51.08,68.87a3.26,3.26,0,0,1-1-.1c-.18-.08-.24-.44-.35-.68a1.85,1.85,0,0,1,.52-.23,7.21,7.21,0,0,1,1.17,0c.4,0,.73.11.68.66s-.42.3-.69.31A1.48,1.48,0,0,0,51.08,68.87Z" transform="translate(-0.32 -0.14)"/><path class="cls-3" d="M53.47,38.08a1.88,1.88,0,0,1-.47,0c-1.05-.4-2.11-.79-3.15-1.22-.14-.06-.21-.28-.31-.43a1.37,1.37,0,0,1,.5,0c1,.39,1.92.81,2.87,1.23A3.65,3.65,0,0,1,53.47,38.08Z" transform="translate(-0.32 -0.14)"/><path class="cls-3" d="M50,42.54l3.19,1.31c.08,0,.13.15.19.23a1.08,1.08,0,0,1-.29,0c-1.08-.34-2.16-.68-3.23-1-.14,0-.24-.22-.36-.34Z" transform="translate(-0.32 -0.14)"/><path class="cls-3" d="M52.87,46.8l-3-.73c-.08,0-.13-.14-.19-.21s.19-.15.25-.13c1,.35,2,.71,3,1.07Z" transform="translate(-0.32 -0.14)"/><path class="cls-3" d="M52.76,65.45c-.78,0-1.56-.08-2.34-.15-.18,0-.34-.18-.52-.27a1.75,1.75,0,0,1,.54-.11c.79.09,1.57.2,2.36.33a2.44,2.44,0,0,1,.51.21l-.55.06Z" transform="translate(-0.32 -0.14)"/><path class="cls-3" d="M52.19,42l.23-.64a2.19,2.19,0,0,0,.3.41c.28.24.78.34.48.88a2.42,2.42,0,0,1-.25.32c-.06-.13-.21-.28-.18-.39.11-.45.11-.61-.27-.15Z" transform="translate(-0.32 -0.14)"/><path class="cls-3" d="M49.86,39.43l2.46.93c.06,0,.09.12.14.18a.75.75,0,0,1-.29,0c-.79-.24-1.59-.49-2.37-.75-.1,0-.17-.16-.25-.25Z" transform="translate(-0.32 -0.14)"/><path class="cls-3" d="M50.11,52.1l2.41.61c.09,0,.15.14.22.21-.1,0-.2.09-.29.07q-1.3-.25-2.6-.53c-.07,0-.13-.14-.19-.22Z" transform="translate(-0.32 -0.14)"/><path class="cls-3" d="M52.82,66.71l.3-.59a5.38,5.38,0,0,1,.5.83c0,.08-.22.26-.33.4Z" transform="translate(-0.32 -0.14)"/><path class="cls-3" d="M53,61.81a5.09,5.09,0,0,1-.57-.88c0-.1.21-.42.25-.4a7,7,0,0,1,.88.39Z" transform="translate(-0.32 -0.14)"/><path class="cls-3" d="M52.89,50.13a.74.74,0,0,1-.24,0c-.71-.16-1.42-.32-2.12-.49-.08,0-.13-.14-.19-.21s.17-.15.23-.14c.7.2,1.4.41,2.09.63A1,1,0,0,1,52.89,50.13Z" transform="translate(-0.32 -0.14)"/><path class="cls-3" d="M52.62,67.68a3.28,3.28,0,0,1,.37.81c0,.12-.24.29-.38.44a2.39,2.39,0,0,1-.3-.61,1.86,1.86,0,0,1,.1-.61Z" transform="translate(-0.32 -0.14)"/><path class="cls-3" d="M53.54,48.44a3.39,3.39,0,0,1-.56.71c-.08.06-.35-.14-.53-.23.23-.22.46-.45.71-.64C53.21,48.25,53.38,48.37,53.54,48.44Z" transform="translate(-0.32 -0.14)"/><path class="cls-3" d="M53.51,62.82l-.21.43a1.29,1.29,0,0,1-.21-.44c0-.14.11-.3.17-.44Z" transform="translate(-0.32 -0.14)"/><path class="cls-3" d="M51.13,33.59c.45.17.9.33,1.35.51.07,0,.1.15.16.24a.74.74,0,0,1-.29,0c-.43-.21-.85-.44-1.28-.66Z" transform="translate(-0.32 -0.14)"/><path class="cls-3" d="M51.06,33.66l-1.43-.45s0-.13.05-.2l1.44.57Z" transform="translate(-0.32 -0.14)"/><path class="cls-3" d="M53.25,60c0,.05-.06.1-.09.1a.31.31,0,0,1-.15,0s0-.06,0-.1Z" transform="translate(-0.32 -0.14)"/><path class="cls-3" d="M50.32,34.56l.06.32-.22-.16Z" transform="translate(-0.32 -0.14)"/><path class="cls-3" d="M52.86,46.81l.21,0-.06.08-.14-.14Z" transform="translate(-0.32 -0.14)"/><path class="cls-3" d="M53.69,38.34l-.09-.05h0a.23.23,0,0,1,0,.06Z" transform="translate(-0.32 -0.14)"/><path class="cls-3" d="M53.68,38.35l.06,0,0,0Z" transform="translate(-0.32 -0.14)"/><path class="cls-3" d="M8.5,142.6c-.08-.42.07-.6.57-.45.74.21,1.48.39,2.22.59,0,0,.07.07.11.11a1.41,1.41,0,0,1-.15.14,2.15,2.15,0,0,0-.47.33c-.18.23-.32.72-.46.72C9.26,144,8.5,143.38,8.5,142.6Z" transform="translate(-0.32 -0.14)"/><path class="cls-3" d="M11.9,144.35c-.14,0-.29.15-.35.1-.23-.16-.54-.34-.61-.57s.26-.42.41-.64Z" transform="translate(-0.32 -0.14)"/><path class="cls-1" d="M50.42,44v.2l-.1,0,.12-.16Z" transform="translate(-0.32 -0.14)"/></g></g></g></g></svg>