<svg xmlns="http://www.w3.org/2000/svg" viewBox="0 0 54.12 160.02"><defs><style>.cls-1{fill:#a28369;}.cls-2{fill:#eedcc1;}.cls-3{fill:#6b5640;}.cls-4{fill:#370b07;}.cls-5{fill:#b5c5e8;}</style></defs><title>Asset 17</title><g id="Layer_2" data-name="Layer 2"><g id="runa"><g id="runa-18"><g id="runa-18-svg_Image" data-name="runa-18-svg Image"><path class="cls-1" d="M54.27,16.09v1l-.2.45c-.15-.27-.32-.53-.44-.8,0-.11.05-.3,0-.4a6.47,6.47,0,0,0-3.15-2.94,5.71,5.71,0,0,0-2.06-.09.41.41,0,0,0-.28.2c-.3.52-1,.85-.73,1.64,0,.11-.14.39-.27.43-.41.13-.43.45-.58.77a3,3,0,0,0,0,1.81c.16,1.35.22,2.71.29,4.07a4.15,4.15,0,0,1-.09,1.09,1.29,1.29,0,0,0,.33,1.38c.15.14.12.53.1.81,0,.67-.34,1.41-.14,2a4.76,4.76,0,0,1,.09,1.91c0,.26,0,.71.14.76.6.24.34.66.33,1.05s.06.62.06.93c0,.51.18,1.12,0,1.5-.39.65-.86,1.19-.43,2,0,0,0,.09,0,.14-1.64.62-3.27,1.25-4.92,1.86-2.27.84-4.54,1.66-6.82,2.46-.42.15-.61.31-.59.78,0,.78,0,1.56,0,2.33a.75.75,0,0,0,.55.83c1.91.78,3.82,1.55,5.69,2.41,1.14.52,2.22,1.19,3.33,1.79l3.19,1.73a2.51,2.51,0,0,0-.63,0,.41.41,0,0,0-.23.33c.14.68.32,1.35.46,2a.7.7,0,0,1-.1.44,1.07,1.07,0,0,0,.66,1.61c.11,0,.19.18.28.27-2.45,0-4.91,0-7.36-.1-1.71,0-3.42-.12-5.13-.21-.45,0-.58.13-.56.56a20,20,0,0,1,0,2.33c-.05.67.2.83.83.83,2.71,0,5.42.08,8.13.13a2.7,2.7,0,0,1,.39.06,2.28,2.28,0,0,1-.26.3c-.5.42-1,.86-1.53,1.25-2.17,1.58-4.36,3.14-6.53,4.71a2.4,2.4,0,0,0-.44.49c-.73.94-.39,2-.42,3.07,0,.1.34.28.52.28,2.52,0,5-.05,7.56-.07,1.81,0,3.63,0,5.44,0-.13,1-.55,1.92-.13,2.94.11.25-.07.62-.09.93s0,.92,0,1.38a2.53,2.53,0,0,0,.07.78c.17.48.55.92.57,1.39.08,1.68,0,3.37,0,5.06A6.42,6.42,0,0,1,49,81.93a3.2,3.2,0,0,1-.32,1,2.3,2.3,0,0,0,0,2.46c.23.24.32.25.46-.11A15.16,15.16,0,0,1,50,83.94a5,5,0,0,0,.68-1.5,16.41,16.41,0,0,0,0-2.41c.08-.12.23-.23.23-.35q0-1.12,0-2.25c0-.13-.14-.25-.21-.38,0-.3,0-.59,0-.89a1.44,1.44,0,0,1,.07-.27c.05.09.14.17.15.26,0,.91.06,1.82.09,2.74,0,.35,0,.7,0,1,.1-.3.2-.6.31-.89a1.05,1.05,0,0,1,.21-.25.89.89,0,0,1,.12.29c0,.85,0,1.69,0,2.54,0,.41.17.81.16,1.21,0,.81-.1,1.62-.17,2.42,0,.4.16.56.54.52-.59.65-.41,1.48-.57,2.24a1.26,1.26,0,0,0,.43,1.21.36.36,0,0,0,.29,0,6.11,6.11,0,0,0,.42-1.43A9.44,9.44,0,0,0,52.7,86c0-.1-.25-.16-.39-.25a5.83,5.83,0,0,0,.4-1.4c0-1.47,0-2.94,0-4.41,0-1.29-.09-2.58-.13-3.88,0-.45,0-.9,0-1.34,0-.1-.17-.29-.23-.28-.48.11-.58.06-.6-.48,0-1.15-.47-2.34.23-3.45a.23.23,0,0,0,0-.14,17,17,0,0,1-.27-2.2,24.06,24.06,0,0,1,.23-3c.06-.5.34-1,.4-1.49s0-1.2,0-1.8c.11-2.27.27-4.55.33-6.82.06-2.1,0-4.2,0-6.29a25.91,25.91,0,0,0-.15-6c0-.09,0-.18,0-.28,0-.54,0-1.07,0-1.61a12.16,12.16,0,0,1-.17-1.66c.07-.89.29-1.76.4-2.64s.2-1.76.24-2.65c0-1.09,0-2.18,0-3.27a5.94,5.94,0,0,0,.07-.76,16.63,16.63,0,0,1,0-4.38,3.38,3.38,0,0,0,.1-1.14c-.14-.67.08-.87.7-.76,0,.28,0,.56,0,.84-.11,7.74-.25,15.47-.35,23.21Q53.58,60.8,53.46,74q-.24,23.6-.47,47.21c0,4.15-.11,8.3-.16,12.45l-.2-.37c-.25-.43.24-1.31-.78-1.28,0-.11,0-.22,0-.33a3.5,3.5,0,0,0,0-.77c0-.09-.34-.22-.38-.18-.31.29-.59.61-.88.93-.67.15-.75.63-.66,1.2l.29,0,.06,0,.15,0a1.36,1.36,0,0,1-1.05,1.58c-.69.18-.07.74-.31,1l.62.07c.22,0,.45,0,.66,0,0,0,.09.27.09.28-.21.08-.44.14-.65.22s-.35.09-.4.19a.61.61,0,0,0,.09.46c0,.06.23,0,.33.06s.24.13.24.2a3.93,3.93,0,0,1-.11.66c-.11.59-.53,1.18,0,1.76.17.17.13.25,0,.36s-.12.22-.09.26c.69.84.35,1.69.07,2.57-.15.45.12,1-.31,1.41,0,0,0,.13,0,.2a2.79,2.79,0,0,1-.43,2.36,1,1,0,0,0-.15.58c0,.33.09.67.08,1s.24.88-.41.32a.25.25,0,0,0-.21.07,5,5,0,0,0-.14.78,6.28,6.28,0,0,0,0,.7c-.07-.25-.14-.5-.21-.74a1.86,1.86,0,0,0-.11-.24c-.06,0-.16.06-.16.08.06.83-.75.68-1.13,1s-.51.42-.75,0c0,0-.24,0-.26.08-.11.4.32.44.43.62.42.69.56.56.72-.1,0,0,.07-.05.1-.08a3.36,3.36,0,0,1,.38,1c0,.19-.34.4-.55.58s-.42.3-.62.46c-.48.35-.93,1-1.43,1a3.34,3.34,0,0,0-1.36.49,21.77,21.77,0,0,1-3.15,1.36,25.66,25.66,0,0,1-3.51.82c-1.56.27-3.16.32-4.68.69a26.56,26.56,0,0,1-5.39.45,26.94,26.94,0,0,1-3.44-.21,49,49,0,0,1-6.34-.69c-1.16-.26-2.35-.37-3.49-.66-.53-.13-.51.08-.51.43-.43-.15-.53-.35-.13-.67s.71-.6,1-.93a2.43,2.43,0,0,0,.3-.46,2.3,2.3,0,0,0-.58,0,2.54,2.54,0,0,0-.5.24l-2,.84c-.39-.17-.68-.15-.77.35s-.32.48-.67.21c-.52-.4-1.06-.77-1.59-1.16-.31-.22-.52-.24-.56.22a4.72,4.72,0,0,1-.64-.64A26,26,0,0,0,4.47,151c-.68-.73-1.3-1.52-1.94-2.29a.8.8,0,0,1-.22-.42q-.08-3.62-.13-7.23c0-1.37,0-2.73,0-4.1.09.16.17.33.26.49s.1.08.15.12a.51.51,0,0,0,.06-.16c0-.65.11-1.34-.52-1.82L2,128.22l.5.56a8.23,8.23,0,0,0-.23-.9c-.05-.14-.21-.24-.31-.35l-.06-3.84a2.16,2.16,0,0,0,.14.24c.09.12.19.24.29.36a3.18,3.18,0,0,0,.11-.45A1.94,1.94,0,0,0,1.89,122v-1.44c.1.21.19.41.3.61s.1.08.15.12.1-.1.1-.14c0-.4.1-.89-.56-.86-.05-2.22-.11-4.44-.15-6.66q-.14-8-.26-16a10.57,10.57,0,0,1,.13-1.25c0-.28,0-.56,0-.84,0-.61-.08-1.23-.13-1.84l-.12-4.52a1.4,1.4,0,0,0,.16-.44q0-2.89,0-5.78c0-.14-.15-.28-.24-.43l0-2.85a1.8,1.8,0,0,0,.12-.44c0-1.49,0-3,0-4.48,0-.37,0-.75,0-1.12,0-.06-.15-.12-.23-.17l0-2.12A1.07,1.07,0,0,0,1.18,71c0-1.9,0-3.8,0-5.7,0-.15-.15-.29-.23-.44l0-2.28A1.63,1.63,0,0,0,1,62.09c0-1.39,0-2.78,0-4.17a2.11,2.11,0,0,0-.21-.61q0-2.46-.08-4.93Q.68,48.18.62,44l0-2.12L.48,35.06l0-2.4c0-.28-.08-.56-.08-.84Q.29,24.94.21,18.05L1.51,14a5.1,5.1,0,0,0,.83-.71A11,11,0,0,0,3.13,12a1.43,1.43,0,0,0,.22-.49,3,3,0,0,0,0-.64,4.19,4.19,0,0,0-.41.48c-.15.23-.15.61-.59.51a2.19,2.19,0,0,0,0-.56A2.09,2.09,0,0,1,3,9.11a13.32,13.32,0,0,1,4.75-3A3.2,3.2,0,0,1,8.42,6a4.44,4.44,0,0,1-.54.37c-.25.13-.54.19-.79.32-.61.32-1.22.66-1.82,1-.08,0-.13.17-.19.25a.72.72,0,0,0,.26,0c.7-.26,1.39-.56,2.1-.8,1.31-.44,2.62-.86,3.94-1.28L9.69,7.76l-.41.57H10c-.64.33-1.12,1-2,.83-.12,0-.35.15-.45.3a3.91,3.91,0,0,0-.48.93c-.08.25-.15.69,0,.77a1.12,1.12,0,0,0,.85.09c.6-.19,1.17-.47,1.75-.71L12,12.66c.07-.09.23-.23.21-.25a11.58,11.58,0,0,0-1.32-1.78c-.19-.19-.73,0-1.11,0a.45.45,0,0,1-.13,0c-.05-.22-.22-.52-.14-.65a.5.5,0,0,1,.91,0,2.93,2.93,0,0,0,.4.36c.09-.18.19-.35.27-.53.39-.83-.34-1.15-.75-1.61l.31-.48,2.09-2.05a1.53,1.53,0,0,0,.35,0A66.22,66.22,0,0,1,27,4.07a34.88,34.88,0,0,1,5,.13c1,.12,2.11.18,3.16.27l2.48.21c1.07.22,2.15.4,3.21.65A28.51,28.51,0,0,1,48.71,8c.48.28,1,.57,1.43.85.53.49,1,1,1.58,1.47a.67.67,0,0,0,.5.13c.09,0,.2-.26.19-.39-.06-.78-.17-1.56-.24-2.33,0-.29,0-.59,0-.88A4.15,4.15,0,0,1,53,10.15l-.41,1.57h0l-.14.29a6.58,6.58,0,0,0,.34,1.4C53.23,14.33,53.77,15.2,54.27,16.09ZM30.06,140l-.13-.15c-.55-1-.72-1.06-1.43-.21a2,2,0,0,0-.23.26,1,1,0,0,0-.06.29c.08,0,.2-.05.24-.11a.87.87,0,0,1,1.47-.22l.15.13.05,0Zm18.36-4.21a1.79,1.79,0,0,0,.17.19s.07,0,.11,0l-.18-.23-.38-.46-.23.42Zm-10.7,2.77-.17-.09,0,0,.17.1c.17.22.33.44.51.65a1.7,1.7,0,0,0,.2-.13l-.55-.52A.53.53,0,0,0,37.71,138.55Zm-5.23.9c.4-.3.74,0,1.08.14l.2.21,0,0-.21-.19-.62-.68-.55.53,0,.09ZM42.08,152c-.16.29-.34.59-.49.89,0,0,.06.22.09.21a2.41,2.41,0,0,0,.53-.12s.07-.14.06-.21c0-.25-.1-.5-.16-.75.08-.08.21-.15.23-.25a3.22,3.22,0,0,0,0-.57l-.59.15a3.36,3.36,0,0,1,.25.37A.9.9,0,0,1,42.08,152Zm2.3,0c.23-.23.38-1.2.18-1.34a.68.68,0,0,0-.44,0c-.05,0-.08.14-.12.21.48.26.06.8.35,1.12l-.47.1.08.17Zm.52-15.34c-.29.22-.46.9-1,.25a.18.18,0,0,0-.18,0,.18.18,0,0,0,0,.18c.21.24.44.46.66.69a6.09,6.09,0,0,0,.43-.59,1.88,1.88,0,0,0,.13-.46l0-.1Zm-9.32,1.87c-.46.18-.66,1-1.38.53l-.31-.33-.09.09.34.3.73.58.71-1.17,0,0Zm9.79,13,.27-.08.49-.2c-.14-.11-.38-.2-.39-.32,0-.31-1-.11-.39-.72-.08,0-.22-.13-.25-.11s-.31.26-.31.4.17.43.29.44c.5,0,.25.33.24.55l-.35.15.12.14ZM31.9,139c-.23.12-.46.26-.7.35a.75.75,0,0,1-.49.08A4.33,4.33,0,0,1,30,139c.18.26.35.52.54.77a.57.57,0,0,0,.27.22c.13,0,.35.06.41,0,.25-.3.45-.63.67-1l0-.05Zm8.94,14.18.29-.28c.49-.25.34-.65.12-.94s-.59-.32-.68-.24a3.9,3.9,0,0,0-.82,1.13c0,.1.31.45.55.58S40.65,153.27,40.83,153.17Zm7.35-28.62.22,0c-.12.79-.25,1.58-.34,2.38a1.8,1.8,0,0,0,.13.57,4.35,4.35,0,0,0,.41-.5,1,1,0,0,0,.1-.41c.24-1.89.47-3.78.7-5.67a1,1,0,0,0-.11-.37c-.1.07-.27.13-.3.22-.2.72-.37,1.44-.55,2.17s-.44,1.28-.68,1.91a1,1,0,0,1-.2.25.9.9,0,0,1-.08-.31c.12-1,.26-2,.39-3.08a2.89,2.89,0,0,0,0-.54c-.16.11-.43.18-.47.32a7.91,7.91,0,0,0-.29,1.46c-.08.77-.13,1.55-.14,2.32,0,.19.2.38.3.57.18-.12.42-.2.53-.37A6.67,6.67,0,0,0,48.18,124.56Zm-3,23.36c.1-.07.25-.11.3-.2a5.8,5.8,0,0,0,.83-4c-.41-2.2-1.39-2.77-3.14-2.27a5.57,5.57,0,0,0-4,6.31A2.79,2.79,0,0,0,42.83,150a3.1,3.1,0,0,0,2.38-2.11Zm4-69.35c-.18-1-.36-2.07-.55-3.1A3.36,3.36,0,0,0,45,72.75l-9.4.29c-.35,0-.51.09-.5.48,0,.89,0,1.79,0,2.69,0,.4.13.54.53.53,1.15,0,2.31-.05,3.46-.09,2-.06,3.91-.15,5.86-.19a1.61,1.61,0,0,1,1.76,1,4,4,0,0,1-.13,3.35,2.26,2.26,0,0,1-1.3,1,35.1,35.1,0,0,1-4.19.47c-1.8.13-3.61.18-5.41.29-.18,0-.5.2-.51.33-.07.95-.1,1.9-.1,2.85,0,.13.22.38.34.38,1.48,0,3,0,4.45,0s3-.37,4.54-.38a4.42,4.42,0,0,0,3.9-2.61A15.51,15.51,0,0,0,49.19,78.57Zm-.42,11.84c0-.38,0-.76,0-1.13a3.77,3.77,0,0,0-.09-.52,4.14,4.14,0,0,0-.45.28c-1.44,1.19-2.89,2.37-4.32,3.57-.38.32-.57.28-.84-.13a4.17,4.17,0,0,0-5.5-1.32,4.5,4.5,0,0,0-2.39,3.63c-.2,2.13-.15,4.29-.22,6.44,0,.38.18.39.5.36,2.7-.27,5.41-.46,8.11-.79,1.56-.19,3.1-.58,4.65-.84.53-.09.57-.38.53-.8a13.6,13.6,0,0,1-.11-1.89c0-.65-.27-.71-.76-.61-.69.14-1.38.31-2.07.44s-.65-.65-.95-1,0-.48.19-.68c.84-.72,1.65-1.47,2.51-2.17A2.67,2.67,0,0,0,48.77,90.41ZM39.52,24.89a10,10,0,0,0,2.62,6.56,1.45,1.45,0,0,0,2.51-.06,6.94,6.94,0,0,0,1.15-1.92,10.35,10.35,0,0,0,.38-5A14,14,0,0,0,44.08,19a5.63,5.63,0,0,0-.45-.62c-.25-.32-.56-.39-.84-.08a12.38,12.38,0,0,0-2.19,2.66A22.12,22.12,0,0,0,39.52,24.89Zm-1.35,99a7.19,7.19,0,0,0-4.57,2.54,1,1,0,0,0-.06.32c.1,0,.23,0,.31,0,.28-.18.53-.38.8-.57a4.91,4.91,0,0,1,2.69-1.28,1.92,1.92,0,0,1,.67.26,1.89,1.89,0,0,1-.27.61c-.36.36-.78.68-1.18,1a2.7,2.7,0,0,1-.34.21c0-.15,0-.3,0-.45s0-.49,0-.73a5.13,5.13,0,0,0-.69.53,1.33,1.33,0,0,0-.2.52c-.3,1-.58,2-.91,3a1.14,1.14,0,0,1-.47.53c-.31.19-.94.24-.12.65.09,0,.1.27.12.41s0,.38,0,.57c.22-.1.57-.15.64-.32.28-.69.92-.7,1.47-.86a4.52,4.52,0,0,0,2.3-1.43,1.46,1.46,0,0,0-.54-2.49c-.38-.18-.18-.25,0-.41a8.07,8.07,0,0,0,1.14-1.33C39.35,124.38,39,123.9,38.17,123.87ZM7.45,32.24l-.15.05a1.45,1.45,0,0,0,.14.41c1,1.38,2,2.77,3.06,4.12.37.48.71.87.11,1.41a3.33,3.33,0,0,0-.51.76c-.75,1.23-1.49,2.45-2.22,3.69a1.56,1.56,0,0,0-.09.52A1.58,1.58,0,0,0,8.3,43c.34-.38.62-.82,1-1.2.93-1.08,1.9-2.13,2.81-3.22s.83-1,0-1.91c-1.37-1.39-2.79-2.73-4.2-4.09A3.53,3.53,0,0,0,7.45,32.24Zm37,94.45.2.41c.1-.12.27-.22.3-.35a8.19,8.19,0,0,1,1.86-3.66c.07-.07,0-.25,0-.39s-.32,0-.38,0c-.25.3-.47.63-.7,1-.08.11-.14.3-.23.31a.38.38,0,0,1-.32-.21c0-.1.12-.23.15-.36s.09-.4.13-.59c-.18.06-.43.06-.54.19-.34.38-.63.82-.95,1.22,0,.05-.25.05-.25,0-.13-.55-.37-.22-.5,0s-.3.63-.49.92c-.64,1-1.28,2.07-2,3.07-.11.16-.44.19-.68.23,0,0-.2-.25-.17-.33a2.27,2.27,0,0,1,.38-.5c.48-.56,1-1.1,1.42-1.7a.69.69,0,0,0-.12-.67.85.85,0,0,0-.74,0,3.61,3.61,0,0,0-1.77,2.52,1.55,1.55,0,0,0,.28,1.25c.43.39,1,.11,1.4-.25s.76-.83,1.13-1.24l.36-.41a5.09,5.09,0,0,0,0,.52c0,.21,0,.42.08.63a2.75,2.75,0,0,0,.5-.44,4.89,4.89,0,0,0,.22-.59q.76-1.5,1.55-3c0-.09.16-.14.24-.22a1.37,1.37,0,0,1,0,.33C44.76,125.15,44.61,125.88,44.45,126.69Zm-31.36-85c-.14-.05-.27-.15-.33-.12a2.15,2.15,0,0,0-.44.34,30.34,30.34,0,0,0-4,4.72c-.37.51-.48.91.08,1.37.35.3.57.75.9,1.08,1.19,1.2,2.39,2.38,3.6,3.56a1.26,1.26,0,0,0,.43.17,1.74,1.74,0,0,0-.12-.43,7.66,7.66,0,0,0-.58-.88c-1-1.3-2-2.59-3-3.9a.71.71,0,0,1-.06-.65c1-1.47,2-2.92,3-4.38C12.69,42.28,12.86,42,13.09,41.65ZM7.13,13a1,1,0,0,0-.22.08,1.26,1.26,0,0,0,.08.39,13.22,13.22,0,0,0,2.66,3.49c.8.87.75.84.16,1.83-.9,1.49-1.74,3-2.58,4.53a1.71,1.71,0,0,0-.09.56,1.89,1.89,0,0,0,.44-.32c1.46-1.9,2.91-3.8,4.34-5.72a.6.6,0,0,0,0-.58C10.5,16,9.12,14.77,7.74,13.54Zm6.52,48c-.24,0-.37,0-.45.1A25.56,25.56,0,0,0,8.63,66a.66.66,0,0,0,.1.6q2.19,2.48,4.43,4.92a3,3,0,0,0,.69.43,3.2,3.2,0,0,0-.3-.8c-1-1.37-2-2.72-3-4.07-.78-1-.73-.66,0-1.67.91-1.26,1.85-2.49,2.77-3.74C13.37,61.51,13.46,61.34,13.65,61ZM8,51.44l-.15.06a1.6,1.6,0,0,0,.14.45c1.09,1.56,2.18,3.12,3.3,4.65.22.3.29.44,0,.81-1,1.4-2,2.85-2.94,4.3a1.41,1.41,0,0,0-.1.51,1.69,1.69,0,0,0,.4-.24c1.48-1.57,3-3.15,4.42-4.75a.6.6,0,0,0-.08-.56C11.53,55,10,53.39,8.42,51.75A4.35,4.35,0,0,0,8,51.44ZM13.8,80.23l-.27.15a21.72,21.72,0,0,0-4.59,4.41.59.59,0,0,0,0,.55,31.58,31.58,0,0,0,4.61,5.43,5.29,5.29,0,0,0,.43.3,1.78,1.78,0,0,0-.14-.57c-.91-1.36-1.83-2.72-2.78-4.05s-.93-1.29.08-2.48,1.78-2.19,2.65-3.3a1.27,1.27,0,0,0,.14-.37ZM12.35,21.85c0-.05-.11-.14-.13-.14a1,1,0,0,0-.35.21c-1.49,1.91-3,3.83-4.45,5.76-.08.1,0,.45.14.58Q9.4,30.18,11.28,32a9.25,9.25,0,0,0,1.18.89.87.87,0,0,0,.32.07,1.21,1.21,0,0,0,0-.32,1.11,1.11,0,0,0-.19-.29C11.38,31,10.23,29.55,9,28.17a.68.68,0,0,1,0-1c1-1.51,2-3.06,3-4.59A6.88,6.88,0,0,0,12.35,21.85ZM13.8,76.34l-.33-.4L11.53,73.7c-.81-.94-1.62-1.88-2.45-2.8a2,2,0,0,0-.61-.31,2.19,2.19,0,0,0,.19.62c1,1.5,2,3,3.07,4.47.29.4.39.62,0,1.1-1,1.24-2,2.58-2.91,3.89a1.45,1.45,0,0,0-.13.5,1.67,1.67,0,0,0,.41-.22q2.24-2.16,4.46-4.33C13.64,76.53,13.71,76.44,13.8,76.34Zm.08,18.91c-.11-.15-.21-.29-.31-.41l-.64-.74c-1.25-1.5-2.5-3-3.76-4.5a2.3,2.3,0,0,0-.49-.34,2,2,0,0,0,.14.63c.81,1.31,1.61,2.64,2.49,3.91s1,1.33-.15,2.61c-.79.9-1.5,1.87-2.22,2.82a1.28,1.28,0,0,0-.12.45c.16,0,.36-.05.48-.15q2.2-2,4.38-4A2.08,2.08,0,0,0,13.88,95.25Zm.41,14.62c-.31-.54-.5-.91-.74-1.26q-1.49-2.18-3-4.33a.59.59,0,0,1,.07-.89c1.08-1.18,2.12-2.39,3.16-3.61a1.8,1.8,0,0,0,.21-.6,1.82,1.82,0,0,0-.56.22c-1.44,1.27-2.88,2.55-4.29,3.86a.69.69,0,0,0,0,.66c1,1.43,2,2.86,3.11,4.25a16.43,16.43,0,0,0,1.58,1.61C13.89,109.83,14,109.81,14.29,109.87Zm.1,7.84c-.3,0-.5,0-.61.1q-2.21,1.76-4.38,3.56a.57.57,0,0,0-.06.54,34.86,34.86,0,0,0,4.48,6.19c.12.14.36.17.55.25a1.79,1.79,0,0,0-.14-.5c-1.12-1.77-2.23-3.54-3.38-5.29a.64.64,0,0,1,.07-1c1-1,1.94-2,2.9-3.08A8.75,8.75,0,0,0,14.4,117.71ZM14,113.85c-.11-.15-.2-.29-.3-.41l-1.44-1.83q-1.56-2-3.13-3.9a1.3,1.3,0,0,0-.34-.22,1.36,1.36,0,0,0,.09.38c1.06,1.77,2.09,3.55,3.2,5.29.25.4.19.55-.09.86-.94,1-1.84,2.13-2.73,3.21a1.83,1.83,0,0,0-.2.61,1.86,1.86,0,0,0,.56-.21c1.37-1.14,2.74-2.3,4.1-3.45A2.28,2.28,0,0,0,14,113.85Zm.21,22.36-.16.06a15.33,15.33,0,0,0-4.46,3,.65.65,0,0,0-.09.6A28.43,28.43,0,0,0,14,146.12a1.61,1.61,0,0,0,.4.22,1.49,1.49,0,0,0-.11-.43c-.92-1.53-1.88-3-2.78-4.58-.77-1.31-.72-1.3.41-2.31.84-.75,1.59-1.59,2.37-2.41a1.1,1.1,0,0,0,.15-.36Zm.07-3.76-.23-.31c-.73-1-1.44-1.91-2.18-2.85s-1.67-2.09-2.52-3.13c-.06-.08-.22-.08-.33-.12a1,1,0,0,0,.07.23c1.1,1.83,2.2,3.67,3.33,5.48.18.3.2.42-.07.68-1,.92-1.9,1.89-2.83,2.85a1.68,1.68,0,0,0-.23.53,1.36,1.36,0,0,0,.52-.1c1.43-1,2.85-2,4.27-3A1.41,1.41,0,0,0,14.3,132.45ZM9.58,153.34a2.45,2.45,0,0,0,.37-.14l3.92-2.37c.3-.18.27-.37,0-.62a9.89,9.89,0,0,1-.74-.94l-3.61-5a1.33,1.33,0,0,0-.33-.24,1.16,1.16,0,0,0,.06.38c.94,1.73,1.85,3.48,2.86,5.18.3.51.2.68-.2,1-.86.73-1.65,1.54-2.47,2.32a.41.41,0,0,0-.14.29C9.34,153.25,9.5,153.3,9.58,153.34Zm19.61-37.68h0a8.83,8.83,0,0,0,0-1.27c0-.14-.28-.32-.45-.34s-.32.22-.35.36a4.64,4.64,0,0,0,0,.84,2.5,2.5,0,0,1,0,.32,2.15,2.15,0,0,1-.27-.2c-.39-.39-.76-.82-1.18-1.18s-.69-.26-.71.22a20.77,20.77,0,0,0,.09,2.43c0,.12.25.34.31.32a.7.7,0,0,0,.41-.35A4.7,4.7,0,0,0,27,116a1.63,1.63,0,0,1,.1-.31,1.16,1.16,0,0,1,.28.17,11.79,11.79,0,0,0,.88,1,2.22,2.22,0,0,0,.73.28,3.63,3.63,0,0,0,.17-.61A7.92,7.92,0,0,0,29.19,115.66ZM23.66,114c-1.25-.1-1.25-.1-1.21,1.08,0,0,0,.09,0,.14,0,1.9,0,1.9,1.94,1.87,0,0,.11,0,.14,0l.43-.31c-.14-.14-.26-.36-.42-.4s-.61,0-.91,0c-.12,0-.22-.17-.32-.26a1.12,1.12,0,0,1,.32-.19c.16,0,.34,0,.49,0a2.88,2.88,0,0,0,.54-.34,2.34,2.34,0,0,0-.5-.31c-.17-.06-.38,0-.56,0s-.21-.14-.31-.21c.11-.09.22-.23.34-.24.3,0,.62,0,.91,0s.3-.2.45-.31c-.14-.14-.25-.37-.41-.41A4.11,4.11,0,0,0,23.66,114Zm10.51,1.26h0c0,.42,0,.85,0,1.27a.46.46,0,0,0,.35.29.71.71,0,0,0,.45-.29,1.92,1.92,0,0,0,.19-.55c.18.13.37.24.55.38s.15.23.24.25a5.56,5.56,0,0,0,.76,0c-.06-.18-.07-.4-.19-.53-.29-.3,0-.48.06-.73a2,2,0,0,0,.06-1.24,1.37,1.37,0,0,0-1-.47c-1.45,0-1.45,0-1.44,1.45C34.17,115.18,34.17,115.23,34.17,115.28Zm-2.35-1.35v0a5.59,5.59,0,0,1-.63,0c-.54-.06-.76.12-.71.7s0,1.32.05,2c0,.15.2.4.31.41a13.08,13.08,0,0,0,1.83-.08c.12,0,.26-.28.29-.44s-.22-.26-.36-.27c-.32,0-.66,0-1,0-.08,0-.16-.12-.25-.19.08-.07.14-.19.23-.21.25,0,.52,0,.77-.08s.31-.24.3-.34a.51.51,0,0,0-.34-.32c-.2,0-.42,0-.63,0s-.23-.15-.35-.24c.11-.07.21-.19.32-.21a6.63,6.63,0,0,0,.91-.07c.15,0,.25-.29.37-.44a1.5,1.5,0,0,0-.43-.23A4.18,4.18,0,0,0,31.82,113.93Zm9,1.46-.14-.08a1.13,1.13,0,0,0,0-.28c-.06-.21-.14-.59-.2-.59a8.68,8.68,0,0,0-1.14.22,2.58,2.58,0,0,0,.17.52c.06.1.2.15.3.22-.14.08-.3.26-.4.23s-.6-.19-.67-.37a1,1,0,0,1,.09-.89,1,1,0,0,1,.89-.29.46.46,0,0,0,.69-.34c0-.11-.28-.41-.48-.46a1.54,1.54,0,0,0-1.6.5,1.64,1.64,0,0,0-.43,1.63c.24.87.91,1.11,2.43.78C40.52,116.14,40.64,115.67,40.8,115.39Zm5.12-1.84h0c0,.33,0,.66,0,1s.1.55.55.43a1.76,1.76,0,0,0,1.39-2.18c-.09-.49-.21-1-.89-1-.85,0-1.06.28-1.06,1.11C45.92,113.12,45.92,113.33,45.92,113.55Zm2.55-.88h0c0,.3,0,.61,0,.91s0,.46.07.54c.41.33.6-.81,1.1-.2.08-.11.21-.21.22-.32.07-.54.12-1.08.14-1.62s0-.92-.52-1a.93.93,0,0,0-1,1C48.46,112.2,48.46,112.43,48.46,112.67Zm-6,2.56-.25.17.4.47a2.47,2.47,0,0,0,.4-.59c.12-.37.12-.78.23-1.15s.34-.72.48-1.1a1.24,1.24,0,0,0,0-.44c-.16,0-.38,0-.46.1a3.66,3.66,0,0,0-.38.66c-.07.12-.15.23-.22.34l-.25-.29c-.06-.07-.09-.2-.16-.23-.24-.09-.49-.14-.74-.21a2.32,2.32,0,0,0,.11.59C41.86,114.12,42.16,114.67,42.45,115.23ZM13.35,47c-.22-.23-.5-.77-.84-.81s-.85.43-1,.78A1,1,0,0,0,12.37,48C12.93,48,13.21,47.71,13.35,47Zm28.72,62.9c0,1.21-.2,1.2,1,1,.18,0,.32-.25.48-.37l-.51-.19-.29-.08A1,1,0,0,1,43,110c.34-.08.5-.23.31-.59,0,0,.09-.13.13-.21s.12-.31.18-.47a1.31,1.31,0,0,0-.43-.15C42.12,108.63,42.07,108.69,42.08,109.86ZM12.81,122.2c-.06.94.34,1.45,1,1.49s.62-.33.66-.71c.06-.59-.44-1.28-.92-1.21A2,2,0,0,0,12.81,122.2Zm-.6-56c0,.64.15,1.08.77,1.06a.78.78,0,0,0,.84-.84c0-.54-.22-1-.82-1S12.24,65.8,12.21,66.2Zm1.89,38.26c0-.58-.39-1.12-.85-1.09s-.7.41-.7.88.16,1,.76,1A.69.69,0,0,0,14.1,104.46Zm23.51,4.73a5.85,5.85,0,0,0-.94,1,.82.82,0,0,0,.41,1.19,2,2,0,0,0,1.16,0c.15,0,.24-.34.36-.52a4,4,0,0,1-.58.08c-.23,0-.58,0-.66-.09a.79.79,0,0,1,0-.73c.12-.16.47-.15.72-.2s.37-.06.55-.08a3.22,3.22,0,0,0-.39-.42A2.63,2.63,0,0,0,37.61,109.19ZM11,27.32c0,.71.16.93.66.92a1.11,1.11,0,0,0,.94-1c0-.54-.34-1-.79-1C11.24,26.33,11.06,26.77,11,27.32ZM13,140.61c0,.84.4,1.39.89,1.29a1,1,0,0,0,.67-.63c.12-.48-.46-1.26-.86-1.17S13.13,140.5,13,140.61Zm1-54.84c0-.81-.37-1.31-.83-1.28s-.7.41-.7.87.13,1,.75.93C13.57,86.26,13.85,85.9,14,85.77ZM46,110c-.19-.61-.32-1.06-.48-1.5-.05-.14-.21-.35-.28-.34a.61.61,0,0,0-.42.29c-.18.54-.32,1.11-.45,1.67,0,.11.07.24.11.36.1,0,.2-.09.3-.12l.76-.22Zm.71-1a4.5,4.5,0,0,0,0,.62,1.18,1.18,0,0,0,.14.34,1.14,1.14,0,0,0,.29-.24c.05-.09,0-.23,0-.34s.06-.2.08-.3l.23.24.38.33a2.14,2.14,0,0,0,.2-.49,6,6,0,0,0,.09-1.12c0-.16-.17-.32-.26-.47-.1.15-.21.3-.29.46a1.43,1.43,0,0,0-.09.28,1.31,1.31,0,0,0-.15-.13l-.47-.31a4.36,4.36,0,0,0-.15.58A4.21,4.21,0,0,0,46.74,109ZM8.82,37.84c0-.4-.1-.94-.67-.91s-.76.58-.69,1,.35.85.58.87C8.57,38.88,8.82,38.44,8.82,37.84Zm-.54-19.6C8,18,7.76,17.49,7.5,17.5c-.6,0-.74.61-.73,1.09a1.08,1.08,0,0,0,.51.84C7.7,19.57,8.12,19,8.28,18.24Zm1.9,95.18c0-.84-.44-1.46-.78-1.33a1.12,1.12,0,0,0-.55.76c-.09.56.39,1.18.76,1.05S10.08,113.51,10.18,113.41ZM10,76c-.28-.28-.53-.76-.85-.81-.51-.08-.7.48-.63.88s.36.85.63.9C9.65,77.08,9.88,76.64,10,76ZM9.52,57c-.27-.3-.52-.82-.83-.85-.54-.06-.7.51-.68,1s.05.88.61.87S9.36,57.64,9.52,57Zm.58,38c-.19-.62-.23-1.18-.85-1.14-.21,0-.52.49-.56.79-.05.46.07,1,.7,1C9.64,95.6,9.86,95.23,10.09,95Zm.63,36.45L9.67,130.4c-.18.23-.53.47-.52.69,0,.46.07,1.08.74,1.06C10.12,132.14,10.35,131.78,10.73,131.46Zm40.56-20h0a4,4,0,0,0,0,.56c0,.25.11.5.17.75.05-.23.1-.47.16-.7s.07-.24.1-.36c.05.1.1.2.16.3s.14.17.2.26.09-.1.1-.16c0-.73.06-1.46.08-2.18,0-.08-.08-.16-.12-.24l-.17.23c-.09.12-.24.34-.24.34-.52-.33-.42.12-.44.36S51.28,111.14,51.28,111.43Zm-11.6-1.23a3.11,3.11,0,0,0,0,.7c0,.15.23.4.3.38a11.49,11.49,0,0,0,1.19-.38c-.12-.09-.27-.29-.36-.26-.6.19-.63-.15-.6-.58a2.55,2.55,0,0,0,0-.63A1.26,1.26,0,0,0,40,109c-.11.12-.28.24-.31.38A4,4,0,0,0,39.69,110.2Zm-5.26,10,.08,0-.26-.67a3.54,3.54,0,0,1-.47.42.49.49,0,0,1-.39.05,2.19,2.19,0,0,1-.45-.34,2.68,2.68,0,0,0-.17.63,3,3,0,0,0,.13.67,4.26,4.26,0,0,1,.33-.3s.15,0,.17,0c.2.29.67-.33.79.23.09-.06.23-.1.24-.18A2.1,2.1,0,0,0,34.43,120.17ZM12,8.86c.73,0,1.36-.46,1.28-.87a.77.77,0,0,0-.54-.48,1.14,1.14,0,0,0-1,1C11.73,8.66,11.94,8.8,12,8.86Zm37.49,108a6.61,6.61,0,0,0,.4.55,8.17,8.17,0,0,0,1.49-1c.15-.14,0-.56,0-.86l-.35.55-.13.23a.86.86,0,0,1-.13-.2c0-.17-.08-.34-.11-.51a4,4,0,0,0-.37.61c-.06.14,0,.33,0,.49s-.09.15-.13.22-.17-.13-.21-.21a4.13,4.13,0,0,1-.18-.48ZM10.64,149.32l-1-1.12c-.15.2-.42.39-.42.59,0,.48.19.94.77,1C10.11,149.79,10.28,149.56,10.64,149.32Zm18.42-28.94c0,.6,0,.6.48.46,0,0,.1,0,.13,0,.59.55.51.12.6-.34s0-.74-.52-.79S29,119.89,29.06,120.38Zm6.27,16.22c0,.74,0,.73.48.61,0,0,.11,0,.13,0,.87.94.28-.34.53-.34,0-.23,0-.63-.11-.66a1.45,1.45,0,0,0-.87,0C35.36,136.28,35.33,136.6,35.33,136.61Zm-7.08.47a4.31,4.31,0,0,0,0,.61,1.09,1.09,0,0,0,.15.28c.07-.08.2-.15.2-.23,0-.77.27-.13.43-.06l.52.2v-1.17c-.11,0-.31.09-.32.15,0,.5-.17.3-.38.1a2.29,2.29,0,0,0-.5-.28ZM4.2,96.15a2.19,2.19,0,0,0-.08-.47c-.19-.41,0-.94-.61-1.26s-.27.25-.47.23-.36,0-.2.26c.37.48.8.91,1.21,1.35,0,0,.08,0,.12,0Zm27.38,23.13c-.37.5-.74.79-.76,1.1a1,1,0,0,0,.63.72.77.77,0,0,0,.85-.81C32.27,120,31.94,119.76,31.58,119.28Zm14.37,15-.09-.28a.93.93,0,0,0-.17.07,4,4,0,0,1-.74.5c-.42.16-.44.13-.28.61a2.1,2.1,0,0,0,.23.39,1.47,1.47,0,0,1,.24-.3c.06,0,.18,0,.27,0s.32,0,.35-.12A6.61,6.61,0,0,0,45.95,134.24Zm-10-100.34.14-.18a1.37,1.37,0,0,0-.42-.19,1.37,1.37,0,0,0-.47.11l-.37.13a1.5,1.5,0,0,0,.28.27c.29.17.68.3,0,.47-.06,0-.16.13-.15.18a.3.3,0,0,0,.18.18,5.48,5.48,0,0,0,.75.15c.05,0,.17-.09.17-.14C36,34.56,36,34.23,35.94,33.91Zm-3.2,77.23v-.06a2.27,2.27,0,0,0,.7,0c.15,0,.26-.25.39-.39-.14-.09-.28-.25-.43-.26a3.37,3.37,0,0,0-.76.13l-1.29.27Zm.77,25.82-.1.07c.14.21.23.51.42.6a.74.74,0,0,0,.69-.08,2,2,0,0,0,.29-.89c0-.1-.14-.24-.21-.36a1.47,1.47,0,0,0-.16.33c0,.16,0,.33,0,.49s-.14.21-.22.21a.33.33,0,0,1-.25-.18c0-.15,0-.33-.05-.48a1,1,0,0,0-.16-.27,1.61,1.61,0,0,0-.2.3A.79.79,0,0,0,33.5,136.95Zm5-17.22-.2-.63a2.51,2.51,0,0,1-.33.47.37.37,0,0,1-.34,0,1.92,1.92,0,0,1-.36-.33,1.83,1.83,0,0,0-.1.52c0,.39-.21,1.3.68.45a.14.14,0,0,1,.13,0C38.61,120.68,38.36,120.06,38.47,119.73Zm3.93-.1c-.41-.41-.08-1.14-.77-1-.3.06-.61.43-.77.74,0,.1.35.57.61.63S42,119.79,42.39,119.63Zm-3.75,0c.21.36.3.71.46.75s.52-.12.78-.19c-.13-.25-.26-.5-.38-.76a.25.25,0,0,1,0-.19,3.22,3.22,0,0,1,.2-.3c-.14,0-.33-.1-.4,0A8.2,8.2,0,0,0,38.65,119.64Zm-8.46,18h0l0,.13c.37,0,.75.08,1.12.09.05,0,.17-.18.15-.27a1.31,1.31,0,0,0-.2-.52,3.68,3.68,0,0,0-.45-.46,3.37,3.37,0,0,0-.44.49A2.1,2.1,0,0,0,30.19,137.61ZM28,4.89l-1.22.74c.27.17.54.46.82.47s1,.14,1-.57C28.59,5.33,28.26,5.16,28,4.89Zm.13,114.84c-.3.12-.71.21-.74.37a2.26,2.26,0,0,0,.19,1s.19,0,.29,0c-.31-.36,1.19-.27.2-.79a2.15,2.15,0,0,1,.16-.17l.31-.26C28.38,119.79,28.21,119.7,28.12,119.73Zm22.75-7.87h0c0-.35,0-.7,0-1.05a1.26,1.26,0,0,0-.13-.36c-.1.11-.27.21-.28.32,0,.75,0,1.5,0,2.24,0,.1.13.2.2.3.07-.11.2-.22.2-.33C50.89,112.6,50.87,112.23,50.87,111.85ZM42.48,119l-.13.14c.22.21.42.57.66.6.53.06.63-.4.63-.82a2.3,2.3,0,0,0-.18-.63c-.13.18-.27.35-.38.54a2.7,2.7,0,0,0-.17.39,3.5,3.5,0,0,0-.09-.39,4.27,4.27,0,0,0-.18-.39c-.05.14-.11.28-.15.42A.48.48,0,0,0,42.48,119ZM38,137.27c.14-.17.3-.3.28-.34-.17-.35-.37-.68-.56-1-.21.37-.63.76-.59,1.1C37.16,137.79,37.69,136.59,38,137.27Zm9-3.52c0-.06-.11-.24-.15-.23-.34,0-.65.17-.58.61a2.51,2.51,0,0,0,.22.83C47.4,134.94,46.72,134.19,47,133.76Zm5.9-23.23c0-.51-.06-.81-.1-1.11a1,1,0,0,0-.13-.27c-.08.09-.23.18-.24.27a5.5,5.5,0,0,0,0,1c0,.44.11.88.17,1.32ZM43.81,119a2.29,2.29,0,0,0,.26.41c.29-.11.57-.26.86-.39l-.49-.95ZM37.53,139.4l-.87-1c-.18.16-.38.3-.55.47a2.61,2.61,0,0,0-.34.45,1.49,1.49,0,0,0-.11.3c.1,0,.25,0,.29-.1.34-.62.72-.55,1.16-.11C37.16,139.44,37.3,139.4,37.53,139.4Zm-4.68-2.94c.09.09,0,0,0,0-.32,0-.65,0-1,.07,0,0,0,.15-.05.22.51.1.33.52.39.83a.38.38,0,0,0,.15.21s.15,0,.16-.07C32.64,137.35,32.73,137,32.86,136.46Zm8.42,1.61-.17-.19c0,.08-.15.2-.12.24s.2.35.35.41.33-.05.48-.12a2.06,2.06,0,0,0,.36-.28c.17.33.38.18.39,0s-.21-.36-.36-.5-.23.07-.34.13Zm6-4.12c.1.19.22.58.33.57.43,0,.49-.33.37-.7a1.16,1.16,0,0,1,0-.34c0-.12,0-.25,0-.37-.15,0-.37,0-.44.14A2.9,2.9,0,0,0,47.23,133.94ZM5.8,9.89,5,9.26c-.21.37-.43.73-.61,1.11,0,0,.24.26.28.24C5,10.42,5.35,10.19,5.8,9.89ZM46.07,118.14l.55.6a4.2,4.2,0,0,0,.57-.76c.07-.15-.06-.39-.09-.59-.07.17-.14.34-.22.5s-.13.23-.2.34l-.17-.33-.2-.36Zm-6,17.94h0a1.09,1.09,0,0,0,0,.35c0,.13.17.35.22.34a4.26,4.26,0,0,0,.69-.26c-.12-.06-.28-.1-.35-.19a2.43,2.43,0,0,1-.18-.47c-.06-.13-.13-.25-.2-.37-.06.13-.13.26-.18.4A.65.65,0,0,0,40.11,136.09Zm1.15-1c-.07.21-.17.35-.13.42.17.33.38.64.58,1l.4-1a.74.74,0,0,0,.08-.26s-.16-.11-.17-.11C41.82,135.37,41.61,135.59,41.27,135.07Zm2.78.75a2.16,2.16,0,0,0,.12-.51c0-.13-.1-.26-.13-.4a1.6,1.6,0,0,1,0-.35c-.14,0-.32,0-.39,0s-.36.44-.31.53A3.47,3.47,0,0,0,44,135.83Zm5.67-3.21-.17-.46a6.38,6.38,0,0,0-.37.67.68.68,0,0,0,0,.41,1.49,1.49,0,0,0,.22.36c.11-.1.27-.19.32-.32A2.3,2.3,0,0,0,49.72,132.61ZM36.33,35.72A12,12,0,0,0,35,35.3c-.07,0-.26.27-.27.43s.19.36.26.35C35.38,36,35.76,35.88,36.33,35.72ZM3.44,13.22s.2.24.23.23c.32-.21.6-.46.9-.7-.11-.12-.21-.33-.34-.34C3.78,12.34,3.41,12.45,3.44,13.22ZM36,119.3l-.48.17a2.61,2.61,0,0,1,.29.37c.14.26.25.54.38.81.06-.31,0-.73.19-.92C36.83,119.27,36.55,119.3,36,119.3Zm12.26-1.59c.13.12.26.29.29.27.22-.12.6-.3.59-.41a3.34,3.34,0,0,0-.4-.9ZM4.73,9,4.4,8.63a7.55,7.55,0,0,0-.67.83s.27.28.41.43ZM47.92,117.32l.12-.06-.13-.33c-.14.06-.38.12-.39.2a8.15,8.15,0,0,0,0,1.21.78.78,0,0,0,.35,0,3.33,3.33,0,0,0,.17-.75C48.09,117.51,48,117.42,47.92,117.32Zm-9.2,18.83a1.51,1.51,0,0,0,.06.46c.09.15.21.35.35.38s.34-.09.51-.15a1.77,1.77,0,0,1-.38-.26,1.12,1.12,0,0,1-.14-.36l-.17-.48ZM27.39,9.94l1-.32a2.55,2.55,0,0,0-.72-.44c-.15,0-.36.2-.55.31Zm18.5,107.87,0-.11-.23.08-.36.09a2.53,2.53,0,0,1-.29,0c.14.34.27.69.41,1,0,0,.12,0,.18,0s.05-.07.07-.12Zm-7.64,35.12a2.41,2.41,0,0,0,0,.49c.06.18.1.43.23.49s.35-.07.53-.12c-.13-.06-.32-.09-.39-.2s0-.31-.07-.48-.08-.48-.12-.72Zm-3.54.9h0a1.63,1.63,0,0,0,0-.35,3.25,3.25,0,0,0-.15-.42c-.09,0-.24.05-.24.1a1.81,1.81,0,0,0,0,.41,5,5,0,0,0,0,.54,2.15,2.15,0,0,0,.15.39,3.38,3.38,0,0,0,.17-.39A1,1,0,0,0,34.71,153.83Zm16-46.12,0-.15c-.19,0-.41-.06-.55,0a2.66,2.66,0,0,0-.53.49c.1.07.24.22.28.19C50.15,108.1,50.42,107.9,50.69,107.71Zm-9.89,31a8.53,8.53,0,0,1-.58-.65c-.2-.27-.36-.27-.5,0a.63.63,0,0,0-.06.34c.35.15.71.27,1.06.4Zm2.26-1.75-.36.62,1,.42s.1-.12.08-.14C43.54,137.54,43.33,137.27,43.06,136.91Zm5.84-4.13c-.05,0-.18-.15-.19-.14s-.38.28-.37.4a4.6,4.6,0,0,0,.29.92c0-.29.09-.57.15-.86A2.4,2.4,0,0,1,48.89,132.78ZM3,14.32c-.23-.19-.42-.37-.44-.35a4.62,4.62,0,0,0-.61.59s.19.25.22.24C2.47,14.68,2.7,14.52,3,14.32ZM47,136.85c.15-.25.27-.42.37-.62a.78.78,0,0,0,0-.26c-.11.07-.22.15-.33.21a.31.31,0,0,1-.2,0,2.62,2.62,0,0,1-.34-.12c0,.08,0,.18,0,.25S46.81,136.63,47,136.85Zm-1.18-.79-.29.55c.24.12.48.24.72.35,0,0,.12-.08.18-.12ZM2.51,118.7l-.36-.46c0,.09-.16.2-.14.26a4.35,4.35,0,0,0,.32.56Zm40.92,33-.17-.49a2.54,2.54,0,0,0-.17.57,1.21,1.21,0,0,0,.14.43Zm-42.09-79-.13-.3a1.38,1.38,0,0,0-.05.33,1.6,1.6,0,0,0,.1.34Zm38.3,66.16c-.18-.11-.25-.17-.27-.16a1.06,1.06,0,0,0-.19.17c.05,0,.11.13.16.13A1.12,1.12,0,0,0,39.64,138.79Zm-.67-.34c-.08-.05-.15-.12-.17-.11a1.16,1.16,0,0,0-.2.18c.05,0,.14.15.16.14A1.08,1.08,0,0,0,39,138.45Zm6.51-1.31c-.07,0-.15-.08-.17-.06a.25.25,0,0,0-.08.17s.11.09.13.08A.79.79,0,0,0,45.48,137.13Zm2.19-1.6s-.09,0-.11,0,0,.07-.06.11.08,0,.11,0S47.65,135.57,47.67,135.54Zm5.14-46.91v-.06l-.08,0s0,0,0,0ZM32.09,139.81l0,.06.05,0a.16.16,0,0,0,0-.06Zm11.46,12.73s0,0,0-.05h-.06l0,.09Z" transform="translate(-0.15 -0.09)"/><path class="cls-2" d="M29.91.09V.21H26a1.07,1.07,0,0,1,0-.11Z" transform="translate(-0.15 -0.09)"/><path class="cls-2" d="M54.27,19.63h-.11l-.06-1.29,0-.81.2-.45Z" transform="translate(-0.15 -0.09)"/><path class="cls-3" d="M54.07,17.53l0,.81c-.65.4-.65.66,0,1.44l0,3.8c-.63-.11-.85.09-.7.76a3.38,3.38,0,0,1-.1,1.14,16.63,16.63,0,0,0,0,4.38,5.94,5.94,0,0,1-.07.76c0,1.09,0,2.18,0,3.27,0,.88-.13,1.77-.24,2.65s-.33,1.76-.4,2.64a12.16,12.16,0,0,0,.17,1.66c0,.53,0,1.07,0,1.61,0,.09-.06.19,0,.28a25.91,25.91,0,0,1,.15,6c-.09,2.09,0,4.2,0,6.29-.06,2.27-.23,4.55-.33,6.82,0,.6,0,1.21,0,1.8s-.34,1-.4,1.49a24.06,24.06,0,0,0-.23,3,17,17,0,0,0,.27,2.2.23.23,0,0,1,0,.14c-.7,1.11-.27,2.29-.23,3.45,0,.54.12.59.6.48.06,0,.22.18.23.28,0,.45,0,.9,0,1.34,0,1.29.11,2.58.13,3.88,0,1.47,0,2.94,0,4.41a5.83,5.83,0,0,1-.4,1.4l-.07.07c-.38,0-.58-.12-.54-.52.06-.81.15-1.62.17-2.42,0-.4-.15-.81-.16-1.21,0-.84,0-1.69,0-2.54a.89.89,0,0,0-.12-.29,1.05,1.05,0,0,0-.21.25c-.12.29-.21.59-.31.89,0-.35,0-.7,0-1,0-.91-.05-1.82-.09-2.74,0-.09-.1-.18-.15-.26a1.44,1.44,0,0,0-.07.27c0,.3,0,.59,0,.89s0,.34,0,.52c0,0,0,0,0,0a.62.62,0,0,0,0,.1V80a16.41,16.41,0,0,1,0,2.41,5,5,0,0,1-.68,1.5,15.16,15.16,0,0,0-.76,1.34c-.14.36-.23.35-.46.11a2.3,2.3,0,0,1,0-2.46,3.2,3.2,0,0,0,.32-1,6.42,6.42,0,0,0,.13-1.18c0-1.69,0-3.38,0-5.06,0-.47-.41-.92-.57-1.39a2.53,2.53,0,0,1-.07-.78c0-.46,0-.92,0-1.38s.19-.68.09-.93c-.42-1,0-2,.13-2.94a.12.12,0,0,1,.11.07c.16-.22.45-.42.47-.65.06-.83,0-1.67,0-2.51,0-.13-.14-.25-.22-.38l-.46-.14c-.35-.59-.69-.1-1,0h-.22c-.55-.52-.78-1.06-.2-1.72a.51.51,0,0,0,0-.41c-.39-1.07.43-2,.35-3a3.14,3.14,0,0,1,.49-.67,3.45,3.45,0,0,0,1.13-3c0-1.07,0-1.07-1.09-1.21-.09-.09-.17-.23-.28-.27a1.07,1.07,0,0,1-.66-1.61.7.7,0,0,0,.1-.44c-.14-.68-.33-1.35-.46-2a.41.41,0,0,1,.23-.33,2.51,2.51,0,0,1,.63,0c.19.08.39.16.58.26s.59.35.88.53c0-.34,0-.69.11-1a3,3,0,0,0-2.07-3.8.69.69,0,0,1-.23-.63,4.5,4.5,0,0,0,.09-5c-.21-.35,0-.62.34-.76a10.63,10.63,0,0,0,1.5-.62,1,1,0,0,0,.47-.67c.06-.92,0-1.84,0-2.76,0-.39-.12-.51-.51-.33s-1.08.42-1.63.63c0,0,0-.1,0-.14-.42-.79,0-1.33.43-2,.23-.37.06-1,0-1.5,0-.31-.07-.62-.06-.93s.27-.81-.33-1.05c-.13-.05-.14-.5-.14-.76A4.76,4.76,0,0,0,47,27.47c-.2-.57.1-1.31.14-2,0-.27.05-.66-.1-.81a1.29,1.29,0,0,1-.33-1.38,4.15,4.15,0,0,0,.09-1.09c-.07-1.36-.13-2.72-.29-4.07a3,3,0,0,1,0-1.81c.15-.32.17-.64.58-.77.13,0,.31-.32.27-.43-.27-.79.43-1.12.73-1.64a.41.41,0,0,1,.28-.2,5.71,5.71,0,0,1,2.06.09,6.47,6.47,0,0,1,3.15,2.94c.06.1,0,.29,0,.4C53.75,17,53.92,17.26,54.07,17.53Z" transform="translate(-0.15 -0.09)"/><path class="cls-3" d="M52.79,137.88l0,1.08c-.52,0-.6.43-.59.8,0,1.43.14,2.86.23,4.28,0,.07.19.13.3.19,0,1.08,0,2.17,0,3.25a1.32,1.32,0,0,1-.32.8c-1.75,1.83-3.43,3.73-5.3,5.41A23.39,23.39,0,0,1,39,158a35.18,35.18,0,0,1-13.31,2,40.91,40.91,0,0,1-14.5-3,32.09,32.09,0,0,1-3.74-2.2c0-.45.25-.44.56-.22.53.39,1.07.76,1.59,1.16.35.27.59.26.67-.21s.38-.52.77-.35c.46.45.89.94,1.38,1.34a3.53,3.53,0,0,0,.93.39l-.48-.71c0-.34,0-.56.51-.43,1.15.29,2.34.4,3.49.66a49,49,0,0,0,6.34.69,26.94,26.94,0,0,0,3.44.21,26.56,26.56,0,0,0,5.39-.45c1.53-.37,3.13-.42,4.68-.69a25.66,25.66,0,0,0,3.51-.82,21.77,21.77,0,0,0,3.15-1.36,3.34,3.34,0,0,1,1.36-.49c.5,0,1-.64,1.43-1,.21-.15.43-.29.62-.46s.56-.39.55-.58a3.36,3.36,0,0,0-.38-1s-.09,0-.1.08c-.16.66-.3.79-.72.1-.11-.18-.55-.22-.43-.62,0-.05.25-.1.26-.08.24.44.52.23.75,0s1.19-.18,1.13-1c0,0,.1-.05.16-.08a1.86,1.86,0,0,1,.11.24c.07.25.14.49.21.74a6.28,6.28,0,0,1,0-.7,5,5,0,0,1,.14-.78.25.25,0,0,1,.21-.07c.64.56.4-.13.41-.32s-.08-.67-.08-1a1,1,0,0,1,.15-.58,2.79,2.79,0,0,0,.43-2.36c0-.07-.06-.18,0-.2.43-.41.17-1,.31-1.41.28-.88.62-1.73-.07-2.57,0,0,0-.22.09-.26s.21-.19,0-.36c-.57-.58-.15-1.17,0-1.76A3.93,3.93,0,0,0,50,137c0-.07-.14-.16-.24-.2s-.29,0-.33-.06a.61.61,0,0,1-.09-.46c0-.1.25-.14.4-.19s.44-.13.65-.22c0,0,0-.27-.09-.28-.22,0-.44,0-.66,0l-.62-.07c.24-.31-.38-.87.31-1a1.36,1.36,0,0,0,1.05-1.58l.16-1.2c.29-.31.56-.64.88-.93,0,0,.37.09.38.18a3.5,3.5,0,0,1,0,.77c0,.11,0,.22,0,.33,1,0,.53.85.78,1.28l.2.37V136l-.16.08.16.09v.53l-.16.09.16.09v1Z" transform="translate(-0.15 -0.09)"/><path class="cls-4" d="M47.36,64.68h1.25l.46.14c0,.54,0,1.08,0,1.62s-.16,1.28-.24,1.92a.12.12,0,0,0-.11-.07c-1.81,0-3.63,0-5.44,0-2.52,0-5,.06-7.56.07-.18,0-.52-.19-.52-.28,0-1-.31-2.13.42-3.07a2.4,2.4,0,0,1,.44-.49c2.17-1.58,4.36-3.13,6.53-4.71.53-.39,1-.83,1.53-1.25a2.28,2.28,0,0,0,.26-.3,2.7,2.7,0,0,0-.39-.06c-2.71,0-5.42-.11-8.13-.13-.63,0-.88-.16-.83-.83a20,20,0,0,0,0-2.33c0-.43.12-.58.56-.56,1.71.09,3.42.17,5.13.21,2.45.05,4.91.07,7.36.1,1.09.14,1.08.14,1.09,1.21a3.45,3.45,0,0,1-1.13,3,3.17,3.17,0,0,0-.49.67.4.4,0,0,0-.13,0l-5.6,4.95a1.2,1.2,0,0,0-.13.16.65.65,0,0,0,.22.09Z" transform="translate(-0.15 -0.09)"/><path class="cls-3" d="M44.51,2.34A13.92,13.92,0,0,1,50.14,5c.7.59,1.34,1.24,2,1.87,0,.29,0,.59,0,.88.08.78.18,1.55.24,2.33,0,.13-.1.38-.19.39a.67.67,0,0,1-.5-.13c-.54-.47-1.06-1-1.58-1.47l.65-.16-.54-.23s-.06-.07-.09-.1a7.51,7.51,0,0,0-3.52-2.16A38.08,38.08,0,0,0,41.43,5c-.49-.11-1-.14-1.5-.23S38.64,4.53,38,4.43c-.08,0-.2.16-.29.25l-2.48-.21c-1.05-.09-2.11-.15-3.16-.27a34.88,34.88,0,0,0-5-.13A66.22,66.22,0,0,0,13.1,5.56a1.53,1.53,0,0,1-.35,0,.78.78,0,0,0,.14-.16c.09-.19.17-.39.25-.58a1.64,1.64,0,0,0-.63.13c-.4.28-.75.63-1.13.95-1.31.43-2.63.84-3.94,1.28-.71.24-1.4.54-2.1.8a.72.72,0,0,1-.26,0c.06-.09.11-.2.19-.25.6-.34,1.2-.68,1.82-1,.25-.13.53-.19.79-.32A4.44,4.44,0,0,0,8.42,6a3.2,3.2,0,0,0-.67.12A13.32,13.32,0,0,0,3,9.11a2.09,2.09,0,0,0-.71,2.15,2.19,2.19,0,0,1,0,.56.12.12,0,0,1-.13,0L1.76,9c.14,0,.34,0,.4-.1.44-.59.84-1.22,1.29-1.81a6.78,6.78,0,0,1,.93-.92c.77-.66,1.55-1.31,2.32-2L7,4.09,7.39,4l.22,0A1.08,1.08,0,0,0,8.9,3.42l.2-.05a1.54,1.54,0,0,0,1.53-.48,43.08,43.08,0,0,1,8.83-1.64,1.76,1.76,0,0,0,.41.09c1.39,0,2.77,0,4.16-.06a9.79,9.79,0,0,0,1.21-.18l.41,0c.29.38.58.59.88,0h.25l.87.05,1.54.08,1.43.53a4,4,0,0,0,.75.27c1.65.25,3.3.53,5,.69.36,0,.76-.36,1.13-.57,0,0-.09-.31-.18-.33-.82-.22-1.65-.41-2.48-.63-.09,0-.17-.14-.25-.21.63,0,1.26,0,1.89.13A7.25,7.25,0,0,1,38,1.55a2.18,2.18,0,0,1,.87.57c.52.62.55-.06.76-.25a.21.21,0,0,1,.13,0,14.65,14.65,0,0,1,1.6,0,4.43,4.43,0,0,1,1,.34l-1-.09s-.12,0-.13,0-.27.26-.24.3c.31.52-.12.83-.33,1.19a3.53,3.53,0,0,1-.27.36l.39.11c3.22.73,6.5,1.25,9.48,2.8.14.07.45.09.48,0a.78.78,0,0,0,.05-.57,1.43,1.43,0,0,0-.49-.65A28.24,28.24,0,0,0,47,3.8c-1.18-.51-2.46-.79-3.68-1.19a1.63,1.63,0,0,1-.41-.3l.46,0Zm-17.81.73V3.2c2,0,3.91,0,5.86,0,1.66.05,3.32.23,5,.34a1.22,1.22,0,0,0,.34-.08,1.1,1.1,0,0,0-.29-.14c-1.22-.18-2.43-.39-3.66-.53-.95-.1-1.9-.12-2.85-.16-.7,0-1.4-.07-2.1,0-1.45.06-2.9.17-4.35.27-.08,0-.15.09-.22.13a1,1,0,0,0,.24.06Z" transform="translate(-0.15 -0.09)"/><path class="cls-4" d="M47.17,35.74c.54-.21,1.1-.39,1.63-.63s.51-.06.51.33c0,.92,0,1.84,0,2.76a1,1,0,0,1-.47.67,10.63,10.63,0,0,1-1.5.62c-.39.14-.55.4-.34.76a4.5,4.5,0,0,1-.09,5,.69.69,0,0,0,.23.63,3,3,0,0,1,2.07,3.8c-.06.34-.07.68-.11,1-.29-.18-.58-.36-.88-.53s-.38-.17-.58-.26L44.43,48.2c-1.11-.6-2.19-1.27-3.33-1.79-1.87-.85-3.79-1.63-5.69-2.41a.75.75,0,0,1-.55-.83c0-.78,0-1.56,0-2.33,0-.47.16-.64.59-.78,2.28-.8,4.55-1.63,6.82-2.46C43.89,37,45.53,36.36,47.17,35.74Zm-1.8,6.7c-.24-.55-.48-1.12-.75-1.66,0-.07-.3-.09-.42,0-1.26.46-2.51.93-3.77,1.4a1.33,1.33,0,0,0-.22.14c.07.08.13.18.22.23,1.24.58,2.47,1.15,3.72,1.71.11.05.37,0,.4,0C44.83,43.63,45.08,43,45.37,42.44Z" transform="translate(-0.15 -0.09)"/><path class="cls-4" d="M49.19,78.57a15.51,15.51,0,0,1-.84,4.6,4.42,4.42,0,0,1-3.9,2.61c-1.51,0-3,.31-4.54.38s-3,.05-4.45,0c-.12,0-.34-.25-.34-.38,0-1,0-1.91.1-2.85,0-.13.32-.32.51-.33,1.8-.11,3.61-.16,5.41-.29a35.1,35.1,0,0,0,4.19-.47,2.26,2.26,0,0,0,1.3-1,4,4,0,0,0,.13-3.35,1.61,1.61,0,0,0-1.76-1c-2,0-3.91.13-5.86.19-1.15,0-2.31,0-3.46.09-.4,0-.54-.13-.53-.53,0-.9,0-1.79,0-2.69,0-.39.15-.47.5-.48l9.4-.29a3.36,3.36,0,0,1,3.6,2.72C48.83,76.5,49,77.53,49.19,78.57Z" transform="translate(-0.15 -0.09)"/><path class="cls-4" d="M48.77,90.41a2.67,2.67,0,0,1-1.2,2.86c-.86.69-1.67,1.45-2.51,2.17-.23.19-.47.36-.19.68s.15,1.14.95,1,1.38-.3,2.07-.44c.49-.1.8,0,.76.61a13.6,13.6,0,0,0,.11,1.89c0,.42,0,.71-.53.8-1.55.26-3.09.65-4.65.84-2.7.32-5.41.52-8.11.79-.31,0-.51,0-.5-.36.06-2.15,0-4.3.22-6.44a4.5,4.5,0,0,1,2.39-3.63,4.17,4.17,0,0,1,5.5,1.32c.27.41.46.45.84.13,1.43-1.21,2.88-2.39,4.32-3.57a4.14,4.14,0,0,1,.45-.28,3.77,3.77,0,0,1,.09.52C48.78,89.65,48.77,90,48.77,90.41Zm-10.95,6.3h0a2.71,2.71,0,0,0,0,.84c.07.2.34.5.49.48,1.3-.11,2.61-.28,3.9-.45.09,0,.25-.22.23-.26a19,19,0,0,0-1.83-3.15A1.47,1.47,0,0,0,38,95,17.11,17.11,0,0,0,37.82,96.71Z" transform="translate(-0.15 -0.09)"/><path class="cls-4" d="M45.22,147.92A3.1,3.1,0,0,1,42.83,150a2.79,2.79,0,0,1-3.58-2.26,5.57,5.57,0,0,1,4-6.31c1.75-.5,2.73.07,3.14,2.27a5.8,5.8,0,0,1-.83,4c-.05.09-.2.14-.3.2v-.27l.15-.27.13-.29.15-.42c.13-.34.27-.68.37-1a1.93,1.93,0,0,0,0-.54,4.31,4.31,0,0,0-.2.52c-.08.33-.14.68-.21,1l-.15.41-.16.27-.13.29-.42.57-.14.14-.13.15-.15.14-.15.14a3,3,0,0,1-3.31.41l-.41-.31-.73-1.63c-.09-.44.11-.59.54-.72,1.8-.53,3.59-1.12,5.38-1.7.16-.05.37-.17.41-.3a2.27,2.27,0,0,0-2.43-2.71,5.21,5.21,0,0,0-4.08,5.43,2.45,2.45,0,0,0,.79,1.75l.42.3c1,.86,2.4.67,3.52-.45l.14-.15.14-.14.15-.14.13-.15Zm-.36-2.19c-.46.18-1.13,0-1.24.75,0,0-.07,0-.1,0l-.41-.19a1.94,1.94,0,0,1-.16.59c-.08.13-.29.17-.44.25a.23.23,0,0,1-.09,0c0-.12.08-.24.14-.36s.11-.23.17-.35l-.38,0c-.49.06-.84.61-1.43.37,0,0-.32.28-.34.44a1.67,1.67,0,0,0,.14.72s.34,0,.36,0c.2-.51.65-.28,1-.37.77-.2,1.52-.45,2.27-.68.92-.28.92-.27.63-1,0,0,0,0,0-.07l.32-.17s-.11-.14-.12-.14A3.44,3.44,0,0,0,44.86,145.73Z" transform="translate(-0.15 -0.09)"/><path class="cls-4" d="M39.52,24.89a22.12,22.12,0,0,1,1.07-4,12.38,12.38,0,0,1,2.19-2.66c.27-.31.59-.25.84.08a5.63,5.63,0,0,1,.45.62,14,14,0,0,1,2.11,5.5,10.35,10.35,0,0,1-.38,5,6.94,6.94,0,0,1-1.15,1.92,1.45,1.45,0,0,1-2.51.06A10,10,0,0,1,39.52,24.89Zm4.27,2.68,1.72-2.1c.14-.18.39-.39.37-.57-.11-.93-.29-1.85-.45-2.78-.07-.38-.24-.31-.45-.09-.45.48-.93.93-1.38,1.41a.79.79,0,0,0-.16.5c0,1.06,0,2.11.05,3.17,0,.15.2.3.31.45-.13.89-.29,1.77-.36,2.67a7.57,7.57,0,0,0,.14,1.4,6.18,6.18,0,0,0,1.3-1.11A7.48,7.48,0,0,0,46,26a2.55,2.55,0,0,0-.09-.44c-.1.09-.21.17-.31.27-.39.41-.75.84-1.16,1.23A5,5,0,0,1,43.78,27.57Zm-1.12-.3a2.65,2.65,0,0,1-.67-.4c-.56-.63-1.09-1.3-1.63-1.95a1.55,1.55,0,0,0-.27-.21,1.45,1.45,0,0,0-.11.37,7.9,7.9,0,0,0,1,4.07,18.8,18.8,0,0,0,1.63,2.18c.07.09.24.11.37.16a2.33,2.33,0,0,0,.1-.38,2.64,2.64,0,0,0,0-.42c-.06-1-.19-2-.16-3.06.07-2.19.5-4.45-1.54-6.1a.43.43,0,0,1-.09-.11c-.31-.51-.47-.29-.57.13-.15.69-.24,1.39-.45,2.06a.91.91,0,0,0,.23,1c.73.89,1.45,1.8,2.17,2.7ZM43,20.8h.11c0-.54,0-1.08,0-1.63a3.74,3.74,0,0,0,0-.4,1.23,1.23,0,0,0-.33.21c-.43.53-.86,1.06-1.26,1.62a.59.59,0,0,0,0,.53c.38.54.8,1,1.21,1.56a1.47,1.47,0,0,0,.2.18,1.32,1.32,0,0,0,.08-.3C43,22,43,21.39,43,20.8Zm.44-.08h0c0,.63,0,1.27,0,1.9a1.12,1.12,0,0,0,.11.32,2,2,0,0,0,.28-.18c1.23-1.09,1.27-1.34.44-2.75-.2-.34-.43-.67-.66-1a1,1,0,0,0-.19-.17,1.86,1.86,0,0,0,0,.26C43.39,19.64,43.39,20.18,43.39,20.72Z" transform="translate(-0.15 -0.09)"/><path class="cls-4" d="M38.17,123.87c.86,0,1.19.5.76,1.24a8.07,8.07,0,0,1-1.14,1.33c-.15.17-.36.23,0,.41a1.46,1.46,0,0,1,.54,2.49,4.52,4.52,0,0,1-2.3,1.43c-.55.16-1.19.17-1.47.86-.07.17-.42.21-.64.32,0-.19,0-.38,0-.57s0-.37-.12-.41c-.82-.4-.18-.46.12-.65a1.14,1.14,0,0,0,.47-.53c.33-1,.61-2,.91-3a1.33,1.33,0,0,1,.2-.52,5.13,5.13,0,0,1,.69-.53c0,.24,0,.49,0,.73s0,.3,0,.45a2.7,2.7,0,0,0,.34-.21c.4-.33.81-.65,1.18-1a1.89,1.89,0,0,0,.27-.61,1.92,1.92,0,0,0-.67-.26,4.91,4.91,0,0,0-2.69,1.28c-.27.19-.52.4-.8.57-.08,0-.2,0-.31,0a1,1,0,0,1,.06-.32A7.19,7.19,0,0,1,38.17,123.87Zm-.35,4.94c0-.73-.69-1.29-1.65-1.35-.11,0-.26.46-.36.71s-.2.58-.28.88-.19.74-.29,1.11a7.85,7.85,0,0,0,1.35-.17,2.25,2.25,0,0,0,.88-.56A2.17,2.17,0,0,0,37.82,128.81Z" transform="translate(-0.15 -0.09)"/><path class="cls-4" d="M7.45,32.24a3.53,3.53,0,0,1,.39.29c1.4,1.36,2.83,2.7,4.2,4.09.86.87.85.93,0,1.91s-1.88,2.14-2.81,3.22c-.33.39-.61.82-1,1.2a1.58,1.58,0,0,1-.52.26,1.56,1.56,0,0,1,.09-.52C8.6,41.45,9.35,40.22,10.1,39a3.33,3.33,0,0,1,.51-.76c.6-.54.26-.93-.11-1.41-1-1.35-2.05-2.74-3.06-4.12a1.45,1.45,0,0,1-.14-.41Z" transform="translate(-0.15 -0.09)"/><path class="cls-4" d="M44.45,126.69c.16-.8.31-1.54.45-2.28a1.37,1.37,0,0,0,0-.33c-.08.07-.2.13-.24.22q-.79,1.49-1.55,3a4.89,4.89,0,0,1-.22.59,2.75,2.75,0,0,1-.5.44c0-.21-.06-.42-.08-.63a5.09,5.09,0,0,1,0-.52l-.36.41c-.37.42-.72.87-1.13,1.24s-1,.64-1.4.25a1.55,1.55,0,0,1-.28-1.25,3.61,3.61,0,0,1,1.77-2.52.85.85,0,0,1,.74,0,.69.69,0,0,1,.12.67c-.43.6-.94,1.13-1.42,1.7a2.27,2.27,0,0,0-.38.5c0,.07.13.33.17.33.24,0,.57-.07.68-.23.68-1,1.32-2,2-3.07.18-.3.29-.64.49-.92s.37-.52.5,0c0,0,.21,0,.25,0,.32-.4.61-.84.95-1.22.11-.12.35-.13.54-.19,0,.2-.07.4-.13.59s-.18.26-.15.36a.38.38,0,0,0,.32.21c.09,0,.15-.2.23-.31.23-.32.44-.65.7-1,.06-.07.25,0,.38,0s0,.31,0,.39A8.19,8.19,0,0,0,45,126.74c0,.13-.2.24-.3.35Zm-3.18-.51c-.28-.06-.44-.13-.47-.1-.23.32-.45.65-.66,1a.89.89,0,0,0,.17.12C40.6,126.89,40.88,126.59,41.27,126.17Z" transform="translate(-0.15 -0.09)"/><path class="cls-4" d="M13.09,41.65c-.22.35-.4.63-.58.9-1,1.46-2,2.9-3,4.38a.71.71,0,0,0,.06.65c1,1.31,2,2.6,3,3.9a7.66,7.66,0,0,1,.58.88,1.74,1.74,0,0,1,.12.43,1.26,1.26,0,0,1-.43-.17c-1.21-1.18-2.41-2.36-3.6-3.56-.33-.33-.55-.78-.9-1.08-.55-.47-.45-.87-.08-1.37a30.34,30.34,0,0,1,4-4.72,2.15,2.15,0,0,1,.44-.34C12.82,41.5,12.95,41.6,13.09,41.65Z" transform="translate(-0.15 -0.09)"/><path class="cls-4" d="M7.13,13l.62.56c1.37,1.23,2.76,2.46,4.11,3.71a.6.6,0,0,1,0,.58C10.46,19.75,9,21.65,7.56,23.55a1.89,1.89,0,0,1-.44.32,1.71,1.71,0,0,1,.09-.56c.85-1.52,1.68-3,2.58-4.53.6-1,.64-1-.16-1.83A13.22,13.22,0,0,1,7,13.45a1.26,1.26,0,0,1-.08-.39A1,1,0,0,1,7.13,13Z" transform="translate(-0.15 -0.09)"/><path class="cls-4" d="M13.65,61c-.19.31-.27.48-.39.63-.92,1.25-1.86,2.48-2.77,3.74-.73,1-.78.64,0,1.67,1,1.35,2,2.7,3,4.07a3.2,3.2,0,0,1,.3.8,3,3,0,0,1-.69-.43q-2.24-2.44-4.43-4.92a.66.66,0,0,1-.1-.6,25.56,25.56,0,0,1,4.57-4.86C13.27,61.06,13.41,61.07,13.65,61Z" transform="translate(-0.15 -0.09)"/><path class="cls-4" d="M8,51.44a4.35,4.35,0,0,1,.37.31C10,53.39,11.53,55,13.07,56.67a.6.6,0,0,1,.08.56c-1.46,1.6-2.94,3.17-4.42,4.75a1.69,1.69,0,0,1-.4.24,1.41,1.41,0,0,1,.1-.51c1-1.44,1.91-2.9,2.94-4.3.26-.36.2-.5,0-.81-1.12-1.54-2.21-3.1-3.3-4.65a1.6,1.6,0,0,1-.14-.45Z" transform="translate(-0.15 -0.09)"/><path class="cls-4" d="M13.8,80.23l.18.06a1.27,1.27,0,0,1-.14.37c-.88,1.1-1.74,2.22-2.65,3.3s-1,1.17-.08,2.48,1.87,2.69,2.78,4.05a1.78,1.78,0,0,1,.14.57,5.29,5.29,0,0,1-.43-.3A31.58,31.58,0,0,1,9,85.33a.59.59,0,0,1,0-.55,21.72,21.72,0,0,1,4.59-4.41Z" transform="translate(-0.15 -0.09)"/><path class="cls-4" d="M12.35,21.85a6.88,6.88,0,0,1-.35.71c-1,1.54-2,3.08-3,4.59a.68.68,0,0,0,0,1c1.2,1.38,2.35,2.81,3.52,4.22a1.11,1.11,0,0,1,.19.29,1.21,1.21,0,0,1,0,.32.87.87,0,0,1-.32-.07A9.25,9.25,0,0,1,11.28,32q-1.89-1.85-3.72-3.77c-.12-.13-.22-.48-.14-.58,1.46-1.93,3-3.85,4.45-5.76a1,1,0,0,1,.35-.21S12.3,21.8,12.35,21.85Z" transform="translate(-0.15 -0.09)"/><path class="cls-4" d="M13.8,76.34c-.09.1-.15.19-.24.27q-2.23,2.17-4.46,4.33a1.67,1.67,0,0,1-.41.22,1.45,1.45,0,0,1,.13-.5c1-1.31,1.87-2.65,2.91-3.89.4-.47.29-.69,0-1.1-1-1.48-2.06-3-3.07-4.47a2.19,2.19,0,0,1-.19-.62,2,2,0,0,1,.61.31c.83.92,1.63,1.87,2.45,2.8l1.94,2.24Z" transform="translate(-0.15 -0.09)"/><path class="cls-4" d="M13.88,95.25a2.08,2.08,0,0,1-.22.28q-2.18,2-4.38,4c-.11.1-.32.1-.48.15a1.28,1.28,0,0,1,.12-.45c.73-1,1.44-1.92,2.22-2.82,1.12-1.28,1.11-1.23.15-2.61S9.63,91.2,8.81,89.89a2,2,0,0,1-.14-.63,2.3,2.3,0,0,1,.49.34c1.26,1.5,2.51,3,3.76,4.5l.64.74C13.67,95,13.77,95.1,13.88,95.25Z" transform="translate(-0.15 -0.09)"/><path class="cls-4" d="M14.29,109.87c-.26-.06-.41,0-.48-.11a16.43,16.43,0,0,1-1.58-1.61c-1.07-1.39-2.1-2.81-3.11-4.25a.69.69,0,0,1,0-.66c1.41-1.31,2.85-2.59,4.29-3.86a1.82,1.82,0,0,1,.56-.22,1.8,1.8,0,0,1-.21.6c-1,1.22-2.07,2.44-3.16,3.61a.59.59,0,0,0-.07.89q1.52,2.16,3,4.33C13.79,109,14,109.33,14.29,109.87Z" transform="translate(-0.15 -0.09)"/><path class="cls-4" d="M14.4,117.71a8.75,8.75,0,0,1-.57.8c-1,1-1.91,2.07-2.9,3.08a.64.64,0,0,0-.07,1c1.15,1.75,2.26,3.52,3.38,5.29a1.79,1.79,0,0,1,.14.5c-.18-.08-.42-.11-.55-.25a34.86,34.86,0,0,1-4.48-6.19.57.57,0,0,1,.06-.54q2.17-1.81,4.38-3.56C13.9,117.72,14.1,117.75,14.4,117.71Z" transform="translate(-0.15 -0.09)"/><path class="cls-4" d="M14,113.85a2.28,2.28,0,0,1-.27.34c-1.36,1.16-2.72,2.31-4.1,3.45a1.86,1.86,0,0,1-.56.21,1.83,1.83,0,0,1,.2-.61c.89-1.09,1.8-2.17,2.73-3.21.28-.31.34-.46.09-.86-1.11-1.74-2.14-3.52-3.2-5.29a1.36,1.36,0,0,1-.09-.38,1.3,1.3,0,0,1,.34.22q1.57,1.94,3.13,3.9l1.44,1.83C13.82,113.56,13.91,113.7,14,113.85Z" transform="translate(-0.15 -0.09)"/><path class="cls-4" d="M14.23,136.21l.17,0a1.1,1.1,0,0,1-.15.36c-.78.81-1.54,1.65-2.37,2.41-1.13,1-1.18,1-.41,2.31.91,1.54,1.86,3,2.78,4.58a1.49,1.49,0,0,1,.11.43,1.61,1.61,0,0,1-.4-.22,28.43,28.43,0,0,1-4.44-6.24.65.65,0,0,1,.09-.6,15.33,15.33,0,0,1,4.46-3Z" transform="translate(-0.15 -0.09)"/><path class="cls-4" d="M14.3,132.45a1.41,1.41,0,0,1-.22.26c-1.42,1-2.84,2-4.27,3a1.36,1.36,0,0,1-.52.1,1.68,1.68,0,0,1,.23-.53c.93-1,1.86-1.93,2.83-2.85.27-.26.25-.38.07-.68-1.13-1.82-2.22-3.65-3.33-5.48A1,1,0,0,1,9,126c.11,0,.27,0,.33.12.85,1,1.69,2.08,2.52,3.13s1.46,1.9,2.18,2.85Z" transform="translate(-0.15 -0.09)"/><path class="cls-4" d="M9.58,153.34c-.08,0-.24-.08-.25-.15a.41.41,0,0,1,.14-.29c.81-.78,1.61-1.59,2.47-2.32.4-.34.5-.51.2-1-1-1.7-1.92-3.44-2.86-5.18a1.16,1.16,0,0,1-.06-.38,1.33,1.33,0,0,1,.33.24l3.61,5a9.89,9.89,0,0,0,.74.94c.23.25.25.44,0,.62L9.94,153.2A2.45,2.45,0,0,1,9.58,153.34Z" transform="translate(-0.15 -0.09)"/><path class="cls-4" d="M37.7,4.68c.1-.09.21-.27.29-.25.65.1,1.28.25,1.93.37s1,.12,1.5.23a38.08,38.08,0,0,1,5.21,1.22,7.51,7.51,0,0,1,3.52,2.16s.05.09.09.1l.54.23-.65.16c-.48-.28-1-.58-1.43-.85a28.51,28.51,0,0,0-7.8-2.71C39.85,5.08,38.77,4.9,37.7,4.68Z" transform="translate(-0.15 -0.09)"/><path class="cls-4" d="M29.19,115.66a7.92,7.92,0,0,1,0,.85,3.63,3.63,0,0,1-.17.61,2.22,2.22,0,0,1-.73-.28,11.79,11.79,0,0,1-.88-1,1.16,1.16,0,0,0-.28-.17,1.63,1.63,0,0,0-.1.31,4.7,4.7,0,0,1-.09.83.7.7,0,0,1-.41.35c-.06,0-.3-.2-.31-.32a20.77,20.77,0,0,1-.09-2.43c0-.48.42-.47.71-.22s.78.79,1.18,1.18a2.15,2.15,0,0,0,.27.2,2.5,2.5,0,0,0,0-.32,4.64,4.64,0,0,1,0-.84c0-.15.25-.38.35-.36s.43.2.45.34a8.83,8.83,0,0,1,0,1.27Z" transform="translate(-0.15 -0.09)"/><path class="cls-4" d="M23.66,114a4.11,4.11,0,0,1,.91,0c.16,0,.28.27.41.41-.15.11-.29.28-.45.31s-.61,0-.91,0c-.12,0-.23.16-.34.24.1.07.2.19.31.21s.39,0,.56,0a2.34,2.34,0,0,1,.5.31,2.88,2.88,0,0,1-.54.34c-.14.05-.33,0-.49,0a1.12,1.12,0,0,0-.32.19c.11.09.21.25.32.26.3,0,.62,0,.91,0s.28.26.42.4l-.43.31s-.09,0-.14,0c-1.91,0-1.91,0-1.94-1.87,0,0,0-.09,0-.14C22.41,113.92,22.41,113.92,23.66,114Z" transform="translate(-0.15 -0.09)"/><path class="cls-4" d="M34.17,115.28s0-.09,0-.14c0-1.44,0-1.47,1.44-1.45a1.37,1.37,0,0,1,1,.47,2,2,0,0,1-.06,1.24c-.07.25-.35.43-.06.73.12.12.13.35.19.53a5.56,5.56,0,0,1-.76,0c-.09,0-.15-.18-.24-.25s-.37-.25-.55-.38a1.92,1.92,0,0,1-.19.55.71.71,0,0,1-.45.29.46.46,0,0,1-.35-.29c0-.42,0-.85,0-1.27Zm1.37-1.15c-.27.32-.48.48-.53.67s.26.45.29.43a5.48,5.48,0,0,0,.76-.45Z" transform="translate(-0.15 -0.09)"/><path class="cls-4" d="M31.82,113.93a4.18,4.18,0,0,1,.7,0,1.5,1.5,0,0,1,.43.23c-.12.15-.22.4-.37.44a6.63,6.63,0,0,1-.91.07c-.11,0-.22.14-.32.21.12.08.22.22.35.24s.43-.06.63,0a.51.51,0,0,1,.34.32c0,.1-.17.3-.3.34s-.51,0-.77.08c-.09,0-.15.14-.23.21.08.07.16.19.25.19.33,0,.66,0,1,0,.13,0,.37.2.36.27s-.17.43-.29.44a13.08,13.08,0,0,1-1.83.08c-.11,0-.3-.26-.31-.41,0-.66,0-1.32-.05-2s.17-.76.71-.7a5.59,5.59,0,0,0,.63,0Z" transform="translate(-0.15 -0.09)"/><path class="cls-2" d="M10.36,8.1c.41.46,1.13.78.75,1.61-.08.18-.18.35-.27.53a2.93,2.93,0,0,1-.4-.36.5.5,0,0,0-.91,0c-.09.13.08.43.14.65h0c-.58.24-1.15.52-1.75.71A1.12,1.12,0,0,1,7,11.18c-.11-.07,0-.52,0-.77a3.91,3.91,0,0,1,.48-.93c.1-.14.32-.32.45-.3.88.2,1.36-.5,2-.83Z" transform="translate(-0.15 -0.09)"/><path class="cls-4" d="M40.8,115.39c-.16.28-.28.75-.5.8-1.52.32-2.19.08-2.43-.78a1.64,1.64,0,0,1,.43-1.63,1.54,1.54,0,0,1,1.6-.5c.2.06.51.36.48.46a.46.46,0,0,1-.69.34,1,1,0,0,0-.89.29,1,1,0,0,0-.09.89c.07.19.42.3.67.37s.27-.15.4-.23c-.1-.07-.25-.12-.3-.22a2.58,2.58,0,0,1-.17-.52,8.68,8.68,0,0,1,1.14-.22c.05,0,.14.38.2.59a1.13,1.13,0,0,1,0,.28Z" transform="translate(-0.15 -0.09)"/><path class="cls-4" d="M45.92,113.55c0-.21,0-.42,0-.64,0-.82.21-1.06,1.06-1.11.68,0,.8.5.89,1A1.76,1.76,0,0,1,46.47,115c-.45.12-.56,0-.55-.43s0-.66,0-1Zm.44-.26.47.79a2.49,2.49,0,0,0,.46-.82c0-.2-.26-.44-.4-.66Z" transform="translate(-0.15 -0.09)"/><path class="cls-4" d="M48.43,123c.18-.72.35-1.45.55-2.17,0-.09.2-.15.3-.22a1,1,0,0,1,.11.37c-.23,1.89-.46,3.78-.7,5.67a1,1,0,0,1-.1.41,4.35,4.35,0,0,1-.41.5,1.8,1.8,0,0,1-.13-.57c.09-.79.23-1.58.34-2.38l.06-1.59Z" transform="translate(-0.15 -0.09)"/><path class="cls-4" d="M48.46,112.67c0-.23,0-.47,0-.7a.93.93,0,0,1,1-1c.57.08.53.58.52,1s-.07,1.08-.14,1.62c0,.12-.15.22-.22.32-.5-.6-.69.53-1.1.2-.1-.08-.07-.35-.07-.54s0-.61,0-.91Zm.8-1.1a3.53,3.53,0,0,0-.22.66c0,.08.12.18.18.28a2.33,2.33,0,0,0,.31-.48C49.56,112,49.42,111.82,49.26,111.57Z" transform="translate(-0.15 -0.09)"/><path class="cls-4" d="M48.18,124.56a6.67,6.67,0,0,1-.44,1c-.11.17-.35.25-.53.37-.11-.19-.3-.38-.3-.57,0-.77.06-1.55.14-2.32a7.91,7.91,0,0,1,.29-1.46c0-.14.31-.22.47-.32a2.89,2.89,0,0,1,0,.54c-.12,1-.26,2-.39,3.08a.9.9,0,0,0,.08.31,1,1,0,0,0,.2-.25c.23-.63.45-1.27.68-1.91l0,0Z" transform="translate(-0.15 -0.09)"/><path class="cls-4" d="M42.45,115.23c-.29-.55-.58-1.1-.85-1.66a2.32,2.32,0,0,1-.11-.59c.25.07.5.12.74.21.07,0,.1.15.16.23l.25.29c.08-.11.16-.23.22-.34a3.66,3.66,0,0,1,.38-.66c.09-.1.31-.07.46-.1a1.24,1.24,0,0,1,0,.44c-.14.37-.36.72-.48,1.1s-.12.78-.23,1.15a2.47,2.47,0,0,1-.4.59l-.4-.47Z" transform="translate(-0.15 -0.09)"/><path class="cls-4" d="M12.92,156.31l.48.71a3.53,3.53,0,0,1-.93-.39c-.5-.41-.93-.89-1.38-1.34l2-.84a2.54,2.54,0,0,1,.5-.24,2.3,2.3,0,0,1,.58,0,2.43,2.43,0,0,1-.3.46q-.5.49-1,.93C12.39,156,12.5,156.16,12.92,156.31Z" transform="translate(-0.15 -0.09)"/><path class="cls-4" d="M13.35,47c-.14.76-.42,1.08-1,1.09a1,1,0,0,1-.83-1.13c.12-.35.67-.81,1-.78S13.13,46.72,13.35,47Z" transform="translate(-0.15 -0.09)"/><path class="cls-3" d="M52.31,85.72c.13.08.37.15.39.25a9.44,9.44,0,0,1,.12,1.85,6.11,6.11,0,0,1-.42,1.43.36.36,0,0,1-.29,0A1.26,1.26,0,0,1,51.68,88c.15-.76,0-1.59.57-2.24Z" transform="translate(-0.15 -0.09)"/><path class="cls-4" d="M42.08,109.86c0-1.17,0-1.23,1.1-1.27a1.31,1.31,0,0,1,.43.15c-.06.16-.12.32-.18.47s-.15.17-.13.21c.19.36,0,.51-.31.59a1,1,0,0,0-.27.17l.29.08.51.19c-.16.13-.3.34-.48.37C41.87,111.06,42.08,111.07,42.08,109.86Z" transform="translate(-0.15 -0.09)"/><path class="cls-4" d="M11.39,5.9c.37-.32.73-.66,1.13-.95a1.64,1.64,0,0,1,.63-.13c-.08.19-.16.39-.25.58a.78.78,0,0,1-.14.16L10.66,7.61l-1,.15Z" transform="translate(-0.15 -0.09)"/><path class="cls-4" d="M9.66,10.55a.45.45,0,0,0,.13,0c.38,0,.91-.15,1.11,0a11.58,11.58,0,0,1,1.32,1.78s-.14.16-.21.25l-2.37-2.1Z" transform="translate(-0.15 -0.09)"/><path class="cls-4" d="M12.81,122.2a2,2,0,0,1,.72-.43c.48-.07,1,.62.92,1.21,0,.38-.11.75-.66.71S12.75,123.14,12.81,122.2Z" transform="translate(-0.15 -0.09)"/><path class="cls-4" d="M12.21,66.2c0-.4.18-.86.79-.82s.81.5.82,1a.78.78,0,0,1-.84.84C12.36,67.28,12.21,66.84,12.21,66.2Z" transform="translate(-0.15 -0.09)"/><path class="cls-4" d="M14.1,104.46a.69.69,0,0,1-.79.77c-.6,0-.75-.48-.76-1s.17-.84.7-.88S14.11,103.87,14.1,104.46Z" transform="translate(-0.15 -0.09)"/><path class="cls-4" d="M37.61,109.19a2.63,2.63,0,0,1,.59.21,3.22,3.22,0,0,1,.39.42c-.18,0-.37,0-.55.08s-.6,0-.72.2a.79.79,0,0,0,0,.73c.08.12.43.09.66.09a4,4,0,0,0,.58-.08c-.12.18-.21.49-.36.52a2,2,0,0,1-1.16,0,.82.82,0,0,1-.41-1.19A5.85,5.85,0,0,1,37.61,109.19Z" transform="translate(-0.15 -0.09)"/><path class="cls-4" d="M11,27.32c0-.55.19-1,.81-1,.45,0,.82.44.79,1a1.11,1.11,0,0,1-.94,1C11.21,28.25,11,28,11,27.32Z" transform="translate(-0.15 -0.09)"/><path class="cls-4" d="M13,140.61c.15-.11.4-.45.7-.51s1,.69.86,1.17a1,1,0,0,1-.67.63C13.38,142,13,141.45,13,140.61Z" transform="translate(-0.15 -0.09)"/><path class="cls-4" d="M14,85.77c-.17.12-.45.48-.78.52-.62.08-.75-.43-.75-.93s.16-.84.7-.87S14,85,14,85.77Z" transform="translate(-0.15 -0.09)"/><path class="cls-4" d="M46,110l-.48.15-.76.22c-.1,0-.2.08-.3.12,0-.12-.13-.25-.11-.36.13-.56.27-1.12.45-1.67a.61.61,0,0,1,.42-.29c.07,0,.23.2.28.34C45.7,109,45.83,109.43,46,110Z" transform="translate(-0.15 -0.09)"/><path class="cls-4" d="M46.74,109a4.21,4.21,0,0,1,0-.57,4.36,4.36,0,0,1,.15-.58l.47.31a1.31,1.31,0,0,1,.15.13,1.43,1.43,0,0,1,.09-.28c.09-.16.19-.3.29-.46.09.16.25.31.26.47a6,6,0,0,1-.09,1.12,2.14,2.14,0,0,1-.2.49l-.38-.33-.23-.24c0,.1-.07.2-.08.3s0,.25,0,.34a1.14,1.14,0,0,1-.29.24,1.18,1.18,0,0,1-.14-.34A4.5,4.5,0,0,1,46.74,109Z" transform="translate(-0.15 -0.09)"/><path class="cls-4" d="M8.82,37.84c0,.6-.25,1-.79,1-.22,0-.53-.54-.58-.87s.12-1,.69-1S8.77,37.44,8.82,37.84Z" transform="translate(-0.15 -0.09)"/><path class="cls-4" d="M8.28,18.24c-.15.75-.57,1.34-1,1.19a1.08,1.08,0,0,1-.51-.84c0-.48.13-1.08.73-1.09C7.76,17.49,8,18,8.28,18.24Z" transform="translate(-0.15 -0.09)"/><path class="cls-4" d="M10.18,113.41c-.1.1-.3.4-.57.49s-.85-.49-.76-1.05a1.12,1.12,0,0,1,.55-.76C9.74,111.95,10.16,112.57,10.18,113.41Z" transform="translate(-0.15 -0.09)"/><path class="cls-4" d="M10,76c-.15.63-.38,1.07-.85,1-.27-.06-.57-.56-.63-.9s.12-1,.63-.88C9.5,75.25,9.75,75.73,10,76Z" transform="translate(-0.15 -0.09)"/><path class="cls-4" d="M9.52,57c-.16.62-.38,1-.89,1S8,57.49,8,57.13s.13-1,.68-1C9,56.2,9.24,56.72,9.52,57Z" transform="translate(-0.15 -0.09)"/><path class="cls-4" d="M10.09,95c-.23.22-.45.6-.7.62-.64.06-.76-.51-.7-1,0-.29.35-.77.56-.79C9.86,93.83,9.9,94.39,10.09,95Z" transform="translate(-0.15 -0.09)"/><path class="cls-4" d="M10.73,131.46c-.38.33-.6.69-.84.69-.67,0-.72-.6-.74-1.06,0-.22.34-.46.52-.69Z" transform="translate(-0.15 -0.09)"/><path class="cls-4" d="M51.28,111.43c0-.28,0-.57,0-.85s-.09-.69.44-.36c0,0,.16-.22.24-.34l.17-.23c0,.08.12.16.12.24,0,.73,0,1.46-.08,2.18,0,.05-.06.1-.1.16s-.14-.17-.2-.26-.11-.2-.16-.3c0,.12-.07.24-.1.36s-.11.47-.16.7c-.06-.25-.13-.5-.17-.75a4,4,0,0,1,0-.56Z" transform="translate(-0.15 -0.09)"/><path class="cls-4" d="M39.69,110.2a4,4,0,0,1,0-.77c0-.14.2-.25.31-.38a1.26,1.26,0,0,1,.22.37,2.55,2.55,0,0,1,0,.63c0,.43,0,.77.6.58.08,0,.24.17.36.26a11.48,11.48,0,0,1-1.19.38c-.07,0-.27-.23-.3-.38A3.07,3.07,0,0,1,39.69,110.2Z" transform="translate(-0.15 -0.09)"/><path class="cls-3" d="M34.43,120.17a2.1,2.1,0,0,1,0,.49c0,.07-.16.12-.24.18-.12-.56-.59.06-.79-.23,0,0-.13,0-.17,0a4.26,4.26,0,0,0-.33.3,3,3,0,0,1-.13-.67,2.68,2.68,0,0,1,.17-.63,2.19,2.19,0,0,0,.45.34.49.49,0,0,0,.39-.05,3.54,3.54,0,0,0,.47-.42l.26.67Z" transform="translate(-0.15 -0.09)"/><path class="cls-3" d="M12,8.86c0-.06-.26-.2-.27-.35a1.14,1.14,0,0,1,1-1,.77.77,0,0,1,.54.48C13.34,8.4,12.72,8.85,12,8.86Z" transform="translate(-0.15 -0.09)"/><path class="cls-3" d="M.21,18.05A6,6,0,0,1,1,14.6c.33-.81.79-1.57,1.2-2.35-.07.24-.12.48-.21.71s-.29.67-.44,1Z" transform="translate(-0.15 -0.09)"/><path class="cls-3" d="M49.47,116.89l.27-.62a4.13,4.13,0,0,0,.18.48c0,.08.14.14.21.21s.12-.14.13-.22,0-.35,0-.49a4,4,0,0,1,.37-.61c0,.17.06.34.11.51a.86.86,0,0,0,.13.2l.13-.23.35-.55c0,.29.13.72,0,.86a8.17,8.17,0,0,1-1.49,1A6.61,6.61,0,0,1,49.47,116.89Z" transform="translate(-0.15 -0.09)"/><path class="cls-4" d="M10.64,149.32c-.35.24-.53.46-.69.45-.58,0-.77-.5-.77-1,0-.2.27-.39.42-.59Z" transform="translate(-0.15 -0.09)"/><path class="cls-3" d="M29.06,120.38c-.1-.49.11-.72.68-.66s.63.27.52.79,0,.89-.6.34c0,0-.09,0-.13,0C29.06,121,29.06,121,29.06,120.38Z" transform="translate(-0.15 -0.09)"/><path class="cls-4" d="M35.33,136.61s0-.33.15-.37a1.45,1.45,0,0,1,.87,0c.1,0,.07.43.11.66-.25,0,.34,1.29-.53.34,0,0-.09,0-.13,0C35.35,137.34,35.36,137.34,35.33,136.61Z" transform="translate(-0.15 -0.09)"/><path class="cls-4" d="M28.24,137.07l.09-.41a2.29,2.29,0,0,1,.5.28c.21.2.35.4.38-.1,0-.05.21-.1.32-.15v1.17l-.52-.2c-.16-.07-.39-.71-.43.06,0,.08-.13.15-.2.23a1.09,1.09,0,0,1-.15-.28A4.31,4.31,0,0,1,28.24,137.07Z" transform="translate(-0.15 -0.09)"/><path class="cls-2" d="M1.51,14c.15-.34.31-.67.44-1s.14-.47.21-.71v-.4a.12.12,0,0,0,.13,0c.44.11.44-.27.59-.51a4.19,4.19,0,0,1,.41-.48,3,3,0,0,1,0,.64,1.43,1.43,0,0,1-.22.49,11,11,0,0,1-.78,1.29A5.1,5.1,0,0,1,1.51,14Z" transform="translate(-0.15 -0.09)"/><path class="cls-3" d="M4.2,96.15l0,.14s-.1,0-.12,0c-.41-.45-.84-.88-1.21-1.35-.16-.21-.09-.28.2-.26s0-.5.47-.23.41.85.61,1.26A2.19,2.19,0,0,1,4.2,96.15Z" transform="translate(-0.15 -0.09)"/><path class="cls-3" d="M31.58,119.28c.36.48.69.73.72,1a.77.77,0,0,1-.85.81,1,1,0,0,1-.63-.72C30.84,120.06,31.21,119.78,31.58,119.28Zm0,.49c-.21.26-.4.39-.42.54s.18.26.28.4c.13-.12.33-.23.38-.38S31.76,120,31.63,119.77Z" transform="translate(-0.15 -0.09)"/><path class="cls-4" d="M45.95,134.24a6.61,6.61,0,0,1-.2.86c0,.07-.22.1-.35.12s-.2,0-.27,0a1.47,1.47,0,0,0-.24.3,2.1,2.1,0,0,1-.23-.39c-.16-.49-.14-.45.28-.61a4,4,0,0,0,.74-.5.93.93,0,0,1,.17-.07Z" transform="translate(-0.15 -0.09)"/><path class="cls-3" d="M35.94,33.91c0,.33.09.66.12,1,0,0-.12.15-.17.14a5.48,5.48,0,0,1-.75-.15A.3.3,0,0,1,35,34.7s.08-.17.15-.18c.68-.17.29-.31,0-.47a1.5,1.5,0,0,1-.28-.27l.37-.13a1.37,1.37,0,0,1,.47-.11,1.37,1.37,0,0,1,.42.19Z" transform="translate(-0.15 -0.09)"/><path class="cls-4" d="M32.73,111.13l-1.37-.29,1.29-.27a3.37,3.37,0,0,1,.76-.13c.15,0,.29.17.43.26-.13.14-.24.35-.39.39a2.27,2.27,0,0,1-.7,0Z" transform="translate(-0.15 -0.09)"/><path class="cls-4" d="M33.5,136.95a.79.79,0,0,1,0-.28,1.61,1.61,0,0,1,.2-.3,1,1,0,0,1,.16.27c0,.16,0,.33.05.48a.33.33,0,0,0,.25.18c.08,0,.2-.12.22-.21s0-.33,0-.49a1.47,1.47,0,0,1,.16-.33c.08.12.23.26.21.36a2,2,0,0,1-.29.89.74.74,0,0,1-.69.08c-.19-.09-.28-.39-.42-.6Z" transform="translate(-0.15 -0.09)"/><path class="cls-3" d="M38.47,119.73c-.11.32.15.95-.52.48a.14.14,0,0,0-.13,0c-.89.85-.64-.06-.68-.45a1.83,1.83,0,0,1,.1-.52,1.92,1.92,0,0,0,.36.33.37.37,0,0,0,.34,0,2.51,2.51,0,0,0,.33-.47Z" transform="translate(-0.15 -0.09)"/><path class="cls-3" d="M42.39,119.63c-.38.16-.7.42-.93.36s-.66-.54-.61-.63c.16-.31.47-.69.77-.74C42.31,118.49,42,119.22,42.39,119.63Zm-.84-.82c-.13.21-.27.34-.26.45s.18.21.28.32a4.73,4.73,0,0,0,.13-.49C41.71,119,41.65,119,41.56,118.81Z" transform="translate(-0.15 -0.09)"/><path class="cls-3" d="M38.65,119.64a8.2,8.2,0,0,1,.69-.73c.07-.06.26,0,.4,0a3.22,3.22,0,0,0-.2.3.25.25,0,0,0,0,.19c.12.26.25.5.38.76-.26.08-.55.25-.78.19S38.86,120,38.65,119.64Z" transform="translate(-0.15 -0.09)"/><path class="cls-4" d="M30.19,137.61a2.1,2.1,0,0,1,.16-.53,3.37,3.37,0,0,1,.44-.49,3.68,3.68,0,0,1,.45.46,1.31,1.31,0,0,1,.2.52c0,.08-.1.27-.15.27-.37,0-.75-.05-1.12-.09l0-.13Z" transform="translate(-0.15 -0.09)"/><path class="cls-2" d="M28,4.89c.27.27.6.45.61.63,0,.71-.62.58-1,.57s-.54-.3-.82-.47Z" transform="translate(-0.15 -0.09)"/><path class="cls-3" d="M28.12,119.73c.08,0,.26.06.41.1l-.31.26a2.15,2.15,0,0,0-.16.17c1,.53-.51.44-.2.79-.1,0-.28,0-.29,0a2.26,2.26,0,0,1-.19-1C27.41,119.94,27.82,119.85,28.12,119.73Z" transform="translate(-0.15 -0.09)"/><path class="cls-4" d="M50.87,111.85c0,.37,0,.75,0,1.12,0,.11-.13.22-.2.33-.07-.1-.2-.2-.2-.3,0-.75,0-1.5,0-2.24,0-.11.18-.21.28-.32a1.26,1.26,0,0,1,.13.36c0,.35,0,.7,0,1.05Z" transform="translate(-0.15 -0.09)"/><path class="cls-3" d="M40.83,153.17c-.19.09-.44.31-.54.25s-.59-.48-.55-.58a3.9,3.9,0,0,1,.82-1.13c.08-.08.55.07.68.24s.37.69-.12.94l0,0a8.8,8.8,0,0,0-.16-.87s-.36,0-.42.06a5.53,5.53,0,0,0-.4.82l.69.27Z" transform="translate(-0.15 -0.09)"/><path class="cls-3" d="M42.48,119a.48.48,0,0,1,0-.14c0-.14.1-.28.15-.42a4.27,4.27,0,0,1,.18.39,3.5,3.5,0,0,1,.09.39,2.7,2.7,0,0,1,.17-.39c.12-.19.26-.36.38-.54a2.3,2.3,0,0,1,.18.63c0,.41-.1.88-.63.82-.24,0-.44-.39-.66-.6Z" transform="translate(-0.15 -0.09)"/><path class="cls-4" d="M38,137.27c-.27-.68-.79.52-.87-.26,0-.34.38-.73.59-1.1.19.33.39.66.56,1C38.26,137,38.09,137.1,38,137.27Z" transform="translate(-0.15 -0.09)"/><path class="cls-3" d="M1,71.32.93,64.81c.08.15.22.29.23.44,0,1.9,0,3.8,0,5.7A1.07,1.07,0,0,1,1,71.32Z" transform="translate(-0.15 -0.09)"/><path class="cls-3" d="M1.32,89.16l-.11-6.65c.08.14.24.28.24.43q0,2.89,0,5.78A1.4,1.4,0,0,1,1.32,89.16Z" transform="translate(-0.15 -0.09)"/><path class="cls-4" d="M47,133.76c-.27.43.41,1.18-.52,1.21a2.51,2.51,0,0,1-.22-.83c-.07-.44.24-.56.58-.61C46.88,133.52,47,133.69,47,133.76Z" transform="translate(-0.15 -0.09)"/><path class="cls-3" d="M52.89,110.53l-.31,1.2c-.06-.44-.14-.88-.17-1.32a5.5,5.5,0,0,1,0-1c0-.1.16-.18.24-.27a1,1,0,0,1,.13.27C52.83,109.72,52.85,110,52.89,110.53Z" transform="translate(-0.15 -0.09)"/><path class="cls-3" d="M1.9,123v-1a1.94,1.94,0,0,1,.59,1.82,3.18,3.18,0,0,1-.11.45c-.1-.12-.2-.23-.29-.36a2.16,2.16,0,0,1-.14-.24l0-.26Z" transform="translate(-0.15 -0.09)"/><path class="cls-3" d="M31.89,139c-.22.32-.42.66-.67,1-.06.07-.28,0-.41,0a.57.57,0,0,1-.27-.22c-.19-.25-.36-.52-.54-.77a4.33,4.33,0,0,0,.7.45.75.75,0,0,0,.49-.08c.24-.1.47-.23.7-.35Z" transform="translate(-0.15 -0.09)"/><path class="cls-3" d="M43.81,119l.64-.94.49.95c-.28.14-.56.29-.86.39A2.29,2.29,0,0,1,43.81,119Z" transform="translate(-0.15 -0.09)"/><path class="cls-3" d="M37.53,139.4c-.23,0-.37,0-.42,0-.44-.44-.82-.51-1.16.11,0,.07-.19.07-.29.1a1.49,1.49,0,0,1,.11-.3,2.61,2.61,0,0,1,.34-.45c.17-.17.36-.32.55-.47Z" transform="translate(-0.15 -0.09)"/><path class="cls-4" d="M32.86,136.46c-.12.51-.21.89-.32,1.27,0,0-.14.09-.16.07a.38.38,0,0,1-.15-.21c-.05-.32.13-.73-.39-.83,0-.08,0-.22.05-.22.32,0,.65-.06,1-.07C32.9,136.46,32.95,136.54,32.86,136.46Z" transform="translate(-0.15 -0.09)"/><path class="cls-3" d="M41.27,138.07l.58-.34c.11-.06.3-.17.34-.13s.37.33.36.5-.22.37-.39,0a2.06,2.06,0,0,1-.36.28c-.15.07-.36.17-.48.12s-.26-.26-.35-.41.08-.16.12-.24Z" transform="translate(-0.15 -0.09)"/><path class="cls-4" d="M47.23,133.94a2.9,2.9,0,0,1,.25-.7c.07-.1.29-.1.44-.14,0,.12,0,.25,0,.37a1.16,1.16,0,0,0,0,.34c.12.37.06.68-.37.7C47.45,134.52,47.33,134.13,47.23,133.94Z" transform="translate(-0.15 -0.09)"/><path class="cls-2" d="M5.8,9.89c-.45.3-.76.53-1.1.72,0,0-.29-.21-.28-.24.19-.38.4-.74.61-1.11Z" transform="translate(-0.15 -0.09)"/><path class="cls-3" d="M46.07,118.14l.23-.59.2.36.17.33c.07-.11.14-.22.2-.34s.15-.33.22-.5c0,.2.16.44.09.59a4.2,4.2,0,0,1-.57.76Z" transform="translate(-0.15 -0.09)"/><path class="cls-4" d="M40.11,136.09a.65.65,0,0,1,0-.21c0-.14.12-.27.18-.4.07.12.14.24.2.37a2.43,2.43,0,0,0,.18.47c.07.1.23.13.35.19a4.26,4.26,0,0,1-.69.26s-.17-.21-.22-.34a1.09,1.09,0,0,1,0-.35Z" transform="translate(-0.15 -0.09)"/><path class="cls-4" d="M41.27,135.07c.34.51.55.3.76,0,0,0,.17.07.17.11a.74.74,0,0,1-.08.26l-.4,1c-.2-.32-.4-.62-.58-1C41.1,135.42,41.2,135.28,41.27,135.07Z" transform="translate(-0.15 -0.09)"/><path class="cls-5" d="M50.65,80q0-1.16,0-2.32v-.15q0-.26,0-.52c.07.13.21.25.21.38q0,1.12,0,2.25C50.89,79.79,50.74,79.91,50.65,80Z" transform="translate(-0.15 -0.09)"/><path class="cls-3" d="M29.9,139.86a.87.87,0,0,0-1.47.22c0,.06-.16.08-.24.11a1,1,0,0,1,.06-.29,2,2,0,0,1,.23-.26c.71-.86.88-.83,1.43.21Z" transform="translate(-0.15 -0.09)"/><path class="cls-4" d="M44,135.83a3.47,3.47,0,0,1-.71-.68c-.05-.1.16-.38.31-.53s.26,0,.39,0a1.6,1.6,0,0,0,0,.35c0,.14.13.27.13.4A2.16,2.16,0,0,1,44,135.83Z" transform="translate(-0.15 -0.09)"/><path class="cls-4" d="M49.72,132.61a2.3,2.3,0,0,1,0,.66c-.05.13-.21.21-.32.32a1.49,1.49,0,0,1-.22-.36.68.68,0,0,1,0-.41,6.38,6.38,0,0,1,.37-.67Z" transform="translate(-0.15 -0.09)"/><path class="cls-3" d="M36.33,35.72c-.57.16-.94.29-1.33.36-.07,0-.27-.24-.26-.35s.21-.45.27-.43A12,12,0,0,1,36.33,35.72Z" transform="translate(-0.15 -0.09)"/><path class="cls-2" d="M3.44,13.22c0-.77.34-.88.79-.82.13,0,.23.22.34.34-.3.24-.59.49-.9.7C3.64,13.46,3.45,13.22,3.44,13.22Z" transform="translate(-0.15 -0.09)"/><path class="cls-3" d="M36,119.3c.55,0,.82,0,.39.42-.18.19-.13.61-.19.92-.13-.27-.24-.54-.38-.81a2.61,2.61,0,0,0-.29-.37Z" transform="translate(-0.15 -0.09)"/><path class="cls-3" d="M48.27,117.72l.47-1a3.34,3.34,0,0,1,.4.9c0,.11-.37.29-.59.41C48.52,118,48.39,117.84,48.27,117.72Z" transform="translate(-0.15 -0.09)"/><path class="cls-3" d="M2.17,137l-.06-1.38c.63.48.5,1.17.52,1.82a.51.51,0,0,1-.06.16c-.05,0-.12-.07-.15-.12S2.26,137.17,2.17,137Z" transform="translate(-0.15 -0.09)"/><path class="cls-2" d="M4.73,9l-.59.87C4,9.74,3.7,9.5,3.73,9.46a7.55,7.55,0,0,1,.67-.83Z" transform="translate(-0.15 -0.09)"/><path class="cls-3" d="M.9,62.53.82,57.3a2.11,2.11,0,0,1,.21.61c0,1.39,0,2.78,0,4.17A1.63,1.63,0,0,1,.9,62.53Z" transform="translate(-0.15 -0.09)"/><path class="cls-3" d="M45.33,151.58c0-.22.26-.51-.24-.55-.11,0-.28-.28-.29-.44s.18-.28.31-.4.16.07.25.11c-.61.61.35.41.39.72,0,.12.25.22.39.32l-.49.2-.27.08Z" transform="translate(-0.15 -0.09)"/><path class="cls-3" d="M47.92,117.32c.06.09.17.19.16.28a3.33,3.33,0,0,1-.17.75.78.78,0,0,1-.35,0,8.15,8.15,0,0,1,0-1.21c0-.07.25-.13.39-.2l.13.33Z" transform="translate(-0.15 -0.09)"/><path class="cls-4" d="M50.59,131.63l-.16,1.2-.15,0-.05-.09v.11l-.29,0C49.84,132.26,49.93,131.78,50.59,131.63Z" transform="translate(-0.15 -0.09)"/><path class="cls-3" d="M9.69,7.76l1-.15-.31.48L10,8.35H9.28Z" transform="translate(-0.15 -0.09)"/><path class="cls-4" d="M38.72,136.16l.22-.41.17.48a1.12,1.12,0,0,0,.14.36,1.77,1.77,0,0,0,.38.26c-.17.06-.36.19-.51.15s-.26-.23-.35-.38A1.51,1.51,0,0,1,38.72,136.16Z" transform="translate(-0.15 -0.09)"/><path class="cls-4" d="M1.18,79.66l0-4.94h.14c0,1.49,0,3,0,4.48A1.8,1.8,0,0,1,1.18,79.66Z" transform="translate(-0.15 -0.09)"/><path class="cls-2" d="M27.39,9.94l-.3-.45c.19-.11.4-.34.55-.31a2.55,2.55,0,0,1,.72.44Z" transform="translate(-0.15 -0.09)"/><path class="cls-3" d="M34.2,139.11c.72.51.92-.35,1.38-.53h0l-.71,1.17-.73-.58Z" transform="translate(-0.15 -0.09)"/><path class="cls-3" d="M45.89,117.81l-.26,1s0,.11-.07.12-.16,0-.18,0c-.15-.34-.28-.69-.41-1a2.53,2.53,0,0,0,.29,0l.36-.09.23-.08Z" transform="translate(-0.15 -0.09)"/><path class="cls-3" d="M38.25,152.93l.18-.53c0,.24.08.48.12.72s0,.35.07.48.25.13.39.2c-.18,0-.4.18-.53.12s-.17-.31-.23-.49A2.41,2.41,0,0,1,38.25,152.93Z" transform="translate(-0.15 -0.09)"/><path class="cls-3" d="M45,136.76a1.91,1.91,0,0,1-.13.46,6.09,6.09,0,0,1-.43.59c-.22-.23-.45-.45-.66-.69a.18.18,0,0,1,0-.18.18.18,0,0,1,.18,0c.52.65.69,0,1-.25Z" transform="translate(-0.15 -0.09)"/><path class="cls-3" d="M44.34,152c-.3-.32.13-.86-.35-1.12,0-.07.07-.21.12-.21a.68.68,0,0,1,.44,0c.2.14.05,1.11-.18,1.34Z" transform="translate(-0.15 -0.09)"/><path class="cls-3" d="M34.71,153.83a1,1,0,0,1,0,.28,3.38,3.38,0,0,1-.17.39,2.15,2.15,0,0,1-.15-.39,5,5,0,0,1,0-.54,1.81,1.81,0,0,1,0-.41s.16-.07.24-.1a3.25,3.25,0,0,1,.15.42,1.63,1.63,0,0,1,0,.35Z" transform="translate(-0.15 -0.09)"/><path class="cls-4" d="M50.69,107.71c-.28.19-.55.39-.84.55,0,0-.18-.13-.28-.19a2.66,2.66,0,0,1,.53-.49c.14-.08.36,0,.55,0Z" transform="translate(-0.15 -0.09)"/><path class="cls-3" d="M40.8,138.66l-.07.11c-.36-.13-.72-.25-1.06-.4a.63.63,0,0,1,.06-.34c.14-.3.3-.3.5,0A8.53,8.53,0,0,0,40.8,138.66Z" transform="translate(-0.15 -0.09)"/><path class="cls-3" d="M43.06,136.91c.27.36.48.62.68.89,0,0-.08.15-.08.14l-1-.42Z" transform="translate(-0.15 -0.09)"/><path class="cls-4" d="M48.89,132.78a2.4,2.4,0,0,0-.12.32c-.05.28-.1.57-.15.86a4.6,4.6,0,0,1-.29-.92c0-.12.23-.28.37-.4S48.84,132.74,48.89,132.78Z" transform="translate(-0.15 -0.09)"/><path class="cls-3" d="M42.11,152c.05.25.12.5.16.75,0,.07,0,.19-.06.21a2.41,2.41,0,0,1-.53.12s-.11-.16-.09-.21c.15-.3.32-.59.49-.89Z" transform="translate(-0.15 -0.09)"/><path class="cls-3" d="M33.57,139.58c-.35-.17-.68-.43-1.08-.14l0,0,.55-.53.62.68Z" transform="translate(-0.15 -0.09)"/><path class="cls-2" d="M3,14.32c-.35.21-.58.36-.83.47,0,0-.23-.23-.22-.24A4.62,4.62,0,0,1,2.61,14S2.82,14.13,3,14.32Z" transform="translate(-0.15 -0.09)"/><path class="cls-3" d="M2,128.22l0-.69c.11.12.26.21.31.35a8.23,8.23,0,0,1,.23.9Z" transform="translate(-0.15 -0.09)"/><path class="cls-3" d="M47,136.85c-.19-.22-.32-.35-.42-.5s0-.16,0-.25a2.62,2.62,0,0,0,.34.12.31.31,0,0,0,.2,0c.11-.06.22-.14.33-.21a.78.78,0,0,1,0,.26C47.28,136.42,47.15,136.6,47,136.85Z" transform="translate(-0.15 -0.09)"/><path class="cls-3" d="M45.82,136.06l.61.78c-.06,0-.14.13-.18.12-.25-.1-.48-.23-.72-.35Z" transform="translate(-0.15 -0.09)"/><path class="cls-3" d="M1.88,120.58v-.27c.67,0,.55.46.56.86,0,0-.07.1-.1.14s-.12-.07-.15-.12S2,120.79,1.88,120.58Z" transform="translate(-0.15 -0.09)"/><path class="cls-3" d="M42.08,152a.9.9,0,0,0,0-.27,3.36,3.36,0,0,0-.25-.37l.59-.15a3.22,3.22,0,0,1,0,.57c0,.1-.15.17-.23.25Z" transform="translate(-0.15 -0.09)"/><path class="cls-3" d="M1.29,74.73H1.15l-.09-1.28c.08.06.23.11.23.17C1.31,74,1.3,74.36,1.29,74.73Z" transform="translate(-0.15 -0.09)"/><path class="cls-3" d="M1.59,96.36l-.14-2.68c0,.61.09,1.23.13,1.84C1.59,95.8,1.58,96.08,1.59,96.36Z" transform="translate(-0.15 -0.09)"/><path class="cls-3" d="M48.18,124.56l.27-1.57-.06,1.59Z" transform="translate(-0.15 -0.09)"/><path class="cls-3" d="M53,10.15l-.41,1.57Z" transform="translate(-0.15 -0.09)"/><path class="cls-3" d="M.48,35.06l0-2.4Z" transform="translate(-0.15 -0.09)"/><path class="cls-3" d="M2.51,118.7l-.17.36a4.35,4.35,0,0,1-.32-.56c0-.06.09-.17.14-.26Z" transform="translate(-0.15 -0.09)"/><path class="cls-3" d="M37.72,138.55a.54.54,0,0,1,.12.06l.55.52a1.7,1.7,0,0,1-.2.13c-.18-.21-.34-.43-.51-.65Z" transform="translate(-0.15 -0.09)"/><path class="cls-3" d="M.62,44l0-2.12Z" transform="translate(-0.15 -0.09)"/><path class="cls-3" d="M43.43,151.67l-.2.52a1.21,1.21,0,0,1-.14-.43,2.54,2.54,0,0,1,.17-.57Z" transform="translate(-0.15 -0.09)"/><path class="cls-3" d="M48.42,135.78l-.52-.14.23-.42.38.46Z" transform="translate(-0.15 -0.09)"/><path class="cls-3" d="M44.37,152l-.42.24-.08-.17.46-.1Z" transform="translate(-0.15 -0.09)"/><path class="cls-3" d="M1.33,72.63,1.26,73a1.6,1.6,0,0,1-.1-.34,1.38,1.38,0,0,1,.05-.33Z" transform="translate(-0.15 -0.09)"/><path class="cls-3" d="M39.64,138.79a1.12,1.12,0,0,1-.31.13s-.1-.08-.16-.13a1.06,1.06,0,0,1,.19-.17S39.46,138.67,39.64,138.79Z" transform="translate(-0.15 -0.09)"/><path class="cls-3" d="M34.14,139.16l-.34-.3.09-.09.31.33Z" transform="translate(-0.15 -0.09)"/><path class="cls-3" d="M39,138.45a1.08,1.08,0,0,1-.21.21s-.1-.09-.16-.14a1.16,1.16,0,0,1,.2-.18S38.89,138.4,39,138.45Z" transform="translate(-0.15 -0.09)"/><path class="cls-3" d="M45.37,151.62l-.27.24-.12-.14.35-.15Z" transform="translate(-0.15 -0.09)"/><path class="cls-3" d="M45.48,137.13a.79.79,0,0,1-.12.19s-.13-.05-.13-.08a.25.25,0,0,1,.08-.17S45.4,137.11,45.48,137.13Z" transform="translate(-0.15 -0.09)"/><path class="cls-3" d="M33.61,139.55l.21.19,0,0-.2-.21Z" transform="translate(-0.15 -0.09)"/><path class="cls-3" d="M48.51,135.68l.18.23s-.1.06-.11,0a1.86,1.86,0,0,1-.17-.19Z" transform="translate(-0.15 -0.09)"/><path class="cls-3" d="M52.59,11.72l-.14.29Z" transform="translate(-0.15 -0.09)"/><path class="cls-3" d="M41.12,152.89l-.29.28,0,0,.28-.28Z" transform="translate(-0.15 -0.09)"/><path class="cls-3" d="M47.67,135.54s0,.09-.07.11-.07,0-.11,0,0-.09.06-.11S47.63,135.52,47.67,135.54Z" transform="translate(-0.15 -0.09)"/><path class="cls-3" d="M37.67,138.61l-.17-.1,0,0,.17.09Z" transform="translate(-0.15 -0.09)"/><path class="cls-3" d="M52.81,88.62h0s0,0,0,0l.08,0Z" transform="translate(-0.15 -0.09)"/><path class="cls-3" d="M32.09,139.81l.05,0a.16.16,0,0,1,0,.06l-.05,0Z" transform="translate(-0.15 -0.09)"/><path class="cls-3" d="M43.55,152.53l-.05,0,0-.09h.06S43.55,152.52,43.55,152.53Z" transform="translate(-0.15 -0.09)"/><path class="cls-3" d="M50.23,132.8v-.11l.05.09Z" transform="translate(-0.15 -0.09)"/><path class="cls-3" d="M35.58,138.57l0-.05,0,0Z" transform="translate(-0.15 -0.09)"/><path class="cls-3" d="M31.9,139l0-.05,0,.05Z" transform="translate(-0.15 -0.09)"/><path class="cls-3" d="M44.9,136.7l.09,0,0,.1Z" transform="translate(-0.15 -0.09)"/><path class="cls-3" d="M30.06,140l.05,0-.05,0Z" transform="translate(-0.15 -0.09)"/><path class="cls-3" d="M30.05,140l-.15-.13,0,0,.13.15Z" transform="translate(-0.15 -0.09)"/><path class="cls-3" d="M32.49,139.45l-.09,0,0-.09Z" transform="translate(-0.15 -0.09)"/><path class="cls-4" d="M44.51,2.34H43.33l-.46,0a1.63,1.63,0,0,0,.41.3c1.23.4,2.5.68,3.68,1.19a28.24,28.24,0,0,1,3.3,1.85,1.43,1.43,0,0,1,.49.65.78.78,0,0,1-.05.57c0,.06-.34,0-.48,0-3-1.55-6.26-2.06-9.48-2.8l-.39-.11a3.53,3.53,0,0,0,.27-.36c.21-.37.64-.67.33-1.19,0,0,.15-.21.24-.3s.09,0,.13,0l1,.09a4.43,4.43,0,0,0-1-.34,14.65,14.65,0,0,0-1.6,0,.21.21,0,0,0-.13,0c-.22.19-.24.87-.76.25A2.18,2.18,0,0,0,38,1.55a7.25,7.25,0,0,0-1.52-.43C35.82,1,35.19,1,34.56,1L32.43.88l-1-.06L31.14.76,27.66.56H26.39l-.2,0L22.44.72c-.63,0-1.25.06-1.88.05-.13,0-.27-.15-.4-.22L26,.21h4A60.57,60.57,0,0,1,43.17,1.93C43.62,2.05,44.06,2.2,44.51,2.34Z" transform="translate(-0.15 -0.09)"/><path class="cls-2" d="M7,4.09l-.33.15-.88.24a3.28,3.28,0,0,1,.69-.54c1.19-.5,2.4-1,3.6-1.42l.39,0h0l.83-.16,3.85-.84a1.24,1.24,0,0,0,.35,0,4.57,4.57,0,0,0,.5-.26l.71-.14h0c.7,0,1.39-.08,2.09-.07a2,2,0,0,1,.64.24,43.07,43.07,0,0,0-8.83,1.64L9.1,3.37l-.2.05-1.29.5L7.39,4Z" transform="translate(-0.15 -0.09)"/><path class="cls-1" d="M5.83,4.48l.88-.24c-.78.65-1.56,1.3-2.32,2a6.78,6.78,0,0,0-.93.92C3,7.71,2.61,8.34,2.17,8.93,2.1,9,1.9,9,1.76,9A5.53,5.53,0,0,1,4.34,5.44c.39-.29.82-.53,1.23-.79l.19-.12A.13.13,0,0,0,5.83,4.48Z" transform="translate(-0.15 -0.09)"/><path class="cls-1" d="M52.71,144.24c-.1-.06-.29-.12-.3-.19-.09-1.43-.18-2.85-.23-4.28,0-.37.07-.78.59-.8Z" transform="translate(-0.15 -0.09)"/><path class="cls-1" d="M19.47,1.25A2,2,0,0,0,18.83,1c-.7,0-1.39,0-2.09.07L19.46.72a7,7,0,0,0,.7-.17c.13.08.27.22.4.22.63,0,1.25,0,1.88-.05A2.18,2.18,0,0,0,23,1c.73.07,1.47.09,2.2.12A9.8,9.8,0,0,1,24,1.28c-1.39,0-2.77,0-4.16.06A1.76,1.76,0,0,1,19.47,1.25Z" transform="translate(-0.15 -0.09)"/><path class="cls-1" d="M15.19,1.51l-3.85.84-.83.16,4.63-1.12s.06,0,.06,0A.33.33,0,0,1,15.19,1.51Z" transform="translate(-0.15 -0.09)"/><path class="cls-1" d="M54.11,19.78c-.66-.78-.66-1,0-1.44l.06,1.29Z" transform="translate(-0.15 -0.09)"/><path class="cls-1" d="M16.75,1.08,16,1.22Z" transform="translate(-0.15 -0.09)"/><path class="cls-1" d="M52.79,137.88v0Z" transform="translate(-0.15 -0.09)"/><path class="cls-1" d="M10.52,2.49l-.39,0Z" transform="translate(-0.15 -0.09)"/><path class="cls-1" d="M1.9,123l0,.44Z" transform="translate(-0.15 -0.09)"/><path class="cls-1" d="M52.81,136.18l-.16-.09.16-.08Z" transform="translate(-0.15 -0.09)"/><path class="cls-1" d="M52.8,136.89l-.16-.09.16-.09Z" transform="translate(-0.15 -0.09)"/><path class="cls-2" d="M5.76,4.53l-.19.12Z" transform="translate(-0.15 -0.09)"/><path class="cls-1" d="M47.36,64.68l-5.49.09a.65.65,0,0,1-.22-.09,1.2,1.2,0,0,1,.13-.16l5.6-4.95a.4.4,0,0,1,.13,0c.08,1-.73,2-.35,3a.51.51,0,0,1,0,.41C46.59,63.62,46.82,64.17,47.36,64.68Z" transform="translate(-0.15 -0.09)"/><path class="cls-1" d="M48.81,68.34c.08-.64.19-1.28.24-1.92s0-1.08,0-1.62c.08.13.22.25.22.38,0,.84,0,1.67,0,2.51C49.26,67.92,49,68.12,48.81,68.34Z" transform="translate(-0.15 -0.09)"/><path class="cls-1" d="M48.61,64.67h-1C47.92,64.57,48.26,64.07,48.61,64.67Z" transform="translate(-0.15 -0.09)"/><path class="cls-1" d="M50.67,77.56v.15a.65.65,0,0,1,0-.1S50.66,77.58,50.67,77.56Z" transform="translate(-0.15 -0.09)"/><path class="cls-1" d="M32.43.88,34.56,1c.08.07.15.19.25.21.82.21,1.66.4,2.48.63.09,0,.18.33.18.33-.37.21-.77.6-1.13.57-1.66-.16-3.31-.44-5-.69a4,4,0,0,1-.75-.27l-1.43-.53c.21,0,.42,0,.63,0l4.48.46a1.12,1.12,0,0,0,.34-.08c-.1-.09-.18-.21-.29-.25s-.46-.09-.68-.15Z" transform="translate(-0.15 -0.09)"/><path class="cls-4" d="M26.71,3.07H24.66A1,1,0,0,1,24.42,3c.07,0,.14-.13.22-.13,1.45-.1,2.9-.2,4.35-.27.7,0,1.4,0,2.1,0,1,0,1.91.06,2.85.16,1.22.13,2.44.34,3.66.53a1.1,1.1,0,0,1,.29.14,1.22,1.22,0,0,1-.34.08c-1.66-.11-3.32-.29-5-.34-2-.06-3.9,0-5.86,0Z" transform="translate(-0.15 -0.09)"/><path class="cls-2" d="M32.43.88l1.25.34c.23.06.46.08.68.15s.19.16.29.25a1.12,1.12,0,0,1-.34.08l-4.48-.46c-.21,0-.42,0-.63,0l-1.54-.08-.87-.05H25.65l-.41,0C24.51,1.06,23.78,1,23,1a2.18,2.18,0,0,1-.61-.25L26.19.59l.2,0h1.27l3.48.2.33.06Z" transform="translate(-0.15 -0.09)"/><path class="cls-1" d="M9.1,3.37l1.53-.48A1.54,1.54,0,0,1,9.1,3.37Z" transform="translate(-0.15 -0.09)"/><path class="cls-1" d="M7.61,3.93l1.29-.5A1.08,1.08,0,0,1,7.61,3.93Z" transform="translate(-0.15 -0.09)"/><path class="cls-1" d="M25.65,1.12h.88C26.24,1.71,25.94,1.5,25.65,1.12Z" transform="translate(-0.15 -0.09)"/><path class="cls-1" d="M26.78,1.12l.87.05Z" transform="translate(-0.15 -0.09)"/><path class="cls-1" d="M7,4.09,7.39,4Z" transform="translate(-0.15 -0.09)"/><path class="cls-1" d="M45.37,42.44c-.28.61-.54,1.19-.83,1.75,0,.06-.29.07-.4,0-1.24-.56-2.48-1.13-3.72-1.71-.09,0-.15-.15-.22-.23a1.33,1.33,0,0,1,.22-.14c1.25-.47,2.51-.94,3.77-1.4.12,0,.38,0,.42,0C44.89,41.33,45.12,41.89,45.37,42.44Z" transform="translate(-0.15 -0.09)"/><path class="cls-1" d="M37.82,96.71A17.11,17.11,0,0,1,38,95a1.47,1.47,0,0,1,2.64-.78,19,19,0,0,1,1.83,3.15s-.14.25-.23.26c-1.3.17-2.6.34-3.9.45-.16,0-.42-.28-.49-.48a2.71,2.71,0,0,1,0-.84Z" transform="translate(-0.15 -0.09)"/><path class="cls-1" d="M39.54,147.21a5.21,5.21,0,0,1,4.08-5.43A2.27,2.27,0,0,1,46,144.49c0,.13-.25.25-.41.3-1.79.58-3.58,1.16-5.38,1.7-.42.12-.62.28-.54.72Zm3.55-2c.5-.18,1-.34,1.5-.55a.57.57,0,0,0,.3-.44,5.91,5.91,0,0,0-.35-1c-.12.3-.24.6-.36.9-.05.12-.12.23-.18.35a1.73,1.73,0,0,0,0-.35c-.06-.2-.15-.4-.22-.59l-.64.4h-.14a3,3,0,0,0-1.12.19c-.17.11-.1.59-.15.9a2.77,2.77,0,0,1-.09.32c0-.11-.06-.21-.09-.32l-.18-.82c-.08.29-.16.58-.22.87a.67.67,0,0,0,0,.41c.07.12.26.3.33.27.5-.16,1-.37,1.49-.56Z" transform="translate(-0.15 -0.09)"/><path class="cls-3" d="M45,145.83s0,.05,0,.07c.29.74.29.74-.63,1-.76.23-1.51.49-2.27.68-.35.09-.79-.14-1,.37,0,.05-.35.06-.36,0a1.67,1.67,0,0,1-.14-.72c0-.17.29-.46.34-.44.58.25.94-.31,1.43-.37l.38,0c-.06.12-.12.23-.17.35s-.09.24-.14.36a.23.23,0,0,0,.09,0c.15-.08.36-.12.44-.25a1.94,1.94,0,0,0,.16-.59l.41.19s.1,0,.1,0c.12-.75.79-.57,1.24-.75Z" transform="translate(-0.15 -0.09)"/><path class="cls-3" d="M40.87,149.14a3,3,0,0,0,3.31-.41l.08.08c-1.11,1.12-2.53,1.3-3.52.45Z" transform="translate(-0.15 -0.09)"/><path class="cls-3" d="M39.54,147.21h.18l.73,1.63-.12.13A2.45,2.45,0,0,1,39.54,147.21Z" transform="translate(-0.15 -0.09)"/><path class="cls-3" d="M45.61,146.63c.07-.34.13-.68.21-1a4.31,4.31,0,0,1,.2-.52,1.93,1.93,0,0,1,0,.54c-.1.35-.24.69-.37,1Z" transform="translate(-0.15 -0.09)"/><path class="cls-3" d="M40.75,149.26l-.42-.3.12-.13.42.31Z" transform="translate(-0.15 -0.09)"/><path class="cls-3" d="M45.22,147.65q0,.14,0,.27h0l-.4.31-.07-.07.42-.57Z" transform="translate(-0.15 -0.09)"/><path class="cls-3" d="M44.86,145.73a3.44,3.44,0,0,1,.31-.21s.08.09.12.14l-.32.17Z" transform="translate(-0.15 -0.09)"/><path class="cls-3" d="M45.66,146.67l-.15.42-.05,0,.15-.41Z" transform="translate(-0.15 -0.09)"/><path class="cls-3" d="M45.16,147.6l.13-.29.08.07-.15.27Z" transform="translate(-0.15 -0.09)"/><path class="cls-3" d="M45.29,147.31l.16-.27.05,0-.13.29Z" transform="translate(-0.15 -0.09)"/><path class="cls-3" d="M44.18,148.73l.15-.14.07.07-.14.14Z" transform="translate(-0.15 -0.09)"/><path class="cls-3" d="M44.54,148.53l-.14.14-.07-.07.15-.14Z" transform="translate(-0.15 -0.09)"/><path class="cls-3" d="M44.69,148.39l-.15.14-.07-.07.13-.15Z" transform="translate(-0.15 -0.09)"/><path class="cls-3" d="M44.81,148.23l-.13.15-.08-.08.14-.14Z" transform="translate(-0.15 -0.09)"/><path class="cls-1" d="M42.66,27.27c-.72-.9-1.44-1.81-2.17-2.7a.91.91,0,0,1-.23-1c.21-.67.3-1.38.45-2.06.09-.42.26-.63.57-.13a.43.43,0,0,0,.09.11c2,1.65,1.61,3.91,1.54,6.1,0,1,.1,2,.16,3.06a2.64,2.64,0,0,1,0,.42,2.33,2.33,0,0,1-.1.38c-.12-.05-.29-.07-.37-.16A18.8,18.8,0,0,1,41,29.15a7.9,7.9,0,0,1-1-4.07,1.45,1.45,0,0,1,.11-.37,1.55,1.55,0,0,1,.27.21c.55.65,1.07,1.32,1.63,1.95a2.65,2.65,0,0,0,.67.4v.14l.07,0Z" transform="translate(-0.15 -0.09)"/><path class="cls-1" d="M43.78,27.57a5,5,0,0,0,.7-.49c.4-.39.77-.82,1.16-1.23.09-.1.2-.18.31-.27A2.55,2.55,0,0,1,46,26a7.48,7.48,0,0,1-1.17,4.5,6.18,6.18,0,0,1-1.3,1.11,7.57,7.57,0,0,1-.14-1.4c.07-.89.24-1.78.36-2.67Z" transform="translate(-0.15 -0.09)"/><path class="cls-1" d="M43.79,27.56c-.11-.15-.3-.29-.31-.45,0-1.06-.05-2.11-.05-3.17a.79.79,0,0,1,.16-.5C44,23,44.52,22.51,45,22c.21-.22.38-.29.45.09.17.92.34,1.85.45,2.78,0,.17-.23.39-.37.57l-1.72,2.1Z" transform="translate(-0.15 -0.09)"/><path class="cls-1" d="M43,20.8c0,.59,0,1.18,0,1.76a1.32,1.32,0,0,1-.08.3,1.47,1.47,0,0,1-.2-.18c-.41-.51-.83-1-1.21-1.56a.59.59,0,0,1,0-.53c.39-.56.82-1.09,1.26-1.62a1.23,1.23,0,0,1,.33-.21,3.74,3.74,0,0,1,0,.4c0,.54,0,1.08,0,1.63Z" transform="translate(-0.15 -0.09)"/><path class="cls-1" d="M43.39,20.72c0-.54,0-1.08,0-1.62a1.86,1.86,0,0,1,0-.26,1,1,0,0,1,.19.17c.22.33.45.66.66,1,.83,1.41.79,1.66-.44,2.75a2,2,0,0,1-.28.18,1.12,1.12,0,0,1-.11-.32c0-.63,0-1.27,0-1.9Z" transform="translate(-0.15 -0.09)"/><path class="cls-1" d="M37.82,128.81a2.17,2.17,0,0,1-.35.62,2.25,2.25,0,0,1-.88.56,7.85,7.85,0,0,1-1.35.17c.1-.37.18-.74.29-1.11s.17-.59.28-.88.25-.72.36-.71C37.13,127.53,37.83,128.08,37.82,128.81Z" transform="translate(-0.15 -0.09)"/><path class="cls-1" d="M41.27,126.17c-.39.42-.67.72-1,1a.89.89,0,0,1-.17-.12c.21-.33.42-.67.66-1C40.83,126,41,126.11,41.27,126.17Z" transform="translate(-0.15 -0.09)"/><path class="cls-1" d="M35.54,114.13l.52.65a5.48,5.48,0,0,1-.76.45s-.32-.31-.29-.43S35.27,114.45,35.54,114.13Z" transform="translate(-0.15 -0.09)"/><path class="cls-1" d="M46.36,113.29l.53-.69c.14.22.43.46.4.66a2.49,2.49,0,0,1-.46.82Z" transform="translate(-0.15 -0.09)"/><path class="cls-1" d="M49.26,111.57c.16.26.3.39.27.46a2.33,2.33,0,0,1-.31.48c-.06-.09-.19-.19-.18-.28A3.53,3.53,0,0,1,49.26,111.57Z" transform="translate(-0.15 -0.09)"/><path class="cls-1" d="M31.63,119.77c.13.28.28.45.25.56s-.25.25-.38.38c-.1-.13-.3-.28-.28-.4S31.42,120,31.63,119.77Z" transform="translate(-0.15 -0.09)"/><path class="cls-1" d="M41.56,118.81c.09.16.16.22.15.28a4.73,4.73,0,0,1-.13.49c-.1-.1-.26-.2-.28-.32S41.43,119,41.56,118.81Z" transform="translate(-0.15 -0.09)"/><path class="cls-1" d="M41.09,152.86l-.28.28-.69-.27a5.53,5.53,0,0,1,.4-.82c.06-.08.41-.08.42-.06A8.8,8.8,0,0,1,41.09,152.86Z" transform="translate(-0.15 -0.09)"/><path class="cls-1" d="M27.66.56h0Z" transform="translate(-0.15 -0.09)"/><path class="cls-1" d="M31.47.83,31.14.76Z" transform="translate(-0.15 -0.09)"/><path class="cls-1" d="M26.39.57l-.2,0Z" transform="translate(-0.15 -0.09)"/><path class="cls-4" d="M42.94,145.23c-.49.19-1,.4-1.49.56-.08,0-.27-.15-.33-.27a.67.67,0,0,1,0-.41c.06-.29.15-.58.22-.87l.18.82c0,.11.06.21.09.32a2.77,2.77,0,0,0,.09-.32c0-.31,0-.79.15-.9a3,3,0,0,1,1.12-.19c-.2.27-.19.38,0,.8A1.71,1.71,0,0,1,42.94,145.23Z" transform="translate(-0.15 -0.09)"/><path class="cls-4" d="M43.08,143.95l.64-.4c.08.2.16.39.22.59a1.73,1.73,0,0,1,0,.35c.06-.12.13-.23.18-.35.13-.3.24-.6.36-.9a5.91,5.91,0,0,1,.35,1,.57.57,0,0,1-.3.44c-.48.22-1,.37-1.5.55Z" transform="translate(-0.15 -0.09)"/><path class="cls-3" d="M43.08,143.95v1.28h-.14a1.71,1.71,0,0,0,0-.48c-.16-.42-.16-.53,0-.8Z" transform="translate(-0.15 -0.09)"/><path class="cls-4" d="M42.66,27.27l.08.11-.07,0v-.14Z" transform="translate(-0.15 -0.09)"/></g></g></g></g></svg>